<svg xmlns="http://www.w3.org/2000/svg" viewBox="0 0 355.39 483.43"><defs><style>.cls-1,.cls-4{isolation:isolate;}.cls-2,.cls-4{fill:#fff;}.cls-3{fill:#5795b8;stroke:#fff;stroke-width:3px;}.cls-4{font-size:40px;font-family:QuicksandBold-Regular, Quicksand;}.cls-5{letter-spacing:0.01em;}.cls-6{letter-spacing:0em;}.cls-7{fill:#21669e;}.cls-8{mix-blend-mode:color-dodge;}.cls-9{fill:#1091ad;}.cls-10{fill:#108da9;}.cls-11{fill:#108aa4;}.cls-12{fill:#1086a0;}.cls-13{fill:#10829b;}.cls-14{fill:#107e97;}.cls-15{fill:#107b92;}.cls-16{fill:#10778e;}.cls-17{fill:#107389;}.cls-18{fill:#107085;}.cls-19{fill:#106c80;}.cls-20{fill:#10687c;}.cls-21{fill:#106477;}.cls-22{fill:#0f6173;}.cls-23{fill:#0f5d6e;}.cls-24{fill:#0f596a;}.cls-25{fill:#0f5565;}.cls-26{fill:#0f5261;}.cls-27{fill:#0f4e5c;}.cls-28{fill:#0f4a58;}.cls-29{fill:#0f4753;}.cls-30{fill:#0f434f;}.cls-31{fill:#0f3f4a;}.cls-32{fill:#0f3b46;}.cls-33{fill:#0f3841;}.cls-34{fill:#0f343d;}.cls-35{fill:#5d5f71;}.cls-36{fill:#adaab4;}.cls-37{fill:#e9e7ea;}.cls-38{fill:#717382;}.cls-39{fill:#0a1727;}.cls-40{fill:#273240;}.cls-41{fill:#303b48;}.cls-42{fill:#3d4754;}.cls-43{fill:#5e5f6c;}.cls-44{fill:#273341;}.cls-45{fill:#192635;}.cls-46{fill:#646677;}.cls-47{fill:#c4c0c8;}.cls-48{fill:#828495;}.cls-49{fill:#e5e3e7;}.cls-50{fill:#828491;}.cls-51{fill:#383838;}.cls-52{fill:#bbd1ed;}.cls-53{fill:#45466b;}.cls-54{fill:#4fbedd;}.cls-55{fill:#73d0ff;}.cls-56{fill:#ebebf0;}.cls-57{fill:#494c5f;}.cls-58{fill:#656778;}.cls-59{fill:#596039;}.cls-60{mix-blend-mode:overlay;}.cls-61{fill:#00527a;}</style></defs><g class="cls-1"><g id="Capa_2" data-name="Capa 2"><g id="Background"><g id="Componente_7_9" data-name="Componente 7 9"><g id="Trazado_411" data-name="Trazado 411"><path class="cls-2" d="M326.51,481.93h-297A26.48,26.48,0,0,1,3,455.43v-426a26.46,26.46,0,0,1,26.5-26.5h297A26.51,26.51,0,0,1,353,29.43v426a26.49,26.49,0,0,1-7.77,18.74,26.38,26.38,0,0,1-18.73,7.76Z"/><path class="cls-2" d="M29.51,4.43a25,25,0,0,0-25,25v426a25,25,0,0,0,25,25h297a25,25,0,0,0,25-25v-426a25,25,0,0,0-25-25h-297m0-3h297a28,28,0,0,1,28,28v426a28,28,0,0,1-28,28h-297a28,28,0,0,1-28-28v-426A28,28,0,0,1,29.51,1.43Z"/></g><path id="Trazado_410-2" data-name="Trazado 410-2" class="cls-3" d="M1.51,127C7.25,106.4,19,79.87,45.57,79.87H353.89v-50c-.44-19.7-15.48-29.45-32.73-28.12-38.63.1-287.39,0-287.39,0S1.09-3.66,1.5,35.65,1.51,127,1.51,127Z"/><g id="Espacial-2" class="cls-1"><text class="cls-4" transform="translate(96.51 54.43)">Espaci<tspan class="cls-5" x="128.64" y="0">a</tspan><tspan class="cls-6" x="153.96" y="0">l</tspan></text></g></g><path class="cls-7" d="M276.62,287.72l24.95-14.41-25.88-14.94-.13-.08-25-14.42-.13-.08-25-14.41-.13-.07-25-14.43-.26-.15-26,15h0l-25,14.4h0l-24.95,14.41h0l-25,14.4h0l-25,14.4h0l-24.95,14.4,25.89,14.95.14.08,25,14.41.13.07,25,14.43.14.07,25,14.42.26.15,26-15h0l25-14.41h0l25-14.4h0l24.95-14.41h0l25-14.4Zm-76.35-42.89,24.06,13.9-12,6.9-12,6.9-24.06-13.89,11.95-6.91Zm-25,14.41,24.06,13.89L187.43,280l-12,6.91L151.41,273l12-6.9Zm-24.95,14.4,24.06,13.9-12,6.9-12,6.9-24.06-13.89,12-6.91Zm-25,14.41,24.06,13.89-11.95,6.9-12,6.91-24.06-13.9,11.95-6.9Zm25.26,42.19-24.07-13.9,12-6.9,12-6.9,24.07,13.9-12,6.9Zm24.95-14.4-24.07-13.9,12-6.9,11.95-6.9L199.54,302l-12,6.9Zm25-14.41-24.07-13.89,12-6.91,11.95-6.9,24.07,13.9-12,6.9ZM225.53,287l-24.07-13.9,12-6.9,12-6.9,24.07,13.89-12,6.9Zm50.06.09-24.07-13.9,12-6.9,12-6.9,24.07,13.89Zm-13.16-21.4-12,6.9-24.07-13.89,12-6.91,11.95-6.9,24.07,13.9Zm-25.1-14.5-12,6.91-24.06-13.9,11.95-6.9,12-6.9,24.06,13.89Zm-13.15-21.39-12,6.9-11.95,6.9L176.2,229.74l23.91-13.81Zm-25,14.4-12,6.9-12,6.91-24.07-13.9,23.91-13.8Zm-24.95,14.41-12,6.9-11.95,6.9L126.3,258.55l23.91-13.81ZM149.33,273l-12,6.9-12,6.91L101.35,273l23.91-13.8Zm-25,14.41-12,6.9-12,6.9L76.4,287.35l23.91-13.8Zm-49,.5,24.07,13.9-12,6.9-12,6.91-24.07-13.9Zm13.15,21.4,12-6.9,24.06,13.9-12,6.9-12,6.9L76.56,316.26Zm25.11,14.5,11.95-6.9,24.07,13.89-11.95,6.9-12,6.91-24.07-13.9Zm13.15,21.4,12-6.91,12-6.9,24.07,13.9-23.91,13.8Zm25-14.41,11.95-6.9,12-6.9,24.07,13.89-23.91,13.81Zm24.95-14.4,12-6.91,12-6.9,24.07,13.9-23.91,13.8Zm25-14.41,11.95-6.9,12-6.9,24.07,13.89-23.91,13.81Zm24.95-14.4,12-6.91,12-6.9,24.06,13.9-23.9,13.8Z"/><g class="cls-8"><path class="cls-9" d="M128.17,359.89,45.43,312.12a9.16,9.16,0,0,1,0-15.87l165.15-74.19a32.93,32.93,0,0,1,32.95,0l64.41,37.19a9.15,9.15,0,0,1,0,15.86L161.11,359.89A33,33,0,0,1,128.17,359.89Z"/><path class="cls-10" d="M128.17,355.5,45.43,307.73a9.16,9.16,0,0,1,0-15.87l164.42-74.62a33,33,0,0,1,32.94,0l65.15,37.62a9.15,9.15,0,0,1,0,15.86L161.11,355.5A33,33,0,0,1,128.17,355.5Z"/><path class="cls-11" d="M128.17,351.1,45.43,303.34a9.16,9.16,0,0,1,0-15.87l163.69-75a32.91,32.91,0,0,1,32.94,0l65.88,38a9.15,9.15,0,0,1,0,15.86L161.11,351.1A32.91,32.91,0,0,1,128.17,351.1Z"/><path class="cls-12" d="M128.17,346.71,45.43,298.94a9.15,9.15,0,0,1,0-15.86l163-75.47a33,33,0,0,1,33,0l66.61,38.47a9.15,9.15,0,0,1,0,15.86L161.11,346.71A32.91,32.91,0,0,1,128.17,346.71Z"/><path class="cls-13" d="M128.17,342.32,45.43,294.55a9.15,9.15,0,0,1,0-15.86L207.65,202.8a33,33,0,0,1,32.95,0l67.34,38.88a9.16,9.16,0,0,1,0,15.87L161.11,342.32A32.91,32.91,0,0,1,128.17,342.32Z"/><path class="cls-14" d="M128.17,337.93,45.43,290.16a9.15,9.15,0,0,1,0-15.86L206.92,198a32.91,32.91,0,0,1,32.94,0l68.08,39.3a9.16,9.16,0,0,1,0,15.87L161.11,337.93A32.91,32.91,0,0,1,128.17,337.93Z"/><path class="cls-15" d="M128.17,333.54,45.43,285.77a9.15,9.15,0,0,1,0-15.86l160.76-76.74a33,33,0,0,1,32.94,0l68.81,39.73a9.16,9.16,0,0,1,0,15.87L161.11,333.54A33,33,0,0,1,128.17,333.54Z"/><path class="cls-16" d="M128.17,329.15,45.43,281.38a9.15,9.15,0,0,1,0-15.86l160-77.16a32.93,32.93,0,0,1,33,0l69.54,40.15a9.15,9.15,0,0,1,0,15.86L161.11,329.15A33,33,0,0,1,128.17,329.15Z"/><path class="cls-17" d="M128.17,324.76,45.43,277a9.15,9.15,0,0,1,0-15.86l159.29-77.59a33,33,0,0,1,32.94,0l70.28,40.58a9.15,9.15,0,0,1,0,15.86L161.11,324.76A33,33,0,0,1,128.17,324.76Z"/><path class="cls-18" d="M128.17,320.37,45.43,272.6a9.16,9.16,0,0,1,0-15.87l158.56-78a32.91,32.91,0,0,1,32.94,0l71,41a9.15,9.15,0,0,1,0,15.86L161.11,320.37A33,33,0,0,1,128.17,320.37Z"/><path class="cls-19" d="M128.17,316,45.43,268.21a9.16,9.16,0,0,1,0-15.87l157.82-78.42a32.93,32.93,0,0,1,32.95,0l71.74,41.42a9.15,9.15,0,0,1,0,15.86L161.11,316A33,33,0,0,1,128.17,316Z"/><path class="cls-20" d="M128.17,311.58,45.43,263.82a9.16,9.16,0,0,1,0-15.87L202.52,169.1a33,33,0,0,1,32.95,0L307.94,211a9.15,9.15,0,0,1,0,15.86L161.11,311.58A32.91,32.91,0,0,1,128.17,311.58Z"/><path class="cls-21" d="M128.17,307.19,45.43,259.42a9.15,9.15,0,0,1,0-15.86l156.36-79.27a32.91,32.91,0,0,1,32.94,0l73.21,42.27a9.15,9.15,0,0,1,0,15.86L161.11,307.19A32.91,32.91,0,0,1,128.17,307.19Z"/><path class="cls-22" d="M128.17,302.8,45.43,255a9.15,9.15,0,0,1,0-15.86l155.63-79.7a33,33,0,0,1,32.94,0l73.94,42.69a9.16,9.16,0,0,1,0,15.87L161.11,302.8A32.91,32.91,0,0,1,128.17,302.8Z"/><path class="cls-23" d="M128.17,298.41,45.43,250.64a9.15,9.15,0,0,1,0-15.86l154.89-80.12a32.93,32.93,0,0,1,33,0l74.67,43.11a9.16,9.16,0,0,1,0,15.87L161.11,298.41A32.91,32.91,0,0,1,128.17,298.41Z"/><path class="cls-24" d="M128.17,294,45.43,246.25a9.15,9.15,0,0,1,0-15.86l154.16-80.55a33,33,0,0,1,32.94,0l75.41,43.54a9.16,9.16,0,0,1,0,15.87L161.11,294A33,33,0,0,1,128.17,294Z"/><path class="cls-25" d="M128.17,289.63,45.43,241.86a9.15,9.15,0,0,1,0-15.86l153.43-81a33,33,0,0,1,32.94,0l76.14,44a9.15,9.15,0,0,1,0,15.86L161.11,289.63A33,33,0,0,1,128.17,289.63Z"/><path class="cls-26" d="M128.17,285.24,45.43,237.47a9.15,9.15,0,0,1,0-15.86l152.69-81.39a32.93,32.93,0,0,1,32.95,0l76.87,44.38a9.15,9.15,0,0,1,0,15.86L161.11,285.24A33,33,0,0,1,128.17,285.24Z"/><path class="cls-27" d="M128.17,280.85,45.43,233.08a9.16,9.16,0,0,1,0-15.87l152-81.81a33,33,0,0,1,33,0l77.6,44.81a9.15,9.15,0,0,1,0,15.86L161.11,280.85A33,33,0,0,1,128.17,280.85Z"/><path class="cls-28" d="M128.17,276.46,45.43,228.69a9.16,9.16,0,0,1,0-15.87l151.23-82.23a32.91,32.91,0,0,1,32.94,0l78.34,45.23a9.15,9.15,0,0,1,0,15.86L161.11,276.46A33,33,0,0,1,128.17,276.46Z"/><path class="cls-29" d="M128.17,272.06,45.43,224.3a9.16,9.16,0,0,1,0-15.87l150.5-82.66a33,33,0,0,1,32.94,0l79.07,45.66a9.15,9.15,0,0,1,0,15.86L161.11,272.06A32.91,32.91,0,0,1,128.17,272.06Z"/><path class="cls-30" d="M128.17,267.67,45.43,219.9a9.15,9.15,0,0,1,0-15.86L195.19,121a32.93,32.93,0,0,1,32.95,0L307.94,167a9.15,9.15,0,0,1,0,15.86L161.11,267.67A32.91,32.91,0,0,1,128.17,267.67Z"/><path class="cls-31" d="M128.17,263.28,45.43,215.51a9.15,9.15,0,0,1,0-15.86l149-83.5a32.93,32.93,0,0,1,32.95,0l80.53,46.49a9.16,9.16,0,0,1,0,15.87L161.11,263.28A32.91,32.91,0,0,1,128.17,263.28Z"/><path class="cls-32" d="M128.17,258.89,45.43,211.12a9.15,9.15,0,0,1,0-15.86l148.3-83.93a33,33,0,0,1,32.94,0l81.27,46.92a9.16,9.16,0,0,1,0,15.87L161.11,258.89A32.91,32.91,0,0,1,128.17,258.89Z"/><path class="cls-33" d="M128.17,254.5,45.43,206.73a9.15,9.15,0,0,1,0-15.86L193,106.52a32.93,32.93,0,0,1,32.95,0l82,47.34a9.16,9.16,0,0,1,0,15.87L161.11,254.5A32.91,32.91,0,0,1,128.17,254.5Z"/><path class="cls-34" d="M128.17,250.11,45.43,202.34a9.15,9.15,0,0,1,0-15.86L192.26,101.7a33,33,0,0,1,33,0l82.73,47.77a9.15,9.15,0,0,1,0,15.86L161.11,250.11A33,33,0,0,1,128.17,250.11Z"/></g><polygon class="cls-35" points="154.09 330.5 148.95 327.54 148.95 320.73 154.09 323.69 154.09 330.5"/><polygon class="cls-36" points="160.03 320.27 154.88 317.3 148.95 320.73 154.09 323.69 160.03 320.27"/><polygon class="cls-37" points="160.03 327.08 154.09 330.5 154.09 323.69 160.03 320.27 160.03 327.08"/><polygon class="cls-35" points="264.4 266.81 259.26 263.85 259.26 257.04 264.4 260 264.4 266.81"/><polygon class="cls-36" points="270.34 256.58 265.2 253.61 259.26 257.04 264.4 260 270.34 256.58"/><polygon class="cls-37" points="270.34 263.39 264.4 266.81 264.4 260 270.34 256.58 270.34 263.39"/><polygon class="cls-35" points="83.24 289.6 78.1 286.63 78.1 279.82 83.24 282.79 83.24 289.6"/><polygon class="cls-36" points="89.17 271.2 84.03 268.24 78.1 279.82 83.24 282.79 89.17 271.2"/><polygon class="cls-38" points="89.17 286.17 83.24 289.6 83.24 282.79 89.17 271.2 89.17 286.17"/><polygon class="cls-39" points="230.48 218.98 162.86 258.02 205 290.5 272.61 251.47 230.48 218.98"/><polygon class="cls-40" points="270.34 179.38 270.34 256.58 204.11 198.91 194.34 120.05 256.92 156.18 270.34 179.38"/><polygon class="cls-35" points="214.1 172.7 175.76 194.83 175.76 259.12 214.1 236.99 214.1 172.7"/><polygon class="cls-41" points="243.92 214.81 226.81 204.92 166.48 239.75 183.6 249.63 243.92 214.81"/><polygon class="cls-42" points="243.92 233.09 183.6 267.92 183.6 249.63 243.92 214.81 243.92 233.09"/><polygon class="cls-41" points="243.92 223.36 194.53 251.88 194.53 245.52 243.92 217 243.92 223.36"/><polygon class="cls-36" points="246.7 219.73 197.3 248.25 197.3 241.9 246.7 213.38 246.7 219.73"/><polygon class="cls-43" points="246.7 213.38 242.09 210.72 192.7 239.24 197.3 241.9 246.7 213.38"/><polygon class="cls-44" points="243.79 213.33 242.52 212.59 193.12 241.11 194.4 241.85 243.79 213.33"/><polygon class="cls-42" points="231.85 207.85 171.53 242.68 164.86 228.92 225.19 194.09 231.85 207.85"/><polygon class="cls-36" points="231.69 207.12 182.29 235.63 182.29 229.28 231.69 200.76 231.69 207.12"/><polygon class="cls-43" points="231.69 200.76 227.09 198.1 177.69 226.62 182.29 229.28 231.69 200.76"/><polygon class="cls-44" points="228.78 200.71 227.51 199.97 178.11 228.49 179.38 229.23 228.78 200.71"/><polygon class="cls-41" points="225.19 194.09 216.63 189.15 156.3 223.98 164.86 228.92 225.19 194.09"/><polygon class="cls-45" points="270.34 256.58 250.12 268.25 250.12 253.06 270.34 249.54 270.34 256.58"/><polygon class="cls-45" points="250.12 268.25 202.19 295.92 202.19 280.73 250.12 253.06 250.12 268.25"/><polygon class="cls-46" points="252.92 190.39 252.92 262.83 247.45 252.18 247.45 190.82 235.57 169.99 213.53 157.27 213.53 151.68 239.01 166.39 252.92 190.39"/><polygon class="cls-36" points="252.92 247.65 199.53 279.85 199.53 272.82 247.45 245.15 252.92 247.65"/><polygon class="cls-47" points="252.92 262.83 205 290.5 205 275.32 252.92 247.65 252.92 262.83"/><polygon class="cls-42" points="194.34 120.05 78.1 187.17 120.23 211.5 236.48 144.38 194.34 120.05"/><polygon class="cls-48" points="228.65 166 180.72 193.67 180.72 188.08 228.65 160.41 228.65 166"/><polygon class="cls-36" points="161.32 181.82 117.49 207.12 142.97 221.83 186.8 196.53 161.32 181.82"/><polygon class="cls-36" points="233.74 140 217.8 149.21 243.28 163.92 259.22 154.72 233.74 140"/><polygon class="cls-36" points="217.8 149.21 161.32 181.82 176.45 190.55 232.93 157.94 217.8 149.21"/><polygon class="cls-40" points="179.29 283.44 162.17 273.56 162.17 255.27 179.29 265.15 179.29 283.44"/><polygon class="cls-45" points="202.19 295.92 154.09 323.69 154.09 312.13 202.19 280.73 202.19 295.92"/><polygon class="cls-47" points="205 218.06 156.89 245.84 156.89 318.28 205 290.5 205 218.06"/><polygon class="cls-49" points="205 218.06 156.89 245.84 142.97 221.83 191.08 194.06 205 218.06"/><polygon class="cls-47" points="273.14 178.72 252.92 190.39 252.92 262.83 273.14 251.16 273.14 178.72"/><polygon class="cls-50" points="260.48 237.27 259.24 235.04 261.46 233.8 261.46 220.03 264.01 220.03 264.01 235.31 260.48 237.27"/><polygon class="cls-50" points="272.69 217.09 272.56 189.15 255.28 199.25 255.41 227.19 272.69 217.09"/><polygon class="cls-49" points="273.14 178.72 252.92 190.39 239.01 166.39 259.22 154.72 273.14 178.72"/><polygon class="cls-40" points="154.09 246.49 154.09 323.69 78.1 279.82 78.1 187.17 140.67 223.29 154.09 246.49"/><polygon class="cls-38" points="156.89 245.84 156.89 318.28 131.44 295.43 117.49 248.52 117.49 207.12 142.97 221.83 156.89 245.84"/><path class="cls-40" d="M128.34,254.49c0,1.56-1.11,2.19-2.47,1.41a5.44,5.44,0,0,1-2.47-4.27c0-1.56,1.1-2.19,2.47-1.41A5.47,5.47,0,0,1,128.34,254.49Z"/><polygon class="cls-39" points="114.21 280.61 85.07 263.79 85.07 265.72 114.21 282.55 114.21 280.61"/><polygon class="cls-39" points="114.21 276.57 85.07 259.75 85.07 261.68 114.21 278.51 114.21 276.57"/><polygon class="cls-39" points="114.21 272.53 85.07 255.71 85.07 257.64 114.21 274.47 114.21 272.53"/><polygon class="cls-39" points="114.21 268.49 85.07 251.67 85.07 253.6 114.21 270.43 114.21 268.49"/><polygon class="cls-36" points="191.08 194.06 186.8 196.53 176.45 190.55 180.72 188.08 191.08 194.06"/><polygon class="cls-36" points="243.28 163.92 239.01 166.39 228.65 160.41 232.93 157.94 243.28 163.92"/><path class="cls-51" d="M263.37,238.84a8.71,8.71,0,0,1-3.78-1.06,1.56,1.56,0,0,1-.63-2.22h0a1.58,1.58,0,0,1,2-.6c1.66.82,2.55.8,2.84.62a5,5,0,0,0,2.42-4.24V202.81h3.15v28.53a8.12,8.12,0,0,1-3.92,6.93A3.9,3.9,0,0,1,263.37,238.84Z"/><path class="cls-52" d="M271,208.56c0,1.33-.94,1.87-2.1,1.2a4.62,4.62,0,0,1-2.1-3.62c0-1.33.94-1.87,2.1-1.2A4.62,4.62,0,0,1,271,208.56Z"/><polygon class="cls-39" points="271.65 212.5 264.6 216.57 261.73 211.41 268.63 207.42 271.65 212.5"/><polygon class="cls-38" points="268.75 217.94 281.59 181.95 261.73 193.56 266.93 217.59 268.75 217.94"/><path class="cls-45" d="M265.36,215.15c0,1.33-.94,1.87-2.1,1.2a4.63,4.63,0,0,1-2.1-3.63c0-1.33.94-1.86,2.1-1.19A4.62,4.62,0,0,1,265.36,215.15Z"/><polygon class="cls-37" points="288.62 206.32 283.42 182.29 263.55 193.91 268.75 217.94 288.62 206.32"/><polygon class="cls-53" points="269.71 215.55 286.77 205.58 282.46 184.68 265.4 194.65 269.71 215.55"/><polygon class="cls-54" points="285.89 205.19 281.91 185.91 266.28 195.04 270.26 214.32 285.89 205.19"/><polygon class="cls-55" points="269.49 193.17 285.22 201.95 285.89 205.19 278.28 209.63 267.73 202.04 266.28 195.04 269.49 193.17"/><path class="cls-56" d="M270.38,207.05l-1.24-6,.12-.07,12.53-7.33,1.25,6-.13.07Zm-.8-5.82,1.07,5.21,11.94-7-1.07-5.21Z"/><polygon class="cls-56" points="276.59 202.59 275.65 198.04 270.02 201.33 270.96 205.88 276.59 202.59"/><polygon class="cls-38" points="283.42 182.29 281.59 181.95 261.73 193.56 263.55 193.91 283.42 182.29"/><path class="cls-56" d="M269.2,198.59a.14.14,0,0,1-.06.16c-.07,0-.1,0-.11-.06l-.32-1.52.56-.33a.22.22,0,0,1,.22,0c.09,0,.11.11.14.22l.06.29a.55.55,0,0,1,0,.31.43.43,0,0,1-.21.23l-.38.21Zm-.15-.71.38-.22c.1-.06.11-.11.09-.23l-.06-.29c0-.12-.06-.14-.16-.08l-.38.22Z"/><path class="cls-56" d="M270.43,197.89a.13.13,0,0,1-.06.15c-.07,0-.1,0-.11,0l-.32-1.53.57-.33a.22.22,0,0,1,.34.15l0,.15a.43.43,0,0,1-.21.45l-.16.09.53.45a.16.16,0,0,1,.07.09.13.13,0,0,1-.07.14.08.08,0,0,1-.09,0l-.65-.55,0,0Zm-.21-1,.38-.22a.14.14,0,0,0,.1-.16l0-.14c0-.09-.08,0-.14,0l-.38.22Z"/><path class="cls-56" d="M272.09,195.89a.42.42,0,0,1,.1.2.66.66,0,0,1,0,.28l-.07.48a.43.43,0,0,1-.17.29.18.18,0,0,1-.25,0l-.24-.3a.42.42,0,0,1-.11-.21.57.57,0,0,1,0-.26l.08-.52a.36.36,0,0,1,.17-.28.17.17,0,0,1,.24,0Zm-.38-.14s0-.05-.08,0,0,.06,0,.1l-.07.47a.41.41,0,0,0,0,.19.27.27,0,0,0,.06.12l.25.3s0,0,.07,0a.16.16,0,0,0,.05-.09l.08-.5a.38.38,0,0,0,0-.15.26.26,0,0,0-.07-.15Z"/><path class="cls-56" d="M273.2,196.41a.2.2,0,0,1-.3,0l-.24-.29a.61.61,0,0,1-.09-.2.57.57,0,0,1,0-.26l.07-.48a.44.44,0,0,1,.23-.35l.29-.16s.09,0,.1,0a.12.12,0,0,1-.06.15l-.28.17c-.08,0-.09.06-.1.15l-.08.45a.54.54,0,0,0,0,.18.27.27,0,0,0,.07.13l.22.27c.05.07.07.07.15,0l.28-.16s.09,0,.11.06a.15.15,0,0,1-.07.15Z"/><path class="cls-56" d="M274.69,195.33s.09,0,.11,0a.15.15,0,0,1-.07.16L274,196l-.34-1.62.76-.44s.09,0,.11.06a.14.14,0,0,1-.07.15l-.59.34.11.5.25-.15s.09,0,.11.06a.14.14,0,0,1-.06.15l-.26.15.11.49Z"/><path class="cls-56" d="M275.9,194.41a.19.19,0,0,1,.1.14.32.32,0,0,1-.17.35l-.37.22a.19.19,0,0,1-.19,0,.17.17,0,0,1-.12-.14.15.15,0,0,1,.06-.18c.05,0,.09,0,.11.06s0,.05.08,0l.38-.22s.06,0,.05,0,0,0-.05-.05L275,194a.19.19,0,0,1-.09-.14.31.31,0,0,1,0-.25.29.29,0,0,1,.13-.12l.36-.21a.22.22,0,0,1,.19,0,.23.23,0,0,1,.12.15.15.15,0,0,1-.06.17c-.05,0-.09,0-.11-.05s0-.06-.1,0l-.36.21s-.06,0-.05.06,0,0,0,0Z"/><path class="cls-56" d="M277.13,193.7a.24.24,0,0,1,.1.14.34.34,0,0,1-.17.36l-.37.22a.27.27,0,0,1-.19,0,.19.19,0,0,1-.12-.15.16.16,0,0,1,.06-.18c.05,0,.09,0,.11.06s0,.06.09,0L277,194s.05,0,.05-.06,0,0-.05,0l-.78-.59a.18.18,0,0,1-.09-.14.33.33,0,0,1,.05-.25.29.29,0,0,1,.13-.12l.36-.21a.27.27,0,0,1,.19,0,.26.26,0,0,1,.12.16.16.16,0,0,1-.06.17c-.05,0-.09,0-.11,0s0-.07-.09,0l-.37.21s-.06,0-.05.07l0,0Z"/><path class="cls-56" d="M278.13,193.35l.25-.14s.09,0,.11.06a.14.14,0,0,1-.07.15l-.67.39c-.05,0-.09,0-.11-.06a.14.14,0,0,1,.06-.15l.26-.15-.26-1.21-.25.15c-.05,0-.09,0-.11-.06a.14.14,0,0,1,.06-.15l.68-.39s.09,0,.11.06a.13.13,0,0,1-.07.15l-.25.14Z"/><path class="cls-56" d="M279.25,191.24a.11.11,0,0,1,.06-.15c.06,0,.09,0,.11,0l.32,1.52-.22.13-.72-1h0L279,193a.12.12,0,0,1-.06.15c-.06,0-.09,0-.11-.06l-.32-1.52.22-.13.72,1h0Z"/><path class="cls-56" d="M280.52,191.62s-.09,0-.11-.05a.15.15,0,0,1,.07-.16l.33-.19.09.41a.46.46,0,0,1-.2.49l-.3.16c-.08.05-.14.07-.21,0s-.12-.1-.14-.21l-.11-.52a.64.64,0,0,1,0-.36l.14-.43a.44.44,0,0,1,.21-.28l.23-.13s.09,0,.11.06a.14.14,0,0,1-.07.15l-.2.12c-.1,0-.09,0-.13.16l-.12.4a.54.54,0,0,0,0,.31l.09.41c0,.11,0,.13.15.08l.27-.16a.14.14,0,0,0,.09-.17l0-.22Z"/><polygon class="cls-36" points="195.69 235.87 166.2 252.9 166.2 292.31 195.69 275.29 195.69 235.87"/><polygon class="cls-57" points="168.07 259.8 167.46 261.2 169.85 273.62 179.85 267.83 180.33 266.36 179.93 262.5 178.15 255.7 175.68 255.35 168.07 259.8"/><polygon class="cls-49" points="195.69 275.29 166.2 292.31 166.2 277.89 186.13 266.38 195.69 275.29"/><polygon class="cls-38" points="186.13 266.38 182.63 250.47 182.63 243.41 195.69 235.87 195.69 275.29 186.13 266.38"/><polygon class="cls-38" points="179.07 267.74 179.93 263.71 177.76 264.98 178.33 267.6 179.07 267.74"/><polygon class="cls-37" points="181.24 266.48 180.67 263.85 178.5 265.12 179.07 267.74 181.24 266.48"/><polygon class="cls-38" points="180.67 263.85 179.93 263.71 177.76 264.98 178.5 265.12 180.67 263.85"/><polygon class="cls-38" points="176.54 269.23 177.4 265.19 175.23 266.46 175.8 269.08 176.54 269.23"/><polygon class="cls-37" points="178.71 267.96 178.14 265.33 175.97 266.6 176.54 269.23 178.71 267.96"/><polygon class="cls-38" points="178.14 265.33 177.4 265.19 175.23 266.46 175.97 266.6 178.14 265.33"/><polygon class="cls-38" points="174 270.71 174.86 266.68 172.69 267.94 173.26 270.57 174 270.71"/><polygon class="cls-37" points="176.17 269.44 175.6 266.81 173.43 268.08 174 270.71 176.17 269.44"/><polygon class="cls-38" points="175.6 266.81 174.86 266.68 172.69 267.94 173.43 268.08 175.6 266.81"/><polygon class="cls-58" points="171.47 272.19 172.33 268.16 170.16 269.43 170.73 272.05 171.47 272.19"/><polygon class="cls-37" points="173.63 270.92 173.07 268.3 170.9 269.56 171.47 272.19 173.63 270.92"/><polygon class="cls-38" points="173.07 268.3 172.33 268.16 170.16 269.43 170.9 269.56 173.07 268.3"/><polygon class="cls-38" points="178.38 264.53 179.24 260.5 177.07 261.77 177.64 264.39 178.38 264.53"/><polygon class="cls-37" points="180.54 263.26 179.98 260.64 177.81 261.91 178.38 264.53 180.54 263.26"/><polygon class="cls-38" points="179.98 260.64 179.24 260.5 177.07 261.77 177.81 261.91 179.98 260.64"/><polygon class="cls-38" points="175.84 266.01 176.7 261.98 174.53 263.25 175.1 265.88 175.84 266.01"/><polygon class="cls-37" points="178.01 264.75 177.44 262.12 175.27 263.39 175.84 266.01 178.01 264.75"/><polygon class="cls-38" points="177.44 262.12 176.7 261.98 174.53 263.25 175.27 263.39 177.44 262.12"/><polygon class="cls-38" points="173.31 267.5 174.17 263.46 172 264.73 172.57 267.36 173.31 267.5"/><polygon class="cls-37" points="175.47 266.23 174.91 263.61 172.74 264.87 173.31 267.5 175.47 266.23"/><polygon class="cls-38" points="174.91 263.61 174.17 263.46 172 264.73 172.74 264.87 174.91 263.61"/><polygon class="cls-58" points="170.77 268.98 171.63 264.95 169.46 266.21 170.03 268.84 170.77 268.98"/><polygon class="cls-37" points="172.94 267.71 172.37 265.09 170.2 266.36 170.77 268.98 172.94 267.71"/><polygon class="cls-38" points="172.37 265.09 171.63 264.95 169.46 266.21 170.2 266.36 172.37 265.09"/><polygon class="cls-38" points="177.68 261.32 178.54 257.29 176.37 258.56 176.94 261.18 177.68 261.32"/><polygon class="cls-37" points="179.85 260.06 179.28 257.43 177.11 258.7 177.68 261.32 179.85 260.06"/><polygon class="cls-38" points="179.28 257.43 178.54 257.29 176.37 258.56 177.11 258.7 179.28 257.43"/><polygon class="cls-38" points="175.15 262.81 176.01 258.77 173.84 260.04 174.41 262.67 175.15 262.81"/><polygon class="cls-37" points="177.31 261.54 176.75 258.91 174.58 260.18 175.15 262.81 177.31 261.54"/><polygon class="cls-38" points="176.75 258.91 176.01 258.77 173.84 260.04 174.58 260.18 176.75 258.91"/><polygon class="cls-38" points="172.61 264.29 173.47 260.25 171.3 261.52 171.87 264.15 172.61 264.29"/><polygon class="cls-37" points="174.78 263.02 174.21 260.39 172.04 261.66 172.61 264.29 174.78 263.02"/><polygon class="cls-38" points="174.21 260.39 173.47 260.25 171.3 261.52 172.04 261.66 174.21 260.39"/><polygon class="cls-58" points="170.07 265.77 170.94 261.74 168.77 263 169.34 265.63 170.07 265.77"/><polygon class="cls-37" points="172.24 264.5 171.68 261.88 169.51 263.14 170.07 265.77 172.24 264.5"/><polygon class="cls-38" points="171.68 261.88 170.94 261.74 168.77 263 169.51 263.14 171.68 261.88"/><polygon class="cls-38" points="176.99 258.11 177.85 254.08 175.68 255.35 176.25 257.97 176.99 258.11"/><polygon class="cls-37" points="179.16 256.85 178.59 254.22 176.42 255.49 176.99 258.11 179.16 256.85"/><polygon class="cls-38" points="178.59 254.22 177.85 254.08 175.68 255.35 176.42 255.49 178.59 254.22"/><polygon class="cls-38" points="174.45 259.6 175.31 255.56 173.14 256.83 173.71 259.45 174.45 259.6"/><polygon class="cls-37" points="176.62 258.33 176.05 255.7 173.88 256.97 174.45 259.6 176.62 258.33"/><polygon class="cls-38" points="176.05 255.7 175.31 255.56 173.14 256.83 173.88 256.97 176.05 255.7"/><polygon class="cls-38" points="171.91 261.08 172.78 257.05 170.61 258.31 171.18 260.94 171.91 261.08"/><polygon class="cls-37" points="174.08 259.81 173.52 257.19 171.35 258.45 171.91 261.08 174.08 259.81"/><polygon class="cls-38" points="173.52 257.19 172.78 257.05 170.61 258.31 171.35 258.45 173.52 257.19"/><polygon class="cls-58" points="169.38 262.56 170.24 258.53 168.07 259.8 168.64 262.42 169.38 262.56"/><polygon class="cls-37" points="171.55 261.29 170.98 258.67 168.81 259.94 169.38 262.56 171.55 261.29"/><polygon class="cls-38" points="170.98 258.67 170.24 258.53 168.07 259.8 168.81 259.94 170.98 258.67"/><polygon class="cls-39" points="177.56 252.91 176.66 248.75 166.88 254.47 167.78 258.62 177.56 252.91"/><polygon class="cls-59" points="167.46 254.72 176.31 249.55 176.98 252.65 168.13 257.82 167.46 254.72"/><polygon class="cls-35" points="210.53 210.72 207.96 209.23 204.6 200.48 210.53 203.91 210.53 210.72"/><polygon class="cls-36" points="216.47 200.48 210.53 197.05 204.6 200.48 210.53 203.91 216.47 200.48"/><polygon class="cls-37" points="216.47 207.29 210.53 210.72 210.53 203.91 216.47 200.48 216.47 207.29"/><polygon class="cls-57" points="195.69 235.87 182.63 245.28 166.2 254.58 166.2 252.9 195.69 235.87"/><path class="cls-45" d="M214.13,199.25h-.52a2.94,2.94,0,0,0-.54-.41,5.67,5.67,0,0,0-5.09,0,3,3,0,0,0-.54.42h-.5v1.05h0a1.83,1.83,0,0,0,1.06,1.46,5.64,5.64,0,0,0,5.08,0,1.82,1.82,0,0,0,1-1.37h0Z"/><path class="cls-40" d="M213.08,200.72a5.64,5.64,0,0,1-5.08,0c-1.41-.82-1.41-2.13,0-2.94a5.67,5.67,0,0,1,5.09,0C214.47,198.6,214.48,199.91,213.08,200.72Z"/><path class="cls-37" d="M212.52,196.83h-.28a2.32,2.32,0,0,0-.3-.22,3.11,3.11,0,0,0-2.82,0,1.46,1.46,0,0,0-.3.22h-.28V199h0a1,1,0,0,0,.59.81,3.09,3.09,0,0,0,2.81,0,1,1,0,0,0,.58-.76h0Z"/><path class="cls-36" d="M211.94,197.65a3.09,3.09,0,0,1-2.81,0,.86.86,0,0,1,0-1.62,3.11,3.11,0,0,1,2.82,0A.86.86,0,0,1,211.94,197.65Z"/><g class="cls-60"><polygon class="cls-61" points="154.09 330.5 148.95 327.54 148.95 320.73 154.09 323.69 154.09 330.5"/><path class="cls-2" d="M154.26,330.8l-5.48-3.16v-7.21l5.48,3.16Zm-5.14-3.36,4.8,2.77v-6.42l-4.8-2.77Z"/><path class="cls-2" d="M154.58,331.35l-6.12-3.53v-7.94l6.12,3.53Zm-5.14-4.09,4.16,2.4V324l-4.16-2.4Z"/><path class="cls-2" d="M154.75,331.64l-6.46-3.72v-8.33l6.46,3.73Zm-6.12-3.92,5.77,3.33v-7.54l-5.77-3.33Zm5.14,2.23-4.51-2.6v-6.08l4.51,2.61Zm-4.16-2.79,3.82,2.21v-5.3l-3.82-2.21Z"/><polygon class="cls-61" points="160.03 320.27 154.88 317.3 148.95 320.73 154.09 323.69 160.03 320.27"/><path class="cls-2" d="M154.09,323.89l-5.48-3.17.25-.14,6-3.48,5.47,3.17-.25.14Zm-4.8-3.17,4.8,2.78,5.6-3.23-4.8-2.78Z"/><path class="cls-2" d="M154.09,324.26,148,320.73l6.9-4,6.12,3.53Zm-4.17-3.53,4.17,2.4,5-2.86-4.17-2.41Z"/><path class="cls-2" d="M154.09,324.45l-6.45-3.73.25-.14,7-4,6.45,3.73-.26.14Zm-5.78-3.73,5.78,3.34,6.57-3.79-5.77-3.34Zm5.78,2.61-4.51-2.61,5.31-3.06,4.5,2.61Zm-3.83-2.61,3.83,2.22,4.62-2.67-3.82-2.21Z"/><polygon class="cls-61" points="160.03 327.08 154.09 330.5 154.09 323.69 160.03 320.27 160.03 327.08"/><path class="cls-2" d="M153.92,330.8v-7.21L160.2,320v7.21Zm.34-7v6.42l5.59-3.23v-6.42Z"/><path class="cls-2" d="M153.6,331.35v-7.94l6.91-4v7.94Zm1-7.38v5.69l5-2.86v-5.69Z"/><path class="cls-2" d="M153.43,331.64v-8.32l7.25-4.19v8.33Zm.34-8.13v7.54l6.57-3.79v-7.54Zm.63,6.44v-6.07l5.31-3.06v6.07Zm.35-5.88v5.3l4.62-2.67v-5.3Z"/><polygon class="cls-61" points="264.4 266.81 259.26 263.85 259.26 257.04 264.4 260 264.4 266.81"/><path class="cls-2" d="M264.57,267.11,259.09,264v-7.21l5.48,3.16Zm-5.14-3.36,4.8,2.77V260.1l-4.8-2.77Z"/><path class="cls-2" d="M264.89,267.66l-6.11-3.53v-7.94l6.11,3.53Zm-5.14-4.09,4.17,2.4v-5.68l-4.17-2.41Z"/><path class="cls-2" d="M265.06,268l-6.46-3.72V255.9l6.46,3.73ZM259,264l5.77,3.33v-7.54L259,256.49Zm5.14,2.24-4.51-2.61v-6.08l4.51,2.61Zm-4.17-2.8,3.82,2.21v-5.3l-3.82-2.21Z"/><polygon class="cls-61" points="270.34 256.58 265.2 253.61 259.26 257.04 264.4 260 270.34 256.58"/><path class="cls-2" d="M264.4,260.2,258.92,257l.26-.15,6-3.48,5.48,3.17-.26.14ZM259.6,257l4.8,2.77,5.6-3.23-4.8-2.78Z"/><path class="cls-2" d="M264.4,260.57,258.29,257l6.91-4,6.11,3.53ZM260.24,257l4.16,2.4,5-2.86-4.17-2.41Z"/><path class="cls-2" d="M264.4,260.76,258,257l.25-.15,7-4,6.45,3.73-.25.14ZM258.63,257l5.77,3.33,6.57-3.79-5.77-3.34Zm5.77,2.6-4.5-2.6,5.3-3.06,4.5,2.6Zm-3.83-2.6,3.83,2.21,4.63-2.67-3.83-2.21Z"/><polygon class="cls-61" points="270.34 263.39 264.4 266.81 264.4 260 270.34 256.58 270.34 263.39"/><path class="cls-2" d="M264.23,267.11V259.9l6.28-3.62v7.21Zm.34-7v6.42l5.6-3.23v-6.42Z"/><path class="cls-2" d="M263.92,267.66v-7.94l6.91-4v7.94Zm1-7.37V266l5-2.86v-5.69Z"/><path class="cls-2" d="M263.74,268v-8.32l7.26-4.19v8.33Zm.35-8.13v7.54l6.56-3.79V256Zm.63,6.45v-6.08l5.3-3.06v6.07Zm.34-5.89v5.3l4.62-2.67v-5.3Z"/><polygon class="cls-61" points="83.23 289.6 78.09 286.63 78.09 279.82 83.23 282.79 83.23 289.6"/><path class="cls-2" d="M83.41,289.89l-5.49-3.16v-7.21l5.49,3.17Zm-5.15-3.36,4.8,2.77v-6.42l-4.8-2.77Z"/><path class="cls-2" d="M83.72,290.44l-6.11-3.53V279l6.11,3.52Zm-5.14-4.09,4.17,2.4v-5.68l-4.17-2.41Z"/><path class="cls-2" d="M83.89,290.74,77.44,287v-8.33l6.45,3.73Zm-6.11-3.93,5.77,3.34V282.6l-5.77-3.33Zm5.14,2.24-4.51-2.6v-6.08l4.51,2.6Zm-4.17-2.8,3.83,2.21v-5.3L78.75,281Z"/><polygon class="cls-61" points="89.17 271.2 84.03 268.24 78.09 279.82 83.23 282.79 89.17 271.2"/><path class="cls-2" d="M83.3,283l-.15-.09-5.28-3.05.07-.14L84,268l.16.09,5.28,3.05-.08.14Zm-5-3.27,4.85,2.8L89,271.27l-4.85-2.8Z"/><path class="cls-2" d="M83.44,283.46l-6-3.45,6.38-12.45,6,3.46Zm-4.7-3.83,4.3,2.48,5.49-10.71-4.3-2.48Z"/><path class="cls-2" d="M83.51,283.7l-.16-.09-6.12-3.53.07-.15,6.46-12.61.16.09L90,271l-.08.14Zm-5.83-3.76,5.69,3.29,6.22-12.15-5.69-3.29Zm5.43,2.4-.16-.08-4.43-2.56.07-.15,5.57-10.87.16.09,4.43,2.56-.07.14ZM79,279.56l4,2.31,5.33-10.41-4-2.31Z"/><polygon class="cls-61" points="89.17 286.17 83.23 289.6 83.23 282.79 89.17 271.2 89.17 286.17"/><path class="cls-2" d="M83.06,289.89l0-7.18,6.25-12.21v15.77Zm.35-7.06v6.47L89,286.07V271.91Z"/><path class="cls-2" d="M82.75,290.44l0-7.88,6.86-13.37v17.26Zm1-7.54v5.85l5-2.86V273.22Z"/><path class="cls-2" d="M82.58,290.74v-.3l.07-7.95,7.18-14v18.06ZM83,282.6l0,7.55,6.57-3.8V269.89Zm.58,6.45,0-6.22,5.28-10.31V286Zm.34-6.1v5.51l4.62-2.67V273.92Z"/><polygon class="cls-61" points="230.48 218.98 162.86 258.02 205 290.5 272.61 251.47 230.48 218.98"/><path class="cls-2" d="M205,290.71,162.55,258l.22-.12,67.72-39.1,42.43,32.71-.22.12ZM163.16,258,205,290.3l67.3-38.85-41.85-32.26Z"/><path class="cls-2" d="M205,291.09,162,258l68.52-39.56,43,33.12Zm-41.23-33L205,289.92l66.7-38.51-41.3-31.84Z"/><path class="cls-2" d="M204.94,291.29l-43.26-33.35.22-.12,68.63-39.63,43.26,33.36-.22.12ZM162.29,258,205,290.89l68.21-39.38L230.5,218.6ZM205,290.12l-41.59-32.06.22-.13,66.8-38.56,41.6,32.06-.22.12Zm-41-32,41,31.62,66.39-38.33-41-31.62Z"/><polygon class="cls-61" points="270.34 179.38 270.34 256.58 204.11 198.91 194.34 120.05 256.92 156.18 270.34 179.38"/><path class="cls-2" d="M270.51,257l-.28-.24L204,199v-.06l-9.8-79.2.29.17L257,156.05l0,0,13.45,23.24Zm-66.24-58.13,65.9,57.38V179.42L256.79,156.3l-62.24-35.93Z"/><path class="cls-2" d="M270.83,257.65l-67.18-58.5-9.91-80,63.53,36.68.07.11,13.49,23.32Zm-66.26-59,65.28,56.85v-76l-13.29-23L195,121Z"/><path class="cls-2" d="M271,258l-.29-.24-67.22-58.54v-.07l-9.95-80.35.3.17L257.4,155.7l.08.15L271,179.2Zm-67.19-58.95,66.84,58.21v-78L257.15,156,194,119.46ZM270,255.88l-.28-.24-65.33-56.89v-.07l-9.66-78,.29.17,61.65,35.59,0,0,13.31,23Zm-65.29-57.3,65,56.56V179.55l-13.24-22.89-61.28-35.38Z"/><polygon class="cls-61" points="214.1 172.7 175.76 194.83 175.76 259.12 214.1 236.99 214.1 172.7"/><path class="cls-2" d="M175.59,259.41V194.73l.09,0,38.59-22.28v64.68l-.08,0Zm.34-64.48v63.9l38-21.94V173Z"/><path class="cls-2" d="M175.27,260V194.55l.25-.14,39.07-22.56v65.42l-.25.14Zm1-64.85v63.17l37.36-21.58V173.54Z"/><path class="cls-2" d="M175.1,260.26V194.45l.33-.19,39.33-22.7v65.8l-.33.19Zm.35-65.61v65l39-22.5v-65Zm.63,63.92V195l.08-.05,37.62-21.73V236.8l-.08,0Zm.34-63.36V258l37-21.37V173.83Z"/><polygon class="cls-61" points="243.92 214.81 226.81 204.92 166.48 239.75 183.6 249.63 243.92 214.81"/><path class="cls-2" d="M183.6,249.83l-17.46-10.08.26-.15,60.41-34.87.08.05,17.37,10L244,215Zm-16.78-10.08,16.78,9.69,60-34.64-16.77-9.68Z"/><path class="cls-2" d="M183.6,250.2l-18.09-10.45,61.3-35.39,18.09,10.45Zm-16.14-10.45,16.14,9.32L243,214.81l-16.14-9.33Z"/><path class="cls-2" d="M183.6,250.39l-.09,0-18.34-10.59.25-.15,61.39-35.43.08,0,18.34,10.6L245,215Zm-17.75-10.64L183.6,250l61-35.19-17.75-10.25Zm17.75,9.52-.09-.05-16.39-9.47.25-.15,59.44-34.31.08.05,16.4,9.47L243,215Zm-15.81-9.52,15.81,9.13,59-34.07-15.8-9.13Z"/><polygon class="cls-61" points="243.92 233.09 183.6 267.92 183.6 249.63 243.92 214.81 243.92 233.09"/><path class="cls-2" d="M183.43,268.21V249.53l.08-.05,60.58-35v18.68l-.08.05Zm.34-18.48v17.9l60-34.64V215.1Z"/><path class="cls-2" d="M183.11,268.76V249.35l.25-.14,61-35.25v19.41l-.24.14Zm1-18.85v17.17l59.35-34.27V215.65Z"/><path class="cls-2" d="M182.94,269.06v-19.8l.33-.2,61.31-35.39v19.8l-.33.19Zm.34-19.61v19l61-35.2v-19Zm.63,17.92V249.82l.09,0,59.61-34.42v17.56l-.09.05Zm.35-17.36v16.77l59-34.07V215.94Z"/><polygon class="cls-61" points="243.92 223.36 194.53 251.88 194.53 245.52 243.92 217 243.92 223.36"/><path class="cls-2" d="M194.35,252.17v-6.75l.09,0,49.65-28.66v6.74l-.08.05Zm.35-6.55v6l49.05-28.32v-6Z"/><path class="cls-2" d="M194,252.72v-7.48l.24-.14,50.13-28.94v7.48l-.24.14Zm1-6.92V251l48.43-27.95v-5.24Z"/><path class="cls-2" d="M193.87,253v-7.87l.33-.19,50.38-29.09v7.88l-.33.19Zm.34-7.67v7.08l50-28.88v-7.09Zm.63,6V245.7l.09,0,48.68-28.1v5.62l-.09.05Zm.34-5.43v4.84L243.27,223v-4.84Z"/><polygon class="cls-61" points="246.7 219.73 197.3 248.25 197.3 241.9 246.7 213.38 246.7 219.73"/><path class="cls-2" d="M197.13,248.55V241.8l.09-.05,49.65-28.67v6.75l-.09,0Zm.34-6.56v6l49.06-28.33v-6Z"/><path class="cls-2" d="M196.81,249.1v-7.48l.25-.15,50.13-28.94V220l-.25.15Zm1-6.92v5.23l48.42-28v-5.23Z"/><path class="cls-2" d="M196.64,249.39v-7.87l.34-.19,50.38-29.09v7.87l-.33.19Zm.34-7.68v7.09l50-28.88v-7.09Zm.64,6v-5.62l.08-.05,48.68-28.1v5.62l-.08,0Zm.34-5.42v4.84L246,219.35v-4.83Z"/><polygon class="cls-61" points="246.7 213.38 242.09 210.72 192.7 239.24 197.3 241.9 246.7 213.38"/><path class="cls-2" d="M197.3,242.09l-4.94-2.85.25-.15,49.48-28.57,4.95,2.86-.26.14ZM193,239.24l4.26,2.46,49.06-28.32-4.27-2.46Z"/><path class="cls-2" d="M197.3,242.46l-5.58-3.22,50.37-29.08,5.58,3.22Zm-3.63-3.22,3.63,2.09,48.43-28-3.64-2.1Z"/><path class="cls-2" d="M197.3,242.65l-5.91-3.41.25-.15L242.09,210l5.92,3.42-.25.14Zm-5.24-3.41,5.24,3,50-28.88-5.24-3Zm5.24,2.29-4-2.29.26-.15,48.5-28,4,2.29-.25.14ZM194,239.24l3.29,1.9,48.09-27.76-3.3-1.9Z"/><polygon class="cls-61" points="243.79 213.33 242.52 212.59 193.12 241.11 194.4 241.85 243.79 213.33"/><path class="cls-2" d="M194.39,242l-1.6-.93L193,241l49.48-28.56,1.61.93-.25.15Zm-.93-.93.93.54,49.06-28.32-.93-.54Z"/><path class="cls-2" d="M194.4,242.41l-2.25-1.3L242.52,212l2.25,1.3Zm-.3-1.3.3.17,48.42-27.95-.3-.17Z"/><path class="cls-2" d="M194.4,242.61l-2.59-1.5.25-.14,50.46-29.13,2.58,1.49-.25.14Zm-1.91-1.5,1.91,1.1,50-28.88-1.91-1.1Zm1.91.37-.64-.37L194,241l48.51-28,.64.37-.26.14Z"/><polygon class="cls-61" points="231.85 207.85 171.53 242.68 164.86 228.92 225.19 194.09 231.85 207.85"/><path class="cls-2" d="M171.46,242.91l-.08-.16-6.74-13.9.14-.08,60.48-34.92.08.16,6.74,13.9-.14.08ZM165.09,229l6.51,13.46,60-34.66-6.52-13.45Z"/><path class="cls-2" d="M171.32,243.36l-7.09-14.64,61.16-35.31,7.1,14.63Zm-5.82-14.25L171.74,242l59.48-34.34L225,194.77Z"/><path class="cls-2" d="M171.25,243.6l-.08-.17L164,228.65l.14-.08,61.33-35.4.08.16,7.16,14.78-.13.08Zm-6.8-14.81,6.94,14.33L232.27,208l-7-14.34Zm7.22,13.44-.08-.16-6.31-13,.13-.08,59.64-34.43.08.16,6.31,13-.14.08Zm-5.95-13,6.1,12.57L231,207.59,224.9,195Z"/><polygon class="cls-61" points="231.69 207.12 182.29 235.63 182.29 229.28 231.69 200.76 231.69 207.12"/><path class="cls-2" d="M182.12,235.93v-6.75l.09-.05,49.65-28.66v6.74l-.09,0Zm.34-6.55v6L231.52,207v-6Z"/><path class="cls-2" d="M181.8,236.48V229l.25-.14,50.12-28.94v7.48l-.24.14Zm1-6.92v5.23l48.42-28V201.6Z"/><path class="cls-2" d="M181.63,236.77V228.9l.33-.19,50.38-29.09v7.87l-.32.19Zm.34-7.68v7.09l50-28.88v-7.09Zm.64,6v-5.63l.08-.05,48.68-28.1v5.62l-.08,0Zm.34-5.43v4.84L231,206.74v-4.85Z"/><polygon class="cls-61" points="231.69 200.76 227.09 198.1 177.69 226.62 182.29 229.28 231.69 200.76"/><path class="cls-2" d="M182.29,229.47l-4.94-2.85.25-.15,49.48-28.56,4.95,2.85-.26.15ZM178,226.62l4.26,2.46,49.06-28.32-4.27-2.46Z"/><path class="cls-2" d="M182.29,229.84l-5.58-3.22,50.37-29.08,5.58,3.22Zm-3.63-3.22,3.63,2.1,48.42-28-3.63-2.1Z"/><path class="cls-2" d="M182.29,230l-5.91-3.42.25-.15,50.45-29.13,5.92,3.42-.25.15Zm-5.24-3.42,5.24,3,50-28.88-5.24-3Zm5.24,2.29-4-2.29.26-.15,48.5-28,4,2.29-.25.15ZM179,226.62l3.29,1.9,48.08-27.76-3.29-1.9Z"/><polygon class="cls-61" points="228.78 200.71 227.51 199.97 178.11 228.49 179.38 229.23 228.78 200.71"/><path class="cls-2" d="M179.38,229.42l-1.6-.93.25-.14,49.48-28.57,1.61.93-.25.14Zm-.93-.93.93.54,49.06-28.32-.93-.54Z"/><path class="cls-2" d="M179.38,229.79l-2.24-1.3,50.37-29.08,2.24,1.3Zm-.29-1.3.29.18,48.43-28-.3-.17Z"/><path class="cls-2" d="M179.38,230l-2.58-1.48.26-.15,50.45-29.13,2.58,1.49-.25.14Zm-1.9-1.48,1.9,1.09,50-28.88-1.91-1.1Zm1.9.36-.63-.36.25-.15,48.51-28,.64.37-.26.14Z"/><polygon class="cls-61" points="225.19 194.09 216.63 189.15 156.3 223.98 164.86 228.92 225.19 194.09"/><path class="cls-2" d="M164.86,229.11,156,224l.25-.14L216.63,189l8.89,5.14-.25.15ZM156.64,224l8.22,4.75,60-34.63-8.22-4.75Z"/><path class="cls-2" d="M164.86,229.48l-9.53-5.5,61.3-35.39,9.53,5.5Zm-7.58-5.5,7.58,4.37,59.35-34.26-7.58-4.38Z"/><path class="cls-2" d="M164.86,229.68,155,224l.26-.14,61.38-35.44,9.87,5.7-.26.15ZM155.67,224l9.19,5.31,61-35.19-9.19-5.31Zm9.19,4.58L156.94,224l.25-.14,59.44-34.32,7.92,4.58-.25.15ZM157.62,224l7.24,4.19,59-34.07-7.24-4.18Z"/><polygon class="cls-61" points="270.34 256.58 250.12 268.25 250.12 253.06 270.34 249.54 270.34 256.58"/><path class="cls-2" d="M250,268.54V252.92l.14,0,20.42-3.56v7.33l-.09.05Zm.34-15.33V268l19.88-11.48v-6.73Z"/><path class="cls-2" d="M249.63,269.09V252.65l21.2-3.68v7.89Zm1-15.62v13.94l19.24-11.11v-6.18Z"/><path class="cls-2" d="M249.46,269.39V252.51l.15,0L271,248.77V257l-.09,0Zm.35-16.59v16l20.84-12v-7.59Zm.63,14.9V253.33l.14,0L270,249.92v6.47l-.08.05Zm.34-14.09v13.5l18.9-10.91v-5.88Z"/><polygon class="cls-61" points="250.12 268.25 202.19 295.92 202.19 280.73 250.12 253.06 250.12 268.25"/><path class="cls-2" d="M202,296.21V280.64l.09-.05,48.18-27.82v15.58l-.08,0Zm.34-15.38v14.8L250,268.15V253.36Z"/><path class="cls-2" d="M201.71,296.76V280.45l.24-.14,48.66-28.09v16.31l-.25.14Zm1-15.75v14.07L249.63,268V253.91Z"/><path class="cls-2" d="M201.54,297.06V280.35l.33-.19,48.91-28.23v16.7l-.33.19Zm.34-16.51v15.92l48.56-28V252.51Zm.63,14.82V280.92l.09-.05,47.21-27.26v14.46l-.09.05Zm.34-14.26v13.67l46.61-26.91V254.2Z"/><polygon class="cls-61" points="252.92 190.39 252.92 262.83 247.45 252.18 247.45 190.82 235.57 169.99 213.53 157.27 213.53 151.68 239.01 166.39 252.92 190.39"/><path class="cls-2" d="M253.09,263.53l-5.81-11.35V190.87l-11.83-20.76-22.09-12.75v-6l.25.15,25.52,14.73,0,0,13.93,24Zm-5.47-11.39,5.13,10V190.44l-13.87-23.93L213.7,152v5.2l22,12.7,0,0,11.9,20.87Z"/><polygon class="cls-2" points="247.62 245.17 247.28 245.13 252.75 190.45 235.44 170.1 228.51 160.51 228.79 160.31 235.71 169.89 253.1 190.34 253.09 190.41 247.62 245.17"/><polygon class="cls-2" points="252.24 246.89 247.28 190.84 238.88 166.55 228.65 166.17 228.66 165.83 239.13 166.22 239.17 166.33 247.61 190.77 252.58 246.86 252.24 246.89"/><path class="cls-2" d="M253.41,264.85,247,252.3V191l-11.76-20.6L213,157.55v-6.72L239.36,166l14,24.23Zm-5.47-12.78,4.5,8.75v-70.3l-13.79-23.78L214,152.52V157l21.92,12.64,12,21.07Z"/><path class="cls-2" d="M253.58,265.55,246.8,252.3V191l-11.71-20.53-22.22-12.82v-7.11l.25.15,26.37,15.22,0,0,14.07,24.27Zm-6.44-13.29,6.1,11.88V190.31l-14-24.16-26-15v6.32l22.12,12.77,0,0,11.78,20.65Zm5.46,9.26-4.83-9.45V190.74l-12-21-22-12.68v-4.86l.26.15,24.68,14.25,0,0,13.8,23.81Zm-4.49-9.5,4.15,8.1V190.57l-13.73-23.7-24.35-14.06v4.08l21.87,12.62,0,0,12,21.1Z"/><polygon class="cls-61" points="252.92 247.65 199.53 279.85 199.53 272.82 247.45 245.15 252.92 247.65"/><path class="cls-2" d="M199.36,280.15v-7.43l.08,0,48-27.72,5.85,2.66-.28.17Zm.34-7.23v6.63l52.86-31.88-5.1-2.33Z"/><path class="cls-2" d="M199,280.72v-8.18l.24-.14,48.15-27.8,6.53,3Zm1-7.62V279l51.87-31.28-4.4-2Z"/><path class="cls-2" d="M198.87,281v-8.58l.33-.19,48.22-27.84.08,0,6.83,3.12-.28.16Zm.34-8.38v7.78l54.39-32.81-6.16-2.81Zm.63,6.65V273l.09-.05,47.54-27.45,4.77,2.17-.27.17Zm.34-6.09v5.49l51.34-31-4-1.84Z"/><polygon class="cls-61" points="252.92 262.83 205 290.5 205 275.32 252.92 247.65 252.92 262.83"/><path class="cls-2" d="M204.82,290.8V275.22l.09-.05,48.18-27.82v15.58L253,263Zm.34-15.38v14.79l47.59-27.48V247.94Z"/><polygon class="cls-2" points="205.15 290.05 204.92 289.79 252.32 247.52 252.55 247.77 205.15 290.05"/><polygon class="cls-2" points="205.04 275.48 204.95 275.15 252.88 262.67 252.97 263 205.04 275.48"/><path class="cls-2" d="M204.51,291.35V275l.24-.15,48.66-28.09v16.31l-.24.14Zm1-15.75v14.06l47-27.11V248.49Z"/><path class="cls-2" d="M204.34,291.64v-16.7l.33-.19,48.91-28.24v16.7l-.33.19Zm.34-16.51v15.92l48.56-28V247.1Zm.63,14.82V275.5l.09-.05,47.2-27.26v14.46l-.08.05Zm.34-14.26v13.68l46.61-26.92V248.78Z"/><polygon class="cls-61" points="194.34 120.05 78.09 187.17 120.23 211.5 236.48 144.38 194.34 120.05"/><path class="cls-2" d="M120.23,211.69l-.08-.05L77.76,187.17,78,187l116.33-67.16.09,0,42.39,24.48-.25.15Zm-41.8-24.52,41.8,24.13,115.91-66.92-41.8-24.13Z"/><polygon class="cls-2" points="120.36 211.04 120.1 210.83 194.46 119.52 194.72 119.73 120.36 211.04"/><rect class="cls-2" x="75.44" y="165.96" width="164.1" height="0.34" transform="matrix(0.97, -0.26, 0.26, 0.97, -37.85, 46.78)"/><path class="cls-2" d="M120.23,212.06l-.24-.14L77.12,187.17l117.22-67.68.25.14,42.87,24.75-.73.42ZM79.07,187.17l41.16,23.76,115.28-66.55-41.17-23.77Z"/><path class="cls-2" d="M120.23,212.25l-.33-.19L76.78,187.17,77,187l117.3-67.73.33.19,43.12,24.9-1,.57ZM77.46,187.17l42.77,24.69,116.89-67.48-42.78-24.69Zm42.77,24-.08,0L78.73,187.17,79,187l115.36-66.6.09,0,41.42,23.92-.26.15Zm-40.82-24,40.82,23.57,114.94-66.36-40.83-23.57Z"/><polygon class="cls-61" points="228.65 166 180.72 193.67 180.72 188.08 228.65 160.41 228.65 166"/><path class="cls-2" d="M180.55,194v-6l.09,0,48.18-27.81v6l-.08,0Zm.35-5.78v5.19l47.58-27.47v-5.2Z"/><path class="cls-2" d="M180.24,194.51V187.8l.24-.14,48.66-28.09v6.71l-.25.14Zm1-6.15v4.46l46.95-27.1v-4.47Z"/><path class="cls-2" d="M180.07,194.8v-7.1l.32-.19,48.92-28.24v7.11l-.33.19Zm.34-6.9v6.32l48.56-28v-6.32Zm.63,5.22v-4.86l.09,0L228.34,161v4.85l-.09.05Zm.34-4.66v4.07L228,165.62v-4.08Z"/><polygon class="cls-61" points="161.32 181.82 117.49 207.12 142.97 221.83 186.8 196.53 161.32 181.82"/><path class="cls-2" d="M143,222l-.08-.05-25.74-14.86.26-.15,43.91-25.35.09,0,25.73,14.86-.26.14Zm-25.14-14.91L143,221.63l43.49-25.1L161.32,182Z"/><polygon class="cls-2" points="143.13 221.9 142.82 221.76 161.17 181.75 161.47 181.89 143.13 221.9"/><polygon class="cls-2" points="118.49 207.29 118.44 206.95 186.77 196.36 186.82 196.69 118.49 207.29"/><path class="cls-2" d="M143,222.39l-26.45-15.27,44.8-25.87,26.45,15.28Zm-24.5-15.27L143,221.27l42.86-24.74-24.51-14.15Z"/><path class="cls-2" d="M143,222.59l-.08-.05-26.71-15.42.25-.15,44.89-25.91.09.05,26.7,15.42-.25.14Zm-26.11-15.47L143,222.2l44.47-25.67-26.12-15.08ZM143,221.46l-.08,0-24.76-14.3.25-.15,42.94-24.79.09,0,24.75,14.3-.25.14Zm-24.16-14.34L143,221.07l42.52-24.54-24.17-13.95Z"/><polygon class="cls-61" points="233.74 140 217.8 149.21 243.28 163.92 259.22 154.71 233.74 140"/><path class="cls-2" d="M243.28,164.11l-.08-.05-25.74-14.85.26-.15,16-9.25.09.05,25.73,14.85-.25.15Zm-25.14-14.9,25.14,14.51,15.61-9L233.74,140.2Z"/><polygon class="cls-2" points="243.13 163.98 233.59 140.06 233.9 139.94 243.44 163.85 243.13 163.98"/><rect class="cls-2" x="238.6" y="131.78" width="0.34" height="40.35" transform="translate(55.63 367.74) rotate(-82.15)"/><path class="cls-2" d="M243.28,164.48l-26.45-15.27,16.91-9.77,26.46,15.27Zm-24.5-15.27,24.5,14.14,15-8.64-24.51-14.15Z"/><path class="cls-2" d="M243.28,164.67l-.08,0-26.71-15.42.26-.15,17-9.82.09,0,26.7,15.42-.25.15Zm-26.11-15.46,26.11,15.07,16.58-9.57-26.12-15.07Zm26.11,14.34-.08-.05-24.76-14.29.25-.15,15.05-8.69.09,0,24.76,14.29-.26.15Zm-24.16-14.34,24.16,13.95,14.63-8.45-24.17-14Z"/><polygon class="cls-61" points="217.8 149.21 161.32 181.82 176.45 190.55 232.93 157.94 217.8 149.21"/><path class="cls-2" d="M176.45,190.74,161,181.82l.26-.15L217.8,149l15.47,8.93-.26.14Zm-14.79-8.92,14.79,8.53,56.14-32.41L217.8,149.4Z"/><rect class="cls-2" x="167.89" y="169.71" width="58.48" height="0.34" transform="translate(-62.4 189) rotate(-44.97)"/><polygon class="cls-2" points="161.38 181.98 161.27 181.66 232.88 157.78 232.98 158.1 161.38 181.98"/><path class="cls-2" d="M176.45,191.11l-16.1-9.29,57.45-33.18,16.1,9.3Zm-14.16-9.29L176.45,190,232,157.94l-14.16-8.17Z"/><path class="cls-2" d="M176.45,191.31l-.09-.05L160,181.82l.25-.15,57.54-33.22.09.05,16.35,9.44-.25.14Zm-15.76-9.49,15.76,9.09,57.11-33-15.76-9.1Zm15.76,8.36L162,181.82l.25-.15,55.59-32.1,14.49,8.37-.25.14Zm-13.82-8.36,13.82,8,55.17-31.85-13.82-8Z"/><polygon class="cls-61" points="179.29 283.44 162.17 273.56 162.17 255.27 179.29 265.15 179.29 283.44"/><path class="cls-2" d="M179.46,283.73l-.26-.14L162,273.66V255l.26.14,17.2,9.94Zm-17.12-10.27,16.78,9.69v-17.9l-16.78-9.69Z"/><path class="cls-2" d="M179.78,284.28l-18.09-10.44V254.43l18.09,10.44Zm-17.12-11,16.14,9.32V265.44l-16.14-9.33Z"/><path class="cls-2" d="M180,284.58l-.26-.15-18.17-10.49V254.13l.25.15L180,264.77Zm-18.09-10.84L179.61,284V265l-17.75-10.25ZM179,282.89l-.25-.15-16.23-9.37V255.82l.25.15L179,265.34Zm-16.14-9.71,15.8,9.12V265.53l-15.8-9.12Z"/><polygon class="cls-61" points="202.19 295.92 154.09 323.69 154.09 312.13 202.19 280.73 202.19 295.92"/><path class="cls-2" d="M153.92,324V312L154,312l48.36-31.57V296l-.08.05Zm.34-11.76V323.4L202,295.82V281.05Z"/><path class="cls-2" d="M153.6,324.54V311.87l49.08-32V296.2l-.24.14Zm1-12.14v10.45l47.13-27.21v-14Z"/><path class="cls-2" d="M153.43,324.83V311.78l.08,0,49.34-32.21V296.3l-.33.19Zm.34-12.87v12.28l48.74-28.14v-16Zm.63,11.19V312.31l.08-.05,47.4-30.94v14.42l-.09.05Zm.35-10.66v10.07l46.79-27v-13.6Z"/><polygon class="cls-61" points="205 218.06 156.89 245.84 156.89 318.28 205 290.5 205 218.06"/><path class="cls-2" d="M156.72,318.57V245.74l.09-.05,48.36-27.92V290.6l-.09,0Zm.34-72.64V318l47.77-27.57V218.36Z"/><polygon class="cls-2" points="157.02 318.39 156.77 318.17 195.56 275.17 195.82 275.4 157.02 318.39"/><polygon class="cls-2" points="157.05 318.33 156.73 318.22 166.04 292.26 196.03 234.95 204.85 217.99 205.15 218.14 196.33 235.11 166.35 292.39 157.05 318.33"/><polygon class="cls-2" points="205.31 291.34 195.56 275.4 165.61 252.75 157.09 246.05 157.31 245.78 165.82 252.49 195.84 275.2 204.68 289.67 195.52 235.9 195.86 235.84 205.31 291.34"/><path class="cls-2" d="M156.4,319.12V245.56l.25-.14,48.83-28.2v73.57l-.24.14Zm1-73v71.32l47.13-27.22V218.91Z"/><path class="cls-2" d="M156.23,319.42v-74l.33-.19,49.09-28.34v74l-.33.18Zm.35-73.77v73.18l48.73-28.14V217.51Zm.63,72.08V246l.08-.05,47.39-27.36v71.71l-.08.05Zm.34-71.51v70.92l46.79-27V219.2Z"/><polygon class="cls-61" points="205 218.06 156.89 245.84 142.97 221.83 191.08 194.06 205 218.06"/><path class="cls-2" d="M156.83,246.07l-14.09-24.3.15-.09,48.25-27.85,14.09,24.3-.15.08Zm-13.62-24.18L157,245.6,204.76,218,191,194.29Z"/><polygon class="cls-2" points="157.03 245.93 156.75 245.74 190.94 193.97 191.22 194.15 157.03 245.93"/><polygon class="cls-2" points="165.82 252.75 165.6 252.49 204.52 218.26 143.34 221.65 143.32 221.3 205.48 217.87 205.11 218.19 165.82 252.75"/><path class="cls-2" d="M156.71,246.5l-14.4-24.85,48.95-28.26,14.4,24.85ZM143.64,222l13.43,23.16,47.26-27.28L190.9,194.72Z"/><path class="cls-2" d="M156.65,246.73l-14.57-25.14.14-.08,49.1-28.35,14.57,25.14-.14.09Zm-14.11-25,14.24,24.56,48.65-28.09-14.24-24.56ZM157,245.41,143.41,222l.14-.09L191,194.49,204.56,218l-.14.08Zm-13.14-23.34,13.26,22.87,47-27.12L190.84,195Z"/><polygon class="cls-61" points="273.14 178.72 252.92 190.39 252.92 262.83 273.14 251.16 273.14 178.72"/><path class="cls-2" d="M252.75,263.13V190.3l.09-.05,20.47-11.82v72.83l-.09.05Zm.34-72.64v72.05L273,251.06V179Z"/><path class="cls-2" d="M252.44,263.68V190.11l21.19-12.23v73.56Zm1-73V262l19.24-11.11V179.56Z"/><path class="cls-2" d="M252.27,264V190l.08,0,21.45-12.38v74l-.09.05Zm.34-73.76v73.17l20.85-12V178.17Zm.63,72.08V190.57l.08,0,19.5-11.26V251l-.08.05Zm.34-71.52V261.7l18.9-10.92V179.86Z"/><polygon class="cls-61" points="273.14 178.72 252.92 190.39 239.01 166.39 259.22 154.71 273.14 178.72"/><path class="cls-2" d="M252.86,190.63l-14.09-24.31.15-.08,20.37-11.76,14.08,24.3-.15.09Zm-13.62-24.18L253,190.16l19.93-11.5L259.16,155Z"/><polygon class="cls-2" points="272.98 251.21 253.24 190.27 253.24 190.23 259.06 154.69 259.39 154.74 253.58 190.25 273.3 251.11 272.98 251.21"/><polygon class="cls-2" points="253.09 262.87 252.76 262.8 272.94 178.83 239.31 166.19 239.42 165.87 273.34 178.61 273.31 178.76 253.09 262.87"/><path class="cls-2" d="M252.75,191.06l-14.41-24.85,21.06-12.16,14.41,24.85Zm-13.08-24.5,13.43,23.17,19.37-11.19-13.42-23.16Z"/><path class="cls-2" d="M252.68,191.29l-14.57-25.14.15-.09,21.2-12.24L274,179l-.15.08Zm-14.11-25,14.24,24.55,20.77-12-14.24-24.56ZM253,190l-13.6-23.46.15-.08,19.52-11.27,13.6,23.45-.15.09ZM239.9,166.63l13.26,22.87,19.08-11L259,155.61Z"/><polygon class="cls-61" points="154.09 246.49 154.09 323.69 78.09 279.82 78.09 187.17 140.67 223.29 154.09 246.49"/><path class="cls-2" d="M154.26,324l-.26-.15L77.92,279.92V186.87l.26.15,62.61,36.15,0,0,13.45,23.24Zm-76-44.27,75.66,43.68V246.54l-13.38-23.12-62.28-36Z"/><polygon class="cls-2" points="153.94 323.77 78.44 188.09 78.73 187.93 154.24 323.61 153.94 323.77"/><polygon class="cls-2" points="78.19 279.96 78 279.68 146.66 233.68 146.85 233.97 78.19 279.96"/><path class="cls-2" d="M154.58,324.54l-.73-.42-76.24-44V186.32L141,222.94l.07.11,13.49,23.31Zm-76-45,75,43.31V246.62l-13.29-23L78.58,188Z"/><path class="cls-2" d="M154.75,324.83l-1-.57L77.44,280.2V186l.25.15,63.46,36.63.08.15,13.52,23.36ZM77.78,280l76.62,44.24V246.41l-13.5-23.35L77.78,186.62Zm76,43.15-.25-.15L78.41,279.63V187.72l.26.14,61.76,35.67,0,0,13.31,23Zm-75-43.71,74.68,43.12V246.67l-13.24-22.9L78.75,188.3Z"/><polygon class="cls-61" points="156.89 245.84 156.89 318.28 131.44 295.43 117.49 248.52 117.49 207.12 142.97 221.83 156.89 245.84"/><path class="cls-2" d="M157.06,318.66l-.28-.25-25.49-22.89,0,0-14-47V206.83l.26.14,25.52,14.74,0,0,13.94,24Zm-25.47-23.32,25.13,22.56v-72L142.85,222l-25.19-14.54v41.08Z"/><polygon class="cls-2" points="156.25 317.24 117.82 208.02 118.14 207.91 156.56 317.13 156.25 317.24"/><polygon class="cls-2" points="131.59 295.51 131.29 295.35 156.96 245.33 157.06 245.8 166.36 292.28 166.03 292.35 156.82 246.34 131.59 295.51"/><polygon class="cls-2" points="117.61 248.64 117.37 248.4 142.85 221.72 143.09 221.95 117.61 248.64"/><path class="cls-2" d="M157.38,319.37,131,295.7l0-.13-14-47V206.28l26.32,15.19,14,24.24Zm-25.52-24.21,24.54,22V246l-13.78-23.78L118,208v40.49Z"/><path class="cls-2" d="M157.55,319.75l-.29-.25-26.4-23.7-.05-.18-14-47.1V206l.25.15,26.36,15.22,0,0,14.07,24.27ZM131.16,295.6,157.21,319V245.75l-14-24.15-26-15v41.92Zm25.42,22-.29-.26-24.57-22.06,0,0-13.89-46.76V207.67l.26.15,24.67,14.24,0,0,13.82,23.82ZM132,295.07l24.22,21.74V246l-13.74-23.7-24.34-14.05v40.16Z"/><path class="cls-61" d="M128.34,254.49c0,1.56-1.11,2.19-2.47,1.41a5.44,5.44,0,0,1-2.47-4.27c0-1.56,1.1-2.19,2.47-1.41A5.47,5.47,0,0,1,128.34,254.49Z"/><path class="cls-2" d="M127,256.41a2.48,2.48,0,0,1-1.2-.37,5.62,5.62,0,0,1-2.55-4.41,1.88,1.88,0,0,1,.8-1.73,1.91,1.91,0,0,1,1.92.18,5.64,5.64,0,0,1,2.56,4.41,1.9,1.9,0,0,1-.8,1.73A1.53,1.53,0,0,1,127,256.41Zm-2.22-6.36a1.13,1.13,0,0,0-.56.14,1.57,1.57,0,0,0-.63,1.44,5.28,5.28,0,0,0,2.38,4.12,1.59,1.59,0,0,0,1.59.17,1.54,1.54,0,0,0,.63-1.43,5.27,5.27,0,0,0-2.39-4.12A2.08,2.08,0,0,0,124.76,250.05Z"/><path class="cls-2" d="M127,256.72a2.68,2.68,0,0,1-1.35-.4,5.9,5.9,0,0,1-2.72-4.69,2.18,2.18,0,0,1,1-2,2.21,2.21,0,0,1,2.24.17,5.9,5.9,0,0,1,2.72,4.69,2.18,2.18,0,0,1-1,2A1.71,1.71,0,0,1,127,256.72Zm-2.22-6.35a.74.74,0,0,0-.4.1,1.29,1.29,0,0,0-.48,1.16,5,5,0,0,0,2.23,3.84,1.31,1.31,0,0,0,1.27.18,1.29,1.29,0,0,0,.47-1.16,5,5,0,0,0-2.22-3.84A1.76,1.76,0,0,0,124.76,250.37Z"/><path class="cls-2" d="M127,256.89a2.81,2.81,0,0,1-1.44-.43,6.07,6.07,0,0,1-2.8-4.83,2.33,2.33,0,0,1,1.05-2.15,2.36,2.36,0,0,1,2.41.18,6.07,6.07,0,0,1,2.8,4.83,2.34,2.34,0,0,1-1,2.15A1.9,1.9,0,0,1,127,256.89Zm-2.22-7.32a1.56,1.56,0,0,0-.8.2,2,2,0,0,0-.88,1.86,5.71,5.71,0,0,0,2.63,4.54,2.09,2.09,0,0,0,2.07.18,2,2,0,0,0,.88-1.86A5.72,5.72,0,0,0,126,250,2.53,2.53,0,0,0,124.76,249.57Zm2.22,6.35a1.9,1.9,0,0,1-1-.3,5.17,5.17,0,0,1-2.32-4,1.46,1.46,0,0,1,.56-1.31,1.5,1.5,0,0,1,1.44.18,5.18,5.18,0,0,1,2.31,4,1.44,1.44,0,0,1-.56,1.31A1,1,0,0,1,127,255.92Zm-2.22-5.38a.63.63,0,0,0-.32.08,1.15,1.15,0,0,0-.39,1,4.78,4.78,0,0,0,2.15,3.7,1.15,1.15,0,0,0,1.09.17,1.13,1.13,0,0,0,.39-1,4.8,4.8,0,0,0-2.14-3.7A1.64,1.64,0,0,0,124.76,250.54Z"/><polygon class="cls-61" points="114.21 280.61 85.07 263.79 85.07 265.72 114.21 282.55 114.21 280.61"/><path class="cls-2" d="M114.38,282.84l-.26-.15L84.9,265.82v-2.33l.25.15,29.23,16.87ZM85.24,265.62,114,282.25v-1.54l-28.8-16.63Z"/><path class="cls-2" d="M114.7,283.39,84.58,266v-3.06l30.12,17.39ZM85.56,265.44l28.16,16.26v-.81L85.56,264.63Z"/><path class="cls-2" d="M114.87,283.68l-.26-.14L84.41,266.1v-3.45l.26.15,30.2,17.43ZM84.75,265.9l29.78,17.19v-2.66L84.75,263.24ZM113.9,282l-.26-.15L85.39,265.54v-1.2l.25.14L113.9,280.8ZM85.73,265.34l27.82,16.07V281L85.73,264.92Z"/><polygon class="cls-61" points="114.21 276.57 85.07 259.75 85.07 261.68 114.21 278.51 114.21 276.57"/><path class="cls-2" d="M114.38,278.8l-.26-.15L84.9,261.78v-2.33l.25.15,29.23,16.87ZM85.24,261.58,114,278.21v-1.54L85.24,260Z"/><path class="cls-2" d="M114.7,279.35,84.58,262V258.9l30.12,17.39Zm-29.14-18,28.16,16.26v-.81L85.56,260.59Z"/><path class="cls-2" d="M114.87,279.64l-.26-.14-30.2-17.44v-3.45l.26.15,30.2,17.43ZM84.75,261.86l29.78,17.19v-2.66L84.75,259.2ZM113.9,278l-.26-.15L85.39,261.5v-1.21l.25.15,28.26,16.31ZM85.73,261.3l27.82,16.07V277L85.73,260.88Z"/><polygon class="cls-61" points="114.21 272.53 85.07 255.71 85.07 257.64 114.21 274.47 114.21 272.53"/><path class="cls-2" d="M114.38,274.76l-.26-.15L84.9,257.74v-2.33l.25.15,29.23,16.88ZM85.24,257.54,114,274.17v-1.54L85.24,256Z"/><path class="cls-2" d="M114.7,275.31,84.58,257.92v-3.06l30.12,17.39ZM85.56,257.36l28.16,16.26v-.81L85.56,256.55Z"/><path class="cls-2" d="M114.87,275.6l-.26-.14L84.41,258v-3.45l.26.15,30.2,17.43ZM84.75,257.82,114.53,275v-2.67L84.75,255.16Zm29.15,16.1-.26-.15L85.39,257.46v-1.2l.25.14,28.26,16.31ZM85.73,257.26l27.82,16.07v-.42L85.73,256.84Z"/><polygon class="cls-61" points="114.21 268.49 85.07 251.67 85.07 253.6 114.21 270.43 114.21 268.49"/><path class="cls-2" d="M114.38,270.72l-.26-.15L84.9,253.7v-2.33l.25.15,29.23,16.87ZM85.24,253.5,114,270.13v-1.54L85.24,252Z"/><path class="cls-2" d="M114.7,271.27,84.58,253.88v-3.06l30.12,17.39ZM85.56,253.32l28.16,16.26v-.81L85.56,252.51Z"/><path class="cls-2" d="M114.87,271.56l-.26-.14L84.41,254v-3.45l.26.15,30.2,17.43ZM84.75,253.78,114.53,271v-2.66L84.75,251.12Zm29.15,16.1-.26-.15L85.39,253.42v-1.21l.25.15,28.26,16.32ZM85.73,253.22l27.82,16.07v-.42L85.73,252.8Z"/><polygon class="cls-61" points="191.08 194.06 186.8 196.53 176.45 190.55 180.72 188.08 191.08 194.06"/><path class="cls-2" d="M186.8,196.72l-10.69-6.17,4.61-2.67,10.7,6.18Zm-10-6.17,10,5.78,3.94-2.27-10-5.78Z"/><path class="cls-2" d="M186.8,197.09l-11.33-6.54,5.25-3,11.33,6.54Zm-9.38-6.54L186.8,196l3.31-1.9-9.39-5.42Z"/><path class="cls-2" d="M186.8,197.29l-11.66-6.74,5.58-3.23,11.67,6.74Zm-11-6.74,11,6.34,4.91-2.83-11-6.35Zm11,5.61-9.72-5.61,3.64-2.1,9.72,5.61Zm-9-5.61,9,5.22,3-1.71-9.05-5.22Z"/><polygon class="cls-61" points="243.28 163.92 239.01 166.39 228.65 160.41 232.93 157.94 243.28 163.92"/><path class="cls-2" d="M239,166.58l-10.7-6.17,4.62-2.67,10.69,6.18Zm-10-6.17,10,5.78,3.94-2.27-10-5.79Z"/><path class="cls-2" d="M239,167l-11.33-6.54,5.25-3,11.33,6.54Zm-9.39-6.54,9.39,5.41,3.3-1.9-9.38-5.42Z"/><path class="cls-2" d="M239,167.14l-11.67-6.73,5.59-3.23,11.67,6.74Zm-11-6.73,11,6.34,4.91-2.83-11-6.35ZM239,166l-9.72-5.61,3.64-2.11,9.72,5.62Zm-9-5.61,9,5.22,3-1.71-9-5.22Z"/><path class="cls-61" d="M263.37,238.84a8.71,8.71,0,0,1-3.78-1.06,1.56,1.56,0,0,1-.63-2.22h0a1.58,1.58,0,0,1,2-.6c1.66.82,2.55.8,2.84.62a5,5,0,0,0,2.42-4.24V202.81h3.15v28.53a8.12,8.12,0,0,1-3.92,6.93A3.9,3.9,0,0,1,263.37,238.84Z"/><path class="cls-2" d="M263.37,239a9.07,9.07,0,0,1-3.86-1.08,1.65,1.65,0,0,1-.88-1.05,1.78,1.78,0,0,1,.18-1.41,1.76,1.76,0,0,1,2.26-.66c1.62.8,2.45.77,2.67.63a4.82,4.82,0,0,0,2.33-4.1v-28.7h3.5v28.7a8.29,8.29,0,0,1-4,7.07A4.06,4.06,0,0,1,263.37,239Zm-3.07-4a1.42,1.42,0,0,0-1.35,1.81,1.34,1.34,0,0,0,.71.85c2.41,1.18,4.35,1.35,5.73.49a7.94,7.94,0,0,0,3.84-6.78V203h-2.81v28.36a5.15,5.15,0,0,1-2.51,4.39c-.36.23-1.35.19-3-.61A1.38,1.38,0,0,0,260.3,235Z"/><path class="cls-2" d="M263.37,239.32a9.31,9.31,0,0,1-4-1.1,2,2,0,0,1-1.05-1.25,2.1,2.1,0,0,1,.22-1.66,2,2,0,0,1,2.67-.78c1.49.73,2.22.7,2.36.64a4.52,4.52,0,0,0,2.19-3.83v-29h4.12v29a8.59,8.59,0,0,1-4.15,7.34A4.39,4.39,0,0,1,263.37,239.32Zm-3.06-4a1.09,1.09,0,0,0-1.05,1.41,1,1,0,0,0,.54.64c2.3,1.14,4.14,1.31,5.42.51a7.62,7.62,0,0,0,3.69-6.51V203.29h-2.18v28.05a5.46,5.46,0,0,1-2.65,4.66c-.58.36-1.78.15-3.3-.6A1.12,1.12,0,0,0,260.31,235.29Z"/><path class="cls-2" d="M263.37,239.49a9.49,9.49,0,0,1-4.07-1.12,2.18,2.18,0,0,1-1.14-1.36,2.23,2.23,0,0,1,3.12-2.63,4,4,0,0,0,2.22.63,4.32,4.32,0,0,0,2.09-3.67V202.15h4.46v29.19a8.77,8.77,0,0,1-4.24,7.49A4.5,4.5,0,0,1,263.37,239.49Zm-3.07-5a1.89,1.89,0,0,0-1.62.91,1.93,1.93,0,0,0-.2,1.52,1.88,1.88,0,0,0,1,1.15c2.57,1.26,4.68,1.42,6.19.47a8.45,8.45,0,0,0,4.07-7.2V202.49h-3.78v28.85a4.66,4.66,0,0,1-2.27,4c-.23.11-1,.11-2.53-.63A1.9,1.9,0,0,0,260.3,234.49Zm3.07,4a8.48,8.48,0,0,1-3.64-1,1.22,1.22,0,0,1-.64-.76,1.24,1.24,0,0,1,.14-1,1.27,1.27,0,0,1,1.62-.48c1.44.71,2.62.93,3.14.61a5.31,5.31,0,0,0,2.57-4.52V203.13h2.52v28.21a7.83,7.83,0,0,1-3.77,6.66A3.59,3.59,0,0,1,263.37,238.52Zm-3.06-3.06a.92.92,0,0,0-.79.44.94.94,0,0,0-.1.75.87.87,0,0,0,.45.54c2.24,1.1,4.05,1.28,5.26.52a7.47,7.47,0,0,0,3.61-6.37V203.47H266.9v27.87a5.64,5.64,0,0,1-2.73,4.8c-.64.41-1.87.2-3.47-.58A.78.78,0,0,0,260.31,235.46Z"/><path class="cls-61" d="M271,208.56c0,1.33-.94,1.87-2.1,1.2a4.62,4.62,0,0,1-2.1-3.62c0-1.33.94-1.87,2.1-1.2A4.62,4.62,0,0,1,271,208.56Z"/><path class="cls-2" d="M269.87,210.22a2.17,2.17,0,0,1-1-.31,4.84,4.84,0,0,1-2.18-3.77,1.64,1.64,0,0,1,.69-1.5,1.66,1.66,0,0,1,1.66.15,4.83,4.83,0,0,1,2.19,3.77,1.61,1.61,0,0,1-.69,1.49A1.3,1.3,0,0,1,269.87,210.22Zm-1.88-5.4a.94.94,0,0,0-.47.12,1.29,1.29,0,0,0-.52,1.2,4.44,4.44,0,0,0,2,3.47,1.11,1.11,0,0,0,1.85-1.05,4.41,4.41,0,0,0-2-3.47A1.71,1.71,0,0,0,268,204.82Z"/><path class="cls-2" d="M269.87,210.54a2.33,2.33,0,0,1-1.18-.36,5.08,5.08,0,0,1-2.35-4,1.75,1.75,0,0,1,2.83-1.62,5.08,5.08,0,0,1,2.35,4,1.93,1.93,0,0,1-.86,1.77A1.53,1.53,0,0,1,269.87,210.54Zm-1.88-5.4a.62.62,0,0,0-.31.07,1,1,0,0,0-.37.93,4.18,4.18,0,0,0,1.86,3.2,1.09,1.09,0,0,0,1,.15,1.06,1.06,0,0,0,.36-.93,4.17,4.17,0,0,0-1.85-3.2A1.44,1.44,0,0,0,268,205.14Z"/><path class="cls-2" d="M269.87,210.71a2.57,2.57,0,0,1-1.27-.38,5.3,5.3,0,0,1-2.43-4.19,1.92,1.92,0,0,1,3.09-1.77,5.3,5.3,0,0,1,2.43,4.19,2.1,2.1,0,0,1-.94,1.92A1.78,1.78,0,0,1,269.87,210.71ZM268,204.33a1.33,1.33,0,0,0-.71.19,1.74,1.74,0,0,0-.77,1.62,4.9,4.9,0,0,0,2.26,3.89,1.79,1.79,0,0,0,1.81.15,1.76,1.76,0,0,0,.77-1.62,5,5,0,0,0-2.26-3.9A2.26,2.26,0,0,0,268,204.33Zm1.88,5.4a1.54,1.54,0,0,1-.78-.25,4.34,4.34,0,0,1-1.94-3.34,1.15,1.15,0,0,1,.45-1.07,1.18,1.18,0,0,1,1.17.15,4.32,4.32,0,0,1,1.94,3.34,1.16,1.16,0,0,1-.45,1.07A.71.71,0,0,1,269.87,209.73ZM268,205.31a.36.36,0,0,0-.22.05c-.18.1-.28.39-.28.78a4,4,0,0,0,1.77,3.05.91.91,0,0,0,.83.15c.18-.1.28-.39.28-.78a4,4,0,0,0-1.77-3.05A1.28,1.28,0,0,0,268,205.31Z"/><polygon class="cls-61" points="271.65 212.5 264.6 216.57 261.73 211.41 268.63 207.42 271.65 212.5"/><path class="cls-2" d="M264.53,216.8l-3-5.46.14-.08,7.05-4.07,3.2,5.37ZM262,211.47l2.7,4.86,6.76-3.89-2.85-4.79Z"/><path class="cls-2" d="M264.41,217.24l-3.34-6,7.73-4.46,3.52,5.91Zm-2-5.65,2.4,4.31,6.2-3.58-2.52-4.24Z"/><path class="cls-2" d="M264.35,217.47l-.09-.15-3.42-6.16.14-.08,7.88-4.55.09.14,3.61,6.07Zm-3.05-6.18,3.17,5.71,7.62-4.39L268.74,207Zm3.41,4.84-2.56-4.61.15-.08,6.22-3.59,2.7,4.54-.15.08Zm-2.1-4.48,2.23,4,5.91-3.41-2.35-3.95Z"/><polygon class="cls-61" points="268.75 217.94 281.59 181.95 261.73 193.56 266.93 217.59 268.75 217.94"/><path class="cls-2" d="M268.86,218.13l-2.07-.39,0-.11-5.23-24.16,20.37-11.91-.16.44Zm-1.79-.68,1.57.3,12.64-35.42-19.36,11.31Z"/><path class="cls-2" d="M269.07,218.49l-2.55-.48-5.35-24.69,21.33-12.47Zm-1.73-1.31,1.09.2L280.69,183,262.28,193.8Z"/><path class="cls-2" d="M269.18,218.69l-2.8-.53,0-.11L261,193.23l21.84-12.76-.16.44Zm-2.51-.82,2.29.43,13.23-37.07L261.37,193.4Zm1.88-.29-1.35-.26,0-.11-5.08-23.49L281,182.66l-.15.44Zm-1.07-.55.84.16,12.05-33.77-17.9,10.47Z"/><path class="cls-61" d="M265.36,215.15c0,1.33-.94,1.87-2.1,1.2a4.63,4.63,0,0,1-2.1-3.63c0-1.33.94-1.86,2.1-1.19A4.62,4.62,0,0,1,265.36,215.15Z"/><path class="cls-2" d="M264.2,216.81a2.08,2.08,0,0,1-1-.32,4.81,4.81,0,0,1-2.18-3.77,1.61,1.61,0,0,1,.69-1.49,1.66,1.66,0,0,1,1.66.15,4.83,4.83,0,0,1,2.19,3.77,1.62,1.62,0,0,1-.7,1.49A1.24,1.24,0,0,1,264.2,216.81Zm-1.88-5.4a.91.91,0,0,0-.47.11,1.31,1.31,0,0,0-.52,1.2,4.44,4.44,0,0,0,2,3.48,1.35,1.35,0,0,0,1.32.15,1.31,1.31,0,0,0,.53-1.2,4.48,4.48,0,0,0-2-3.48A1.83,1.83,0,0,0,262.32,211.41Z"/><path class="cls-2" d="M264.2,217.12a2.37,2.37,0,0,1-1.19-.35,5.11,5.11,0,0,1-2.34-4.05,1.9,1.9,0,0,1,.85-1.76,1.94,1.94,0,0,1,2,.15,5.08,5.08,0,0,1,2.34,4,1.93,1.93,0,0,1-.85,1.77A1.55,1.55,0,0,1,264.2,217.12Zm-1.89-5.39a.6.6,0,0,0-.3.07,1,1,0,0,0-.37.92,4.17,4.17,0,0,0,1.86,3.21,1,1,0,0,0,1,.14,1,1,0,0,0,.37-.92A4.16,4.16,0,0,0,263,212,1.38,1.38,0,0,0,262.31,211.73Z"/><path class="cls-2" d="M264.2,217.29a2.66,2.66,0,0,1-1.27-.37,5.3,5.3,0,0,1-2.43-4.2,1.92,1.92,0,0,1,3.08-1.76,5.27,5.27,0,0,1,2.43,4.19,2.06,2.06,0,0,1-.93,1.91A1.7,1.7,0,0,1,264.2,217.29Zm-1.89-6.37a1.4,1.4,0,0,0-.7.18,1.76,1.76,0,0,0-.77,1.62,4.9,4.9,0,0,0,2.26,3.9,1.79,1.79,0,0,0,1.81.15,1.77,1.77,0,0,0,.76-1.62,4.9,4.9,0,0,0-2.26-3.9A2.21,2.21,0,0,0,262.31,210.92Zm1.89,5.4a1.71,1.71,0,0,1-.79-.25,4.36,4.36,0,0,1-1.94-3.35,1.18,1.18,0,0,1,.46-1.07,1.23,1.23,0,0,1,1.17.15,4.36,4.36,0,0,1,1.94,3.35,1.2,1.2,0,0,1-.45,1.07A.76.76,0,0,1,264.2,216.32Zm-1.89-4.42a.33.33,0,0,0-.21,0,.87.87,0,0,0-.29.77,4,4,0,0,0,1.77,3.06,1,1,0,0,0,.84.15.89.89,0,0,0,.28-.78,4,4,0,0,0-1.77-3.05A1.31,1.31,0,0,0,262.31,211.9Z"/><polygon class="cls-61" points="288.62 206.32 283.42 182.29 263.55 193.91 268.75 217.94 288.62 206.32"/><path class="cls-2" d="M268.64,218.2l-5.28-24.38L283.53,182l5.28,24.38ZM263.74,194l5.13,23.69,19.56-11.44-5.13-23.69Z"/><path class="cls-2" d="M268.42,218.7l-5.42-25,20.75-12.13,5.42,25Zm-4.32-24.55,5,23,19-11.1-5-23Z"/><path class="cls-2" d="M268.3,219l-5.49-25.38,21.06-12.31,5.49,25.38Zm-5.11-25.21,5.34,24.69,20.45-12-5.35-24.68ZM269,217.44l-5.06-23.38,19.29-11.27,5.06,23.38Zm-4.68-23.21,4.91,22.69L287.88,206,283,183.31Z"/><polygon class="cls-61" points="285.89 205.19 281.91 185.91 266.28 195.04 270.26 214.32 285.89 205.19"/><path class="cls-2" d="M270.14,214.58l0-.23-4-19.39L282,185.65l.05.23,4,19.39Zm-3.67-19.45,3.91,18.92,15.32-9-3.91-18.92Z"/><path class="cls-2" d="M269.92,215.08l-4.18-20.28,16.51-9.65,4.18,20.28Zm-3.09-19.79,3.77,18.27,14.74-8.62-3.77-18.27Z"/><path class="cls-2" d="M269.81,215.35l-.05-.24-4.21-20.4,16.81-9.83.05.23,4.22,20.4Zm-3.88-20.47L270,214.81l16.2-9.47-4.11-19.93Zm4.55,18.94,0-.23-3.8-18.39,15.05-8.79,0,.23,3.8,18.39ZM267,195.37l3.7,17.92,14.43-8.43-3.7-17.92Z"/><polygon class="cls-61" points="283.42 182.29 281.59 181.95 261.73 193.56 263.55 193.91 283.42 182.29"/><path class="cls-2" d="M263.58,194.08h-.06l-2.27-.43,20.31-11.87h.06l2.28.43Zm-1.38-.6,1.32.25,19.42-11.36-1.32-.25Z"/><path class="cls-2" d="M263.64,194.42l-3.28-.62,21.15-12.37,3.28.62Zm-.55-1.1.37.07,18.59-10.86-.37-.07Z"/><path class="cls-2" d="M263.67,194.59h-.06l-3.73-.7,21.59-12.62h.07l3.72.7Zm-2.84-.88,2.78.53,20.7-12.1-2.77-.53Zm2.66-.14-.87-.16.39-.23,18.64-10.9.88.16-.4.23Z"/><polygon class="cls-61" points="195.69 235.87 166.2 252.9 166.2 292.32 195.69 275.29 195.69 235.87"/><path class="cls-2" d="M166,292.61V252.8l.08-.05,29.75-17.17v39.8l-.08.05Zm.34-39.61v39l29.15-16.83v-39Z"/><path class="cls-2" d="M165.71,293.16V252.62L196.18,235v40.54Zm1-40v38.29L195.2,275V236.72Z"/><path class="cls-2" d="M165.54,293.45V252.52l.08-.05,30.73-17.73v40.93l-.09,0Zm.34-40.73v40.14L196,275.47V235.32Zm.63,39V253.08l.09-.05,28.77-16.61V275.1l-.08,0Zm.35-38.49v37.9L195,274.91V237Z"/><polygon class="cls-61" points="195.69 275.29 166.2 292.32 166.2 277.89 186.13 266.38 195.69 275.29"/><path class="cls-2" d="M166,292.61V277.79l.08-.05,20-11.57.09.09,9.74,9.06-.2.11Zm.34-14.62v14l29-16.76-9.31-8.67Z"/><polygon class="cls-2" points="166.82 291.58 166.55 291.37 185.99 266.28 186.26 266.49 166.82 291.58"/><rect class="cls-2" x="165.95" y="277.84" width="29.99" height="0.34" transform="translate(-47.38 37.39) rotate(-10.44)"/><path class="cls-2" d="M165.71,293.16V277.61l20.48-11.83,10.31,9.6Zm1-15v13.3l28.2-16.27L186.06,267Z"/><path class="cls-2" d="M165.54,293.45V277.51l.08-.05,20.6-11.89.09.09,10.48,9.75-.2.12Zm.34-15.74v15.15l30.34-17.51L186.17,266Zm.63,14.06v-13.7l.09-.05,19.48-11.24.09.08,9,8.37-.2.11Zm.35-13.5v12.91l27.73-16-8.55-8Z"/><polygon class="cls-61" points="186.13 266.38 182.63 250.47 182.63 243.41 195.69 235.87 195.69 275.29 186.13 266.38"/><path class="cls-2" d="M195.86,275.68,186,266.47v-.05l-3.5-15.92v-7.18l13.4-7.74Zm-9.58-9.38,9.24,8.6V236.17l-12.72,7.34v7Z"/><polygon class="cls-2" points="186.36 265.83 186.03 265.73 195.04 236.67 195.37 236.76 186.36 265.83"/><polygon class="cls-2" points="195.53 274.66 187.57 240.51 187.9 240.43 195.86 274.58 195.53 274.66"/><path class="cls-2" d="M196.18,276.41l-10.5-9.77-3.53-16.07v-7.44l14-8.1Zm-9.61-10.28,8.63,8V236.72l-12.08,7v6.78Z"/><path class="cls-2" d="M196.35,276.8l-.29-.27-10.53-9.81v-.05L182,250.61l0-7.58,14.38-8.29Zm-10.51-10.25L196,276v-40.7l-13.7,7.91v7.34Zm9.53,8-9-8.34v-.05L183,250.5v-6.9l12.42-7.18ZM186.72,266l8.31,7.74V237l-11.74,6.78v6.68Z"/><polygon class="cls-61" points="210.53 210.72 207.96 209.23 204.6 200.48 210.53 203.91 210.53 210.72"/><path class="cls-2" d="M210.7,211l-2.88-1.66,0,0-3.53-9.21,6.43,3.72Zm-2.6-1.89,2.26,1.31V204l-5.43-3.14Z"/><path class="cls-2" d="M211,211.56l-3.45-2-3.92-10.2,7.37,4.26Zm-2.67-2.66,1.7,1v-5.69l-4.51-2.6Z"/><path class="cls-2" d="M211.19,211.85l-3.76-2.17,0-.05L203.32,199l7.87,4.55Zm-3.49-2.4,3.15,1.82v-7.55l-6.87-4Zm2.52.72-2-1.16,0,0-3-7.76,5,2.89Zm-1.73-1.39,1.39.8v-5.29l-4-2.31Z"/><polygon class="cls-61" points="216.47 200.48 210.53 197.05 204.6 200.48 210.53 203.91 216.47 200.48"/><path class="cls-2" d="M210.53,204.1l-6.27-3.62.25-.15,6-3.47,6.28,3.62-.26.15Zm-5.6-3.62,5.6,3.23,5.6-3.23-5.6-3.23Z"/><path class="cls-2" d="M210.53,204.47l-6.91-4,6.91-4,6.91,4Zm-5-4,5,2.87,5-2.87-5-2.86Z"/><path class="cls-2" d="M210.53,204.67l-7.24-4.19.25-.15,7-4,7.25,4.18-.25.15ZM204,200.48l6.57,3.79,6.57-3.79-6.57-3.79Zm6.57,3.06-5.3-3.06,5.3-3.06,5.3,3.06Zm-4.62-3.06,4.62,2.67,4.63-2.67-4.63-2.67Z"/><polygon class="cls-61" points="216.47 207.29 210.53 210.72 210.53 203.91 216.47 200.48 216.47 207.29"/><path class="cls-2" d="M210.36,211v-7.2l6.28-3.62v7.2Zm.34-7v6.42l5.6-3.24v-6.42Z"/><path class="cls-2" d="M210.05,211.56v-7.93l6.91-4v7.93Zm1-7.37v5.69l5-2.87v-5.69Z"/><path class="cls-2" d="M209.88,211.85v-8.32l7.24-4.18v8.32Zm.34-8.13v7.55l6.56-3.79v-7.55Zm.63,6.45v-6.08l5.3-3.06v6.08Zm.34-5.88v5.29l4.62-2.67v-5.29Z"/><path class="cls-61" d="M214.13,199.25h-.52a2.94,2.94,0,0,0-.54-.41,5.67,5.67,0,0,0-5.09,0,3,3,0,0,0-.54.42h-.5v1.05h0a1.83,1.83,0,0,0,1.06,1.47,5.64,5.64,0,0,0,5.08,0,1.82,1.82,0,0,0,1-1.37h0Z"/><path class="cls-2" d="M210.55,202.54a5.42,5.42,0,0,1-2.64-.62,2,2,0,0,1-1.14-1.61v-1.23h.6a2.34,2.34,0,0,1,.53-.39,5.81,5.81,0,0,1,5.25,0,2.94,2.94,0,0,1,.52.39h.63v1.45h0a2,2,0,0,1-1.1,1.39A5.31,5.31,0,0,1,210.55,202.54Zm-3.44-3.12v.88a1.65,1.65,0,0,0,1,1.32,5.41,5.41,0,0,0,4.91,0,1.66,1.66,0,0,0,.95-1.23v-1h-.42l0,0A2.82,2.82,0,0,0,213,199a5.41,5.41,0,0,0-4.91,0,2.28,2.28,0,0,0-.52.39l-.05,0Z"/><path class="cls-2" d="M210.55,202.87a5.71,5.71,0,0,1-2.79-.68,2.26,2.26,0,0,1-1.31-1.88v-1.55h.8a3.59,3.59,0,0,1,.49-.35,6.08,6.08,0,0,1,5.57,0,3.43,3.43,0,0,1,.48.34h.82v2l-.07,0a2.42,2.42,0,0,1-1.22,1.41A5.6,5.6,0,0,1,210.55,202.87Zm-3.12-3.14v.57c0,.37.29.74.81,1a5.17,5.17,0,0,0,4.6,0,1.37,1.37,0,0,0,.79-1v-.64h-.23l-.14-.13a2.22,2.22,0,0,0-.45-.34,5.18,5.18,0,0,0-4.59,0,2.31,2.31,0,0,0-.45.34l-.15.14Z"/><path class="cls-2" d="M210.55,203a5.9,5.9,0,0,1-2.88-.7,2.45,2.45,0,0,1-1.39-2v-1.72h.9a5,5,0,0,1,.47-.33,6.31,6.31,0,0,1,5.74,0,4.13,4.13,0,0,1,.46.32h.93v2.31l-.1,0a2.77,2.77,0,0,1-1.27,1.42A5.9,5.9,0,0,1,210.55,203Zm-3.93-4.11v1.38a2.1,2.1,0,0,0,1.22,1.73,5.89,5.89,0,0,0,5.4,0,2.35,2.35,0,0,0,1.14-1.3l0-.09,0,0v-1.71h-.71l0,0a2.51,2.51,0,0,0-.46-.32,5.88,5.88,0,0,0-5.4,0,2.86,2.86,0,0,0-.47.33l0,0Zm3.94,3.12a4.86,4.86,0,0,1-2.4-.56,1.49,1.49,0,0,1-.9-1.19v-.74h.31l.09-.09a2.15,2.15,0,0,1,.48-.36,5.37,5.37,0,0,1,4.77,0,2.15,2.15,0,0,1,.48.36l.09.08h.33v.81a1.51,1.51,0,0,1-.88,1.13A4.84,4.84,0,0,1,210.56,202.05Zm-3-2.15v.4c0,.31.26.63.73.9a5,5,0,0,0,4.42,0,1.28,1.28,0,0,0,.72-.85v-.46h-.12l-.19-.18a3.25,3.25,0,0,0-.42-.31,5,5,0,0,0-4.43,0,2.59,2.59,0,0,0-.41.31l-.19.19Z"/><path class="cls-61" d="M213.08,200.72a5.64,5.64,0,0,1-5.08,0c-1.41-.82-1.41-2.13,0-2.94a5.67,5.67,0,0,1,5.09,0C214.47,198.6,214.48,199.91,213.08,200.72Z"/><path class="cls-2" d="M210.55,201.48a5.31,5.31,0,0,1-2.64-.63,2,2,0,0,1-1.14-1.62,1.93,1.93,0,0,1,1.13-1.6,5.81,5.81,0,0,1,5.25,0,2,2,0,0,1,1.15,1.62,2,2,0,0,1-1.13,1.61A5.31,5.31,0,0,1,210.55,201.48Zm0-4.14a5,5,0,0,0-2.44.58,1.61,1.61,0,0,0-1,1.31,1.63,1.63,0,0,0,1,1.33,5.41,5.41,0,0,0,4.91,0,1.38,1.38,0,0,0,0-2.64A5,5,0,0,0,210.51,197.34Z"/><path class="cls-2" d="M210.55,201.81a5.71,5.71,0,0,1-2.79-.68,2.27,2.27,0,0,1-1.31-1.9,2.24,2.24,0,0,1,1.29-1.88,6.08,6.08,0,0,1,5.57,0,2.26,2.26,0,0,1,1.3,1.9,2.22,2.22,0,0,1-1.29,1.88h0A5.6,5.6,0,0,1,210.55,201.81Zm0-4.15a4.74,4.74,0,0,0-2.28.53,1.09,1.09,0,0,0,0,2.1,5.17,5.17,0,0,0,4.6,0h0a1.33,1.33,0,0,0,.8-1,1.38,1.38,0,0,0-.82-1.06A4.78,4.78,0,0,0,210.51,197.66Z"/><path class="cls-2" d="M210.55,202a5.9,5.9,0,0,1-2.88-.7,2.2,2.2,0,0,1,0-4.08,6.28,6.28,0,0,1,5.74,0,2.2,2.2,0,0,1,0,4.08A5.9,5.9,0,0,1,210.55,202Zm0-5.13a5.44,5.44,0,0,0-2.69.65,1.86,1.86,0,0,0,0,3.48,5.89,5.89,0,0,0,5.4,0,1.86,1.86,0,0,0,0-3.48A5.52,5.52,0,0,0,210.51,196.85Zm0,4.14a4.85,4.85,0,0,1-2.39-.56,1.51,1.51,0,0,1-.9-1.2,1.48,1.48,0,0,1,.88-1.18,5.32,5.32,0,0,1,4.77,0,1.53,1.53,0,0,1,.9,1.2,1.47,1.47,0,0,1-.89,1.18A4.85,4.85,0,0,1,210.55,201Zm0-3.16a4.47,4.47,0,0,0-2.2.51c-.45.26-.71.59-.71.89s.27.64.73.91a5,5,0,0,0,4.42,0c.45-.26.72-.59.72-.89s-.28-.65-.73-.91A4.62,4.62,0,0,0,210.51,197.83Z"/><path class="cls-61" d="M212.52,196.83h-.28a2.32,2.32,0,0,0-.3-.22,3.11,3.11,0,0,0-2.82,0,1.46,1.46,0,0,0-.3.22h-.28V199h0a1,1,0,0,0,.59.81,3.09,3.09,0,0,0,2.81,0,1,1,0,0,0,.58-.76h0Z"/><path class="cls-2" d="M210.54,200.33a3,3,0,0,1-1.49-.37,1.25,1.25,0,0,1-.66-.79h0v-2.51h.38a1.64,1.64,0,0,1,.29-.2,3.26,3.26,0,0,1,3,0,1.55,1.55,0,0,1,.28.2h.39v2.57h0a1.23,1.23,0,0,1-.63.74A3,3,0,0,1,210.54,200.33Zm-1.83-1.43v.1a.85.85,0,0,0,.51.67,2.89,2.89,0,0,0,2.64,0,.85.85,0,0,0,.49-.62V197h-.19l0,0a1.35,1.35,0,0,0-.27-.2,2.92,2.92,0,0,0-2.64,0,1.18,1.18,0,0,0-.27.2l-.05.05h-.18Z"/><path class="cls-2" d="M210.54,200.64a3.33,3.33,0,0,1-1.65-.4,1.5,1.5,0,0,1-.83-1.14v-2.75h.58a1.46,1.46,0,0,1,.24-.17,3.59,3.59,0,0,1,3.3,0l.24.16H213v3.09l-.09,0a1.65,1.65,0,0,1-.73.78A3.3,3.3,0,0,1,210.54,200.64ZM209,197.31V199c0,.12.13.27.34.39a2.62,2.62,0,0,0,2.33,0c.2-.12.32-.26.33-.37v-1.71l-.14-.14-.21-.15a2.62,2.62,0,0,0-2.33,0,1,1,0,0,0-.2.15Z"/><path class="cls-2" d="M210.54,200.81a3.51,3.51,0,0,1-1.74-.43,1.65,1.65,0,0,1-.91-1.27v-2.93h.69l.21-.14a3.78,3.78,0,0,1,3.48,0l.2.14h.71v3.39l-.14,0a1.86,1.86,0,0,1-.77.78A3.52,3.52,0,0,1,210.54,200.81Zm-2.31-4.29v2.56a1.31,1.31,0,0,0,.74,1,3.52,3.52,0,0,0,3.13,0,1.46,1.46,0,0,0,.66-.69l0-.08h.05v-2.79h-.48l-.05,0-.21-.14a3.41,3.41,0,0,0-3.14,0,1.7,1.7,0,0,0-.22.15l-.05,0Zm2.31,3.32a2.54,2.54,0,0,1-1.25-.3c-.27-.16-.43-.35-.43-.54v-1.77l.18-.17a1.08,1.08,0,0,1,.24-.18,2.75,2.75,0,0,1,2.5,0,1.06,1.06,0,0,1,.23.17l.2.18V199a.71.71,0,0,1-.41.5A2.57,2.57,0,0,1,210.54,199.84Zm-1.34-2.46V199s.06.14.26.25a2.45,2.45,0,0,0,2.16,0c.18-.1.24-.2.24-.23v-1.63l-.09-.08a.76.76,0,0,0-.17-.13,2.45,2.45,0,0,0-2.16,0,.71.71,0,0,0-.18.12Z"/><path class="cls-61" d="M211.94,197.65a3.09,3.09,0,0,1-2.81,0,.86.86,0,0,1,0-1.62,3.11,3.11,0,0,1,2.82,0A.86.86,0,0,1,211.94,197.65Z"/><path class="cls-2" d="M210.54,198.16a3,3,0,0,1-1.49-.37,1,1,0,0,1,0-1.92,3.26,3.26,0,0,1,3,0,1.15,1.15,0,0,1,.67,1,1.12,1.12,0,0,1-.66.95h0A3,3,0,0,1,210.54,198.16Zm0-2.31a2.65,2.65,0,0,0-1.31.32.81.81,0,0,0-.5.66.85.85,0,0,0,.51.67,2.92,2.92,0,0,0,2.64,0h0a.81.81,0,0,0,.49-.66.83.83,0,0,0-.5-.67A2.75,2.75,0,0,0,210.52,195.85Z"/><path class="cls-2" d="M210.54,198.47a3.44,3.44,0,0,1-1.65-.4,1.48,1.48,0,0,1-.83-1.24,1.46,1.46,0,0,1,.82-1.23,3.59,3.59,0,0,1,3.3,0,1.48,1.48,0,0,1,.83,1.24,1.46,1.46,0,0,1-.82,1.23h0A3.41,3.41,0,0,1,210.54,198.47Zm0-2.3a2.42,2.42,0,0,0-1.16.27c-.21.12-.33.27-.33.39s.13.27.34.39a2.62,2.62,0,0,0,2.33,0h0c.21-.12.34-.27.34-.39s-.14-.27-.35-.39A2.33,2.33,0,0,0,210.52,196.17Z"/><path class="cls-2" d="M210.54,198.64a3.51,3.51,0,0,1-1.74-.43,1.5,1.5,0,0,1,0-2.76,3.81,3.81,0,0,1,3.48,0,1.51,1.51,0,0,1,0,2.77A3.52,3.52,0,0,1,210.54,198.64Zm0-3.27a3.21,3.21,0,0,0-1.56.37,1.18,1.18,0,0,0,0,2.18,3.55,3.55,0,0,0,3.13,0,1.29,1.29,0,0,0,.74-1.08,1.3,1.3,0,0,0-.74-1.09A3.18,3.18,0,0,0,210.52,195.37Zm0,2.3a2.57,2.57,0,0,1-1.25-.3c-.27-.16-.43-.36-.43-.54s.15-.38.42-.54a2.88,2.88,0,0,1,2.5,0c.27.16.43.35.43.54a.71.71,0,0,1-.42.53A2.57,2.57,0,0,1,210.54,197.67Zm0-1.33a2.17,2.17,0,0,0-1.07.25c-.19.1-.25.21-.25.24s.06.13.26.24a2.45,2.45,0,0,0,2.16,0c.2-.12.25-.22.25-.24s-.07-.13-.26-.25A2.28,2.28,0,0,0,210.52,196.34Z"/></g></g></g></g></svg>