<svg xmlns="http://www.w3.org/2000/svg" viewBox="0 0 355.39 483.43"><defs><style>.cls-1,.cls-4{fill:#fff;}.cls-2{fill:#5795b8;stroke:#fff;stroke-width:3px;}.cls-3,.cls-4{isolation:isolate;}.cls-4{font-size:40px;font-family:QuicksandBold-Regular, Quicksand;}.cls-5{letter-spacing:0.01em;}.cls-6{letter-spacing:0em;}.cls-7{fill:#317b87;}.cls-8{fill:#f1f1f1;}.cls-13,.cls-9{opacity:0.3;}.cls-10{fill:#ff7548;}.cls-11{fill:#324249;}.cls-12{fill:#54d3e8;}.cls-14{fill:#d9f5f5;opacity:0.2;}.cls-15{fill:#cfcfd1;}.cls-16{fill:#7a8789;}.cls-17{fill:#8cc538;}.cls-18{fill:#ffa400;}.cls-19{fill:#5a666e;}</style></defs><g id="Capa_2" data-name="Capa 2"><g id="Background"><g id="Componente_7_11" data-name="Componente 7 11"><g id="Trazado_412" data-name="Trazado 412"><path class="cls-1" d="M326.51,481.93h-297A26.48,26.48,0,0,1,3,455.43v-426a26.46,26.46,0,0,1,26.5-26.5h297A26.51,26.51,0,0,1,353,29.43v426a26.49,26.49,0,0,1-7.77,18.74,26.38,26.38,0,0,1-18.73,7.76Z"/><path class="cls-1" d="M29.51,4.43a25,25,0,0,0-25,25v426a25,25,0,0,0,25,25h297a25,25,0,0,0,25-25v-426a25,25,0,0,0-25-25h-297m0-3h297a28,28,0,0,1,28,28v426a28,28,0,0,1-28,28h-297a28,28,0,0,1-28-28v-426A28,28,0,0,1,29.51,1.43Z"/></g><path id="Trazado_410-2" data-name="Trazado 410-2" class="cls-2" d="M1.51,127C7.25,106.4,19,79.87,45.57,79.87H353.89v-50c-.44-19.7-15.48-29.45-32.73-28.12-38.63.1-287.39,0-287.39,0S1.09-3.66,1.5,35.65,1.51,127,1.51,127Z"/><g id="Geolocalización-2" class="cls-3"><text class="cls-4" transform="translate(19.51 54.43)">Geoloc<tspan class="cls-5" x="139.72" y="0">a</tspan><tspan class="cls-6" x="165.04" y="0">lización</tspan></text></g></g><polygon class="cls-7" points="299.33 341.31 198.58 341.31 214.55 308.77 227.56 282.19 231.28 274.6 231.28 274.57 243.16 250.38 244.84 246.96 259.16 271.8 259.19 271.83 260.75 274.51 299.33 341.31"/><polygon class="cls-8" points="259.19 271.83 256.54 278.53 252.67 274.57 248.95 289.38 243.16 275.73 241 270.64 236.34 281.83 231.28 274.6 231.28 274.57 243.16 250.38 244.84 246.96 259.16 271.8 259.19 271.83"/><path class="cls-9" d="M275.21,314.45a31.58,31.58,0,0,0-3.13-5.85l-1-1.47-1.37,1.54a56.18,56.18,0,0,0-4.63,6c-.44-.36-.86-.74-1.32-1.09l-1.51-1.13-.68,1.31a30.84,30.84,0,0,0-2.42,5.84,32.82,32.82,0,0,0,3.56-3.38c.49.56,1,1.13,1.48,1.69l1.4,1.51,1.32-1.72a61.31,61.31,0,0,0,4.33-6.43A35.54,35.54,0,0,0,275.21,314.45Z"/><polygon class="cls-7" points="169.5 341.31 87.07 341.31 108.37 303.28 119.68 283.11 125.92 271.95 125.92 271.92 128.67 267.05 128.7 267.02 134.34 277.29 136.35 280.94 141.53 290.36 147.87 301.94 149.3 304.5 169.5 341.31"/><polygon class="cls-9" points="169.5 341.31 102.34 341.31 108.37 337.08 111.78 334.67 117.21 325.56 125.92 313.43 125.96 313.4 128.67 304.17 133.85 294.14 132.39 286.4 128.67 267.05 128.67 267.02 128.7 267.02 136.29 280.85 136.35 280.94 141.53 290.36 147.87 301.94 149.3 304.5 169.5 341.31"/><polygon class="cls-8" points="136.35 280.94 132.39 286.4 131.96 286.98 125.92 279.45 125.19 278.53 119.68 283.11 125.92 271.95 125.92 271.92 128.67 267.05 134.34 277.29 136.35 280.94"/><polygon class="cls-7" points="266.66 341.31 111.78 341.31 125.92 317.09 141.53 290.36 163.35 252.97 184.38 216.92 184.47 217.07 198.58 238.4 227.56 282.19 243.16 305.78 260.75 332.38 266.66 341.31"/><polygon class="cls-9" points="266.66 341.31 229.17 341.31 221.04 327.51 221.04 313.22 214.55 308.77 213.45 308.04 206.44 297.76 202.36 281.83 198.58 265.8 189.22 255.01 188.77 251.44 184.47 217.07 198.58 238.4 227.56 282.19 243.16 305.78 260.75 332.38 266.66 341.31"/><polygon class="cls-8" points="198.58 238.4 189.22 251.77 180.09 244.65 171.25 262.81 163.34 252.96 184.37 216.91 198.58 238.4"/><path class="cls-9" d="M185.71,304.84c-1.75-2.21-3.65-4.28-5.54-6.37l-.8-.87-1,1q-2,1.89-3.89,3.8c-.65-.78-1.29-1.57-2-2.34-1.11-1.27-2.18-2.57-3.32-3.82-2.28-2.51-4.51-5-6.88-7.48l-1.92-2-1.75,2q-4.85,5.52-9.3,11.28c-1.5,1.91-2.93,3.87-4.35,5.84s-2.78,4-4,6c2-1.6,3.87-3.27,5.72-5s3.67-3.4,5.42-5.15c2.89-2.84,5.67-5.74,8.38-8.68,1.7,1.83,3.43,3.65,5.15,5.46,1.17,1.24,2.4,2.43,3.6,3.64s2.43,2.4,3.68,3.58l1.64,1.54,1.24-1.57c1.31-1.67,2.55-3.39,3.8-5.1C181.59,302.08,183.59,303.51,185.71,304.84Z"/><path class="cls-10" d="M197.65,188.67c.1,10.6-12.92,28.53-12.92,28.53s-13.34-17.68-13.44-28.29a13.18,13.18,0,1,1,26.36-.24Z"/><path class="cls-8" d="M193.06,188.71a8.59,8.59,0,1,1-8.67-8.51A8.59,8.59,0,0,1,193.06,188.71Z"/><path class="cls-9" d="M176.48,190a8.58,8.58,0,0,1,15.92-4.54,8.59,8.59,0,0,0-16.52,3.37,8.73,8.73,0,0,0,1.25,4.38A8.63,8.63,0,0,1,176.48,190Z"/><path class="cls-11" d="M317.27,287.13V159.2a18.1,18.1,0,0,0-18.11-18.1H51.76a18.1,18.1,0,0,0-18.1,18.1V287.13a18.1,18.1,0,0,0,18.1,18.1h247.4A18.11,18.11,0,0,0,317.27,287.13ZM78.91,288.94V157.39H298V288.94Z"/><polygon class="cls-9" points="82.53 161.02 297.96 161.02 297.96 157.39 78.91 157.39 78.91 288.94 82.53 288.94 82.53 161.02"/><path class="cls-12" d="M45.73,233.13V213.21c0-6,4.05-10.87,9.05-10.87s9,4.87,9,10.87v19.92c0,6-4,10.86-9,10.86S45.73,239.12,45.73,233.13Z"/><g class="cls-13"><path d="M62,213.21v19.92c0,5.62-3.57,10.19-8.14,10.75a8.71,8.71,0,0,0,.91.11c5,0,9-4.87,9-10.86V213.21c0-6-4-10.87-9-10.87a6.65,6.65,0,0,0-.91.12C58.44,203,62,207.59,62,213.21Z"/></g><rect class="cls-14" x="78.91" y="157.39" width="219.05" height="131.55"/><rect class="cls-15" x="276.63" y="167.22" width="12.37" height="12.37"/><rect class="cls-15" x="276.63" y="266.74" width="12.37" height="12.37"/><rect class="cls-15" x="87.51" y="266.74" width="12.37" height="12.37"/><rect class="cls-15" x="87.51" y="167.22" width="12.37" height="12.37"/><path class="cls-15" d="M289.89,280H86.63V166.33H289.89ZM88.4,278.23H288.12V168.1H88.4Z"/><polygon class="cls-16" points="155.67 199.63 153.19 199.63 153.19 188.83 163.99 188.83 163.99 191.3 155.67 191.3 155.67 199.63"/><polygon class="cls-16" points="215.75 199.63 213.27 199.63 213.27 191.3 204.94 191.3 204.94 188.83 215.75 188.83 215.75 199.63"/><polygon class="cls-16" points="163.99 251.38 153.19 251.38 153.19 240.58 155.67 240.58 155.67 248.91 163.99 248.91 163.99 251.38"/><polygon class="cls-16" points="215.75 251.38 204.94 251.38 204.94 248.91 213.27 248.91 213.27 240.58 215.75 240.58 215.75 251.38"/><rect class="cls-16" x="183.23" y="213.14" width="2.47" height="13.93"/><rect class="cls-16" x="177.5" y="218.87" width="13.93" height="2.47"/><circle class="cls-17" cx="123.06" cy="175.61" r="4.42"/><circle class="cls-18" cx="109.77" cy="175.61" r="4.42"/><polygon class="cls-8" points="97.64 232.54 146.6 232.54 146.6 225.98 157.96 222.22 146.6 218.03 146.6 211.9 97.64 211.9 97.64 232.54"/><path class="cls-19" d="M147.48,233.42H96.75V211h50.73v6.39l13.16,4.85-13.16,4.36Zm-49-1.77h47.19v-6.31l9.58-3.17-9.58-3.52v-5.86H98.52Z"/><rect class="cls-16" x="100.98" y="217.47" width="42.28" height="2.47"/><rect class="cls-16" x="100.98" y="224.49" width="29.32" height="2.47"/></g></g></svg>