<svg xmlns="http://www.w3.org/2000/svg" xmlns:xlink="http://www.w3.org/1999/xlink" viewBox="0 0 361.91 458.02"><defs><style>.cls-1,.cls-23,.cls-33,.cls-34,.cls-35{fill:none;}.cls-2{fill:#5f5deb;}.cls-3{fill:#6a67eb;}.cls-4{fill:#4d46eb;}.cls-5{fill:#1d1a64;}.cls-6{fill:#1d2b9a;}.cls-7{fill:#0f0333;}.cls-8{fill:#1d0e49;}.cls-9{clip-path:url(#clip-path);}.cls-10{fill:#e64d5e;}.cls-11{fill:#fff4b3;}.cls-12{fill:#ffcb03;}.cls-13{fill:#ec6170;}.cls-14{fill:#ffce00;}.cls-15{fill:#f70;}.cls-16{fill:#ec3050;}.cls-17{fill:#db2043;}.cls-18{fill:#fd0;}.cls-19{fill:#ff8900;}.cls-20{fill:#ffb700;}.cls-21{fill:#009aff;}.cls-22{fill:#0bf;}.cls-23{stroke:#ff0;stroke-linecap:round;stroke-linejoin:round;}.cls-24{fill:#ffe200;}.cls-25{fill:#7ba7e1;}.cls-26{fill:#b2d3ff;}.cls-27{fill:#00052b;}.cls-28{fill:#d2e9ff;}.cls-29{fill:#9e79ff;}.cls-30{fill:#a9c7ff;}.cls-31{fill:#def8ff;}.cls-32{fill:#0e0146;}.cls-33,.cls-34,.cls-35{stroke:#def8ff;stroke-miterlimit:10;}.cls-34{stroke-dasharray:4.04 4.04;}.cls-35{stroke-dasharray:4;}.cls-36{fill:#fffabc;}.cls-37{fill:#ffff03;}.cls-38{fill:#bcd7ff;}.cls-39{fill:#ff136e;}.cls-40{fill:#000012;}.cls-41{fill:#35a6ec;}.cls-42{fill:#35b5ff;}.cls-43{fill:#ff9b03;}.cls-44{fill:#fff;}</style><clipPath id="clip-path"><path class="cls-1" d="M291.35,224.73c0,12.22-43.76,22.11-97.73,22.11S95.89,237,95.89,224.73c0-32.83,43.75-99.82,97.73-99.82S291.35,118.85,291.35,224.73Z"/></clipPath></defs><g id="Capa_2" data-name="Capa 2"><g id="OBJECTS"><ellipse class="cls-2" cx="184.07" cy="411.49" rx="79.3" ry="23.58"/><ellipse class="cls-3" cx="184.07" cy="407.87" rx="61.12" ry="18.17"/><path class="cls-4" d="M87.36,422.39c0,1.06-2.89,1.91-6.45,1.91s-6.45-.85-6.45-1.91,2.89-1.92,6.45-1.92S87.36,421.33,87.36,422.39Z"/><path class="cls-5" d="M231.37,406.52l-.27-26.22h35.43s26.8-1.17,26.8-28.86c0-24.42.19-43.28.19-43.28h14.69a5.17,5.17,0,0,0,4.89-6.83l-19-44.77.6-14.44L166.62,224.73l-33.21,83.62v98.17Z"/><path class="cls-5" d="M283.17,227.4l-68.11,5s-97.17-3.6-109.35-5.26a67,67,0,0,1-12.43-3.29A102.91,102.91,0,0,0,193.86,348.19c56.79,0,100.83-46,100.83-102.84,0-7.56,1.18-14.92-.36-22Z"/><ellipse class="cls-5" cx="182.39" cy="406.52" rx="48.98" ry="12.35"/><ellipse class="cls-6" cx="193.78" cy="224.73" rx="100.61" ry="25.36"/><ellipse class="cls-7" cx="193.62" cy="224.73" rx="97.73" ry="22.11"/><path class="cls-8" d="M313.22,301.34l-19.13-44.78-.57,51.6h14.69A5.14,5.14,0,0,0,313.22,301.34Z"/><g class="cls-9"><path class="cls-10" d="M288.09,231.7a7.87,7.87,0,0,0-2.34-5.6,11.21,11.21,0,0,0,1.16-5,11.35,11.35,0,0,0-11.3-11.35,19.61,19.61,0,0,0-31.31-14.25,19.62,19.62,0,0,0-30.92-3.69,19.62,19.62,0,0,0-30.63-2.07,19.6,19.6,0,0,0-28.08,5.28,19.6,19.6,0,0,0-20.41,7.72,19.61,19.61,0,0,0-18.45,19.46,7.89,7.89,0,0,0,1.76,15.57,7.79,7.79,0,0,0,4.29-1.28,19.6,19.6,0,0,0,7.57,4.53,19.62,19.62,0,0,0,33.89,9,19.55,19.55,0,0,0,12.4,4.42,19.79,19.79,0,0,0,5.94-.92,26.6,26.6,0,0,0,36.25,1.9,26.65,26.65,0,0,0,27.44,10.1,24.34,24.34,0,0,0,36.16-26.07A7.88,7.88,0,0,0,288.09,231.7Z"/><rect class="cls-11" x="183.84" y="145.1" width="16.96" height="62.76"/><circle class="cls-11" cx="179.8" cy="187.06" r="12.31"/><path class="cls-11" d="M177.42,175.05a4.22,4.22,0,1,0,4.22-4.22A4.21,4.21,0,0,0,177.42,175.05Z"/><circle class="cls-11" cx="184.64" cy="169.94" r="2.58"/><circle class="cls-11" cx="201.69" cy="174.2" r="2.58"/><path class="cls-11" d="M159.33,194a5.16,5.16,0,1,0,5.16-5.15A5.16,5.16,0,0,0,159.33,194Z"/><circle class="cls-11" cx="148.38" cy="207.01" r="10.88" transform="translate(-102.92 165.55) rotate(-45)"/><circle class="cls-11" cx="204.23" cy="188.1" r="12.56" transform="translate(-73.19 199.51) rotate(-45)"/><circle class="cls-11" cx="225.58" cy="197.83" r="8.66" transform="translate(-28.71 38.58) rotate(-9.19)"/><circle class="cls-11" cx="235.39" cy="194" r="4.74"/><path class="cls-11" d="M153.19,199.37a5.16,5.16,0,1,0,5.15-5.15A5.15,5.15,0,0,0,153.19,199.37Z"/><path class="cls-12" d="M285.09,198.44V180.63H274.73a33.66,33.66,0,0,0-3.23-7.88l7.3-7.3-12.6-12.6L259,160.11a33.37,33.37,0,0,0-7.93-3.3V146.56H233.21v10.25a33.13,33.13,0,0,0-7.92,3.3L218,152.85l-12.6,12.6,7.3,7.3a33.66,33.66,0,0,0-3.23,7.88H199.14v17.81H209.6a33.25,33.25,0,0,0,3.25,7.76l-7.42,7.42,12.6,12.6,7.46-7.47a33.58,33.58,0,0,0,7.72,3.19v10.57H251V221.94a33.58,33.58,0,0,0,7.72-3.19l7.46,7.47,12.6-12.6-7.42-7.42a33.25,33.25,0,0,0,3.25-7.76Zm-43,10.46a19.53,19.53,0,1,1,19.52-19.53A19.53,19.53,0,0,1,242.12,208.9Z"/><path class="cls-13" d="M271.48,232.26a8.5,8.5,0,0,0-3.33-5.67,12.14,12.14,0,0,0,.51-5.52,12.3,12.3,0,0,0-13.79-10.53,21.27,21.27,0,0,0-35.73-10.72,21.28,21.28,0,0,0-33.75.57,21.27,21.27,0,0,0-33.21,2.26,21.27,21.27,0,0,0-29.39,9.79,21.84,21.84,0,0,0-4.84.1,21.29,21.29,0,0,0-16,11.19,21.27,21.27,0,0,0-17,23.61,8.54,8.54,0,1,0,8.6,14.46,21.24,21.24,0,0,0,8.79,3.75,21.28,21.28,0,0,0,37.72,4.7,21.33,21.33,0,0,0,20.21,1.07A28.84,28.84,0,0,0,199.58,268a28.84,28.84,0,0,0,30.95,6.83,26.38,26.38,0,0,0,35-33.3A8.55,8.55,0,0,0,271.48,232.26Z"/><circle class="cls-13" cx="137.95" cy="213.77" r="17.87"/><circle class="cls-13" cx="270.53" cy="245.62" r="17.87"/><circle class="cls-13" cx="114.39" cy="220.59" r="13.68"/></g><path class="cls-14" d="M172.5,129.9a18.69,18.69,0,0,1,37.38,0c0,18.69-18.69,32.17-18.69,32.17S172.5,148.59,172.5,129.9Z"/><path class="cls-15" d="M179.8,122.6a11.39,11.39,0,0,1,22.78,0c0,11.39-11.39,19.6-11.39,19.6S179.8,134,179.8,122.6Z"/><path class="cls-16" d="M164.7,77.71l-15.65,33.44v9.6a1.34,1.34,0,0,0,2.51.65l4.13-7.35,15-6.17,2.42-23.73"/><path class="cls-17" d="M164.7,77.71s-3.41,11.83,1.25,32.11l4.74-1.94-2-27.72"/><path class="cls-16" d="M217.67,77.71l15.65,33.44v9.6a1.34,1.34,0,0,1-2.5.65l-4.13-7.35-15-6.17-2.42-23.73"/><path class="cls-17" d="M218.09,77.71s3.41,11.83-1.25,32.11l-4.74-1.94,2-27.72"/><rect class="cls-5" x="175" y="102.39" width="33.37" height="13.6"/><path class="cls-18" d="M182.8,6.9c-32.55,47.52-12.11,101-12.11,101h41S234.48,57,199.59,6.89A10.21,10.21,0,0,0,182.8,6.9Z"/><path class="cls-19" d="M191.68,86.21a12,12,0,0,0-12,12v9.69h24V98.19A12,12,0,0,0,191.68,86.21Zm10,20.69H181.64V98.19a10,10,0,1,1,20.08,0Z"/><path class="cls-16" d="M214.43,37.27a115.62,115.62,0,0,0-16.8-34,8,8,0,0,0-12.9,0A110.16,110.16,0,0,0,168.65,37C177.84,34.35,195.48,30.81,214.43,37.27Z"/><circle class="cls-20" cx="191.19" cy="61.84" r="20.26"/><circle class="cls-21" cx="191.19" cy="61.84" r="15.72"/><circle class="cls-22" cx="185.63" cy="59.17" r="5.93"/><circle class="cls-22" cx="194.15" cy="53.24" r="2.01"/><path class="cls-20" d="M191.68,87.18h0a11,11,0,0,1,11,11v9.68a0,0,0,0,1,0,0h-22a0,0,0,0,1,0,0V98.19a11,11,0,0,1,11-11Z"/><path class="cls-20" d="M191.68,87.18h0a11,11,0,0,1,11,11v9.68a0,0,0,0,1,0,0h-22a0,0,0,0,1,0,0V98.19a11,11,0,0,1,11-11Z"/><rect class="cls-18" x="194.86" y="99.9" width="6.47" height="2.03"/><rect class="cls-18" x="194.86" y="103.02" width="6.47" height="0.4"/><rect class="cls-18" x="194.86" y="104.63" width="6.47" height="0.4"/><path class="cls-23" d="M158.18,69.6c-10.65.05-18-2.24-19.47-6.88-2.9-9.17,18.24-24,47.23-33.21s54.83-9.18,57.73,0c2.09,6.6-8.27,16.15-25,24.41"/><path class="cls-23" d="M224.21,69.6c10.65.05,18-2.24,19.46-6.88,2.9-9.17-18.24-24-47.22-33.21s-54.83-9.18-57.74,0c-2.08,6.6,8.28,16.15,25,24.41"/><path class="cls-12" d="M111,196.33h0a2.86,2.86,0,0,0,2.86,2.87h22a2.87,2.87,0,0,0,2.87-2.87h0a14.54,14.54,0,0,1,5.73-11.55,32.35,32.35,0,1,0-39.28,0A14.63,14.63,0,0,1,111,196.33Z"/><path class="cls-24" d="M121.54,195.15a1.48,1.48,0,0,1-1.43-1.12l-7.31-29a1.47,1.47,0,1,1,2.86-.72l7.31,29a1.49,1.49,0,0,1-1.43,1.84Z"/><path class="cls-24" d="M128,195.15a1.49,1.49,0,0,1-1.43-1.84l7.31-29a1.47,1.47,0,1,1,2.86.72l-7.31,29A1.48,1.48,0,0,1,128,195.15Z"/><rect class="cls-25" x="113.3" y="202.78" width="23.09" height="11.86"/><rect class="cls-26" x="110.43" y="199.2" width="28.84" height="4.91" rx="2.28"/><path class="cls-27" d="M119,220.43a5.79,5.79,0,1,0,5.79-5.79A5.78,5.78,0,0,0,119,220.43Z"/><rect class="cls-25" x="113.14" y="213.49" width="23.25" height="9.62" rx="4.47"/><rect class="cls-26" x="110.43" y="213.39" width="28.84" height="4.91" rx="2.28"/><rect class="cls-28" x="112.04" y="206.38" width="25.46" height="1.25" rx="0.58"/><rect class="cls-28" x="112.04" y="209.89" width="25.46" height="1.25" rx="0.58"/><path class="cls-5" d="M319.79,169.24v-7.31h-4.25a14.08,14.08,0,0,0-1.33-3.23l3-3L312,150.54l-3,3a13.68,13.68,0,0,0-3.25-1.35V148H298.5v4.2a13.68,13.68,0,0,0-3.25,1.35l-3-3-5.17,5.17,3,3a13.62,13.62,0,0,0-1.32,3.23h-4.25v7.31h4.29a13.53,13.53,0,0,0,1.33,3.18l-3,3.05,5.17,5.17,3.06-3.07a14,14,0,0,0,3.16,1.31v4.34h7.31v-4.34a14,14,0,0,0,3.17-1.31l3.06,3.07,5.17-5.17-3-3.05a14,14,0,0,0,1.34-3.18Zm-17.63,4.29a8,8,0,1,1,8-8A8,8,0,0,1,302.16,173.53Z"/><path class="cls-5" d="M319.75,254.57v-3.65h-2.12a7.16,7.16,0,0,0-.66-1.62l1.49-1.49-2.58-2.59-1.49,1.49a7,7,0,0,0-1.62-.68v-2.1h-3.66V246a7,7,0,0,0-1.62.68L306,245.22l-2.59,2.59,1.5,1.49a7.16,7.16,0,0,0-.66,1.62h-2.12v3.65h2.14a6.61,6.61,0,0,0,.67,1.59l-1.53,1.53,2.59,2.58,1.53-1.53a6.65,6.65,0,0,0,1.58.65v2.17h3.66v-2.17a6.65,6.65,0,0,0,1.58-.65l1.53,1.53,2.58-2.58-1.52-1.53a6.61,6.61,0,0,0,.67-1.59Zm-8.81,2.15a4,4,0,1,1,4-4A4,4,0,0,1,310.94,256.72Z"/><path class="cls-29" d="M289.45,145v-4.33h-2.52a8.16,8.16,0,0,0-.78-1.91l1.77-1.77L284.87,134l-1.77,1.76a8.36,8.36,0,0,0-1.92-.8v-2.48h-4.32v2.48a8.36,8.36,0,0,0-1.92.8L273.17,134,270.12,137l1.77,1.77a8.16,8.16,0,0,0-.78,1.91h-2.52V145h2.54a8,8,0,0,0,.79,1.88l-1.8,1.8,3.05,3.06L275,150a8.09,8.09,0,0,0,1.87.77v2.56h4.32v-2.56a8.09,8.09,0,0,0,1.87-.77l1.82,1.81,3.05-3.06-1.8-1.8a8,8,0,0,0,.79-1.88ZM279,147.58a4.74,4.74,0,1,1,4.74-4.74A4.74,4.74,0,0,1,279,147.58Z"/><polygon class="cls-30" points="102.22 83.16 107.01 100.24 49.66 143.71 85.54 88.14 102.22 83.16"/><polygon class="cls-31" points="49.66 143.71 102.22 83.16 84.67 76.78 49.66 143.71"/><polygon class="cls-30" points="117.83 110.98 118.16 118.95 49.66 143.71 117.83 110.98"/><polygon class="cls-31" points="49.66 143.71 115.08 90.19 137.81 102.05 49.66 143.71"/><polygon class="cls-30" points="236.23 268.9 234.04 281.48 278.26 308.46 248.53 271.26 236.23 268.9"/><polygon class="cls-31" points="278.26 308.46 236.23 268.9 248.33 263.06 278.26 308.46"/><polygon class="cls-30" points="227.06 289.96 227.41 295.69 278.26 308.46 227.06 289.96"/><polygon class="cls-31" points="278.26 308.46 227.53 274.87 212.1 285.01 278.26 308.46"/><path class="cls-5" d="M345.86,87.67V78.81a12.58,12.58,0,1,0-25.15,0V63.67a17.19,17.19,0,0,0-34.38,0V75.52a12.58,12.58,0,1,0-25.16,0V87.67a18.14,18.14,0,0,0,4.61,35.69h75.47a18.14,18.14,0,0,0,4.61-35.69Z"/><path class="cls-32" d="M317.72,89,307,78.34a5,5,0,0,0-7.05,0L289.31,89a5,5,0,0,0,2.38,8.37s0,0,0,.05v13.38a4.47,4.47,0,0,0,4.47,4.47h14.73a4.47,4.47,0,0,0,4.47-4.47V97.38A5,5,0,0,0,317.72,89Z"/><path class="cls-33" d="M125.42,111.21l1.89-.65"/><path class="cls-34" d="M131.14,109.28c27-9,141.53-45.81,168.19-31.91,26.44,13.79-35.55,41.71-51.68,48.56"/><path class="cls-33" d="M245.79,126.72l-1.85.76"/><path class="cls-35" d="M212.81,290.58S63.28,262.16,49.28,232.16s50.66-31.5,50.66-31.5"/><polygon class="cls-36" points="78.68 422.39 93.32 413.56 87.53 400.59 74.56 406.38 78.68 422.39"/><rect class="cls-12" x="94.41" y="299.61" width="20.04" height="114.16" transform="translate(134.41 -13.76) rotate(20.95)"/><rect class="cls-37" x="99.19" y="307.37" width="7.6" height="106.14" transform="translate(135.66 -13) rotate(20.95)"/><rect class="cls-31" x="113.38" y="303.11" width="20.04" height="8.03" transform="translate(117.95 -23.82) rotate(20.95)"/><rect class="cls-38" x="113.38" y="305.98" width="20.04" height="2.3" transform="translate(117.95 -23.82) rotate(20.95)"/><path class="cls-39" d="M134.19,307l-18.71-7.16h0a8,8,0,0,1,10.36-4.63l3.72,1.43A8,8,0,0,1,134.19,307Z"/><polygon class="cls-40" points="78.68 422.39 88.36 416.55 76.81 415.11 78.68 422.39"/><path class="cls-41" d="M361.91,218.32V205.14h-7.66a25.71,25.71,0,0,0-2.39-5.83l5.4-5.4-9.32-9.32L342.57,190a25,25,0,0,0-5.86-2.44v-7.58H323.53v7.58a25,25,0,0,0-5.86,2.44l-5.37-5.37L303,193.91l5.4,5.4a25.71,25.71,0,0,0-2.39,5.83h-7.66v13.18h7.73a25.08,25.08,0,0,0,2.41,5.74L303,229.55l9.32,9.32,5.52-5.52a25.33,25.33,0,0,0,5.71,2.35v7.82h13.18V235.7a25.14,25.14,0,0,0,5.71-2.35l5.52,5.52,9.32-9.32-5.49-5.49a25.08,25.08,0,0,0,2.41-5.74Zm-31.79,7.74a14.45,14.45,0,1,1,14.45-14.45A14.45,14.45,0,0,1,330.12,226.06Z"/><circle class="cls-5" cx="48.04" cy="190.24" r="37.94" transform="translate(-148.13 193.98) rotate(-76.92)"/><path class="cls-16" d="M48,228.17A37.93,37.93,0,0,0,86,190.23H10.1A37.93,37.93,0,0,0,48,228.17Z"/><path class="cls-18" d="M86,190.23A37.93,37.93,0,0,0,48,152.3v75.87A37.93,37.93,0,0,0,86,190.23Z"/><path class="cls-42" d="M0,218a55.7,55.7,0,0,0,24.93,22.71L48,190.23Z"/><rect class="cls-43" x="102.07" y="52.73" width="6.63" height="12.48" transform="translate(-3.11 112) rotate(-55.28)"/><rect class="cls-16" x="115.57" y="52.37" width="10.36" height="34.51" transform="translate(-5.25 129.23) rotate(-55.28)"/><circle class="cls-12" cx="80.35" cy="41.63" r="26.45" transform="translate(-6.22 15.26) rotate(-10.45)"/><circle class="cls-21" cx="80.35" cy="41.63" r="20.19" transform="translate(19.33 108.45) rotate(-74.99)"/><path class="cls-22" d="M76.06,38.66a8.26,8.26,0,1,1-11.5,2.08A8.25,8.25,0,0,1,76.06,38.66Z"/><path class="cls-22" d="M71.45,30.8a2.91,2.91,0,1,1-4,.73A2.92,2.92,0,0,1,71.45,30.8Z"/></g><g id="DESIGNED_BY_FREEPIK" data-name="DESIGNED BY FREEPIK"><path class="cls-44" d="M203.38,445.17a7.75,7.75,0,0,0-1.11,1.45l-.46-.24a.61.61,0,0,0-.66-.47.6.6,0,0,0,.14,1.2.41.41,0,0,0,.18-.05l.45.23a7.56,7.56,0,0,0-.54,1.75l.75.13a6.57,6.57,0,0,1,1.79-3.47Z"/><path class="cls-44" d="M208.87,442.87h-.51l-.08-.62a.72.72,0,0,0,.27-.65.73.73,0,0,0-.8-.63.72.72,0,0,0-.22,1.36l.07.63a7.57,7.57,0,0,0-2.06.64l.33.69a6.86,6.86,0,0,1,3-.68,7.27,7.27,0,0,1,1.47.16l.16-.74A8.05,8.05,0,0,0,208.87,442.87Z"/><path class="cls-44" d="M215.47,445.41a.59.59,0,0,0,.52-.67.6.6,0,0,0-1.2.08l-.41.37a7.41,7.41,0,0,0-1.41-1.14l-.41.64a6.72,6.72,0,0,1,2.57,2.92l.69-.31a7.56,7.56,0,0,0-.94-1.54l.4-.35Z"/><path class="cls-44" d="M208.32,453.07c-.39,0-.78,0-1.16,0a16,16,0,0,1-2.48-.18,8.19,8.19,0,0,1-1.27-.29,6.2,6.2,0,0,0,11.34-1.38,9.66,9.66,0,0,1-2.46,1.12A16.6,16.6,0,0,1,208.32,453.07Z"/><path class="cls-44" d="M208.87,444.38a6,6,0,0,0-6,7.21c.68.48,2.71.89,5.35.73,2.88-.18,5.3-1,6.67-2.16a5.46,5.46,0,0,0,0-.58A6,6,0,0,0,208.87,444.38Zm-2.16,6.52a1.85,1.85,0,1,1,1.85-1.85A1.85,1.85,0,0,1,206.71,450.9Zm4.73-.91a1.36,1.36,0,1,1,1.37-1.36A1.36,1.36,0,0,1,211.44,450Z"/><path class="cls-44" d="M224.87,446.25a2.78,2.78,0,0,0-1.38-.24.87.87,0,0,0-.85,1v.86h2.23v1.72h-2.23v5.46h-1.93V449.6h-1.34v-1.72h1.34V447a2.47,2.47,0,0,1,2.57-2.79,4,4,0,0,1,1.59.31Z"/><path class="cls-44" d="M229.57,449.58a3,3,0,0,0-.52,0,1.43,1.43,0,0,0-1.51,1.61v3.91h-1.93v-7.18h1.87v.79a2.27,2.27,0,0,1,2-1,1.77,1.77,0,0,1,1.09.34Z"/><path class="cls-44" d="M237.24,451.46a4.19,4.19,0,0,1,0,.65h-5.08A1.73,1.73,0,0,0,234,453.6a2.86,2.86,0,0,0,1.81-.69l1.14,1.24a4.35,4.35,0,0,1-3.06,1.09,3.78,3.78,0,0,1-.1-7.55A3.47,3.47,0,0,1,237.24,451.46Zm-5.11-.67h3.17a1.59,1.59,0,0,0-3.17,0Z"/><path class="cls-44" d="M244.89,451.46a6.18,6.18,0,0,1,0,.65h-5.09a1.73,1.73,0,0,0,1.84,1.49,2.89,2.89,0,0,0,1.82-.69l1.13,1.24a4.34,4.34,0,0,1-3.06,1.09,3.78,3.78,0,0,1-.09-7.55A3.46,3.46,0,0,1,244.89,451.46Zm-5.11-.67H243a1.54,1.54,0,0,0-1.56-1.43A1.56,1.56,0,0,0,239.78,450.79Z"/><path class="cls-44" d="M253.24,451.47a3.55,3.55,0,0,1-3.47,3.77,2.63,2.63,0,0,1-2.11-.93V458h-1.93V447.88h1.89v.8a2.6,2.6,0,0,1,2.14-1A3.56,3.56,0,0,1,253.24,451.47Zm-5.68,0a1.85,1.85,0,1,0,1.85-2A1.84,1.84,0,0,0,247.56,451.47Z"/><path class="cls-44" d="M256.34,445.54a1.23,1.23,0,1,1-1.23-1.24A1.22,1.22,0,0,1,256.34,445.54Zm-.26,9.52h-1.93v-7.18h1.93Z"/><path class="cls-44" d="M259.31,450.44l2.7-2.56h2.37l-3.48,3.38,3.5,3.8H262l-2.71-2.9v2.9h-1.93V444.4h1.93Z"/><path class="cls-44" d="M127.69,455v-1.05a3,3,0,0,1-2.39,1.23c-1.85,0-3.15-1.41-3.15-3.71s1.29-3.72,3.15-3.72a3,3,0,0,1,2.39,1.25v-3.77h1.1V455Zm0-1.92v-3.2a2.67,2.67,0,0,0-2.13-1.15c-1.42,0-2.27,1.17-2.27,2.74s.85,2.73,2.27,2.73A2.64,2.64,0,0,0,127.69,453.07Z"/><path class="cls-44" d="M130.21,451.45a3.54,3.54,0,0,1,3.48-3.71c2.14,0,3.4,1.67,3.4,3.79v.28h-5.73a2.5,2.5,0,0,0,2.55,2.45,3.11,3.11,0,0,0,2.19-.89l.52.71a3.8,3.8,0,0,1-2.81,1.09A3.51,3.51,0,0,1,130.21,451.45Zm3.47-2.8a2.36,2.36,0,0,0-2.32,2.36H136A2.3,2.3,0,0,0,133.68,448.65Z"/><path class="cls-44" d="M137.88,454.05l.57-.79a3.19,3.19,0,0,0,2.33,1c1.09,0,1.67-.51,1.67-1.21,0-1.72-4.38-.66-4.38-3.28,0-1.1,1-2,2.64-2a3.58,3.58,0,0,1,2.62,1l-.51.76a2.78,2.78,0,0,0-2.11-.9c-1,0-1.57.49-1.57,1.12,0,1.55,4.38.53,4.38,3.28,0,1.19-1,2.14-2.78,2.14A3.75,3.75,0,0,1,137.88,454.05Z"/><path class="cls-44" d="M144.75,446.17a.74.74,0,1,1,.73.74A.74.74,0,0,1,144.75,446.17Zm.19,8.82v-7.07H146V455Z"/><path class="cls-44" d="M147.86,456.81l.55-.82a2.71,2.71,0,0,0,2.3,1,2,2,0,0,0,2.27-2.12v-1a2.93,2.93,0,0,1-2.37,1.26c-1.84,0-3.15-1.38-3.15-3.66s1.29-3.68,3.15-3.68A2.92,2.92,0,0,1,153,449v-1.07h1.1v6.87c0,2.34-1.64,3.07-3.37,3.07A3.59,3.59,0,0,1,147.86,456.81ZM153,453v-3.09a2.6,2.6,0,0,0-2.11-1.15c-1.42,0-2.27,1.13-2.27,2.7s.85,2.69,2.27,2.69A2.62,2.62,0,0,0,153,453Z"/><path class="cls-44" d="M160.69,455v-4.63c0-1.24-.63-1.64-1.58-1.64a2.74,2.74,0,0,0-2.1,1.1V455h-1.1v-7.07H157v1a3.54,3.54,0,0,1,2.52-1.2,2,2,0,0,1,2.26,2.29v5Z"/><path class="cls-44" d="M163.21,451.45a3.54,3.54,0,0,1,3.48-3.71c2.14,0,3.4,1.67,3.4,3.79v.28h-5.72a2.48,2.48,0,0,0,2.54,2.45,3.11,3.11,0,0,0,2.19-.89l.52.71a3.8,3.8,0,0,1-2.81,1.09A3.51,3.51,0,0,1,163.21,451.45Zm3.47-2.8a2.35,2.35,0,0,0-2.31,2.36H169A2.3,2.3,0,0,0,166.68,448.65Z"/><path class="cls-44" d="M176.63,455v-1.05a3,3,0,0,1-2.39,1.23c-1.85,0-3.15-1.41-3.15-3.71s1.29-3.72,3.15-3.72a3,3,0,0,1,2.39,1.25v-3.77h1.09V455Zm0-1.92v-3.2a2.67,2.67,0,0,0-2.13-1.15c-1.42,0-2.27,1.17-2.27,2.74s.85,2.73,2.27,2.73A2.64,2.64,0,0,0,176.63,453.07Z"/><path class="cls-44" d="M183,455v-9.77h1.1V449a2.93,2.93,0,0,1,2.38-1.25c1.85,0,3.15,1.47,3.15,3.72s-1.3,3.71-3.15,3.71a3,3,0,0,1-2.38-1.23V455Zm3.2-.8c1.44,0,2.29-1.16,2.29-2.73s-.85-2.74-2.29-2.74a2.61,2.61,0,0,0-2.1,1.15v3.2A2.58,2.58,0,0,0,186.17,454.19Z"/><path class="cls-44" d="M190.8,456.76a1.57,1.57,0,0,0,.6.12,1,1,0,0,0,1.06-.75l.47-1.06-3-7.15h1.19l2.35,5.8,2.35-5.8h1.2l-3.55,8.51a2.09,2.09,0,0,1-2.08,1.43,3.44,3.44,0,0,1-.8-.1Z"/></g></g></svg>