<svg xmlns="http://www.w3.org/2000/svg" xmlns:xlink="http://www.w3.org/1999/xlink" viewBox="0 0 140.98 119.08"><defs><style>.cls-1{fill:url(#linear-gradient);}.cls-2{fill:url(#linear-gradient-2);}.cls-3{fill:url(#linear-gradient-3);}.cls-4{fill:none;stroke:#fff;stroke-miterlimit:10;stroke-width:0.23px;}</style><linearGradient id="linear-gradient" x1="-3091.26" y1="67.36" x2="-3046.65" y2="16.23" gradientTransform="matrix(-1, 0, 0, 1, -3020.29, 0)" gradientUnits="userSpaceOnUse"><stop offset="0" stop-color="#263c7a"/><stop offset="0.46" stop-color="#1d7b8e"/><stop offset="1" stop-color="#14c1a3"/></linearGradient><linearGradient id="linear-gradient-2" x1="-3161.15" y1="57" x2="-3099.56" y2="57" gradientTransform="matrix(-1, 0, 0, 1, -3020.29, 0)" gradientUnits="userSpaceOnUse"><stop offset="0" stop-color="#263c7a"/><stop offset="0.27" stop-color="#25437c"/><stop offset="0.66" stop-color="#225882"/><stop offset="1" stop-color="#1f6e89"/></linearGradient><linearGradient id="linear-gradient-3" x1="-3147.76" y1="94.45" x2="-3020.61" y2="94.45" gradientTransform="matrix(-1, 0, 0, 1, -3020.29, 0)" gradientUnits="userSpaceOnUse"><stop offset="0" stop-color="#201d42"/><stop offset="0.3" stop-color="#202144"/><stop offset="0.59" stop-color="#1f2d4b"/><stop offset="0.88" stop-color="#1e4057"/><stop offset="1" stop-color="#1d4b5d"/></linearGradient></defs><g id="Capa_2" data-name="Capa 2"><g id="Capa_1-2" data-name="Capa 1"><polygon class="cls-1" points="0.32 79.14 79.26 69.94 93.31 0.23 18.59 11.16 0.32 79.14"/><polygon class="cls-2" points="127.47 113.77 79.26 69.94 93.31 0.23 140.86 47.15 127.47 113.77"/><polygon class="cls-3" points="0.32 79.14 58.46 118.96 127.47 113.77 79.26 69.94 0.32 79.14"/><polygon class="cls-4" points="0.32 79.14 79.26 69.94 93.31 0.23 18.59 11.16 0.32 79.14"/><polygon class="cls-4" points="127.47 113.77 79.26 69.94 93.31 0.23 140.86 47.15 127.47 113.77"/><polygon class="cls-4" points="0.32 79.14 58.46 118.96 127.47 113.77 79.26 69.94 0.32 79.14"/></g></g></svg>