<svg xmlns="http://www.w3.org/2000/svg" xmlns:xlink="http://www.w3.org/1999/xlink" viewBox="0 0 355.39 483.43"><defs><style>.cls-1,.cls-32,.cls-42,.cls-43,.cls-44{fill:none;}.cls-2,.cls-5{fill:#fff;}.cls-3{fill:#5795b8;stroke:#fff;stroke-width:3px;}.cls-4,.cls-5{isolation:isolate;}.cls-5{font-size:35px;font-family:QuicksandBold-Regular, Quicksand;}.cls-6{letter-spacing:-0.01em;}.cls-7{letter-spacing:0em;}.cls-8{letter-spacing:-0.03em;}.cls-9{letter-spacing:-0.01em;}.cls-10{letter-spacing:-0.02em;}.cls-11{fill:#7377ee;}.cls-12{fill:#7e80ee;}.cls-13{fill:#6062ee;}.cls-14{fill:#272977;}.cls-15{fill:#2740a9;}.cls-16{fill:#130742;}.cls-17{fill:#27185b;}.cls-18{clip-path:url(#clip-path);}.cls-19{fill:#ec6571;}.cls-20{fill:#fff4bf;}.cls-21{fill:#ffd200;}.cls-22{fill:#f17982;}.cls-23{fill:#ffd400;}.cls-24{fill:#ff8a00;}.cls-25{fill:#f14a62;}.cls-26{fill:#e33954;}.cls-27{fill:#ffe000;}.cls-28{fill:#ff9a00;}.cls-29{fill:#ffc100;}.cls-30{fill:#00abff;}.cls-31{fill:#00c7ff;}.cls-32{stroke:#fffa00;stroke-linecap:round;stroke-linejoin:round;}.cls-33{fill:#ffe400;}.cls-34{fill:#8cb6e6;}.cls-35{fill:#bedbff;}.cls-36{fill:#000739;}.cls-37{fill:#d9edff;}.cls-38{fill:#ae91ff;}.cls-39{fill:#b6d2ff;}.cls-40{fill:#e3f8ff;}.cls-41{fill:#110b58;}.cls-42,.cls-43,.cls-44{stroke:#e3f8ff;stroke-miterlimit:10;}.cls-43{stroke-dasharray:3.96 3.96;}.cls-44{stroke-dasharray:4;}.cls-45{fill:#fff9c7;}.cls-46{fill:#fffa00;}.cls-47{fill:#c6deff;}.cls-48{fill:#ff3580;}.cls-49{fill:#000117;}.cls-50{fill:#3fb5ef;}.cls-51{fill:#3ec2ff;}.cls-52{fill:#fa0;}</style><clipPath id="clip-path"><path class="cls-1" d="M259.13,283.07c0,9.06-32.47,16.41-72.53,16.41s-72.53-7.35-72.53-16.41c0-24.37,32.47-74.08,72.53-74.08S259.13,204.49,259.13,283.07Z"/></clipPath></defs><g id="Capa_2" data-name="Capa 2"><g id="Background"><g id="Trazado_412" data-name="Trazado 412"><path class="cls-2" d="M326.51,481.93h-297A26.48,26.48,0,0,1,3,455.43v-426a26.46,26.46,0,0,1,26.5-26.5h297A26.51,26.51,0,0,1,353,29.43v426a26.49,26.49,0,0,1-7.77,18.74,26.38,26.38,0,0,1-18.73,7.76Z"/><path class="cls-2" d="M29.51,4.43a25,25,0,0,0-25,25v426a25,25,0,0,0,25,25h297a25,25,0,0,0,25-25v-426a25,25,0,0,0-25-25h-297m0-3h297a28,28,0,0,1,28,28v426a28,28,0,0,1-28,28h-297a28,28,0,0,1-28-28v-426A28,28,0,0,1,29.51,1.43Z"/></g><path id="Trazado_410-2" data-name="Trazado 410-2" class="cls-3" d="M1.51,127C7.25,106.4,19,79.87,45.57,79.87H353.89v-50c-.44-19.7-15.48-29.45-32.73-28.12-38.63.1-287.39,0-287.39,0S1.09-3.66,1.5,35.65,1.51,127,1.51,127Z"/><g id="Geolocalización-2" class="cls-4"><text class="cls-5" transform="translate(92.38 31.12)">Diseño <tspan class="cls-6" x="127.36" y="0">d</tspan><tspan class="cls-7" x="149.94" y="0">e</tspan><tspan class="cls-8" x="-24.48" y="42">e</tspan><tspan x="-4.22" y="42">x</tspan><tspan class="cls-9" x="15.73" y="42">p</tspan><tspan class="cls-10" x="38.48" y="42">e</tspan><tspan x="59.06" y="42">riencias</tspan></text></g><ellipse class="cls-11" cx="179.51" cy="421.67" rx="58.86" ry="17.5"/><ellipse class="cls-12" cx="179.51" cy="418.99" rx="45.36" ry="13.49"/><path class="cls-13" d="M107.74,429.76c0,.79-2.14,1.42-4.79,1.42s-4.78-.63-4.78-1.42,2.14-1.42,4.78-1.42S107.74,429,107.74,429.76Z"/><path class="cls-14" d="M214.62,418l-.2-19.45h26.3s19.88-.87,19.88-21.42c0-18.13.14-32.13.14-32.13h10.9a3.83,3.83,0,0,0,3.63-5.07l-14.11-33.22.45-10.72-95.05-12.9-24.65,62.06V418Z"/><path class="cls-14" d="M253.06,285.05l-50.54,3.7s-72.12-2.67-81.16-3.91a49.16,49.16,0,0,1-9.22-2.44,76.37,76.37,0,0,0,74.64,92.3c42.15,0,74.83-34.17,74.83-76.32,0-5.62.88-11.08-.27-16.35Z"/><ellipse class="cls-14" cx="178.27" cy="417.98" rx="36.35" ry="9.16"/><ellipse class="cls-15" cx="186.72" cy="283.07" rx="74.66" ry="18.82"/><ellipse class="cls-16" cx="186.6" cy="283.07" rx="72.53" ry="16.41"/><path class="cls-17" d="M275.36,339.93l-14.2-33.24L260.74,345h10.9A3.81,3.81,0,0,0,275.36,339.93Z"/><g class="cls-18"><path class="cls-19" d="M256.71,288.24a5.79,5.79,0,0,0-1.74-4.15A8.4,8.4,0,0,0,247.45,272a14.56,14.56,0,0,0-23.24-10.57,14.56,14.56,0,0,0-22.94-2.74,14.56,14.56,0,0,0-22.73-1.54A14.57,14.57,0,0,0,157.7,261a15,15,0,0,0-3.3-.38,14.52,14.52,0,0,0-11.85,6.11,14.57,14.57,0,0,0-13.7,14.45,5.85,5.85,0,1,0,4.5,10.6,14.6,14.6,0,0,0,5.62,3.36,14.57,14.57,0,0,0,25.15,6.67,14.55,14.55,0,0,0,13.6,2.6,19.76,19.76,0,0,0,26.91,1.41,19.72,19.72,0,0,0,15.89,8,19.39,19.39,0,0,0,4.47-.52A18.06,18.06,0,0,0,251.83,294,5.86,5.86,0,0,0,256.71,288.24Z"/><rect class="cls-20" x="179.34" y="223.97" width="12.58" height="46.58"/><circle class="cls-20" cx="176.35" cy="255.11" r="9.14"/><path class="cls-20" d="M174.58,246.2a3.13,3.13,0,1,0,3.13-3.14A3.13,3.13,0,0,0,174.58,246.2Z"/><circle class="cls-20" cx="179.94" cy="242.4" r="1.91"/><circle class="cls-20" cx="192.59" cy="245.57" r="1.91"/><path class="cls-20" d="M161.16,260.3a3.83,3.83,0,1,0,3.82-3.83A3.82,3.82,0,0,0,161.16,260.3Z"/><circle class="cls-20" cx="153.03" cy="269.91" r="8.07" transform="translate(-146.04 187.26) rotate(-45)"/><circle class="cls-20" cx="194.48" cy="255.89" r="9.32" transform="translate(-123.98 212.46) rotate(-45)"/><circle class="cls-20" cx="210.32" cy="263.1" r="6.43" transform="translate(-39.33 36.98) rotate(-9.19)"/><circle class="cls-20" cx="217.6" cy="260.26" r="3.52"/><path class="cls-20" d="M156.59,264.25a3.83,3.83,0,1,0,3.83-3.83A3.84,3.84,0,0,0,156.59,264.25Z"/><path class="cls-21" d="M254.48,263.56V250.34H246.8a25.26,25.26,0,0,0-2.4-5.85l5.42-5.42-9.35-9.34-5.39,5.38a25,25,0,0,0-5.88-2.45v-7.6H216v7.6a25.18,25.18,0,0,0-5.88,2.45l-5.38-5.38-9.35,9.34,5.42,5.42a24.41,24.41,0,0,0-2.4,5.85H190.7v13.22h7.76a24.64,24.64,0,0,0,2.42,5.76l-5.51,5.51,9.35,9.35,5.54-5.55A24.82,24.82,0,0,0,216,281v7.84H229.2V281a24.9,24.9,0,0,0,5.73-2.37l5.54,5.55,9.35-9.35-5.51-5.51a25.07,25.07,0,0,0,2.42-5.76Zm-31.89,7.76a14.49,14.49,0,1,1,14.5-14.49A14.49,14.49,0,0,1,222.59,271.32Z"/><path class="cls-22" d="M244.39,288.66a6.31,6.31,0,0,0-2.48-4.21,8.93,8.93,0,0,0,.38-4.1,9.11,9.11,0,0,0-10.23-7.81,15.79,15.79,0,0,0-26.52-8,15.79,15.79,0,0,0-25,.43,15.78,15.78,0,0,0-24.64,1.67A15.79,15.79,0,0,0,134,274a15.54,15.54,0,0,0-3.6.08,15.77,15.77,0,0,0-11.84,8.29A15.79,15.79,0,0,0,106,299.85a6.34,6.34,0,1,0,6.38,10.73,16,16,0,0,0,6.53,2.79,15.8,15.8,0,0,0,28,3.48,15.82,15.82,0,0,0,15,.8A21.42,21.42,0,0,0,191,315.21a21.4,21.4,0,0,0,23,5.07,19.59,19.59,0,0,0,26-24.71A6.36,6.36,0,0,0,244.39,288.66Z"/><circle class="cls-22" cx="145.29" cy="274.93" r="13.26"/><circle class="cls-22" cx="243.68" cy="298.57" r="13.26"/><circle class="cls-22" cx="127.8" cy="280" r="10.15"/></g><path class="cls-23" d="M170.93,212.69a13.87,13.87,0,1,1,27.74,0c0,13.87-13.87,23.87-13.87,23.87S170.93,226.56,170.93,212.69Z"/><path class="cls-24" d="M176.35,207.27a8.45,8.45,0,1,1,16.9,0c0,8.46-8.45,14.55-8.45,14.55S176.35,215.73,176.35,207.27Z"/><path class="cls-25" d="M165.14,174l-11.61,24.83v7.12a1,1,0,0,0,1.86.48l3.06-5.45,11.13-4.58,1.8-17.61"/><path class="cls-26" d="M165.14,174s-2.53,8.79.93,23.84l3.51-1.44-1.51-20.57"/><path class="cls-25" d="M204.45,174l11.62,24.83v7.12a1,1,0,0,1-1.86.48l-3.07-5.45L200,196.35l-1.79-17.61"/><path class="cls-26" d="M204.76,174s2.53,8.79-.93,23.84l-3.51-1.44,1.51-20.57"/><rect class="cls-14" x="172.78" y="192.27" width="24.77" height="10.09"/><path class="cls-27" d="M178.57,121.4c-24.15,35.27-9,74.95-9,74.95H200s16.91-37.73-9-74.95A7.58,7.58,0,0,0,178.57,121.4Z"/><path class="cls-28" d="M185.16,180.26a8.9,8.9,0,0,0-8.89,8.9v7.19h17.79v-7.19A8.91,8.91,0,0,0,185.16,180.26Zm7.46,15.36H177.71v-6.46a7.46,7.46,0,0,1,14.91,0Z"/><path class="cls-25" d="M202,143.94a85.49,85.49,0,0,0-12.46-25.21,5.9,5.9,0,0,0-9.57,0,81.93,81.93,0,0,0-11.94,25C174.89,141.78,188,139.15,202,143.94Z"/><circle class="cls-29" cx="184.8" cy="162.18" r="15.03"/><circle class="cls-30" cx="184.8" cy="162.18" r="11.67"/><circle class="cls-31" cx="180.67" cy="160.2" r="4.4"/><circle class="cls-31" cx="187" cy="155.8" r="1.49"/><path class="cls-29" d="M185.16,181h0a8.18,8.18,0,0,1,8.18,8.18v7.19a0,0,0,0,1,0,0H177a0,0,0,0,1,0,0v-7.19A8.18,8.18,0,0,1,185.16,181Z"/><path class="cls-29" d="M185.16,181h0a8.18,8.18,0,0,1,8.18,8.18v7.19a0,0,0,0,1,0,0H177a0,0,0,0,1,0,0v-7.19A8.18,8.18,0,0,1,185.16,181Z"/><rect class="cls-27" x="187.52" y="190.42" width="4.8" height="1.51"/><rect class="cls-27" x="187.52" y="192.74" width="4.8" height="0.3"/><rect class="cls-27" x="187.52" y="193.94" width="4.8" height="0.29"/><path class="cls-32" d="M160.3,167.94c-7.91,0-13.36-1.66-14.45-5.11C143.7,156,159.39,145,180.9,138.18s40.69-6.81,42.85,0c1.55,4.9-6.14,12-18.59,18.11"/><path class="cls-32" d="M209.3,167.94c7.91,0,13.36-1.66,14.45-5.11,2.15-6.8-13.54-17.84-35.05-24.65s-40.69-6.81-42.85,0c-1.55,4.9,6.14,12,18.59,18.11"/><path class="cls-21" d="M125.26,262h0a2.13,2.13,0,0,0,2.13,2.13h16.34a2.13,2.13,0,0,0,2.13-2.13h0a10.78,10.78,0,0,1,4.26-8.57,24,24,0,1,0-29.15,0A10.87,10.87,0,0,1,125.26,262Z"/><path class="cls-33" d="M133.11,261.11a1.11,1.11,0,0,1-1.07-.82l-5.42-21.53a1.09,1.09,0,0,1,2.12-.54l5.43,21.53a1.09,1.09,0,0,1-.8,1.33Z"/><path class="cls-33" d="M137.9,261.11a1.24,1.24,0,0,1-.27,0,1.1,1.1,0,0,1-.79-1.33l5.42-21.53a1.1,1.1,0,0,1,2.13.54L139,260.29A1.09,1.09,0,0,1,137.9,261.11Z"/><rect class="cls-34" x="126.99" y="266.78" width="17.14" height="8.8"/><rect class="cls-35" x="124.86" y="264.12" width="21.4" height="3.65" rx="1.82"/><path class="cls-36" d="M131.21,279.87a4.3,4.3,0,1,0,4.29-4.29A4.29,4.29,0,0,0,131.21,279.87Z"/><rect class="cls-34" x="126.88" y="274.73" width="17.25" height="7.14" rx="3.57"/><rect class="cls-35" x="124.86" y="274.65" width="21.4" height="3.65" rx="1.82"/><rect class="cls-37" x="126.05" y="269.45" width="18.9" height="0.93" rx="0.46"/><rect class="cls-37" x="126.05" y="272.05" width="18.9" height="0.93" rx="0.46"/><path class="cls-14" d="M280.24,241.89v-5.43h-3.16a10.71,10.71,0,0,0-1-2.4l2.22-2.22L274.49,228l-2.21,2.21a9.75,9.75,0,0,0-2.42-1v-3.12h-5.42v3.12a9.84,9.84,0,0,0-2.41,1L259.82,228,256,231.84l2.23,2.22a10.29,10.29,0,0,0-1,2.4h-3.15v5.43h3.18a10.91,10.91,0,0,0,1,2.36L256,246.51l3.84,3.83,2.27-2.27a10.12,10.12,0,0,0,2.35,1v3.22h5.42V249a10.12,10.12,0,0,0,2.35-1l2.28,2.27,3.83-3.83-2.26-2.26a10,10,0,0,0,1-2.36Zm-13.09,3.18a5.95,5.95,0,1,1,6-5.94A5.94,5.94,0,0,1,267.15,245.07Z"/><path class="cls-14" d="M280.21,305.22v-2.71h-1.58a4.88,4.88,0,0,0-.49-1.2l1.11-1.12-1.91-1.91-1.11,1.1a5.53,5.53,0,0,0-1.2-.5v-1.56h-2.72v1.56a5.53,5.53,0,0,0-1.2.5l-1.11-1.1-1.91,1.91,1.11,1.12a4.88,4.88,0,0,0-.49,1.2h-1.58v2.71h1.59a5.1,5.1,0,0,0,.5,1.18l-1.13,1.13,1.91,1.92,1.14-1.14a5,5,0,0,0,1.17.48v1.61H275v-1.61a5,5,0,0,0,1.17-.48l1.14,1.14,1.91-1.92-1.13-1.13a5.1,5.1,0,0,0,.5-1.18Zm-6.54,1.59a3,3,0,1,1,3-3A3,3,0,0,1,273.67,306.81Z"/><path class="cls-38" d="M257.72,223.92v-3.2h-1.87a5.73,5.73,0,0,0-.58-1.42l1.32-1.32-2.27-2.27L253,217a5.91,5.91,0,0,0-1.42-.59v-1.85h-3.21v1.85A5.82,5.82,0,0,0,247,217l-1.31-1.31L243.37,218l1.32,1.32a5.73,5.73,0,0,0-.58,1.42h-1.87v3.2h1.88a6,6,0,0,0,.59,1.4l-1.34,1.34,2.27,2.27,1.35-1.35a6.09,6.09,0,0,0,1.39.58v1.9h3.21v-1.9a6,6,0,0,0,1.38-.58l1.35,1.35,2.27-2.27-1.34-1.34a6,6,0,0,0,.59-1.4ZM250,225.81a3.52,3.52,0,1,1,3.52-3.52A3.53,3.53,0,0,1,250,225.81Z"/><polygon class="cls-39" points="118.77 178 122.32 190.68 79.76 222.94 106.39 181.7 118.77 178"/><polygon class="cls-40" points="79.76 222.94 118.77 178 105.75 173.27 79.76 222.94"/><polygon class="cls-39" points="130.36 198.65 130.6 204.56 79.76 222.94 130.36 198.65"/><polygon class="cls-40" points="79.76 222.94 128.31 183.22 145.18 192.02 79.76 222.94"/><polygon class="cls-39" points="218.22 315.85 216.6 325.19 249.42 345.21 227.35 317.6 218.22 315.85"/><polygon class="cls-40" points="249.42 345.21 218.22 315.85 227.21 311.52 249.42 345.21"/><polygon class="cls-39" points="211.42 331.48 211.68 335.73 249.42 345.21 211.42 331.48"/><polygon class="cls-40" points="249.42 345.21 211.77 320.28 200.32 327.81 249.42 345.21"/><path class="cls-14" d="M299.59,181.35v-6.58a9.34,9.34,0,0,0-18.67,0V163.54a12.76,12.76,0,1,0-25.52,0v8.79a9.33,9.33,0,0,0-18.66,0v9a13.46,13.46,0,0,0,3.42,26.49h56a13.47,13.47,0,0,0,3.43-26.49Z"/><path class="cls-41" d="M278.7,182.35l-7.92-7.93a3.71,3.71,0,0,0-5.23,0l-7.93,7.93a3.7,3.7,0,0,0,1.76,6.21v10a3.31,3.31,0,0,0,3.31,3.32h10.94a3.31,3.31,0,0,0,3.31-3.32v-10A3.7,3.7,0,0,0,278.7,182.35Z"/><path class="cls-42" d="M136,198.82l1.89-.64"/><path class="cls-43" d="M141.63,196.92c22.3-7.38,104.07-33.31,123.42-23.21,19.16,10-24.21,30-37.43,35.65"/><path class="cls-42" d="M225.79,210.13c-1.18.5-1.84.76-1.84.76"/><path class="cls-44" d="M200.84,331.94s-111-21.09-121.36-43.36,37.6-23.37,37.6-23.37"/><polygon class="cls-45" points="101.3 429.76 112.17 423.21 107.87 413.58 98.24 417.88 101.3 429.76"/><rect class="cls-21" x="112.97" y="338.64" width="14.87" height="84.73" transform="translate(144.16 -17.87) rotate(20.95)"/><rect class="cls-46" x="116.52" y="344.4" width="5.64" height="78.77" transform="translate(145.09 -17.3) rotate(20.95)"/><rect class="cls-40" x="127.05" y="341.24" width="14.87" height="5.96" transform="translate(131.94 -25.33) rotate(20.95)"/><rect class="cls-47" x="127.05" y="343.37" width="14.87" height="1.71" transform="translate(131.94 -25.33) rotate(20.95)"/><path class="cls-48" d="M142.49,344.1l-13.88-5.32h0a6,6,0,0,1,7.69-3.43l2.76,1a6,6,0,0,1,3.43,7.7Z"/><polygon class="cls-49" points="101.3 429.76 108.48 425.43 99.91 424.36 101.3 429.76"/><path class="cls-50" d="M311.5,278.31v-9.78h-5.69a18.42,18.42,0,0,0-1.77-4.32l4-4-6.92-6.92-4,4a18.71,18.71,0,0,0-4.35-1.82v-5.62H283v5.62a18.36,18.36,0,0,0-4.35,1.82l-4-4-6.91,6.92,4,4a18.42,18.42,0,0,0-1.77,4.32h-5.69v9.78h5.74a18.46,18.46,0,0,0,1.79,4.26l-4.07,4.08,6.91,6.91,4.1-4.1a18.38,18.38,0,0,0,4.24,1.75V297h9.78v-5.8a18.49,18.49,0,0,0,4.23-1.75l4.1,4.1,6.92-6.91L304,282.57a18,18,0,0,0,1.79-4.26Zm-23.59,5.74a10.72,10.72,0,1,1,10.72-10.72A10.72,10.72,0,0,1,287.91,284.05Z"/><circle class="cls-14" cx="78.56" cy="257.47" r="28.16" transform="translate(-190.01 275.72) rotate(-76.92)"/><path class="cls-25" d="M78.56,285.62a28.15,28.15,0,0,0,28.15-28.15H50.4A28.15,28.15,0,0,0,78.56,285.62Z"/><path class="cls-27" d="M106.71,257.47a28.15,28.15,0,0,0-28.15-28.16v56.31A28.15,28.15,0,0,0,106.71,257.47Z"/><path class="cls-51" d="M42.91,278a41.24,41.24,0,0,0,18.5,16.86l17.15-37.42Z"/><rect class="cls-52" x="118.65" y="155.42" width="4.92" height="9.26" transform="translate(-79.42 168.45) rotate(-55.28)"/><rect class="cls-25" x="128.68" y="155.15" width="7.69" height="25.61" transform="translate(-81.01 181.23) rotate(-55.28)"/><circle class="cls-21" cx="102.54" cy="147.18" r="19.63" transform="translate(-24.99 21.03) rotate(-10.45)"/><circle class="cls-30" cx="102.54" cy="147.18" r="14.99" transform="translate(-66.17 208.1) rotate(-74.99)"/><path class="cls-31" d="M99.36,145a6.13,6.13,0,1,1-8.54,1.55A6.14,6.14,0,0,1,99.36,145Z"/><path class="cls-31" d="M95.93,139.14a2.16,2.16,0,1,1-3,.55A2.17,2.17,0,0,1,95.93,139.14Z"/></g></g></svg>