<svg xmlns="http://www.w3.org/2000/svg" viewBox="0 0 1390.37 1422.96"><defs><style>.cls-1,.cls-11{fill:#2e3192;}.cls-2{fill:none;stroke:#fd9100;stroke-linecap:round;stroke-linejoin:round;stroke-width:7px;stroke-dasharray:20;}.cls-3,.cls-6{fill:#fd9100;}.cls-4,.cls-5{fill:#fff;}.cls-5{font-size:48px;font-family:Roboto-Regular, Roboto;}.cls-11,.cls-6{font-size:93px;font-family:Roboto-Bold, Roboto;font-weight:700;}.cls-7{letter-spacing:0.01em;}.cls-8{letter-spacing:-0.06em;}.cls-9{letter-spacing:-0.09em;}.cls-10{letter-spacing:0em;}</style></defs><g id="Capa_2" data-name="Capa 2"><g id="Capa_1-2" data-name="Capa 1"><path class="cls-1" d="M250.88,315.16l232.12-52c-24.93-108.59-125.12-185-231.12-185-100,0-199.08,54.89-230.38,179Z"/><line class="cls-2" x1="1101.13" y1="989.21" x2="1104.25" y2="1173.4"/><path class="cls-3" d="M250.88,315.16,9.18,254C.79,281.24,0,298.24,0,315.69,0,454.51,112.53,567.05,251.35,567.05S502.71,454.51,502.71,315.69c0-23.24-1.29-40.56-6.45-55.48Z"/><circle class="cls-4" cx="251.35" cy="329.51" r="174.92"/><text class="cls-5" transform="translate(68.84 266.58) rotate(-66.46)">P</text><text class="cls-5" transform="matrix(0.53, -0.85, 0.85, 0.53, 80.4, 239.89)">R</text><text class="cls-5" transform="translate(95.25 215.67) rotate(-48.65)">U</text><text class="cls-5" transform="translate(114.98 193.08) rotate(-41)">E</text><text class="cls-5" transform="matrix(0.84, -0.54, 0.54, 0.84, 134.62, 175.77)">B</text><text class="cls-5" transform="translate(158.67 160.11) rotate(-23.99)">A</text><text class="cls-5" transform="translate(186.66 148.17) rotate(-17.81)"> </text><text class="cls-5" transform="translate(197 144.25) rotate(-11.64)">D</text><text class="cls-5" transform="translate(227.03 138.53) rotate(-5.31)">I</text><text class="cls-5" transform="translate(239.55 136.83) rotate(1.11)">A</text><text class="cls-5" transform="translate(269.36 137.23) rotate(10.15)">G</text><text class="cls-5" transform="translate(300.31 142.6) rotate(19.75)">N</text><text class="cls-5" transform="translate(331.32 153.67) rotate(29.42)">Ó</text><text class="cls-5" transform="matrix(0.79, 0.62, -0.62, 0.79, 358.98, 169.37)">S</text><text class="cls-5" transform="matrix(0.69, 0.72, -0.72, 0.69, 380.56, 186.23)">T</text><text class="cls-5" transform="translate(399.51 206.52) rotate(52.19)">I</text><text class="cls-5" transform="translate(407.43 215.83) rotate(58.56)">C</text><text class="cls-5" transform="translate(423.17 241.38) rotate(67.54)">A</text><text class="cls-6" transform="translate(110.17 320.05)"><tspan class="cls-7">E</tspan><tspan class="cls-8" x="53.22" y="0">T</tspan><tspan x="105.31" y="0">A</tspan><tspan class="cls-9" x="167.88" y="0">P</tspan><tspan class="cls-10" x="219.79" y="0">A</tspan><tspan x="114.5" y="111.6">1</tspan></text><path class="cls-1" d="M251.83,1186l-232.12,52c24.92,108.59,125.12,185,231.12,185,100,0,199.08-54.89,230.37-179Z"/><path class="cls-3" d="M251.83,1186l241.69,61.15c8.39-27.24,9.19-44.23,9.19-61.69,0-138.82-112.54-251.35-251.36-251.35S0,1046.6,0,1185.42c0,23.24,1.28,40.57,6.44,55.49Z"/><circle class="cls-4" cx="251.35" cy="1185.42" r="174.92"/><text class="cls-5" transform="translate(60.55 1155.69) rotate(-76.45)">D</text><text class="cls-5" transform="matrix(0.34, -0.94, 0.94, 0.34, 68.17, 1126.08)">I</text><text class="cls-5" transform="translate(71.93 1114.43) rotate(-64.12)">S</text><text class="cls-5" transform="matrix(0.56, -0.83, 0.83, 0.56, 83.86, 1089.76)">E</text><text class="cls-5" transform="matrix(0.68, -0.74, 0.74, 0.68, 98.06, 1067.84)">Ñ</text><text class="cls-5" transform="matrix(0.79, -0.61, 0.61, 0.79, 120.26, 1043.54)">O</text><text class="cls-5" transform="translate(145.92 1024.31) rotate(-31.38)"> </text><text class="cls-5" transform="translate(155.07 1018.06) rotate(-25.19)">D</text><text class="cls-5" transform="translate(182.52 1005.22) rotate(-16.84)">E</text><text class="cls-5" transform="matrix(0.98, -0.2, 0.2, 0.98, 207.97, 997.87)"> </text><text class="cls-5" transform="translate(218.79 995.29) rotate(-5.71)">E</text><text class="cls-5" transform="translate(244.82 992.51) rotate(2.48)">X</text><text class="cls-5" transform="translate(273.71 993.66) rotate(11.15)">P</text><text class="cls-5" transform="matrix(0.94, 0.33, -0.33, 0.94, 302.31, 999.33)">E</text><text class="cls-5" transform="translate(327.06 1007.9) rotate(27.53)">R</text><text class="cls-5" transform="matrix(0.83, 0.55, -0.55, 0.83, 352.31, 1021.5)">I</text><text class="cls-5" transform="translate(362.75 1027.93) rotate(39.26)">E</text><text class="cls-5" transform="matrix(0.67, 0.74, -0.74, 0.67, 383.2, 1044.18)">N</text><text class="cls-5" transform="translate(405.19 1068.71) rotate(57.5)">C</text><text class="cls-5" transform="matrix(0.44, 0.9, -0.9, 0.44, 421.11, 1094.55)">I</text><text class="cls-5" transform="translate(427.15 1105.63) rotate(70.27)">A</text><text class="cls-5" transform="matrix(0.19, 0.98, -0.98, 0.19, 437.31, 1134.01)">S</text><text class="cls-11" transform="translate(110.17 1175.96)"><tspan class="cls-7">E</tspan><tspan class="cls-8" x="53.22" y="0">T</tspan><tspan x="105.31" y="0">A</tspan><tspan class="cls-9" x="167.88" y="0">P</tspan><tspan class="cls-10" x="219.79" y="0">A</tspan><tspan x="114.5" y="111.6">2</tspan></text><path class="cls-3" d="M1103.71,752.21l-232.12,52c24.93,108.59,125.12,185,231.12,185,100,0,199.08-54.9,230.37-179Z"/><path class="cls-1" d="M1103.71,752.21l241.69,61.15c8.4-27.24,9.19-44.23,9.19-61.69,0-138.82-112.54-251.36-251.35-251.36S851.88,612.85,851.88,751.67c0,23.24,1.29,40.57,6.44,55.48Z"/><circle class="cls-4" cx="1103.24" cy="751.67" r="174.92"/><text class="cls-5" transform="translate(911 769.97) rotate(-90.74)">D</text><text class="cls-5" transform="translate(910.68 739.64) rotate(-82.3)">E</text><text class="cls-5" transform="translate(914.22 713.68) rotate(-74.96)">S</text><text class="cls-5" transform="translate(921.28 687.29) rotate(-66.09)">P</text><text class="cls-5" transform="matrix(0.53, -0.85, 0.85, 0.53, 933.18, 660.65)">L</text><text class="cls-5" transform="translate(946.65 639.57) rotate(-52.44)">I</text><text class="cls-5" transform="translate(953.81 629.61) rotate(-46.65)">E</text><text class="cls-5" transform="translate(971.55 610.4) rotate(-38.09)">G</text><text class="cls-5" transform="matrix(0.87, -0.49, 0.49, 0.87, 996.29, 590.97)">U</text><text class="cls-5" transform="translate(1022.53 576.48) rotate(-20.72)">E</text><text class="cls-5" transform="matrix(0.97, -0.26, 0.26, 0.97, 1047.41, 567.42)"> </text><text class="cls-5" transform="translate(1057.94 563.97) rotate(-8.93)">D</text><text class="cls-5" transform="matrix(1, -0.01, 0.01, 1, 1087.88, 559.34)">E</text><text class="cls-5" transform="translate(1114.37 559.45) rotate(5.15)"> </text><text class="cls-5" transform="translate(1125.46 560.03) rotate(10.74)">E</text><text class="cls-5" transform="translate(1151.24 564.75) rotate(18.83)">X</text><text class="cls-5" transform="translate(1178.64 573.98) rotate(27.43)">P</text><text class="cls-5" transform="matrix(0.81, 0.58, -0.58, 0.81, 1204.5, 587.44)">E</text><text class="cls-5" transform="matrix(0.72, 0.69, -0.69, 0.72, 1225.84, 602.58)">R</text><text class="cls-5" transform="translate(1246.24 622.74) rotate(49.96)">I</text><text class="cls-5" transform="translate(1254.43 631.87) rotate(55.69)">E</text><text class="cls-5" transform="translate(1269.44 653.25) rotate(64.43)">N</text><text class="cls-5" transform="translate(1283.66 682.99) rotate(73.75)">C</text><text class="cls-5" transform="translate(1291.71 712.22) rotate(80.08)">I</text><text class="cls-5" transform="translate(1294.42 724.55) rotate(86.58)">A</text><text class="cls-5" transform="translate(1296.2 754.63) rotate(95.17)">S</text><text class="cls-6" transform="translate(962.06 742.21)"><tspan class="cls-7">E</tspan><tspan class="cls-8" x="53.22" y="0">T</tspan><tspan x="105.31" y="0">A</tspan><tspan class="cls-9" x="167.88" y="0">P</tspan><tspan class="cls-10" x="219.79" y="0">A</tspan><tspan x="114.5" y="111.6">3</tspan></text><line class="cls-2" x1="251.35" y1="934.07" x2="251.35" y2="555.45"/><line class="cls-2" x1="481.2" y1="1173.4" x2="1104.25" y2="1173.4"/></g></g></svg>