<svg xmlns="http://www.w3.org/2000/svg" viewBox="0 0 513.53 424.67"><defs><style>.cls-1{font-size:30px;font-family:MyriadPro-Regular, Myriad Pro;}.cls-2{letter-spacing:-0.05em;}.cls-3{fill:none;stroke:#000;stroke-miterlimit:10;stroke-width:5px;}.cls-4{fill:#ae00ff;}</style></defs><g id="Capa_2" data-name="Capa 2"><g id="Layer_1" data-name="Layer 1"><circle cx="42.8" cy="132.85" r="42.8"/><circle cx="42.8" cy="279.38" r="42.8"/><circle cx="379.99" cy="289.3" r="42.8"/><text class="cls-1" transform="translate(0 77.69)"><tspan class="cls-2">F</tspan><tspan x="13.26" y="0">ase 1</tspan></text><text class="cls-1" transform="translate(0 361.92)"><tspan class="cls-2">F</tspan><tspan x="13.26" y="0">ase 2</tspan></text><text class="cls-1" transform="translate(437.15 289.3)"><tspan class="cls-2">F</tspan><tspan x="13.26" y="0">ase 3</tspan></text><line class="cls-3" x1="42.8" y1="175.64" x2="42.8" y2="236.58"/><line class="cls-3" x1="85.59" y1="279.38" x2="165.89" y2="213.63"/><line class="cls-3" x1="85.59" y1="279.38" x2="167.66" y2="279.38"/><line class="cls-3" x1="252.64" y1="175.64" x2="334.7" y2="279.38"/><line class="cls-3" x1="252.64" y1="279.38" x2="334.7" y2="279.38"/><line class="cls-3" x1="252.64" y1="386.23" x2="334.7" y2="279.38"/><line class="cls-3" x1="85.59" y1="279.38" x2="167.66" y2="361.92"/><polygon class="cls-4" points="230.45 137.21 186.07 137.21 163.88 175.65 186.07 214.08 230.45 214.08 252.64 175.65 230.45 137.21"/><polygon class="cls-4" points="246.34 236.58 201.96 236.58 179.77 275.01 201.96 313.45 246.34 313.45 268.53 275.01 246.34 236.58"/><polygon class="cls-4" points="246.34 347.8 201.96 347.8 179.77 386.24 201.96 424.67 246.34 424.67 268.53 386.24 246.34 347.8"/><polygon points="32.31 0 32.31 28.74 15.28 14.37 38.57 52.15 70.63 18.09 42.34 26.08 42.95 0 32.31 0"/></g></g></svg>