<svg xmlns="http://www.w3.org/2000/svg" viewBox="0 0 502.71 488.89"><defs><style>.cls-1{fill:#2e3192;}.cls-2,.cls-6{fill:#fd9100;}.cls-3{fill:#dc0021;}.cls-4,.cls-5{fill:#fff;}.cls-5{font-size:29.4px;font-family:Roboto-Regular, Roboto;}.cls-6{font-size:99.42px;font-family:Roboto-Bold, Roboto;font-weight:700;}.cls-7{letter-spacing:-0.09em;}</style></defs><g id="Capa_2" data-name="Capa 2"><g id="Capa_1-2" data-name="Capa 1"><path class="cls-1" d="M251.83,251.89l-224,76c31,98,117,161,223,161,100,0,197-57,228-172Z"/><path class="cls-2" d="M251.83,251.89l241,71c3.39-16.45,9.88-54.08,9.88-71.54C502.71,112.53,390.17,0,251.35,0S0,112.53,0,251.35c0,31.36,6.83,65.54,20.83,104.54Z"/><path class="cls-3" d="M251.83,251.89l95,203c76-35,128-112,129-203,1.16-106-72-202-186-223Z"/><circle class="cls-4" cx="251.35" cy="251.35" r="174.92"/><text class="cls-5" transform="matrix(-0.36, -0.93, 0.93, -0.36, 72.85, 323.41)"> </text><text class="cls-5" transform="matrix(-0.29, -0.96, 0.96, -0.29, 70.17, 316.98)">C</text><text class="cls-5" transform="translate(64.73 299.11) rotate(-101.8)">o</text><text class="cls-5" transform="translate(61.38 283.09) rotate(-97)">n</text><text class="cls-5" transform="translate(59.54 267.3) rotate(-93.28)">t</text><text class="cls-5" transform="translate(58.91 258.03) rotate(-89.69)">e</text><text class="cls-5" transform="matrix(0.08, -1, 1, 0.08, 58.99, 242.82)">x</text><text class="cls-5" transform="translate(60.21 228.61) rotate(-81.85)">t</text><text class="cls-5" transform="matrix(0.21, -0.98, 0.98, 0.21, 61.41, 219.38)">u</text><text class="cls-5" transform="matrix(0.29, -0.96, 0.96, 0.29, 64.66, 203.92)">a</text><text class="cls-5" transform="matrix(0.34, -0.94, 0.94, 0.34, 69.27, 188.91)">l</text><text class="cls-5" transform="translate(71.64 182.4) rotate(-67.92)">i</text><text class="cls-5" transform="matrix(0.43, -0.9, 0.9, 0.43, 74.12, 175.98)">z</text><text class="cls-5" transform="translate(80.13 163.14) rotate(-60.31)">a</text><text class="cls-5" transform="matrix(0.56, -0.83, 0.83, 0.56, 87.85, 149.59)">c</text><text class="cls-5" transform="matrix(0.61, -0.79, 0.79, 0.61, 96.45, 137.15)">i</text><text class="cls-5" transform="translate(100.5 131.63) rotate(-49.05)">ó</text><text class="cls-5" transform="translate(111.22 119.26) rotate(-44.29)">n</text><text class="cls-5" transform="matrix(0.76, -0.65, 0.65, 0.76, 122.69, 108.24)"> </text><text class="cls-5" transform="translate(128.07 103.58) rotate(-38.79)"> </text><text class="cls-5" transform="translate(133.32 99.06) rotate(-34.82)">O</text><text class="cls-5" transform="matrix(0.87, -0.49, 0.49, 0.87, 149.58, 87.83)">b</text><text class="cls-5" transform="translate(163.6 79.9) rotate(-24.88)">s</text><text class="cls-5" transform="translate(176.99 73.67) rotate(-20.4)">e</text><text class="cls-5" transform="matrix(0.96, -0.29, 0.29, 0.96, 191.32, 68.43)">r</text><text class="cls-5" transform="matrix(0.97, -0.23, 0.23, 0.97, 200.77, 65.53)">v</text><text class="cls-5" transform="translate(214.07 62.39) rotate(-8.71)">a</text><text class="cls-5" transform="translate(229.5 60.02) rotate(-4.17)">c</text><text class="cls-5" transform="translate(244.53 59.08) rotate(-1.66)">i</text><text class="cls-5" transform="matrix(1, 0.04, -0.04, 1, 251.4, 58.77)">ó</text><text class="cls-5" transform="translate(267.76 59.46) rotate(7.23)">n</text><text class="cls-5" transform="translate(283.53 61.59) rotate(10.65)"> </text><text class="cls-5" transform="translate(290.51 62.9) rotate(12.77)"> </text><text class="cls-5" transform="matrix(0.96, 0.29, -0.29, 0.96, 297.33, 64.22)">C</text><text class="cls-5" transform="matrix(0.93, 0.37, -0.37, 0.93, 315.23, 69.61)">o</text><text class="cls-5" transform="matrix(0.88, 0.47, -0.47, 0.88, 330.41, 75.41)">m</text><text class="cls-5" transform="matrix(0.83, 0.56, -0.56, 0.83, 352.57, 87.48)">p</text><text class="cls-5" transform="translate(365.89 96.66) rotate(38.03)">r</text><text class="cls-5" transform="matrix(0.75, 0.66, -0.66, 0.75, 373.33, 102.34)">e</text><text class="cls-5" transform="matrix(0.69, 0.72, -0.72, 0.69, 384.7, 112.42)">n</text><text class="cls-5" transform="translate(395.66 123.86) rotate(50.76)">s</text><text class="cls-5" transform="translate(404.99 135.45) rotate(53.98)">i</text><text class="cls-5" transform="matrix(0.54, 0.84, -0.84, 0.54, 409.12, 140.87)">ó</text><text class="cls-5" transform="matrix(0.47, 0.88, -0.88, 0.47, 417.94, 154.67)">n</text><text class="cls-5" transform="matrix(0.41, 0.91, -0.91, 0.41, 425.25, 168.83)"> </text><text class="cls-5" transform="matrix(0.38, 0.93, -0.93, 0.38, 428.17, 175.27)"> </text><text class="cls-5" transform="translate(430.97 181.67) rotate(71.4)">S</text><text class="cls-5" transform="translate(436.38 197.81) rotate(76.23)">e</text><text class="cls-5" transform="translate(439.9 212.68) rotate(79.54)">l</text><text class="cls-5" transform="translate(441.28 219.41) rotate(82.84)">e</text><text class="cls-5" transform="translate(443.18 234.48) rotate(87.3)">c</text><text class="cls-5" transform="matrix(-0.03, 1, -1, -0.03, 443.9, 249.47)">c</text><text class="cls-5" transform="matrix(-0.09, 1, -1, -0.09, 443.35, 264.58)">i</text><text class="cls-5" transform="matrix(-0.15, 0.99, -0.99, -0.15, 442.91, 271.4)">ó</text><text class="cls-5" transform="matrix(-0.23, 0.97, -0.97, -0.23, 440.53, 287.58)">n</text><text class="cls-5" transform="translate(436.77 303.06) rotate(106.65)"> </text><text class="cls-5" transform="translate(434.74 309.85) rotate(108.78)"> </text><text class="cls-5" transform="matrix(-0.38, 0.92, -0.92, -0.38, 432.69, 316.51)">P</text><text class="cls-5" transform="translate(425.59 333.23) rotate(116.7)">r</text><text class="cls-5" transform="translate(421.51 341.65) rotate(120.5)">o</text><text class="cls-5" transform="translate(413.07 355.75) rotate(124.33)">t</text><text class="cls-5" transform="translate(408.11 363.27) rotate(128.06)">o</text><text class="cls-5" transform="translate(397.89 376.14) rotate(131.86)">t</text><text class="cls-5" transform="translate(391.61 383.11) rotate(134.27)">i</text><text class="cls-5" transform="translate(386.95 388.11) rotate(137.68)">p</text><text class="cls-5" transform="matrix(-0.79, 0.61, -0.61, -0.79, 375.04, 398.96)">a</text><text class="cls-5" transform="translate(362.7 408.51) rotate(147.09)">d</text><text class="cls-5" transform="translate(349.16 417.3) rotate(151.93)">o</text><text class="cls-5" transform="translate(334.57 424.92) rotate(155.44)"> </text><text class="cls-5" transform="translate(328.11 427.88) rotate(157.57)"> </text><text class="cls-5" transform="translate(321.76 430.72) rotate(161.36)">V</text><text class="cls-5" transform="matrix(-0.97, 0.24, -0.24, -0.97, 305.06, 436.34)">a</text><text class="cls-5" transform="translate(289.77 439.96) rotate(169.62)">l</text><text class="cls-5" transform="translate(282.94 441.21) rotate(171.69)">i</text><text class="cls-5" transform="matrix(-1, 0.09, -0.09, -1, 276.18, 442.35)">d</text><text class="cls-5" transform="translate(260.1 443.79) rotate(-179.8)">a</text><text class="cls-5" transform="translate(244.45 443.79) rotate(-175.72)">c</text><text class="cls-5" transform="translate(229.39 442.56) rotate(-172.46)">i</text><text class="cls-5" transform="translate(222.59 441.81) rotate(-168.98)">ó</text><text class="cls-5" transform="translate(206.55 438.7) rotate(-164.16)">n</text><text class="cls-5" transform="translate(191.26 434.23) rotate(-160.72)"> </text><text class="cls-5" transform="translate(184.55 431.88) rotate(-158.59)"> </text><text class="cls-5" transform="translate(178.01 429.54) rotate(-154.74)">C</text><text class="cls-5" transform="translate(161.12 421.54) rotate(-149.52)">o</text><text class="cls-5" transform="matrix(-0.82, -0.58, 0.58, -0.82, 147.02, 413.25)">n</text><text class="cls-5" transform="translate(134.09 404.1) rotate(-140.17)">c</text><text class="cls-5" transform="matrix(-0.73, -0.68, 0.68, -0.73, 122.57, 394.35)">l</text><text class="cls-5" transform="translate(117.48 389.79) rotate(-133.56)">u</text><text class="cls-5" transform="translate(106.57 378.31) rotate(-129.03)">s</text><text class="cls-5" transform="matrix(-0.58, -0.81, 0.81, -0.58, 97.28, 366.68)">i</text><text class="cls-5" transform="matrix(-0.53, -0.84, 0.84, -0.53, 93.16, 361.22)">ó</text><text class="cls-5" transform="translate(84.4 347.4) rotate(-117.54)">n</text><text class="cls-6" transform="translate(137.44 292.1)"><tspan class="cls-7">F</tspan><tspan x="45.15" y="0">ASE</tspan></text><circle class="cls-4" cx="66.57" cy="327.96" r="4.62"/><circle class="cls-4" cx="182.08" cy="439.09" r="4.62"/><circle class="cls-4" cx="329.91" cy="436.89" r="4.62"/><circle class="cls-4" cx="443.4" cy="312.71" r="4.62"/><circle class="cls-4" cx="437.4" cy="173.07" r="4.62"/></g></g></svg>