<svg xmlns="http://www.w3.org/2000/svg" xmlns:xlink="http://www.w3.org/1999/xlink" viewBox="0 0 304.3 575.64"><defs><style>.cls-1,.cls-12{fill:none;}.cls-2{fill:#263238;}.cls-3{fill:#ffb573;}.cls-4{fill:#407bff;}.cls-5,.cls-8{opacity:0.2;}.cls-10,.cls-13,.cls-14,.cls-5{isolation:isolate;}.cls-6{fill:#ed893e;}.cls-7{clip-path:url(#clip-path);}.cls-14,.cls-9{fill:#fff;}.cls-10{opacity:0.3;}.cls-11{fill:#fd9100;}.cls-12{stroke:#707070;}.cls-14{font-size:77px;font-family:QuicksandBold-Regular, Quicksand;}</style><clipPath id="clip-path"><path class="cls-1" d="M171.75,146.8a101.4,101.4,0,0,1,4.34-13.49,55.07,55.07,0,0,1,8.55-1.81A62.2,62.2,0,0,1,198.9,150c7.82-7.9,22.76-15.89,31.86-18.8a24.53,24.53,0,0,1,9.2,1.14c-6.2,19.59-12.54,39.3-1.31,44.36-.19,9.3.34,20.84.8,32.52-10.62-1.16-52.72-3.19-69.8.56-.88-11.83-1.2-21.92-1.14-30.5C160.46,169.15,168.44,155.35,171.75,146.8Z"/></clipPath></defs><g id="Capa_2" data-name="Capa 2"><g id="Capa_1-2" data-name="Capa 1"><g id="Grupo_1414" data-name="Grupo 1414"><path id="Trazado_1994" data-name="Trazado 1994" class="cls-2" d="M183.75,64.12c-10.88,6-14.64,23.74-9.43,31.37-18.95,5.69-9.12,38.18,21.87,40s54.52-9.5,39.32-33.65c15-20.26,8.11-42.88-5.07-40.39C216.26,33.17,168.88,34,183.75,64.12Z"/><path id="Trazado_1995" data-name="Trazado 1995" class="cls-2" d="M216.64,137.73a26.25,26.25,0,0,1-13.54-3.79.45.45,0,1,1,.46-.78,25.74,25.74,0,0,0,33-5.72c5-6.16,7.2-16-1.41-25.25a.45.45,0,0,1,0-.65.46.46,0,0,1,.64,0h0c9,9.65,6.66,20,1.46,26.45A27,27,0,0,1,216.64,137.73Z"/><path id="Trazado_1996" data-name="Trazado 1996" class="cls-2" d="M170.89,101.53a.45.45,0,0,1-.43-.3c-4.85-13.88,1.64-32.5,13.09-37.59a.45.45,0,1,1,.37.83c-11.07,4.92-17.31,23-12.6,36.46a.46.46,0,0,1-.28.58h0Z"/><path id="Trazado_1997" data-name="Trazado 1997" class="cls-2" d="M167.91,81.49a.46.46,0,0,1-.42-.62c3.27-8.67,9.45-15.28,16.11-17.25a.45.45,0,1,1,.26.87h0c-6.4,1.89-12.34,8.29-15.52,16.7A.46.46,0,0,1,167.91,81.49Z"/><path id="Trazado_1998" data-name="Trazado 1998" class="cls-3" d="M193.4,565.82l-10.51,0-1.77-39.52,17.7.43Z"/><path id="Trazado_1999" data-name="Trazado 1999" class="cls-4" d="M175.11,224.71s-.92,109.71-3.25,157.47a35.62,35.62,0,0,0,0,4.26c3.46,47.86,9.2,139.86,9.2,139.86l17.82.46s15.54-73.46,5.92-140c15.45-75.27,23.78-142.43,9.78-162Z"/><path id="Trazado_2000" data-name="Trazado 2000" class="cls-5" d="M205,268.28c-5.41,18.32-.15,77.2,2.67,104.37,3.85-19.63,7.12-38.51,9.54-55.91Z"/><path id="Trazado_2001" data-name="Trazado 2001" class="cls-2" d="M181.71,560.71h13.66a1.12,1.12,0,0,1,1.17,1l1.38,11.2a2.58,2.58,0,0,1-2.51,2.66h-.09c-6-.09-8.9-.43-16.5-.42-4.67,0-7.5.48-14,.49-6.3,0-6.46-6.19-3.75-6.76,12.18-2.53,13.75-3.93,18-7.25A4.3,4.3,0,0,1,181.71,560.71Z"/><path id="Trazado_2002" data-name="Trazado 2002" class="cls-3" d="M186.2,144c-.68,3.75-1.45,7.34-2.26,11s-1.65,7.25-2.62,10.86c-1.91,7.22-3.91,14.43-6.53,21.63a99.82,99.82,0,0,1-4.57,10.89,43.07,43.07,0,0,1-3.35,5.67c-.36.52-.74,1-1.15,1.51a13.51,13.51,0,0,1-1.52,1.6,12.39,12.39,0,0,1-4.92,2.86,11.92,11.92,0,0,1-5.93.24,14.07,14.07,0,0,1-4.37-1.8,22.07,22.07,0,0,1-5.36-4.84,39.36,39.36,0,0,1-6.09-10.67,3.82,3.82,0,0,1,6.27-4.08l.23.23a64.33,64.33,0,0,0,7.36,6.64,12.31,12.31,0,0,0,3.33,1.83c.43.1.74.11.78,0s-.26-.19-.52-.18-.41.11-.34-.07a3.52,3.52,0,0,1,.3-.45,6.58,6.58,0,0,0,.47-.7,28.28,28.28,0,0,0,2-3.92,94.64,94.64,0,0,0,3.5-9.54c2.09-6.67,4-13.6,5.61-20.58s3.26-14.09,4.72-21v0a7.62,7.62,0,0,1,15,2.92Z"/><path id="Trazado_2003" data-name="Trazado 2003" class="cls-2" d="M169.65,209.82c0,4.48,69.8,5.36,69.8-.56l-35.66-9.1-34.14,9.66"/><path id="Trazado_2004" data-name="Trazado 2004" class="cls-3" d="M182.46,132.23a159.47,159.47,0,0,1,55.55.55,8,8,0,0,1,6.63,9.12c0,.17-.06.33-.09.49-9.87,44.2-9.31,59.05-8.35,82.32H175.12c-3.06-38.82-4.67-61-5.08-73.56C169.72,141.56,173,133.63,182.46,132.23Z"/><path id="Trazado_2005" data-name="Trazado 2005" class="cls-5" d="M237.84,145.07c-.64,4,.51,13.18,2.4,18.21.78-4.21,1.69-8.72,2.73-13.66Z"/><path id="Trazado_2006" data-name="Trazado 2006" class="cls-3" d="M218,100c-1.73,8.85-3.46,25.06,2.73,31,0,0-2.42,9-18.86,9-18.07,0-8.63-9-8.63-9,9.86-2.35,9.61-9.67,7.89-16.55Z"/><path id="Trazado_2007" data-name="Trazado 2007" class="cls-5" d="M211.08,105.84l-10,8.53a27.85,27.85,0,0,1,.85,4.88c3.77-.55,8.95-4.68,9.35-8.63A13.26,13.26,0,0,0,211.08,105.84Z"/><path id="Trazado_2008" data-name="Trazado 2008" class="cls-3" d="M227.51,84.64c-3.38,14.4-4.5,20.57-13.12,26.79-13,9.36-29.93,2.07-30.93-13.06-.9-13.61,4.77-34.88,20-38.25a20.2,20.2,0,0,1,24,24.52Z"/><path id="Trazado_2009" data-name="Trazado 2009" class="cls-2" d="M222,63c-15.24,1.69-10.61,30.14.86,32.89C236.31,89.29,244.59,64.31,222,63Z"/><path id="Trazado_2010" data-name="Trazado 2010" class="cls-3" d="M296.7,539.77,286.15,543l-15.37-32.23L287,506.32Z"/><path id="Trazado_2011" data-name="Trazado 2011" class="cls-2" d="M283.12,539.76l13.55-5.24A1.08,1.08,0,0,1,298,535l6,10.24a2,2,0,0,1-.76,2.78l-.27.13c-4.76,1.74-7,2.75-13,5-3.66,1.42-9.35,6.15-14.42,8.11s-7.22-2.67-5.51-4.27c6.9-6.47,9.92-12,11.35-15.73A2.85,2.85,0,0,1,283.12,539.76Z"/><path id="Trazado_2012" data-name="Trazado 2012" class="cls-4" d="M191.87,224.71S214.33,339.54,222.79,385c8.8,47.28,48,125.75,48,125.75L287,506.31s-22.27-83.87-32.66-125.43c-2-75.27.38-136.57-18.17-156.17Z"/><path id="Trazado_2013" data-name="Trazado 2013" class="cls-2" d="M203.63,84.55c-.2,1.18-1,2-1.77,1.91s-1.24-1.2-1-2.39,1-2,1.77-1.91S203.83,83.36,203.63,84.55Z"/><path id="Trazado_2014" data-name="Trazado 2014" class="cls-2" d="M190.23,82.27c-.2,1.18-1,2-1.77,1.91s-1.24-1.2-1-2.39,1-2,1.76-1.91S190.43,81.08,190.23,82.27Z"/><path id="Trazado_2015" data-name="Trazado 2015" class="cls-2" d="M189.52,80l-2.7-1.31S187.9,81.17,189.52,80Z"/><path id="Trazado_2016" data-name="Trazado 2016" class="cls-6" d="M194,85.11s-2.88,4.76-5.51,6.85c1.31,1.72,4.08,1.51,4.08,1.51Z"/><path id="Trazado_2017" data-name="Trazado 2017" class="cls-2" d="M198.25,99.21a11.66,11.66,0,0,1-1.77-.17.35.35,0,0,1-.29-.41h0a.36.36,0,0,1,.41-.28A9.49,9.49,0,0,0,204.88,96a.35.35,0,0,1,.52.48A9.89,9.89,0,0,1,198.25,99.21Z"/><path id="Trazado_2018" data-name="Trazado 2018" class="cls-3" d="M229.58,97.05a10.8,10.8,0,0,1-6.57,5c-3.67.94-5.43-2.36-4.34-5.79,1-3.08,4.07-7.28,7.72-6.71S231.32,94,229.58,97.05Z"/><path id="Trazado_2019" data-name="Trazado 2019" class="cls-2" d="M209.47,82.74a.72.72,0,0,1-.66-.5c-1-3.12-5-4.46-5-4.47a.71.71,0,0,1-.42-.9.7.7,0,0,1,.86-.44c.19.06,4.73,1.58,5.9,5.39a.7.7,0,0,1-.45.88.62.62,0,0,1-.23,0Z"/><path id="Trazado_2020" data-name="Trazado 2020" class="cls-2" d="M187.26,75.39a.7.7,0,0,1-.34-1.31,7,7,0,0,1,6.43-.43.71.71,0,0,1,.27,1,.7.7,0,0,1-.91.29h0a5.62,5.62,0,0,0-5.09.4A.57.57,0,0,1,187.26,75.39Z"/><path id="Trazado_2021" data-name="Trazado 2021" class="cls-3" d="M243,135.31a252.8,252.8,0,0,1,14.37,20.9c2.24,3.61,4.42,7.29,6.41,11.16A74,74,0,0,1,269.18,180c.19.58.35,1.25.51,1.88l.13.53.14.77c.08.49.13,1,.16,1.44a19.16,19.16,0,0,1-.35,4.72,36,36,0,0,1-2.31,7.16,85.65,85.65,0,0,1-6.33,11.69,159,159,0,0,1-15.5,20.21,3.79,3.79,0,0,1-6.11-4.41l0-.09c4-7,8-14.22,11.44-21.36a90.27,90.27,0,0,0,4.4-10.62,24.87,24.87,0,0,0,1.09-4.74,5.42,5.42,0,0,0,0-1.45.42.42,0,0,0,0-.1h0l-.08-.22c-.12-.36-.21-.69-.38-1.08a72.65,72.65,0,0,0-5-9.88c-2-3.36-4.12-6.74-6.32-10.1-4.43-6.66-9.17-13.37-13.83-19.84l-.06-.09A7.62,7.62,0,0,1,243,135.31Z"/><path id="Trazado_2022" data-name="Trazado 2022" class="cls-2" d="M202.92,82.29,200.22,81S201.3,83.45,202.92,82.29Z"/><path id="Trazado_2023" data-name="Trazado 2023" class="cls-2" d="M171.75,146.8a101.4,101.4,0,0,1,4.34-13.49,55.32,55.32,0,0,1,8.55-1.81A62.2,62.2,0,0,1,198.9,150c7.82-7.9,22.76-15.89,31.86-18.8a24.53,24.53,0,0,1,9.2,1.14c-6.2,19.59-12.54,39.3-1.31,44.36-.19,9.3.34,20.84.8,32.52-10.62-1.16-52.72-3.19-69.8.56-.88-11.83-1.2-21.92-1.14-30.5C160.46,169.15,168.44,155.35,171.75,146.8Z"/><g id="Grupo_1412" data-name="Grupo 1412"><g class="cls-7"><g id="Grupo_1411" data-name="Grupo 1411"><g id="Grupo_1410" data-name="Grupo 1410" class="cls-8"><path id="Trazado_2024" data-name="Trazado 2024" class="cls-9" d="M188.49,183.24a.53.53,0,0,0-.43.32,16.16,16.16,0,0,0,.1,11.18q-1.89-1.58-3.68-3.15A13.08,13.08,0,0,0,182.92,178a.55.55,0,0,0-.77-.11.68.68,0,0,0-.17.21,16.25,16.25,0,0,0,.24,11.49c-1.64-1.5-3.2-3-4.64-4.43h0a13,13,0,0,0-1.48-13.78.57.57,0,0,0-.5-.21.54.54,0,0,0-.44.32,16.25,16.25,0,0,0,.24,11.49c-2.5-2.6-4.57-5-6.11-6.94-1.17-5.16-6-8.88-8.87-9.48a.54.54,0,0,0-.65.64c1.63,8.06,7.57,9.45,8.77,9.66.85,1.07,1.85,2.26,3,3.54a15.37,15.37,0,0,0-9.12-1.09.56.56,0,0,0-.39.67.65.65,0,0,0,.13.23A12.58,12.58,0,0,0,175,184.08q1.55,1.59,3.26,3.26a17.5,17.5,0,0,0-11.66.69.55.55,0,0,0-.23.74.7.7,0,0,0,.2.22,14.06,14.06,0,0,0,14,.5c1.53,1.42,3.14,2.87,4.82,4.31a16.63,16.63,0,0,0-11.86-.69.54.54,0,0,0-.33.43.52.52,0,0,0,.2.5,13.37,13.37,0,0,0,13.86,1.85l.13-.1a.45.45,0,0,0,.12-.21c.68.56,1.36,1.12,2.06,1.67l0,0a.43.43,0,0,0,.24.18q1.64,1.31,3.33,2.58a.55.55,0,0,0,.71,0l0-.06a.53.53,0,0,0-.11-.76c-1-.79-2.07-1.58-3.1-2.39a13,13,0,0,0-1.7-13.33A.52.52,0,0,0,188.49,183.24Z"/><path id="Trazado_2025" data-name="Trazado 2025" class="cls-9" d="M170.54,155a.57.57,0,0,0,.43-.32,16.16,16.16,0,0,0-.1-11.18c1.26,1.05,2.49,2.09,3.68,3.15a13.06,13.06,0,0,0,1.56,13.61.55.55,0,0,0,.77.12.62.62,0,0,0,.17-.22,16.22,16.22,0,0,0-.24-11.48c1.64,1.5,3.19,3,4.64,4.42v0a13,13,0,0,0,1.48,13.78.54.54,0,0,0,.76.11.68.68,0,0,0,.17-.21,16.14,16.14,0,0,0-.24-11.49c2.5,2.59,4.58,5,6.12,6.93,1.16,5.16,6,8.88,8.87,9.49a.55.55,0,0,0,.65-.65c-1.63-8.06-7.58-9.46-8.77-9.66-.85-1.07-1.85-2.26-3-3.54a15.44,15.44,0,0,0,9.12,1.09.54.54,0,0,0,.38-.67.46.46,0,0,0-.12-.23A12.62,12.62,0,0,0,184,154.19c-1-1.06-2.11-2.15-3.25-3.26a17.45,17.45,0,0,0,11.64-.7.54.54,0,0,0,.24-.73.56.56,0,0,0-.21-.22,14,14,0,0,0-13.95-.5c-1.53-1.42-3.14-2.87-4.82-4.31a16.55,16.55,0,0,0,11.85.68.55.55,0,0,0,.31-.71.63.63,0,0,0-.18-.22,13.34,13.34,0,0,0-13.85-1.84.41.41,0,0,0-.13.1.37.37,0,0,0-.12.2L169.49,141l0,0a.61.61,0,0,0-.24-.18q-1.64-1.31-3.33-2.58a.55.55,0,0,0-.71.05l-.06.06a.55.55,0,0,0,.11.77c1,.78,2.08,1.58,3.1,2.39a13.07,13.07,0,0,0,1.7,13.32A.55.55,0,0,0,170.54,155Z"/><path id="Trazado_2026" data-name="Trazado 2026" class="cls-9" d="M226.68,196.52a.59.59,0,0,0-.44.32,16.22,16.22,0,0,0,.1,11.18c-1.26-1-2.49-2.1-3.68-3.15a13,13,0,0,0-1.56-13.61.55.55,0,0,0-.94.1,16.16,16.16,0,0,0,.24,11.48c-1.64-1.5-3.2-3-4.64-4.42h0a13,13,0,0,0-1.48-13.78.54.54,0,0,0-.76-.11.48.48,0,0,0-.17.21,16.14,16.14,0,0,0,.24,11.49,91.3,91.3,0,0,1-6.12-6.93c-1.17-5.17-5.95-8.88-8.87-9.49a.55.55,0,0,0-.5.15.53.53,0,0,0-.15.49c1.63,8.06,7.58,9.46,8.77,9.66.85,1.07,1.85,2.27,3,3.55a15.29,15.29,0,0,0-9.12-1.09.54.54,0,0,0-.39.66.7.7,0,0,0,.13.24,12.64,12.64,0,0,0,12.85,3.91c1,1.06,2.11,2.14,3.25,3.26a17.45,17.45,0,0,0-11.66.69.55.55,0,0,0-.23.73.56.56,0,0,0,.21.22,14,14,0,0,0,14,.5q2.29,2.14,4.82,4.31a16.6,16.6,0,0,0-11.85-.68.54.54,0,0,0-.3.71.5.5,0,0,0,.16.22,13.37,13.37,0,0,0,13.86,1.85l.13-.1a.45.45,0,0,0,.12-.21l2.06,1.67,0,0a.47.47,0,0,0,.24.18c1.1.87,2.2,1.73,3.33,2.58a.54.54,0,0,0,.76-.11.53.53,0,0,0-.1-.76c-1.05-.79-2.08-1.58-3.1-2.39a13.09,13.09,0,0,0-1.7-13.33A.58.58,0,0,0,226.68,196.52Z"/><path id="Trazado_2027" data-name="Trazado 2027" class="cls-9" d="M261.68,209.17a.53.53,0,0,0-.43.32,16.13,16.13,0,0,0,.1,11.17q-1.89-1.56-3.68-3.14a13.08,13.08,0,0,0-1.56-13.62.55.55,0,0,0-.77-.11.68.68,0,0,0-.17.21,16.22,16.22,0,0,0,.24,11.48c-1.64-1.5-3.19-3-4.64-4.42h0a13,13,0,0,0-1.48-13.78.54.54,0,0,0-.76-.11.58.58,0,0,0-.17.21,16.19,16.19,0,0,0,.24,11.49,90.73,90.73,0,0,1-6.11-6.94c-1.17-5.16-6-8.88-8.88-9.48a.54.54,0,0,0-.65.42.81.81,0,0,0,0,.22c1.63,8.06,7.58,9.46,8.78,9.66.84,1.07,1.84,2.26,3,3.54a15.4,15.4,0,0,0-9.11-1.09.55.55,0,0,0-.39.67.48.48,0,0,0,.13.23A12.6,12.6,0,0,0,248.2,210c1,1.05,2.11,2.14,3.26,3.25a17.5,17.5,0,0,0-11.66.69.55.55,0,0,0-.23.74.53.53,0,0,0,.2.22,14,14,0,0,0,13.95.5c1.53,1.42,3.15,2.87,4.83,4.31a16.64,16.64,0,0,0-11.86-.69.55.55,0,0,0-.3.71.55.55,0,0,0,.17.23,13.37,13.37,0,0,0,13.85,1.84.45.45,0,0,0,.14-.1.82.82,0,0,0,.12-.2c.68.56,1.36,1.12,2.06,1.67v0a.64.64,0,0,0,.25.18c1.09.87,2.2,1.73,3.32,2.57a.54.54,0,0,0,.72-.05s0,0,.05,0a.55.55,0,0,0-.11-.77c-1-.78-2.08-1.58-3.1-2.39a13.07,13.07,0,0,0-1.7-13.33A.57.57,0,0,0,261.68,209.17Z"/><path id="Trazado_2028" data-name="Trazado 2028" class="cls-9" d="M181.62,211.16a.53.53,0,0,0-.43.32,16.19,16.19,0,0,0,.1,11.17q-1.89-1.56-3.68-3.14a13.06,13.06,0,0,0-1.56-13.62.55.55,0,0,0-.76-.12.46.46,0,0,0-.17.22,16.16,16.16,0,0,0,.23,11.48c-1.64-1.5-3.19-3-4.64-4.42h0a13,13,0,0,0-1.48-13.78.54.54,0,0,0-.93.1,16.14,16.14,0,0,0,.24,11.49q-3.23-3.32-6.12-6.93c-1.16-5.17-6-8.89-8.87-9.49a.55.55,0,0,0-.5.15.54.54,0,0,0-.15.5c1.63,8.06,7.58,9.45,8.77,9.65.85,1.08,1.85,2.27,3,3.55a15.29,15.29,0,0,0-9.12-1.09.56.56,0,0,0-.38.37.54.54,0,0,0,.12.52A12.62,12.62,0,0,0,168.14,212q1.53,1.59,3.26,3.25a17.5,17.5,0,0,0-11.66.7.54.54,0,0,0-.24.73.56.56,0,0,0,.21.22,14,14,0,0,0,13.95.5q2.29,2.15,4.82,4.31a16.55,16.55,0,0,0-11.85-.68.54.54,0,0,0-.3.71.5.5,0,0,0,.16.22,13.37,13.37,0,0,0,13.86,1.85l.13-.1a.45.45,0,0,0,.12-.21l2.06,1.68,0,0a.61.61,0,0,0,.24.18c1.1.87,2.21,1.72,3.33,2.57a.55.55,0,0,0,.71-.05l.06-.06a.54.54,0,0,0-.11-.76c-1-.79-2.08-1.58-3.1-2.39a13.09,13.09,0,0,0-1.7-13.33A.55.55,0,0,0,181.62,211.16Z"/><path id="Trazado_2029" data-name="Trazado 2029" class="cls-9" d="M225.51,134.53a.59.59,0,0,0-.44.32,16.28,16.28,0,0,0,.1,11.18c-1.25-1-2.48-2.1-3.67-3.15a13.06,13.06,0,0,0-1.56-13.61.55.55,0,0,0-.77-.11.51.51,0,0,0-.17.21,16.16,16.16,0,0,0,.24,11.48c-1.64-1.5-3.19-3-4.64-4.42h0a13.05,13.05,0,0,0-1.48-13.78.54.54,0,0,0-.76-.11.43.43,0,0,0-.17.21,16.19,16.19,0,0,0,.23,11.49q-3.23-3.31-6.11-6.93c-1.16-5.17-5.95-8.88-8.87-9.49a.55.55,0,0,0-.5.15.53.53,0,0,0-.15.49c1.63,8.06,7.57,9.46,8.77,9.66.85,1.07,1.85,2.26,3,3.55a15.37,15.37,0,0,0-9.12-1.1.56.56,0,0,0-.39.67.48.48,0,0,0,.13.23A12.6,12.6,0,0,0,212,135.38c1,1.05,2.12,2.14,3.26,3.25a17.51,17.51,0,0,0-11.66.7.55.55,0,0,0-.23.73.61.61,0,0,0,.2.22,14.06,14.06,0,0,0,14,.5q2.3,2.15,4.82,4.31a16.63,16.63,0,0,0-11.86-.68.55.55,0,0,0-.3.71.62.62,0,0,0,.17.22,13.39,13.39,0,0,0,13.86,1.85l.13-.1a.55.55,0,0,0,.12-.21c.68.56,1.36,1.12,2.06,1.67l0,0a.48.48,0,0,0,.24.18q1.63,1.31,3.33,2.58a.55.55,0,0,0,.71-.05l.05-.06a.56.56,0,0,0-.11-.77c-1-.78-2.08-1.58-3.1-2.38a13,13,0,0,0-1.7-13.33A.55.55,0,0,0,225.51,134.53Z"/><path id="Trazado_2030" data-name="Trazado 2030" class="cls-9" d="M208.21,169a.54.54,0,0,0,.44-.31,16.22,16.22,0,0,0-.1-11.18c1.26,1,2.49,2.09,3.68,3.15a13.06,13.06,0,0,0,1.56,13.61.55.55,0,0,0,.5.22.57.57,0,0,0,.44-.32,16.19,16.19,0,0,0-.24-11.49c1.64,1.5,3.2,3,4.64,4.43h0a13,13,0,0,0,1.47,13.78.55.55,0,0,0,.77.11.68.68,0,0,0,.17-.21,16.25,16.25,0,0,0-.24-11.49,90.81,90.81,0,0,1,6.11,6.93c1.17,5.17,6,8.88,8.88,9.49a.54.54,0,0,0,.64-.42.41.41,0,0,0,0-.22c-1.63-8.06-7.58-9.46-8.77-9.66-.85-1.08-1.85-2.27-3-3.55a15.29,15.29,0,0,0,9.12,1.09.55.55,0,0,0,.39-.67.76.76,0,0,0-.13-.23,12.64,12.64,0,0,0-12.85-3.91c-1-1.06-2.11-2.15-3.25-3.26a17.45,17.45,0,0,0,11.66-.69.55.55,0,0,0,.23-.73.56.56,0,0,0-.21-.22,14,14,0,0,0-13.95-.5q-2.3-2.15-4.82-4.31a16.58,16.58,0,0,0,11.86.68.53.53,0,0,0,.33-.43.52.52,0,0,0-.21-.5,13.36,13.36,0,0,0-13.85-1.84.41.41,0,0,0-.13.1.47.47,0,0,0-.12.2L207.18,155l0,0a.55.55,0,0,0-.24-.18c-1.09-.87-2.2-1.73-3.33-2.57a.54.54,0,1,0-.69.84l0,0c1,.78,2.08,1.58,3.1,2.39a13.09,13.09,0,0,0,1.7,13.33A.56.56,0,0,0,208.21,169Z"/></g></g></g></g><g id="Grupo_1413" data-name="Grupo 1413"><path id="Trazado_2032" data-name="Trazado 2032" class="cls-4" d="M216.21,184.72,94.23,197a12.37,12.37,0,0,0-11,13.52l4.2,41.71a22.25,22.25,0,1,1,3.88,38.56l4.2,41.71a12.38,12.38,0,0,0,13.52,11l122-12.29a12.39,12.39,0,0,0,11-13.52l-12.3-122A12.37,12.37,0,0,0,216.21,184.72Z"/><path id="Trazado_2033" data-name="Trazado 2033" class="cls-10" d="M216.21,184.72,94.23,197a12.37,12.37,0,0,0-11,13.52l4.2,41.71a22.25,22.25,0,1,1,3.88,38.56l4.2,41.71a12.38,12.38,0,0,0,13.52,11l122-12.29a12.39,12.39,0,0,0,11-13.52l-12.3-122A12.37,12.37,0,0,0,216.21,184.72Z"/></g><path id="Trazado_2034" data-name="Trazado 2034" class="cls-3" d="M249.52,222.12l-5.64-2.46-13.25,3.4a7,7,0,0,0-3.83,2.53l-2.8,3.64a4.33,4.33,0,0,0,.24,5.56l3.17,3.48a4.34,4.34,0,0,0,6,.37l7.2-6.17S249.25,228.31,249.52,222.12Z"/><path id="Trazado_2035" data-name="Trazado 2035" class="cls-3" d="M134.57,199.39l5.87-.75a3.68,3.68,0,0,0,3.18-3l.8-4.66a3.69,3.69,0,0,0-3-4.27,3.89,3.89,0,0,0-.9,0l-6.84.5a3.7,3.7,0,0,0-3.44,3.82l.17,4.9a3.71,3.71,0,0,0,3.83,3.58Z"/></g><g id="Grupo_967" data-name="Grupo 967"><g id="Elipse_232" data-name="Elipse 232"><circle class="cls-11" cx="56" cy="56" r="56"/><circle class="cls-12" cx="56" cy="56" r="55.5"/></g><g id="_3-2" data-name=" 3-2" class="cls-13"><text class="cls-14" transform="translate(32 82)">3</text></g></g></g></g></svg>