<svg xmlns="http://www.w3.org/2000/svg" viewBox="0 0 371.41 589.91"><defs><style>.cls-1{fill:#fd9100;}.cls-2{fill:none;stroke:#707070;}.cls-3,.cls-4{isolation:isolate;}.cls-4{font-size:77px;font-family:QuicksandBold-Regular, Quicksand;}.cls-4,.cls-6{fill:#fff;}.cls-5{fill:#455a64;}.cls-7{fill:#263238;}.cls-8{fill:#ebebeb;}.cls-9{fill:#e8505b;}.cls-10{fill:#e0e0e0;}.cls-11{fill:#b78876;}.cls-12{fill:#aa6550;}.cls-13{opacity:0.6;}.cls-14{opacity:0.2;}.cls-15{fill:#fafafa;}</style></defs><g id="Capa_2" data-name="Capa 2"><g id="Capa_1-2" data-name="Capa 1"><g id="Grupo_967" data-name="Grupo 967"><g id="Elipse_232" data-name="Elipse 232"><circle class="cls-1" cx="56" cy="56" r="56"/><circle class="cls-2" cx="56" cy="56" r="55.5"/></g><g id="_2-2" data-name=" 2-2" class="cls-3"><text class="cls-4" transform="translate(34 82)">2</text></g></g><g id="Grupo_1407" data-name="Grupo 1407"><g id="Device"><g id="Grupo_1090" data-name="Grupo 1090"><g id="Grupo_985" data-name="Grupo 985"><g id="Grupo_984" data-name="Grupo 984"><g id="Grupo_983" data-name="Grupo 983"><g id="Grupo_976" data-name="Grupo 976"><g id="Grupo_975" data-name="Grupo 975"><g id="Grupo_974" data-name="Grupo 974"><g id="Grupo_973" data-name="Grupo 973"><g id="Grupo_972" data-name="Grupo 972"><g id="Grupo_971" data-name="Grupo 971"><path id="Trazado_1865" data-name="Trazado 1865" class="cls-5" d="M299.47,444.75l-131.7-.08A28.69,28.69,0,0,1,139.1,416l.07-330.16a28.69,28.69,0,0,1,28.69-28.68h0l131.69.08a28.68,28.68,0,0,1,28.67,28.69l-.06,330.16a28.68,28.68,0,0,1-28.69,28.68Z"/></g></g></g></g></g></g><g id="Grupo_982" data-name="Grupo 982"><g id="Grupo_981" data-name="Grupo 981"><g id="Grupo_980" data-name="Grupo 980"><g id="Grupo_979" data-name="Grupo 979"><g id="Grupo_978" data-name="Grupo 978"><g id="Grupo_977" data-name="Grupo 977"><path id="Trazado_1866" data-name="Trazado 1866" class="cls-6" d="M299.43,68.9H273.89a6.33,6.33,0,0,0-6.2,6.47V80a6.33,6.33,0,0,1-6.2,6.47h0l-49.77,0a6.35,6.35,0,0,1-6.2-6.48V75.33a6.35,6.35,0,0,0-6.2-6.49h-9l-22.34,0A20.09,20.09,0,0,0,147.9,88.9h0l-.07,322.26a20.1,20.1,0,0,0,20.08,20.1l131.43.07a20.08,20.08,0,0,0,20.1-20.08h0L319.5,89A20.08,20.08,0,0,0,299.43,68.9Z"/></g></g></g></g></g></g></g></g></g><g id="Grupo_1050" data-name="Grupo 1050"><g id="Grupo_1026" data-name="Grupo 1026"><g id="Grupo_996" data-name="Grupo 996"><g id="Grupo_995" data-name="Grupo 995"><g id="Grupo_994" data-name="Grupo 994"><g id="Grupo_993" data-name="Grupo 993"><g id="Grupo_992" data-name="Grupo 992"><g id="Grupo_991" data-name="Grupo 991"><g id="Grupo_990" data-name="Grupo 990"><g id="Grupo_989" data-name="Grupo 989"><g id="Grupo_988" data-name="Grupo 988"><g id="Grupo_987" data-name="Grupo 987"><g id="Grupo_986" data-name="Grupo 986"><path id="Trazado_1867" data-name="Trazado 1867" class="cls-7" d="M299.68,69.15l.69,0a15.57,15.57,0,0,1,2,.16A19.2,19.2,0,0,1,310,71.94a19.46,19.46,0,0,1,4.6,3.73,20.05,20.05,0,0,1,3.84,6,20.84,20.84,0,0,1,1.51,8.18c0,3,0,6.14,0,9.5,0,26.86,0,65.71.07,113.72s0,105.18,0,168.65V412a21.28,21.28,0,0,1-.78,6.15,20.37,20.37,0,0,1-2.57,5.68,21.66,21.66,0,0,1-4.2,4.66A20.34,20.34,0,0,1,300.84,433c-4.23.12-8.42,0-12.67.05H262.5l-52.68,0-26.94,0H169.27a21.33,21.33,0,0,1-13.13-3.62,20.69,20.69,0,0,1-8-11,22.4,22.4,0,0,1-.84-6.82v-6.8q0-13.56,0-26.95,0-26.76,0-52.69c0-34.55,0-67.87,0-99.62s0-61.9,0-90.13q0-21.18,0-40.85V89.54c0-.81.07-1.64.11-2.45s.2-1.62.41-2.4a20.69,20.69,0,0,1,4.24-8.54,20.43,20.43,0,0,1,16.44-7.27h17.57l8.45,0h4.14a6.51,6.51,0,0,1,4,1.11,6.65,6.65,0,0,1,2.46,3.24,10.51,10.51,0,0,1,.41,4v2a13.7,13.7,0,0,0,.07,1.92,6.24,6.24,0,0,0,1.5,3.37,5.9,5.9,0,0,0,3.08,1.92,6.87,6.87,0,0,0,1.81.18h9.14l26.57,0h11.72c.92,0,1.87,0,2.74,0a5.9,5.9,0,0,0,2.47-.87,6.39,6.39,0,0,0,2.83-4.06,11.17,11.17,0,0,0,.15-2.45V76.83a14.22,14.22,0,0,1,.1-2.35,7,7,0,0,1,.76-2.16,6.42,6.42,0,0,1,3.22-2.84,10,10,0,0,1,4-.43l13.08,0,8,0,2.74,0-2.74,0-8,0-13.08,0a9.89,9.89,0,0,0-3.93.43,6.1,6.1,0,0,0-3.11,2.77,6.5,6.5,0,0,0-.74,2.1,13.82,13.82,0,0,0-.1,2.32v2.41a11.54,11.54,0,0,1-.15,2.49A6.6,6.6,0,0,1,264.85,86a6.06,6.06,0,0,1-2.56.91c-.94.08-1.84,0-2.78,0H212.09a7.13,7.13,0,0,1-1.9-.19,6.27,6.27,0,0,1-3.26-2,6.73,6.73,0,0,1-1.59-3.55,14.42,14.42,0,0,1-.07-2v-2a10.49,10.49,0,0,0-.39-3.86,6.29,6.29,0,0,0-2.34-3.06,6.05,6.05,0,0,0-3.76-1H168.64a20,20,0,0,0-20.26,15.51c-.2.77-.26,1.57-.4,2.35s-.1,1.6-.1,2.4v45.74c0,28.23,0,58.4,0,90.14V411.48a21.67,21.67,0,0,0,.81,6.65,20,20,0,0,0,7.77,10.73,20.72,20.72,0,0,0,12.8,3.53h13.61l26.94,0,52.68,0h25.67c4.23,0,8.48.07,12.64,0A19.86,19.86,0,0,0,312.14,428a21.23,21.23,0,0,0,4.08-4.54,19.68,19.68,0,0,0,2.51-5.52,21,21,0,0,0,.75-6v-6.12q0-12.18,0-24.09c0-63.48.07-120.64.1-168.66s.09-86.86.12-113.72c0-3.35,0-6.52,0-9.5a20.67,20.67,0,0,0-1.47-8.11A20.2,20.2,0,0,0,302.4,69.4a15.32,15.32,0,0,0-2-.19C299.91,69.18,299.68,69.15,299.68,69.15Z"/></g></g></g></g></g></g></g></g></g></g></g><g id="Grupo_1018" data-name="Grupo 1018"><g id="Grupo_1003" data-name="Grupo 1003"><g id="Grupo_1002" data-name="Grupo 1002"><g id="Grupo_1001" data-name="Grupo 1001"><g id="Grupo_1000" data-name="Grupo 1000"><g id="Grupo_999" data-name="Grupo 999"><g id="Grupo_998" data-name="Grupo 998"><g id="Grupo_997" data-name="Grupo 997"><path id="Trazado_1868" data-name="Trazado 1868" class="cls-7" d="M303.57,101.79c0,.09-3.33.19-7.44.22s-7.44,0-7.44-.1,3.33-.18,7.44-.21S303.57,101.71,303.57,101.79Z"/></g></g></g></g></g></g></g><g id="Grupo_1010" data-name="Grupo 1010"><g id="Grupo_1009" data-name="Grupo 1009"><g id="Grupo_1008" data-name="Grupo 1008"><g id="Grupo_1007" data-name="Grupo 1007"><g id="Grupo_1006" data-name="Grupo 1006"><g id="Grupo_1005" data-name="Grupo 1005"><g id="Grupo_1004" data-name="Grupo 1004"><path id="Trazado_1869" data-name="Trazado 1869" class="cls-7" d="M303.6,105.6c0,.09-3.33.19-7.44.22s-7.44,0-7.44-.1,3.33-.18,7.44-.22S303.6,105.52,303.6,105.6Z"/></g></g></g></g></g></g></g><g id="Grupo_1017" data-name="Grupo 1017"><g id="Grupo_1016" data-name="Grupo 1016"><g id="Grupo_1015" data-name="Grupo 1015"><g id="Grupo_1014" data-name="Grupo 1014"><g id="Grupo_1013" data-name="Grupo 1013"><g id="Grupo_1012" data-name="Grupo 1012"><g id="Grupo_1011" data-name="Grupo 1011"><path id="Trazado_1870" data-name="Trazado 1870" class="cls-7" d="M303.63,109.41c0,.09-3.33.19-7.43.22s-7.45,0-7.45-.1,3.33-.18,7.44-.22S303.63,109.33,303.63,109.41Z"/></g></g></g></g></g></g></g></g><g id="Grupo_1025" data-name="Grupo 1025"><g id="Grupo_1024" data-name="Grupo 1024"><g id="Grupo_1023" data-name="Grupo 1023"><g id="Grupo_1022" data-name="Grupo 1022"><g id="Grupo_1021" data-name="Grupo 1021"><g id="Grupo_1020" data-name="Grupo 1020"><g id="Grupo_1019" data-name="Grupo 1019"><path id="Trazado_1871" data-name="Trazado 1871" class="cls-7" d="M168.23,113.76a1.56,1.56,0,0,1,.31,0l.86,0,3.17-.08-.08.09c0-.7,0-1.47,0-2.3,0-.43,0-.83,0-1.33a1.22,1.22,0,0,1,1.07-1c.51,0,1,0,1.52,0a1.23,1.23,0,0,1,1,1.22c0,1.08,0,2.2,0,3.36l-.15-.14,4,0-.15.15c0-1.61,0-3.28-.05-5,0-.43,0-.85,0-1.27a1.3,1.3,0,0,0-.56-1l-1.75-1.73-1.69-1.66-.82-.81c-.28-.27-.5-.55-.83-.62a1.11,1.11,0,0,0-.92.17c-.24.21-.5.5-.75.74L171,104c-.9.94-1.84,1.8-2.53,2.61a2.85,2.85,0,0,0-.2,1.5v1.41c0,.87,0,1.63,0,2.28s0,1.06,0,1.45a4.7,4.7,0,0,1,0,.53,3.91,3.91,0,0,1,0-.49c0-.38,0-.86,0-1.43s0-1.42,0-2.29c0-.46,0-.94,0-1.44,0-.26,0-.52,0-.79a1.69,1.69,0,0,1,.23-.84c.74-.91,1.62-1.71,2.53-2.68l1.43-1.46c.26-.25.47-.5.77-.77a1.39,1.39,0,0,1,1.17-.23,2.22,2.22,0,0,1,1,.69l.82.81,1.7,1.66,1.76,1.72a3.42,3.42,0,0,1,.44.49,1.23,1.23,0,0,1,.21.67l0,1.28c0,1.71,0,3.38,0,5v.15H180l-4,0h-.15v-.15c0-1.16,0-2.28,0-3.36a1,1,0,0,0-.81-1c-.46,0-1,0-1.45,0a1,1,0,0,0-.87.78c0,.4,0,.87,0,1.28v2.39h-.09l-3.23,0h-.84Z"/></g></g></g></g></g></g></g></g><g id="Grupo_1029" data-name="Grupo 1029"><g id="Grupo_1028" data-name="Grupo 1028"><g id="Grupo_1027" data-name="Grupo 1027"><rect id="Rectángulo_771" data-name="Rectángulo 771" class="cls-8" x="175.99" y="261.08" width="113.45" height="23.17"/></g></g></g><g id="Grupo_1032" data-name="Grupo 1032"><g id="Grupo_1031" data-name="Grupo 1031"><g id="Grupo_1030" data-name="Grupo 1030"><rect id="Rectángulo_772" data-name="Rectángulo 772" class="cls-8" x="175.99" y="294.71" width="113.45" height="23.17"/></g></g></g><g id="Grupo_1035" data-name="Grupo 1035"><g id="Grupo_1034" data-name="Grupo 1034"><g id="Grupo_1033" data-name="Grupo 1033"><path id="Trazado_1872" data-name="Trazado 1872" class="cls-9" d="M263.28,364.57H206.33A11.59,11.59,0,0,1,194.74,353h0a11.58,11.58,0,0,1,11.59-11.58h56.95A11.57,11.57,0,0,1,274.86,353h0A11.59,11.59,0,0,1,263.28,364.57Z"/></g></g></g><g id="Grupo_1042" data-name="Grupo 1042"><g id="Grupo_1038" data-name="Grupo 1038"><g id="Grupo_1037" data-name="Grupo 1037"><g id="Grupo_1036" data-name="Grupo 1036"><path id="Trazado_1873" data-name="Trazado 1873" class="cls-10" d="M191.66,277.77h-5a.89.89,0,0,1-.89-.89h0a3.35,3.35,0,0,1,3.34-3.34h.11a3.34,3.34,0,0,1,3.34,3.34h0A.89.89,0,0,1,191.66,277.77Z"/></g></g></g><g id="Grupo_1041" data-name="Grupo 1041"><g id="Grupo_1040" data-name="Grupo 1040"><g id="Grupo_1039" data-name="Grupo 1039"><path id="Trazado_1874" data-name="Trazado 1874" class="cls-10" d="M191.16,271.78a2,2,0,1,1-2-2A2,2,0,0,1,191.16,271.78Z"/></g></g></g></g><g id="Grupo_1049" data-name="Grupo 1049"><g id="Grupo_1045" data-name="Grupo 1045"><g id="Grupo_1044" data-name="Grupo 1044"><g id="Grupo_1043" data-name="Grupo 1043"><rect id="Rectángulo_773" data-name="Rectángulo 773" class="cls-10" x="186.17" y="306.66" width="5.98" height="4.23"/></g></g></g><g id="Grupo_1048" data-name="Grupo 1048"><g id="Grupo_1047" data-name="Grupo 1047"><g id="Grupo_1046" data-name="Grupo 1046"><path id="Trazado_1875" data-name="Trazado 1875" class="cls-10" d="M192.82,307.56h-2v-1.3a1.68,1.68,0,0,0-1.73-1.65,1.7,1.7,0,0,0-1.66,1.65v1.3h-2v-1.3a3.7,3.7,0,0,1,7.4,0Z"/></g></g></g></g></g><g id="Grupo_1066" data-name="Grupo 1066"><g id="Grupo_1051" data-name="Grupo 1051"><path id="Trazado_1876" data-name="Trazado 1876" class="cls-10" d="M202.71,378.76v2h2.64v.47h-2.64v2.16h-.54v-5.1h3.5v.47Z"/></g><g id="Grupo_1052" data-name="Grupo 1052"><path id="Trazado_1877" data-name="Trazado 1877" class="cls-10" d="M206.16,381.48a2,2,0,1,1,2,2,1.88,1.88,0,0,1-2-1.82A.33.33,0,0,1,206.16,381.48Zm3.37,0a1.43,1.43,0,1,0-1.42,1.5,1.4,1.4,0,0,0,1.43-1.37A.62.62,0,0,0,209.53,381.48Z"/></g><g id="Grupo_1053" data-name="Grupo 1053"><path id="Trazado_1878" data-name="Trazado 1878" class="cls-10" d="M213.05,379.53v.5h-.13a1.24,1.24,0,0,0-1.3,1.17,1.93,1.93,0,0,0,0,.24v2h-.52v-3.84h.5v.76A1.48,1.48,0,0,1,213.05,379.53Z"/></g><g id="Grupo_1054" data-name="Grupo 1054"><path id="Trazado_1879" data-name="Trazado 1879" class="cls-10" d="M217.49,379.56v3.37a1.68,1.68,0,0,1-1.41,1.92,1.4,1.4,0,0,1-.5,0,2.63,2.63,0,0,1-1.79-.59l.26-.39a2.29,2.29,0,0,0,1.51.52c1,0,1.42-.44,1.42-1.39v-.49a1.72,1.72,0,0,1-1.5.74,1.86,1.86,0,0,1-.09-3.72h.09a1.76,1.76,0,0,1,1.52.77v-.74Zm-.5,1.83a1.46,1.46,0,0,0-2.91-.1,1.47,1.47,0,0,0,1.41,1.51h0a1.38,1.38,0,0,0,1.46-1.28Z"/></g><g id="Grupo_1055" data-name="Grupo 1055"><path id="Trazado_1880" data-name="Trazado 1880" class="cls-10" d="M218.56,381.48a2,2,0,1,1,1.95,2,1.89,1.89,0,0,1-1.95-1.82Zm3.38,0a1.43,1.43,0,0,0-2.85.15,1.43,1.43,0,0,0,2.85,0Z"/></g><g id="Grupo_1056" data-name="Grupo 1056"><path id="Trazado_1881" data-name="Trazado 1881" class="cls-10" d="M225.54,383.17a1.26,1.26,0,0,1-.81.27,1,1,0,0,1-1.12-.9.81.81,0,0,1,0-.22V380h-.69v-.44h.69v-.83h.51v.83h1.17V380h-1.17v2.29a.62.62,0,0,0,.52.7h.15a.81.81,0,0,0,.57-.2Z"/></g><g id="Grupo_1057" data-name="Grupo 1057"><path id="Trazado_1882" data-name="Trazado 1882" class="cls-10" d="M232.28,381.48a1.87,1.87,0,0,1-1.76,2h-.16a1.67,1.67,0,0,1-1.45-.76v2.14h-.52v-5.26h.5v.76a1.64,1.64,0,0,1,1.48-.78,1.85,1.85,0,0,1,1.91,1.8Zm-.52,0a1.43,1.43,0,1,0-1.43,1.5,1.41,1.41,0,0,0,1.43-1.39v-.11Z"/></g><g id="Grupo_1058" data-name="Grupo 1058"><path id="Trazado_1883" data-name="Trazado 1883" class="cls-10" d="M236.2,381v2.38h-.49v-.6a1.45,1.45,0,0,1-1.32.64c-.87,0-1.4-.46-1.4-1.12s.38-1.09,1.48-1.09h1.22V381c0-.66-.37-1-1.09-1a1.93,1.93,0,0,0-1.28.45l-.23-.39a2.45,2.45,0,0,1,1.56-.52,1.38,1.38,0,0,1,1.55,1.15A1.29,1.29,0,0,1,236.2,381Zm-.51,1.23v-.63h-1.2c-.75,0-1,.29-1,.69s.36.72,1,.72a1.25,1.25,0,0,0,1.22-.78Z"/></g><g id="Grupo_1059" data-name="Grupo 1059"><path id="Trazado_1884" data-name="Trazado 1884" class="cls-10" d="M237.08,383l.23-.4a2.39,2.39,0,0,0,1.37.43c.73,0,1-.25,1-.63,0-1-2.48-.21-2.48-1.73,0-.63.54-1.1,1.52-1.1a2.58,2.58,0,0,1,1.35.36l-.22.41a2,2,0,0,0-1.13-.32c-.7,0-1,.27-1,.63,0,1,2.48.26,2.48,1.73,0,.66-.58,1.09-1.58,1.09A2.48,2.48,0,0,1,237.08,383Z"/></g><g id="Grupo_1060" data-name="Grupo 1060"><path id="Trazado_1885" data-name="Trazado 1885" class="cls-10" d="M240.64,383l.24-.4a2.34,2.34,0,0,0,1.36.43c.73,0,1-.25,1-.63,0-1-2.49-.21-2.49-1.73,0-.63.54-1.1,1.52-1.1a2.61,2.61,0,0,1,1.36.36l-.23.41a2,2,0,0,0-1.13-.32c-.69,0-1,.27-1,.63,0,1,2.49.26,2.49,1.73,0,.66-.59,1.09-1.59,1.09A2.52,2.52,0,0,1,240.64,383Z"/></g><g id="Grupo_1061" data-name="Grupo 1061"><path id="Trazado_1886" data-name="Trazado 1886" class="cls-10" d="M250.3,379.56l-1.45,3.84h-.49l-1.21-3.14-1.21,3.14h-.49L244,379.56h.5l1.2,3.26,1.24-3.26h.44l1.23,3.26,1.21-3.26Z"/></g><g id="Grupo_1062" data-name="Grupo 1062"><path id="Trazado_1887" data-name="Trazado 1887" class="cls-10" d="M250.58,381.48a2,2,0,1,1,2,1.95,1.89,1.89,0,0,1-2-1.81Zm3.38,0a1.43,1.43,0,1,0-1.42,1.5,1.39,1.39,0,0,0,1.42-1.37Z"/></g><g id="Grupo_1063" data-name="Grupo 1063"><path id="Trazado_1888" data-name="Trazado 1888" class="cls-10" d="M257.47,379.53v.5h-.12a1.23,1.23,0,0,0-1.3,1.17,1,1,0,0,0,0,.24v2h-.52v-3.84h.5v.76A1.47,1.47,0,0,1,257.47,379.53Z"/></g><g id="Grupo_1064" data-name="Grupo 1064"><path id="Trazado_1889" data-name="Trazado 1889" class="cls-10" d="M261.87,378v5.41h-.5v-.76a1.65,1.65,0,0,1-1.48.8,2,2,0,0,1,0-3.9,1.67,1.67,0,0,1,1.46.76V378Zm-.51,3.49a1.43,1.43,0,1,0-1.43,1.5,1.39,1.39,0,0,0,1.43-1.37.56.56,0,0,0,0-.13Z"/></g><g id="Grupo_1065" data-name="Grupo 1065"><path id="Trazado_1890" data-name="Trazado 1890" class="cls-10" d="M265.64,379.6c0-.52-.43-.89-1.18-.89a1.72,1.72,0,0,0-1.39.59l-.39-.29a2.26,2.26,0,0,1,1.82-.76c1,0,1.68.49,1.68,1.27,0,1.25-1.34,1.3-1.34,2.35h-.54C264.31,380.67,265.64,380.56,265.64,379.6Zm-1.44,3.46a.38.38,0,1,1,.38.38A.38.38,0,0,1,264.2,383.06Z"/></g></g><g id="Grupo_1075" data-name="Grupo 1075"><g id="Grupo_1067" data-name="Grupo 1067"><path id="Trazado_1891" data-name="Trazado 1891" class="cls-7" d="M206.17,236.54v9.51h-1.12l-5.71-7.1v7.1H198v-9.51h1.12l5.71,7.1v-7.1Z"/></g><g id="Grupo_1068" data-name="Grupo 1068"><path id="Trazado_1892" data-name="Trazado 1892" class="cls-7" d="M208.6,236.62a.86.86,0,0,1,.87-.86h0a.85.85,0,1,1-.89.86Zm.23,2.23h1.3v7.2h-1.3Z"/></g><g id="Grupo_1069" data-name="Grupo 1069"><path id="Trazado_1893" data-name="Trazado 1893" class="cls-7" d="M212,242.45a3.61,3.61,0,0,1,3.53-3.68h.28a3.22,3.22,0,0,1,2.94,1.54l-1,.63a2.27,2.27,0,0,0-2-1,2.54,2.54,0,0,0,0,5.07,2.22,2.22,0,0,0,2-1l1,.63a3.24,3.24,0,0,1-2.94,1.55,3.62,3.62,0,0,1-3.8-3.41A2.62,2.62,0,0,1,212,242.45Z"/></g><g id="Grupo_1070" data-name="Grupo 1070"><path id="Trazado_1894" data-name="Trazado 1894" class="cls-7" d="M223.09,242.7l-1.5,1.38v2h-1.3V236h1.3v6.48l3.93-3.59h1.58l-3,3,3.33,4.22h-1.6Z"/></g><g id="Grupo_1071" data-name="Grupo 1071"><path id="Trazado_1895" data-name="Trazado 1895" class="cls-7" d="M235.36,241.91v4.14h-1V242a2,2,0,0,0-1.69-2.27,1.77,1.77,0,0,0-.46,0,2.34,2.34,0,0,0-2.51,2.17,1.89,1.89,0,0,0,0,.41v3.75h-1V238.9h.93v1.32a3,3,0,0,1,2.72-1.37,2.73,2.73,0,0,1,2.94,2.51A2,2,0,0,1,235.36,241.91Z"/></g><g id="Grupo_1072" data-name="Grupo 1072"><path id="Trazado_1896" data-name="Trazado 1896" class="cls-7" d="M243.38,241.62v4.43h-.93v-1.11a2.66,2.66,0,0,1-2.46,1.18c-1.62,0-2.61-.84-2.61-2.08s.71-2,2.76-2h2.27v-.44c0-1.22-.69-1.89-2-1.89a3.66,3.66,0,0,0-2.38.84l-.44-.72a4.51,4.51,0,0,1,2.91-1C242.33,238.85,243.38,239.77,243.38,241.62Zm-1,2.29v-1.17h-2.24c-1.39,0-1.84.54-1.84,1.27s.67,1.35,1.81,1.35a2.29,2.29,0,0,0,2.27-1.45Z"/></g><g id="Grupo_1073" data-name="Grupo 1073"><path id="Trazado_1897" data-name="Trazado 1897" class="cls-7" d="M257.81,241.91v4.14h-1V242c0-1.51-.76-2.28-2-2.28a2.3,2.3,0,0,0-2.41,2.18,2.64,2.64,0,0,0,0,.4v3.75h-1V242c0-1.51-.77-2.28-2.07-2.28A2.29,2.29,0,0,0,247,241.9a2.61,2.61,0,0,0,0,.4v3.75h-1V238.9h.92v1.3a2.91,2.91,0,0,1,2.63-1.36,2.57,2.57,0,0,1,2.54,1.51,3.11,3.11,0,0,1,2.83-1.51C256.66,238.85,257.81,239.85,257.81,241.91Z"/></g><g id="Grupo_1074" data-name="Grupo 1074"><path id="Trazado_1898" data-name="Trazado 1898" class="cls-7" d="M266.68,242.78h-6a2.64,2.64,0,0,0,2.8,2.49h0a2.81,2.81,0,0,0,2.19-.94l.55.63a3.79,3.79,0,0,1-6.52-2.48,3.44,3.44,0,0,1,3.25-3.62h.25a3.41,3.41,0,0,1,3.47,3.34v.29C266.7,242.56,266.68,242.67,266.68,242.78Zm-6-.72h5.07a2.54,2.54,0,0,0-5.07,0Z"/></g></g><g id="Grupo_1082" data-name="Grupo 1082"><g id="Grupo_1076" data-name="Grupo 1076"><path id="Trazado_1899" data-name="Trazado 1899" class="cls-9" d="M223,394.6l.25-.51a2.35,2.35,0,0,0,1.52.53c.8,0,1.14-.31,1.14-.71,0-1.13-2.8-.42-2.8-2.13,0-.71.56-1.32,1.77-1.32a2.7,2.7,0,0,1,1.49.41l-.22.53a2.31,2.31,0,0,0-1.27-.38c-.78,0-1.12.33-1.12.73,0,1.13,2.8.42,2.8,2.12,0,.71-.57,1.31-1.79,1.31A2.7,2.7,0,0,1,223,394.6Z"/></g><g id="Grupo_1077" data-name="Grupo 1077"><path id="Trazado_1900" data-name="Trazado 1900" class="cls-9" d="M227.31,390.55a.41.41,0,0,1,.42-.41h0a.41.41,0,0,1,.43.39h0a.42.42,0,0,1-.42.43.43.43,0,0,1-.44-.42Zm.12,1.09h.63v3.5h-.63Z"/></g><g id="Grupo_1078" data-name="Grupo 1078"><path id="Trazado_1901" data-name="Trazado 1901" class="cls-9" d="M232.62,391.63v3a1.58,1.58,0,0,1-1.35,1.79,1.24,1.24,0,0,1-.47,0,2.58,2.58,0,0,1-1.67-.52l.3-.49a2.18,2.18,0,0,0,1.35.46,1,1,0,0,0,1.2-1.18v-.27a1.63,1.63,0,0,1-1.26.54,1.7,1.7,0,1,1-.3-3.39,1.5,1.5,0,0,1,.3,0,1.61,1.61,0,0,1,1.29.57v-.54Zm-.62,1.66a1.22,1.22,0,0,0-1.14-1.27,1.21,1.21,0,0,0-1.27,1.14,1.19,1.19,0,0,0,1.14,1.27h.07a1.1,1.1,0,0,0,1.19-1A.41.41,0,0,0,232,393.29Z"/></g><g id="Grupo_1079" data-name="Grupo 1079"><path id="Trazado_1902" data-name="Trazado 1902" class="cls-9" d="M237.15,393.12v2h-.64v-1.94c0-.68-.34-1-.94-1a1,1,0,0,0-1.11,1,.67.67,0,0,0,0,.2v1.8h-.63v-3.5h.6v.53a1.51,1.51,0,0,1,1.26-.56,1.35,1.35,0,0,1,1.46,1.24A1.31,1.31,0,0,1,237.15,393.12Z"/></g><g id="Grupo_1080" data-name="Grupo 1080"><path id="Trazado_1903" data-name="Trazado 1903" class="cls-9" d="M243.37,391.64v3.5h-.6v-.53a1.42,1.42,0,0,1-1.19.56,1.38,1.38,0,0,1-1.51-1.22,1.5,1.5,0,0,1,0-.3v-2h.64v1.94c0,.68.34,1,.94,1a1,1,0,0,0,1.09-1,1.34,1.34,0,0,0,0-.2v-1.8Z"/></g><g id="Grupo_1081" data-name="Grupo 1081"><path id="Trazado_1904" data-name="Trazado 1904" class="cls-9" d="M248.21,393.38a1.71,1.71,0,0,1-1.61,1.79h-.16a1.5,1.5,0,0,1-1.23-.56v1.8h-.63v-4.77h.61v.55a1.49,1.49,0,0,1,1.25-.59,1.71,1.71,0,0,1,1.77,1.64Zm-.65,0a1.09,1.09,0,1,0,0,.11v-.11Z"/></g></g><g id="Grupo_1089" data-name="Grupo 1089"><g id="Grupo_1083" data-name="Grupo 1083"><path id="Trazado_1905" data-name="Trazado 1905" class="cls-6" d="M223.47,354.43l.3-.66a2.6,2.6,0,0,0,1.52.51c.72,0,1-.26,1-.6,0-1-2.74-.35-2.74-2.06,0-.75.6-1.38,1.86-1.38a2.89,2.89,0,0,1,1.54.41l-.27.66a2.63,2.63,0,0,0-1.28-.36c-.71,0-1,.28-1,.63,0,1,2.74.34,2.74,2,0,.73-.6,1.37-1.87,1.37A3,3,0,0,1,223.47,354.43Z"/></g><g id="Grupo_1084" data-name="Grupo 1084"><path id="Trazado_1906" data-name="Trazado 1906" class="cls-6" d="M227.82,350.32a.51.51,0,0,1,.5-.5h0a.5.5,0,0,1,.53.46v0a.54.54,0,0,1-.54.52.53.53,0,0,1-.52-.5Zm.11,1.08h.83v3.52h-.83Z"/></g><g id="Grupo_1085" data-name="Grupo 1085"><path id="Trazado_1907" data-name="Trazado 1907" class="cls-6" d="M233.34,351.4v3a1.64,1.64,0,0,1-1.42,1.86,1.55,1.55,0,0,1-.48,0,2.81,2.81,0,0,1-1.71-.5l.37-.62a2.09,2.09,0,0,0,1.3.42c.78,0,1.12-.35,1.12-1.07v-.18a1.55,1.55,0,0,1-1.18.47,1.7,1.7,0,0,1,0-3.4h0a1.53,1.53,0,0,1,1.22.5v-.47Zm-.81,1.66a1.07,1.07,0,1,0-1.14,1h.07a1,1,0,0,0,1.07-.9v-.1Z"/></g><g id="Grupo_1086" data-name="Grupo 1086"><path id="Trazado_1908" data-name="Trazado 1908" class="cls-6" d="M237.9,352.9v2h-.82V353c0-.62-.31-.93-.84-.93a.94.94,0,0,0-1,.88,1.28,1.28,0,0,0,0,.19v1.78h-.83V351.4h.79v.46a1.54,1.54,0,0,1,1.21-.5,1.38,1.38,0,0,1,1.48,1.27A1.22,1.22,0,0,1,237.9,352.9Z"/></g><g id="Grupo_1087" data-name="Grupo 1087"><path id="Trazado_1909" data-name="Trazado 1909" class="cls-6" d="M240.67,350.32a.5.5,0,0,1,.5-.5h0a.5.5,0,0,1,.53.46v0a.54.54,0,0,1-.54.52.53.53,0,0,1-.52-.5Zm.11,1.08h.83v3.52h-.83Z"/></g><g id="Grupo_1088" data-name="Grupo 1088"><path id="Trazado_1910" data-name="Trazado 1910" class="cls-6" d="M246.16,352.9v2h-.82V353c0-.62-.31-.93-.84-.93a.94.94,0,0,0-1,.88,1.28,1.28,0,0,0,0,.19v1.78h-.83V351.4h.79v.46a1.54,1.54,0,0,1,1.21-.5,1.38,1.38,0,0,1,1.48,1.27A.82.82,0,0,1,246.16,352.9Z"/></g></g></g></g><g id="Character"><g id="Grupo_1406" data-name="Grupo 1406"><g id="Grupo_1099" data-name="Grupo 1099"><g id="Grupo_1098" data-name="Grupo 1098"><circle id="Elipse_234" data-name="Elipse 234" class="cls-9" cx="222.72" cy="176.95" r="40.97"/><g id="Grupo_1097" data-name="Grupo 1097"><g id="Grupo_1093" data-name="Grupo 1093"><g id="Grupo_1092" data-name="Grupo 1092"><g id="Grupo_1091" data-name="Grupo 1091"><path id="Trazado_1911" data-name="Trazado 1911" class="cls-6" d="M232.66,196.23l-27.38-6.38.79-3.37A14.06,14.06,0,0,1,223,176h0a14.06,14.06,0,0,1,10.5,16.88h0Z"/></g></g></g><g id="Grupo_1096" data-name="Grupo 1096"><g id="Grupo_1095" data-name="Grupo 1095"><g id="Grupo_1094" data-name="Grupo 1094"><path id="Trazado_1912" data-name="Trazado 1912" class="cls-6" d="M232.64,170.78a8.26,8.26,0,1,1-6.17-9.93h0a8.26,8.26,0,0,1,6.16,9.92Z"/></g></g></g></g></g></g><g id="Grupo_1405" data-name="Grupo 1405"><g id="Grupo_1119" data-name="Grupo 1119"><g id="Grupo_1102" data-name="Grupo 1102"><g id="Grupo_1101" data-name="Grupo 1101"><g id="Grupo_1100" data-name="Grupo 1100"><path id="Trazado_1913" data-name="Trazado 1913" class="cls-11" d="M207.27,214.54s-2-8-3.51-9.32c-1.71-1.51-5.22-5.32-6-8.37-.55-2-2.11-1.67-2.11-1.67l1.39,7.91-13.28-11.38a5,5,0,0,0,0,4.57c1.25,2.53.74,2.23.74,2.23s-2,.76-1.34,2.5A37.75,37.75,0,0,0,185,205s-2,1.72-1.64,3.7a8.37,8.37,0,0,0-.91,3.86c0,2.34,3.35,7.35,3.35,7.35l18.77,13.25,10.15-13Z"/></g></g></g><g id="Grupo_1106" data-name="Grupo 1106"><g id="Grupo_1105" data-name="Grupo 1105"><g id="Grupo_1104" data-name="Grupo 1104"><g id="Grupo_1103" data-name="Grupo 1103"><path id="Trazado_1914" data-name="Trazado 1914" class="cls-12" d="M192.53,199.27a52.56,52.56,0,0,0,7.87,7A52.07,52.07,0,0,0,192.53,199.27Z"/></g></g></g></g><g id="Grupo_1110" data-name="Grupo 1110"><g id="Grupo_1109" data-name="Grupo 1109"><g id="Grupo_1108" data-name="Grupo 1108"><g id="Grupo_1107" data-name="Grupo 1107"><path id="Trazado_1915" data-name="Trazado 1915" class="cls-12" d="M184.38,197.61a31.24,31.24,0,0,0,3.11,4.77,29.92,29.92,0,0,0,3.53,4.47,31.24,31.24,0,0,0-3.11-4.77A31.12,31.12,0,0,0,184.38,197.61Z"/></g></g></g></g><g id="Grupo_1114" data-name="Grupo 1114"><g id="Grupo_1113" data-name="Grupo 1113"><g id="Grupo_1112" data-name="Grupo 1112"><g id="Grupo_1111" data-name="Grupo 1111"><path id="Trazado_1916" data-name="Trazado 1916" class="cls-12" d="M184.39,204.1a18.55,18.55,0,0,0,3.17,5.35A18.55,18.55,0,0,0,184.39,204.1Z"/></g></g></g></g><g id="Grupo_1118" data-name="Grupo 1118"><g id="Grupo_1117" data-name="Grupo 1117"><g id="Grupo_1116" data-name="Grupo 1116"><g id="Grupo_1115" data-name="Grupo 1115"><path id="Trazado_1917" data-name="Trazado 1917" class="cls-12" d="M183.28,208.29c-.12.07.21.84.64,1.77s.82,1.67,1,1.62,0-.9-.48-1.85S183.4,208.21,183.28,208.29Z"/></g></g></g></g></g><g id="Grupo_1198" data-name="Grupo 1198"><g id="Grupo_1157" data-name="Grupo 1157"><g id="Grupo_1145" data-name="Grupo 1145"><g id="Grupo_1124" data-name="Grupo 1124"><g id="Grupo_1123" data-name="Grupo 1123"><g id="Grupo_1122" data-name="Grupo 1122"><g id="Grupo_1121" data-name="Grupo 1121"><g id="Grupo_1120" data-name="Grupo 1120"><path id="Trazado_1918" data-name="Trazado 1918" class="cls-7" d="M266.34,129.51a32.49,32.49,0,0,1,1-5,5,5,0,0,1,1.26-2c.62-.59,1.43-.22,1.94.63a15.36,15.36,0,0,1,0,12.76c-.51.85-1.32,1.23-1.94.64a5,5,0,0,1-1.26-2.05,32.24,32.24,0,0,1-1-5,3.86,3.86,0,0,0-.11,1.39,13.87,13.87,0,0,0,.59,3.78,5.42,5.42,0,0,0,1.38,2.37,1.68,1.68,0,0,0,1.67.39,2.77,2.77,0,0,0,1.33-1.13,15.4,15.4,0,0,0,0-13.6,2.75,2.75,0,0,0-1.33-1.12,1.66,1.66,0,0,0-1.67.39,5.37,5.37,0,0,0-1.38,2.37,13.74,13.74,0,0,0-.59,3.77A3.82,3.82,0,0,0,266.34,129.51Z"/></g></g></g></g></g><g id="Grupo_1139" data-name="Grupo 1139"><g id="Grupo_1133" data-name="Grupo 1133"><g id="Grupo_1132" data-name="Grupo 1132"><g id="Grupo_1131" data-name="Grupo 1131"><g id="Grupo_1130" data-name="Grupo 1130"><g id="Grupo_1129" data-name="Grupo 1129"><g id="Grupo_1128" data-name="Grupo 1128"><g id="Grupo_1127" data-name="Grupo 1127"><g id="Grupo_1126" data-name="Grupo 1126"><g id="Grupo_1125" data-name="Grupo 1125"><path id="Trazado_1919" data-name="Trazado 1919" class="cls-11" d="M301.92,192.59h0a15.44,15.44,0,0,1-16.62-14.17l0-.58c-.35-8.4-.66-16.9-.66-16.9s-12.74-1.16-13.7-13.76-.62-41.71-.62-41.71h0a43.94,43.94,0,0,1,44.4,2.72L314,152.56l.07,23.87C314,184.44,309.9,192,301.92,192.59Z"/></g></g></g></g></g></g></g></g></g><g id="Grupo_1138" data-name="Grupo 1138"><g id="Grupo_1137" data-name="Grupo 1137"><g id="Grupo_1136" data-name="Grupo 1136"><g id="Grupo_1135" data-name="Grupo 1135"><g id="Grupo_1134" data-name="Grupo 1134"><path id="Trazado_1920" data-name="Trazado 1920" class="cls-12" d="M285.71,139.61s0,.24.17.54a1.9,1.9,0,0,0,1.41.7c1.41.13,3.2-1.4,3.26-3.49a3.64,3.64,0,0,0-.94-2.66,3.71,3.71,0,0,0-2-1.13c-1.3-.27-2.05.21-2,.29s.77-.06,1.81.32a3.17,3.17,0,0,1,2.19,3.14,3,3,0,0,1-2.37,2.9C286.23,140.28,285.8,139.53,285.71,139.61Z"/></g></g></g></g></g></g><g id="Grupo_1144" data-name="Grupo 1144"><g id="Grupo_1143" data-name="Grupo 1143"><g id="Grupo_1142" data-name="Grupo 1142"><g id="Grupo_1141" data-name="Grupo 1141"><g id="Grupo_1140" data-name="Grupo 1140"><path id="Trazado_1921" data-name="Trazado 1921" class="cls-7" d="M266.31,128.91c0,.22,3.76,1,8.48,1.8s8.58,1.22,8.61,1-3.76-1-8.48-1.8S266.35,128.69,266.31,128.91Z"/></g></g></g></g></g></g><g id="Grupo_1147" data-name="Grupo 1147"><g id="Grupo_1146" data-name="Grupo 1146"><path id="Trazado_1922" data-name="Trazado 1922" class="cls-7" d="M339.42,131.93a11.55,11.55,0,0,0-8.19-11.27,6.86,6.86,0,0,0-4.49-10.72,12.87,12.87,0,0,0-1.38-.13,7.14,7.14,0,0,0-.7-.75c-3.94-3.5-4.31-8.89-8.83-11.59s-10.25-2.88-14.49-.08c-3-1.49-5.74-3.42-8.71-4.92-4.09-2.08-9.1-3.32-13.2-1.25-2.94,1.49-4.9,4.43-7.76,6.07-4.07,2.33-9.62,1.82-11.58,7.82a10.11,10.11,0,0,0,.08,6.41c2.79,8.15,12.9,11.4,20.17,7.86.14,1.38-1.2,4.46.26,8.82.47,1.39.64,3.52,2.82,3.55,2.17-2.7,5.7-3.78,8.61-1.91a7.33,7.33,0,0,1,2.46,9.16,9.61,9.61,0,0,1-6.17,4.69,4.85,4.85,0,0,0-3.77,5.23c.37,3.16,5.64,4.33,8,6.94,3.71,4.07,11.82,5.77,17.29,6.4,4.64.53,4.79.64,6.75-2.19a13.44,13.44,0,0,0,4.31-.68,14.88,14.88,0,0,0,9.36-16.94A11.56,11.56,0,0,0,339.42,131.93Z"/></g></g><g id="Grupo_1150" data-name="Grupo 1150"><g id="Grupo_1149" data-name="Grupo 1149"><g id="Grupo_1148" data-name="Grupo 1148"><path id="Trazado_1923" data-name="Trazado 1923" class="cls-5" d="M313.54,136.82a7.69,7.69,0,0,1-1.71.38,9.84,9.84,0,0,1-4.71-.66,9.35,9.35,0,0,1-5.09-4.78,10,10,0,0,1,.08-8.5l.12-.24.14.21a23.23,23.23,0,0,1-8.55-.55,10.82,10.82,0,0,1-5.77-3.85,8.15,8.15,0,0,1-1.7-4.36,5.25,5.25,0,0,1,.13-1.72,10.85,10.85,0,0,0,0,1.71,8.26,8.26,0,0,0,1.75,4.25,10.65,10.65,0,0,0,5.68,3.72,23.35,23.35,0,0,0,8.45.52l.26,0-.12.23-.11.23a9.78,9.78,0,0,0-.1,8.26,9.2,9.2,0,0,0,4.92,4.7,9.91,9.91,0,0,0,4.63.73C312.94,137,313.53,136.78,313.54,136.82Z"/></g></g></g><g id="Grupo_1153" data-name="Grupo 1153"><g id="Grupo_1152" data-name="Grupo 1152"><g id="Grupo_1151" data-name="Grupo 1151"><path id="Trazado_1924" data-name="Trazado 1924" class="cls-5" d="M324.34,126.32s.47-.45,1.14-1.4a10.28,10.28,0,0,0,1.66-4.56,9.46,9.46,0,0,0-1.8-6.82,9.93,9.93,0,0,0-7.7-3.72,9,9,0,0,0-3.55.67l-.17.07,0-.19a9.41,9.41,0,0,0-3.76-6.3,9,9,0,0,0-5.69-1.7,9.7,9.7,0,0,0-3.89,1c-.85.43-1.26.77-1.28.74a6.81,6.81,0,0,1,1.23-.83,9.48,9.48,0,0,1,3.93-1.09,9.07,9.07,0,0,1,5.85,1.68,9.63,9.63,0,0,1,3.89,6.47l-.2-.11a9.25,9.25,0,0,1,3.67-.69,10.13,10.13,0,0,1,7.9,3.84,9.69,9.69,0,0,1,1.79,7,10.08,10.08,0,0,1-1.78,4.59A7.34,7.34,0,0,1,324.34,126.32Z"/></g></g></g><g id="Grupo_1156" data-name="Grupo 1156"><g id="Grupo_1155" data-name="Grupo 1155"><g id="Grupo_1154" data-name="Grupo 1154"><path id="Trazado_1925" data-name="Trazado 1925" class="cls-5" d="M312,146.2a2.54,2.54,0,0,1-.5.36,4.51,4.51,0,0,1-1.64.53,5.35,5.35,0,0,1-2.6-.32,4.85,4.85,0,0,1-2.54-2.14l.21,0a8.53,8.53,0,0,1-2.85,1.63,8.42,8.42,0,0,1-4.48.26,8.25,8.25,0,0,1-3.32-1.56,8,8,0,0,1-1.71-1.78,4.13,4.13,0,0,1-.45-.79,10.45,10.45,0,0,0,2.28,2.41A8.25,8.25,0,0,0,302,146a8.59,8.59,0,0,0,2.76-1.57l.13-.11.08.15a4.68,4.68,0,0,0,2.38,2.05,5.34,5.34,0,0,0,2.5.37A5.69,5.69,0,0,0,312,146.2Z"/></g></g></g></g><g id="Grupo_1178" data-name="Grupo 1178"><g id="Grupo_1159" data-name="Grupo 1159"><g id="Grupo_1158" data-name="Grupo 1158"><path id="Trazado_1926" data-name="Trazado 1926" class="cls-9" d="M332.61,131a7.68,7.68,0,0,0-5.49-4.28c-2.37-.44-6.65,2-6.65,2a2.7,2.7,0,0,0-1.67-1.26,5.72,5.72,0,0,0-5.13,9.54,5.78,5.78,0,1,0,8.1,7.51,6.06,6.06,0,0,0,9.7-7.18C333.34,135.94,333.58,133.09,332.61,131Z"/></g></g><g id="Grupo_1162" data-name="Grupo 1162"><g id="Grupo_1161" data-name="Grupo 1161"><g id="Grupo_1160" data-name="Grupo 1160"><path id="Trazado_1927" data-name="Trazado 1927" class="cls-6" d="M318.58,135.34a13.16,13.16,0,0,0-2.71-2.61,6.68,6.68,0,0,0-2.43-1c-.66-.13-1.1-.1-1.1-.15a2.58,2.58,0,0,1,1.14,0,5.89,5.89,0,0,1,2.55,1,7.87,7.87,0,0,1,2,1.87A2.9,2.9,0,0,1,318.58,135.34Z"/></g></g></g><g id="Grupo_1165" data-name="Grupo 1165"><g id="Grupo_1164" data-name="Grupo 1164"><g id="Grupo_1163" data-name="Grupo 1163"><path id="Trazado_1928" data-name="Trazado 1928" class="cls-6" d="M318.43,127.54a3.29,3.29,0,0,1,.76.86,9.26,9.26,0,0,1,1.24,2.45,6.08,6.08,0,0,1,.21,3.84,11.06,11.06,0,0,0-.48-3.75A18.75,18.75,0,0,0,318.43,127.54Z"/></g></g></g><g id="Grupo_1168" data-name="Grupo 1168"><g id="Grupo_1167" data-name="Grupo 1167"><g id="Grupo_1166" data-name="Grupo 1166"><path id="Trazado_1929" data-name="Trazado 1929" class="cls-6" d="M324.07,127.11a3.85,3.85,0,0,1,.39,3,4.12,4.12,0,0,1-1.64,2.57,7.67,7.67,0,0,0,1.36-2.63A6.73,6.73,0,0,0,324.07,127.11Z"/></g></g></g><g id="Grupo_1171" data-name="Grupo 1171"><g id="Grupo_1170" data-name="Grupo 1170"><g id="Grupo_1169" data-name="Grupo 1169"><path id="Trazado_1930" data-name="Trazado 1930" class="cls-6" d="M328.87,127.25a4.74,4.74,0,0,1-.3,3.41,4.12,4.12,0,0,1-1.68,1.8,2,2,0,0,1-1,.34,5.36,5.36,0,0,0,2.38-2.26,7.27,7.27,0,0,0,.53-2.3C328.89,127.64,328.82,127.26,328.87,127.25Z"/></g></g></g><g id="Grupo_1174" data-name="Grupo 1174"><g id="Grupo_1173" data-name="Grupo 1173"><g id="Grupo_1172" data-name="Grupo 1172"><path id="Trazado_1931" data-name="Trazado 1931" class="cls-6" d="M311.69,139a3.94,3.94,0,0,1,2.61-.8,5,5,0,0,1,2.68.49,18.38,18.38,0,0,0-2.68-.2A9.29,9.29,0,0,0,311.69,139Z"/></g></g></g><g id="Grupo_1177" data-name="Grupo 1177"><g id="Grupo_1176" data-name="Grupo 1176"><g id="Grupo_1175" data-name="Grupo 1175"><path id="Trazado_1932" data-name="Trazado 1932" class="cls-6" d="M311.69,145.06a2.22,2.22,0,0,1,.27-.93,4.53,4.53,0,0,1,1.4-1.87,3.69,3.69,0,0,1,3.18-.59,5.74,5.74,0,0,0-3,.82,5.16,5.16,0,0,0-1.38,1.73A5.67,5.67,0,0,1,311.69,145.06Z"/></g></g></g></g><g id="Grupo_1197" data-name="Grupo 1197"><g id="Grupo_1181" data-name="Grupo 1181"><g id="Grupo_1180" data-name="Grupo 1180"><g id="Grupo_1179" data-name="Grupo 1179"><path id="Trazado_1933" data-name="Trazado 1933" class="cls-5" d="M345.54,142.06a7.86,7.86,0,0,0,1.43-.28,6,6,0,0,0,3.07-2.41,6.28,6.28,0,0,0,.7-5.61,8.89,8.89,0,0,0-4.83-5.07,12.9,12.9,0,0,0-7.11-.74,23,23,0,0,0-5.67,1.73c-1.55.68-2.77,1.32-3.62,1.75l-1,.49a2.21,2.21,0,0,1-.35.16,2.2,2.2,0,0,1,.32-.21l.95-.54c.84-.46,2.05-1.13,3.6-1.83a22.16,22.16,0,0,1,5.72-1.81,13.06,13.06,0,0,1,7.26.74,9,9,0,0,1,5,5.25,6.35,6.35,0,0,1-.78,5.8,6,6,0,0,1-3.2,2.41A3.88,3.88,0,0,1,345.54,142.06Z"/></g></g></g><g id="Grupo_1196" data-name="Grupo 1196"><g id="Grupo_1183" data-name="Grupo 1183"><g id="Grupo_1182" data-name="Grupo 1182"><path id="Trazado_1934" data-name="Trazado 1934" class="cls-7" d="M346.19,142.29c4-.81,5.84-6.16,4-9.77s-6.32-5.31-10.38-5-7.8,2.29-11.24,4.46c-2.86-1.42-6.58.27-8,3a6.33,6.33,0,0,0-2.39,12.39,10.56,10.56,0,1,0,16.38,12.29,10.5,10.5,0,0,0,11.65-17.4Z"/></g></g><g id="Grupo_1186" data-name="Grupo 1186"><g id="Grupo_1185" data-name="Grupo 1185"><g id="Grupo_1184" data-name="Grupo 1184"><path id="Trazado_1935" data-name="Trazado 1935" class="cls-5" d="M350,150.4a2.71,2.71,0,0,1-.05,1.44,4.79,4.79,0,0,1-2.59,3,9.52,9.52,0,0,1-6.15.75,10.35,10.35,0,0,1-6.58-4.36l.24-.06a6.5,6.5,0,0,1-3.42,5.29,7.18,7.18,0,0,1-6.81.05,9.08,9.08,0,0,1-4.17-4.18,6.57,6.57,0,0,1-.62-2.79,3.79,3.79,0,0,1,1-2.56l.12.22a6.27,6.27,0,0,1-5.86-10.44,6.44,6.44,0,0,1,4-1.9,4.55,4.55,0,0,1,1.6.1,7.78,7.78,0,0,0-1.6,0,6.47,6.47,0,0,0-3.91,1.92A6.07,6.07,0,0,0,320.89,147l.43-.09-.3.31c-1.22,1.27-1.1,3.39-.32,5.06a8.88,8.88,0,0,0,4.05,4,6.91,6.91,0,0,0,6.55,0,6.26,6.26,0,0,0,3.29-5.06v-.41l.23.35a10.19,10.19,0,0,0,6.41,4.28,9.42,9.42,0,0,0,6-.67,4.76,4.76,0,0,0,2.58-2.92A4,4,0,0,0,350,150.4Z"/></g></g></g><g id="Grupo_1189" data-name="Grupo 1189"><g id="Grupo_1188" data-name="Grupo 1188"><g id="Grupo_1187" data-name="Grupo 1187"><path id="Trazado_1936" data-name="Trazado 1936" class="cls-5" d="M347.44,140.77a3.22,3.22,0,0,0,.6-1.38,4.07,4.07,0,0,0-1.48-3.66,8.94,8.94,0,0,0-12.34.63,9.37,9.37,0,0,0-1.32,1.8l-.24.44,0-.5a6.77,6.77,0,0,0-3.4-5.44,6.26,6.26,0,0,0-5.21-.44,7,7,0,0,0-3,2c-.55.65-.76,1.08-.78,1.06a4.54,4.54,0,0,1,.7-1.13,7,7,0,0,1,3-2.1,6.43,6.43,0,0,1,5.4.4,7,7,0,0,1,3.56,5.65l-.26-.07a9.16,9.16,0,0,1,8.3-4.72,9,9,0,0,1,5.74,2.29,4.12,4.12,0,0,1,1.46,3.82,2.93,2.93,0,0,1-.45,1.06A1.14,1.14,0,0,1,347.44,140.77Z"/></g></g></g><g id="Grupo_1192" data-name="Grupo 1192"><g id="Grupo_1191" data-name="Grupo 1191"><g id="Grupo_1190" data-name="Grupo 1190"><path id="Trazado_1937" data-name="Trazado 1937" class="cls-5" d="M347.29,153.37a5.31,5.31,0,0,1-.15,1.19,8.06,8.06,0,0,1-5.62,6,8.32,8.32,0,0,1-6.53-.95l.18-.06a12.12,12.12,0,0,1-10.4,6.48A11.91,11.91,0,0,1,315,161a10.24,10.24,0,0,1-1.68-8.89,6.33,6.33,0,0,1,4.32-4.25,4.67,4.67,0,0,1,1.7-.16,2.35,2.35,0,0,1,.59.1,5.51,5.51,0,0,0-2.25.17,6.23,6.23,0,0,0-4.16,4.21,10,10,0,0,0,1.7,8.67,11.7,11.7,0,0,0,9.57,5,11.83,11.83,0,0,0,6.18-1.94,11.67,11.67,0,0,0,4-4.37l.06-.13.12.08a8.05,8.05,0,0,0,6.33,1,7.75,7.75,0,0,0,4.17-2.83,8.13,8.13,0,0,0,1.44-3C347.25,153.78,347.26,153.36,347.29,153.37Z"/></g></g></g><g id="Grupo_1195" data-name="Grupo 1195"><g id="Grupo_1194" data-name="Grupo 1194"><g id="Grupo_1193" data-name="Grupo 1193"><path id="Trazado_1938" data-name="Trazado 1938" class="cls-5" d="M339.55,144a3.8,3.8,0,0,1-.58.8,6.06,6.06,0,0,1-2.21,1.53,5.92,5.92,0,0,1-4,.18,6.24,6.24,0,0,1-3.75-3.15l.19.07c-.19.07-.4.16-.61.22a6.94,6.94,0,0,1-5.1-.41,6.71,6.71,0,0,1-3.65-5.73,4,4,0,0,1,.08-1,7.55,7.55,0,0,0,.8,3.7,6.41,6.41,0,0,0,2.88,2.83,6.76,6.76,0,0,0,4.9.38c.21-.06.4-.14.59-.21l.12,0,.06.12a6.12,6.12,0,0,0,3.57,3,5.79,5.79,0,0,0,3.83-.13A6.72,6.72,0,0,0,339.55,144Z"/></g></g></g></g></g></g><g id="Grupo_1227" data-name="Grupo 1227"><g id="Grupo_1203" data-name="Grupo 1203"><g id="Grupo_1202" data-name="Grupo 1202"><g id="Grupo_1201" data-name="Grupo 1201"><g id="Grupo_1200" data-name="Grupo 1200"><g id="Grupo_1199" data-name="Grupo 1199"><path id="Trazado_1939" data-name="Trazado 1939" class="cls-11" d="M354.61,496.46l4,74-26.8,6.48-5.34-72.3Z"/></g></g></g></g></g><g id="Grupo_1226" data-name="Grupo 1226"><g id="Grupo_1208" data-name="Grupo 1208"><g id="Grupo_1207" data-name="Grupo 1207"><g id="Grupo_1206" data-name="Grupo 1206"><g id="Grupo_1205" data-name="Grupo 1205"><g id="Grupo_1204" data-name="Grupo 1204"><path id="Trazado_1940" data-name="Trazado 1940" class="cls-9" d="M359.4,569.83,364,589.91H333.12l-1.32-13.07Z"/></g></g></g></g></g><g id="Grupo_1214" data-name="Grupo 1214"><g id="Grupo_1213" data-name="Grupo 1213"><g id="Grupo_1212" data-name="Grupo 1212"><g id="Grupo_1211" data-name="Grupo 1211"><g id="Grupo_1210" data-name="Grupo 1210"><g id="Grupo_1209" data-name="Grupo 1209"><path id="Trazado_1941" data-name="Trazado 1941" class="cls-7" d="M332.48,587a21.9,21.9,0,0,0,4.5.26c2.78,0,6.61,0,10.84-.2l10.82-.46a25.91,25.91,0,0,0,4.49-.36,21.89,21.89,0,0,0-4.5-.25c-2.78,0-6.61.06-10.84.21l-10.82.45A25.09,25.09,0,0,0,332.48,587Z"/></g></g></g></g></g></g><g id="Grupo_1220" data-name="Grupo 1220"><g id="Grupo_1219" data-name="Grupo 1219"><g id="Grupo_1218" data-name="Grupo 1218"><g id="Grupo_1217" data-name="Grupo 1217"><g id="Grupo_1216" data-name="Grupo 1216"><g id="Grupo_1215" data-name="Grupo 1215"><path id="Trazado_1942" data-name="Trazado 1942" class="cls-7" d="M345.56,573.75c-.24,0-.24,2.92,0,6.5s.62,6.46.86,6.44.23-2.92,0-6.5S345.79,573.73,345.56,573.75Z"/></g></g></g></g></g></g><g id="Grupo_1225" data-name="Grupo 1225" class="cls-13"><g id="Grupo_1224" data-name="Grupo 1224"><g id="Grupo_1223" data-name="Grupo 1223"><g id="Grupo_1222" data-name="Grupo 1222"><g id="Grupo_1221" data-name="Grupo 1221"><path id="Trazado_1943" data-name="Trazado 1943" class="cls-6" d="M364,589.91H333.12l-.3-2.91,30.59-.77.56,3.34"/></g></g></g></g></g></g></g><g id="Grupo_1298" data-name="Grupo 1298"><g id="Grupo_1233" data-name="Grupo 1233"><g id="Grupo_1232" data-name="Grupo 1232"><g id="Grupo_1231" data-name="Grupo 1231"><g id="Grupo_1230" data-name="Grupo 1230"><g id="Grupo_1229" data-name="Grupo 1229"><g id="Grupo_1228" data-name="Grupo 1228"><path id="Trazado_1944" data-name="Trazado 1944" class="cls-11" d="M252.83,532.44l-6.51,49-23.73-1.65,5-45Z"/></g></g></g></g></g></g><g id="Grupo_1297" data-name="Grupo 1297"><g id="Grupo_1280" data-name="Grupo 1280"><g id="Grupo_1240" data-name="Grupo 1240"><g id="Grupo_1239" data-name="Grupo 1239"><g id="Grupo_1238" data-name="Grupo 1238"><g id="Grupo_1237" data-name="Grupo 1237"><g id="Grupo_1236" data-name="Grupo 1236"><g id="Grupo_1235" data-name="Grupo 1235"><g id="Grupo_1234" data-name="Grupo 1234"><path id="Trazado_1945" data-name="Trazado 1945" class="cls-9" d="M222.34,574.5h0s-26.65,9-27.1,13.87l51,1.49.45-13.33-1.88.37A37.92,37.92,0,0,1,222.34,574.5Z"/></g></g></g></g></g></g></g><g id="Grupo_1248" data-name="Grupo 1248" class="cls-13"><g id="Grupo_1247" data-name="Grupo 1247"><g id="Grupo_1246" data-name="Grupo 1246"><g id="Grupo_1245" data-name="Grupo 1245"><g id="Grupo_1244" data-name="Grupo 1244"><g id="Grupo_1243" data-name="Grupo 1243"><g id="Grupo_1242" data-name="Grupo 1242"><g id="Grupo_1241" data-name="Grupo 1241"><path id="Trazado_1946" data-name="Trazado 1946" class="cls-6" d="M240.71,578.85a2.09,2.09,0,0,1,1.38,2.42,2,2,0,0,1-2.39,1.38,2.21,2.21,0,0,1-1.44-2.57,2.08,2.08,0,0,1,2.64-1.16"/></g></g></g></g></g></g></g></g><g id="Grupo_1255" data-name="Grupo 1255" class="cls-13"><g id="Grupo_1254" data-name="Grupo 1254"><g id="Grupo_1253" data-name="Grupo 1253"><g id="Grupo_1252" data-name="Grupo 1252"><g id="Grupo_1251" data-name="Grupo 1251"><g id="Grupo_1250" data-name="Grupo 1250"><g id="Grupo_1249" data-name="Grupo 1249"><path id="Trazado_1947" data-name="Trazado 1947" class="cls-6" d="M246.22,589.86l0-4.14-48.87.12s-2.3.92-2.08,2.53Z"/></g></g></g></g></g></g></g><g id="Grupo_1263" data-name="Grupo 1263"><g id="Grupo_1262" data-name="Grupo 1262"><g id="Grupo_1261" data-name="Grupo 1261"><g id="Grupo_1260" data-name="Grupo 1260"><g id="Grupo_1259" data-name="Grupo 1259"><g id="Grupo_1258" data-name="Grupo 1258"><g id="Grupo_1257" data-name="Grupo 1257"><g id="Grupo_1256" data-name="Grupo 1256"><path id="Trazado_1948" data-name="Trazado 1948" class="cls-7" d="M221.53,574.22c0,.24,1.24.4,2.44,1.23s1.82,1.9,2.05,1.81-.1-1.54-1.56-2.53S221.48,574,221.53,574.22Z"/></g></g></g></g></g></g></g></g><g id="Grupo_1271" data-name="Grupo 1271"><g id="Grupo_1270" data-name="Grupo 1270"><g id="Grupo_1269" data-name="Grupo 1269"><g id="Grupo_1268" data-name="Grupo 1268"><g id="Grupo_1267" data-name="Grupo 1267"><g id="Grupo_1266" data-name="Grupo 1266"><g id="Grupo_1265" data-name="Grupo 1265"><g id="Grupo_1264" data-name="Grupo 1264"><path id="Trazado_1949" data-name="Trazado 1949" class="cls-7" d="M216.11,576.27c-.06.24,1,.7,1.82,1.77s1,2.2,1.27,2.2.45-1.41-.59-2.73S216.13,576,216.11,576.27Z"/></g></g></g></g></g></g></g></g><g id="Grupo_1279" data-name="Grupo 1279"><g id="Grupo_1278" data-name="Grupo 1278"><g id="Grupo_1277" data-name="Grupo 1277"><g id="Grupo_1276" data-name="Grupo 1276"><g id="Grupo_1275" data-name="Grupo 1275"><g id="Grupo_1274" data-name="Grupo 1274"><g id="Grupo_1273" data-name="Grupo 1273"><g id="Grupo_1272" data-name="Grupo 1272"><path id="Trazado_1950" data-name="Trazado 1950" class="cls-7" d="M212.89,582.59c.23.06.61-1.18,0-2.56s-1.75-2-1.86-1.75.59,1,1.06,2.1S212.64,582.55,212.89,582.59Z"/></g></g></g></g></g></g></g></g></g><g id="Grupo_1288" data-name="Grupo 1288"><g id="Grupo_1287" data-name="Grupo 1287"><g id="Grupo_1286" data-name="Grupo 1286"><g id="Grupo_1285" data-name="Grupo 1285"><g id="Grupo_1284" data-name="Grupo 1284"><g id="Grupo_1283" data-name="Grupo 1283"><g id="Grupo_1282" data-name="Grupo 1282"><g id="Grupo_1281" data-name="Grupo 1281"><path id="Trazado_1951" data-name="Trazado 1951" class="cls-7" d="M222.08,574.09a4.84,4.84,0,0,0,2.56.06,11.92,11.92,0,0,0,2.69-.74,12.15,12.15,0,0,0,1.49-.74,3,3,0,0,0,.79-.58,1.09,1.09,0,0,0,.15-1.32,1.36,1.36,0,0,0-1.07-.6,3.41,3.41,0,0,0-1,.1,9.59,9.59,0,0,0-1.6.5,9.08,9.08,0,0,0-2.4,1.48c-1.22,1.06-1.65,2-1.56,2s.7-.68,1.94-1.55a10,10,0,0,1,2.31-1.21,8.32,8.32,0,0,1,1.48-.41c.54-.13,1-.12,1.13.13.05.09.06.13-.06.28a2.39,2.39,0,0,1-.58.42,12,12,0,0,1-1.37.73,14,14,0,0,1-2.5.88A17.16,17.16,0,0,0,222.08,574.09Z"/></g></g></g></g></g></g></g></g><g id="Grupo_1296" data-name="Grupo 1296"><g id="Grupo_1295" data-name="Grupo 1295"><g id="Grupo_1294" data-name="Grupo 1294"><g id="Grupo_1293" data-name="Grupo 1293"><g id="Grupo_1292" data-name="Grupo 1292"><g id="Grupo_1291" data-name="Grupo 1291"><g id="Grupo_1290" data-name="Grupo 1290"><g id="Grupo_1289" data-name="Grupo 1289"><path id="Trazado_1952" data-name="Trazado 1952" class="cls-7" d="M222.4,574.45a4.09,4.09,0,0,0,.74-2.44,8.52,8.52,0,0,0-.26-2.8,8.76,8.76,0,0,0-.6-1.57,2.14,2.14,0,0,0-1.6-1.34,1.19,1.19,0,0,0-1.08.68,3.46,3.46,0,0,0-.29.93,5.52,5.52,0,0,0-.05,1.72,5.85,5.85,0,0,0,1,2.67c1,1.35,2,1.68,2,1.6s-.77-.63-1.49-1.92a5.93,5.93,0,0,1-.74-2.42,5.25,5.25,0,0,1,.09-1.48c.1-.54.31-1,.51-.91s.68.43.87.87a7.54,7.54,0,0,1,.59,1.4,8.91,8.91,0,0,1,.42,2.56C222.56,573.49,222.26,574.41,222.4,574.45Z"/></g></g></g></g></g></g></g></g></g></g><g id="Grupo_1335" data-name="Grupo 1335"><g id="Grupo_1314" data-name="Grupo 1314"><g id="Grupo_1303" data-name="Grupo 1303"><g id="Grupo_1302" data-name="Grupo 1302"><g id="Grupo_1301" data-name="Grupo 1301"><g id="Grupo_1300" data-name="Grupo 1300"><g id="Grupo_1299" data-name="Grupo 1299"><path id="Trazado_1953" data-name="Trazado 1953" class="cls-7" d="M334.79,284.22s18.81,31.44,18.81,50.24l4.64,229-29.74,7.09L305.82,346.76s-54.93,224.39-56.7,224.39-28.81-4.85-28.81-4.85l41-281.07Z"/></g></g></g></g></g><g id="Grupo_1308" data-name="Grupo 1308"><g id="Grupo_1307" data-name="Grupo 1307"><g id="Grupo_1306" data-name="Grupo 1306"><g id="Grupo_1305" data-name="Grupo 1305"><g id="Grupo_1304" data-name="Grupo 1304"><path id="Trazado_1954" data-name="Trazado 1954" class="cls-5" d="M323.07,340.61a2.86,2.86,0,0,0,.06.58c.06.42.14,1,.25,1.68.24,1.52.58,3.69,1,6.46.92,5.6,2.2,13.71,3.71,23.75,3,20,6.79,47.82,10,78.67s5.09,58.8,6.19,79.07c.55,10.14.95,18.34,1.18,24,.13,2.8.23,5,.31,6.53,0,.71.07,1.28.1,1.7a2.78,2.78,0,0,0,.06.58,3.71,3.71,0,0,0,0-.58c0-.42,0-1,0-1.7,0-1.54-.09-3.73-.15-6.53-.14-5.68-.44-13.89-.92-24-1-20.29-2.8-48.29-6-79.13s-7-58.62-10.2-78.67c-1.58-10-2.94-18.14-4-23.72-.5-2.76-.9-4.92-1.18-6.43-.13-.7-.24-1.26-.32-1.67A2.65,2.65,0,0,0,323.07,340.61Z"/></g></g></g></g></g><g id="Grupo_1313" data-name="Grupo 1313"><g id="Grupo_1312" data-name="Grupo 1312"><g id="Grupo_1311" data-name="Grupo 1311"><g id="Grupo_1310" data-name="Grupo 1310"><g id="Grupo_1309" data-name="Grupo 1309"><path id="Trazado_1955" data-name="Trazado 1955" class="cls-5" d="M276,344.4c-.22,0-9.29,50.22-20.25,112.25S236.08,569,236.3,569.05s9.3-50.22,20.26-112.26S276.24,344.44,276,344.4Z"/></g></g></g></g></g></g><g id="Grupo_1318" data-name="Grupo 1318"><g id="Grupo_1317" data-name="Grupo 1317"><g id="Grupo_1316" data-name="Grupo 1316"><g id="Grupo_1315" data-name="Grupo 1315"><path id="Trazado_1956" data-name="Trazado 1956" class="cls-5" d="M306.88,346.37a2.24,2.24,0,0,0,.31-.57c.18-.38.44-.95.76-1.69a61.41,61.41,0,0,0,2.2-6.46,65.64,65.64,0,0,0,2.13-22.36c-.15-2.2-.45-4.33-.79-6.39s-.9-4-1.42-5.82c-1-3.67-2.13-6.91-3.07-9.63s-1.75-4.9-2.32-6.4l-.69-1.72a2.49,2.49,0,0,0-.29-.59,2.23,2.23,0,0,0,.15.63c.16.49.34,1.07.56,1.77.53,1.64,1.25,3.82,2.11,6.47s1.91,6,2.91,9.65c.5,1.83,1,3.76,1.36,5.77s.62,4.14.77,6.32a69.55,69.55,0,0,1-1.9,22.17c-.7,2.78-1.46,5-2,6.49A18.21,18.21,0,0,0,306.88,346.37Z"/></g></g></g></g><g id="Grupo_1322" data-name="Grupo 1322"><g id="Grupo_1321" data-name="Grupo 1321"><g id="Grupo_1320" data-name="Grupo 1320"><g id="Grupo_1319" data-name="Grupo 1319"><path id="Trazado_1957" data-name="Trazado 1957" class="cls-5" d="M298.46,307.91a2.12,2.12,0,0,0,0,.44c0,.33,0,.73-.06,1.21-.05,1.12-.12,2.64-.2,4.52-.14,3.93-.33,9.4-.56,15.93l.19-.27-11.44,4.66.31,0-9.29-5.66-.6-.36.17.27c-.7-7.56-1.36-14.66-1.92-20.79l-.32.35,17.11-.17,4.88-.08,1.31,0a2.42,2.42,0,0,0,.47,0,13,13,0,0,0-1.65-.07l-4.8-.09-17.31-.16h-.35l0,.35c.54,6.13,1.17,13.24,1.84,20.8l0,.18.15.1.6.37,9.3,5.64.16.09.16-.07L298,330.31l.19-.08V330c.1-6.62.19-12.16.25-16.14,0-1.85,0-3.34,0-4.45A13,13,0,0,0,298.46,307.91Z"/></g></g></g></g><g id="Grupo_1326" data-name="Grupo 1326"><g id="Grupo_1325" data-name="Grupo 1325"><g id="Grupo_1324" data-name="Grupo 1324"><g id="Grupo_1323" data-name="Grupo 1323"><path id="Trazado_1958" data-name="Trazado 1958" class="cls-5" d="M341.49,301.86a13.63,13.63,0,0,0,.2,1.54c.16,1.05.38,2.45.64,4.19l2.39,14.73.12-.3-8.65,6.41.3-.06L326,325.45l-.54-.15.26.25c-2-6.86-3.9-13.29-5.53-18.85l-.24.4,15.53-3.7,4.42-1.09a16.4,16.4,0,0,0,1.61-.44,12.91,12.91,0,0,0-1.51.27l-4.38.92-15.8,3.43-.33.07.09.33c1.6,5.56,3.47,12,5.45,18.87l.05.19.2.05.53.15,10.52,2.9.16.05.14-.1c3.07-2.32,6-4.5,8.6-6.47l.15-.12,0-.18c-1.12-6.1-2.06-11.2-2.74-14.88-.32-1.69-.58-3.06-.78-4.09A11.33,11.33,0,0,0,341.49,301.86Z"/></g></g></g></g><g id="Grupo_1330" data-name="Grupo 1330"><g id="Grupo_1329" data-name="Grupo 1329"><g id="Grupo_1328" data-name="Grupo 1328"><g id="Grupo_1327" data-name="Grupo 1327"><path id="Trazado_1959" data-name="Trazado 1959" class="cls-5" d="M281.44,341.93c0,.19,5.62,1.59,12.65,3.11s12.76,2.61,12.8,2.42-5.62-1.59-12.66-3.12S281.48,341.73,281.44,341.93Z"/></g></g></g></g><g id="Grupo_1334" data-name="Grupo 1334"><g id="Grupo_1333" data-name="Grupo 1333"><g id="Grupo_1332" data-name="Grupo 1332"><g id="Grupo_1331" data-name="Grupo 1331"><path id="Trazado_1960" data-name="Trazado 1960" class="cls-5" d="M318.4,342.92a11.79,11.79,0,0,0,3.25,0,55.39,55.39,0,0,0,15.22-3.5,11.61,11.61,0,0,0,2.92-1.42,19.34,19.34,0,0,0-3.09.94c-1.89.62-4.53,1.39-7.48,2.07s-5.66,1.13-7.63,1.4A21.62,21.62,0,0,0,318.4,342.92Z"/></g></g></g></g></g><g id="Grupo_1404" data-name="Grupo 1404"><path id="Trazado_1961" data-name="Trazado 1961" class="cls-9" d="M281.52,172.71l3.27-6.74,28.48-1.08,4.47,8.76H282"/><g id="Grupo_1395" data-name="Grupo 1395"><g id="Grupo_1337" data-name="Grupo 1337"><g id="Grupo_1336" data-name="Grupo 1336"><path id="Trazado_1962" data-name="Trazado 1962" class="cls-9" d="M211.51,216.82l-14.06,13.56,36,32.22L244,237.76Z"/></g></g><g id="Grupo_1340" data-name="Grupo 1340"><g id="Grupo_1339" data-name="Grupo 1339"><g id="Grupo_1338" data-name="Grupo 1338"><path id="Trazado_1963" data-name="Trazado 1963" class="cls-9" d="M351.71,257.77,324.3,246.88l6.12-22.71,22.34,7.6Z"/></g></g></g><g id="Grupo_1354" data-name="Grupo 1354"><g id="Grupo_1343" data-name="Grupo 1343"><g id="Grupo_1342" data-name="Grupo 1342"><g id="Grupo_1341" data-name="Grupo 1341"><path id="Trazado_1964" data-name="Trazado 1964" class="cls-9" d="M235.55,263.9c-6.83-3.39-8.58-11.54-5.25-18.4l28.41-60.71a10.85,10.85,0,0,1,2.86-3.91,32.08,32.08,0,0,1,23.5-8l29.62-.78s23.27,0,32,18.34c.64,1.35,14.16,28.17,23.08,45.85A15.28,15.28,0,0,1,363,256.78a14.39,14.39,0,0,1-1.62.7h0a15.3,15.3,0,0,1-19.23-8.1l-9.69-21.6-6.1,30.94,8.78,25.5-73.45,1,5.65-34.11,1.79-24.32-14.9,30.72A13.89,13.89,0,0,1,235.68,264l-.13-.06Z"/></g></g></g><g id="Grupo_1348" data-name="Grupo 1348" class="cls-14"><g id="Grupo_1347" data-name="Grupo 1347"><g id="Grupo_1346" data-name="Grupo 1346"><g id="Grupo_1345" data-name="Grupo 1345"><g id="Grupo_1344" data-name="Grupo 1344"><path id="Trazado_1965" data-name="Trazado 1965" d="M323.89,258.13c-5.56,4.17-13.75,2.78-20.6,1.64s-13.48-4.4-17.94-9.72c-2-2.39-3.6-5.38-3.33-8.48s3-6.11,6.11-5.74c3.55.43,5.26,4.41,7,7.55a27.53,27.53,0,0,0,28.67,13.47S324.88,257.39,323.89,258.13Z"/></g></g></g></g></g><g id="Grupo_1353" data-name="Grupo 1353" class="cls-14"><g id="Grupo_1352" data-name="Grupo 1352"><g id="Grupo_1351" data-name="Grupo 1351"><g id="Grupo_1350" data-name="Grupo 1350"><g id="Grupo_1349" data-name="Grupo 1349"><path id="Trazado_1966" data-name="Trazado 1966" d="M278.54,210.33c-1.73,14-1,12.91-3.87,26.69-1.44,6.77-3.18,13.84-7.85,19l2.31-29.18Z"/></g></g></g></g></g></g><path id="Trazado_1967" data-name="Trazado 1967" class="cls-9" d="M335.15,284.22l2.1-6.13-5.47-3.64-67.38-5.56-4.74,8.92,2,7.42Z"/><g id="Grupo_1358" data-name="Grupo 1358"><g id="Grupo_1357" data-name="Grupo 1357"><g id="Grupo_1356" data-name="Grupo 1356"><g id="Grupo_1355" data-name="Grupo 1355"><path id="Trazado_1968" data-name="Trazado 1968" class="cls-7" d="M332.65,230.75a18.16,18.16,0,0,0,1.49,3.45c1,2.08,2.52,4.92,4.32,8s3.58,5.73,4.91,7.62a18.47,18.47,0,0,0,2.31,3,21.44,21.44,0,0,0-1.88-3.25c-1.23-2-2.92-4.67-4.72-7.7s-3.35-5.83-4.49-7.84A20.91,20.91,0,0,0,332.65,230.75Z"/></g></g></g></g><g id="Grupo_1362" data-name="Grupo 1362"><g id="Grupo_1361" data-name="Grupo 1361"><g id="Grupo_1360" data-name="Grupo 1360"><g id="Grupo_1359" data-name="Grupo 1359"><path id="Trazado_1969" data-name="Trazado 1969" class="cls-7" d="M339.11,242.4c-.18,0-.42,2.34.47,5.08s2.44,4.53,2.57,4.41-1.06-2-1.88-4.63S339.33,242.4,339.11,242.4Z"/></g></g></g></g><g id="Grupo_1366" data-name="Grupo 1366"><g id="Grupo_1365" data-name="Grupo 1365"><g id="Grupo_1364" data-name="Grupo 1364"><g id="Grupo_1363" data-name="Grupo 1363"><path id="Trazado_1970" data-name="Trazado 1970" class="cls-7" d="M266.5,181.3c0,.11,1.24.57,3.07,1.71a19.09,19.09,0,0,1,8.9,13.56c.32,2.13.22,3.49.34,3.5a8.91,8.91,0,0,0,.16-3.56,17.77,17.77,0,0,0-9.15-13.94A9,9,0,0,0,266.5,181.3Z"/></g></g></g></g><g id="Grupo_1370" data-name="Grupo 1370"><g id="Grupo_1369" data-name="Grupo 1369"><g id="Grupo_1368" data-name="Grupo 1368"><g id="Grupo_1367" data-name="Grupo 1367"><path id="Trazado_1971" data-name="Trazado 1971" class="cls-7" d="M326.46,259c.19,0,3.5-14,7.37-31.43s6.87-31.55,6.68-31.59-3.5,14-7.38,31.43S326.26,259,326.46,259Z"/></g></g></g></g><g id="Grupo_1374" data-name="Grupo 1374"><g id="Grupo_1373" data-name="Grupo 1373"><g id="Grupo_1372" data-name="Grupo 1372"><g id="Grupo_1371" data-name="Grupo 1371"><path id="Trazado_1972" data-name="Trazado 1972" class="cls-7" d="M228.93,240.86c.16.13,1.5-1.35,3.25-3.05s3.27-3,3.15-3.16-1.86.9-3.65,2.65S228.78,240.75,228.93,240.86Z"/></g></g></g></g><g id="Grupo_1378" data-name="Grupo 1378"><g id="Grupo_1377" data-name="Grupo 1377"><g id="Grupo_1376" data-name="Grupo 1376"><g id="Grupo_1375" data-name="Grupo 1375"><path id="Trazado_1973" data-name="Trazado 1973" class="cls-7" d="M253.62,258.65a12.64,12.64,0,0,0,1.13-1.86c.69-1.22,1.64-3,2.81-5.22,2.32-4.43,5.41-10.62,8.8-17.45s6.48-13,8.78-17.45l2.73-5.26a14.17,14.17,0,0,0,.93-2,12.67,12.67,0,0,0-1.18,1.83c-.72,1.2-1.72,3-2.93,5.16-2.42,4.38-5.6,10.52-9,17.37l-8.61,17.54c-1.05,2.16-1.93,3.95-2.6,5.32A13.08,13.08,0,0,0,253.62,258.65Z"/></g></g></g></g><g id="Grupo_1382" data-name="Grupo 1382"><g id="Grupo_1381" data-name="Grupo 1381"><g id="Grupo_1380" data-name="Grupo 1380"><g id="Grupo_1379" data-name="Grupo 1379"><path id="Trazado_1974" data-name="Trazado 1974" class="cls-7" d="M280.1,239.86s0,.17,0,.49a10.44,10.44,0,0,0,.23,1.36,17.51,17.51,0,0,0,1.83,4.74,26.85,26.85,0,0,0,12.4,11,54.22,54.22,0,0,0,16.19,4c2.12.24,3.84.38,5,.46a8.9,8.9,0,0,0,1.86,0,10.31,10.31,0,0,0-1.83-.32l-5-.68a59.23,59.23,0,0,1-16-4.2,27.43,27.43,0,0,1-12.25-10.6A26.14,26.14,0,0,1,280.1,239.86Z"/></g></g></g></g><g id="Grupo_1386" data-name="Grupo 1386"><g id="Grupo_1385" data-name="Grupo 1385"><g id="Grupo_1384" data-name="Grupo 1384"><g id="Grupo_1383" data-name="Grupo 1383"><path id="Trazado_1975" data-name="Trazado 1975" class="cls-7" d="M294.88,275.49c0,.2,9.1,1,20.34,1.79s20.39,1.27,20.4,1.07-9.1-1-20.35-1.79S294.89,275.29,294.88,275.49Z"/></g></g></g></g><g id="Grupo_1390" data-name="Grupo 1390"><g id="Grupo_1389" data-name="Grupo 1389"><g id="Grupo_1388" data-name="Grupo 1388"><g id="Grupo_1387" data-name="Grupo 1387"><path id="Trazado_1976" data-name="Trazado 1976" class="cls-7" d="M283.12,270c-.18,0-1.07,3-1.47,6.9s-.18,7.06,0,7.05.3-3.14.71-7S283.33,270.08,283.12,270Z"/></g></g></g></g><g id="Grupo_1394" data-name="Grupo 1394"><g id="Grupo_1393" data-name="Grupo 1393"><g id="Grupo_1392" data-name="Grupo 1392"><g id="Grupo_1391" data-name="Grupo 1391"><path id="Trazado_1977" data-name="Trazado 1977" class="cls-7" d="M278.4,265.63a9.17,9.17,0,0,0-.61,2.79,35.32,35.32,0,0,0,.95,13.65,9.06,9.06,0,0,0,1,2.67c.22-.06-1.07-4.21-1.42-9.5S278.62,265.67,278.4,265.63Z"/></g></g></g></g></g><g id="Grupo_1399" data-name="Grupo 1399"><g id="Grupo_1398" data-name="Grupo 1398"><g id="Grupo_1397" data-name="Grupo 1397"><g id="Grupo_1396" data-name="Grupo 1396"><path id="Trazado_1978" data-name="Trazado 1978" class="cls-7" d="M281.45,173.19c0,.2,6.59,0,14.69-.46s14.66-1,14.65-1.19-6.59,0-14.7.47S281.43,173,281.45,173.19Z"/></g></g></g></g><g id="Grupo_1402" data-name="Grupo 1402"><g id="Grupo_1401" data-name="Grupo 1401"><g id="Grupo_1400" data-name="Grupo 1400"><path id="Trazado_1979" data-name="Trazado 1979" class="cls-7" d="M283.17,172.72a7.93,7.93,0,0,1-1,.14l-2.75.43-4.32.76a19.1,19.1,0,0,0-5.49,1.68,28.11,28.11,0,0,0-5.82,3.82,23,23,0,0,0-5,6.19c-2.52,5.06-5.11,10.81-7.95,16.74-5.62,11.87-10.71,22.61-14.44,30.47L232,242.16c-.51,1-.93,1.85-1.24,2.49a4.67,4.67,0,0,1-.48.84,4.93,4.93,0,0,1,.35-.9l1.11-2.55c1-2.27,2.47-5.43,4.23-9.3,3.59-7.85,8.63-18.65,14.26-30.56,2.84-6,5.42-11.63,8-16.76a23.58,23.58,0,0,1,5.18-6.32,27.92,27.92,0,0,1,6-3.83,19,19,0,0,1,5.63-1.61c1.69-.27,3.16-.49,4.36-.65s2.13-.25,2.76-.29A4,4,0,0,1,283.17,172.72Z"/></g></g></g><g id="Grupo_1403" data-name="Grupo 1403"><path id="Trazado_1980" data-name="Trazado 1980" class="cls-15" d="M261.53,246.39l-.3,0-.86-.12c-.75-.11-1.82-.29-3.15-.53a43.79,43.79,0,0,1-10.1-3,21.17,21.17,0,0,1-8.25-6.47,12.37,12.37,0,0,1-2-3.87s.18.38.51,1.05a15.93,15.93,0,0,0,1.68,2.69,21.71,21.71,0,0,0,8.21,6.34,46.93,46.93,0,0,0,10,3l3.13.62.85.18A1,1,0,0,1,261.53,246.39Z"/><path id="Trazado_1981" data-name="Trazado 1981" class="cls-15" d="M229.87,230.11a5.16,5.16,0,0,1-.79.24,20.72,20.72,0,0,0-2.14.66,24,24,0,0,0-11.56,8.82,22.27,22.27,0,0,0-1.21,1.89,4.31,4.31,0,0,1-.44.7,4.75,4.75,0,0,1,.34-.76,19.07,19.07,0,0,1,1.14-1.95,22.54,22.54,0,0,1,11.66-8.89,14.9,14.9,0,0,1,2.18-.58A4.66,4.66,0,0,1,229.87,230.11Z"/><path id="Trazado_1982" data-name="Trazado 1982" class="cls-15" d="M276.28,212.3a.62.62,0,0,1-.27,0l-.78-.06c-.68-.05-1.65-.18-2.85-.38a45.43,45.43,0,0,1-17.52-7c-1-.67-1.8-1.25-2.33-1.67l-.61-.49c-.14-.12-.21-.18-.2-.19a1.09,1.09,0,0,1,.23.14l.65.45c.54.4,1.35.94,2.37,1.6a49.37,49.37,0,0,0,17.45,6.92c1.19.22,2.15.38,2.82.47l.77.11A.76.76,0,0,1,276.28,212.3Z"/><path id="Trazado_1983" data-name="Trazado 1983" class="cls-15" d="M338.68,181.43s-.91-.17-2.58-.25a31.87,31.87,0,0,0-7,.47c-2.95.46-6.4,1.36-10.27,2.16a50.16,50.16,0,0,1-12.82,1c-4.57-.19-8.89-.72-12.82-1.09a87.17,87.17,0,0,0-10.47-.49,43.65,43.65,0,0,0-7,.73l-1.87.45c-.43.1-.66.13-.66.13l.64-.19,1.87-.49a41.65,41.65,0,0,1,7-.84,83.59,83.59,0,0,1,10.5.44c3.94.35,8.26.88,12.81,1.06a50,50,0,0,0,12.75-1c3.87-.79,7.33-1.66,10.29-2.1a31.67,31.67,0,0,1,7.08-.38,15.34,15.34,0,0,1,1.91.24A5.75,5.75,0,0,1,338.68,181.43Z"/><path id="Trazado_1984" data-name="Trazado 1984" class="cls-15" d="M335.37,216.86l-.6.07-1.74.13-6.39.45c-5.4.33-12.86.94-21.12,1.11a108.7,108.7,0,0,1-21.09-1.37,57.41,57.41,0,0,1-8.5-2.12l.59.14,1.68.45c1.47.37,3.6.86,6.26,1.33a114.07,114.07,0,0,0,21.05,1.29c8.25-.18,15.71-.76,21.11-1L333,217l1.74-.08C335.16,216.85,335.37,216.86,335.37,216.86Z"/><path id="Trazado_1985" data-name="Trazado 1985" class="cls-15" d="M361.32,220.23a1.06,1.06,0,0,1-.19.23l-.58.64c-.5.55-1.26,1.31-2.25,2.2a42.79,42.79,0,0,1-18.22,9.64,30.78,30.78,0,0,1-3.09.63l-.85.12a1,1,0,0,1-.3,0,1.57,1.57,0,0,1,.29-.08l.84-.17c.73-.14,1.78-.38,3.06-.72a45.32,45.32,0,0,0,18.13-9.6c1-.87,1.79-1.6,2.31-2.12l.62-.6A1.06,1.06,0,0,1,361.32,220.23Z"/><path id="Trazado_1986" data-name="Trazado 1986" class="cls-15" d="M349.16,198.87s-.1.15-.33.37a12.25,12.25,0,0,1-1,.9,18.9,18.9,0,0,1-8,3.74,12,12,0,0,1-1.34.2,1.67,1.67,0,0,1-.5,0s.69-.15,1.79-.42a21.9,21.9,0,0,0,7.94-3.71C348.61,199.3,349.13,198.84,349.16,198.87Z"/><path id="Trazado_1987" data-name="Trazado 1987" class="cls-15" d="M371.05,242.48a20.17,20.17,0,0,1-2.75,3.22,26.86,26.86,0,0,1-3.58,2.9,27.54,27.54,0,0,1-10.4,4.24,27,27,0,0,1-4.58.43,20.57,20.57,0,0,1-4.22-.37,1.4,1.4,0,0,1,.29,0l.84.07a22.69,22.69,0,0,0,3.08.09,28.09,28.09,0,0,0,18.43-7.51,25,25,0,0,0,2.14-2.22l.55-.63A2.09,2.09,0,0,1,371.05,242.48Z"/><path id="Trazado_1988" data-name="Trazado 1988" class="cls-15" d="M315.52,167.73a1.22,1.22,0,0,1-.33,0l-.95,0-3.5-.14c-3-.1-7.05-.1-11.55.17s-8.57.79-11.49,1.25l-3.46.57-.94.16a1.24,1.24,0,0,1-.33,0,1.19,1.19,0,0,1,.32-.1l.93-.21c.81-.18,2-.41,3.45-.66a106.72,106.72,0,0,1,23.07-1.43c1.49.08,2.68.16,3.5.24l.95.1A1.75,1.75,0,0,1,315.52,167.73Z"/><path id="Trazado_1989" data-name="Trazado 1989" class="cls-15" d="M280.25,246a1.81,1.81,0,0,1-.52,0c-.33,0-.81-.1-1.4-.2a22.33,22.33,0,0,1-8.57-3.6c-.48-.35-.87-.64-1.12-.86a2.68,2.68,0,0,1-.38-.36,19,19,0,0,1,1.62,1.05,26.27,26.27,0,0,0,8.49,3.57C279.53,245.89,280.26,246,280.25,246Z"/><path id="Trazado_1990" data-name="Trazado 1990" class="cls-15" d="M327.68,251.48a2.7,2.7,0,0,1-.41.07l-1.18.14c-1,.12-2.51.27-4.35.43-3.67.32-8.76.65-14.39.78s-10.73,0-14.41-.12c-1.85-.07-3.34-.15-4.37-.22l-1.18-.09a2.7,2.7,0,0,1-.41-.05,1.86,1.86,0,0,1,.41,0l1.19,0,4.36.14c3.69.1,8.78.16,14.4,0s10.71-.43,14.39-.7l4.35-.34,1.18-.08A2,2,0,0,1,327.68,251.48Z"/><path id="Trazado_1991" data-name="Trazado 1991" class="cls-15" d="M277.32,277.89a3.22,3.22,0,0,1-.68.17c-.45.1-1.1.21-1.9.32a44.38,44.38,0,0,1-12.66-.08c-.8-.12-1.45-.24-1.9-.34a4,4,0,0,1-.68-.18,3.26,3.26,0,0,1,.7.07l1.9.25a54.27,54.27,0,0,0,12.61.08l1.9-.23A4.17,4.17,0,0,1,277.32,277.89Z"/><path id="Trazado_1992" data-name="Trazado 1992" class="cls-15" d="M281.78,275.11a5,5,0,0,0-4-1.39A3.35,3.35,0,0,1,281.78,275.11Z"/><path id="Trazado_1993" data-name="Trazado 1993" class="cls-15" d="M326.12,278.46a3.15,3.15,0,0,1-.44.11l-1.27.25c-1.11.21-2.72.48-4.72.78A155.63,155.63,0,0,1,288.21,281c-2-.12-3.64-.24-4.77-.36l-1.29-.13a2.34,2.34,0,0,1-.45-.07,3.57,3.57,0,0,1,.46,0l1.3.08c1.12.08,2.75.18,4.76.27,4,.18,9.6.28,15.76,0s11.69-.87,15.68-1.42c2-.27,3.62-.51,4.73-.69l1.28-.2A2.3,2.3,0,0,1,326.12,278.46Z"/></g></g></g></g></g></g></g></g></svg>