<svg xmlns="http://www.w3.org/2000/svg" viewBox="0 0 427.92 615.14"><defs><style>.cls-1{fill:#fd9100;}.cls-12,.cls-2{fill:none;}.cls-2{stroke:#707070;}.cls-10,.cls-17,.cls-21,.cls-22,.cls-3,.cls-4,.cls-6,.cls-7,.cls-8,.cls-9{isolation:isolate;}.cls-4{font-size:77px;font-family:QuicksandBold-Regular, Quicksand;}.cls-17,.cls-21,.cls-22,.cls-4{fill:#fff;}.cls-5{fill:#27debf;}.cls-6{opacity:0.3;}.cls-21,.cls-7{opacity:0.4;}.cls-8{opacity:0.2;}.cls-9{opacity:0.15;}.cls-10,.cls-19{opacity:0.25;}.cls-11{fill:#455a64;}.cls-13{fill:#fafafa;}.cls-14{fill:#e0e0e0;}.cls-15{fill:#ffa8a7;}.cls-16{fill:#263238;}.cls-17{opacity:0.65;}.cls-18{fill:#f28f8f;}.cls-20{fill:#37474f;}.cls-22{opacity:0.6;}</style></defs><g id="Capa_2" data-name="Capa 2"><g id="Capa_1-2" data-name="Capa 1"><g id="Grupo_907" data-name="Grupo 907"><g id="Elipse_232" data-name="Elipse 232"><circle class="cls-1" cx="371.92" cy="56" r="56"/><circle class="cls-2" cx="371.92" cy="56" r="55.5"/></g><g id="_1-2" data-name=" 1-2" class="cls-3"><text class="cls-4" transform="translate(355.92 82)">1</text></g></g><g id="Gears"><g id="Gears-2"><g id="Grupo_908" data-name="Grupo 908"><path id="Trazado_1736" data-name="Trazado 1736" class="cls-5" d="M22.08,557.65l0,22.54a1.66,1.66,0,0,0,1.54,1.64l11.75.74v16.56h0A1,1,0,0,0,36,600l12.38,7.15a3,3,0,0,0,1.57.32v0a2.93,2.93,0,0,0,1.17-.22l12.56-5.82a4.62,4.62,0,0,1,2.87-.17,75.53,75.53,0,0,0,9.75,2.32,2.36,2.36,0,0,1,1.81,1.76l1.58,8.27a1.86,1.86,0,0,0,.68,1.09h0a1.86,1.86,0,0,0,1.15.43H99.73a1.76,1.76,0,0,0,1-.4,1.21,1.21,0,0,0,.24-.21,1.86,1.86,0,0,0,.26-.23v-.18c.1-.17.26-.3.3-.5l1.57-8.27a2.37,2.37,0,0,1,1.81-1.77,73.88,73.88,0,0,0,9.75-2.31,4.55,4.55,0,0,1,2.87.17l12.56,5.82a3.26,3.26,0,0,0,.76.12v.09h.77a2.87,2.87,0,0,0,1.18-.31h0L145.25,600a1.18,1.18,0,0,0,.44-.42l0,0a.75.75,0,0,0,.1-.33s0,0,0-.05h0v-7h0v-9.51h0l11.54-.73.21,0c.12,0,.19-.11.3-.14a1.69,1.69,0,0,0,.79-.37,1.79,1.79,0,0,0,.24-.59c.07-.18.21-.32.22-.52h0V571h0v-11.8h0V550a1.66,1.66,0,0,0-1.55-1.64l-11.76-.75,0-16.54v0a1,1,0,0,0-.58-.89L132.86,523a3.36,3.36,0,0,0-2.74-.12l-12.55,5.81a4.66,4.66,0,0,1-2.88.17,75.78,75.78,0,0,0-9.74-2.32,2.36,2.36,0,0,1-1.82-1.76l-1.57-8.27A1.94,1.94,0,0,0,99.73,515H81.51a1.94,1.94,0,0,0-1.83,1.52l-1.57,8.27a2.38,2.38,0,0,1-1.82,1.77,74.11,74.11,0,0,0-9.74,2.31,4.66,4.66,0,0,1-2.88-.17l-12.55-5.82a3.36,3.36,0,0,0-2.74.13L36,530.17a1,1,0,0,0-.57.9h0v16.5l-11.74.74A1.67,1.67,0,0,0,22.12,550v7.37C22.1,557.44,22.09,557.55,22.08,557.65Zm47.61,5.85c11.56-6.67,30.3-6.67,41.85,0,.88.51,1.68,1,2.43,1.55a23.06,23.06,0,0,1-2.43,1.59c-11.55,6.67-30.3,6.67-41.85,0a27.13,27.13,0,0,1-2.42-1.58c.74-.53,1.54-1,2.42-1.56Z"/><path id="Trazado_1737" data-name="Trazado 1737" class="cls-6" d="M22.08,557.66l0,22.53a1.67,1.67,0,0,0,1.55,1.64l11.75.74v16.56A1,1,0,0,0,36,600l12.39,7.14a3,3,0,0,0,1.56.33v0a2.93,2.93,0,0,0,1.17-.22l12.56-5.82a3.7,3.7,0,0,1,1.18-.28h0a4.37,4.37,0,0,1,1.69.12,73.88,73.88,0,0,0,9.75,2.31,2.37,2.37,0,0,1,.77.32V604a2.26,2.26,0,0,1,1,1.36l1.58,8.27a1.84,1.84,0,0,0,.68,1.08h0a1.86,1.86,0,0,0,1.15.43H99.72l.34,0a2,2,0,0,0,1.2-.79v-.19c.1-.17.27-.3.3-.5l1.57-8.27a2.17,2.17,0,0,1,.74-1.19v0a2.27,2.27,0,0,1,1.08-.55,73.77,73.77,0,0,0,9.74-2.32,4.78,4.78,0,0,1,1.92-.09v.05a3.94,3.94,0,0,1,1,.22l12.56,5.82a2.4,2.4,0,0,0,.75.12v.09h0a3.32,3.32,0,0,0,2-.33h0L145.25,600l.27-.2a2.43,2.43,0,0,0,.2-.25.89.89,0,0,0,.11-.36V582.59l2.15-.15,9.38-.59.21,0h0a1.66,1.66,0,0,0,1.54-1.61V559.16a1.65,1.65,0,0,1-1.54,1.64l-16.51,1.05a3.08,3.08,0,0,0-2.23,1.48,24.3,24.3,0,0,1-3.51,4.87,1.3,1.3,0,0,0,0,1.84l.2.17,9.81,7.06a.92.92,0,0,1-.08,1.68l-12.39,7.16a3.32,3.32,0,0,1-2.74.11l-12.55-5.81a4.59,4.59,0,0,0-2.88-.17,75.53,75.53,0,0,1-9.75,2.32,2.35,2.35,0,0,0-1.81,1.75l-1.57,8.28a2,2,0,0,1-1.84,1.52H81.51a1.93,1.93,0,0,1-1.83-1.52l-1.58-8.28a2.35,2.35,0,0,0-1.8-1.75,74.47,74.47,0,0,1-9.76-2.33,4.62,4.62,0,0,0-2.87.18l-12.56,5.81a3.3,3.3,0,0,1-2.73-.11L36,579a.91.91,0,0,1-.51-1.2.92.92,0,0,1,.42-.47l9.83-7.07a1.32,1.32,0,0,0,.33-1.83,1.46,1.46,0,0,0-.16-.19,24.58,24.58,0,0,1-3.5-4.86,3.05,3.05,0,0,0-2.23-1.48l-16.51-1a1.67,1.67,0,0,1-1.54-1.65v-1.84A1.86,1.86,0,0,0,22.08,557.66Z"/><path id="Trazado_1738" data-name="Trazado 1738" class="cls-6" d="M35.41,531.07v16.5l4.76-.3a3,3,0,0,0,2.23-1.48,24.7,24.7,0,0,1,3.5-4.86,1.31,1.31,0,0,0,0-1.85,1.51,1.51,0,0,0-.2-.17l-9.83-7.06a1.1,1.1,0,0,1-.48-.77Z"/><path id="Trazado_1739" data-name="Trazado 1739" class="cls-7" d="M67.28,565.06l1.06-.73.13-.08c.39-.25.8-.5,1.22-.74,11.56-6.68,30.3-6.68,41.86,0,.37.21.74.43,1.1.66s.9.58,1.32.9c9.07-6.71,8.27-16.42-2.42-22.59-11.55-6.67-30.3-6.67-41.85,0C59,548.65,58.2,558.36,67.28,565.06Z"/><path id="Trazado_1740" data-name="Trazado 1740" class="cls-6" d="M135.33,540.92a24.63,24.63,0,0,1,3.51,4.86,3,3,0,0,0,2.23,1.49l4.75.3V531a1,1,0,0,1-.5.81l-9.81,7.07a1.3,1.3,0,0,0-.34,1.82A.7.7,0,0,0,135.33,540.92Z"/><path id="Trazado_1741" data-name="Trazado 1741" class="cls-5" d="M130.12,522.89l-12.55,5.82a4.65,4.65,0,0,1-2.88.17,75.78,75.78,0,0,0-9.74-2.32,2.36,2.36,0,0,1-1.82-1.76l-1.57-8.27A1.94,1.94,0,0,0,99.73,515H81.51a1.94,1.94,0,0,0-1.83,1.52l-1.57,8.27a2.36,2.36,0,0,1-1.82,1.76,75.78,75.78,0,0,0-9.74,2.32,4.66,4.66,0,0,1-2.88-.17l-12.55-5.82a3.36,3.36,0,0,0-2.74.13L36,530.17a.93.93,0,0,0-.52,1.2,1,1,0,0,0,.43.47l9.82,7.07a1.31,1.31,0,0,1,.35,1.82,1,1,0,0,1-.17.19,25,25,0,0,0-3.5,4.86,3.07,3.07,0,0,1-2.23,1.49l-16.51,1A1.67,1.67,0,0,0,22.12,550v9.21a1.67,1.67,0,0,0,1.54,1.65l16.51,1a3.05,3.05,0,0,1,2.23,1.48,24.34,24.34,0,0,0,3.51,4.86,1.32,1.32,0,0,1,0,1.86,1.08,1.08,0,0,1-.2.16l-9.81,7.06a.93.93,0,0,0-.39,1.25A1,1,0,0,0,36,579l12.39,7.15a3.32,3.32,0,0,0,2.74.12l12.56-5.82a4.62,4.62,0,0,1,2.87-.17,74.15,74.15,0,0,0,9.74,2.32,2.39,2.39,0,0,1,1.82,1.76l1.57,8.28a2,2,0,0,0,1.83,1.52H99.73a1.94,1.94,0,0,0,1.83-1.52l1.57-8.27a2.39,2.39,0,0,1,1.81-1.77,73.88,73.88,0,0,0,9.75-2.31,4.59,4.59,0,0,1,2.88.17l12.55,5.81a3.32,3.32,0,0,0,2.74-.12L145.25,579a.92.92,0,0,0,.51-1.2,1,1,0,0,0-.43-.48l-9.81-7.06a1.3,1.3,0,0,1-.35-1.81.82.82,0,0,1,.17-.2,25.06,25.06,0,0,0,3.5-4.87,3.08,3.08,0,0,1,2.23-1.48l16.51-1a1.67,1.67,0,0,0,1.54-1.64V550a1.67,1.67,0,0,0-1.54-1.65l-16.51-1a3.05,3.05,0,0,1-2.23-1.48,24.29,24.29,0,0,0-3.5-4.86,1.31,1.31,0,0,1,0-1.86,1.56,1.56,0,0,1,.2-.16l9.81-7.06a.92.92,0,0,0,.39-1.25.94.94,0,0,0-.47-.43L132.86,523A3.36,3.36,0,0,0,130.12,522.89Zm-18.58,19.59c11.56,6.67,11.56,17.49,0,24.16s-30.3,6.67-41.85,0-11.56-17.49,0-24.16,30.3-6.67,41.86,0Z"/><path id="Trazado_1742" data-name="Trazado 1742" class="cls-5" d="M145.83,578.1a1.06,1.06,0,0,0-.5-.83l-4.94-3.56V562a2.32,2.32,0,0,1,.68-.16l16.51-1.05a1.66,1.66,0,0,0,1.54-1.64v21.05a1.68,1.68,0,0,1-1.54,1.62h-.22l-9.39.6-2.15.14S145.83,578.42,145.83,578.1Z"/><path id="Trazado_1743" data-name="Trazado 1743" class="cls-8" d="M145.83,578.1a1.06,1.06,0,0,0-.5-.83l-4.94-3.56V562a2.32,2.32,0,0,1,.68-.16l16.51-1.05a1.66,1.66,0,0,0,1.54-1.64v21.05a1.68,1.68,0,0,1-1.54,1.62h-.22l-9.39.6-2.15.14S145.83,578.42,145.83,578.1Z"/><path id="Trazado_1744" data-name="Trazado 1744" class="cls-5" d="M116.62,580.15a3.43,3.43,0,0,1,.95.26l12.55,5.81a3.28,3.28,0,0,0,1.61.2v21a3.93,3.93,0,0,1-.84,0h0v-.09a2.46,2.46,0,0,1-.76-.12l-12.56-5.82a3.77,3.77,0,0,0-.94-.21Z"/><path id="Trazado_1745" data-name="Trazado 1745" class="cls-8" d="M116.62,580.15a3.43,3.43,0,0,1,.95.26l12.55,5.81a3.28,3.28,0,0,0,1.61.2v21a3.93,3.93,0,0,1-.84,0h0v-.09a2.46,2.46,0,0,1-.76-.12l-12.56-5.82a3.77,3.77,0,0,0-.94-.21Z"/><path id="Trazado_1746" data-name="Trazado 1746" class="cls-5" d="M101.32,593.18a1.6,1.6,0,0,0,.24-.59l1.57-8.28a1.89,1.89,0,0,1,.25-.63v21a1.76,1.76,0,0,0-.25.62l-1.57,8.27a1,1,0,0,1-.24.4Z"/><path id="Trazado_1747" data-name="Trazado 1747" class="cls-8" d="M101.32,593.18a1.6,1.6,0,0,0,.24-.59l1.57-8.28a1.89,1.89,0,0,1,.25-.63v21a1.76,1.76,0,0,0-.25.62l-1.57,8.27a1,1,0,0,1-.24.4Z"/><path id="Trazado_1748" data-name="Trazado 1748" class="cls-9" d="M77.86,583.69a1.74,1.74,0,0,1,.24.62l1.58,8.28a1.72,1.72,0,0,0,.24.6v21a1.49,1.49,0,0,1-.24-.58l-1.58-8.28a1.47,1.47,0,0,0-.24-.56Z"/><path id="Trazado_1749" data-name="Trazado 1749" class="cls-9" d="M49.51,586.42a3,3,0,0,0,1.6-.2l12.56-5.81a3.42,3.42,0,0,1,1-.25v21a3.42,3.42,0,0,0-1,.25l-12.56,5.81a2.94,2.94,0,0,1-1.17.23v0h-.43Z"/><path id="Trazado_1750" data-name="Trazado 1750" class="cls-9" d="M23.66,560.81l16.51,1a2.25,2.25,0,0,1,.68.16v11.7l-5,3.56a1,1,0,0,0-.49.83v4.47l-11.75-.74a1.66,1.66,0,0,1-1.54-1.64l0-22.54a1.26,1.26,0,0,1,.05-.33v1.84A1.66,1.66,0,0,0,23.66,560.81Z"/></g><g id="Grupo_911" data-name="Grupo 911"><path id="Trazado_1751" data-name="Trazado 1751" class="cls-5" d="M236.37,494.55v0h0a.75.75,0,0,0-.09-.29h0c0-5.22,0-14.28,0-14.85v0a1.21,1.21,0,0,0-.26-.71l-4.63-6.47a2.22,2.22,0,0,0-1.91-.9l-12.12,2a3.74,3.74,0,0,1-2.31-.66c-.76-.52-1.57-1-2.4-1.51v-9.62c0-.39-.36-.76-1-.9l-12.3-2.95a2.34,2.34,0,0,0-2,.38l-5.88,6.19a2.83,2.83,0,0,1-1.94.6,64.87,64.87,0,0,0-8,0,3.14,3.14,0,0,1-2.16-.93l-5.27-5.54a2.4,2.4,0,0,0-2-.76l-12.79,3.05a.85.85,0,0,0-.66.84v.05c0,.53,0,5.1,0,9.55a32.72,32.72,0,0,0-2.85,1.82,3.33,3.33,0,0,1-2.1.36l-11.74-2a2.11,2.11,0,0,0-1.87.54L135,479a.63.63,0,0,0-.1.32v.05c0,1.08,0,18.34,0,18.45a.67.67,0,0,0,.1.3c0,5.3,0,14.61,0,14.84a1.3,1.3,0,0,0,.27.75l4.63,6.46a2.22,2.22,0,0,0,1.91.9l12.12-2a3.8,3.8,0,0,1,2.31.66c.76.53,1.56,1,2.41,1.53v9.6c0,.39.36.77,1,.92l12.29,2.94a2.28,2.28,0,0,0,2-.38l5.88-6.19a2.83,2.83,0,0,1,1.94-.6,64.87,64.87,0,0,0,8,0,3.16,3.16,0,0,1,2.15.93l5.28,5.55a2.46,2.46,0,0,0,2,.76l12.78-3.06a.83.83,0,0,0,.66-.7c0-.21,0-9.74,0-9.74,1-.57,2-1.17,2.86-1.81a3.2,3.2,0,0,1,2.1-.36l11.74,2a2.09,2.09,0,0,0,1.86-.55l5.1-7.1a.57.57,0,0,0,.11-.33c0-.33,0-17.81,0-18.46Zm-68.44.37a20.43,20.43,0,0,1,1.82-1.16c8.79-5.08,23-5.07,31.81,0,.63.37,1.24.75,1.78,1.14a16.32,16.32,0,0,1-1.93,1.25c-6.24,3.55-15.79,4.8-24.4,2.75a27.08,27.08,0,0,1-7.21-2.76,17.77,17.77,0,0,1-1.88-1.22Z"/><path id="Trazado_1752" data-name="Trazado 1752" class="cls-6" d="M236.37,494.55v0h0a.75.75,0,0,0-.09-.29h0c0-5.22,0-14.28,0-14.85v0a1.21,1.21,0,0,0-.26-.71l-4.63-6.47a2.22,2.22,0,0,0-1.91-.9l-12.12,2a3.74,3.74,0,0,1-2.31-.66c-.76-.52-1.57-1-2.4-1.51v-9.62c0-.39-.36-.76-1-.9l-12.3-2.95a2.34,2.34,0,0,0-2,.38l-5.88,6.19a2.83,2.83,0,0,1-1.94.6,64.87,64.87,0,0,0-8,0,3.14,3.14,0,0,1-2.16-.93l-5.27-5.54a2.4,2.4,0,0,0-2-.76l-12.79,3.05a.85.85,0,0,0-.66.84v.05c0,.53,0,5.1,0,9.55a32.72,32.72,0,0,0-2.85,1.82,3.33,3.33,0,0,1-2.1.36l-11.74-2a2.11,2.11,0,0,0-1.87.54L135,479a.63.63,0,0,0-.1.32v.05c0,1.08,0,18.34,0,18.45a.67.67,0,0,0,.1.3c0,5.3,0,14.61,0,14.84a1.3,1.3,0,0,0,.27.75l4.63,6.46a2.22,2.22,0,0,0,1.91.9l12.12-2a3.8,3.8,0,0,1,2.31.66c.76.53,1.56,1,2.41,1.53v9.6c0,.39.36.77,1,.92l12.29,2.94a2.28,2.28,0,0,0,2-.38l5.88-6.19a2.83,2.83,0,0,1,1.94-.6,64.87,64.87,0,0,0,8,0,3.16,3.16,0,0,1,2.15.93l5.28,5.55a2.46,2.46,0,0,0,2,.76l12.78-3.06a.83.83,0,0,0,.66-.7c0-.21,0-9.74,0-9.74,1-.57,2-1.17,2.86-1.81a3.2,3.2,0,0,1,2.1-.36l11.74,2a2.09,2.09,0,0,0,1.86-.55l5.1-7.1a.57.57,0,0,0,.11-.33c0-.33,0-17.81,0-18.46Zm-68.44.37a20.43,20.43,0,0,1,1.82-1.16c8.79-5.08,23-5.07,31.81,0,.63.37,1.24.75,1.78,1.14a16.32,16.32,0,0,1-1.93,1.25c-6.24,3.55-15.79,4.8-24.4,2.75a27.08,27.08,0,0,1-7.21-2.76,17.77,17.77,0,0,1-1.88-1.22Z"/><g id="Grupo_909" data-name="Grupo 909"><path id="Trazado_1753" data-name="Trazado 1753" class="cls-5" d="M134.88,479.27s0,0,0,0v-.05s0-.08,0-.12A.3.3,0,0,0,134.88,479.27Z"/></g><path id="Trazado_1754" data-name="Trazado 1754" class="cls-6" d="M161.46,469.67c-1,.45-1.92.93-2.82,1.45,0-4.46,0-9,0-9.56a1.07,1.07,0,0,0,.14.49l3.06,6.07a1.12,1.12,0,0,1-.36,1.53Z"/><path id="Trazado_1755" data-name="Trazado 1755" class="cls-9" d="M147.37,484.84a12.55,12.55,0,0,0,0,4,1.3,1.3,0,0,1-.82,1.42l-11.06,3.5a.7.7,0,0,0-.52.7c0,.22,0,3.6,0,3.6a.66.66,0,0,1-.09-.27c0-6.28,0-16.79,0-17.7v-.77c0,.33.35.66.89.83l10.45,3.31A1.43,1.43,0,0,1,147.37,484.84Z"/><path id="Trazado_1756" data-name="Trazado 1756" class="cls-9" d="M154.3,500.48V519a2.26,2.26,0,0,0-.45,0l-12.11,2a1.44,1.44,0,0,1-.62,0V502.5a1.54,1.54,0,0,0,.64,0l12.12-2A2,2,0,0,1,154.3,500.48Z"/><path id="Trazado_1757" data-name="Trazado 1757" class="cls-10" d="M158.57,521.16c-.84-.49-1.65-1-2.4-1.52a4.22,4.22,0,0,0-1.87-.67V500.48a4.21,4.21,0,0,1,1.89.69A36.72,36.72,0,0,0,161.1,504c.72.35,1.12,1,.89,1.45l-3.33,6.6a.52.52,0,0,0-.07.27C158.59,512.69,158.57,521.16,158.57,521.16Z"/><path id="Trazado_1758" data-name="Trazado 1758" class="cls-9" d="M180.44,509.16v18.48a1.86,1.86,0,0,0-.75.42l-5.88,6.19a1.91,1.91,0,0,1-1.07.43V516.19a1.68,1.68,0,0,0,1.1-.42l5.89-6.2A1.74,1.74,0,0,1,180.44,509.16Z"/><path id="Trazado_1759" data-name="Trazado 1759" class="cls-10" d="M190.41,509.08v18.49a2.53,2.53,0,0,0-.77-.12,69,69,0,0,1-8,0,3,3,0,0,0-1.19.18V509.16a3.33,3.33,0,0,1,1.21-.19,66.89,66.89,0,0,0,8,0A2.1,2.1,0,0,1,190.41,509.08Z"/><path id="Trazado_1760" data-name="Trazado 1760" class="cls-9" d="M198.25,516.14v18.47a2.62,2.62,0,0,1-1.18-.69l-5.27-5.54a3.26,3.26,0,0,0-1.39-.81V509.08a3.49,3.49,0,0,1,1.42.82l5.27,5.54A2.73,2.73,0,0,0,198.25,516.14Z"/><path id="Trazado_1761" data-name="Trazado 1761" class="cls-5" d="M212.58,512.46v8.72h0v5.1c0,2.3,0,4.54,0,4.64a.83.83,0,0,1-.65.7l-12.79,3a1.71,1.71,0,0,1-.87-.06V516.14a1.82,1.82,0,0,0,.9.06l12.78-3.06A.79.79,0,0,0,212.58,512.46Z"/><path id="Trazado_1762" data-name="Trazado 1762" class="cls-8" d="M212.58,512.46v8.72h0v5.1c0,2.3,0,4.54,0,4.64a.83.83,0,0,1-.65.7l-12.79,3a1.71,1.71,0,0,1-.87-.06V516.14a1.82,1.82,0,0,0,.9.06l12.78-3.06A.79.79,0,0,0,212.58,512.46Z"/><path id="Trazado_1763" data-name="Trazado 1763" class="cls-9" d="M216.71,500.51V519a2.77,2.77,0,0,0-1.28.39,32.51,32.51,0,0,1-2.85,1.8s0-8.47,0-8.87a1.25,1.25,0,0,0-.13-.53l-3.07-6.08a1.1,1.1,0,0,1,.34-1.52l0,0a35.54,35.54,0,0,0,5.68-3.26A2.56,2.56,0,0,1,216.71,500.51Z"/><path id="Trazado_1764" data-name="Trazado 1764" class="cls-5" d="M236.36,494.55c0,.64,0,18.12,0,18.46a.57.57,0,0,1-.11.33l-5.1,7.1a1.48,1.48,0,0,1-.87.5V502.47a1.55,1.55,0,0,0,.9-.51l5.08-7.1A.45.45,0,0,0,236.36,494.55Z"/><path id="Trazado_1765" data-name="Trazado 1765" class="cls-5" d="M236.36,494.55c0,.64,0,18.12,0,18.46a.57.57,0,0,1-.11.33l-5.1,7.1a1.48,1.48,0,0,1-.87.5V502.47a1.55,1.55,0,0,0,.9-.51l5.08-7.1A.45.45,0,0,0,236.36,494.55Z"/><path id="Trazado_1766" data-name="Trazado 1766" class="cls-8" d="M236.36,494.55c0,.64,0,18.12,0,18.46a.57.57,0,0,1-.11.33l-5.1,7.1a1.48,1.48,0,0,1-.87.5V502.47a1.55,1.55,0,0,0,.9-.51l5.08-7.1A.45.45,0,0,0,236.36,494.55Z"/><g id="Grupo_910" data-name="Grupo 910"><path id="Trazado_1767" data-name="Trazado 1767" class="cls-5" d="M158.65,461.52v0a1.2,1.2,0,0,0,.14.49l3.06,6.07a1.11,1.11,0,0,1-.34,1.52l0,0c-1,.45-1.93.94-2.83,1.45a32.61,32.61,0,0,0-2.85,1.81,3.26,3.26,0,0,1-2.1.36l-11.74-2a2.11,2.11,0,0,0-1.87.55L135,479a.5.5,0,0,0-.1.31v.06c0,.33.35.65.89.82l10.45,3.31a1.45,1.45,0,0,1,1.14,1.39,12.48,12.48,0,0,0,0,4,1.33,1.33,0,0,1-.82,1.42l-11.06,3.5a.7.7,0,0,0-.52.7,1.39,1.39,0,0,0,.26.71l4.65,6.46a2.16,2.16,0,0,0,1.91.9l12.11-2a3.66,3.66,0,0,1,2.31.66A35.66,35.66,0,0,0,161.1,504c.72.36,1.12,1,.88,1.46l-3.33,6.6c-.23.47.17,1,.9,1.17l12.3,2.93a2.29,2.29,0,0,0,2-.37l5.89-6.19a2.78,2.78,0,0,1,1.92-.61,66.89,66.89,0,0,0,8,0,3.21,3.21,0,0,1,2.17.93l5.27,5.55a2.46,2.46,0,0,0,2.05.76l12.78-3.06a.9.9,0,0,0,.65-1.09,1,1,0,0,0-.12-.28l-3.07-6.08a1.11,1.11,0,0,1,.35-1.52l0,0a35.54,35.54,0,0,0,5.68-3.26,3.21,3.21,0,0,1,2.1-.37l11.74,2a2.07,2.07,0,0,0,1.87-.55l5.09-7.1a.45.45,0,0,0,.1-.31h0v0a.54.54,0,0,0-.08-.28h0a1.38,1.38,0,0,0-.8-.56L225,490.37c-.73-.24-1.23-.85-1.14-1.39a12.78,12.78,0,0,0,0-4,1.28,1.28,0,0,1,.82-1.41l11.07-3.51a.68.68,0,0,0,.5-.67v0a1.18,1.18,0,0,0-.25-.71l-4.64-6.46a2.22,2.22,0,0,0-1.91-.9l-12.12,2a3.74,3.74,0,0,1-2.31-.66c-.76-.52-1.57-1-2.4-1.51s-1.64-.9-2.5-1.32-1.13-1-.89-1.44l3.34-6.61a.47.47,0,0,0,.05-.26c0-.38-.36-.75-1-.9l-12.3-2.94a2.3,2.3,0,0,0-2,.38l-5.88,6.19a2.82,2.82,0,0,1-1.93.6,64.87,64.87,0,0,0-8,0,3.17,3.17,0,0,1-2.17-.94l-5.26-5.54a2.44,2.44,0,0,0-2.06-.75l-12.79,3.05A.83.83,0,0,0,158.65,461.52Zm46.51,19,.31.32.22.24c.15.18.31.36.45.55s.33.44.48.67.18.28.27.42l.12.21a8,8,0,0,1-.62,9,13.65,13.65,0,0,1-3,3,16.32,16.32,0,0,1-1.93,1.25c-6.24,3.55-15.79,4.8-24.4,2.75a27.08,27.08,0,0,1-7.21-2.76,17.77,17.77,0,0,1-1.88-1.22,12.55,12.55,0,0,1-3.83-4.27l0,0-.13-.26a2,2,0,0,1-.11-.26,1.48,1.48,0,0,1-.12-.29,8,8,0,0,1,1.14-7.85c4.76-6.62,17.91-9.77,29.38-7,4.81,1.15,8.56,3.15,10.94,5.58Z"/></g></g></g></g><g id="Screen"><g id="Screen-2"><g id="Window"><g id="Grupo_912" data-name="Grupo 912"><path id="Trazado_1768" data-name="Trazado 1768" class="cls-11" d="M9.28,151.08C4.16,154,0,161.23,0,167.16V504c0,5.92,4.16,8.32,9.28,5.36l159.45-92.07c5.11-2.94,9.29-10.18,9.29-16.07V64.37c0-5.9-4.18-8.31-9.29-5.36Z"/><g id="Trazado_1769" data-name="Trazado 1769"><path class="cls-12" d="M9.28,151.08C4.16,154,0,161.23,0,167.16V504c0,5.92,4.16,8.32,9.28,5.36l159.45-92.07c5.11-2.94,9.29-10.18,9.29-16.07V64.37c0-5.9-4.18-8.31-9.29-5.36Z"/><path class="cls-5" d="M172.86,58.58a7.64,7.64,0,0,0-3.71,1.15L9.7,151.79a18,18,0,0,0-6.26,6.63,18.07,18.07,0,0,0-2.61,8.74V504a6.93,6.93,0,0,0,1.25,4.37,3.75,3.75,0,0,0,3.06,1.43,7.65,7.65,0,0,0,3.73-1.16l159.45-92.07a19.76,19.76,0,0,0,8.87-15.35V64.37A6.92,6.92,0,0,0,175.93,60a3.78,3.78,0,0,0-3.07-1.43h0m0-.83c3,0,5.16,2.43,5.16,6.62V401.19c0,5.89-4.18,13.13-9.29,16.07L9.29,509.33a8.46,8.46,0,0,1-4.15,1.27c-3,0-5.14-2.43-5.14-6.63V167.16c0-5.93,4.16-13.12,9.28-16.08L168.73,59A8.32,8.32,0,0,1,172.86,57.75Z"/></g></g></g><g id="Grupo_925" data-name="Grupo 925"><g id="Grupo_913" data-name="Grupo 913"><path id="Trazado_1770" data-name="Trazado 1770" class="cls-13" d="M31.71,165.23a.4.4,0,0,1-.05-.26v-1.25l-2,1.13c-.11.06-.16,0-.16-.17v-.45a1.06,1.06,0,0,1,0-.25,2.17,2.17,0,0,1,.07-.24l2.07-5.68a1.13,1.13,0,0,1,.11-.22.37.37,0,0,1,.13-.12l.27-.16q.12-.08.18,0a.46.46,0,0,1,.06.28v4.36l.43-.25c.08,0,.14,0,.17,0a.5.5,0,0,1,.05.27v.3a.81.81,0,0,1-.05.31.35.35,0,0,1-.17.19l-.43.25v1.25a.87.87,0,0,1-.06.32.41.41,0,0,1-.18.19l-.33.19C31.8,165.26,31.74,165.27,31.71,165.23Zm.08-2.65v-3.11l-1.42,3.93Z"/><path id="Trazado_1771" data-name="Trazado 1771" class="cls-13" d="M34,163.13a4.13,4.13,0,0,1-.57-2.55,8.26,8.26,0,0,1,.57-3.22,4,4,0,0,1,1.62-2,2.44,2.44,0,0,1,.79-.3.89.89,0,0,1,.6.09.11.11,0,0,1,.05.11.77.77,0,0,1,0,.15l-.18.65a.37.37,0,0,1-.07.14.08.08,0,0,1-.08,0,1.14,1.14,0,0,0-1,.16,2.72,2.72,0,0,0-1.11,1.35,6,6,0,0,0-.4,2.38,3.23,3.23,0,0,0,.39,1.92c.26.32.61.35,1.07.09a3.27,3.27,0,0,0,.48-.35,2.6,2.6,0,0,0,.38-.43v-2l-.81.47c-.09,0-.14,0-.18,0a.5.5,0,0,1-.05-.27v-.29a.86.86,0,0,1,.05-.32.45.45,0,0,1,.18-.18L37,158c.09-.05.15-.05.2,0a.51.51,0,0,1,0,.32v2.9a1.13,1.13,0,0,1,0,.26,1.08,1.08,0,0,1-.08.19,4.29,4.29,0,0,1-1.55,1.53C35,163.61,34.41,163.58,34,163.13Z"/></g><g id="Grupo_919" data-name="Grupo 919"><g id="Grupo_914" data-name="Grupo 914"><path id="Trazado_1772" data-name="Trazado 1772" class="cls-13" d="M50.51,153.15a3,3,0,0,1-1.13,2.4c-.63.37-1.14-.12-1.14-1.09a3,3,0,0,1,1.14-2.4C50,151.69,50.51,152.19,50.51,153.15Z"/></g><g id="Grupo_916" data-name="Grupo 916"><g id="Grupo_915" data-name="Grupo 915"><path id="Trazado_1773" data-name="Trazado 1773" class="cls-13" d="M49.38,149.2a6.86,6.86,0,0,0-2.64,4,.76.76,0,0,0,.12.8h0c.21.13.53-.15.66-.6a4.8,4.8,0,0,1,1.86-2.8,1.2,1.2,0,0,1,1.85.66c.13.3.45.21.66-.18h0a1.13,1.13,0,0,0,.12-.93A1.71,1.71,0,0,0,49.89,149,2,2,0,0,0,49.38,149.2Z"/></g></g><g id="Grupo_918" data-name="Grupo 918"><g id="Grupo_917" data-name="Grupo 917"><path id="Trazado_1774" data-name="Trazado 1774" class="cls-13" d="M49.38,146.4c-1.7,1-3.2,3.22-4.05,5.77-.13.38-.09.76.09.87h0c.21.14.51-.12.65-.55a8.67,8.67,0,0,1,3.31-4.72,2.19,2.19,0,0,1,3.06.48,1.76,1.76,0,0,1,.24.42c.15.27.45.18.65-.2h0a1.08,1.08,0,0,0,.1-1,2.68,2.68,0,0,0-3.54-1.39A3.2,3.2,0,0,0,49.38,146.4Z"/></g></g></g><g id="Grupo_920" data-name="Grupo 920"><path id="Trazado_1775" data-name="Trazado 1775" class="cls-13" d="M79,133.43a.3.3,0,0,1,0-.21.57.57,0,0,1,.08-.25l1.63-2.92.12-.2a.32.32,0,0,1,.14-.14l.59-.34a.11.11,0,0,1,.14,0,.31.31,0,0,1,.06.19V137a.58.58,0,0,1-.06.26.39.39,0,0,1-.14.17l-.61.35a.1.1,0,0,1-.14,0,.24.24,0,0,1-.07-.18v-5.71l-1.06,1.9a.31.31,0,0,1-.15.15.13.13,0,0,1-.14-.05Z"/><path id="Trazado_1776" data-name="Trazado 1776" class="cls-13" d="M82.83,131.24a.32.32,0,0,1,0-.21.53.53,0,0,1,.08-.25l1.63-2.92.12-.2a.32.32,0,0,1,.14-.14l.58-.34a.12.12,0,0,1,.15,0,.28.28,0,0,1,.06.18v7.47a.54.54,0,0,1-.06.25.38.38,0,0,1-.15.18l-.6.35a.12.12,0,0,1-.15,0,.3.3,0,0,1-.06-.18v-5.72l-1.06,1.9a.31.31,0,0,1-.15.15.12.12,0,0,1-.14,0Z"/><path id="Trazado_1777" data-name="Trazado 1777" class="cls-13" d="M87.81,128a.11.11,0,0,1,.15,0,.28.28,0,0,1,.06.18v1.14a.57.57,0,0,1-.06.25.35.35,0,0,1-.15.17l-.7.4a.1.1,0,0,1-.14,0,.23.23,0,0,1-.06-.18v-1.13a.58.58,0,0,1,.06-.26.39.39,0,0,1,.14-.17Zm0,4a.12.12,0,0,1,.15,0,.31.31,0,0,1,.06.19v1.13a.51.51,0,0,1-.06.25.34.34,0,0,1-.15.18l-.7.4a.11.11,0,0,1-.14,0,.26.26,0,0,1-.06-.19v-1.13a.58.58,0,0,1,.06-.26.39.39,0,0,1,.14-.17Z"/><path id="Trazado_1778" data-name="Trazado 1778" class="cls-13" d="M91.82,131.52a.1.1,0,0,1-.14,0,.28.28,0,0,1-.06-.18v-1.4l-2.33,1.34a.1.1,0,0,1-.14,0,.23.23,0,0,1-.06-.18v-.82a1.06,1.06,0,0,1,0-.31,3.43,3.43,0,0,1,.12-.33l2.3-5.74a.93.93,0,0,1,.3-.47l.57-.33a.12.12,0,0,1,.15,0,.31.31,0,0,1,.06.19v4.62l.64-.37a.12.12,0,0,1,.15,0,.3.3,0,0,1,.06.18v.83a1.14,1.14,0,0,1-.06.25.35.35,0,0,1-.15.17l-.64.38v1.4a.57.57,0,0,1-.06.25.35.35,0,0,1-.15.17Zm-.2-3V126l-1.28,3.21Z"/><path id="Trazado_1779" data-name="Trazado 1779" class="cls-13" d="M94.84,122a.54.54,0,0,1,.06-.25.49.49,0,0,1,.14-.18l2.83-1.63a.11.11,0,0,1,.14,0,.26.26,0,0,1,.06.19V121a.54.54,0,0,1-.06.25.37.37,0,0,1-.14.18l-2.11,1.22-.08,1.52a2.07,2.07,0,0,1,.4-.38l.32-.21a2,2,0,0,1,.78-.28.94.94,0,0,1,.63.16,1.2,1.2,0,0,1,.41.6,3.16,3.16,0,0,1,.15,1.06,6.14,6.14,0,0,1-.15,1.35,5.29,5.29,0,0,1-.42,1.11A3.7,3.7,0,0,1,96.4,129a2.34,2.34,0,0,1-.89.33,1,1,0,0,1-.61-.15,1.09,1.09,0,0,1-.37-.52,2.56,2.56,0,0,1-.14-.78.58.58,0,0,1,.06-.26.39.39,0,0,1,.14-.17l.61-.35a.12.12,0,0,1,.14,0,.3.3,0,0,1,.08.16.72.72,0,0,0,.14.35.43.43,0,0,0,.23.14.55.55,0,0,0,.28,0,1.66,1.66,0,0,0,.33-.15,1.81,1.81,0,0,0,.69-.76,2.47,2.47,0,0,0,.27-1.13.84.84,0,0,0-.27-.72.62.62,0,0,0-.69,0,1.52,1.52,0,0,0-.35.26,2.5,2.5,0,0,0-.22.24,1.91,1.91,0,0,1-.15.21.5.5,0,0,1-.17.15l-.69.4a.1.1,0,0,1-.14,0,.2.2,0,0,1-.06-.18Z"/></g><g id="Grupo_921" data-name="Grupo 921"><path id="Trazado_1780" data-name="Trazado 1780" class="cls-13" d="M10.1,178.63v-2.41l2.09-1.2v2.41Z"/><path id="Trazado_1781" data-name="Trazado 1781" class="cls-13" d="M13.24,176.82V172l2.08-1.2v4.81Z"/><path id="Trazado_1782" data-name="Trazado 1782" class="cls-13" d="M16.37,175v-7.23l2.08-1.2v7.23Z"/><path id="Trazado_1783" data-name="Trazado 1783" class="cls-13" d="M19.5,173.21v-9.64l2.08-1.2V172Z"/></g><g id="Grupo_924" data-name="Grupo 924"><path id="Trazado_1784" data-name="Trazado 1784" class="cls-13" d="M166.06,80.77c-.22-.33-.49-.41-.77-.25L157.49,85a3,3,0,0,0-.9,2.37v4.38a2.56,2.56,0,0,0,.35,1.4.7.7,0,0,0,.31.28.47.47,0,0,0,.46,0l7.79-4.49a2.94,2.94,0,0,0,.9-2.36V82.17A2.45,2.45,0,0,0,166.06,80.77Zm-8.91,11.81a1.29,1.29,0,0,1-.13-.64V87.56a2.33,2.33,0,0,1,.69-1.8l7.79-4.48a.28.28,0,0,1,.25,0,.18.18,0,0,1,.1.09A1.23,1.23,0,0,1,166,82v4.38a2.35,2.35,0,0,1-.69,1.81l-7.79,4.48a.24.24,0,0,1-.34,0v0Z"/><g id="Grupo_922" data-name="Grupo 922"><path id="Trazado_1785" data-name="Trazado 1785" class="cls-13" d="M159.19,85.66v5.18l-1.23.7a.16.16,0,0,1-.22-.05.24.24,0,0,1,0-.08V87.56a1.83,1.83,0,0,1,.51-1.35Z"/><path id="Trazado_1786" data-name="Trazado 1786" class="cls-13" d="M159.75,85.35l1.47-.85v5.18l-1.47.84Z"/><path id="Trazado_1787" data-name="Trazado 1787" class="cls-13" d="M161.78,84.18l1.47-.85v5.2l-1.47.84Z"/><path id="Trazado_1788" data-name="Trazado 1788" class="cls-13" d="M165.28,82.51v3.74a1.93,1.93,0,0,1-1,1.67l-.49.28V83l1.16-.67a.19.19,0,0,1,.27.07A.16.16,0,0,1,165.28,82.51Z"/></g><g id="Grupo_923" data-name="Grupo 923"><path id="Trazado_1789" data-name="Trazado 1789" class="cls-13" d="M166.69,82c.22-.12.39.5.39,1.4v.82a3.22,3.22,0,0,1-.39,1.9l-.4.27V82.26Z"/></g></g><path id="Trazado_1790" data-name="Trazado 1790" class="cls-13" d="M144.76,95.27l7.57-6.73L150,98.4l-1.1-4.1Z"/></g><g id="Grupo_945" data-name="Grupo 945"><g id="Grupo_932" data-name="Grupo 932"><g id="Grupo_928" data-name="Grupo 928"><g id="Grupo_926" data-name="Grupo 926"><path id="Trazado_1791" data-name="Trazado 1791" class="cls-14" d="M24.09,478.46a2.09,2.09,0,0,1-1.09-.28,2.68,2.68,0,0,1-1.19-2.47v-12.2a7.08,7.08,0,0,1,3.24-5.62L62.93,436a2.44,2.44,0,0,1,3.92,2.26v12.2a7.1,7.1,0,0,1-3.25,5.63L25.73,478A3.2,3.2,0,0,1,24.09,478.46Zm40.47-41.59a2.06,2.06,0,0,0-1,.31L25.73,459.05a5.8,5.8,0,0,0-2.58,4.46v12.2a1.13,1.13,0,0,0,.76,1.4,1.14,1.14,0,0,0,1.14-.3l37.87-21.87a5.8,5.8,0,0,0,2.58-4.46v-12.2A1.45,1.45,0,0,0,65,437,.85.85,0,0,0,64.56,436.87Z"/></g><g id="Grupo_927" data-name="Grupo 927"><path id="Trazado_1792" data-name="Trazado 1792" class="cls-14" d="M34,461.84c0,.09,0,.21,0,.37v.94a3.55,3.55,0,0,0,0,.36,2.91,2.91,0,0,0,0,.4.92.92,0,0,0,.14.28.36.36,0,0,0,.25.11.63.63,0,0,0,.37-.12,1.59,1.59,0,0,0,.36-.28,2.75,2.75,0,0,0,.23-.33,1.92,1.92,0,0,0,.14-.33c0-.11,0-.21.07-.3a1.11,1.11,0,0,1,.07-.26.28.28,0,0,1,.15-.15l.84-.49a.08.08,0,0,1,.1,0,.15.15,0,0,1,0,.13,3.7,3.7,0,0,1-.16,1,4.87,4.87,0,0,1-1,1.9,3.8,3.8,0,0,1-.79.65,1.62,1.62,0,0,1-.83.26,1,1,0,0,1-.62-.22,1.45,1.45,0,0,1-.4-.63,3,3,0,0,1-.15-.94c0-.27,0-.55,0-.86s0-.61,0-.9a5.22,5.22,0,0,1,.55-2.2,3.93,3.93,0,0,1,.62-.94,2.91,2.91,0,0,1,.83-.69,1.77,1.77,0,0,1,.78-.27,1.11,1.11,0,0,1,.64.16,1.19,1.19,0,0,1,.42.52,2.34,2.34,0,0,1,.16.86.37.37,0,0,1,0,.18.29.29,0,0,1-.1.12l-.85.49c-.07,0-.12.05-.14,0a.45.45,0,0,1-.07-.18,1.43,1.43,0,0,0-.08-.22.33.33,0,0,0-.14-.17.44.44,0,0,0-.23-.06.78.78,0,0,0-.36.13,1.19,1.19,0,0,0-.36.31,2,2,0,0,0-.25.39,2.15,2.15,0,0,0-.14.45A3.59,3.59,0,0,0,34,461.84Z"/><path id="Trazado_1793" data-name="Trazado 1793" class="cls-14" d="M37.46,462.65a2.65,2.65,0,0,1,.32-1.26,4.51,4.51,0,0,1,1.06-1.24l.75-.63a.57.57,0,0,0-.08-.34c-.06-.07-.15-.07-.29,0a.74.74,0,0,0-.23.2l-.12.18a.46.46,0,0,1-.11.16.27.27,0,0,1-.12.09l-.82.48a.09.09,0,0,1-.1,0,.18.18,0,0,1,0-.14,2,2,0,0,1,.13-.55,3,3,0,0,1,.32-.64,4.19,4.19,0,0,1,.48-.63,2.92,2.92,0,0,1,.61-.49,1.68,1.68,0,0,1,.68-.24.65.65,0,0,1,.48.14.86.86,0,0,1,.28.45,3.2,3.2,0,0,1,.09.75v3a.54.54,0,0,1,0,.22.37.37,0,0,1-.13.15l-.81.46a.09.09,0,0,1-.12,0,.24.24,0,0,1,0-.16v-.28a3.56,3.56,0,0,1-.38.69,2.13,2.13,0,0,1-.6.52,1.25,1.25,0,0,1-.49.17.61.61,0,0,1-.37-.12.87.87,0,0,1-.22-.37A1.88,1.88,0,0,1,37.46,462.65Zm1.46-.62a1.13,1.13,0,0,0,.27-.22,1.85,1.85,0,0,0,.21-.33,1.74,1.74,0,0,0,.14-.38,1.83,1.83,0,0,0,.05-.4l-.59.48a1.29,1.29,0,0,0-.28.33.69.69,0,0,0-.1.37c0,.12,0,.2.08.21A.29.29,0,0,0,38.92,462Z"/><path id="Trazado_1794" data-name="Trazado 1794" class="cls-14" d="M45.21,459.38a.5.5,0,0,1-.05.21.36.36,0,0,1-.12.15l-.81.47a.11.11,0,0,1-.13,0,.28.28,0,0,1-.05-.16v-2.5a1.07,1.07,0,0,0-.13-.6c-.09-.12-.24-.12-.43,0a1,1,0,0,0-.42.5,2.17,2.17,0,0,0-.13.76v2.5a.59.59,0,0,1,0,.22.33.33,0,0,1-.12.14l-.81.47a.09.09,0,0,1-.13,0,.27.27,0,0,1,0-.15v-4.62a.54.54,0,0,1,0-.21.32.32,0,0,1,.13-.15l.77-.45a.08.08,0,0,1,.12,0,.22.22,0,0,1,.06.15v.23A2.93,2.93,0,0,1,43,456c.06-.1.12-.2.19-.3a2.35,2.35,0,0,1,.26-.29,2,2,0,0,1,.33-.24,1.3,1.3,0,0,1,.57-.2.56.56,0,0,1,.44.16,1.09,1.09,0,0,1,.28.53,3.38,3.38,0,0,1,.1.95Z"/><path id="Trazado_1795" data-name="Trazado 1795" class="cls-14" d="M47.26,455.54c0,.1,0,.22,0,.35s0,.24,0,.34a.62.62,0,0,0,.18.47c.1.09.24.08.41,0a1,1,0,0,0,.32-.29,1.22,1.22,0,0,0,.18-.36c0-.07,0-.13.08-.19a.25.25,0,0,1,.11-.12l.84-.49a.12.12,0,0,1,.13,0,.22.22,0,0,1,.05.16,4.17,4.17,0,0,1-.09.51,3.52,3.52,0,0,1-.27.77,3.92,3.92,0,0,1-.52.82,2.74,2.74,0,0,1-.84.71,1.72,1.72,0,0,1-.67.23.8.8,0,0,1-.54-.14,1.08,1.08,0,0,1-.37-.5,2.34,2.34,0,0,1-.16-.86v-.79a4,4,0,0,1,.16-1,4,4,0,0,1,.37-.94,4.46,4.46,0,0,1,.54-.77,3.18,3.18,0,0,1,.67-.54,1.49,1.49,0,0,1,.84-.26.82.82,0,0,1,.52.22,1,1,0,0,1,.27.45,2.1,2.1,0,0,1,.09.42.54.54,0,0,1-.05.22.37.37,0,0,1-.13.15l-.84.49a.11.11,0,0,1-.11,0l-.08-.1a.26.26,0,0,0-.18-.16.46.46,0,0,0-.32.1,1,1,0,0,0-.41.45A1.6,1.6,0,0,0,47.26,455.54Z"/><path id="Trazado_1796" data-name="Trazado 1796" class="cls-14" d="M51.43,454a1,1,0,0,0,.06.34.32.32,0,0,0,.14.16.23.23,0,0,0,.18,0,.7.7,0,0,0,.2-.08,1.23,1.23,0,0,0,.5-.51,1.15,1.15,0,0,1,.1-.18l.11-.09.83-.48c.1-.05.14,0,.14.14a1.29,1.29,0,0,1-.1.42,3.93,3.93,0,0,1-.3.66,3.52,3.52,0,0,1-.52.74,2.69,2.69,0,0,1-.76.63,1.56,1.56,0,0,1-.75.25.72.72,0,0,1-.54-.21,1.51,1.51,0,0,1-.34-.65,4.17,4.17,0,0,1-.11-1.05,6.1,6.1,0,0,1,.11-1.13,5.27,5.27,0,0,1,.34-1,3.78,3.78,0,0,1,.54-.88,2.86,2.86,0,0,1,.75-.63,1.25,1.25,0,0,1,.8-.22.87.87,0,0,1,.54.32,1.71,1.71,0,0,1,.3.69,4.58,4.58,0,0,1,.09.9v.28a.59.59,0,0,1-.05.22.28.28,0,0,1-.12.14Zm.58-2.23a1,1,0,0,0-.41.48,2.15,2.15,0,0,0-.17.65l1.16-.67a.83.83,0,0,0-.17-.45c-.09-.11-.23-.12-.41,0Z"/><path id="Trazado_1797" data-name="Trazado 1797" class="cls-14" d="M55.82,453.25a.55.55,0,0,1-.06.22.29.29,0,0,1-.12.15l-.81.47a.09.09,0,0,1-.12,0,.18.18,0,0,1-.05-.16v-6.49a.59.59,0,0,1,.05-.22.33.33,0,0,1,.12-.14l.81-.47a.08.08,0,0,1,.12,0,.23.23,0,0,1,.06.16Z"/></g></g><g id="Grupo_931" data-name="Grupo 931"><g id="Grupo_929" data-name="Grupo 929"><path id="Trazado_1798" data-name="Trazado 1798" class="cls-5" d="M112.52,423.75v-12.2a6.44,6.44,0,0,1,2.91-5.05l37.87-21.86c1.61-.93,2.91-.18,2.91,1.68v12.2a6.42,6.42,0,0,1-2.91,5l-37.87,21.87C113.82,426.36,112.52,425.6,112.52,423.75Z"/></g><g id="Grupo_930" data-name="Grupo 930"><path id="Trazado_1799" data-name="Trazado 1799" class="cls-13" d="M127.29,405.35c.09-.05.15-.05.2,0a.32.32,0,0,1,.09.16l1.4,5.43a.28.28,0,0,1,0,.13.58.58,0,0,1,0,.18.29.29,0,0,1-.1.12l-.81.46c-.09.05-.15.06-.19,0a.31.31,0,0,1-.06-.13l-.18-.71-1.71,1-.18.93a1.59,1.59,0,0,1-.07.2.47.47,0,0,1-.18.19l-.81.46a.08.08,0,0,1-.1,0,.16.16,0,0,1,0-.13,1,1,0,0,1,0-.17l1.4-7a1.43,1.43,0,0,1,.09-.27.61.61,0,0,1,.2-.22Zm-1,4.93,1-.6-.52-2.08Z"/><path id="Trazado_1800" data-name="Trazado 1800" class="cls-13" d="M131.79,409.77a1,1,0,0,1-.33.14.65.65,0,0,1-.24,0,.4.4,0,0,1-.18-.1.69.69,0,0,1-.11-.13v2.11a.54.54,0,0,1-.05.22.37.37,0,0,1-.13.15l-.81.46a.09.09,0,0,1-.12,0,.24.24,0,0,1,0-.16V406a.54.54,0,0,1,0-.22.44.44,0,0,1,.12-.15l.78-.45a.1.1,0,0,1,.12,0,.25.25,0,0,1,.06.16v.23a1.69,1.69,0,0,1,.12-.28,2.75,2.75,0,0,1,.17-.29,1.55,1.55,0,0,1,.24-.27,1.5,1.5,0,0,1,.36-.26,1.21,1.21,0,0,1,.55-.19.64.64,0,0,1,.45.16,1.24,1.24,0,0,1,.31.53,3.22,3.22,0,0,1,.13.93c0,.1,0,.23,0,.4s0,.3,0,.4a5,5,0,0,1-.13,1.09,4.69,4.69,0,0,1-.31.89,3.34,3.34,0,0,1-.45.68A2.32,2.32,0,0,1,131.79,409.77Zm.29-2.56a5,5,0,0,0,0-.55,1,1,0,0,0-.15-.52c-.09-.12-.23-.12-.43,0a1.27,1.27,0,0,0-.25.21,2.61,2.61,0,0,0-.17.28c0,.11-.07.21-.1.32s0,.21,0,.31,0,.23,0,.36,0,.24,0,.34a2.21,2.21,0,0,0,0,.25,1.24,1.24,0,0,0,.1.2.3.3,0,0,0,.17.08.43.43,0,0,0,.25-.07.94.94,0,0,0,.43-.51,2.3,2.3,0,0,0,.15-.69Z"/><path id="Trazado_1801" data-name="Trazado 1801" class="cls-13" d="M136.18,407.24a1.2,1.2,0,0,1-.33.13.65.65,0,0,1-.24,0,.46.46,0,0,1-.17-.09.49.49,0,0,1-.12-.13v2.11a.5.5,0,0,1,0,.21.31.31,0,0,1-.12.15l-.81.47a.09.09,0,0,1-.13,0,.28.28,0,0,1-.05-.16v-6.48a.54.54,0,0,1,.05-.22.32.32,0,0,1,.13-.15l.77-.45a.11.11,0,0,1,.13,0,.28.28,0,0,1,0,.16V403c0-.08.08-.18.12-.28s.11-.19.17-.29a2.09,2.09,0,0,1,.24-.28,2.36,2.36,0,0,1,.36-.26,1.32,1.32,0,0,1,.55-.18.64.64,0,0,1,.45.16,1.28,1.28,0,0,1,.31.53,3.22,3.22,0,0,1,.13.93c0,.1,0,.23,0,.4s0,.3,0,.4a5.7,5.7,0,0,1-.13,1.09,5,5,0,0,1-.31.89,3.34,3.34,0,0,1-.45.68A2.41,2.41,0,0,1,136.18,407.24Zm.29-2.56a5.23,5.23,0,0,0,0-.56.92.92,0,0,0-.15-.51c-.08-.13-.23-.13-.43,0a.79.79,0,0,0-.24.21,1,1,0,0,0-.17.28,1.63,1.63,0,0,0-.11.31c0,.11,0,.21-.05.32s0,.22,0,.35,0,.25,0,.34a1.19,1.19,0,0,0,.05.26.52.52,0,0,0,.11.19.21.21,0,0,0,.17.08.34.34,0,0,0,.24-.07,1,1,0,0,0,.43-.5,2.08,2.08,0,0,0,.15-.69Z"/><path id="Trazado_1802" data-name="Trazado 1802" class="cls-13" d="M139.72,404.83a.55.55,0,0,1-.06.22.29.29,0,0,1-.12.15l-.81.47a.1.1,0,0,1-.12,0,.19.19,0,0,1-.05-.16V399a.54.54,0,0,1,.05-.22.44.44,0,0,1,.12-.15l.81-.47a.1.1,0,0,1,.12,0,.25.25,0,0,1,.06.16Z"/><path id="Trazado_1803" data-name="Trazado 1803" class="cls-13" d="M142.52,405.12a.66.66,0,0,1-.06.2.35.35,0,0,1-.12.15l-.85.49a.09.09,0,0,1-.1,0,.17.17,0,0,1,0-.15.17.17,0,0,1,0-.07l.48-2.05-1.3-3.89v-.07a.45.45,0,0,1,0-.2.35.35,0,0,1,.11-.13l.84-.49c.06,0,.1,0,.13,0a.34.34,0,0,1,.06.12l.71,2.16.71-3a1.07,1.07,0,0,1,.07-.19.28.28,0,0,1,.12-.16l.85-.48a.08.08,0,0,1,.11,0,.18.18,0,0,1,0,.14v.08Z"/></g></g></g><g id="Grupo_935" data-name="Grupo 935"><path id="Trazado_1804" data-name="Trazado 1804" class="cls-5" d="M47.26,183.86c8.49-4.88,15.38-.93,15.38,8.82s-6.91,21.63-15.43,26.52-15.4.94-15.37-8.83S38.77,188.73,47.26,183.86Z"/><g id="Grupo_934" data-name="Grupo 934"><path id="Trazado_1805" data-name="Trazado 1805" class="cls-14" d="M78,187.27l66.88-38.62c1.8-1,3.26-.3,3.26,1.65a7,7,0,0,1-3.26,5.42L77.73,194.47c-1.8,1-3.21.27-3.15-1.72A7.36,7.36,0,0,1,78,187.27Z"/><g id="Grupo_933" data-name="Grupo 933"><path id="Trazado_1806" data-name="Trazado 1806" class="cls-5" d="M78,173.14l77.15-44.54c1.8-1,3.26-.3,3.26,1.65a7,7,0,0,1-3.26,5.42L77.73,180.34c-1.8,1-3.21.27-3.15-1.72A7.38,7.38,0,0,1,78,173.14Z"/><path id="Trazado_1807" data-name="Trazado 1807" class="cls-5" d="M78,173.14l77.15-44.54c1.8-1,3.26-.3,3.26,1.65a7,7,0,0,1-3.26,5.42L77.73,180.34c-1.8,1-3.21.27-3.15-1.72A7.38,7.38,0,0,1,78,173.14Z"/><path id="Trazado_1808" data-name="Trazado 1808" class="cls-10" d="M78,173.14l77.15-44.54c1.8-1,3.26-.3,3.26,1.65a7,7,0,0,1-3.26,5.42L77.73,180.34c-1.8,1-3.21.27-3.15-1.72A7.38,7.38,0,0,1,78,173.14Z"/></g></g></g><g id="Grupo_937" data-name="Grupo 937"><path id="Trazado_1809" data-name="Trazado 1809" class="cls-5" d="M37.53,337.57l17.8-10.25c1.8-1.05,3.26-.21,3.28,1.87l.12,27.7a7.15,7.15,0,0,1-3.24,5.65L37.55,372.9c-1.8,1-3.26.2-3.26-1.88V343.24A7.27,7.27,0,0,1,37.53,337.57Z"/><path id="Trazado_1810" data-name="Trazado 1810" class="cls-14" d="M74.39,337.53l52.17-30.06c1.8-1,3.26-.3,3.26,1.65a7,7,0,0,1-3.26,5.41l-52.41,30.2c-1.8,1-3.2.27-3.14-1.72A7.35,7.35,0,0,1,74.39,337.53Z"/><g id="Grupo_936" data-name="Grupo 936"><path id="Trazado_1811" data-name="Trazado 1811" class="cls-5" d="M74.39,323.37l66.88-38.61c1.8-1,3.25-.3,3.25,1.65a7,7,0,0,1-3.25,5.41L74.15,330.57c-1.8,1-3.21.27-3.14-1.72A7.34,7.34,0,0,1,74.39,323.37Z"/><path id="Trazado_1812" data-name="Trazado 1812" class="cls-5" d="M74.39,323.37l66.88-38.61c1.8-1,3.25-.3,3.25,1.65a7,7,0,0,1-3.25,5.41L74.15,330.57c-1.8,1-3.21.27-3.14-1.72A7.34,7.34,0,0,1,74.39,323.37Z"/><path id="Trazado_1813" data-name="Trazado 1813" class="cls-10" d="M74.39,323.37l66.88-38.61c1.8-1,3.25-.3,3.25,1.65a7,7,0,0,1-3.25,5.41L74.15,330.57c-1.8,1-3.21.27-3.14-1.72A7.34,7.34,0,0,1,74.39,323.37Z"/></g></g><g id="Grupo_939" data-name="Grupo 939"><path id="Trazado_1814" data-name="Trazado 1814" class="cls-5" d="M37.53,387l17.8-10.27c1.8-1,3.26-.21,3.28,1.86l.12,27.88a7.15,7.15,0,0,1-3.24,5.64l-18,10.37c-1.8,1-3.26.2-3.26-1.89V392.7A7.31,7.31,0,0,1,37.53,387Z"/><path id="Trazado_1815" data-name="Trazado 1815" class="cls-14" d="M74.39,387.15l52.17-30.06c1.8-1,3.26-.3,3.26,1.65a7,7,0,0,1-3.26,5.41l-52.41,30.2c-1.8,1-3.2.27-3.14-1.72A7.36,7.36,0,0,1,74.39,387.15Z"/><g id="Grupo_938" data-name="Grupo 938"><path id="Trazado_1816" data-name="Trazado 1816" class="cls-5" d="M74.39,373l66.88-38.61c1.8-1,3.25-.3,3.25,1.65a7,7,0,0,1-3.25,5.41L74.15,380.19c-1.8,1-3.21.27-3.14-1.72A7.36,7.36,0,0,1,74.39,373Z"/><path id="Trazado_1817" data-name="Trazado 1817" class="cls-5" d="M74.39,373l66.88-38.61c1.8-1,3.25-.3,3.25,1.65a7,7,0,0,1-3.25,5.41L74.15,380.19c-1.8,1-3.21.27-3.14-1.72A7.36,7.36,0,0,1,74.39,373Z"/><path id="Trazado_1818" data-name="Trazado 1818" class="cls-10" d="M74.39,373l66.88-38.61c1.8-1,3.25-.3,3.25,1.65a7,7,0,0,1-3.25,5.41L74.15,380.19c-1.8,1-3.21.27-3.14-1.72A7.36,7.36,0,0,1,74.39,373Z"/></g></g><g id="Grupo_944" data-name="Grupo 944"><g id="Grupo_940" data-name="Grupo 940"><path id="Trazado_1819" data-name="Trazado 1819" class="cls-5" d="M26.44,246.27l52-30c1.55-.89,2.8-.25,2.8,1.42a6,6,0,0,1-2.8,4.63l-52,30c-1.55.89-2.8.26-2.8-1.41A6,6,0,0,1,26.44,246.27Z"/><path id="Trazado_1820" data-name="Trazado 1820" class="cls-5" d="M26.44,246.27l52-30c1.55-.89,2.8-.25,2.8,1.42a6,6,0,0,1-2.8,4.63l-52,30c-1.55.89-2.8.26-2.8-1.41A6,6,0,0,1,26.44,246.27Z"/><path id="Trazado_1821" data-name="Trazado 1821" class="cls-10" d="M26.44,246.27l52-30c1.55-.89,2.8-.25,2.8,1.42a6,6,0,0,1-2.8,4.63l-52,30c-1.55.89-2.8.26-2.8-1.41A6,6,0,0,1,26.44,246.27Z"/></g><path id="Trazado_1822" data-name="Trazado 1822" class="cls-14" d="M26.44,272.65,57,255c1.54-.89,2.79-.26,2.79,1.41A6,6,0,0,1,57,261.07L26.44,278.7c-1.55.89-2.8.26-2.8-1.41A6,6,0,0,1,26.44,272.65Z"/><path id="Trazado_1823" data-name="Trazado 1823" class="cls-5" d="M23.64,265.84a.63.63,0,0,1-.63-.65.66.66,0,0,1,.31-.55L159.49,186a.65.65,0,0,1,.65,1.12L24,265.76A.73.73,0,0,1,23.64,265.84Z"/><path id="Trazado_1824" data-name="Trazado 1824" class="cls-5" d="M23.64,290a.64.64,0,0,1-.64-.64.67.67,0,0,1,.32-.56L159.49,210.2a.64.64,0,1,1,.65,1.11L24,289.93A.63.63,0,0,1,23.64,290Z"/><g id="Grupo_941" data-name="Grupo 941"><path id="Trazado_1825" data-name="Trazado 1825" class="cls-14" d="M146.36,203.61c1.31-.75,2.37-.14,2.37,1.37a5.19,5.19,0,0,1-2.38,4.08c-1.32.74-2.38.13-2.37-1.37A5.24,5.24,0,0,1,146.36,203.61Z"/><path id="Trazado_1826" data-name="Trazado 1826" class="cls-14" d="M144.82,211.32a2.4,2.4,0,0,1-1.23-.31,2.88,2.88,0,0,1-1.28-2.65,8.67,8.67,0,0,1,4.06-6.8l8-4.63a3.24,3.24,0,0,1,3.26-.3,2.89,2.89,0,0,1,1.27,2.64,8.64,8.64,0,0,1-4.08,6.8l-8,4.63A4.06,4.06,0,0,1,144.82,211.32Zm-1.62-3a2.07,2.07,0,0,0,.83,1.89,2.48,2.48,0,0,0,2.38-.3l8-4.64a7.82,7.82,0,0,0,3.64-6,2,2,0,0,0-.83-1.87,2.41,2.41,0,0,0-2.37.3l-8,4.62a7.79,7.79,0,0,0-3.62,6Z"/></g><path id="Trazado_1827" data-name="Trazado 1827" class="cls-14" d="M26.44,296.82l46.8-27c1.54-.89,2.79-.25,2.79,1.42a6,6,0,0,1-2.79,4.63l-46.8,27c-1.55.89-2.8.26-2.8-1.41A6,6,0,0,1,26.44,296.82Z"/><path id="Trazado_1828" data-name="Trazado 1828" class="cls-5" d="M23.64,314.19a.64.64,0,0,1-.63-.65.63.63,0,0,1,.31-.55l136.17-78.63a.66.66,0,0,1,.89.24.65.65,0,0,1-.24.88L24,314.1A.63.63,0,0,1,23.64,314.19Z"/><g id="Grupo_942" data-name="Grupo 942"><path id="Trazado_1829" data-name="Trazado 1829" class="cls-5" d="M144.82,235.49a2.4,2.4,0,0,1-1.23-.31,2.89,2.89,0,0,1-1.28-2.65,8.67,8.67,0,0,1,4.06-6.8l8-4.63a3.21,3.21,0,0,1,3.26-.3,2.88,2.88,0,0,1,1.27,2.64,8.63,8.63,0,0,1-4.08,6.79l-8,4.64A4.06,4.06,0,0,1,144.82,235.49Z"/><path id="Trazado_1830" data-name="Trazado 1830" class="cls-13" d="M154.92,222.77c1.31-.75,2.37-.14,2.37,1.37a5.19,5.19,0,0,1-2.38,4.08c-1.32.75-2.38.13-2.37-1.37A5.24,5.24,0,0,1,154.92,222.77Z"/></g><path id="Trazado_1831" data-name="Trazado 1831" class="cls-14" d="M26.44,321,57,303.36c1.54-.89,2.79-.26,2.79,1.41A6,6,0,0,1,57,309.41L26.44,327c-1.55.89-2.8.26-2.8-1.41A6,6,0,0,1,26.44,321Z"/><g id="Grupo_943" data-name="Grupo 943"><path id="Trazado_1832" data-name="Trazado 1832" class="cls-14" d="M146.36,252c1.31-.76,2.37-.15,2.37,1.36a5.16,5.16,0,0,1-2.38,4.08c-1.32.75-2.38.14-2.37-1.36A5.22,5.22,0,0,1,146.36,252Z"/><path id="Trazado_1833" data-name="Trazado 1833" class="cls-14" d="M144.82,259.66a2.4,2.4,0,0,1-1.23-.31,2.89,2.89,0,0,1-1.28-2.65,8.67,8.67,0,0,1,4.06-6.8l8-4.63a3.21,3.21,0,0,1,3.26-.3,2.88,2.88,0,0,1,1.27,2.64,8.63,8.63,0,0,1-4.08,6.79l-8,4.64A4.06,4.06,0,0,1,144.82,259.66Zm-1.62-3a2,2,0,0,0,.83,1.88,2.45,2.45,0,0,0,2.38-.3l8-4.63a7.82,7.82,0,0,0,3.64-6,2,2,0,0,0-.83-1.87,2.43,2.43,0,0,0-2.37.3l-8,4.63a7.73,7.73,0,0,0-3.62,6Z"/></g></g></g></g></g><g id="Character_1" data-name="Character 1"><g id="Character"><path id="Arm" class="cls-15" d="M323.13,237.33c-11.5-.21-14.64,6.9-18.05,16.4-3.28,9.15-6.16,19.8-9,25.89-8.69,2.8-24.68,6.94-31.26,7.11a5.22,5.22,0,0,1-3.43-1.2c-2.57-2.09-4.67-2.61-7.48-3.92-2.19-1-3-2.21-3.51-1.84a2.6,2.6,0,0,0-.14,3.63,18.71,18.71,0,0,0,3.33,3.08,21.44,21.44,0,0,1-9.51-.83c-5.9-2.22-9.07.39-5.65,7.41,1.22,2.52,6.61,6.9,18.45,7.1a106.13,106.13,0,0,0,12.61-.18c11.5-1.23,23.81-2.77,31.74-4.26a12.66,12.66,0,0,0,8.07-5.13c2.89-3.79,14.07-29.58,18.4-39.87Z"/><g id="Character-2"><g id="Grupo_948" data-name="Grupo 948"><g id="Grupo_946" data-name="Grupo 946"><path id="Trazado_1834" data-name="Trazado 1834" class="cls-16" d="M369.84,486.12A62.88,62.88,0,0,1,371,496.27c.24,6.17,1.42,8.34,1.67,13.41.28,5.79-.67,8-3,11.28s-8.39,6.38-11.11.93-2.45-9.06-1.73-14.76c.74-5.89.79-9.14,1.2-13.63.36-4,.82-7,.82-7Z"/><path id="Trazado_1835" data-name="Trazado 1835" class="cls-15" d="M351.34,437.9l20.34-.78c0,13.59-1.74,36.24-1.83,49,0,2.4.43,18.64-.38,23.59-1.2,7.45-10,6.62-10.58,2.19s.1-23.4,0-25.36c-.09-8.17-4.35-29.42-6.65-44.06C352.15,441.76,351.44,438.6,351.34,437.9Z"/></g><g id="Grupo_947" data-name="Grupo 947"><path id="Trazado_1836" data-name="Trazado 1836" class="cls-16" d="M323.59,475.92s1.05,0,1.27.85c.25,1,.38,2.61.9,4.26a24.75,24.75,0,0,1,1.17,8c-.25,1.91-4.42,5-7.35,5.63s-6.94,3.81-9.14,6.12a22.68,22.68,0,0,1-12.84,5.89c-3.58.17-8.93-.49-10.48-4.32a3.71,3.71,0,0,1,.19-3.34,6.35,6.35,0,0,1,2.86-2,66.42,66.42,0,0,0,7.06-3.77,48.59,48.59,0,0,0,9.74-7.57,23.67,23.67,0,0,0,3.17-4,22.27,22.27,0,0,0,1.16-2.15,17,17,0,0,1,.95-2.29Z"/><path id="Trazado_1837" data-name="Trazado 1837" class="cls-15" d="M324.1,476c.15-4.2,1.76-13,4.53-37.9l-19.06-1.36s2.32,32.42,2.4,36.63-.57,5.89-2.4,8.14c-1.5,1.83-3.16,3.57-4.81,5.28a56,56,0,0,1-5.36,4.85L295.17,495c-.45.36-.95.86-.8,1.42a1.32,1.32,0,0,0,1,.79c2.15.7,4.5.12,6.63-.67a35.38,35.38,0,0,0,9.21-5.12c1.39-1.07,2.56-2.41,3.92-3.5s2.85-2.11,4.21-3.25C321.54,482.87,325.2,478.71,324.1,476Z"/></g><path id="Trazado_1838" data-name="Trazado 1838" class="cls-11" d="M354.17,291.19c2.35,3.2,10.09,12,13.33,26.11,4.34,18.84,1.82,73.6,1.82,73.6.35,3.38.71,9.66,2.45,24.52,2.06,17.56-.58,38-.58,38s-10.45,3.1-17.26,0c0,0-6.7-35.56-9.26-53-2.23-15.23-9.18-53-9.18-53l-5,48.72s.13,8.23.69,16.28c.71,10.31-4.2,40.28-4.2,40.28s-9.9,2.13-16.29,0c0,0-4.36-45.11-4.87-57.53-.61-14.94,1-44.51,3-68.23.6-7.15,3.17-27.4,4.3-33.53Z"/><path id="Trazado_1839" data-name="Trazado 1839" class="cls-16" d="M335.48,347.37,333.09,333A35.84,35.84,0,0,1,316,327.81s5.38,7,14.4,7.68l1.58,12.9-.82,41.32Z"/></g><g id="Grupo_949" data-name="Grupo 949"><path id="Trazado_1840" data-name="Trazado 1840" class="cls-5" d="M311.4,276.33c.23,4.25,1.68,17,1.68,17,17.33,11.73,41.48-1.6,41.48-1.6l6.24-25.44s-11.4-13.52-2.91-26.86l-14.16-2.13-15.81-.21-4.79.22c-5.3,3.88-13.43,12.41-15.14,16.76S303.7,267.27,311.4,276.33Z"/><path id="Trazado_1841" data-name="Trazado 1841" class="cls-17" d="M311.4,276.33c.23,4.25,1.68,17,1.68,17,17.33,11.73,41.48-1.6,41.48-1.6l6.24-25.44s-11.4-13.52-2.91-26.86l-14.16-2.13-15.81-.21-4.79.22c-5.3,3.88-13.43,12.41-15.14,16.76S303.7,267.27,311.4,276.33Z"/></g><g id="Grupo_960" data-name="Grupo 960"><g id="Grupo_950" data-name="Grupo 950"><path id="Trazado_1842" data-name="Trazado 1842" class="cls-16" d="M307,233.75h22.15a32.34,32.34,0,0,0,32.34-32.34h0a25.75,25.75,0,0,0-25.75-25.75h-3A25.74,25.74,0,0,0,307,201.41Z"/></g><path id="Trazado_1843" data-name="Trazado 1843" class="cls-16" d="M353.9,175.66l-1.76,6.75a3.39,3.39,0,0,0,4.25-2.21s0-.1,0-.15A3.67,3.67,0,0,0,353.9,175.66Z"/><path id="Trazado_1844" data-name="Trazado 1844" class="cls-16" d="M359.69,181.81l-7,.26a3.38,3.38,0,0,0,3.34,3.43h.16A3.66,3.66,0,0,0,359.69,181.81Z"/><g id="Grupo_959" data-name="Grupo 959"><g id="Grupo_958" data-name="Grupo 958"><g id="Grupo_951" data-name="Grupo 951"><path id="Trazado_1845" data-name="Trazado 1845" class="cls-15" d="M317.12,187.9c-2.88,1.7-6.44,8.94-6.09,24.11.3,12.87,4.47,16,6.56,17s6.13.36,10.06-.3v7.72s-5.43,6.3-5.08,9.84,7.83,4.37,12.91.91a32.58,32.58,0,0,0,8.32-8.72v-20s2.15,2.28,5.95-.33a7,7,0,0,0,2.15-9.68c-.11-.17-.23-.33-.35-.49-1.65-1.95-5.85-2.09-7.88.93,0,0-5.27-.46-13.6-5A26.81,26.81,0,0,1,317.12,187.9Z"/></g><g id="Grupo_952" data-name="Grupo 952"><path id="Trazado_1846" data-name="Trazado 1846" class="cls-16" d="M326.83,208.78a1.62,1.62,0,1,0,1.7-1.6,1.64,1.64,0,0,0-1.7,1.59Z"/></g><g id="Grupo_953" data-name="Grupo 953"><path id="Trazado_1847" data-name="Trazado 1847" class="cls-18" d="M325,219.68l-3.76,1.2a1.94,1.94,0,0,0,2.38,1.37l.07,0A2.06,2.06,0,0,0,325,219.68Z"/></g><g id="Grupo_954" data-name="Grupo 954"><path id="Trazado_1848" data-name="Trazado 1848" class="cls-16" d="M312.49,203.82l3.28-2.27a1.93,1.93,0,0,0-2.64-.62l-.08.06A2.1,2.1,0,0,0,312.49,203.82Z"/></g><g id="Grupo_955" data-name="Grupo 955"><path id="Trazado_1849" data-name="Trazado 1849" class="cls-16" d="M313.25,207.61A1.62,1.62,0,1,0,315,206a1.64,1.64,0,0,0-1.7,1.59Z"/></g><g id="Grupo_956" data-name="Grupo 956"><path id="Trazado_1850" data-name="Trazado 1850" class="cls-18" d="M322.23,206.69l-.26,9.73-5.12-1.58Z"/></g><g id="Grupo_957" data-name="Grupo 957"><path id="Trazado_1851" data-name="Trazado 1851" class="cls-18" d="M327.65,228.67c4.13-.55,12.64-3,14-6.35a8.69,8.69,0,0,1-3,4.29c-2.55,2.18-11,4.63-11,4.63Z"/></g></g></g></g></g><g id="Magnifying_glass" data-name="Magnifying glass"><g id="Grupo_963" data-name="Grupo 963"><path id="Trazado_1852" data-name="Trazado 1852" class="cls-5" d="M236.69,279.55h0c-1.39-1.19-2-3.3-1.48-6,1-5.48,6.11-11.44,11.37-13.3,2.63-.93,4.8-.66,6.2.53h0l101,79.94h0c2.14,1.61,3.12,4.64,2.37,8.67-1.42,7.66-8.54,16-15.9,18.58-3.86,1.37-7,.87-8.92-1l0,0Z"/><path id="Trazado_1853" data-name="Trazado 1853" class="cls-9" d="M236.69,279.55h0c-1.39-1.19-2-3.3-1.48-6,1-5.48,6.11-11.44,11.37-13.3,2.63-.93,4.8-.66,6.2.53h0l101,79.94h0c2.14,1.61,3.12,4.64,2.37,8.67-1.42,7.66-8.54,16-15.9,18.58-3.86,1.37-7,.87-8.92-1l0,0Z"/><g id="Grupo_961" data-name="Grupo 961"><path id="Trazado_1854" data-name="Trazado 1854" class="cls-5" d="M246.58,260.21c5.26-1.86,8.7,1.08,7.68,6.57s-6.11,11.44-11.37,13.3-8.7-1.08-7.68-6.57S241.32,262.07,246.58,260.21Z"/></g><g id="Grupo_962" data-name="Grupo 962" class="cls-19"><path id="Trazado_1855" data-name="Trazado 1855" d="M246.58,260.21c5.26-1.86,8.7,1.08,7.68,6.57s-6.11,11.44-11.37,13.3-8.7-1.08-7.68-6.57S241.32,262.07,246.58,260.21Z"/></g><path id="Trazado_1856" data-name="Trazado 1856" class="cls-20" d="M220.13,255.83a11.69,11.69,0,0,1,6.88-8,3.7,3.7,0,0,1,3.74.32h0l18.85,16.34h0a3.72,3.72,0,0,1,.9,3.65,11.73,11.73,0,0,1-6.88,8,3.76,3.76,0,0,1-3.75-.32L221,259.48h0A3.71,3.71,0,0,1,220.13,255.83Z"/><path id="Trazado_1857" data-name="Trazado 1857" class="cls-11" d="M227,247.79a7.9,7.9,0,0,0-1.22.56,1.22,1.22,0,0,0-.19.12,9.87,9.87,0,0,0-1,.66.46.46,0,0,1-.07.07,11.69,11.69,0,0,0-4.38,6.63,3.72,3.72,0,0,0,.9,3.65l6.31,5.48a39.29,39.29,0,0,0,5.47-5.32l15.65,12.73a10.34,10.34,0,0,0,2-4.26,3.72,3.72,0,0,0-.9-3.65h0l-12.67-11h0l-6.17-5.36h0A3.72,3.72,0,0,0,227,247.79Z"/><path id="Trazado_1858" data-name="Trazado 1858" class="cls-21" d="M252.27,271.84l102,82.91a21,21,0,0,0,1.88-5.4c.74-4-.22-7.05-2.39-8.66h0l-101-79.94c1.4,1.2,2,3.3,1.48,6A16.17,16.17,0,0,1,252.27,271.84Z"/><path id="Trazado_1859" data-name="Trazado 1859" class="cls-9" d="M353.79,340.7h0l-7.57-6c-1.89,1.06-3.73,2.25-5.17,3.07-2.1,1.2-3.59,1.21-3.54,1.8a2.75,2.75,0,0,0,3,2.2,43.14,43.14,0,0,0,6.34-1.56,75.4,75.4,0,0,1-7.17,7.35c-4.74,4.11-5.18,8.16,2.73,9.41,5.16.82,8.59-1.25,13.78-7.93C356.85,345.18,355.88,342.26,353.79,340.7Z"/></g><g id="Grupo_964" data-name="Grupo 964"><path id="Trazado_1860" data-name="Trazado 1860" class="cls-5" d="M277.58,144.53c0-1-.07-2-.16-3s-.12-1.95-.21-2.91c0-.65-.12-1.29-.2-1.94-.17-1.68-.41-3.34-.69-4.92-.12-.73-.25-1.46-.4-2.19s-.28-1.36-.42-2c-.43-1.83-.87-3.62-1.39-5.33-.26-.82-.52-1.63-.8-2.42a2.4,2.4,0,0,1-.12-.38c-.29-.8-.57-1.55-.87-2.3s-.68-1.73-1.08-2.55c-.28-.62-.54-1.21-.87-1.8a8.6,8.6,0,0,0-.64-1.29c-.25-.52-.52-1-.82-1.55a1.81,1.81,0,0,0-.2-.33c-.24-.45-.52-.9-.78-1.34s-.38-.57-.55-.85a43.41,43.41,0,0,0-4.26-5.66c-.27-.3-.55-.6-.79-.9s-.44-.47-.67-.7-.57-.56-.87-.86a28,28,0,0,0-2.57-2.3c-.42-.37-.87-.71-1.31-1s-.89-.66-1.36-1a24.5,24.5,0,0,0-2.21-1.43l-.59-.38-.12-.1h0l-13.84-8.13h-.05l-.19-.13a44,44,0,0,0-22-5.56C205,79.24,192,83,178.26,90.92,131.08,118.18,92.8,184.46,92.8,239c0,27.18,9.51,46.3,24.88,55.26l.15.07v0l13.86,8.11s0,0,0,0l.15.1v0a1.2,1.2,0,0,1,.2.11l.22.12c.66.39,1.33.74,2,1.06.85.42,1.72.8,2.59,1.13a19.46,19.46,0,0,0,2.35.87,11.22,11.22,0,0,0,1.25.38,9.22,9.22,0,0,0,1.36.4c.47.14.92.25,1.39.35a8.78,8.78,0,0,0,1,.21c.59.12,1.23.25,1.86.33a1.23,1.23,0,0,0,.42.07c.74.12,1.49.23,2.22.3,12.73,1.34,27.54-2.25,43.38-11.39,47.22-27.26,85.5-93.57,85.5-148.06C277.65,147.11,277.63,145.82,277.58,144.53ZM121.82,273.16a83.65,83.65,0,0,1-2.89-22.37c0-51.66,37.8-117.13,82.54-143a79.75,79.75,0,0,1,20.93-8.67,46.53,46.53,0,0,1,10.77-1.36,35.79,35.79,0,0,1,5.47.42l.14.06c9.16,10.83,10.51,28.19,10.51,37.46,0,51.66-37.76,117.13-82.51,143-11.39,6.56-22.33,10-31.72,10a22,22,0,0,1-5.77-.74h0A40.88,40.88,0,0,1,121.82,273.16Z"/><path id="Trazado_1861" data-name="Trazado 1861" class="cls-22" d="M277.58,144.53c0-1-.07-2-.16-3s-.12-1.95-.21-2.91c0-.65-.12-1.29-.2-1.94-.17-1.68-.41-3.34-.69-4.92-.12-.73-.25-1.46-.4-2.19s-.28-1.36-.42-2c-.43-1.83-.87-3.62-1.39-5.33-.26-.82-.52-1.63-.8-2.42a2.4,2.4,0,0,1-.12-.38c-.29-.8-.57-1.55-.87-2.3s-.68-1.73-1.08-2.55c-.28-.62-.54-1.21-.87-1.8a8.6,8.6,0,0,0-.64-1.29c-.25-.52-.52-1-.82-1.55a1.81,1.81,0,0,0-.2-.33c-.24-.45-.52-.9-.78-1.34s-.38-.57-.55-.85a43.41,43.41,0,0,0-4.26-5.66c-.27-.3-.55-.6-.79-.9s-.44-.47-.67-.7-.57-.56-.87-.86a28,28,0,0,0-2.57-2.3c-.42-.37-.87-.71-1.31-1s-.89-.66-1.36-1a24.5,24.5,0,0,0-2.21-1.43l-.59-.38-.12-.1h0l-13.84-8.13h-.05l-.19-.13a44,44,0,0,0-22-5.56C205,79.24,192,83,178.26,90.92,131.08,118.18,92.8,184.46,92.8,239c0,27.18,9.51,46.3,24.88,55.26l.15.07v0l13.86,8.11s0,0,0,0l.15.1v0a1.2,1.2,0,0,1,.2.11l.22.12c.66.39,1.33.74,2,1.06.85.42,1.72.8,2.59,1.13a19.46,19.46,0,0,0,2.35.87,11.22,11.22,0,0,0,1.25.38,9.22,9.22,0,0,0,1.36.4c.47.14.92.25,1.39.35a8.78,8.78,0,0,0,1,.21c.59.12,1.23.25,1.86.33a1.23,1.23,0,0,0,.42.07c.74.12,1.49.23,2.22.3,12.73,1.34,27.54-2.25,43.38-11.39,47.22-27.26,85.5-93.57,85.5-148.06C277.65,147.11,277.63,145.82,277.58,144.53ZM121.82,273.16a83.65,83.65,0,0,1-2.89-22.37c0-51.66,37.8-117.13,82.54-143a79.75,79.75,0,0,1,20.93-8.67,46.53,46.53,0,0,1,10.77-1.36,35.79,35.79,0,0,1,5.47.42l.14.06c9.16,10.83,10.51,28.19,10.51,37.46,0,51.66-37.76,117.13-82.51,143-11.39,6.56-22.33,10-31.72,10a22,22,0,0,1-5.77-.74h0A40.88,40.88,0,0,1,121.82,273.16Z"/><path id="Trazado_1862" data-name="Trazado 1862" class="cls-5" d="M265.36,144.76c0,27.44-10.66,58.77-27.37,86-.78,1.3-1.59,2.56-2.41,3.84-.69,1.09-1.41,2.19-2.15,3.27-1.57,2.33-3.15,4.63-4.82,6.88-.78,1.07-1.57,2.14-2.39,3.18s-1.76,2.3-2.67,3.44c-1.72,2.17-3.49,4.27-5.3,6.33-1.18,1.38-2.4,2.72-3.62,4-9.84,10.58-20.6,19.52-31.78,26-2.14,1.23-4.25,2.36-6.35,3.37a63.4,63.4,0,0,1-21.76,6.5c-1.23.12-2.43.17-3.59.17-.63,0-1.22,0-1.81-.05h-.07a27.78,27.78,0,0,1-3.4-.35c-.55-.08-1.09-.17-1.61-.29s-1-.23-1.56-.38A25,25,0,0,1,129.29,288a21.59,21.59,0,0,0,5.77.73c9.39,0,20.33-3.46,31.72-10,44.75-25.81,82.51-91.3,82.51-142.95,0-9.27-1.35-26.63-10.5-37.46l-.15,0c11.67,1.87,18.3,9.8,22,19a53.17,53.17,0,0,1,2.55,8c0,.15.07.3.1.45.12.49.24,1,.33,1.49s.19,1,.28,1.44c0,.12.05.25.07.37.1.53.19,1,.27,1.54.29,1.92.54,3.78.7,5.57,0,.52.09,1,.12,1.51s.06.75.08,1.11c0,.15,0,.31,0,.47,0,.4.05.79.07,1.18,0,.11,0,.21,0,.33,0,.49,0,1,.05,1.46C265.35,143,265.36,143.93,265.36,144.76Z"/><path id="Trazado_1863" data-name="Trazado 1863" class="cls-22" d="M143.68,293.36A46.08,46.08,0,0,0,154.46,292a79.72,79.72,0,0,0,20.93-8.66c44.74-25.83,82.54-91.3,82.54-143A83.65,83.65,0,0,0,255,118c-2-6.92-5.35-13.66-10.89-18.31l-.53-.19c-.48-.17-1-.34-1.48-.48l-.89-.25c-.5-.13-1-.24-1.55-.34-.3-.06-.6-.13-.91-.18h-.1l.1,0c9.15,10.83,10.5,28.18,10.5,37.46,0,51.66-37.76,117.14-82.52,143-11.38,6.57-22.33,10-31.71,10a21.59,21.59,0,0,1-5.77-.73l.09.11a27.67,27.67,0,0,0,3.36,3.4A30.66,30.66,0,0,0,143.68,293.36Z"/><path id="Trazado_1864" data-name="Trazado 1864" class="cls-21" d="M252.75,93.17l-.12-.1h0l-13.84-8.13h-.05l-.19-.12a44,44,0,0,0-22-5.58C205,79.24,192,83,178.26,90.92,152.11,106,128.69,133.14,113,163.58l.1.06-.1-.06C100.43,188,92.8,214.68,92.8,239c0,27.13,9.51,46.25,24.88,55.24l12.83,7.54c-14.8-9.21-23.85-28.06-23.85-54.65,0-24.16,8.25-50.33,20.74-74.66,15.72-30,38.95-57.15,64.75-73.4,23.43-14.76,45.66-15,61.18-5.52Z"/></g></g><path id="Arm-2" class="cls-15" d="M385.18,299.6c-1.16-10.72-9.18-35-11.18-43.71-2.29-10-6.39-15.2-16.11-16.44-4.88,1.22-7.2,17.05-.84,27.4,2.29,7.36,11.48,31,11.48,31-.52,1.82-10.8,24.82-14.62,30.72a5.11,5.11,0,0,1-2.94,2.1c-3.22.89-7.24,3.69-9.92,5.22-2.1,1.2-3.58,1.2-3.53,1.8a2.74,2.74,0,0,0,3,2.2,43.58,43.58,0,0,0,6.35-1.56,75.47,75.47,0,0,1-7.18,7.35c-4.74,4.11-5.17,8.15,2.74,9.41,6,.95,9.63-2,16.41-11.49,2-2.74,4.28-6.95,6.65-10.5,6-8.95,9.51-12.52,12.92-18.31C383.8,305.64,385.63,303.73,385.18,299.6Z"/></g></g></g></g></svg>