<svg xmlns="http://www.w3.org/2000/svg" viewBox="0 0 2562.41 1655.09"><defs><style>.cls-1{fill:#e3eaff;}.cls-2{fill:#fff;}.cls-23,.cls-3{fill:#768fdb;}.cls-4{fill:#4364cc;}.cls-5{fill:#062440;}.cls-6{fill:#f37a50;}.cls-7{fill:#2c2858;}.cls-8{fill:#de623c;}.cls-9{fill:#c4204a;}.cls-10{fill:#f57191;}.cls-11{fill:#f3dad1;}.cls-12{fill:#f5a3b7;}.cls-13{fill:#e62552;}.cls-14{fill:#494c7f;}.cls-15{fill:#a11a3d;}.cls-16{fill:#3f964f;}.cls-17{fill:#0e6a41;}.cls-18{fill:#b0173e;}.cls-19{fill:#f3c8b9;}.cls-20{fill:#f3ae9c;}.cls-21{fill:#de6280;}.cls-22{fill:#607fdb;}.cls-23{font-size:75px;font-family:MyriadPro-Regular, Myriad Pro;}.cls-24{letter-spacing:0em;}.cls-25{letter-spacing:0em;}.cls-26{letter-spacing:-0.01em;}.cls-27{letter-spacing:-0.01em;}.cls-28{letter-spacing:-0.01em;}.cls-29{letter-spacing:0.01em;}.cls-30{letter-spacing:0em;}.cls-31{letter-spacing:-0.03em;}.cls-32{letter-spacing:-0.01em;}</style></defs><g id="Capa_2" data-name="Capa 2"><g id="Слой_1" data-name="Слой 1"><path class="cls-1" d="M86.49,1604.11c-150.17-168.72-76-349.14,6.77-535.95C123.29,1000.39,49,931.52,30,859.88c-54.69-206.15,110.84-431.6,258.15-468.19,174.58-43.36,286-64.81,360-116.36C739.31,211.85,817.35,20.46,1164.62,2,1638.29-23.17,1577.33,197.11,1824,210.33c635.29,34,412.25,376.38,516.42,590.73,65.5,209.37,190.71,95.09,216.74,306.09,21.65,175.56-29.59,355.17-40.69,529.19Z"/><polygon class="cls-2" points="596.58 732.43 548.71 1073.55 1347.34 1495.72 1556.98 865.07 923.44 567.39 596.58 732.43"/><path class="cls-3" d="M606.7,1571.37H202.62A72.36,72.36,0,0,1,275,1499H534.35a72.36,72.36,0,0,1,72.35,72.36Z"/><rect class="cls-3" x="332.73" y="896.89" width="28.92" height="615.55" transform="translate(-160.85 58.52) rotate(-7.83)"/><rect class="cls-3" x="423.2" y="416.16" width="28.92" height="615.55" transform="translate(552.07 -114.24) rotate(38.93)"/><path class="cls-4" d="M340,903.94a35.87,35.87,0,1,1-30.54-40.5A35.86,35.86,0,0,1,340,903.94Z"/><path class="cls-4" d="M727.13,473.6A68.71,68.71,0,1,1,672.89,393,68.71,68.71,0,0,1,727.13,473.6Z"/><path class="cls-3" d="M923.44,567.39l-326.86,165A253.52,253.52,0,0,1,585.42,707C548.17,607.48,580,500,663.12,458c82-41.43,185.79-4.76,244.18,81.83A252.55,252.55,0,0,1,923.44,567.39Z"/><path class="cls-4" d="M923.44,567.39l-326.86,165A253.52,253.52,0,0,1,585.42,707L907.3,539.87A252.55,252.55,0,0,1,923.44,567.39Z"/><path class="cls-5" d="M1301.76,1102.43c-98.19-15.46-248.42-128.62-179.63-279.08s118.43-101.63,53.58-255.84,25.11-302.64,140.22-291.6,159.89,93.85,289.15,45.84,264.3,55.54,234.87,173.53-40.87,174.27,17.68,225.19,282.78,74.75,222.07,235.38-73.93,213.7-25.27,278.74c183,244.62-108.16,344.94-233.16,357.12s-497.89-16.1-569.3-144.54S1301.76,1102.43,1301.76,1102.43Z"/><path class="cls-6" d="M1098,1165.58c13.7,34.24-55.91,138.94-86.9,134.61-142.55-74.43-271.62-296.62-271.62-296.62l42.21-59S928.06,1052.58,1098,1165.58Z"/><path class="cls-6" d="M1451.91,1085.12c-84.24,71.3-401.9,223.76-440.86,215.07l24.33-147.84s293-200.74,345.74-232.72C1472.34,864.05,1589.66,969,1451.91,1085.12Z"/><path class="cls-6" d="M703.16,852.34c-8.49-8.06-61.24-23.28-74.72-20.2-15.69,3.51-59.38,30.81-68.65,36.56s-2.32,14.44,12.75,15.27a99.12,99.12,0,0,0,54.74-17.14c22.71,6.77,39.08,12.69,41.15,14a27,27,0,0,1-7.82,51.55l-2.29,0a249.76,249.76,0,0,1,20,66.59c21.62,6.45,38.84,18.2,63.24,2.89l41.74-55.59C776.14,929.24,717,865.29,703.16,852.34Z"/><path class="cls-7" d="M502,896.09l-7.66-1.33a4.5,4.5,0,0,1-3.72-4.67h0a4.48,4.48,0,0,1,4.22-4.23l7.71-.45A4.48,4.48,0,0,1,507.3,890l-.05,1.79A4.49,4.49,0,0,1,502,896.09Z"/><rect class="cls-7" x="862.95" y="898.97" width="34.8" height="17.49" rx="2.33" transform="translate(-1.47 1.43) rotate(-0.09)"/><path class="cls-7" d="M879.79,896.74l-.37,11.81L879,920.13a3.77,3.77,0,0,1-4,3.52L598.55,910.87c-8.31-.43-98.72-9.36-98-14.55l.37-6.12.23-5.11c.14-4,90.49-5.6,98.87-5.34l275.71,13.06a3.64,3.64,0,0,1,4,3.22A3.37,3.37,0,0,1,879.79,896.74Z"/><path class="cls-6" d="M621.54,899.78c-8.84-4.8-22.79-8.95-32.6-6.77-32,8.67,2,26.58,11.6,38,9.8,11.72,29.43,69.13,119.89,78.2,4,4.13-29-82.86-49.42-80C650.91,932.09,630.08,904.69,621.54,899.78Z"/><path class="cls-8" d="M1638.48,773l-6.31,176s-91.62,65.45-162.46,21.85c10.9-54.49,25.74-144.14,25.74-144.14Z"/><path class="cls-9" d="M1468.55,889.94s-119.6,9.55-297,156.43c17.26,12,108.64,146.51,108.64,146.51L1407.25,1155Z"/><path class="cls-6" d="M1298.23,664.93c24.47,135.2,125.84,230,226.42,211.82S1686.91,734.19,1662.43,599,1536.58,369,1436,387.17,1273.75,529.74,1298.23,664.93Z"/><path class="cls-5" d="M1674.54,596.8c-102.85,5.35-206.46-33.75-272.36-96.58-18.78,90.78-104,164.71-104,164.71S1197.41,516,1311.67,405.19C1420.67,299.44,1727,302.75,1674.54,596.8Z"/><path d="M1523,680.05a19.67,19.67,0,1,0-22.86-15.85A19.67,19.67,0,0,0,1523,680.05Z"/><path d="M1380.93,704a19.66,19.66,0,1,0-22.86-15.85A19.66,19.66,0,0,0,1380.93,704Z"/><path class="cls-8" d="M1442,687c-13.29,34.84-17.85,49.72-25.38,58.5,13.28,19.63,50.64,19.71,59.52,14.18-27.34-4.23-35.64-19-35.64-19Z"/><path class="cls-6" d="M1638.64,622.81c-16.08,30.2-11,64.35,11.42,76.27s53.57-2.9,69.65-33.11,11-64.35-11.41-76.27S1654.73,592.6,1638.64,622.81Z"/><path class="cls-8" d="M1667.29,676.59a6.19,6.19,0,0,0,2.32-.93,6.28,6.28,0,0,0,1.83-8.71c-6.32-9.68-7.94-18.09-4.83-25,4.81-10.67,19.68-16.39,30.93-18a6.3,6.3,0,1,0-1.83-12.46c-15.1,2.22-33.69,10-40.58,25.33-3.44,7.62-5.22,20.23,5.77,37.05A6.3,6.3,0,0,0,1667.29,676.59Z"/><path class="cls-5" d="M1324.42,652a10.7,10.7,0,0,1,1.4-1.79c23.87-24.14,47.34-28.31,48.33-28.48a10,10,0,0,1,3.38,19.74c-.49.09-18.59,3.73-37.47,22.82A10,10,0,0,1,1324.42,652Z"/><path class="cls-5" d="M1500.08,598.36a10.08,10.08,0,0,1,2.22-.48c33.79-3.35,54.51,8.42,55.38,8.93a10,10,0,0,1-10,17.34c-.43-.24-16.69-9-43.41-6.34a10,10,0,0,1-4.19-19.45Z"/><path class="cls-2" d="M1433.09,805.54c-3.29-3.29-1.84-9.21,2.35-9.55a290.63,290.63,0,0,0,87.4-19.35c3.94-1.47,7.75,3.29,6.16,7.66-4.89,13.41-16.42,34.69-41.4,40.22S1443.18,815.64,1433.09,805.54Z"/><polygon class="cls-10" points="565.14 1253.99 526.57 1062.89 847.01 1216.26 617.92 1273.37 565.14 1253.99"/><polygon class="cls-11" points="576.92 1238.38 541.12 1069.59 557.99 1057.13 838.27 1194.19 576.92 1238.38"/><path class="cls-2" d="M571.74,1245.1c12.41-19.7,56-46.57,112.83-41.13s252.34-32.68,265.35-40.44c18.13,15.63,348.41,296.44,348.41,296.44l-13.72,24.89Z"/><polygon class="cls-10" points="1303.62 1489.93 1295.25 1504.84 948.41 1537.35 565.14 1253.99 573.51 1239.09 928.72 1191.67 1303.62 1489.93"/><polygon class="cls-12" points="1288.35 1500.27 933.14 1547.68 558.25 1249.42 913.45 1202 1288.35 1500.27"/><path class="cls-10" d="M798.58,1274.69c-4.5-42.39,51.1-30.13,64.81,7.08,11.83,32.11,9.72,56.29,7.68,73.36C715.09,1334.78,738.44,1242.47,798.58,1274.69Z"/><path class="cls-10" d="M1012.27,1334.64c-1.75-16.55,20-11.77,25.32,2.77a57.22,57.22,0,0,1,3,28.65C979.67,1358.11,988.78,1322.06,1012.27,1334.64Z"/><path class="cls-10" d="M856.18,1402.53c-1.75-16.55,20-11.76,25.32,2.77a57.25,57.25,0,0,1,3,28.66C823.58,1426,832.69,1390,856.18,1402.53Z"/><path class="cls-10" d="M762.74,1368.87c-1.75-16.55,20-11.77,25.32,2.77a57.22,57.22,0,0,1,3,28.65C730.14,1392.34,739.25,1356.29,762.74,1368.87Z"/><path class="cls-10" d="M925,1313.71c-1.76-16.56,20-11.77,25.32,2.77,4.62,12.54,3.79,22,3,28.65C892.38,1337.18,901.49,1301.13,925,1313.71Z"/><path class="cls-10" d="M1021.94,1413.35c-1.76-16.55,20-11.76,25.31,2.77a57.22,57.22,0,0,1,3,28.65C989.33,1436.82,998.45,1400.77,1021.94,1413.35Z"/><path class="cls-10" d="M1092.15,1402.53c-1.76-16.55,20-11.76,25.31,2.77a57.25,57.25,0,0,1,3,28.66C1059.54,1426,1068.66,1390,1092.15,1402.53Z"/><path class="cls-10" d="M1092.15,1470.57c-1.76-16.55,20-11.76,25.31,2.77a57.22,57.22,0,0,1,3,28.65C1059.54,1494,1068.66,1458,1092.15,1470.57Z"/><path class="cls-10" d="M1167.5,1470.57c-1.76-16.55,20-11.76,25.32,2.77a57.46,57.46,0,0,1,3,28.65C1134.89,1494,1144,1458,1167.5,1470.57Z"/><path class="cls-13" d="M1742.43,1517.49c-5.85-36.82-14.18-102-2.58-165,28-129.76,96-320.43,59.2-428.66-24.64-32.11-130.46-65.77-161.64-63.91-14.85,67.32-143.17,173.24-152.19,25.71-86,15.92-153.06,156.45-168.19,250.52-4.87,71.2,17.33,146.14,22.75,218.06,13.44,106.36-18.78,159-43,265.92l498.13-1.68C1765.93,1552,1744.86,1525.35,1742.43,1517.49Z"/><path class="cls-6" d="M1501.21,1401.48c38.75,15.37,55.56,140.44,44.08,149.43-171.9,59.14-426.07-13.62-426.07-13.62l-8-75.57C1161.55,1459,1276.41,1453.08,1501.21,1401.48Z"/><path class="cls-6" d="M1836,1117.1c-43,113.81-248.54,421.33-290.73,433.81L1460,1419.38s185.48-364.81,219.2-423.87C1737.39,893.12,1906.6,931.43,1836,1117.1Z"/><path class="cls-9" d="M1764.83,889.43c18.54.93,111.3-1.23,105.47,171.07,2.39,70.62-65.69,196.74-65.69,196.74s-131.27-38.43-223.73-112.38C1583,1108.43,1673.78,898.11,1764.83,889.43Z"/><path class="cls-6" d="M956.78,1518.3c26.74,3.65,105.27,7.88,162.44,19l-8-75.57c-42.13,2.23-101.5-74.14-184.91-86.58-28.45-4.24-41.43-8.6-44-4.94s-11.42,28.56,29.66,36.65c51.56,10.15,13.9,49.15-88.68,1.64-25.68-11.9-76.39-2.76-59.85,17.9C781.75,1449.16,835.08,1501.67,956.78,1518.3Z"/><rect class="cls-14" x="13.27" y="1570.24" width="2540.81" height="81.26" rx="39.97"/><path class="cls-15" d="M2316.14,1482.61H1918.91c-7,0-12.61,4.86-12.61,10.86v66c0,6,5.65,10.86,12.61,10.86h397.23Z"/><path class="cls-9" d="M2329.79,1499.71V1553a3.62,3.62,0,0,0,3.69,3.53h140.86a7,7,0,0,1,7.17,6.86h0a7,7,0,0,1-7.17,6.87H2318.41a7.71,7.71,0,0,1-7.71-7.72v-72.39a7.72,7.72,0,0,1,7.71-7.72h155.93a7,7,0,0,1,7.17,6.87v0a7,7,0,0,1-7.17,6.87H2333.45A3.59,3.59,0,0,0,2329.79,1499.71Z"/><path class="cls-2" d="M2333.62,1496.2h134.21a0,0,0,0,1,0,0v60.34a0,0,0,0,1,0,0H2333.62a7,7,0,0,1-7-7v-46.37A7,7,0,0,1,2333.62,1496.2Z"/><rect class="cls-1" x="2339.17" y="1506.51" width="104.35" height="5.43"/><rect class="cls-1" x="2396.65" y="1520.18" width="65.18" height="5.43"/><rect class="cls-1" x="2332.05" y="1546.14" width="84.28" height="5.43"/><rect class="cls-1" x="2350.72" y="1533.73" width="39.51" height="5.43"/><rect class="cls-9" x="1943.95" y="1501.52" width="321.73" height="49.9" rx="10.16"/><path class="cls-12" d="M2092.58,1319h408.64a12,12,0,0,1,12,12v61.57a12,12,0,0,1-12,12H2092.58Z"/><path class="cls-10" d="M2079.25,1335.69v52a3.54,3.54,0,0,1-3.6,3.45H1938.14a6.86,6.86,0,0,0-7,6.7h0a6.86,6.86,0,0,0,7,6.7h152.22a7.53,7.53,0,0,0,7.53-7.53v-70.68a7.53,7.53,0,0,0-7.53-7.53H1938.14a6.86,6.86,0,0,0-7,6.7v0a6.86,6.86,0,0,0,7,6.7h137.55A3.5,3.5,0,0,1,2079.25,1335.69Z"/><path class="cls-2" d="M1951.37,1332.27H2084.7a0,0,0,0,1,0,0v58.91a0,0,0,0,1,0,0H1951.37a6.88,6.88,0,0,1-6.88-6.88v-45.15A6.88,6.88,0,0,1,1951.37,1332.27Z" transform="translate(4029.19 2723.45) rotate(180)"/><path class="cls-10" d="M2190.8,1319s16.35,36.8.27,85.63c7.33,0,21.29-.05,21.29-.05s17.37-37.73,0-85.58Z"/><path class="cls-10" d="M2154.52,1319s16.35,36.8.27,85.63c7.33,0,21.28-.05,21.28-.05s17.37-37.73,0-85.58Z"/><rect class="cls-1" x="1996.9" y="1340.72" width="73.56" height="5.41"/><rect class="cls-1" x="1981.99" y="1377.69" width="73.56" height="5.42"/><rect class="cls-1" x="2008.49" y="1366.45" width="73.56" height="5.41"/><path class="cls-16" d="M2282.34,1231.34H1876.43c-7,0-12.61,4.86-12.61,10.86v66c0,6,5.64,10.86,12.61,10.86h405.91Z"/><path class="cls-17" d="M2296,1248.44v53.3a3.62,3.62,0,0,0,3.69,3.53h140.86a7,7,0,0,1,7.17,6.87h0a7,7,0,0,1-7.17,6.86H2284.61a7.72,7.72,0,0,1-7.72-7.72v-72.39a7.72,7.72,0,0,1,7.72-7.72h155.93a7,7,0,0,1,7.17,6.87v0a7,7,0,0,1-7.17,6.87h-140.9A3.59,3.59,0,0,0,2296,1248.44Z"/><path class="cls-2" d="M2299.82,1244.93H2434a0,0,0,0,1,0,0v60.34a0,0,0,0,1,0,0H2299.82a7,7,0,0,1-7-7v-46.37A7,7,0,0,1,2299.82,1244.93Z"/><path class="cls-17" d="M1948.43,1231.34s-16.36,37.69-.28,87.71c-7.33,0-21.28,0-21.28,0s-17.37-38.65,0-87.66Z"/><path class="cls-17" d="M2199.53,1231.34s-16.35,37.69-.28,87.71c-7.33,0-21.28,0-21.28,0s-17.37-38.65,0-87.66Z"/><rect class="cls-1" x="2305.37" y="1255.24" width="104.35" height="5.43"/><rect class="cls-1" x="2362.85" y="1268.91" width="65.18" height="5.43"/><rect class="cls-1" x="2298.25" y="1294.87" width="84.28" height="5.43"/><rect class="cls-1" x="2316.92" y="1282.47" width="39.51" height="5.42"/><polygon class="cls-13" points="2356.24 1331.04 2333.4 1320.45 2312.75 1331.04 2312.75 1275.19 2356.24 1275.19 2356.24 1331.04"/><path class="cls-4" d="M1872.42,1482l274.69,2,.42-80.61-274.7-1.95a11.31,11.31,0,0,0-11.37,11.26l-.3,58A11.31,11.31,0,0,0,1872.42,1482Z"/><path class="cls-2" d="M2140.49,1469.56l299.65-.31-.11-50L2144,1416.48c-1.46,0-6.17,4.16-6.18,5.26h0l.14,45.6a2.46,2.46,0,0,0,2.55,2.22Z"/><path class="cls-3" d="M2447.39,1484.74a8,8,0,0,0,1.92-15.81h-1.84l-297.07.32a86.28,86.28,0,0,1-9.9-.42,25.76,25.76,0,0,1-1.41-10.67l-.23-28a45.45,45.45,0,0,1,.79-9.92,28.1,28.1,0,0,1,11-1l297.08-.32a8,8,0,0,0,1.91-15.8h-1.83l-319.45-.16a8.93,8.93,0,0,0-8.84,8.78l0,63.62a8.94,8.94,0,0,0,8.76,8.87Z"/><rect class="cls-1" x="2156.01" y="1449.3" width="160.43" height="4.88"/><rect class="cls-1" x="2183.79" y="1435.51" width="160.43" height="4.88"/><rect class="cls-1" x="2163.16" y="1425.24" width="68.87" height="4.88"/><rect class="cls-1" x="2264.01" y="1458.28" width="160.43" height="4.88"/><path class="cls-10" d="M288.15,1296.23c0-9.18-47.25-16.62-105.55-16.62s-105.54,7.44-105.54,16.62,47.25,16.62,105.54,16.62S288.15,1305.4,288.15,1296.23Z"/><polygon class="cls-18" points="153.83 1522.66 210.06 1088.65 249.72 1093.83 193.48 1527.85 153.83 1522.66"/><path class="cls-13" d="M151.06,1543.81l2.77-21.15,39.65,5.19L190.71,1549a13.63,13.63,0,0,1-15.28,11.75l-12.62-1.65A13.63,13.63,0,0,1,151.06,1543.81Z"/><rect class="cls-19" x="165.23" y="1496.85" width="19.08" height="40.03" transform="translate(1701.49 1540.27) rotate(97.45)"/><path class="cls-20" d="M152.92,1522.44l.11-.84a1.18,1.18,0,0,1,1.33-1l39.38,5.15a1.18,1.18,0,0,1,1,1.32l-.11.84a1.2,1.2,0,0,1-1.33,1l-39.38-5.15A1.19,1.19,0,0,1,152.92,1522.44Z"/><path class="cls-20" d="M154,1513.32l.11-.84a1.18,1.18,0,0,1,1.33-1l39.37,5.15a1.18,1.18,0,0,1,1,1.33l-.11.84a1.18,1.18,0,0,1-1.33,1L155,1514.65A1.18,1.18,0,0,1,154,1513.32Z"/><path class="cls-20" d="M155.33,1503.81l.11-.84a1.18,1.18,0,0,1,1.33-1l39.37,5.15a1.18,1.18,0,0,1,1,1.33l-.11.84a1.17,1.17,0,0,1-1.32,1l-39.38-5.15A1.18,1.18,0,0,1,155.33,1503.81Z"/><path class="cls-19" d="M229.19,1096.61c10.95,1.44,20.13.21,20.52-2.74v0h0a1.69,1.69,0,0,0-.17-.89l-6.62-33.54-4.71-23.89a.86.86,0,0,0-1.62-.22L225.81,1057l-15.33,30.83a1.72,1.72,0,0,0-.4.81l0,0h0s0,0,0,0C209.68,1091.63,218.24,1095.18,229.19,1096.61Z"/><path class="cls-13" d="M234.48,1059.41a28.5,28.5,0,0,1-8.67-2.43l10.78-21.7a.86.86,0,0,1,1.62.22l4.71,23.89A29.62,29.62,0,0,1,234.48,1059.41Z"/><polygon class="cls-16" points="166.45 1144.17 193.8 1487.59 153.95 1490.91 126.6 1147.5 166.45 1144.17"/><path class="cls-13" d="M164.68,1122.92l1.77,21.26-39.85,3.32-1.77-21.26a13.63,13.63,0,0,1,12.45-14.72l12.68-1A13.63,13.63,0,0,1,164.68,1122.92Z"/><rect class="cls-19" x="137.67" y="1134.25" width="19.08" height="40.03" transform="matrix(-0.08, -1, 1, -0.08, -990.82, 1396.95)"/><path class="cls-20" d="M167.38,1144.2l.07.85a1.19,1.19,0,0,1-1.08,1.28l-39.57,3.3a1.19,1.19,0,0,1-1.28-1.08l-.07-.85a1.19,1.19,0,0,1,1.08-1.28l39.57-3.3A1.18,1.18,0,0,1,167.38,1144.2Z"/><path class="cls-20" d="M168.27,1153.34l.07.84a1.18,1.18,0,0,1-1.08,1.28l-39.57,3.3a1.18,1.18,0,0,1-1.28-1.08l-.07-.84a1.18,1.18,0,0,1,1.08-1.28l39.57-3.3A1.18,1.18,0,0,1,168.27,1153.34Z"/><path class="cls-20" d="M169,1162.91l.07.85A1.19,1.19,0,0,1,168,1165l-39.57,3.3a1.19,1.19,0,0,1-1.28-1.08l-.07-.85a1.18,1.18,0,0,1,1.08-1.27l39.57-3.31A1.19,1.19,0,0,1,169,1162.91Z"/><path class="cls-19" d="M173.42,1483.85c-11,.92-19.72,4.06-19.47,7v0h0v0a1.57,1.57,0,0,0,.36.83l13.56,31.37,9.66,22.36a.86.86,0,0,0,1.63-.13l6-23.49,8.45-33.38a1.67,1.67,0,0,0,.22-.88v0h0v0C193.55,1484.59,184.43,1482.93,173.42,1483.85Z"/><path class="cls-13" d="M176.13,1521.33a28.86,28.86,0,0,1,9,.54l-6,23.49a.86.86,0,0,1-1.63.13l-9.66-22.36A29.85,29.85,0,0,1,176.13,1521.33Z"/><polygon class="cls-17" points="171.56 1525.2 63.97 1157.54 102.01 1146.33 209.61 1513.99 171.56 1525.2"/><path class="cls-13" d="M177.54,1545.49l-6-20.29L209.61,1514l6,20.29a13.52,13.52,0,0,1-9.15,16.79l-12.11,3.57A13.52,13.52,0,0,1,177.54,1545.49Z"/><rect class="cls-19" x="178.77" y="1491.68" width="18.92" height="39.7" transform="translate(1584.97 903.84) rotate(73.59)"/><path class="cls-20" d="M170.65,1525.36l-.23-.81a1.17,1.17,0,0,1,.79-1.46L209,1512a1.18,1.18,0,0,1,1.46.79l.24.81a1.18,1.18,0,0,1-.8,1.46l-37.78,11.13A1.18,1.18,0,0,1,170.65,1525.36Z"/><path class="cls-20" d="M168,1516.66l-.24-.81a1.19,1.19,0,0,1,.8-1.46l37.78-11.13a1.19,1.19,0,0,1,1.46.8l.23.81a1.16,1.16,0,0,1-.79,1.45l-37.78,11.13A1.17,1.17,0,0,1,168,1516.66Z"/><path class="cls-20" d="M165.36,1507.5l-.23-.81a1.17,1.17,0,0,1,.79-1.46l37.78-11.13a1.18,1.18,0,0,1,1.46.8l.24.8a1.18,1.18,0,0,1-.8,1.46l-37.78,11.13A1.18,1.18,0,0,1,165.36,1507.5Z"/><path class="cls-19" d="M84.51,1157.08c10.5-3.09,18.35-7.89,17.51-10.72v0h0v0a1.73,1.73,0,0,0-.52-.74L82,1117.81,68.17,1098a.86.86,0,0,0-1.56.45l-1.07,24L64,1156.61a1.63,1.63,0,0,0,0,.9v0h0a.08.08,0,0,1,0,0C64.81,1160.4,74,1160.18,84.51,1157.08Z"/><path class="cls-16" d="M74.38,1121.22a28.38,28.38,0,0,1-8.84,1.27l1.07-24a.86.86,0,0,1,1.56-.45L82,1117.81A29.29,29.29,0,0,1,74.38,1121.22Z"/><polygon class="cls-17" points="290.92 1181.53 231.02 1479.46 192.2 1471.33 252.1 1173.4 290.92 1181.53"/><path class="cls-13" d="M295.25,1160.81l-4.33,20.72-38.82-8.13,4.33-20.71a13.51,13.51,0,0,1,16-10.46l12.36,2.58A13.52,13.52,0,0,1,295.25,1160.81Z"/><rect class="cls-19" x="260.31" y="1165.82" width="18.92" height="39.7" transform="translate(-946.02 1206.95) rotate(-78.18)"/><path class="cls-20" d="M270.87,1157.09h.84a1.17,1.17,0,0,1,1.17,1.17v39.38a1.18,1.18,0,0,1-1.18,1.18h-.84a1.17,1.17,0,0,1-1.17-1.17v-39.39a1.17,1.17,0,0,1,1.17-1.17Z" transform="translate(-937.27 1201.87) rotate(-78.16)"/><path class="cls-20" d="M269.12,1166H270a1.18,1.18,0,0,1,1.18,1.18v39.38a1.17,1.17,0,0,1-1.17,1.17h-.84a1.17,1.17,0,0,1-1.17-1.17v-39.39A1.17,1.17,0,0,1,269.12,1166Z" transform="translate(-947.38 1207.98) rotate(-78.2)"/><path class="cls-20" d="M288,1200.05l-.17.82a1.17,1.17,0,0,1-1.39.91l-38.55-8.06a1.17,1.17,0,0,1-.91-1.39l.17-.82a1.17,1.17,0,0,1,1.39-.91l38.55,8.06A1.17,1.17,0,0,1,288,1200.05Z"/><path class="cls-19" d="M212.71,1470.14c-10.72-2.25-19.9-1.73-20.5,1.16a.08.08,0,0,1,0,0h0v0a1.68,1.68,0,0,0,.11.9l4,33.66,2.85,24a.86.86,0,0,0,1.59.33l12.3-20.64,17.49-29.33a1.76,1.76,0,0,0,.46-.78v0h0a0,0,0,0,1,0,0C231.63,1476.53,223.43,1472.38,212.71,1470.14Z"/><path class="cls-16" d="M204.67,1506.53a28.47,28.47,0,0,1,8.39,3.06l-12.3,20.64a.86.86,0,0,1-1.59-.33l-2.85-24A29.4,29.4,0,0,1,204.67,1506.53Z"/><path class="cls-12" d="M288.08,1296.82l-6,50.59-2.68,22.51h0l-16.84,141.3-2.6,21.81-4.43,37.2H104.86l-3.81-37.51L98.85,1511,84.59,1370.42l-2.25-22.2-5.23-51.5c1.64,9,48.24,16.13,105.5,16.13C239.63,1312.85,286.1,1305.73,288.08,1296.82Z"/><path class="cls-21" d="M77.06,1296.23l0,.49A2,2,0,0,1,77.06,1296.23Z"/><path class="cls-21" d="M288.15,1296.23a3,3,0,0,1-.07.59Z"/><path class="cls-10" d="M262.53,1511.23l-2.6,21.81c-19.32,3.39-47.38,5.53-78.6,5.53-32.14,0-60.92-2.26-80.28-5.84L98.85,1511c19.34,3.81,49.1,6.25,82.47,6.25C214,1517.24,243.18,1514.9,262.53,1511.23Z"/><path class="cls-10" d="M282.05,1347.41l-2.68,22.51h0c-15.55,6.13-53.59,10.45-98,10.45-43.27,0-80.45-4.09-96.74-10l-2.25-22.2c14.92,6.33,53.6,10.84,99,10.84C228.6,1359.06,268.62,1354.16,282.05,1347.41Z"/><path class="cls-22" d="M2289.32,1186.12h-39.78a11.49,11.49,0,0,1,0-23h28.29v-74.7h-28.29a11.48,11.48,0,0,1,0-23h39.78A11.48,11.48,0,0,1,2300.8,1077v97.66A11.48,11.48,0,0,1,2289.32,1186.12Z"/><rect class="cls-3" x="2100.25" y="1020.26" width="149.29" height="211.07" rx="11.22"/><path class="cls-2" d="M2166.3,1000.17s-56.23-23.89-38.83-67.15,80.68-37.55,44.69-100.2c43.4,25.06,49.92,80.88,16.21,94.54S2152.94,975.64,2166.3,1000.17Z"/><path class="cls-2" d="M2219.15,1000.17s-40-17-27.62-47.75,57.37-26.7,31.78-71.26c30.86,17.83,35.5,57.52,11.53,67.24S2209.64,982.72,2219.15,1000.17Z"/><path class="cls-22" d="M2174.3,1108c20.91-24.24,40.16-1.44,35.65,15.61-3.6,19-35.68,44.41-36.26,41.92C2105.13,1114.94,2155.53,1079.34,2174.3,1108Z"/><path class="cls-22" d="M2249.54,1214.44v5.67a11.22,11.22,0,0,1-11.22,11.22H2111.47a11.22,11.22,0,0,1-11.22-11.22v-5.67Z"/><path class="cls-2" d="M1966.44,513.09a35.31,35.31,0,1,1,35.3-35.3A35.35,35.35,0,0,1,1966.44,513.09Zm0-60.89A25.59,25.59,0,1,0,1992,477.79,25.61,25.61,0,0,0,1966.44,452.2Z"/><path class="cls-2" d="M477.4,564.44a35.31,35.31,0,1,1,35.31-35.31A35.35,35.35,0,0,1,477.4,564.44Zm0-60.89A25.58,25.58,0,1,0,503,529.13,25.62,25.62,0,0,0,477.4,503.55Z"/><path class="cls-1" d="M939.75,715.67a35.31,35.31,0,1,1,35.3-35.3A35.35,35.35,0,0,1,939.75,715.67Zm0-60.88a25.58,25.58,0,1,0,25.58,25.58A25.6,25.6,0,0,0,939.75,654.79Z"/><path class="cls-2" d="M102.87,775A23.74,23.74,0,1,1,126.6,751.3,23.77,23.77,0,0,1,102.87,775Zm0-40.93a17.2,17.2,0,1,0,17.19,17.2A17.21,17.21,0,0,0,102.87,734.1Z"/><path class="cls-2" d="M1125.57,156.57a35.3,35.3,0,1,1,38.85-31.37A35.34,35.34,0,0,1,1125.57,156.57ZM1132,96a25.58,25.58,0,1,0,22.73,28.14A25.6,25.6,0,0,0,1132,96Z"/><path class="cls-2" d="M2053.55,421.12a19.88,19.88,0,1,1-19.87-19.88A19.87,19.87,0,0,1,2053.55,421.12Z"/><path class="cls-2" d="M1082.84,190.83A19.87,19.87,0,1,1,1065.19,169,19.87,19.87,0,0,1,1082.84,190.83Z"/><path class="cls-2" d="M1061.08,477.79a19.87,19.87,0,1,1-19.87-19.88A19.87,19.87,0,0,1,1061.08,477.79Z"/><path class="cls-1" d="M959.62,762.87A19.87,19.87,0,1,1,939.75,743,19.87,19.87,0,0,1,959.62,762.87Z"/><path class="cls-2" d="M2417.1,1041.41a19.87,19.87,0,1,1-19.87-19.87A19.87,19.87,0,0,1,2417.1,1041.41Z"/><path class="cls-2" d="M477.4,1247.94a19.87,19.87,0,1,1-19.87-19.87A19.87,19.87,0,0,1,477.4,1247.94Z"/><circle class="cls-2" cx="160.2" cy="631.96" r="49.7" transform="translate(-76.02 24.31) rotate(-7.02)"/><text class="cls-23" transform="translate(52.68 1636.34)"><tspan class="cls-24">D</tspan><tspan class="cls-25" x="50.25" y="0">esi</tspan><tspan class="cls-26" x="135.07" y="0">g</tspan><tspan x="176.55" y="0">ned </tspan><tspan class="cls-27" x="313.94" y="0">b</tspan><tspan x="356.09" y="0">y pch.</tspan><tspan class="cls-28" x="540.74" y="0">v</tspan><tspan x="576.06" y="0">e</tspan><tspan class="cls-29" x="613.64" y="0">c</tspan><tspan class="cls-26" x="648.21" y="0">t</tspan><tspan class="cls-30" x="672.59" y="0">or / </tspan><tspan class="cls-31" x="795.81" y="0">F</tspan><tspan class="cls-32" x="830.39" y="0">r</tspan><tspan class="cls-25" x="854.16" y="0">eepik</tspan></text></g></g></svg>