<svg xmlns="http://www.w3.org/2000/svg" xmlns:xlink="http://www.w3.org/1999/xlink" viewBox="0 0 1153.47 968.87"><defs><style>.cls-1{fill:none;}.cls-2{clip-path:url(#clip-path);}.cls-3{fill:#1799dd;}</style><clipPath id="clip-path" transform="translate(40.04)"><path class="cls-1" d="M1068.51,0l-50.73,37.5c-18.4,8.92-36.46,22.27-41.71,41.38-5.06,18.43,2.93,37.94.21,56.8-3.84,26.65-28.91,47-55.83,54.61-36.7,10.41-89.33,10.11-127.81,9.12-46.68-1.21-93.2-6.21-140-3.18-53,3.44-107.62,18.11-146,53.52-26.38,24.31-43.62,57.71-47.09,92.54-3.11,31.08,4.4,62.41,1.09,93.47-7.11,66.63-64,121.07-128.57,146.86-84.95,33.93-175.81,21.43-264,36.94-21.93,3.86-45,10.3-59.43,26.65C-38,699,116.92,794,157.16,816.51c77.13,43.18,165.12,70.83,253.94,81C569.52,915.7,735,874.45,864.89,784.39c31.92-22.13,62.41-47.85,81.1-81.09,27.42-48.79,25.84-109.33,4.51-160.51-31-74.37-64.57-162.78-45.23-244.44,6.63-28,23.14-55.17,49.41-69,21-11.11,47.63-13.68,63.74-30.78,13-13.82,15.73-33.88,15.07-52.43-.46-12.78-2.22-25.63-2.2-38.37a98.21,98.21,0,0,1,1.4-17.19c5.3-29.61,32.14-62.65,54.65-82.64,3.24-2.88,6.26-5.44,9-7.9"/></clipPath></defs><g id="Capa_2" data-name="Capa 2"><g id="Capa_1-2" data-name="Capa 1"><g class="cls-2"><rect class="cls-3" width="1153.47" height="968.87"/></g></g></g></svg>