<svg xmlns="http://www.w3.org/2000/svg" viewBox="0 0 50 34.3"><defs><style>.cls-1{isolation:isolate;}.cls-2{fill:#f4a16a;}.cls-3{fill:#6f3d24;}.cls-4{fill:#dd7947;}.cls-5{fill:#ffc792;}.cls-6{fill:#a65b35;}.cls-7{fill:#003845;}.cls-8{fill:#001c22;}.cls-9{fill:#006f8a;}.cls-10{fill:#005368;}.cls-11{fill:#338ca1;}.cls-12{fill:#fff;mix-blend-mode:soft-light;}</style></defs><g class="cls-1"><g id="Capa_2" data-name="Capa 2"><g id="Background"><polygon class="cls-2" points="44.62 32.37 31.32 32.37 25 28.52 18.68 32.37 5.38 32.37 5.38 6.76 44.62 6.76 44.62 32.37"/><path class="cls-3" d="M25,20.09h0A2.2,2.2,0,0,0,23,21.5L18.68,32.37l2.51-1.16a9,9,0,0,1,7.46,0l2.67,1.2L27.05,21.5A2.2,2.2,0,0,0,25,20.09Z"/><path class="cls-4" d="M44.62,6.76H5.38L.79.79S18.63,5.19,25,5.19,49.21.79,49.21.79Z"/><polygon class="cls-3" points="5.38 6.76 5.38 32.37 0.79 34.3 0.79 0.79 5.38 6.76"/><polygon class="cls-5" points="49.21 0.79 49.21 34.3 44.62 32.37 44.62 6.76 49.21 0.79"/><path class="cls-6" d="M5.38,6.76H44.62v4.87S19.53,12.71,14.4,16.58,7.82,32.37,7.82,32.37H5.38Z"/><rect class="cls-2" y="0.79" width="0.79" height="33.5"/><rect class="cls-2" x="49.21" width="0.79" height="34.3"/><path class="cls-2" d="M49.23,0V.79S31.38,5.18,25,5.19c-6.57,0-25-4.4-25-4.4V0S18.43,4.4,25,4.39C31.38,4.39,49.23,0,49.23,0Z"/><circle class="cls-7" cx="34.5" cy="19.33" r="4.53"/><path class="cls-8" d="M34.5,15a4.29,4.29,0,1,1-4.28,4.29A4.29,4.29,0,0,1,34.5,15Z"/><path class="cls-9" d="M34.5,15.58a3.75,3.75,0,1,1-3.75,3.75A3.75,3.75,0,0,1,34.5,15.58Z"/><path class="cls-10" d="M34.5,16.07a3.26,3.26,0,1,1-3.25,3.26A3.26,3.26,0,0,1,34.5,16.07Z"/><path class="cls-11" d="M34.5,17.2a2.13,2.13,0,1,1-2.13,2.13A2.13,2.13,0,0,1,34.5,17.2Z"/><ellipse class="cls-12" cx="33.46" cy="19.33" rx="2.55" ry="2.81"/><circle class="cls-7" cx="15.5" cy="19.33" r="4.53"/><path class="cls-8" d="M15.5,15a4.29,4.29,0,1,1-4.29,4.29A4.29,4.29,0,0,1,15.5,15Z"/><path class="cls-9" d="M15.5,15.58a3.75,3.75,0,1,1-3.76,3.75A3.75,3.75,0,0,1,15.5,15.58Z"/><path class="cls-10" d="M15.5,16.07a3.26,3.26,0,1,1-3.26,3.26A3.26,3.26,0,0,1,15.5,16.07Z"/><path class="cls-11" d="M15.5,17.2a2.13,2.13,0,1,1-2.13,2.13A2.13,2.13,0,0,1,15.5,17.2Z"/><ellipse class="cls-12" cx="14.46" cy="19.33" rx="2.55" ry="2.81"/><path class="cls-6" d="M24.33,30.41a9,9,0,0,1,4.32.76l2.67,1.2-3.74-9.53a2.17,2.17,0,0,0-.62.86Z"/></g></g></g></svg>