<svg xmlns="http://www.w3.org/2000/svg" xmlns:xlink="http://www.w3.org/1999/xlink" viewBox="0 0 356.46 464.81"><defs><style>.cls-1,.cls-51{fill:none;}.cls-2{isolation:isolate;}.cls-3{fill:#ffd200;}.cls-4,.cls-5{fill:#272977;}.cls-4,.cls-51{stroke:#fff;stroke-miterlimit:10;}.cls-10,.cls-6,.cls-7,.cls-8,.cls-9{font-size:16.05px;}.cls-23,.cls-6{fill:#bc4598;}.cls-10,.cls-23,.cls-24,.cls-25,.cls-26,.cls-27,.cls-6,.cls-7,.cls-72,.cls-77,.cls-8,.cls-9{font-family:QuicksandBold-Regular, Quicksand;}.cls-24,.cls-7{fill:#2fb8ce;}.cls-25,.cls-8{fill:#ea7e21;}.cls-26,.cls-9{fill:#e71154;}.cls-10,.cls-27{fill:#a5cb34;}.cls-11{fill:#e9686a;}.cls-12{clip-path:url(#clip-path);}.cls-13{fill:#ffb700;}.cls-14{fill:#6f7072;}.cls-15{fill:#e89d43;}.cls-16{fill:#4ac3ed;}.cls-17{fill:#689cb0;}.cls-18{fill:#f7ead0;}.cls-19{fill:#eddfc2;}.cls-20{fill:#5c8ea1;}.cls-21{fill:#84cdd9;}.cls-22{fill:#f2cf77;}.cls-23,.cls-24,.cls-25,.cls-26,.cls-27{font-size:22.01px;}.cls-28{fill:#3397e8;}.cls-29{fill:#1261a0;}.cls-30{fill:#2978b8;}.cls-31{fill:#eb423f;}.cls-32{fill:#f7b030;}.cls-33{fill:#dbedff;}.cls-34{fill:#b5dcff;}.cls-35{fill:#f4dd45;}.cls-36{fill:#64d465;}.cls-37{fill:#f87c68;}.cls-38{fill:#7fb3fa;}.cls-39{fill:#fcc101;}.cls-40{fill:#40c140;}.cls-41{fill:#ec625e;}.cls-42{fill:#64a6f4;}.cls-43{fill:#ce775f;}.cls-44{fill:#c0694e;}.cls-45{fill:#ffe97b;}.cls-46{fill:#477b9e;}.cls-47{fill:#3f6d8e;}.cls-48{fill:#32b1cc;}.cls-49{fill:#55b56a;}.cls-50{fill:#f49e21;}.cls-52,.cls-53,.cls-72,.cls-77,.cls-82{fill:#fff;}.cls-53{font-size:10px;font-family:QuicksandBook-Regular, Quicksand;}.cls-54{letter-spacing:-0.13em;}.cls-55{letter-spacing:0.04em;}.cls-56{letter-spacing:-0.01em;}.cls-57{letter-spacing:-0.02em;}.cls-58{letter-spacing:-0.05em;}.cls-59{letter-spacing:0.04em;}.cls-60{letter-spacing:-0.02em;}.cls-61{letter-spacing:-0.02em;}.cls-62{letter-spacing:-0.04em;}.cls-63{letter-spacing:-0.03em;}.cls-64{letter-spacing:-0.03em;}.cls-65{letter-spacing:-0.05em;}.cls-66{letter-spacing:0.02em;}.cls-67{letter-spacing:-0.04em;}.cls-68{letter-spacing:-0.02em;}.cls-69{letter-spacing:0em;}.cls-70{letter-spacing:-0.05em;}.cls-71{letter-spacing:0.12em;}.cls-72{font-size:15px;}.cls-73{letter-spacing:-0.01em;}.cls-74{letter-spacing:-0.03em;}.cls-75{letter-spacing:-0.06em;}.cls-76{letter-spacing:0.02em;}.cls-77{font-size:17.25px;}.cls-78{letter-spacing:-0.06em;}.cls-79{letter-spacing:0.02em;}.cls-80{fill:#24b3b3;}.cls-81{opacity:0.5;}.cls-81,.cls-82,.cls-84{mix-blend-mode:soft-light;}.cls-83{fill:#263780;}.cls-84{opacity:0.4;}</style><clipPath id="clip-path"><rect class="cls-1" x="214.5" y="127.74" width="150.46" height="74.55"/></clipPath></defs><g class="cls-2"><g id="Capa_2" data-name="Capa 2"><g id="Capa_1-2" data-name="Capa 1"><path class="cls-3" d="M227.85,86.15H215.29V73.59a1.91,1.91,0,0,0-1.91-1.91H204.8a1.92,1.92,0,0,0-1.91,1.91V86.15H190.33a1.92,1.92,0,0,0-1.91,1.91v8.58a1.91,1.91,0,0,0,1.91,1.91h12.56v12.56A1.91,1.91,0,0,0,204.8,113h8.58a1.9,1.9,0,0,0,1.91-1.91V98.55h12.56a1.9,1.9,0,0,0,1.91-1.91V88.06A1.91,1.91,0,0,0,227.85,86.15Z"/><path class="cls-3" d="M200.52,298.83v7.5a1.88,1.88,0,0,1-1.87,1.88H164.89a1.88,1.88,0,0,1-1.87-1.88v-7.5a1.87,1.87,0,0,1,1.87-1.87h33.76A1.87,1.87,0,0,1,200.52,298.83Z"/><path class="cls-3" d="M200.52,318.26v7.5a1.88,1.88,0,0,1-1.87,1.88H164.89a1.88,1.88,0,0,1-1.87-1.88v-7.5a1.87,1.87,0,0,1,1.87-1.87h33.76A1.87,1.87,0,0,1,200.52,318.26Z"/><rect class="cls-4" x="36.81" y="0.5" width="135.39" height="183.71" rx="8.19"/><rect class="cls-4" x="0.5" y="280.61" width="135.39" height="183.71" rx="8.19"/><rect class="cls-4" x="220.57" y="123.74" width="135.39" height="183.71" rx="8.19"/><path class="cls-5" d="M232.1,128.37H344.44a6.93,6.93,0,0,1,6.93,6.93v63.9a0,0,0,0,1,0,0H225.17a0,0,0,0,1,0,0V135.3A6.93,6.93,0,0,1,232.1,128.37Z"/><text class="cls-6" transform="translate(7.69 338.45)">S</text><text class="cls-7" transform="translate(17.9 338.45)">T</text><text class="cls-8" transform="translate(27.56 338.45)">E</text><text class="cls-9" transform="translate(36.79 338.45)">A</text><text class="cls-10" transform="translate(46.95 338.45)">M</text><path class="cls-11" d="M73.19,330.68H69.55V327a.55.55,0,0,0-.55-.55H66.52A.55.55,0,0,0,66,327v3.64H62.33a.55.55,0,0,0-.55.55v2.48a.55.55,0,0,0,.55.55H66v3.64a.55.55,0,0,0,.55.55H69a.55.55,0,0,0,.55-.55v-3.64h3.64a.55.55,0,0,0,.55-.55v-2.48A.55.55,0,0,0,73.19,330.68Z"/><g class="cls-12"><path class="cls-13" d="M269.71,180h0a.18.18,0,0,1,.2.15c0,.18.05.37.08.57a.17.17,0,0,1-.34,0c0-.19-.05-.38-.08-.56A.16.16,0,0,1,269.71,180Z"/><path class="cls-13" d="M303.26,150.37l.64-.19a.17.17,0,0,1,.21.12.17.17,0,0,1-.12.21c-.36.1-.73.21-1.08.33a.17.17,0,0,1-.22-.1.18.18,0,0,1,.11-.22A4.11,4.11,0,0,1,303.26,150.37Zm-1.73.65a.16.16,0,0,1,.21.09.17.17,0,0,1-.09.23c-.33.15-.68.31-1,.49a.18.18,0,0,1-.23-.07.17.17,0,0,1,.07-.23c.34-.18.69-.35,1-.51Zm3.69-1.13h0a11.12,11.12,0,0,1,1.14-.15.17.17,0,0,1,.19.15.18.18,0,0,1-.15.19,10.74,10.74,0,0,0-1.12.15.19.19,0,0,1-.2-.14A.17.17,0,0,1,305.22,149.89Zm-5.89,2.3a.17.17,0,0,1,.19.08.16.16,0,0,1,0,.23q-.48.3-.93.63a.16.16,0,0,1-.24,0,.17.17,0,0,1,0-.24c.31-.22.63-.43,1-.64Zm8.38-2.53h.05c.38,0,.77,0,1.15,0a.18.18,0,0,1,.16.18.17.17,0,0,1-.19.16c-.37,0-.75,0-1.12,0a.18.18,0,0,1-.17-.17A.18.18,0,0,1,307.71,149.66Zm-10.4,4a.17.17,0,0,1,.16.29c-.28.24-.57.5-.84.76a.17.17,0,1,1-.23-.25c.27-.27.56-.52.85-.77Zm12.89-3.8h.08a11.19,11.19,0,0,1,1.12.24.17.17,0,1,1-.08.33c-.36-.09-.73-.17-1.1-.23a.18.18,0,0,1-.14-.2A.17.17,0,0,1,310.2,149.87Zm-14.69,5.54a.17.17,0,0,1,.17,0,.16.16,0,0,1,0,.24q-.37.42-.72.87a.18.18,0,0,1-.24,0,.17.17,0,0,1,0-.24c.23-.3.48-.6.74-.88A.15.15,0,0,1,295.51,155.41Zm17.1-4.9h.11a10.78,10.78,0,0,1,1.07.42.17.17,0,0,1-.13.31c-.35-.15-.7-.29-1.05-.41a.18.18,0,0,1-.11-.22A.16.16,0,0,1,312.61,150.51Zm-60,19.87h0c.37-.11.74-.21,1.11-.29a.17.17,0,0,1,.08.34c-.37.08-.73.17-1.09.28a.17.17,0,0,1-.21-.12A.16.16,0,0,1,252.6,170.38Zm41.39-13a.14.14,0,0,1,.14,0,.16.16,0,0,1,.05.23c-.2.32-.4.65-.57,1a.18.18,0,0,1-.23.07.17.17,0,0,1-.07-.23,11.22,11.22,0,0,1,.59-1A.13.13,0,0,1,294,157.39Zm-42.68,13.43a.17.17,0,0,1,.21.1.17.17,0,0,1-.1.22l-1,.44a.17.17,0,0,1-.23-.08.17.17,0,0,1,.08-.23c.34-.16.7-.31,1.06-.45Zm3.73-1h0c.38,0,.77-.09,1.14-.11a.17.17,0,0,1,.19.16.18.18,0,0,1-.16.18c-.37,0-.75.06-1.12.11a.18.18,0,0,1-.2-.14A.17.17,0,0,1,255,169.86Zm-6,2a.18.18,0,0,1,.2.08.17.17,0,0,1-.06.23c-.32.2-.64.41-.93.62a.17.17,0,0,1-.24,0,.16.16,0,0,1,0-.24,10.51,10.51,0,0,1,1-.64Zm65.84-20.39a.15.15,0,0,1,.13,0l.66.37.34.2a.17.17,0,1,1-.19.29l-.33-.2-.64-.36a.17.17,0,0,1-.07-.23A.16.16,0,0,1,314.9,151.52Zm-57.36,18.19h0c.39,0,.77,0,1.15.06a.19.19,0,0,1,.16.19.18.18,0,0,1-.19.15c-.37,0-.75,0-1.12-.06a.17.17,0,0,1-.17-.17A.16.16,0,0,1,257.54,169.71Zm-10.47,3.7a.16.16,0,0,1,.17.05.16.16,0,0,1,0,.24,9.66,9.66,0,0,0-.77.81.17.17,0,0,1-.24,0,.19.19,0,0,1,0-.25c.24-.28.51-.57.79-.84ZM260,170h.09c.38.07.75.15,1.12.25a.17.17,0,0,1,.12.21.17.17,0,0,1-.21.12c-.36-.1-.72-.18-1.1-.25a.16.16,0,0,1-.13-.19A.18.18,0,0,1,260,170Zm57-17.1a.16.16,0,0,1,.15,0q.46.35.9.72a.17.17,0,0,1,0,.24.19.19,0,0,1-.25,0c-.28-.25-.57-.48-.87-.71a.17.17,0,0,1,0-.24A.24.24,0,0,1,317,152.85Zm-71.51,22.5a.17.17,0,0,1,.14,0,.17.17,0,0,1,.06.23,9.33,9.33,0,0,0-.52,1,.18.18,0,0,1-.23.09.17.17,0,0,1-.08-.23,9.94,9.94,0,0,1,.54-1A.14.14,0,0,1,245.5,175.35Zm16.93-4.73a.14.14,0,0,1,.11,0,10,10,0,0,1,1.06.46.16.16,0,0,1,.07.23.17.17,0,0,1-.22.08,9.44,9.44,0,0,0-1-.45.19.19,0,0,1-.1-.23A.18.18,0,0,1,262.43,170.62Zm-18,7a.09.09,0,0,1,.1,0,.16.16,0,0,1,.11.21c-.11.35-.21.72-.29,1.08a.18.18,0,0,1-.21.13.17.17,0,0,1-.13-.2c.09-.38.19-.75.31-1.11A.15.15,0,0,1,244.47,177.63Zm74.42-23.13a.16.16,0,0,1,.17.05c.27.27.52.56.77.85a.16.16,0,0,1,0,.24.17.17,0,0,1-.24,0c-.23-.29-.49-.57-.75-.84a.17.17,0,0,1,0-.24Zm-54.24,17.25a.2.2,0,0,1,.15,0c.32.21.63.44.93.68a.17.17,0,0,1,0,.24.17.17,0,0,1-.24,0c-.29-.23-.6-.46-.91-.66a.18.18,0,0,1-.05-.24A.2.2,0,0,1,264.65,171.75ZM244,180.07H244a.17.17,0,0,1,.15.19c0,.37-.06.74-.07,1.12a.17.17,0,0,1-.17.17.18.18,0,0,1-.17-.18c0-.38,0-.77.07-1.15A.16.16,0,0,1,244,180.07Zm22.62-6.72a.17.17,0,0,1,.18,0,10.54,10.54,0,0,1,.75.88.17.17,0,1,1-.27.2,9.76,9.76,0,0,0-.73-.84.18.18,0,0,1,0-.25Zm53.9-16.91a.16.16,0,0,1,.19.06c.21.32.42.64.61,1a.18.18,0,0,1-.06.24.17.17,0,0,1-.23-.06c-.19-.33-.39-.65-.6-1a.16.16,0,0,1,0-.24Zm-76.53,26.12h0a.18.18,0,0,1,.19.15,10.6,10.6,0,0,0,.16,1.11.17.17,0,1,1-.33.06,10.42,10.42,0,0,1-.18-1.14A.2.2,0,0,1,243.94,182.56Zm24.14-7.23a.17.17,0,0,1,.19.08,9.94,9.94,0,0,1,.54,1,.18.18,0,0,1-.08.23.17.17,0,0,1-.23-.09,10.12,10.12,0,0,0-.52-1,.18.18,0,0,1,.06-.24ZM321.7,158.6a.19.19,0,0,1,.21.1c.16.34.31.7.45,1.06a.19.19,0,0,1-.1.22.2.2,0,0,1-.23-.1c-.13-.35-.27-.7-.43-1a.18.18,0,0,1,.08-.23ZM244.46,185a.18.18,0,0,1,.22.11,10.12,10.12,0,0,0,.4,1,.16.16,0,0,1-.08.22.17.17,0,0,1-.23-.08,10.06,10.06,0,0,1-.42-1.08.16.16,0,0,1,.11-.21Zm24.65-7.41a.18.18,0,0,1,.22.11c0,.1.06.21.1.31.08.26.15.52.22.79a.17.17,0,0,1-.12.21.16.16,0,0,1-.21-.12c-.07-.27-.14-.53-.22-.78,0-.1-.07-.2-.1-.3a.18.18,0,0,1,.11-.22ZM322.57,161h0a.16.16,0,0,1,.21.12,10.56,10.56,0,0,1,.27,1.11.16.16,0,0,1-.13.2.18.18,0,0,1-.21-.13c-.07-.37-.16-.73-.26-1.09A.18.18,0,0,1,322.57,161Zm-77.06,26.32a.17.17,0,0,1,.2.07,10.48,10.48,0,0,0,.64.91.17.17,0,1,1-.26.22,9,9,0,0,1-.67-.95.16.16,0,0,1,.06-.23ZM323,163.4h0a.17.17,0,0,1,.19.16c0,.37.07.76.08,1.14a.17.17,0,0,1-.16.18.17.17,0,0,1-.18-.17c0-.37,0-.75-.08-1.12A.16.16,0,0,1,323,163.4ZM247.1,189.2a.16.16,0,0,1,.16,0,8.08,8.08,0,0,0,.87.7.19.19,0,0,1,0,.24.17.17,0,0,1-.24,0,7.76,7.76,0,0,1-.9-.73.17.17,0,0,1,0-.24A.12.12,0,0,1,247.1,189.2Zm76-23.3h.06a.16.16,0,0,1,.16.18c0,.38-.05.77-.1,1.14a.17.17,0,1,1-.34,0c.05-.37.08-.75.1-1.12A.16.16,0,0,1,323.11,165.9Zm-74,24.71a.17.17,0,0,1,.12,0,9.26,9.26,0,0,0,1,.42.17.17,0,1,1-.11.33c-.36-.13-.72-.28-1.07-.44a.18.18,0,0,1-.08-.23A.16.16,0,0,1,249.15,190.61Zm73.63-22.24h.08a.16.16,0,0,1,.13.2c-.08.38-.18.75-.29,1.11a.16.16,0,0,1-.21.12.16.16,0,0,1-.11-.21c.1-.36.2-.73.28-1.09A.18.18,0,0,1,322.78,168.37Zm-71.26,23h.08a10,10,0,0,0,1.1.14.17.17,0,0,1,.17.18.19.19,0,0,1-.19.16,10.44,10.44,0,0,1-1.14-.14.16.16,0,0,1-.14-.2A.18.18,0,0,1,251.52,191.38Zm2.48.13h.05c.36,0,.73-.07,1.11-.13a.17.17,0,0,1,.19.15.16.16,0,0,1-.14.19c-.38.06-.77.1-1.14.13a.17.17,0,0,1-.18-.16A.17.17,0,0,1,254,191.51Zm2.47-.39h0c.35-.09.72-.2,1.08-.31a.18.18,0,0,1,.22.12.18.18,0,0,1-.12.21h0l-.22.07-.88.25a.19.19,0,0,1-.21-.13A.16.16,0,0,1,256.47,191.12Zm2.41-.65h0q.59-.12,1.14-.18a.18.18,0,0,1,.19.15.17.17,0,0,1-.16.19c-.35,0-.73.1-1.1.17a.16.16,0,0,1-.2-.13A.17.17,0,0,1,258.88,190.47ZM322,170.76h.12a.17.17,0,0,1,.09.23c-.14.35-.3.7-.47,1a.17.17,0,0,1-.23.08.17.17,0,0,1-.08-.23c.17-.33.33-.68.47-1A.16.16,0,0,1,322,170.76Zm-60.66,19.48h.05a8.78,8.78,0,0,1,1.16.1.19.19,0,0,1,.14.2.18.18,0,0,1-.2.14,8,8,0,0,0-1.11-.1.16.16,0,0,1-.16-.18A.18.18,0,0,1,261.37,190.24Zm2.44.45h.11a7.32,7.32,0,0,1,1.06.49.17.17,0,0,1-.17.3,6.55,6.55,0,0,0-1-.47.17.17,0,0,1-.11-.21A.2.2,0,0,1,263.81,190.69ZM320.89,173a.14.14,0,0,1,.14,0,.17.17,0,0,1,.06.23c-.21.33-.43.64-.66,1a.17.17,0,0,1-.24,0,.17.17,0,0,1,0-.24c.22-.3.44-.61.64-.92A.13.13,0,0,1,320.89,173Zm-1.53,2a.16.16,0,0,1,.17,0,.17.17,0,0,1,0,.24c-.27.28-.54.55-.83.8a.16.16,0,0,1-.24,0,.17.17,0,0,1,0-.24c.28-.25.55-.51.81-.79ZM266,192a.16.16,0,0,1,.16,0,6.44,6.44,0,0,1,.8.85.18.18,0,0,1,0,.24.18.18,0,0,1-.25,0,5.72,5.72,0,0,0-.75-.81.17.17,0,0,1,0-.24Zm51.53-15.37a.18.18,0,0,1,.19.07.17.17,0,0,1,0,.24q-.47.33-1,.63a.19.19,0,0,1-.24-.06.19.19,0,0,1,.06-.24c.33-.19.64-.4.94-.61Zm-2.15,1.27a.16.16,0,0,1,.2.08.18.18,0,0,1-.07.23c-.35.18-.68.36-1,.55a.18.18,0,0,1-.23-.06.18.18,0,0,1,.06-.24c.31-.18.65-.37,1-.55Zm-2.14,1.29a.16.16,0,0,1,.19.06.17.17,0,0,1,0,.24,9,9,0,0,0-.88.69.19.19,0,0,1-.25,0,.17.17,0,0,1,0-.24c.28-.24.59-.48.91-.71ZM267.44,194a.17.17,0,0,1,.21.09,7.71,7.71,0,0,1,.43,1.07.18.18,0,0,1-.11.22h0a.18.18,0,0,1-.22-.11,6.7,6.7,0,0,0-.41-1,.17.17,0,0,1,.08-.23Zm43.88-13.15a.17.17,0,0,1,.17,0,.17.17,0,0,1,0,.24,9,9,0,0,0-.67.89.17.17,0,0,1-.23,0,.18.18,0,0,1-.06-.24,9.72,9.72,0,0,1,.7-.92A.18.18,0,0,1,311.32,180.8Zm-1.3,2.11a.14.14,0,0,1,.11,0,.17.17,0,0,1,.1.22,6.19,6.19,0,0,0-.32,1.06.17.17,0,0,1-.2.13.17.17,0,0,1-.13-.2,7.2,7.2,0,0,1,.33-1.12A.18.18,0,0,1,310,182.91Zm-41.86,13.42h0a.16.16,0,0,1,.19.14,8.92,8.92,0,0,1,.08,1.16.18.18,0,0,1-.17.17.18.18,0,0,1-.18-.17,6.83,6.83,0,0,0-.07-1.11A.18.18,0,0,1,268.16,196.33Zm41.39-11h.05a.18.18,0,0,1,.17.18,8.4,8.4,0,0,0,.05,1.11.17.17,0,0,1-.16.19.17.17,0,0,1-.18-.15,9.24,9.24,0,0,1-.05-1.16A.17.17,0,0,1,309.55,185.35Zm-41.43,13.47h.08a.17.17,0,0,1,.14.2,8.34,8.34,0,0,1-.28,1.12.18.18,0,0,1-.22.11.16.16,0,0,1-.11-.21A8.12,8.12,0,0,0,268,199,.17.17,0,0,1,268.12,198.82Zm-.81,2.36a.15.15,0,0,1,.13,0,.18.18,0,0,1,.07.23,7.18,7.18,0,0,1-.64,1,.17.17,0,1,1-.27-.22,5.87,5.87,0,0,0,.61-.92A.16.16,0,0,1,267.31,201.18Zm42.5-13.35h0a.16.16,0,0,1,.2.13c.08.35.18.71.29,1.08a.19.19,0,0,1-.12.22.17.17,0,0,1-.21-.12c-.12-.38-.21-.75-.29-1.11A.17.17,0,0,1,309.81,187.83ZM265.74,203.1a.16.16,0,0,1,.18.06.17.17,0,0,1,0,.24l-.38.29c-.18.13-.36.26-.53.4a.17.17,0,1,1-.21-.27c.17-.14.35-.27.54-.4l.36-.28Zm-1.92,1.6a.16.16,0,0,1,.17,0,.17.17,0,0,1,0,.24,9.8,9.8,0,0,0-.75.84.17.17,0,0,1-.27-.22,10.44,10.44,0,0,1,.78-.86Zm46.71-14.48a.19.19,0,0,1,.22.11c.12.33.26.69.41,1a.16.16,0,0,1-.09.22.16.16,0,0,1-.22-.09c-.16-.36-.3-.72-.43-1.06a.18.18,0,0,1,.11-.22Zm-48.26,16.44a.17.17,0,0,1,.14,0,.18.18,0,0,1,.06.24,10.37,10.37,0,0,0-.53,1,.16.16,0,0,1-.22.09.17.17,0,0,1-.09-.23,11.1,11.1,0,0,1,.54-1A.17.17,0,0,1,262.27,206.66Zm23.47-6.08.32-.1a.17.17,0,0,1,.21.12.16.16,0,0,1-.11.21c-.36.11-.72.23-1.07.36a.18.18,0,0,1-.22-.1.17.17,0,0,1,.1-.22C285.22,200.75,285.48,200.66,285.74,200.58Zm25.77-8.06a.19.19,0,0,1,.21.1c.15.32.32.67.49,1a.17.17,0,0,1-.31.16l-.5-1a.18.18,0,0,1,.09-.23Zm-24.13,7.65h0c.37-.07.76-.13,1.14-.17a.16.16,0,0,1,.19.14.19.19,0,0,1-.15.2c-.37,0-.75.1-1.11.17a.17.17,0,0,1-.2-.14A.16.16,0,0,1,287.38,200.17Zm-3.65,1.22a.18.18,0,0,1,.21.09.17.17,0,0,1-.08.23,10.14,10.14,0,0,0-1,.55.18.18,0,0,1-.24-.06.16.16,0,0,1,.05-.23c.32-.2.66-.39,1-.57Zm6.14-1.5h0c.38,0,.77,0,1.15,0a.18.18,0,0,1,.17.18.19.19,0,0,1-.18.17c-.37,0-.75,0-1.13,0a.17.17,0,0,1-.17-.16A.16.16,0,0,1,289.87,199.89Zm-28.61,9.05h.1a.17.17,0,0,1,.12.21,8.12,8.12,0,0,0-.23,1.09.18.18,0,0,1-.2.14.17.17,0,0,1-.14-.19,7.72,7.72,0,0,1,.24-1.14A.17.17,0,0,1,261.26,208.94Zm20.38-6.2a.17.17,0,0,1,.18.06.17.17,0,0,1,0,.24,10,10,0,0,0-.83.75.17.17,0,0,1-.24,0,.18.18,0,0,1,0-.25,10.62,10.62,0,0,1,.85-.78ZM292.37,200h.07c.38.05.76.1,1.13.17a.17.17,0,0,1,.14.2.18.18,0,0,1-.2.14c-.37-.07-.74-.12-1.11-.17a.16.16,0,0,1-.15-.19A.15.15,0,0,1,292.37,200Zm-12.46,4.57a.18.18,0,0,1,.16,0,.17.17,0,0,1,0,.24,9.33,9.33,0,0,0-.6.94.18.18,0,0,1-.23.07.17.17,0,0,1-.07-.24,10,10,0,0,1,.63-1A.16.16,0,0,1,279.91,204.55Zm32.72-9.79a.18.18,0,0,1,.21.08l.12.23c.14.26.27.53.39.8a.16.16,0,0,1-.09.22A.16.16,0,0,1,313,196c-.12-.26-.24-.52-.38-.78l-.13-.23a.18.18,0,0,1,.07-.23Zm-17.81,5.69h.1c.37.1.74.22,1.09.35a.16.16,0,0,1,.1.22.17.17,0,0,1-.22.1c-.34-.12-.7-.24-1.07-.34a.16.16,0,0,1-.11-.21A.17.17,0,0,1,294.82,200.45Zm-33.87,11H261a.18.18,0,0,1,.18.17,6.73,6.73,0,0,0,.12,1.1.17.17,0,1,1-.34.06,8.61,8.61,0,0,1-.13-1.15A.17.17,0,0,1,261,211.41Zm17.77-4.68a.14.14,0,0,1,.11,0,.17.17,0,0,1,.1.22,9.39,9.39,0,0,0-.35,1.06.17.17,0,0,1-.33-.08,9.44,9.44,0,0,1,.36-1.1A.2.2,0,0,1,278.72,206.73Zm18.44-5.4a.13.13,0,0,1,.12,0,11,11,0,0,1,1,.55.17.17,0,0,1-.18.29c-.31-.19-.64-.37-1-.54a.16.16,0,0,1-.08-.23A.16.16,0,0,1,297.16,201.33Zm16.44-4.27h0a.16.16,0,0,1,.21.11,9.51,9.51,0,0,1,.24,1.13.16.16,0,0,1-.14.2.17.17,0,0,1-.19-.14,10.08,10.08,0,0,0-.24-1.09A.17.17,0,0,1,313.6,197.06Zm-52.14,16.78a.18.18,0,0,1,.21.1,7.13,7.13,0,0,0,.49,1,.17.17,0,0,1-.29.17,7.76,7.76,0,0,1-.52-1,.17.17,0,0,1,.1-.22ZM278,209.13h.1a.16.16,0,0,1,.11.21c-.1.38-.22.74-.34,1.1a.16.16,0,0,1-.21.1.16.16,0,0,1-.11-.21c.12-.35.23-.71.34-1.08A.17.17,0,0,1,278,209.13Zm21.25-6.48a.15.15,0,0,1,.16,0,8,8,0,0,1,.86.77.18.18,0,0,1,0,.25.17.17,0,0,1-.24,0,9.74,9.74,0,0,0-.83-.74.17.17,0,0,1,0-.24A.16.16,0,0,1,299.27,202.65Zm14.67-3.13H314a.17.17,0,0,1,.17.17,8.77,8.77,0,0,1-.08,1.15.18.18,0,0,1-.2.15.16.16,0,0,1-.14-.19,10.36,10.36,0,0,0,.08-1.11A.19.19,0,0,1,313.94,199.52ZM262.77,216a.18.18,0,0,1,.18,0,7.28,7.28,0,0,0,.79.78.17.17,0,0,1-.22.26,8,8,0,0,1-.83-.81.17.17,0,0,1,0-.24Zm14.43-4.46a.16.16,0,0,1,.21.22c-.14.36-.3.72-.46,1.05a.17.17,0,0,1-.23.08.17.17,0,0,1-.08-.23c.16-.33.31-.67.46-1A.18.18,0,0,1,277.2,211.5Zm23.8-7.05a.16.16,0,0,1,.18.06c.24.3.49.58.74.84a.17.17,0,0,1,0,.24.18.18,0,0,1-.25,0c-.26-.27-.51-.56-.76-.87a.17.17,0,0,1,0-.24Zm-24.9,9.29a.17.17,0,0,1,.14,0,.16.16,0,0,1,.06.23c-.19.34-.4.66-.61,1a.17.17,0,0,1-.24,0,.18.18,0,0,1-.05-.24c.21-.3.41-.61.61-.94A.14.14,0,0,1,276.1,213.74ZM313.57,202a.17.17,0,0,1,.1,0,.16.16,0,0,1,.11.21,8.27,8.27,0,0,1-.41,1.08.18.18,0,0,1-.23.09.17.17,0,0,1-.08-.23,10.12,10.12,0,0,0,.4-1A.14.14,0,0,1,313.57,202Zm-48.89,15.57a.17.17,0,0,1,.14,0l.19.12c.26.15.53.29.79.41a.17.17,0,0,1,.09.23.18.18,0,0,1-.23.08c-.27-.12-.55-.27-.83-.43l-.19-.11a.18.18,0,0,1-.05-.24A.13.13,0,0,1,264.68,217.56Zm38.09-11.36a.18.18,0,0,1,.16,0,6.69,6.69,0,0,0,.94.59.18.18,0,0,1,.07.23.17.17,0,0,1-.23.08,8.59,8.59,0,0,1-1-.62.17.17,0,0,1,0-.24A.16.16,0,0,1,302.77,206.2Zm-28.11,9.58a.16.16,0,0,1,.16,0,.17.17,0,0,1,0,.24,10.58,10.58,0,0,1-.8.83.16.16,0,0,1-.24,0,.17.17,0,0,1,0-.24c.27-.25.53-.52.78-.8A.1.1,0,0,1,274.66,215.78Zm37.83-11.55a.17.17,0,0,1,.19.26,8,8,0,0,1-.72.91.17.17,0,1,1-.25-.23,9.76,9.76,0,0,0,.69-.87A.13.13,0,0,1,312.49,204.23ZM267,218.55h.09a5.93,5.93,0,0,0,1.09.19.18.18,0,0,1,.16.19.19.19,0,0,1-.19.16,8.77,8.77,0,0,1-1.14-.2.18.18,0,0,1-.13-.21A.16.16,0,0,1,267,218.55Zm38-11.25a.17.17,0,0,1,.1,0,5.68,5.68,0,0,0,1.08.19.18.18,0,0,1,.16.19.18.18,0,0,1-.18.16,7.29,7.29,0,0,1-1.15-.21.17.17,0,0,1-.12-.21A.17.17,0,0,1,305,207.3Zm-32.19,10.15a.17.17,0,0,1,.19.06.17.17,0,0,1,0,.24,9.34,9.34,0,0,1-1,.59.17.17,0,0,1-.23-.08.17.17,0,0,1,.08-.23,8.43,8.43,0,0,0,.95-.56Zm-3.36,1.28h0a6,6,0,0,0,1.09-.21.18.18,0,0,1,.21.12.17.17,0,0,1-.12.21,7.68,7.68,0,0,1-1.14.23.17.17,0,0,1-.07-.34Zm41.33-12.68a.18.18,0,0,1,.19.06.17.17,0,0,1,0,.24,8.54,8.54,0,0,1-1,.64.18.18,0,0,1-.23-.07.16.16,0,0,1,.06-.23,9.29,9.29,0,0,0,.93-.61A.05.05,0,0,1,310.78,206.05Zm-3.3,1.42h0a6.24,6.24,0,0,0,1-.23h0a.17.17,0,1,1,.1.32l0,0a7,7,0,0,1-1.1.24.17.17,0,0,1-.19-.15A.16.16,0,0,1,307.48,207.47Z"/><path class="cls-13" d="M292.79,159.68a.17.17,0,0,1,.21.23c-.07.18-.13.35-.19.53a.16.16,0,0,1-.21.11.18.18,0,0,1-.11-.22c.06-.18.12-.36.19-.55A.18.18,0,0,1,292.79,159.68Z"/><path class="cls-13" d="M292.35,160.76v0a.19.19,0,0,1-.1.23l-.53.21a.18.18,0,0,1-.22-.1.16.16,0,0,1,.1-.22l.52-.21A.19.19,0,0,1,292.35,160.76Z"/><path class="cls-13" d="M328.92,186.6c.12.19.23.39.33.58a.16.16,0,0,1-.07.23.16.16,0,0,1-.23-.07c-.18-.33-.37-.65-.57-1a.16.16,0,0,1,.05-.23.17.17,0,0,1,.24.05C328.76,186.32,328.84,186.46,328.92,186.6Zm-1-1.53a.17.17,0,0,1,0,.23.17.17,0,0,1-.24,0c-.22-.29-.46-.59-.71-.87a.17.17,0,1,1,.26-.22c.25.28.49.58.72.89Zm1.95,3.33v0c.15.35.29.71.42,1.07a.17.17,0,0,1-.33.11c-.12-.35-.25-.7-.4-1a.17.17,0,0,1,.3-.16Zm-3.6-5.2a.17.17,0,0,1,0,.2.18.18,0,0,1-.25,0c-.26-.27-.54-.52-.82-.77a.17.17,0,0,1,.22-.26q.44.38.84.78Zm4.39,7.57,0,0c.09.37.16.75.22,1.13a.16.16,0,0,1-.14.19.18.18,0,0,1-.2-.14c0-.37-.13-.74-.21-1.1a.17.17,0,0,1,.12-.21A.19.19,0,0,1,330.63,190.77Zm-6.29-9.2a.15.15,0,0,1,0,.19.17.17,0,0,1-.24,0c-.3-.23-.61-.44-.92-.65a.17.17,0,1,1,.19-.28c.31.2.63.42.94.65A.1.1,0,0,1,324.34,181.57ZM331,193.24a.24.24,0,0,1,0,.08c0,.38,0,.77,0,1.15a.18.18,0,0,1-.18.17.18.18,0,0,1-.17-.18c0-.37,0-.75,0-1.12a.17.17,0,0,1,.32-.1Zm-8.76-13a.17.17,0,0,1,0,.17.18.18,0,0,1-.23.07c-.33-.18-.67-.35-1-.51a.17.17,0,0,1-.08-.22.17.17,0,0,1,.23-.09c.34.16.69.33,1,.52C322.2,180.17,322.22,180.2,322.24,180.22Zm8.7,15.52a.18.18,0,0,1,0,.1c0,.38-.1.76-.16,1.14a.18.18,0,0,1-.2.14.17.17,0,0,1-.14-.2c.07-.37.12-.74.16-1.11a.16.16,0,0,1,.19-.15A.16.16,0,0,1,330.94,195.74Zm-33.13-53.85h0c.19.33.37.67.53,1a.17.17,0,0,1-.08.23.17.17,0,0,1-.23-.08c-.16-.34-.33-.67-.52-1a.18.18,0,0,1,.07-.24A.18.18,0,0,1,297.81,141.89ZM320,179.19a.2.2,0,0,1,0,.15.17.17,0,0,1-.22.1c-.36-.13-.72-.24-1.07-.34a.17.17,0,0,1-.13-.21.18.18,0,0,1,.21-.12c.37.1.74.22,1.1.35A.16.16,0,0,1,320,179.19Zm-22.87-38.45a.19.19,0,0,1,0,.23.18.18,0,0,1-.24-.05c-.22-.31-.44-.61-.67-.9a.17.17,0,0,1,.26-.22q.36.45.69.93Zm1.79,3.41a0,0,0,0,0,0,0c.14.36.26.72.37,1.09a.16.16,0,0,1-.11.21.16.16,0,0,1-.21-.11c-.11-.36-.24-.72-.37-1.07a.16.16,0,0,1,.1-.22A.18.18,0,0,1,298.88,144.15Zm-3.38-5.35a.18.18,0,0,1,0,.21.18.18,0,0,1-.25,0,9.71,9.71,0,0,0-.82-.76.18.18,0,0,1,0-.25.17.17,0,0,1,.24,0c.28.25.57.51.84.79C295.49,138.78,295.5,138.79,295.5,138.8Zm35,59.39a.22.22,0,0,1,0,.14l-.21.72-.12.37a.18.18,0,0,1-.22.11.16.16,0,0,1-.11-.21L330,199l.21-.71a.16.16,0,0,1,.21-.12A.18.18,0,0,1,330.48,198.19Zm-30.89-51.64a.08.08,0,0,1,0,0c.09.37.15.75.21,1.13a.17.17,0,0,1-.15.19.16.16,0,0,1-.19-.14c-.05-.37-.12-.74-.2-1.11a.17.17,0,0,1,.13-.2A.16.16,0,0,1,299.59,146.55Zm-6-9.34a.15.15,0,0,1,0,.18.18.18,0,0,1-.24.05,8.55,8.55,0,0,0-1-.56.17.17,0,0,1-.08-.23.18.18,0,0,1,.23-.08,11.25,11.25,0,0,1,1,.58ZM299.93,149a.24.24,0,0,1,0,.08,11.05,11.05,0,0,1,0,1.15.17.17,0,0,1-.17.17.17.17,0,0,1-.17-.18c0-.37,0-.74,0-1.12a.17.17,0,0,1,.16-.18A.18.18,0,0,1,299.93,149Zm29.73,51.54a.14.14,0,0,1,0,.15c-.15.35-.32.7-.49,1a.18.18,0,0,1-.23.07.17.17,0,0,1-.08-.23c.18-.33.34-.67.49-1a.17.17,0,0,1,.22-.08A.11.11,0,0,1,329.66,200.56Zm-38.32-64.43a.17.17,0,0,1,0,.14.16.16,0,0,1-.21.11,10.25,10.25,0,0,0-1.09-.28.17.17,0,0,1,.07-.34c.38.08.76.18,1.12.29A.2.2,0,0,1,291.34,136.13Zm8.49,15.39a.14.14,0,0,1,0,.11,10.71,10.71,0,0,1-.21,1.13.17.17,0,0,1-.2.13.18.18,0,0,1-.13-.21c.08-.35.15-.73.2-1.1a.16.16,0,0,1,.19-.14A.14.14,0,0,1,299.83,151.52Zm-10.94-15.87a.16.16,0,0,1,0,.1.17.17,0,0,1-.18.15c-.37,0-.75,0-1.12,0a.16.16,0,0,1-.18-.16.18.18,0,0,1,.17-.18c.39,0,.77,0,1.15,0A.19.19,0,0,1,288.89,135.65Zm39.6,67.11a.19.19,0,0,1,0,.18c-.21.32-.43.64-.66.94a.18.18,0,0,1-.24,0,.17.17,0,0,1,0-.24c.22-.3.44-.61.64-.92a.17.17,0,0,1,.23-.06Zm-29.25-48.82a.19.19,0,0,1,0,.15c-.13.36-.28.72-.44,1.06a.17.17,0,0,1-.23.08.17.17,0,0,1-.08-.23c.16-.33.3-.68.43-1a.17.17,0,0,1,.22-.1A.16.16,0,0,1,299.24,153.94ZM286.39,135.7a.14.14,0,0,1,0,.07.16.16,0,0,1-.14.19,10.73,10.73,0,0,0-1.11.19.17.17,0,0,1-.07-.33,10.68,10.68,0,0,1,1.13-.2A.16.16,0,0,1,286.39,135.7Zm11.74,20.48a.19.19,0,0,1,0,.18c-.21.32-.44.63-.68.93a.17.17,0,0,1-.24,0,.16.16,0,0,1,0-.24,9.43,9.43,0,0,0,.66-.9.18.18,0,0,1,.24,0A.1.1,0,0,1,298.13,156.18ZM327,204.74a.18.18,0,0,1,0,.21c-.26.28-.53.55-.8.82a.18.18,0,0,1-.25,0,.17.17,0,0,1,0-.24c.27-.26.54-.53.79-.8a.17.17,0,0,1,.24,0Zm-43-68.47,0,0a.18.18,0,0,1-.11.22,10.28,10.28,0,0,0-1,.42.17.17,0,0,1-.23-.09.16.16,0,0,1,.09-.22,9.19,9.19,0,0,1,1.07-.43A.16.16,0,0,1,284,136.27Zm12.58,21.83a.17.17,0,0,1,0,.21,10.66,10.66,0,0,1-.87.75.17.17,0,0,1-.24,0,.17.17,0,0,1,0-.24,10,10,0,0,0,.84-.73.18.18,0,0,1,.25,0Zm28.6,48.35a.16.16,0,0,1,0,.22c-.3.23-.61.46-.93.67a.15.15,0,0,1-.23,0,.16.16,0,0,1,0-.24c.31-.21.62-.43.91-.66a.17.17,0,0,1,.24,0ZM281.7,137.34a.16.16,0,0,1-.05.23q-.48.3-.93.63a.17.17,0,0,1-.24,0,.18.18,0,0,1,0-.24c.31-.23.63-.45,1-.65a.16.16,0,0,1,.23.05Zm12.87,22.28a.18.18,0,0,1-.06.24l-.27.17-.72.4a.18.18,0,0,1-.24-.08.17.17,0,0,1,.08-.23,7.87,7.87,0,0,0,.7-.39l.27-.16a.18.18,0,0,1,.24.05Zm28.49,48.2h0a.16.16,0,0,1-.06.23c-.34.19-.68.36-1,.52a.17.17,0,0,1-.23-.09.16.16,0,0,1,.09-.22c.34-.16.67-.33,1-.51A.18.18,0,0,1,323.06,207.82Zm-43.32-68.94a.18.18,0,0,1,0,.21,7.21,7.21,0,0,0-.74.83.17.17,0,0,1-.27-.21,8.82,8.82,0,0,1,.76-.86.18.18,0,0,1,.25,0Zm41,70,0,0a.18.18,0,0,1-.11.22c-.36.12-.73.24-1.09.34a.17.17,0,0,1-.21-.12.16.16,0,0,1,.12-.21c.36-.1.72-.21,1.07-.34A.16.16,0,0,1,320.78,208.85Zm-42.55-68a.17.17,0,0,1,0,.17,9.33,9.33,0,0,0-.48,1,.18.18,0,0,1-.23.09.17.17,0,0,1-.09-.22,8.4,8.4,0,0,1,.5-1,.18.18,0,0,1,.24-.06A.17.17,0,0,1,278.23,140.86Zm40.14,68.63a.11.11,0,0,1,0,.06.16.16,0,0,1-.14.19c-.37.07-.76.13-1.14.17a.17.17,0,0,1-.18-.15.16.16,0,0,1,.15-.19c.37,0,.74-.1,1.11-.16A.17.17,0,0,1,318.37,209.49Zm-41-66.31a.19.19,0,0,1,0,.13,6.82,6.82,0,0,0-.18,1.1.17.17,0,1,1-.34,0,8.72,8.72,0,0,1,.18-1.14.18.18,0,0,1,.21-.13A.18.18,0,0,1,277.33,143.18Zm38.55,66.55a.16.16,0,0,1,0,.09.18.18,0,0,1-.17.17,11,11,0,0,1-1.15,0,.16.16,0,0,1-.16-.18.18.18,0,0,1,.18-.16c.37,0,.75,0,1.12,0A.16.16,0,0,1,315.88,209.73Zm-38.76-64.07a.24.24,0,0,1,0,.08,10.49,10.49,0,0,0,.13,1.11.18.18,0,0,1-.14.2.19.19,0,0,1-.2-.14,11.24,11.24,0,0,1-.13-1.15.17.17,0,0,1,.32-.1Zm.44,2.46,0,0a11,11,0,0,0,.37,1.05.16.16,0,0,1-.09.22.17.17,0,0,1-.23-.09c-.14-.36-.27-.73-.38-1.08a.17.17,0,0,1,.12-.22A.17.17,0,0,1,277.56,148.12Zm.95,2.31h0c.17.33.36.66.55,1a.17.17,0,0,1-.06.23.16.16,0,0,1-.23-.06h0l-.12-.2c-.16-.27-.31-.54-.45-.8a.17.17,0,0,1,.08-.23A.16.16,0,0,1,278.51,150.43Zm1.19,2.2h0c.16.36.3.72.43,1.07a.18.18,0,0,1-.11.22.18.18,0,0,1-.22-.11c-.12-.34-.26-.69-.42-1a.16.16,0,0,1,.09-.22A.17.17,0,0,1,279.7,152.63Zm33.69,56.93a.14.14,0,0,1,0,.11.17.17,0,0,1-.19.15c-.38-.06-.76-.14-1.13-.23a.17.17,0,0,1-.13-.2.18.18,0,0,1,.21-.13c.36.09.73.16,1.1.22A.17.17,0,0,1,313.39,209.56ZM280.49,155l0,0a9.61,9.61,0,0,1,.16,1.15.17.17,0,0,1-.16.18.16.16,0,0,1-.18-.16,8.84,8.84,0,0,0-.16-1.1.17.17,0,0,1,.14-.2A.18.18,0,0,1,280.49,155Zm.13,2.49a.16.16,0,0,1,0,.1,7,7,0,0,1-.23,1.14.17.17,0,0,1-.21.12.16.16,0,0,1-.12-.21,6.58,6.58,0,0,0,.22-1.09.18.18,0,0,1,.19-.15A.2.2,0,0,1,280.62,157.48ZM311,209a.17.17,0,0,1,0,.14.16.16,0,0,1-.21.1,9.15,9.15,0,0,1-1.07-.42.16.16,0,0,1-.09-.22.17.17,0,0,1,.23-.09,10.71,10.71,0,0,0,1,.41A.18.18,0,0,1,311,209Zm-2.27-1a.17.17,0,0,1,0,.17.18.18,0,0,1-.24.06c-.33-.19-.65-.39-1-.61a.19.19,0,0,1,0-.24.17.17,0,0,1,.24,0c.3.21.62.41.95.6A.17.17,0,0,1,308.7,207.92Zm-28.83-48.08a.17.17,0,0,1,0,.17,5.67,5.67,0,0,1-.65,1,.17.17,0,0,1-.24,0,.17.17,0,0,1,0-.24,7,7,0,0,0,.61-.92.18.18,0,0,1,.23-.07Zm26.8,46.63a.18.18,0,0,1,0,.2.17.17,0,0,1-.24,0c-.29-.25-.57-.52-.84-.8a.17.17,0,0,1,0-.24.16.16,0,0,1,.24,0c.26.26.53.52.81.77A.08.08,0,0,1,306.67,206.47Zm-1.73-1.81a.18.18,0,0,1,0,.22.17.17,0,0,1-.24,0c-.26-.29-.51-.57-.76-.83a.17.17,0,1,1,.24-.24c.26.27.52.55.77.85Zm-1.74-1.78a.18.18,0,0,1,0,.2.16.16,0,0,1-.24,0c-.3-.25-.59-.49-.88-.7a.18.18,0,0,1,0-.24.17.17,0,0,1,.24,0,9.45,9.45,0,0,1,.9.72A.08.08,0,0,1,303.2,202.88Zm-24.92-41.13a.17.17,0,0,1,0,.22,6.48,6.48,0,0,1-.95.67.16.16,0,0,1-.23-.06h0a.16.16,0,0,1,.06-.23,7.3,7.3,0,0,0,.9-.64.17.17,0,0,1,.24,0Zm22.88,39.69a.17.17,0,0,1,0,.17.18.18,0,0,1-.23.07,7.44,7.44,0,0,0-1-.45.18.18,0,0,1-.11-.22.17.17,0,0,1,.22-.1,7,7,0,0,1,1.06.47A.13.13,0,0,1,301.16,201.44Zm-2.36-.79a.17.17,0,0,1,0,.12.17.17,0,0,1-.19.14,6.7,6.7,0,0,0-1.1-.06.17.17,0,0,1-.18-.17.17.17,0,0,1,.17-.17,7.45,7.45,0,0,1,1.16.06A.17.17,0,0,1,298.8,200.65ZM276.12,163l0,0a.17.17,0,0,1-.1.22,8.38,8.38,0,0,1-1.11.34.19.19,0,0,1-.21-.13.17.17,0,0,1,.13-.2,10.16,10.16,0,0,0,1.07-.33A.16.16,0,0,1,276.12,163Zm20.2,37.76a.08.08,0,0,1,0,.05.17.17,0,0,1-.13.2,9.15,9.15,0,0,0-1.07.31.18.18,0,0,1-.22-.11.17.17,0,0,1,.1-.22,9.9,9.9,0,0,1,1.12-.31A.17.17,0,0,1,296.32,200.76Zm-22.63-37.23a.19.19,0,0,1,0,.08.17.17,0,0,1-.16.18,9,9,0,0,1-1.16,0,.17.17,0,0,1-.15-.19.16.16,0,0,1,.18-.15,8.22,8.22,0,0,0,1.11,0A.16.16,0,0,1,273.69,163.53Zm-2.48-.25a.17.17,0,0,1,0,.14.17.17,0,0,1-.21.12,7.41,7.41,0,0,1-1.09-.4.17.17,0,0,1-.09-.23.18.18,0,0,1,.23-.08,7.15,7.15,0,0,0,1,.38A.18.18,0,0,1,271.21,163.28ZM294,201.59h0a.18.18,0,0,1-.08.23c-.33.16-.66.33-1,.53a.17.17,0,0,1-.23-.07.17.17,0,0,1,.06-.23q.52-.3,1-.54A.17.17,0,0,1,294,201.59ZM269,162.2a.19.19,0,0,1,0,.19.17.17,0,0,1-.24,0c-.13-.09-.26-.2-.38-.3s-.33-.29-.5-.42a.17.17,0,1,1,.21-.27l.52.43.35.29Zm-2-1.5a.15.15,0,0,1,0,.17.17.17,0,0,1-.23.06,9.49,9.49,0,0,0-1-.54.18.18,0,0,1-.08-.23.18.18,0,0,1,.23-.08,10,10,0,0,1,1,.56A.09.09,0,0,1,267,160.7Zm24.82,42.14a.16.16,0,0,1-.05.23c-.3.2-.61.42-.92.65a.18.18,0,0,1-.24,0,.17.17,0,0,1,0-.24l.94-.66a.18.18,0,0,1,.24.05Zm-27.08-43.2a.17.17,0,0,1,0,.14.18.18,0,0,1-.22.11,8.16,8.16,0,0,0-1.08-.28.17.17,0,0,1,.07-.34c.37.08.75.18,1.12.3A.16.16,0,0,1,264.72,159.64ZM276,181.08c.05.1.11.2.17.3a.18.18,0,0,1-.07.23.16.16,0,0,1-.23-.06c-.19-.33-.39-.65-.59-1a.17.17,0,1,1,.28-.19C275.74,180.62,275.89,180.85,276,181.08Zm13.76,23.24a.17.17,0,0,1,0,.22c-.29.22-.58.46-.88.71a.17.17,0,1,1-.22-.26l.88-.72a.16.16,0,0,1,.24,0Zm-13-21.73v0c.15.35.3.7.43,1.06a.17.17,0,0,1-.1.22.16.16,0,0,1-.22-.1c-.13-.35-.27-.7-.43-1a.18.18,0,0,1,.09-.23A.19.19,0,0,1,276.81,182.59Zm-2-3.27a.17.17,0,0,1-.28.2c-.24-.29-.5-.57-.76-.83a.17.17,0,0,1,.24-.24c.27.27.53.55.78.85Zm2.87,5.62s0,0,0,.05c.1.36.19.74.27,1.11a.17.17,0,0,1-.14.21.19.19,0,0,1-.2-.14c-.07-.37-.16-.73-.26-1.09a.17.17,0,0,1,.12-.21A.17.17,0,0,1,277.65,184.94Zm-15.38-25.75a.1.1,0,0,1,0,.09.15.15,0,0,1-.17.16,10.4,10.4,0,0,0-1.12,0,.17.17,0,0,1,0-.34,7.46,7.46,0,0,1,1.16,0A.17.17,0,0,1,262.27,159.19ZM273,177.59a.19.19,0,0,1,0,.19.17.17,0,0,1-.24,0c-.3-.22-.61-.44-.92-.63a.16.16,0,0,1-.06-.23.17.17,0,0,1,.23-.06c.33.2.65.42,1,.65Zm5.16,9.81a.14.14,0,0,1,0,.06c0,.39.08.77.1,1.15a.18.18,0,0,1-.35,0c0-.37-.05-.75-.09-1.12a.18.18,0,0,1,.15-.2A.2.2,0,0,1,278.14,187.4Zm-7.31-11.07a.19.19,0,0,1,0,.15.17.17,0,0,1-.23.09,9.32,9.32,0,0,0-1.05-.37.16.16,0,0,1-.11-.21.17.17,0,0,1,.21-.12,10.9,10.9,0,0,1,1.09.39A.18.18,0,0,1,270.83,176.33Zm17,29.59a.18.18,0,0,1,0,.22l-.19.17q-.34.3-.69.57a.17.17,0,0,1-.24,0,.17.17,0,0,1,0-.24c.23-.17.45-.35.67-.54l.19-.18a.17.17,0,0,1,.24,0Zm-9.63-16a.16.16,0,0,1,0,.1c0,.38,0,.77-.08,1.14a.18.18,0,0,1-.35,0,10.17,10.17,0,0,0,.09-1.11.17.17,0,0,1,.18-.17A.18.18,0,0,1,278.24,189.89Zm-18.45-30.44a.08.08,0,0,1,0,0,.16.16,0,0,1-.12.21,7.15,7.15,0,0,0-1,.38.17.17,0,0,1-.14-.32,10.07,10.07,0,0,1,1.09-.39A.17.17,0,0,1,259.79,159.45Zm8.63,16.22a.2.2,0,0,1,0,.11.17.17,0,0,1-.2.14,10,10,0,0,0-1.11-.09.18.18,0,0,1-.17-.17.18.18,0,0,1,.18-.17,10.92,10.92,0,0,1,1.15.09A.16.16,0,0,1,268.42,175.67Zm9.51,16.7a.19.19,0,0,1,0,.13c-.09.38-.19.75-.31,1.11a.16.16,0,0,1-.21.11.18.18,0,0,1-.11-.22c.11-.34.21-.71.29-1.08a.18.18,0,0,1,.21-.13A.21.21,0,0,1,277.93,192.37Zm7.93,15h0a.16.16,0,0,1-.07.23,8.27,8.27,0,0,1-1,.5.17.17,0,0,1-.22-.09.17.17,0,0,1,.09-.23,7.14,7.14,0,0,0,1-.48A.18.18,0,0,1,285.86,207.4Zm-28.32-46.9a.16.16,0,0,1-.05.23,6.4,6.4,0,0,0-.85.71.17.17,0,0,1-.24,0,.16.16,0,0,1,0-.24,7.08,7.08,0,0,1,.9-.74.17.17,0,0,1,.23,0Zm8.39,15a.15.15,0,0,1,0,.09.17.17,0,0,1-.18.17c-.38,0-.77-.05-1.14-.09a.16.16,0,0,1-.15-.18.17.17,0,0,1,.18-.16c.37,0,.75.07,1.13.08A.19.19,0,0,1,265.93,175.54Zm11.19,19.19a.17.17,0,0,1,0,.17,9,9,0,0,1-.56,1,.16.16,0,0,1-.23.05.17.17,0,0,1-.06-.23,8.44,8.44,0,0,0,.54-1,.17.17,0,0,1,.23-.08A.14.14,0,0,1,277.12,194.73Zm6.42,13.57v0a.16.16,0,0,1-.12.21,8.9,8.9,0,0,1-1.15.19.18.18,0,0,1-.18-.16.18.18,0,0,1,.15-.19,8.12,8.12,0,0,0,1.1-.17A.17.17,0,0,1,283.54,208.3Zm-27.76-46a.19.19,0,0,1,0,.19,8.24,8.24,0,0,0-.57,1,.17.17,0,0,1-.31-.16,9,9,0,0,1,.6-1,.18.18,0,0,1,.24,0A.12.12,0,0,1,255.78,162.26Zm7.66,13a.14.14,0,0,1,0,.11.16.16,0,0,1-.19.14c-.38-.06-.76-.13-1.13-.21a.17.17,0,0,1-.13-.2.17.17,0,0,1,.21-.13l1.1.2A.16.16,0,0,1,263.44,175.29Zm12.32,21.53a.17.17,0,0,1,0,.2,10.87,10.87,0,0,0-.65.91.16.16,0,0,1-.23,0,.17.17,0,0,1-.06-.23,10.06,10.06,0,0,1,.67-.94.17.17,0,0,1,.24,0S275.75,196.81,275.76,196.82ZM261,174.73a.17.17,0,0,1,0,.14.16.16,0,0,1-.21.11c-.37-.11-.74-.24-1.09-.37a.18.18,0,0,1-.09-.23.16.16,0,0,1,.22-.09c.34.13.7.25,1.06.37A.18.18,0,0,1,261,174.73Zm20,33.76a.19.19,0,0,1,0,.1.17.17,0,0,1-.19.16,9.05,9.05,0,0,1-1.15-.15.18.18,0,0,1-.13-.21.17.17,0,0,1,.2-.13,8.45,8.45,0,0,0,1.11.15A.22.22,0,0,1,281.05,208.49Zm-26.38-44a.17.17,0,0,1,0,.14l-.06.21a6.93,6.93,0,0,0-.22.87.17.17,0,0,1-.2.13.16.16,0,0,1-.14-.2c.06-.3.14-.6.23-.9,0-.07,0-.14.07-.22a.16.16,0,0,1,.21-.1A.18.18,0,0,1,254.67,164.49ZM274.47,199a.14.14,0,0,1,0,.15,8.62,8.62,0,0,0-.35,1,.17.17,0,0,1-.21.12.16.16,0,0,1-.12-.2,6.47,6.47,0,0,1,.37-1.1.16.16,0,0,1,.22-.09A.11.11,0,0,1,274.47,199Zm-15.78-25.17a.17.17,0,0,1,0,.17.17.17,0,0,1-.23.07,11,11,0,0,1-1-.59.16.16,0,0,1,0-.23.17.17,0,0,1,.23-.05c.31.2.63.39,1,.57ZM278.62,208a.16.16,0,0,1,0,.15.17.17,0,0,1-.22.09,8.33,8.33,0,0,1-1.05-.49.18.18,0,0,1-.07-.23.19.19,0,0,1,.24-.07,7.58,7.58,0,0,0,1,.47A.18.18,0,0,1,278.62,208Zm-24.39-41a.15.15,0,0,1,0,.09,8.07,8.07,0,0,0,.07,1.11.17.17,0,0,1-.15.19.16.16,0,0,1-.19-.14,7.45,7.45,0,0,1-.07-1.16.17.17,0,0,1,.18-.17A.16.16,0,0,1,254.23,166.94Zm19.68,34.44a.16.16,0,0,1,0,.09,5,5,0,0,0,.06,1.1.19.19,0,0,1-.15.2.17.17,0,0,1-.19-.15,6.4,6.4,0,0,1-.07-1.16.18.18,0,0,1,.18-.17A.19.19,0,0,1,273.91,201.38Zm-17.27-29a.17.17,0,0,1,0,.2.16.16,0,0,1-.24,0,7.81,7.81,0,0,1-.8-.83.18.18,0,0,1,0-.25.17.17,0,0,1,.24,0,8.24,8.24,0,0,0,.77.8Zm-2-3s0,0,0,0a7.1,7.1,0,0,0,.46,1,.18.18,0,0,1-.07.23.16.16,0,0,1-.23-.06,6.85,6.85,0,0,1-.48-1.07.17.17,0,0,1,.31-.14Zm21.84,37.32a.17.17,0,0,1,0,.19.17.17,0,0,1-.24,0,8.1,8.1,0,0,1-.85-.8.17.17,0,0,1,0-.24.16.16,0,0,1,.24,0,7.28,7.28,0,0,0,.81.76A.1.1,0,0,1,276.46,206.72Zm-2.14-2.89v0a6.09,6.09,0,0,0,.47,1l0,0h0a.17.17,0,0,1-.06.23.18.18,0,0,1-.24-.06l0,0a7.21,7.21,0,0,1-.49-1,.17.17,0,0,1,.1-.22A.16.16,0,0,1,274.32,203.83Z"/><path class="cls-13" d="M317.45,178.56a.14.14,0,0,1,0,.11.16.16,0,0,1-.19.14c-.19,0-.37-.05-.56-.06a.17.17,0,0,1-.15-.19.16.16,0,0,1,.18-.15l.58.06A.16.16,0,0,1,317.45,178.56Z"/><path class="cls-14" d="M268.42,163a6.49,6.49,0,0,1-.35,1.31l1.43,1.3a8.89,8.89,0,0,1-.69,1.2l-1.84-.59a7.33,7.33,0,0,1-1,1l.59,1.83a9,9,0,0,1-1.21.69l-1.29-1.43a6.49,6.49,0,0,1-1.31.35l-.41,1.89c-.23,0-.46,0-.7,0s-.46,0-.69,0l-.41-1.89a6.49,6.49,0,0,1-1.31-.35L258,169.7a8.89,8.89,0,0,1-1.2-.69l.59-1.83a7.41,7.41,0,0,1-1-1l-1.83.59a8.89,8.89,0,0,1-.69-1.2l1.43-1.3A6.49,6.49,0,0,1,255,163l-1.89-.41c0-.23,0-.46,0-.69s0-.47,0-.7l1.89-.41a6.49,6.49,0,0,1,.35-1.31l-1.43-1.29a9,9,0,0,1,.69-1.21l1.83.59a7.33,7.33,0,0,1,1-1l-.59-1.83a9,9,0,0,1,1.2-.7l1.3,1.43a6.49,6.49,0,0,1,1.31-.35l.41-1.88c.23,0,.46,0,.69,0s.47,0,.7,0l.41,1.88a6.49,6.49,0,0,1,1.31.35l1.29-1.43a8.09,8.09,0,0,1,1.21.7L266,156.6a7.26,7.26,0,0,1,1,1l1.84-.59a9,9,0,0,1,.69,1.21l-1.43,1.29a6.49,6.49,0,0,1,.35,1.31l1.88.41c0,.23,0,.46,0,.7s0,.46,0,.69Zm-6.74-5.66a4.56,4.56,0,1,0,4.56,4.56A4.56,4.56,0,0,0,261.68,157.33Z"/><path class="cls-15" d="M274.74,150.18a3.06,3.06,0,0,1-.28.67l.72,1.38a4.66,4.66,0,0,1-.83.83l-1.37-.72a3.36,3.36,0,0,1-.68.28l-.46,1.48a3.9,3.9,0,0,1-.59,0,3.69,3.69,0,0,1-.58,0l-.47-1.48a3.27,3.27,0,0,1-.67-.28l-1.38.72a4.66,4.66,0,0,1-.83-.83l.72-1.37a4,4,0,0,1-.28-.68l-1.48-.47a4.23,4.23,0,0,1,0-1.16l1.48-.47a3.63,3.63,0,0,1,.28-.67l-.72-1.38a4.66,4.66,0,0,1,.83-.83l1.38.72a3.63,3.63,0,0,1,.67-.28l.47-1.48a4.23,4.23,0,0,1,1.16,0l.47,1.48a4,4,0,0,1,.68.28l1.37-.72a4.66,4.66,0,0,1,.83.83l-.72,1.38a3.06,3.06,0,0,1,.28.67l1.48.47a3.69,3.69,0,0,1,0,.58,5.49,5.49,0,0,1,0,.58Zm-3.49-2.87a1.82,1.82,0,1,0,1.82,1.82A1.81,1.81,0,0,0,271.25,147.31Z"/><path class="cls-16" d="M278.42,160.46a3.74,3.74,0,0,1-.29.72l.45.95a4.34,4.34,0,0,1-.71.71l-.95-.46a2.88,2.88,0,0,1-.72.3l-.35,1a4.07,4.07,0,0,1-.5,0,4.19,4.19,0,0,1-.5,0l-.35-1a3.23,3.23,0,0,1-.72-.3l-.95.46a4.77,4.77,0,0,1-.71-.71l.46-.95a3.23,3.23,0,0,1-.3-.72l-1-.35a4.19,4.19,0,0,1,0-.5,4.07,4.07,0,0,1,0-.5l1-.35a2.88,2.88,0,0,1,.3-.72l-.46-.95a4.34,4.34,0,0,1,.71-.71l.95.45a3.74,3.74,0,0,1,.72-.29l.35-1a4.19,4.19,0,0,1,.5,0,4.07,4.07,0,0,1,.5,0l.35,1a3.29,3.29,0,0,1,.72.29l.95-.45a4,4,0,0,1,.71.71l-.45.95a3.29,3.29,0,0,1,.29.72l1,.35a4.07,4.07,0,0,1,0,.5,4.19,4.19,0,0,1,0,.5Zm-3.07-2.22a1.37,1.37,0,1,0,1.37,1.37A1.37,1.37,0,0,0,275.35,158.24Z"/><path class="cls-14" d="M279.54,145l-2.72-.55-.55,2.73.89.18.25-1.23a6.86,6.86,0,0,1,.67,3,6.75,6.75,0,0,1-1.49,4.27l.71.57a7.75,7.75,0,0,0,.9-8.27l1.16.23Z"/><path class="cls-14" d="M262.46,148.81l-.64.64.62.62c-.25,0-.5,0-.76,0a11.83,11.83,0,0,0-9.1,4.27l.7.58a10.93,10.93,0,0,1,8.4-3.94c.24,0,.47,0,.7,0l-.56.56.64.65,1.69-1.69Z"/><path class="cls-17" d="M277.73,213.81l-2.93-7.53a1.87,1.87,0,0,0-1.75-1.2H246.29a1.86,1.86,0,0,0-1.75,1.2l-2.93,7.53a1.87,1.87,0,0,0,1.07,2.43,1.8,1.8,0,0,0,.69.13H276a1.88,1.88,0,0,0,1.88-1.88,1.75,1.75,0,0,0-.13-.68Zm-31.24-.58,1.89-5.64H271l1.88,5.64Z"/><path class="cls-18" d="M271,207.59H248.38l-1.89,5.64h26.36Z"/><path class="cls-19" d="M246.49,213.23h26.36l-1.5-4.5-24.6,3.74Z"/><path class="cls-20" d="M241.6,215.12a1.87,1.87,0,0,0,1.77,1.25H276a1.86,1.86,0,0,0,1.76-1.25Z"/><path class="cls-21" d="M259,197.29l-1.88-1.89v-4.76h-1.25v5.28l3.13,3.14v11.66h1.26V182.48H259Z"/><path class="cls-21" d="M267.83,184.37h-1.26v5.38l-3.76,3.77v17.2h1.25V194l3.77-3.77Z"/><path class="cls-21" d="M275.36,192.16v-9.68h-1.25v9.16l-.63.62-1.89-1.88V187.5h-1.25v3.4l2.25,2.25-3.51,3.51-1.25-1.26v-2.25h-1.26v2.77l1.63,1.63-1.63,1.62v11.55h1.26v-7.27l4-4h3.51v-1.26h-4l-3.51,3.51v-2Z"/><path class="cls-21" d="M244,182.48h-1.25V194l3.5,3.51h-.62l-2.07,2.06.89.89,1.69-1.7h1.37l4,4v7.89h1.26v-8.41L244,193.52Z"/><path class="cls-21" d="M254,191.53V185h-1.25v6l-3.14,3.14-1.25-1.26v-4.13h-1.26v4.65l8.16,8.16v9.15h1.25v-9.67l-6-6Z"/><path class="cls-21" d="M255.91,186.88h1.25v2.51h-1.25Z"/><path class="cls-21" d="M270.34,185h1.25v1.26h-1.25Z"/><circle class="cls-22" cx="259.67" cy="181.86" r="1.88"/><circle class="cls-22" cx="267.2" cy="183.74" r="1.88"/><circle class="cls-22" cx="274.73" cy="181.86" r="1.88"/><circle class="cls-22" cx="276.62" cy="198.8" r="1.88"/><circle class="cls-22" cx="243.35" cy="181.86" r="1.88"/><circle class="cls-22" cx="253.4" cy="184.37" r="1.88"/><circle class="cls-22" cx="247.75" cy="188.13" r="1.88"/><path class="cls-22" d="M241.47,200.68a1.89,1.89,0,1,0,3.22-1.33l-.08.08.08-.08a1.89,1.89,0,0,0-3.22,1.33Z"/><text class="cls-23" transform="translate(258.53 188.33)">S</text><text class="cls-24" transform="translate(271.06 182.65)">T</text><text class="cls-25" transform="translate(282.83 188.33)">E</text><text class="cls-26" transform="translate(296.09 185.62)">A</text><text class="cls-27" transform="translate(309.58 190.78)">M</text><path class="cls-28" d="M296.63,169.15c-1.46,0-2.81-1.21-3.79-3.41a21.75,21.75,0,0,1,0-15.72c1-2.2,2.33-3.41,3.79-3.41s2.81,1.21,3.8,3.41a21.89,21.89,0,0,1,0,15.72C299.44,167.94,298.1,169.15,296.63,169.15Zm0-21.79c-1.13,0-2.26,1.08-3.11,3a21.06,21.06,0,0,0,0,15.1c.85,1.89,2,3,3.11,3s2.27-1.08,3.12-3a21.2,21.2,0,0,0,0-15.1C298.9,148.44,297.77,147.36,296.63,147.36Z"/><path class="cls-29" d="M303.15,165.77a10.08,10.08,0,0,1-1.89-.18,22.12,22.12,0,0,1-7.87-3.34,23.2,23.2,0,0,1-4.93-4.26,9.41,9.41,0,0,1-2.28-4.22,3,3,0,0,1,.48-2.44c.9-1.2,2.8-1.62,5.34-1.16a22.13,22.13,0,0,1,7.88,3.35,22.89,22.89,0,0,1,4.93,4.25,9.51,9.51,0,0,1,2.28,4.22,3.06,3.06,0,0,1-.48,2.45,4.12,4.12,0,0,1-3.46,1.33Zm-13-15a3.46,3.46,0,0,0-2.86,1,2.29,2.29,0,0,0-.34,1.86c.42,2.39,3.12,5.52,6.88,8a21.43,21.43,0,0,0,7.6,3.23c2.22.4,3.9.08,4.61-.87a2.32,2.32,0,0,0,.34-1.86c-.42-2.38-3.12-5.52-6.88-8a21.43,21.43,0,0,0-7.6-3.23,10.17,10.17,0,0,0-1.75-.17Z"/><path class="cls-30" d="M290.11,165.77a4.12,4.12,0,0,1-3.45-1.33,3.06,3.06,0,0,1-.48-2.45,9.51,9.51,0,0,1,2.28-4.22,22.89,22.89,0,0,1,4.93-4.25,22.16,22.16,0,0,1,7.87-3.35c2.55-.46,4.45,0,5.35,1.16a3,3,0,0,1,.48,2.44,9.41,9.41,0,0,1-2.28,4.22,23.2,23.2,0,0,1-4.93,4.26,22.09,22.09,0,0,1-7.88,3.34,9.92,9.92,0,0,1-1.89.18Zm3.49-11.94.2.31c-3.76,2.46-6.46,5.6-6.88,8a2.28,2.28,0,0,0,.34,1.86c.71,1,2.39,1.27,4.61.87a21.43,21.43,0,0,0,7.6-3.23c3.76-2.46,6.46-5.59,6.88-8a2.33,2.33,0,0,0-.34-1.86c-.71-.95-2.39-1.27-4.61-.87a21.43,21.43,0,0,0-7.6,3.23Z"/><circle class="cls-31" cx="296.63" cy="157.88" r="2.63"/><circle class="cls-32" cx="287.62" cy="159.76" r="1.13"/><circle class="cls-32" cx="302.65" cy="165.4" r="1.13"/><circle class="cls-32" cx="299.26" cy="148.86" r="1.13"/><path class="cls-33" d="M300.37,195.47l-.78.37a6.92,6.92,0,0,0-1.11,3.67,4.1,4.1,0,0,1-1.05,2.72c-1.69,2-3.94,1.75-6,.81a2.15,2.15,0,0,0-2.57,3.28c4.78,6.17,13.72,8.75,19.58,3.21,2.95-2.79,3.81-6.48,3.72-10.06a6.89,6.89,0,0,0-6.8-6.66c-1.42.84-3.12,1.76-5,2.66Z"/><path class="cls-34" d="M309.44,197.13c.1,3.57-.77,7.26-3.72,10.05-4.56,4.32-11,3.71-15.88.31,5,5.31,13.11,7.22,18.59,2,2.95-2.79,3.81-6.48,3.72-10.06a6.84,6.84,0,0,0-3.87-6,6.66,6.66,0,0,1,1.16,3.62Z"/><circle class="cls-35" cx="296.87" cy="208.03" r="1.58"/><circle class="cls-36" cx="306.67" cy="197.82" r="1.86"/><circle class="cls-37" cx="302.45" cy="207.54" r="2"/><circle class="cls-38" cx="306.71" cy="203.66" r="2"/><path class="cls-39" d="M296.72,207.9a1.58,1.58,0,0,1-1.38.53,1.51,1.51,0,0,0,.49.79,1.58,1.58,0,0,0,2.07-2.39,1.57,1.57,0,0,0-.85-.38A1.61,1.61,0,0,1,296.72,207.9Z"/><path class="cls-40" d="M306.73,197.88a1.84,1.84,0,0,1-1.81.59,1.81,1.81,0,0,0,.53.76,1.86,1.86,0,1,0,2.44-2.81,1.84,1.84,0,0,0-.82-.42A1.88,1.88,0,0,1,306.73,197.88Z"/><path class="cls-41" d="M302.62,207.68a2,2,0,0,1-2,.62,2,2,0,0,0,.53.75,2,2,0,1,0,2.62-3,2.05,2.05,0,0,0-.81-.43,2,2,0,0,1-.33,2.08Z"/><path class="cls-42" d="M306.88,203.8a2,2,0,0,1-2,.62,2,2,0,0,0,.53.75,2,2,0,0,0,2.62-3,2.05,2.05,0,0,0-.81-.43A2,2,0,0,1,306.88,203.8Z"/><path class="cls-43" d="M295.29,195l1,2.1.29.14c1.18-.49,2.46-1.07,3.79-1.71a64.69,64.69,0,0,0,5.88-3.21,1.2,1.2,0,0,0-1-2.14,63.76,63.76,0,0,0-6.16,2.63c-1.33.64-2.57,1.29-3.69,1.92Z"/><path class="cls-44" d="M305.37,191.25a63.22,63.22,0,0,1-5.88,3.22c-1.27.61-2.49,1.16-3.64,1.64l.48,1,.29.14c1.18-.49,2.46-1.07,3.79-1.71a64.69,64.69,0,0,0,5.88-3.21,1.21,1.21,0,0,0,.46-1.49,1.22,1.22,0,0,0-.83-.69,1.18,1.18,0,0,1-.55,1.14Z"/><path class="cls-45" d="M291.44,199.1l-.73-1.51a.44.44,0,0,1,0-.22,4.75,4.75,0,0,0-2.89.27c-1.18.57-2.32,2.49-2.78,3.34a.34.34,0,0,0,.25.51c1,.17,3.16.46,4.34-.11a4.62,4.62,0,0,0,2-2.11.61.61,0,0,1-.14-.17Z"/><path class="cls-35" d="M289.16,200a7.55,7.55,0,0,1-3.73.21c-.18.29-.33.56-.44.76a.34.34,0,0,0,.25.51c1,.17,3.16.46,4.34-.11a4.62,4.62,0,0,0,2-2.11.61.61,0,0,1-.14-.17l-.44-.91a4.46,4.46,0,0,1-1.84,1.82Z"/><path class="cls-46" d="M293,198.57c1-.32,2.29-.79,3.67-1.36l-1.22-2.51c-1.31.73-2.44,1.42-3.34,2a.38.38,0,0,1,.11.14l.74,1.52a.47.47,0,0,1,0,.17Z"/><path class="cls-47" d="M295.7,196.18c-1.21.5-2.32.92-3.27,1.23l.48,1a.47.47,0,0,1,0,.17c1-.32,2.29-.79,3.67-1.36L296,196l-.34.15Z"/><path class="cls-33" d="M290.66,197.61l.74,1.52a.46.46,0,0,0,.62.21l.72-.34a.46.46,0,0,0,.21-.63l-.73-1.52a.48.48,0,0,0-.63-.21l-.71.34A.48.48,0,0,0,290.66,197.61Z"/><path class="cls-34" d="M292.19,197.86l-.77.37a.47.47,0,0,1-.46,0l.44.91a.46.46,0,0,0,.62.21l.72-.34a.46.46,0,0,0,.21-.63l-.48-1A.49.49,0,0,1,292.19,197.86Z"/><path class="cls-11" d="M333.3,171.45H331v-2.3h-2v2.3h-2.3v2H329v2.3h2v-2.3h2.3Z"/><path class="cls-48" d="M327.21,195.21v2h-6.57v-2Z"/><path class="cls-49" d="M327.21,156.19v2h-6.57v-2Z"/><circle class="cls-49" cx="323.92" cy="154.22" r="0.99"/><circle class="cls-49" cx="323.92" cy="160.13" r="0.99"/><path class="cls-50" d="M316.69,162.63,315.05,161l-1.65,1.65L311.76,161l-1.64,1.61,1.64,1.68-1.64,1.64,1.64,1.65,1.64-1.65,1.65,1.65,1.64-1.65-1.64-1.64Z"/></g><line class="cls-51" x1="236.51" y1="213.98" x2="340.02" y2="213.98"/><line class="cls-51" x1="51.95" y1="74.77" x2="155.46" y2="74.77"/><line class="cls-51" x1="16.07" y1="353.44" x2="119.58" y2="353.44"/><path class="cls-52" d="M229.49,236.38a.5.5,0,1,1-.5.5A.5.5,0,0,1,229.49,236.38Z"/><path class="cls-52" d="M231.79,236.38a.5.5,0,1,1-.5.5A.5.5,0,0,1,231.79,236.38Z"/><path class="cls-52" d="M234.09,236.38a.5.5,0,1,1-.5.5A.5.5,0,0,1,234.09,236.38Z"/><path class="cls-52" d="M239.6,234.42a1.56,1.56,0,0,0-3.11,0v2.75s0,0,0,0l0,0a.23.23,0,0,1-.15.12h-.07a.27.27,0,0,1-.19-.08.3.3,0,0,1,0-.08.22.22,0,0,1,0-.08v-6.51a.25.25,0,0,1,.49,0v2.58a2,2,0,0,1,1.55-.72,2,2,0,0,1,2.05,1.93v2.72a.25.25,0,0,1-.49,0Z"/><path class="cls-52" d="M246.64,232.73v4.41a.24.24,0,0,1-.48,0v-.72a2.31,2.31,0,0,1-1.84,1,2.45,2.45,0,0,1,0-4.89,2.28,2.28,0,0,1,1.84,1v-.72a.24.24,0,0,1,.48,0Zm-.48,2.21a1.84,1.84,0,1,0-1.84,2A1.91,1.91,0,0,0,246.16,234.94Z"/><path class="cls-52" d="M248.72,235.05v-4.42a.25.25,0,0,1,.49,0v2.82a2.34,2.34,0,0,1,1.88-1,2.45,2.45,0,0,1,0,4.89,2.33,2.33,0,0,1-1.88-.95v.71a.25.25,0,0,1-.49,0Zm.49-.1a1.93,1.93,0,1,0,0-.08Z"/><path class="cls-52" d="M255.33,231.13a.25.25,0,0,1,.49,0v.23a.25.25,0,1,1-.49,0Zm0,1.6a.24.24,0,0,1,.24-.24.24.24,0,0,1,.25.24v4.41a.25.25,0,0,1-.49,0Z"/><path class="cls-52" d="M258,230.63a.25.25,0,0,1,.49,0v6.51a.25.25,0,0,1-.49,0Z"/><path class="cls-52" d="M260.42,231.13a.25.25,0,0,1,.49,0v.23a.25.25,0,1,1-.49,0Zm0,1.6a.24.24,0,0,1,.24-.24.24.24,0,0,1,.25.24v4.41a.25.25,0,0,1-.49,0Z"/><path class="cls-52" d="M267.14,236.43a2.33,2.33,0,0,1-1.88.95,2.45,2.45,0,0,1,0-4.89,2.34,2.34,0,0,1,1.88,1v-2.82a.25.25,0,0,1,.49,0v6.51a.25.25,0,0,1-.49,0Zm0-1.4v-.16a1.88,1.88,0,1,0-1.88,2A1.91,1.91,0,0,0,267.14,235Z"/><path class="cls-52" d="M273.93,232.73v4.41a.24.24,0,0,1-.48,0v-.72a2.31,2.31,0,0,1-1.84,1,2.45,2.45,0,0,1,0-4.89,2.28,2.28,0,0,1,1.84,1v-.72a.24.24,0,0,1,.48,0Zm-.48,2.21a1.84,1.84,0,1,0-1.84,2A1.91,1.91,0,0,0,273.45,234.94Z"/><path class="cls-52" d="M279.93,236.43a2.33,2.33,0,0,1-1.88.95,2.45,2.45,0,0,1,0-4.89,2.34,2.34,0,0,1,1.88,1v-2.82a.25.25,0,0,1,.49,0v6.51a.25.25,0,0,1-.49,0Zm0-1.4v-.16a1.88,1.88,0,1,0-1.88,2A1.91,1.91,0,0,0,279.93,235Z"/><path class="cls-52" d="M282.11,235a2.37,2.37,0,0,1,4.74-.18h0v0a.23.23,0,0,1-.24.22h-4a1.92,1.92,0,0,0,1.9,1.87,1.83,1.83,0,0,0,1.58-.88.23.23,0,0,1,.32-.08.25.25,0,0,1,.08.34,2.35,2.35,0,0,1-2,1.1A2.41,2.41,0,0,1,282.11,235Zm.51-.39h3.71a1.89,1.89,0,0,0-1.84-1.59A1.91,1.91,0,0,0,282.62,234.56Z"/><path class="cls-52" d="M288.21,236.36a.25.25,0,0,1,.34,0,2.69,2.69,0,0,0,1.5.56,1.48,1.48,0,0,0,.93-.3.73.73,0,0,0,.37-.59.77.77,0,0,0-.35-.6,2.44,2.44,0,0,0-1-.36h0a2.79,2.79,0,0,1-1.11-.38,1,1,0,0,1-.53-.88,1.21,1.21,0,0,1,.53-1,2.11,2.11,0,0,1,1.2-.33,2.63,2.63,0,0,1,1.46.53.25.25,0,0,1,.07.34.24.24,0,0,1-.33.07,2.14,2.14,0,0,0-1.2-.49,1.47,1.47,0,0,0-.93.28.74.74,0,0,0-.31.56.59.59,0,0,0,.28.49,2.47,2.47,0,0,0,1,.34h0a3.41,3.41,0,0,1,1.19.4,1.16,1.16,0,0,1,0,2,2,2,0,0,1-1.22.39,3,3,0,0,1-1.81-.7A.22.22,0,0,1,288.21,236.36Z"/><path class="cls-52" d="M300.37,236.4a2.37,2.37,0,0,1-1.88,1,2.44,2.44,0,0,1,0-4.87,2.34,2.34,0,0,1,1.88,1v-.72a.24.24,0,0,1,.24-.24.24.24,0,0,1,.25.24v6.46a.24.24,0,0,1-.25.24.24.24,0,0,1-.24-.24Zm-1.88.47a1.92,1.92,0,0,0,1.88-2,1.87,1.87,0,1,0-1.88,2Z"/><path class="cls-52" d="M303,232.72a.24.24,0,1,1,.48,0v2.67a1.51,1.51,0,1,0,3,0v-2.67a.24.24,0,0,1,.24-.24.24.24,0,0,1,.25.24v2.67a2,2,0,0,1-4,0Z"/><path class="cls-52" d="M308.85,235a2.37,2.37,0,0,1,4.74-.18h0v0a.23.23,0,0,1-.24.22h-4a1.92,1.92,0,0,0,1.9,1.87,1.83,1.83,0,0,0,1.58-.88.23.23,0,0,1,.32-.08.27.27,0,0,1,.08.34,2.35,2.35,0,0,1-2,1.1A2.41,2.41,0,0,1,308.85,235Zm.51-.39h3.71a1.89,1.89,0,0,0-1.84-1.59A1.91,1.91,0,0,0,309.36,234.56Z"/><path class="cls-52" d="M318.29,235v-2.29a.25.25,0,0,1,.49,0v.71a2.32,2.32,0,0,1,1.86-.95,2.43,2.43,0,0,1,0,4.86,2.32,2.32,0,0,1-1.86-.95v2.79a.25.25,0,0,1-.49,0Zm.49-.1a1.87,1.87,0,1,0,3.73,0,1.87,1.87,0,1,0-3.73-.08Z"/><path class="cls-52" d="M327,232.49a2.45,2.45,0,1,1-2.32,2.45A2.4,2.4,0,0,1,327,232.49Zm0,4.41a2,2,0,0,0,0-3.94,2,2,0,0,0,0,3.94Z"/><path class="cls-52" d="M332.66,232.73a.26.26,0,0,1-.24.24h-.63v3.56a.38.38,0,0,0,.36.36.28.28,0,0,1,.25.25.27.27,0,0,1-.25.24.83.83,0,0,1-.86-.85V233h-.61c-.24,0-.24-.12-.24-.24s0-.24.24-.24h.61v-1.82a.26.26,0,0,1,.24-.24.27.27,0,0,1,.26.24v1.82h.63A.26.26,0,0,1,332.66,232.73Z"/><path class="cls-52" d="M334.2,235a2.37,2.37,0,1,1,4.73-.18h0v0a.23.23,0,0,1-.24.22h-4a1.92,1.92,0,0,0,1.9,1.87,1.8,1.8,0,0,0,1.57-.88.24.24,0,0,1,.32-.08.27.27,0,0,1,.09.34,2.35,2.35,0,0,1-2,1.1A2.41,2.41,0,0,1,334.2,235Zm.51-.39h3.71a1.88,1.88,0,0,0-3.71,0Z"/><path class="cls-52" d="M344.14,234.49a1.51,1.51,0,0,0-1.51-1.51,1.54,1.54,0,0,0-1.52,1.51v2.69a.22.22,0,0,1-.05.11.21.21,0,0,1-.18.09h-.06a.26.26,0,0,1-.16-.13,0,0,0,0,1,0,0v-4.48a.24.24,0,1,1,.47,0v.47a2,2,0,0,1,3.5,1.28v2.65a.24.24,0,1,1-.47,0Z"/><path class="cls-52" d="M346.5,233.91a.18.18,0,0,1,.19-.18h2.13a.18.18,0,0,1,.19.18.19.19,0,0,1-.19.2h-2.13A.19.19,0,0,1,346.5,233.91Z"/><path class="cls-52" d="M228.75,246.93a2.47,2.47,0,0,1,2.52-2.44,2.52,2.52,0,0,1,1.56.54.23.23,0,0,1,0,.33.25.25,0,0,1-.33,0,2,2,0,0,0-3.3,1.53,2,2,0,0,0,2,2,2.06,2.06,0,0,0,1.26-.43.26.26,0,0,1,.33,0,.24.24,0,0,1-.05.35,2.53,2.53,0,0,1-1.54.52A2.47,2.47,0,0,1,228.75,246.93Z"/><path class="cls-52" d="M234.82,243.13a.25.25,0,0,1,.49,0v.23a.25.25,0,1,1-.49,0Zm0,1.6a.24.24,0,0,1,.24-.24.24.24,0,0,1,.25.24v4.41a.25.25,0,0,1-.49,0Z"/><path class="cls-52" d="M241.73,244.73v4.41a.24.24,0,0,1-.48,0v-.72a2.31,2.31,0,0,1-1.84,1,2.45,2.45,0,0,1,0-4.89,2.28,2.28,0,0,1,1.84,1v-.72a.24.24,0,0,1,.48,0Zm-.48,2.21a1.84,1.84,0,1,0-1.84,2A1.91,1.91,0,0,0,241.25,246.94Z"/><path class="cls-52" d="M246.46,247a2.37,2.37,0,0,1,4.74-.18h0v0a.23.23,0,0,1-.24.22h-4a1.92,1.92,0,0,0,1.9,1.87,1.83,1.83,0,0,0,1.58-.88.23.23,0,0,1,.32-.08.25.25,0,0,1,.08.34,2.35,2.35,0,0,1-2,1.1A2.41,2.41,0,0,1,246.46,247Zm.51-.39h3.71a1.89,1.89,0,0,0-1.84-1.59A1.91,1.91,0,0,0,247,246.56Z"/><path class="cls-52" d="M253,242.63a.25.25,0,0,1,.49,0v6.51a.25.25,0,0,1-.49,0Z"/><path class="cls-52" d="M258,247a2.37,2.37,0,0,1,4.74-.18h0v0a.23.23,0,0,1-.24.22h-4a1.92,1.92,0,0,0,1.9,1.87A1.83,1.83,0,0,0,262,248a.23.23,0,0,1,.32-.08.25.25,0,0,1,.08.34,2.35,2.35,0,0,1-2,1.1A2.41,2.41,0,0,1,258,247Zm.51-.39h3.71a1.89,1.89,0,0,0-1.84-1.59A1.91,1.91,0,0,0,258.55,246.56Z"/><path class="cls-52" d="M268,246.49a1.51,1.51,0,0,0-1.51-1.51,1.54,1.54,0,0,0-1.52,1.51v2.69a.22.22,0,0,1-.05.11.21.21,0,0,1-.18.09h-.06a.26.26,0,0,1-.16-.13,0,0,0,0,1,0,0v-4.48a.24.24,0,1,1,.47,0v.47a2,2,0,0,1,3.51,1.28v2.65a.24.24,0,0,1-.48,0Z"/><path class="cls-52" d="M272.77,242.65a.24.24,0,0,1-.24.24.76.76,0,0,0-.62.19,1.2,1.2,0,0,0-.2.81v.52h.69a.25.25,0,1,1,0,.49h-.69v4.25a.25.25,0,0,1-.49,0V244.9h-.65a.25.25,0,0,1,0-.49h.65v-.52a1.74,1.74,0,0,1,.32-1.14,1.3,1.3,0,0,1,1-.35A.25.25,0,0,1,272.77,242.65Z"/><path class="cls-52" d="M276.2,244.49a2.45,2.45,0,1,1-2.32,2.45A2.4,2.4,0,0,1,276.2,244.49Zm0,4.41a2,2,0,1,0-1.84-2A1.91,1.91,0,0,0,276.2,248.9Z"/><path class="cls-52" d="M284.26,248.4a2.37,2.37,0,0,1-1.88,1,2.44,2.44,0,0,1,0-4.87,2.34,2.34,0,0,1,1.88,1v-.72a.24.24,0,0,1,.24-.24.24.24,0,0,1,.25.24v6.46a.24.24,0,0,1-.25.24.24.24,0,0,1-.24-.24Zm-1.88.47a1.92,1.92,0,0,0,1.88-2,1.87,1.87,0,1,0-1.88,2Z"/><path class="cls-52" d="M286.86,244.72a.24.24,0,1,1,.48,0v2.67a1.51,1.51,0,1,0,3,0v-2.67a.24.24,0,0,1,.24-.24.24.24,0,0,1,.25.24v2.67a2,2,0,0,1-4,0Z"/><path class="cls-52" d="M292.74,247a2.37,2.37,0,0,1,4.74-.18h0v0a.23.23,0,0,1-.24.22h-4a1.92,1.92,0,0,0,1.9,1.87,1.83,1.83,0,0,0,1.58-.88.23.23,0,0,1,.32-.08.25.25,0,0,1,.08.34,2.35,2.35,0,0,1-2,1.1A2.41,2.41,0,0,1,292.74,247Zm.51-.39H297a1.89,1.89,0,0,0-1.84-1.59A1.91,1.91,0,0,0,293.25,246.56Z"/><path class="cls-52" d="M302,248.08a.21.21,0,0,1,.31,0,3.89,3.89,0,0,0,2.3.89,2.63,2.63,0,0,0,1.54-.46,1.26,1.26,0,0,0,.6-1,1.12,1.12,0,0,0-.57-1,4.61,4.61,0,0,0-1.62-.57h0a4.4,4.4,0,0,1-1.65-.59,1.45,1.45,0,0,1-.72-1.22,1.63,1.63,0,0,1,.73-1.31,2.87,2.87,0,0,1,1.69-.51,3.87,3.87,0,0,1,2.16.81.22.22,0,0,1,.06.31.21.21,0,0,1-.3.06,3.48,3.48,0,0,0-1.92-.74,2.5,2.5,0,0,0-1.43.42,1.22,1.22,0,0,0-.55,1,1,1,0,0,0,.52.85,4.08,4.08,0,0,0,1.5.53h0a4.79,4.79,0,0,1,1.78.64,1.57,1.57,0,0,1,.77,1.32,1.73,1.73,0,0,1-.79,1.39,3.08,3.08,0,0,1-1.8.55,4.37,4.37,0,0,1-2.58-1A.22.22,0,0,1,302,248.08Z"/><path class="cls-52" d="M310.62,242.88h-2.11a.25.25,0,0,1,0-.49h4.7a.25.25,0,0,1,0,.49H311.1v6.26a.24.24,0,0,1-.48,0Z"/><path class="cls-52" d="M315.29,242.63a.24.24,0,0,1,.24-.24h3.6a.24.24,0,0,1,.24.24.24.24,0,0,1-.24.25h-3.35v2.77h2.93a.25.25,0,0,1,0,.49h-2.93v2.75h3.35a.24.24,0,0,1,.24.25.24.24,0,0,1-.24.24h-3.62a.24.24,0,0,1-.22-.24Z"/><path class="cls-52" d="M325.05,247.58h-3.19l-.62,1.64a.25.25,0,0,1-.23.16h-.09a.26.26,0,0,1-.14-.32l2.43-6.48a.27.27,0,0,1,.24-.15.25.25,0,0,1,.24.15l2.43,6.48a.25.25,0,0,1-.13.32h-.09a.26.26,0,0,1-.23-.16Zm-3-.49h2.83l-1.41-3.76Z"/><path class="cls-52" d="M333.08,243.39l-2.24,3.11a.23.23,0,0,1-.2.11h0a.23.23,0,0,1-.21-.11l-2.24-3.1v5.74a.25.25,0,0,1-.49,0v-6.47a.23.23,0,0,1,.1-.19l0,0a.25.25,0,0,1,.34.06l2.49,3.45,2.48-3.45a.25.25,0,0,1,.34-.06l.07.08a.33.33,0,0,1,0,.13v6.47a.24.24,0,0,1-.24.24.24.24,0,0,1-.24-.24Z"/><path class="cls-52" d="M228.75,258.93a2.47,2.47,0,0,1,2.52-2.44,2.52,2.52,0,0,1,1.56.54.23.23,0,0,1,0,.33.25.25,0,0,1-.33,0,2,2,0,0,0-3.3,1.53,2,2,0,0,0,2,2,2.06,2.06,0,0,0,1.26-.43.26.26,0,0,1,.33,0,.24.24,0,0,1-.05.35,2.53,2.53,0,0,1-1.54.52A2.47,2.47,0,0,1,228.75,258.93Z"/><path class="cls-52" d="M236.75,256.49a2.45,2.45,0,1,1-2.32,2.45A2.4,2.4,0,0,1,236.75,256.49Zm0,4.41a2,2,0,1,0-1.84-2A1.91,1.91,0,0,0,236.75,260.9Z"/><path class="cls-52" d="M247.92,258.49a1.52,1.52,0,1,0-3,0v2.73a.25.25,0,0,1-.12.13l-.12,0h-.07l-.06,0,0,0,0,0,0,0v0a0,0,0,0,0,0,0v-2.71a1.51,1.51,0,1,0-3,0v2.66a.21.21,0,0,1-.11.19l-.06,0h-.1a.26.26,0,0,1-.2-.18v-4.47a.23.23,0,0,1,.23-.23.23.23,0,0,1,.24.23v.47a2,2,0,0,1,1.51-.7,2,2,0,0,1,1.75,1,2,2,0,0,1,1.76-1,2,2,0,0,1,2,2v2.66a.24.24,0,0,1-.47,0Z"/><path class="cls-52" d="M252.51,256.49a2.45,2.45,0,1,1-2.32,2.45A2.4,2.4,0,0,1,252.51,256.49Zm0,4.41a2,2,0,1,0-1.84-2A1.91,1.91,0,0,0,252.51,260.9Z"/><path class="cls-52" d="M259.32,258.93a2.47,2.47,0,0,1,2.52-2.44,2.52,2.52,0,0,1,1.56.54.23.23,0,0,1,0,.33.25.25,0,0,1-.33,0,2,2,0,0,0-3.3,1.53,2,2,0,0,0,2,2,2.06,2.06,0,0,0,1.26-.43.26.26,0,0,1,.33,0,.24.24,0,0,1-.05.35,2.53,2.53,0,0,1-1.54.52A2.47,2.47,0,0,1,259.32,258.93Z"/><path class="cls-52" d="M267.32,256.49a2.45,2.45,0,1,1-2.32,2.45A2.4,2.4,0,0,1,267.32,256.49Zm0,4.41a2,2,0,1,0-1.84-2A1.91,1.91,0,0,0,267.32,260.9Z"/><path class="cls-52" d="M278.49,258.49a1.52,1.52,0,1,0-3,0v2.73a.25.25,0,0,1-.12.13l-.12,0h-.07l-.06,0,0,0,0,0,0,0v0a0,0,0,0,0,0,0v-2.71a1.51,1.51,0,1,0-3,0v2.66a.21.21,0,0,1-.11.19.11.11,0,0,1-.06,0h-.1a.26.26,0,0,1-.2-.18v-4.47a.23.23,0,0,1,.23-.23.23.23,0,0,1,.24.23v.47a2,2,0,0,1,1.51-.7,2,2,0,0,1,1.75,1,2,2,0,0,1,1.76-1,2,2,0,0,1,2,2v2.66a.24.24,0,0,1-.47,0Z"/><path class="cls-52" d="M280.89,256.72a.24.24,0,0,1,.48,0v2.67a1.51,1.51,0,1,0,3,0v-2.67a.24.24,0,0,1,.24-.24.24.24,0,0,1,.25.24v2.67a2,2,0,0,1-4,0Z"/><path class="cls-52" d="M290.38,258.49a1.51,1.51,0,0,0-1.51-1.51,1.54,1.54,0,0,0-1.52,1.51v2.69a.22.22,0,0,1-.05.11.21.21,0,0,1-.18.09h-.06a.26.26,0,0,1-.16-.13,0,0,0,0,1,0,0,0,0,0,0,0,0,0v-4.46a.24.24,0,1,1,.47,0v.47a2,2,0,0,1,3.51,1.28v2.65a.24.24,0,0,1-.48,0Z"/><path class="cls-52" d="M293,255.13a.25.25,0,0,1,.49,0v.23a.25.25,0,1,1-.49,0Zm0,1.6a.24.24,0,0,1,.24-.24.24.24,0,0,1,.25.24v4.41a.25.25,0,0,1-.49,0Z"/><path class="cls-52" d="M295.47,258.93a2.47,2.47,0,0,1,2.52-2.44,2.52,2.52,0,0,1,1.56.54.23.23,0,0,1,0,.33.25.25,0,0,1-.33,0,2,2,0,0,0-3.3,1.53,2,2,0,0,0,2,2,2.06,2.06,0,0,0,1.26-.43.26.26,0,0,1,.33,0,.24.24,0,0,1-.05.35,2.53,2.53,0,0,1-1.54.52A2.47,2.47,0,0,1,295.47,258.93Z"/><path class="cls-52" d="M305.64,256.73v4.41a.24.24,0,0,1-.48,0v-.72a2.31,2.31,0,0,1-1.84,1,2.45,2.45,0,0,1,0-4.89,2.28,2.28,0,0,1,1.84,1v-.72a.24.24,0,0,1,.48,0Zm-.48,2.21a1.84,1.84,0,1,0-1.84,2A1.91,1.91,0,0,0,305.16,258.94Z"/><path class="cls-52" d="M307.37,258.93a2.47,2.47,0,0,1,2.52-2.44,2.52,2.52,0,0,1,1.56.54.23.23,0,0,1,0,.33.25.25,0,0,1-.33,0,2,2,0,0,0-3.3,1.53,2,2,0,0,0,2,2,2.06,2.06,0,0,0,1.26-.43.26.26,0,0,1,.33,0,.24.24,0,0,1-.05.35,2.53,2.53,0,0,1-1.54.52A2.47,2.47,0,0,1,307.37,258.93Z"/><path class="cls-52" d="M313.44,255.13a.25.25,0,0,1,.49,0v.23a.25.25,0,1,1-.49,0Zm0,1.6a.24.24,0,0,1,.24-.24.24.24,0,0,1,.25.24v4.41a.25.25,0,0,1-.49,0Z"/><path class="cls-52" d="M315.89,258.94a2.32,2.32,0,1,1,2.32,2.44A2.4,2.4,0,0,1,315.89,258.94Zm.48,0a1.84,1.84,0,1,0,1.84-2A1.91,1.91,0,0,0,316.37,258.94Zm1.31-3.25a.39.39,0,0,0,.32-.13l.8-.77a.3.3,0,0,0,.11-.18c0-.1-.23-.23-.42-.23a.32.32,0,0,0-.28.18l-.62.93a.21.21,0,0,0,0,.11C317.55,255.65,317.61,255.69,317.68,255.69Z"/><path class="cls-52" d="M326.14,258.49a1.51,1.51,0,0,0-1.51-1.51,1.54,1.54,0,0,0-1.52,1.51v2.69a.22.22,0,0,1-.05.11.21.21,0,0,1-.18.09h-.06a.26.26,0,0,1-.16-.13,0,0,0,0,1,0,0,0,0,0,0,0,0,0v-4.46a.24.24,0,1,1,.47,0v.47a2,2,0,0,1,3.51,1.28v2.65a.24.24,0,0,1-.48,0Z"/><path class="cls-52" d="M331.36,256.72a.23.23,0,0,1,.23-.23.24.24,0,0,1,.25.23v2.66a1.5,1.5,0,0,0,1.5,1.5,1.52,1.52,0,0,0,1.52-1.5v-2.66a.17.17,0,0,1,0-.12s0,0,0,0h0a.18.18,0,0,1,.09-.06h.11l.12.05a.24.24,0,0,1,.06.08.19.19,0,0,1,0,.1V261a2.31,2.31,0,0,1-2.33,2.3,2.45,2.45,0,0,1-1-.23.25.25,0,0,1-.1-.32.26.26,0,0,1,.31-.12,1.81,1.81,0,0,0,.8.19,1.84,1.84,0,0,0,1.85-1.82v-.32a2,2,0,0,1-1.52.7,2,2,0,0,1-2-2Z"/><path class="cls-52" d="M229.1,268.74a.24.24,0,0,1,.25-.24.23.23,0,0,1,.23.24v1.08a.75.75,0,0,1,.07-.12,2.36,2.36,0,0,1,2-1.2.24.24,0,0,1,.24.24.24.24,0,0,1-.24.24,1.77,1.77,0,0,0-1.42.8,4.41,4.41,0,0,0-.59,1.14.15.15,0,0,0,0,.08v2.14a.23.23,0,0,1-.23.24.24.24,0,0,1-.25-.24Z"/><path class="cls-52" d="M232.64,271a2.37,2.37,0,0,1,4.74-.18h0v0a.23.23,0,0,1-.24.22h-4a1.92,1.92,0,0,0,1.9,1.87,1.83,1.83,0,0,0,1.58-.88.23.23,0,0,1,.32-.08.25.25,0,0,1,.08.34,2.35,2.35,0,0,1-2,1.1A2.41,2.41,0,0,1,232.64,271Zm.51-.39h3.71A1.89,1.89,0,0,0,235,269,1.91,1.91,0,0,0,233.15,270.56Z"/><path class="cls-52" d="M238.74,272.36a.25.25,0,0,1,.34,0,2.69,2.69,0,0,0,1.5.56,1.48,1.48,0,0,0,.93-.3.73.73,0,0,0,.37-.59.77.77,0,0,0-.35-.6,2.44,2.44,0,0,0-1-.36h0a2.79,2.79,0,0,1-1.11-.38,1,1,0,0,1-.53-.88,1.21,1.21,0,0,1,.53-1,2.11,2.11,0,0,1,1.2-.33A2.63,2.63,0,0,1,242,269a.25.25,0,0,1,.07.34.24.24,0,0,1-.33.07,2.14,2.14,0,0,0-1.2-.49,1.47,1.47,0,0,0-.93.28.74.74,0,0,0-.31.56.59.59,0,0,0,.28.49,2.47,2.47,0,0,0,1,.34h0a3.41,3.41,0,0,1,1.19.4,1.16,1.16,0,0,1,0,2,2,2,0,0,1-1.22.39,3,3,0,0,1-1.81-.7A.22.22,0,0,1,238.74,272.36Z"/><path class="cls-52" d="M246.09,268.49a2.45,2.45,0,1,1-2.32,2.45A2.4,2.4,0,0,1,246.09,268.49Zm0,4.41a2,2,0,1,0-1.84-2A1.91,1.91,0,0,0,246.09,272.9Z"/><path class="cls-52" d="M250.32,266.63a.25.25,0,0,1,.49,0v6.51a.25.25,0,0,1-.49,0Z"/><path class="cls-52" d="M252.64,268.72a.24.24,0,0,1,.48,0v2.67a1.51,1.51,0,1,0,3,0v-2.67a.24.24,0,0,1,.24-.24.24.24,0,0,1,.25.24v2.67a2,2,0,0,1-4,0Z"/><path class="cls-52" d="M258.52,270.93a2.47,2.47,0,0,1,2.52-2.44,2.52,2.52,0,0,1,1.56.54.23.23,0,0,1,0,.33.25.25,0,0,1-.33,0,2,2,0,0,0-3.3,1.53,2,2,0,0,0,2,2,2.06,2.06,0,0,0,1.26-.43.26.26,0,0,1,.33,0,.24.24,0,0,1-.05.35,2.53,2.53,0,0,1-1.54.52A2.47,2.47,0,0,1,258.52,270.93Z"/><path class="cls-52" d="M264.59,267.13a.25.25,0,0,1,.49,0v.23a.25.25,0,1,1-.49,0Zm0,1.6a.24.24,0,0,1,.24-.24.24.24,0,0,1,.25.24v4.41a.25.25,0,0,1-.49,0Z"/><path class="cls-52" d="M267,270.94a2.32,2.32,0,1,1,2.32,2.44A2.4,2.4,0,0,1,267,270.94Zm.48,0a1.84,1.84,0,1,0,1.84-2A1.91,1.91,0,0,0,267.52,270.94Zm1.31-3.25a.39.39,0,0,0,.32-.13l.8-.77a.3.3,0,0,0,.11-.18c0-.1-.23-.23-.42-.23a.32.32,0,0,0-.28.18l-.62.93a.21.21,0,0,0,0,.11S268.76,267.69,268.83,267.69Z"/><path class="cls-52" d="M277.29,270.49a1.51,1.51,0,0,0-1.51-1.51,1.54,1.54,0,0,0-1.52,1.51v2.69a.22.22,0,0,1-.05.11.21.21,0,0,1-.18.09H274a.26.26,0,0,1-.16-.13,0,0,0,0,1,0,0,0,0,0,0,0,0,0v-4.46a.24.24,0,1,1,.47,0v.47a2,2,0,0,1,3.51,1.28v2.65a.24.24,0,0,1-.48,0Z"/><path class="cls-52" d="M286.84,272.43a2.33,2.33,0,0,1-1.88.95,2.45,2.45,0,0,1,0-4.89,2.34,2.34,0,0,1,1.88,1v-2.82a.25.25,0,0,1,.49,0v6.51a.25.25,0,0,1-.49,0Zm0-1.4v-.16a1.88,1.88,0,1,0-1.88,2A1.91,1.91,0,0,0,286.84,271Z"/><path class="cls-52" d="M289,271a2.37,2.37,0,0,1,4.74-.18h0v0a.23.23,0,0,1-.24.22h-4a1.92,1.92,0,0,0,1.9,1.87A1.83,1.83,0,0,0,293,272a.23.23,0,0,1,.32-.08.25.25,0,0,1,.08.34,2.35,2.35,0,0,1-2,1.1A2.41,2.41,0,0,1,289,271Zm.51-.39h3.71A1.89,1.89,0,0,0,291.4,269,1.91,1.91,0,0,0,289.53,270.56Z"/><path class="cls-52" d="M298.46,271v-2.29a.25.25,0,0,1,.49,0v.71a2.32,2.32,0,0,1,1.86-.95,2.43,2.43,0,0,1,0,4.86,2.32,2.32,0,0,1-1.86-1v2.79a.25.25,0,0,1-.49,0Zm.49-.1a1.87,1.87,0,1,0,1.86-1.94,1.9,1.9,0,0,0-1.86,1.86Z"/><path class="cls-52" d="M305.06,268.74a.24.24,0,0,1,.25-.24.23.23,0,0,1,.23.24v1.08a.75.75,0,0,1,.07-.12,2.36,2.36,0,0,1,2-1.2.24.24,0,0,1,.24.24.24.24,0,0,1-.24.24,1.77,1.77,0,0,0-1.42.8,4.41,4.41,0,0,0-.59,1.14.15.15,0,0,0,0,.08v2.14a.23.23,0,0,1-.23.24.24.24,0,0,1-.25-.24Z"/><path class="cls-52" d="M311.29,268.49a2.45,2.45,0,1,1-2.32,2.45A2.4,2.4,0,0,1,311.29,268.49Zm0,4.41a2,2,0,1,0-1.84-2A1.91,1.91,0,0,0,311.29,272.9Z"/><path class="cls-52" d="M315.45,271.05v-4.42a.25.25,0,0,1,.49,0v2.82a2.34,2.34,0,0,1,1.88-1,2.45,2.45,0,0,1,0,4.89,2.33,2.33,0,0,1-1.88-.95v.71a.25.25,0,0,1-.49,0Zm.49-.1a1.93,1.93,0,1,0,0-.08Z"/><path class="cls-52" d="M322.12,266.63a.25.25,0,0,1,.49,0v6.51a.25.25,0,0,1-.49,0Z"/><path class="cls-52" d="M324.64,271a2.37,2.37,0,0,1,4.74-.18h0v0a.23.23,0,0,1-.24.22h-4a1.92,1.92,0,0,0,1.9,1.87,1.83,1.83,0,0,0,1.58-.88.23.23,0,0,1,.32-.08.25.25,0,0,1,.08.34,2.35,2.35,0,0,1-2,1.1A2.41,2.41,0,0,1,324.64,271Zm.51-.39h3.71A1.89,1.89,0,0,0,327,269,1.91,1.91,0,0,0,325.15,270.56Z"/><path class="cls-52" d="M330.81,269.91a.18.18,0,0,1,.19-.18h2.13a.18.18,0,0,1,.19.18.19.19,0,0,1-.19.2H331A.19.19,0,0,1,330.81,269.91Z"/><path class="cls-52" d="M236.11,282.49a1.52,1.52,0,1,0-3,0v2.73a.25.25,0,0,1-.12.13l-.12,0h-.07l-.06,0,0,0,0,0,0,0v0a0,0,0,0,0,0,0v-2.71a1.51,1.51,0,1,0-3,0v2.66a.21.21,0,0,1-.11.19l-.06,0h-.1a.26.26,0,0,1-.2-.18v-4.47a.23.23,0,0,1,.23-.23.23.23,0,0,1,.24.23v.47a2,2,0,0,1,1.51-.7,2,2,0,0,1,1.75,1,2,2,0,0,1,1.76-1,2,2,0,0,1,2,2v2.66a.24.24,0,0,1-.47,0Z"/><path class="cls-52" d="M242.72,280.73v4.41a.24.24,0,0,1-.48,0v-.72a2.31,2.31,0,0,1-1.84,1,2.45,2.45,0,0,1,0-4.89,2.28,2.28,0,0,1,1.84,1v-.72a.24.24,0,1,1,.48,0Zm-.48,2.21a1.84,1.84,0,1,0-1.84,2A1.91,1.91,0,0,0,242.24,282.94Z"/><path class="cls-52" d="M244.46,284.36a.25.25,0,0,1,.34,0,2.69,2.69,0,0,0,1.5.56,1.48,1.48,0,0,0,.93-.3.73.73,0,0,0,.37-.59.77.77,0,0,0-.35-.6,2.44,2.44,0,0,0-1-.36h0a2.79,2.79,0,0,1-1.11-.38,1,1,0,0,1-.53-.88,1.21,1.21,0,0,1,.53-1,2.11,2.11,0,0,1,1.2-.33,2.63,2.63,0,0,1,1.46.53.25.25,0,0,1,.07.34.24.24,0,0,1-.33.07,2.14,2.14,0,0,0-1.2-.49,1.47,1.47,0,0,0-.93.28.74.74,0,0,0-.31.56.59.59,0,0,0,.28.49,2.47,2.47,0,0,0,1,.34h0a3.41,3.41,0,0,1,1.19.4,1.16,1.16,0,0,1,0,2,2,2,0,0,1-1.22.39,3,3,0,0,1-1.81-.7A.22.22,0,0,1,244.46,284.36Z"/><path class="cls-52" d="M250.11,284.38a.5.5,0,1,1-.5.5A.5.5,0,0,1,250.11,284.38Z"/><path class="cls-52" d="M252.41,284.38a.5.5,0,1,1-.5.5A.5.5,0,0,1,252.41,284.38Z"/><path class="cls-52" d="M254.71,284.38a.5.5,0,1,1-.5.5A.5.5,0,0,1,254.71,284.38Z"/><path class="cls-52" d="M257,284.38a.5.5,0,1,1-.5.5A.5.5,0,0,1,257,284.38Z"/><text class="cls-53" transform="translate(41.35 100.13)"><tspan class="cls-54" x="4.1" y="0">T</tspan><tspan x="9.23" y="0">odos somo </tspan><tspan class="cls-55" x="66.18" y="0">h</tspan><tspan x="72.71" y="0">a</tspan><tspan class="cls-56" x="78.9" y="0">c</tspan><tspan x="84.46" y="0">ed</tspan><tspan class="cls-57" x="97.15" y="0">o</tspan><tspan class="cls-58" x="103.2" y="0">r</tspan><tspan x="107.09" y="0">es, </tspan><tspan x="0" y="12">nacimos </tspan><tspan class="cls-59" x="44.52" y="12">h</tspan><tspan x="51.05" y="12">a</tspan><tspan class="cls-60" x="57.24" y="12">c</tspan><tspan x="62.8" y="12">ed</tspan><tspan class="cls-57" x="75.49" y="12">o</tspan><tspan class="cls-58" x="81.54" y="12">r</tspan><tspan x="85.43" y="12">es. Esa </tspan><tspan class="cls-59" x="0" y="24">h</tspan><tspan x="6.53" y="24">ab</tspan><tspan class="cls-61" x="19.32" y="24">i</tspan><tspan x="21.92" y="24">lidad que </tspan><tspan class="cls-62" x="71.43" y="24">t</tspan><tspan x="75.03" y="24">enemos </tspan><tspan class="cls-60" x="0" y="36">d</tspan><tspan x="6.45" y="36">e </tspan><tspan class="cls-59" x="15.54" y="36">h</tspan><tspan x="22.07" y="36">a</tspan><tspan class="cls-60" x="28.26" y="36">c</tspan><tspan class="cls-61" x="33.82" y="36">e</tspan><tspan x="39.7" y="36">r </tspan><tspan class="cls-56" x="47.09" y="36">c</tspan><tspan x="52.65" y="36">osas...</tspan></text><text class="cls-53" transform="translate(6.2 381.46)">...nu<tspan class="cls-63" x="19.16" y="0">ev</tspan><tspan x="30.57" y="0">as </tspan><tspan class="cls-56" x="44.68" y="0">c</tspan><tspan x="50.24" y="0">ombinaciones </tspan><tspan class="cls-60" x="0" y="12">d</tspan><tspan x="6.45" y="12">e lo </tspan><tspan class="cls-64" x="27.28" y="12">e</tspan><tspan class="cls-65" x="33.07" y="12">x</tspan><tspan x="38.32" y="12">i</tspan><tspan class="cls-66" x="41.13" y="12">s</tspan><tspan class="cls-67" x="46.2" y="12">t</tspan><tspan x="49.8" y="12">en</tspan><tspan class="cls-67" x="62.02" y="12">t</tspan><tspan x="65.62" y="12">e pa</tspan><tspan class="cls-63" x="87.5" y="12">r</tspan><tspan x="91.64" y="12">a </tspan><tspan x="0" y="24">c</tspan><tspan class="cls-58" x="5.71" y="24">r</tspan><tspan x="9.6" y="24">ear </tspan><tspan class="cls-68" x="29.27" y="24">u</tspan><tspan class="cls-69" x="35.16" y="24">n ap</tspan><tspan class="cls-70" x="57.08" y="24">r</tspan><tspan x="60.97" y="24">e</tspan><tspan class="cls-57" x="67.06" y="24">n</tspan><tspan x="72.99" y="24">diz</tspan><tspan class="cls-71" x="87.94" y="24">a</tspan><tspan x="95.33" y="24">je </tspan><tspan x="0" y="36">c</tspan><tspan class="cls-58" x="5.71" y="36">r</tspan><tspan x="9.6" y="36">eati</tspan><tspan class="cls-64" x="28.69" y="36">v</tspan><tspan class="cls-57" x="34.21" y="36">o</tspan><tspan x="40.26" y="36">.</tspan></text><text class="cls-72" transform="translate(30.2 319.63)"><tspan class="cls-73">E</tspan><tspan x="8.74" y="0">ducacin</tspan></text><text class="cls-72" transform="translate(75.85 35.08)">C<tspan class="cls-74" x="11.57" y="0">u</tspan><tspan x="20.3" y="0">ltu</tspan><tspan class="cls-63" x="39.23" y="0">r</tspan><tspan x="45.44" y="0">a</tspan></text><text class="cls-72" transform="translate(78.17 53.07)"><tspan class="cls-75">M</tspan><tspan x="11.69" y="0">AK</tspan><tspan class="cls-76" x="32.1" y="0">E</tspan><tspan x="41.29" y="0">R</tspan></text><text class="cls-77" transform="translate(75.36 338.45) scale(0.93 1)"><tspan class="cls-78">M</tspan><tspan x="13.44" y="0">AK</tspan><tspan class="cls-79" x="36.91" y="0">E</tspan><tspan x="47.48" y="0">R</tspan></text><rect class="cls-80" x="134.41" y="45.11" width="18.47" height="4.31" transform="translate(22.75 138.11) rotate(-55.14)"/><path class="cls-81" d="M140.13,56.08l-3.53-2.47,1.34-1.92a6.12,6.12,0,0,1,1.09.4,6.72,6.72,0,0,1,1,.56,6.9,6.9,0,0,1,1.49,1.47Z"/><path class="cls-81" d="M147.28,41.87a6.6,6.6,0,0,1-1.48-1.46l1.36-1.95,3.53,2.46-1.34,1.92a8.76,8.76,0,0,1-1.09-.4A6,6,0,0,1,147.28,41.87Z"/><path class="cls-80" d="M131.68,59.49a3.09,3.09,0,0,1-.25-.31l-.08-.12a3.36,3.36,0,0,1-.23-.88,4.27,4.27,0,0,1,.25-1.87,7.66,7.66,0,0,1,2.57-3.63A3.77,3.77,0,0,1,136.3,52a5.66,5.66,0,0,1,.92.13,7.19,7.19,0,0,1,1.42.48,6.41,6.41,0,0,1,1,.57,6.14,6.14,0,0,1,2.27,3,3.69,3.69,0,0,1,.17,1.32,6.74,6.74,0,0,1-2.25,4l-.39.34a4.21,4.21,0,0,1-1.67.88,2.76,2.76,0,0,1-.9.09.18.18,0,0,1-.09,0l-.13,0c-.23-.07-.57-.18-.52-.26l2.51-3.6a.78.78,0,0,0,.08-.74l-.89-2a.78.78,0,0,0-.11-.18l-.1-.09a.58.58,0,0,0-.32-.1h0l-2.17-.13a.75.75,0,0,0-.66.33l-2.51,3.6S131.78,59.6,131.68,59.49Z"/><path class="cls-81" d="M136.11,62.57l2.51-3.6a.78.78,0,0,0,.08-.74l-.89-2a.78.78,0,0,0-.11-.18,6.85,6.85,0,0,1,1.37,1.83,1.67,1.67,0,0,1,.27.73,1.33,1.33,0,0,1-.22.72l-.39.67c-.31.51-.71,1-1.06,1.43l-1,1.42C136.4,62.76,136.06,62.65,136.11,62.57Z"/><path class="cls-81" d="M131.43,59.18l-.08-.12a3.36,3.36,0,0,1-.23-.88,4.27,4.27,0,0,1,.25-1.87,7.66,7.66,0,0,1,2.57-3.63A3.77,3.77,0,0,1,136.3,52l-.43.19a8.37,8.37,0,0,0-3.19,3.06,10.46,10.46,0,0,0-1.12,3.13A7.49,7.49,0,0,0,131.43,59.18Z"/><path class="cls-82" d="M136.76,62.86a7.74,7.74,0,0,0,3.4-2.32,8.23,8.23,0,0,0,1.42-2.72,11,11,0,0,0,.31-1.62,3.69,3.69,0,0,1,.17,1.32,6.74,6.74,0,0,1-2.25,4l-.39.34a4.21,4.21,0,0,1-1.67.88,2.76,2.76,0,0,1-.9.09A.18.18,0,0,1,136.76,62.86Z"/><path class="cls-82" d="M131.68,59.49c.26-.53.54-1,.84-1.54a12.11,12.11,0,0,1,1-1.55c.32-.38.54-.91,1.06-1.07a1.79,1.79,0,0,1,.73,0,11,11,0,0,1,1.41.3,1.12,1.12,0,0,1,.51.22l-2.17-.13a.75.75,0,0,0-.66.33l-2.51,3.6S131.78,59.6,131.68,59.49Z"/><path class="cls-80" d="M151,31.83l-.38-.13-.14,0a3.13,3.13,0,0,0-.91.09,4.27,4.27,0,0,0-1.67.88,7.66,7.66,0,0,0-2.51,3.67,3.68,3.68,0,0,0,.23,2.43,4.92,4.92,0,0,0,.43.82,6.07,6.07,0,0,0,.95,1.17,5,5,0,0,0,.87.72,6.14,6.14,0,0,0,3.58,1.1,3.74,3.74,0,0,0,1.29-.3,6.69,6.69,0,0,0,3-3.52l.19-.48a4.28,4.28,0,0,0,.24-1.87,2.73,2.73,0,0,0-.23-.88l0-.08-.08-.1c-.14-.2-.37-.48-.43-.4l-2.5,3.6a.79.79,0,0,1-.67.33l-2.2-.13a.65.65,0,0,1-.21,0l-.12-.05a.79.79,0,0,1-.21-.27v0l-.87-2a.72.72,0,0,1,.08-.73l2.51-3.6S151.09,31.88,151,31.83Z"/><path class="cls-81" d="M155.37,34.92l-2.5,3.6a.79.79,0,0,1-.67.33l-2.2-.13a.65.65,0,0,1-.21,0,6.94,6.94,0,0,0,2.19.66,1.71,1.71,0,0,0,.78,0,1.31,1.31,0,0,0,.6-.44c.16-.21.33-.41.5-.61.36-.46.64-1,1-1.48l1-1.47C155.66,35.12,155.43,34.84,155.37,34.92Z"/><path class="cls-81" d="M150.57,31.7l-.14,0a3.13,3.13,0,0,0-.91.09,4.27,4.27,0,0,0-1.67.88,7.66,7.66,0,0,0-2.51,3.67,3.68,3.68,0,0,0,.23,2.43,3.55,3.55,0,0,1,0-.46,7.4,7.4,0,0,1,.34-1.48,7.9,7.9,0,0,1,1.42-2.57,10.47,10.47,0,0,1,2.54-2.15Z"/><path class="cls-82" d="M155.88,35.42a7.76,7.76,0,0,1-1,4,8.11,8.11,0,0,1-2.06,2.27,10.61,10.61,0,0,1-1.41.86,3.74,3.74,0,0,0,1.29-.3,6.69,6.69,0,0,0,3-3.52l.19-.48a4.28,4.28,0,0,0,.24-1.87,2.73,2.73,0,0,0-.23-.88Z"/><path class="cls-82" d="M151,31.83c-.4.42-.79.87-1.16,1.33a13.39,13.39,0,0,0-1.1,1.47c-.24.44-.67.82-.64,1.37a1.74,1.74,0,0,0,.25.69,13.83,13.83,0,0,0,.76,1.22,1.24,1.24,0,0,0,.39.4l-.87-2a.72.72,0,0,1,.08-.73l2.51-3.6S151.09,31.88,151,31.83Z"/><rect class="cls-82" x="138.34" y="46.32" width="10.53" height="1.79" rx="0.89" transform="translate(264.44 -43.63) rotate(124.86)"/><path class="cls-80" d="M66,22.06c-.15-.2-.3-.38-.42-.53a.37.37,0,0,0-.48-.06A10.6,10.6,0,0,0,63.4,23l-.19.2a6.13,6.13,0,0,0-1.43-.92c0-.12.07-.23.11-.35a11.45,11.45,0,0,0,.53-2.23.36.36,0,0,0-.29-.39C61.36,19.2,60,19,59.26,19a.36.36,0,0,0-.38.3,10.45,10.45,0,0,0-.13,2.33c0,.14,0,.27,0,.41a6.24,6.24,0,0,0-1.6.33l-.05,0-.23-.45a11.83,11.83,0,0,0-1.2-1.95.36.36,0,0,0-.48-.07c-.65.44-1.73,1.26-2.31,1.75a.34.34,0,0,0-.06.47,10.15,10.15,0,0,0,1.56,1.75l.25.22h0a5.8,5.8,0,0,0-.88,1.44l-.46-.14a10.77,10.77,0,0,0-2.23-.53.36.36,0,0,0-.39.28c-.15.77-.33,2.12-.4,2.88a.36.36,0,0,0,.3.37,10.54,10.54,0,0,0,2.34.13h.35a6,6,0,0,0,.37,1.66l-.42.21a11.23,11.23,0,0,0-1.95,1.21.34.34,0,0,0-.07.47c.08.12.17.26.28.41.31.44.7,1,1.05,1.39.15.19.29.37.42.52a.35.35,0,0,0,.47.06,10.66,10.66,0,0,0,1.75-1.57,3.27,3.27,0,0,0,.24-.27,6.24,6.24,0,0,0,1.48.9l-.15.48a10.92,10.92,0,0,0-.53,2.23.36.36,0,0,0,.28.39c.78.15,2.12.33,2.88.4a.35.35,0,0,0,.37-.3,9.89,9.89,0,0,0,.13-2.33c0-.13,0-.26,0-.4a5.71,5.71,0,0,0,1.64-.4l.24.46a11.42,11.42,0,0,0,1.2,2,.36.36,0,0,0,.47.08c.66-.44,1.74-1.26,2.32-1.75a.37.37,0,0,0,.06-.48,10.53,10.53,0,0,0-1.56-1.74l-.28-.26a6.17,6.17,0,0,0,.93-1.43l.42.14a11.58,11.58,0,0,0,2.23.52.35.35,0,0,0,.39-.28c.15-.77.33-2.11.4-2.87a.35.35,0,0,0-.29-.38,10.57,10.57,0,0,0-2.34-.13h-.31A6.11,6.11,0,0,0,65,25.72l.39-.19a12.09,12.09,0,0,0,2-1.2.37.37,0,0,0,.08-.48l-.42-.6C66.66,22.86,66.34,22.43,66,22.06Zm-4.5,4.68a2.51,2.51,0,0,1,.26.69,2.57,2.57,0,0,1-2.58,3.07A2.52,2.52,0,0,1,57.84,30a2.76,2.76,0,0,1-.74-.82h0a2.63,2.63,0,0,1-.35-1.34,2.56,2.56,0,0,1,2.15-2.41,2.49,2.49,0,0,1,2,.51c.11.09.21.19.31.29A2.15,2.15,0,0,1,61.54,26.74Z"/><path class="cls-83" d="M60.55,21.07c.05-.34-.27-.39-.32-.05a20.33,20.33,0,0,0-.34,2.89c0,.1.1.12.13,0A19.48,19.48,0,0,0,60.55,21.07Z"/><path class="cls-83" d="M66.32,29.08c.33.05.38-.26.05-.31a17.92,17.92,0,0,0-2.89-.34c-.11,0-.13.09,0,.13A19.23,19.23,0,0,0,66.32,29.08Z"/><path class="cls-83" d="M58.16,34.64c0,.34.26.39.32,0a19,19,0,0,0,.33-2.89c0-.1-.09-.12-.12,0A18.25,18.25,0,0,0,58.16,34.64Z"/><path class="cls-83" d="M52.33,26.63c-.33-.05-.38.27,0,.32a19.23,19.23,0,0,0,2.9.33c.1,0,.12-.09,0-.12A18.37,18.37,0,0,0,52.33,26.63Z"/><path class="cls-83" d="M65,23.88c.28-.2.09-.46-.19-.26a19.07,19.07,0,0,0-2.28,1.81c-.07.07,0,.15.08.1A19.19,19.19,0,0,0,65,23.88Z"/><path class="cls-83" d="M63.51,33.78c.2.28.46.09.26-.19A19.07,19.07,0,0,0,62,31.31c-.07-.07-.15,0-.1.08A19.19,19.19,0,0,0,63.51,33.78Z"/><path class="cls-83" d="M53.69,31.83c-.28.2-.09.46.19.26a18.31,18.31,0,0,0,2.28-1.81c.07-.07,0-.15-.07-.1A18.58,18.58,0,0,0,53.69,31.83Z"/><path class="cls-83" d="M55.39,22.2c-.21-.27-.47-.09-.26.19a19.21,19.21,0,0,0,1.8,2.28c.08.08.16,0,.11-.07A18.58,18.58,0,0,0,55.39,22.2Z"/><path class="cls-81" d="M67,23.25l.42.6a.37.37,0,0,1-.08.48,12.09,12.09,0,0,1-2,1.2l-.39.19a6.11,6.11,0,0,1,.42,1.67h.31a10.57,10.57,0,0,1,2.34.13.35.35,0,0,1,.29.38c-.07.76-.25,2.1-.4,2.87a.35.35,0,0,1-.39.28,11.58,11.58,0,0,1-2.23-.52l-.42-.14a6.17,6.17,0,0,1-.93,1.43l.28.26a10.53,10.53,0,0,1,1.56,1.74.37.37,0,0,1-.06.48c-.58.49-1.66,1.31-2.32,1.75a.36.36,0,0,1-.47-.08,11.42,11.42,0,0,1-1.2-2l-.24-.46a5.71,5.71,0,0,1-1.64.4c0,.14,0,.27,0,.4a9.89,9.89,0,0,1-.13,2.33.35.35,0,0,1-.37.3c-.76-.07-2.1-.25-2.88-.4a.36.36,0,0,1-.28-.39A10.92,10.92,0,0,1,56.74,34l.15-.48a6.24,6.24,0,0,1-1.48-.9,3.27,3.27,0,0,1-.24.27,10.66,10.66,0,0,1-1.75,1.57.35.35,0,0,1-.47-.06c-.13-.15-.27-.33-.42-.52.21-.23.44-.43.66-.63l.63-.55,1-.86a.57.57,0,0,1,.26-.15.51.51,0,0,1,.4.22,4,4,0,0,0,1.08.65,5.24,5.24,0,0,0,7.68-5,5,5,0,0,0-.27-1.5,1.11,1.11,0,0,1-.14-.47.69.69,0,0,1,.23-.51,4.6,4.6,0,0,1,.69-.46,6.73,6.73,0,0,1,.78-.44,8.42,8.42,0,0,0,1.32-.88Z"/><path class="cls-81" d="M61.19,26.24c-.1-.1-.2-.2-.31-.29a2.49,2.49,0,0,0-2-.51,2.56,2.56,0,0,0-2.15,2.41,2.63,2.63,0,0,0,.35,1.34,2.15,2.15,0,0,1-.54-1.51,2.67,2.67,0,0,1,3.89-2.22A2.4,2.4,0,0,1,61.19,26.24Z"/><path class="cls-82" d="M66,22.06a3.65,3.65,0,0,1-.65.6c-.2.19-.41.37-.63.55s-.68.58-1,.86a.42.42,0,0,1-.25.14.45.45,0,0,1-.4-.21A4.26,4.26,0,0,0,62,23.35a5.24,5.24,0,0,0-7.67,4.95,4.46,4.46,0,0,0,.27,1.49,1.4,1.4,0,0,1,.14.47.71.71,0,0,1-.24.51,4.66,4.66,0,0,1-.69.47,7.44,7.44,0,0,1-.78.44,7.87,7.87,0,0,1-1.44.74l-.1,0c-.11-.15-.2-.29-.28-.41a.34.34,0,0,1,.07-.47,11.23,11.23,0,0,1,1.95-1.21l.42-.21a6,6,0,0,1-.37-1.66h-.35a10.54,10.54,0,0,1-2.34-.13.36.36,0,0,1-.3-.37c.07-.76.25-2.11.4-2.88a.36.36,0,0,1,.39-.28,10.77,10.77,0,0,1,2.23.53l.46.14a5.8,5.8,0,0,1,.88-1.44h0l-.25-.22a10.15,10.15,0,0,1-1.56-1.75.34.34,0,0,1,.06-.47c.58-.49,1.66-1.31,2.31-1.75a.36.36,0,0,1,.48.07,11.83,11.83,0,0,1,1.2,1.95l.23.45.05,0a6.24,6.24,0,0,1,1.6-.33c0-.14,0-.27,0-.41a10.45,10.45,0,0,1,.13-2.33.36.36,0,0,1,.38-.3c.76.07,2.1.25,2.87.4a.36.36,0,0,1,.29.39A11.45,11.45,0,0,1,61.89,22c0,.12-.08.23-.11.35a6.13,6.13,0,0,1,1.43.92l.19-.2a10.6,10.6,0,0,1,1.74-1.57.37.37,0,0,1,.48.06C65.74,21.68,65.89,21.86,66,22.06Z"/><path class="cls-82" d="M61.54,26.74A2.39,2.39,0,0,1,62,28.27a2.64,2.64,0,0,1-.92,1.88A2.46,2.46,0,0,1,57.84,30a2.52,2.52,0,0,0,1.38.48,2.57,2.57,0,0,0,2.58-3.07A2.51,2.51,0,0,0,61.54,26.74Z"/><g class="cls-84"><path class="cls-52" d="M82.53,51.58a4,4,0,1,1-1.85-5.3A4,4,0,0,1,82.53,51.58Zm-5.9-2.84a2.58,2.58,0,1,0,3.44-1.21A2.58,2.58,0,0,0,76.63,48.74Z"/><path class="cls-52" d="M79.18,61.77a4,4,0,1,1-1.85-5.3A4,4,0,0,1,79.18,61.77Zm-5.9-2.84a2.58,2.58,0,1,0,3.44-1.2A2.58,2.58,0,0,0,73.28,58.93Z"/><path class="cls-52" d="M70.92,55a4,4,0,1,1-1.85-5.3A4,4,0,0,1,70.92,55ZM65,52.15A2.58,2.58,0,1,0,68.46,51,2.58,2.58,0,0,0,65,52.15Z"/><rect class="cls-52" x="75.13" y="54.09" width="4.53" height="1.39" transform="matrix(0.31, -0.95, 0.95, 0.31, 1.61, 111.78)"/><rect class="cls-52" x="70.48" y="54.84" width="1.39" height="3.81" transform="translate(-18.49 72.46) rotate(-48.5)"/></g></g></g></g></svg>