<svg xmlns="http://www.w3.org/2000/svg" viewBox="0 0 87.26 85.21"><defs><style>.cls-1{fill:#fff;}</style></defs><g id="Capa_2" data-name="Capa 2"><g id="Capa_1-2" data-name="Capa 1"><path class="cls-1" d="M33.18,0,0,47.18l54.09,38L87.26,38ZM51.75,15.16,67.12,26l-6,8.52L45.76,23.69ZM33.93,2.63,49.29,13.44,43.3,22,27.94,11.15ZM18.16,57.72,2.79,46.91l6-8.52,15.37,10.8ZM36,70.25,20.62,59.44l6-8.52L42,61.73ZM53.5,82.57,38.13,71.76l6-8.52L59.49,74Zm7-10L10.14,37.11,27.38,12.6,77.78,48Zm18.1-25.74L63.28,36l6-8.52L84.64,38.29Z"/><path class="cls-1" d="M68.69,48.31,53.35,46.94l4.43-6.31a2.67,2.67,0,0,0-.65-3.72L39,24.15a2.68,2.68,0,0,0-3.73.65l-10.58,15a2.7,2.7,0,0,0,.65,3.73L43.48,56.33a2.68,2.68,0,0,0,3.72-.65l3.9-5.55,6.48,14ZM30,44.64,41.14,28.85l8.12,17.51Z"/></g></g></svg>