<svg xmlns="http://www.w3.org/2000/svg" xmlns:xlink="http://www.w3.org/1999/xlink" viewBox="0 0 104.67 104.67"><defs><style>.cls-1{fill:none;}.cls-2{isolation:isolate;}.cls-3{fill:#0b3e65;}.cls-4{clip-path:url(#clip-path);}.cls-5{fill:#efbfa5;}.cls-6{fill:#dadada;}.cls-6,.cls-9{mix-blend-mode:multiply;}.cls-7{fill:#fff;}.cls-8{fill:#be1622;}.cls-9{fill:#c6c6c6;}.cls-10{fill:#0d3953;}.cls-11{fill:#082a3f;}.cls-12{fill:#240800;}.cls-13{fill:#3a160e;}</style><clipPath id="clip-path"><path class="cls-1" d="M104.67,52.33A52.34,52.34,0,1,1,52.33,0,52.34,52.34,0,0,1,104.67,52.33Z"/></clipPath></defs><g class="cls-2"><g id="Capa_2" data-name="Capa 2"><g id="Capa_1-2" data-name="Capa 1"><path class="cls-3" d="M104.67,52.33A52.34,52.34,0,1,1,52.33,0,52.34,52.34,0,0,1,104.67,52.33Z"/><g class="cls-4"><rect class="cls-5" x="43.86" y="68.99" width="16.88" height="8.88"/><path class="cls-6" d="M48.58,75.8A16.08,16.08,0,0,0,56,73.71a13.44,13.44,0,0,0,4.08-3.51,9.44,9.44,0,0,0,.63-.9V69H43.86v6.64A37.31,37.31,0,0,0,48.58,75.8Z"/><path class="cls-5" d="M52.31,19.13h0c-10.79.3-19,4.74-19,20,0,9.06.85,11.74,3.49,22.08,1.83,7.15,11.55,10.93,15.26,11.17l.24,0,.25,0c3.7-.24,13.42-4,15.25-11.17,2.64-10.34,3.47-13,3.49-22.08C71.33,23.87,63.1,19.43,52.31,19.13Z"/><path class="cls-5" d="M69.23,45.44l-1.18,9c4.63,2,5.35-8.58,5.35-8.58C72.33,43.23,69.23,45.44,69.23,45.44Z"/><path class="cls-5" d="M30.63,45.88S31.36,56.5,36,54.46l-1.18-9S31.7,43.23,30.63,45.88Z"/><path class="cls-5" d="M60.89,77.87l22.8,5.94S91.48,85,93.46,92l3.4,12.68H7.8L11.2,92c2-7,9.77-8.18,9.77-8.18l22.74-5.94Z"/><path class="cls-7" d="M7.8,104.67,11.2,92c2-7,9.77-8.18,9.77-8.18l22.74-5.94H60.89l22.8,5.94S91.48,85,93.46,92l3.4,12.68"/><polygon class="cls-8" points="53.8 77.87 52.36 77.87 52.31 77.87 50.87 77.87 46.69 84.45 50.42 88.66 52.31 88.66 52.36 88.66 54.24 88.66 57.98 84.45 53.8 77.87"/><path class="cls-9" d="M54.41,87.86a11.74,11.74,0,0,1-2.84-10h-.7l-4.18,6.58,3.73,4.21h3.82l.46-.52Z"/><polygon class="cls-9" points="60.77 73.43 52.27 77.87 57.87 86.31 68.05 80.19 60.77 73.43"/><polygon class="cls-7" points="60.77 73.43 52.27 77.87 57.97 85.19 67.49 79.68 60.77 73.43"/><polygon class="cls-9" points="43.82 73.43 52.27 77.87 46.72 86.31 36.54 80.19 43.82 73.43"/><polygon class="cls-7" points="43.82 73.43 52.32 77.87 46.61 85.19 37.1 79.68 43.82 73.43"/><path class="cls-10" d="M37.21,79.58,21,83.81S13.19,85,11.2,92L7.8,104.67H96.86L93.46,92c-2-7-9.77-8.18-9.77-8.18l-17-4.88L52.27,104Z"/><polygon class="cls-8" points="50.36 88.66 48.33 97.64 52.27 104.04 55.95 97.63 54.18 88.66 50.36 88.66"/><polygon class="cls-11" points="37.21 79.58 29.52 81.58 33.85 83.27 31.18 86.31 46.69 104.67 52.72 104.67 37.21 79.58"/><polygon class="cls-11" points="66.69 78.93 75.16 81.36 70.82 83.27 73.49 86.31 57.98 104.67 51.95 104.67 66.69 78.93"/><path class="cls-12" d="M35.08,46.76l1,11.45c-5-13.47-2.11-31.09-2.11-31.09,1.59-6.51,3.07-7.61,5.65-9s1.59-1.11,5.64-2.09,0,0,5.48-1.35a13.7,13.7,0,0,1,10.05,1.72c3.75,2.2,6.08,3.31,6.08,3.31,8.23,6.39,4.47,24.07,4.47,24.07,0,4.66-3,15.59-3,15.59L69.4,44.58C69.4,24.1,59,25.91,59,25.91a40.67,40.67,0,0,1-12.26,0S34.15,22,35.08,46.5"/><path class="cls-12" d="M35.74,54.72A17.89,17.89,0,0,0,46.07,67.88,10.51,10.51,0,0,0,52,69V72.4s-4.33.08-10.54-4.27C41.41,68.13,35.08,64.32,35.74,54.72Z"/><path class="cls-12" d="M68.8,54.72A17.93,17.93,0,0,1,57.93,67.88,11.46,11.46,0,0,1,51.75,69V72.4s4.55.08,11.09-4.27C62.84,68.13,69.5,64.32,68.8,54.72Z"/><path class="cls-12" d="M35.08,55.28s4.12,9.2,9.32,8.28c0,0,4.62-2.93,7.55-1.28,0,0,4.43-1.65,7.93,1.31,0,0,5-.91,8.65-7.64,0,0-1,13-16.26,14.14C52.27,70.09,37.85,70.09,35.08,55.28Z"/><path class="cls-5" d="M52.37,66.21a9.65,9.65,0,0,0,4.86-1.71c-3.21-1.44-4.62-.79-4.93-.6-.31-.19-1.72-.84-4.93.6a9.65,9.65,0,0,0,4.86,1.71h.14Z"/><path class="cls-13" d="M36.14,26.62c0,.26-.1.4.14.54a15.33,15.33,0,0,1,.82-3.11c.64.44,2.13,2.94,2,.38.7-.06,1.46.71,2,.54.83-.27.89-1.56,1.47-2.25,1.3.94,1.48,1.69,2.77,1,.45-.26.29-1.14.91-1.31s1.09.65,1.66.72a7.73,7.73,0,0,0,2.54-.41c.66-.38,1.17-2.54,2.24-.88,1.5-1.1,1.75,1.35,3.12,1.48,0-.22,0-.47,0-.69.85.6,1-.24,1.62-.18,1.13.11,1.36.68,2.26,1a9.82,9.82,0,0,0,3.8.74l.06-.33c1.12,1,2,2.5,3.29,3.34.12-.11.11-.28.17-.34.74,1,1,2.25,2.18,2.87.08-2.41-3.23-5.32-4.39-6.82.09.17.15.37.25.56a17,17,0,0,0-4.45-3.11c.07.26.05.61.13.86-.49-1.14-4.15-2.15-5.29-2.5,0,.27-.08.62,0,.89-.07-.05-1-.66-1.08-.59.33-.22-1.42.68-.73.6,0,0-.44.47-.73.52s-1.29-.77-1.64-.87c0,.23-.06.47-.06.69-.26-.19-.93-.37-1.22-.69,0,.27-.09.61-.07.89a4.15,4.15,0,0,0-2-1.26,4.12,4.12,0,0,0,.18,1.23c-.38-.76-.94-1.09-1.49-.52-.74-.72-2.37-1.88-2.57-.19-.22,0-.32-.17-.53-.14-.69.91-1.58.25-2.4,0,.09,1,0,2.25-1.14,1.84-.07.21-.13.46-.21.7a2.8,2.8,0,0,0-.49-.3c-.63.62-1.72.59-2.58,1.08,0,1.45-.39,2.68-.4,4.2"/></g></g></g></g></svg>