<svg xmlns="http://www.w3.org/2000/svg" xmlns:xlink="http://www.w3.org/1999/xlink" viewBox="0 0 454.79 550.5"><defs><style>.cls-1{fill:#af352c;}.cls-2{isolation:isolate;}.cls-3{fill:url(#linear-gradient);}.cls-4{fill:#2d2b27;}.cls-5{fill:#1c1b19;}.cls-6{fill:#e0a053;}.cls-7{fill:#84592f;opacity:0.4;}.cls-24,.cls-7{mix-blend-mode:multiply;}.cls-8{fill:url(#linear-gradient-2);}.cls-9{fill:#263c7a;}.cls-10{fill:#09090b;}.cls-11{fill:#201d42;}.cls-12{fill:#f7b763;}.cls-13{fill:#161633;}.cls-14{fill:#fff;}.cls-15{fill:#ddd;}.cls-16{fill:url(#linear-gradient-3);}.cls-17,.cls-24{opacity:0.2;}.cls-18{fill:url(#linear-gradient-4);}.cls-19{fill:#e2895d;}.cls-20{fill:#d66b51;}.cls-21{clip-path:url(#clip-path);}.cls-22{fill:#ed6464;}.cls-23{fill:#c48641;}.cls-24{fill:#9b6e3d;}.cls-25{fill:url(#linear-gradient-5);}.cls-26{fill:url(#linear-gradient-6);}.cls-27{fill:url(#linear-gradient-7);}.cls-28{fill:url(#linear-gradient-8);}.cls-29{fill:#4596c8;}</style><linearGradient id="linear-gradient" x1="-2513.54" y1="291.71" x2="-2460.35" y2="291.71" gradientTransform="matrix(-1, 0, 0, 1, -2317.79, 0)" gradientUnits="userSpaceOnUse"><stop offset="0" stop-color="#201d42"/><stop offset="0.2" stop-color="#202044"/><stop offset="0.35" stop-color="#1f2a4a"/><stop offset="0.5" stop-color="#1e3b54"/><stop offset="0.63" stop-color="#1c5362"/><stop offset="0.76" stop-color="#1a7174"/><stop offset="0.88" stop-color="#17968a"/><stop offset="1" stop-color="#14c1a3"/><stop offset="1" stop-color="#fff"/></linearGradient><linearGradient id="linear-gradient-2" x1="-2563.36" y1="135.92" x2="-2521.71" y2="290.25" gradientTransform="matrix(-1, 0, 0, 1, -2317.79, 0)" gradientUnits="userSpaceOnUse"><stop offset="0" stop-color="#f7b763"/><stop offset="0.15" stop-color="#f4b764"/><stop offset="0.29" stop-color="#e9b867"/><stop offset="0.42" stop-color="#d7b86c"/><stop offset="0.54" stop-color="#bdba73"/><stop offset="0.66" stop-color="#9cbb7d"/><stop offset="0.78" stop-color="#74bd88"/><stop offset="0.9" stop-color="#45bf95"/><stop offset="1" stop-color="#14c1a3"/></linearGradient><linearGradient id="linear-gradient-3" x1="-2522.43" y1="119.38" x2="-2494.78" y2="58.01" gradientTransform="matrix(-1, 0, 0, 1, -2317.79, 0)" gradientUnits="userSpaceOnUse"><stop offset="0" stop-color="#263c7a"/><stop offset="0.14" stop-color="#25427c"/><stop offset="0.33" stop-color="#235481"/><stop offset="0.55" stop-color="#1f718a"/><stop offset="0.8" stop-color="#199997"/><stop offset="1" stop-color="#14c1a3"/></linearGradient><linearGradient id="linear-gradient-4" x1="-2645.43" y1="160.21" x2="-2623.13" y2="284.18" xlink:href="#linear-gradient-2"/><clipPath id="clip-path"><path class="cls-1" d="M249.37,190.37c.12-4.17-68.4-2.9-71.21,2.33s-.77,21.38,11.23,25.84S248.86,207.55,249.37,190.37Z"/></clipPath><linearGradient id="linear-gradient-5" x1="-2644.57" y1="516.26" x2="-2414.57" y2="296.82" xlink:href="#linear-gradient"/><linearGradient id="linear-gradient-6" x1="-2658.57" y1="323.62" x2="-2460.35" y2="323.62" xlink:href="#linear-gradient"/><linearGradient id="linear-gradient-7" x1="-2772.58" y1="415.31" x2="-2671.9" y2="415.31" gradientTransform="matrix(-1, 0, 0, 1, -2317.79, 0)" gradientUnits="userSpaceOnUse"><stop offset="0" stop-color="#201d42"/><stop offset="0.3" stop-color="#202144"/><stop offset="0.59" stop-color="#1f2d4b"/><stop offset="0.88" stop-color="#1e4057"/><stop offset="1" stop-color="#1d4b5d"/></linearGradient><linearGradient id="linear-gradient-8" x1="-2418.65" y1="454.55" x2="-2317.79" y2="454.55" gradientTransform="matrix(-1, 0, 0, 1, -2317.79, 0)" gradientUnits="userSpaceOnUse"><stop offset="0" stop-color="#1e3751"/><stop offset="0.14" stop-color="#1d4358"/><stop offset="0.4" stop-color="#1b636b"/><stop offset="0.75" stop-color="#17978a"/><stop offset="1" stop-color="#14c1a3"/><stop offset="1" stop-color="#fff"/></linearGradient></defs><g class="cls-2"><g id="Capa_2" data-name="Capa 2"><g id="Capa_1-2" data-name="Capa 1"><path class="cls-3" d="M195.75,253.21s-45.19-8.34-53.18-.41l20.7,67.53L191.34,334Z"/><path class="cls-4" d="M310.75,214.62s36.65-9,46.89-33.52,12.32-59.79,8.53-61.8-10.1,6.29-10.1,6.29a104.18,104.18,0,0,0-1.44-38.11c-4.7-20.25-24.18-38.18-27.85-38s-.9,13-.9,13-18.53-26.15-19.66-40.63-7.91,7.74-7.73,17.79c0,0-14.57-30.24-38.33-36.25s-64.82-5.36-80.88,12.29,14.54.57,30.08-1.41c0,0-40.39,10.71-60.47,56s14,107,14,107Z"/><path class="cls-5" d="M311.84,209.61s40.45-53.31,34.47-104.18S334.79,92.7,334.79,92.7s-21.57-33.35-23-40.48-5.61-.13-5.61,5.86-23.65-37.9-63.47-40.83C189.11,13.3,161.1,55.79,149.6,81.8S311.84,209.61,311.84,209.61Z"/><path class="cls-6" d="M177,300.3c-5.12,15.44-9,67.77,30.5,76.34s74-46.06,81.85-64c11.58-26.52,27.52-112.45,27.52-112.45l-.22,0-103.48-19S186.39,272.12,177,300.3Z"/><path class="cls-7" d="M173.88,311.61a102.55,102.55,0,0,0,20.55,3.48c97.33,7.6,113.36-108.38,115.18-121.27L208.25,178.27Z"/><path class="cls-8" d="M249.7,61.16c2.14.15,74.85,9,71.78,75.63-2.75,59.57-21.63,145-121.82,134.43-82.79-8.73-21.26-99.31-28.81-126.41S167.92,55.28,249.7,61.16Z"/><path class="cls-5" d="M186.39,61.7a85.23,85.23,0,0,0,42.15,13.85c25,1.33,43.37-12,65.19,5.32s-.53,72.55,9.31,97.4,33.53-37.27,27.14-69.73-18.89-49.22-41.77-57.47S209.69,46.79,186.39,61.7Z"/><path class="cls-9" d="M295,155.75s-4.54,6-10.21,7.12-18.91-2.74-25.59-4.54-27.15-5.1-29.32-6.7-5.57-8-5.57-8Z"/><path class="cls-10" d="M195.75,135.81l-7.57,11s-1.82,4.12-4.2,3.88-1.86-7.92.82-10.57S195.75,135.81,195.75,135.81Z"/><path class="cls-11" d="M294.74,112.73s5.27,2.47,5.48,7-1.62,32.66-5.24,36-11.32,5.39-23.57,2.19-37.51-7.21-40.06-8.35-7.06-6-7.06-6Z"/><path class="cls-9" d="M197.49,130.83s-7.37,13.66-7.52,18.69-2.75,6.08-4.73,6.79-8.61,3.64-11.87,7.19-6.11,5.3-8.94,1,25.73-34.74,25.73-34.74Z"/><path class="cls-11" d="M197.49,130.83s-8.21,14.69-9.92,18.48-8.85,4.31-11.75,6.34-10,9.47-11.39,8.84,1.33-9,1.33-9l-2.49-5.56S179,127.06,197.49,130.83Z"/><path class="cls-12" d="M186.39,147.47s5.38-13.49,10.13-15.12,25.35-2.46,21.1,32.18C217.62,164.53,195.69,166,186.39,147.47Z"/><path class="cls-11" d="M292.49,132.3c13.83,13.17,43.39,41.93,43.39,41.93s.19-.51.47-1.37c1.36-4,5.12-15.71,4.33-18.89-1.36-5.41-45.13-46.85-45.13-46.85L293,128.06Z"/><path class="cls-13" d="M292.49,132.3c13.83,13.17,43.39,41.93,43.39,41.93s.19-.51.47-1.37c-3.09-6.27-35.74-37.57-43.34-44.8Z"/><path class="cls-14" d="M128.91,110.81l.3,4.31L131,141s15.25,15.62,20.86,19.23,7.61,4.57,13.26-.57c4.36-4,14.48-7.49,18.86-8.89a2.09,2.09,0,0,0,1.37-2.57c-.86-3.07-1.12-8.87,8.35-10.22,10.78-1.54,23.45,4.91,27.52,7.19a6,6,0,0,0,2.95.76c21.61,0,40.73,5.88,55.74,4.44H280a12.18,12.18,0,0,0,2.82-.6c12.91-4.38,15.21-29.15,15.38-37.18.18-8.58-7.45-14.91-10.47-23.34S279,78.4,279,78.4l-20.09-9.17L167.5,98.47l-34.71,11.1Z"/><path class="cls-15" d="M129.21,115.12,131,141s15.25,15.62,20.86,19.23,7.61,4.57,13.26-.57c4.36-4,14.48-7.49,18.86-8.89a2.09,2.09,0,0,0,1.37-2.57c-.86-3.07-1.12-8.87,8.35-10.22,10.78-1.54,23.45,4.91,27.52,7.19a6,6,0,0,0,2.95.76c21.61,0,40.73,5.88,55.74,4.44H280a7.25,7.25,0,0,0,2.82-.6c1.57-.78,2.33-2.4,3-5.63,1-4.74-31.76-36.73-31.76-36.73l-8-4.21L167.5,98.47,141,96.88l-8.2,12.69Z"/><path class="cls-11" d="M260.38,61.91s13.56,8.69,17.31,14.42,4,9.16,3.28,18.63-4.32,25.17-12.64,29.47-11.55,6.42-33.26,5.6-55.21,1.36-68.15,6-25.8,8.22-31.19,7.46-5.59-4.68-5.59-4.68-2,2.39-5-6.16-2-21.76-2-21.76Z"/><path class="cls-16" d="M264.29,82.79c-1.18,6.34-2.39,19-6.76,25S246.69,120.55,224,121.19s-60.13,5.57-69.1,7.26-24.7,4.9-29.59-.06-1.87-19.88-1-24.4,4-21.29,17.39-27.07,56.45-11,56.45-11,54.21-8.24,62.22-4S265.26,77.59,264.29,82.79Z"/><g class="cls-17"><path class="cls-14" d="M129.93,138.77a.21.21,0,0,0,.19.23c7.07.54,19.25-3.14,30-6.39,6.69-2,12.48-3.77,15.8-4.11l2.75,2.51a.18.18,0,0,0,.16.05l14.34-1.44a.21.21,0,0,0,.13-.07l2.76-3.16c1.3-.07,3.85-.13,7.07-.21,13.08-.33,40.3-1,50.08-3.84,6.34-1.83,10.27-4.86,12.8-8.23a61.27,61.27,0,0,0,6.44,6.87.21.21,0,0,0,.12,0,.18.18,0,0,0,.17-.06.22.22,0,0,0,0-.3,60.06,60.06,0,0,1-6.46-6.91,26.14,26.14,0,0,0,3.92-9c1.43-5.67,4.83-25.29,3.36-30.2a34,34,0,0,1,4,1.91.21.21,0,0,0,.28-.08.21.21,0,0,0-.07-.29,34.68,34.68,0,0,0-4.44-2.06c-1.91-4-12.4-12-12.85-12.35a.21.21,0,1,0-.25.33c.1.08,10.19,7.82,12.52,11.81a6.59,6.59,0,0,0-3.52-.43,1.44,1.44,0,0,0-.92.74c-.83,1.62-1.45,6.53-2,10.88-1.13-.51-2.17-.91-2.25-.95a.21.21,0,1,0-.15.39s1.16.45,2.35,1c-.27,2.14-.5,4-.73,5.08-.26,1.3-.94,3.75-1.66,6.35-.12.41-.23.82-.35,1.23-.59-.29-1.2-.62-1.79-1a.21.21,0,0,0-.28.08.21.21,0,0,0,.07.28c.39.23,1.1.63,1.89,1-1,3.64-1.91,7.06-1.88,8.1s1.7,3.94,4.18,7.09c-2.49,3.35-6.36,6.35-12.65,8.17-9.72,2.82-36.91,3.5-50,3.82-3.3.09-5.89.15-7.17.22a.27.27,0,0,0-.14.07l-2.77,3.17-14.16,1.42-2.75-2.51a.18.18,0,0,0-.16,0c-3.34.32-9.19,2.09-16,4.14-10.72,3.23-22.87,6.9-29.85,6.36A.22.22,0,0,0,129.93,138.77ZM266.69,85.69a10,10,0,0,1,2.09,1.23s.18.22.21,1c.09,3-1.71,10.76-2.21,11.27-.24.25-1.44-.16-2.84-.83.12-.43.25-.87.36-1.3.73-2.6,1.41-5.06,1.68-6.38C266.2,89.59,266.43,87.79,266.69,85.69ZM266,113.42c-2.45-3.12-4-5.77-4-6.76a51.94,51.94,0,0,1,1.84-7.89,8.79,8.79,0,0,0,2.56.87.83.83,0,0,0,.68-.17c.71-.72,2.42-8.67,2.33-11.57a1.88,1.88,0,0,0-.34-1.29,11,11,0,0,0-2.31-1.35v0c.51-4.13,1.15-9.27,2-10.84a1,1,0,0,1,.67-.53,6.76,6.76,0,0,1,3.67.57c1.67,4-1.7,24.12-3.25,30.29A25.72,25.72,0,0,1,266,113.42Z"/><path class="cls-14" d="M275.46,107.18a1.57,1.57,0,0,0,.4.08.87.87,0,0,0,1-.58A60.16,60.16,0,0,0,279.28,90c0-1-1.67-1.82-2.63-1.84-.51,0-.83.23-.86.64a87.38,87.38,0,0,1-2.63,15.55C272.84,105.46,274.34,106.84,275.46,107.18Zm-1.9-2.74a88.29,88.29,0,0,0,2.64-15.63c0-.07,0-.26.44-.25.84,0,2.2.8,2.23,1.44a59.89,59.89,0,0,1-2.43,16.55c-.1.3-.39.38-.86.24C274.55,106.47,273.34,105.23,273.56,104.44Z"/></g><path class="cls-18" d="M306.4,155.7c4.8-8.25,21.14-28.19,38.26-17.11s9.56,46-6.55,60.13S275.4,208.93,306.4,155.7Z"/><path class="cls-19" d="M326.31,180.1c-2.89-4-9.31,4.78-13.33-4.89-1.41-3.39,2.4-11,5.24-15.26,3.35-5.07,14.68-19.45,24.59-11.56s4.51,32.81-6.46,41c-6.4,4.81-12.6,4.37-11.45,1.86C326.84,187.1,328.27,182.06,326.31,180.1Z"/><path class="cls-20" d="M332.38,165.12c3.32,8.87,0,17.13-6.26,23.18,1.19-3.36,1.7-6.69.19-8.2-2.89-4-9.31,4.78-13.33-4.89-1.41-3.39,2.4-11,5.24-15.26l.23-.34C324.19,157.5,330.78,161.92,332.38,165.12Z"/><path class="cls-1" d="M249.37,190.37c.12-4.17-68.4-2.9-71.21,2.33s-.77,21.38,11.23,25.84S248.86,207.55,249.37,190.37Z"/><g class="cls-21"><ellipse class="cls-22" cx="228" cy="209.23" rx="26.98" ry="17.25"/><path class="cls-14" d="M181.71,185.5s-2.08,11.31,0,14.06,30.15-1.18,67.66,1.26c0,0,6.9-8.74,6.9-13.32S181.71,185.5,181.71,185.5Z"/><path class="cls-14" d="M263.12,213.88s2.09,11.32,0,14.07-30.14-1.18-67.65,1.26c0,0-6.91-8.74-6.91-13.32S263.12,213.88,263.12,213.88Z"/></g><path class="cls-23" d="M217.62,164.53c-.88,2.22-14.12,7.72-17.62,7.73-17.54.06-16.63-23-13.61-24.79S217.62,164.53,217.62,164.53Z"/><path class="cls-24" d="M215.45,226.34s-13.9,4.07-33,0a12.18,12.18,0,0,0,12.08,8.83A28.54,28.54,0,0,0,215.45,226.34Z"/><path class="cls-25" d="M340.79,318s87.86,13.44,98.26,47.35c4.16,13.56-124.73,89.74-113.86,100.36s50.7-11.32,50.28,7.26c-.59,26.35-279.55,94-292.2,73.9C65.13,518,124.7,454,116.72,444.93s-73.08,12.13-82.22,3.21C11.2,425.39,145.92,311.61,145.92,311.61l51.57,71.26,91.9-70.21Z"/><path class="cls-26" d="M336.35,263.56s-48.63-12.72-57.05-4.73-20.48,73.1-20.48,73.1l-57.67,42.81-27.27-63.13s-11.86-47.76-18-56.3-13.33-2.51-13.33-2.51l3.35,58.81,49.83,84.89,77.78-55.16L340.79,318Z"/><path class="cls-27" d="M405.13,412.46c-26.7,19.18-54.08,35.41-50.74,40.05s36.12-4,62.83-23.22,40.41-47.09,37.08-51.74S431.84,393.29,405.13,412.46Z"/><path class="cls-28" d="M100.86,457.94s-12.09,22.62-40,34.08S-1.91,504.57.08,464.61,25.21,408.44,28,410.3c7.48,5-10.52,33.33-3.48,46.34C34.46,475.08,94.89,447.57,100.86,457.94Z"/><path class="cls-29" d="M115.69,534a21.43,21.43,0,0,1,2.86-.58,6.48,6.48,0,0,1,4.48.69,4.71,4.71,0,0,1,2.08,3.39,5.06,5.06,0,0,1-.89,4.1,6.66,6.66,0,0,1-4.47,2.07c-1,.12-1.81.18-2.52.2C116.71,540.56,116.19,537.27,115.69,534Zm2.76,8.69a8.4,8.4,0,0,0,1.4-.1c2.94-.38,4.28-2.15,3.83-4.85-.37-2.37-2-3.67-4.9-3.3a8.09,8.09,0,0,0-1.58.34Q117.82,538.72,118.45,542.67Z"/><path class="cls-29" d="M128,539a2.47,2.47,0,0,0,3,2.12,5.09,5.09,0,0,0,2.05-.67c.13.3.26.6.4.9a6.41,6.41,0,0,1-2.46.81,3.59,3.59,0,0,1-4.36-3.1c-.36-2.17.71-4.06,2.91-4.37a3.24,3.24,0,0,1,3.71,2.94,4.51,4.51,0,0,1,.06.61Zm3.89-1.51a2,2,0,0,0-2.27-1.85,2.18,2.18,0,0,0-1.76,2.42Z"/><path class="cls-29" d="M135.24,540.05a3.92,3.92,0,0,0,1.91.25c1-.15,1.39-.69,1.29-1.29s-.57-.9-1.65-1.1c-1.44-.26-2.21-.88-2.36-1.74-.2-1.16.63-2.25,2.25-2.49a4,4,0,0,1,1.93.17c-.06.33-.12.66-.17,1a3.13,3.13,0,0,0-1.62-.19c-.82.12-1.19.63-1.1,1.17s.61.79,1.65,1c1.4.28,2.19.8,2.38,1.87.22,1.26-.65,2.3-2.46,2.57a4.65,4.65,0,0,1-2.22-.18C135.12,540.75,135.18,540.4,135.24,540.05Z"/><path class="cls-29" d="M141.75,531a.77.77,0,0,1-.72.93.82.82,0,0,1-1-.67.81.81,0,0,1,.71-.95A.82.82,0,0,1,141.75,531Zm.13,9.42c-.43-2.39-.87-4.78-1.29-7.17l1.37-.21q.64,3.59,1.3,7.17Z"/><path class="cls-29" d="M150.71,531.66c.07.53.15,1.11.31,2,.26,1.39.52,2.77.79,4.16.31,1.64.16,2.7-.46,3.44a4.07,4.07,0,0,1-2.59,1.3,5.31,5.31,0,0,1-2.64-.19c.06-.35.11-.7.16-1.05a4.55,4.55,0,0,0,2.33.21,2.18,2.18,0,0,0,2-2.89l-.15-.8h0a2.7,2.7,0,0,1-2.18,1.58,3.73,3.73,0,0,1-1.17-7.32,2.64,2.64,0,0,1,2.58.86h0c0-.37-.1-.73-.14-1.09Zm-.88,3.06a2,2,0,0,0-.19-.58,2,2,0,0,0-2.17-1.07c-1.31.21-2.05,1.4-1.74,3.06a2.37,2.37,0,0,0,2.71,2.22,2,2,0,0,0,1.65-1.63,2.1,2.1,0,0,0,0-.71Z"/><path class="cls-29" d="M153.19,533.25c-.14-.74-.27-1.34-.43-1.92l1.21-.2.3,1.17h0a2.74,2.74,0,0,1,2.22-1.76c1-.17,2.76.14,3.24,2.59l.84,4.27-1.37.23-.81-4.12c-.22-1.15-.86-2-2.15-1.81a1.91,1.91,0,0,0-1.55,2.25c.28,1.44.56,2.87.83,4.3l-1.37.23C153.86,536.73,153.52,535,153.19,533.25Z"/><path class="cls-29" d="M162.93,533.54a2.45,2.45,0,0,0,3.07,2,5.07,5.07,0,0,0,2-.74l.42.89a6.48,6.48,0,0,1-2.41.89,3.56,3.56,0,0,1-4.42-3c-.42-2.16.57-4.09,2.75-4.47a3.22,3.22,0,0,1,3.77,2.81,4.91,4.91,0,0,1,.07.61Zm3.81-1.64a2,2,0,0,0-2.32-1.77,2.17,2.17,0,0,0-1.66,2.47Z"/><path class="cls-29" d="M174.87,524q.9,4.31,1.82,8.6c.14.64.31,1.35.46,1.83l-1.22.23-.33-1.22h0a2.75,2.75,0,0,1-2.25,1.88,3.46,3.46,0,0,1-4-3c-.51-2.37.74-4.11,2.55-4.44a2.62,2.62,0,0,1,2.47.67h0c-.29-1.41-.59-2.83-.88-4.25Zm0,6.48a2.14,2.14,0,0,0-.18-.54,2.07,2.07,0,0,0-2.27-1.13c-1.4.26-2,1.59-1.66,3.16s1.29,2.5,2.76,2.23a2,2,0,0,0,1.67-1.92,1.94,1.94,0,0,0-.06-.57C175,531.27,174.92,530.86,174.83,530.45Z"/><path class="cls-29" d="M182.55,533.36c-.07-.49-.2-1.21-.34-1.85-.62-2.86-1.25-5.73-1.86-8.6l1.33-.26c.32,1.49.64,3,1,4.47h0a2.78,2.78,0,0,1,2.24-1.81c1.83-.37,3.46.84,3.93,3,.57,2.54-.82,4.14-2.48,4.47a2.83,2.83,0,0,1-2.8-.84h0c.06.39.13.79.2,1.18Zm.78-3.12a2.27,2.27,0,0,0,.16.46,2.19,2.19,0,0,0,2.37,1.11c1.42-.28,2-1.56,1.65-3.19-.32-1.42-1.36-2.48-2.79-2.2a2.16,2.16,0,0,0-1.67,2.54C183.14,529.39,183.23,529.81,183.33,530.24Z"/><path class="cls-29" d="M190.15,524.42q1.28,1.94,2.57,3.87c.28.43.59,1,.81,1.35h0c0-.45.07-1,.13-1.58.17-1.49.35-3,.52-4.47l1.41-.29q-.42,2.73-.85,5.48c-.4,2.63-.77,4-1.52,5a3.69,3.69,0,0,1-1.47,1.18c-.2-.34-.39-.68-.59-1a3.8,3.8,0,0,0,1-.88,4,4,0,0,0,.81-1.67.83.83,0,0,0,0-.33,1,1,0,0,0-.17-.32q-2.11-3-4.22-6Z"/><path class="cls-29" d="M200.61,524.65c-.22-.9-.42-1.63-.61-2.3l1.2-.26c.12.41.23.81.35,1.21h0a2.92,2.92,0,0,1,2.29-1.94c1.77-.39,3.45.75,4,2.9.62,2.54-.69,4.16-2.43,4.54a2.71,2.71,0,0,1-2.54-.61h0c.31,1.28.61,2.56.92,3.84l-1.33.29Q201.52,528.49,200.61,524.65Zm1.77,1.6a3.16,3.16,0,0,0,.18.52,2.17,2.17,0,0,0,2.38,1.07c1.42-.32,2-1.61,1.58-3.23-.35-1.42-1.41-2.46-2.82-2.15a2.12,2.12,0,0,0-1.64,2,2.06,2.06,0,0,0,0,.55C202.19,525.45,202.28,525.85,202.38,526.25Z"/><path class="cls-29" d="M209.69,518.12a.78.78,0,0,1-.65,1,.82.82,0,0,1-1-.61.85.85,0,0,1,1.65-.37Zm.73,9.39q-.87-3.53-1.73-7.07l1.33-.3,1.74,7.07Z"/><path class="cls-29" d="M214.35,522.58h0c.12-.29.3-.65.45-1l1.54-2.93,1.59-.38c-.69,1.19-1.39,2.38-2.09,3.56q2.13,1.71,4.28,3.4l-1.63.38-3.38-2.79-.5.88c.22.89.44,1.77.67,2.66l-1.33.3q-1.29-5.18-2.56-10.36l1.31-.3Z"/><path class="cls-29" d="M220.53,515.6a.77.77,0,0,1-.64,1,.82.82,0,1,1,.64-1Zm.83,9.39-1.8-7.06,1.33-.31c.59,2.35,1.2,4.7,1.8,7Z"/><path class="cls-29" d="M224.38,522.87a3.66,3.66,0,0,0,1.89.09c1-.24,1.29-.81,1.14-1.39s-.62-.86-1.69-1c-1.43-.13-2.23-.68-2.45-1.53-.29-1.13.42-2.29,2-2.67a3.9,3.9,0,0,1,1.9,0l-.09,1a3,3,0,0,0-1.59,0c-.78.19-1.11.73-1,1.25s.65.74,1.69.86c1.39.16,2.2.61,2.47,1.66.33,1.23-.44,2.35-2.18,2.77a4.35,4.35,0,0,1-2.18,0C224.33,523.58,224.36,523.22,224.38,522.87Z"/><path class="cls-29" d="M236.47,519.23c.19.73.38,1.36.58,1.9l-1.18.3-.38-1.13h0a2.79,2.79,0,0,1-2.06,1.91c-1.14.29-2.68,0-3.34-2.45L229,515.66l1.32-.33c.34,1.3.68,2.59,1,3.89s1,2.14,2.22,1.83a1.9,1.9,0,0,0,1.43-1.6,1.77,1.77,0,0,0,0-.68c-.39-1.44-.78-2.87-1.16-4.31l1.32-.34Q235.77,516.69,236.47,519.23Z"/><path class="cls-29" d="M237.89,515.86c-.25-.9-.47-1.62-.68-2.28l1.17-.3.39,1.19h0a2.94,2.94,0,0,1,2.19-2c1.75-.45,3.45.64,4,2.77.71,2.51-.53,4.18-2.24,4.62a2.7,2.7,0,0,1-2.54-.52h0l1.05,3.81-1.31.34Q238.92,519.65,237.89,515.86Zm1.81,1.54a2.5,2.5,0,0,0,.21.5,2.11,2.11,0,0,0,2.38,1c1.4-.36,1.9-1.68,1.45-3.28-.39-1.41-1.48-2.41-2.87-2.05a2.13,2.13,0,0,0-1.55,2.1,2,2,0,0,0,.05.54Z"/><path class="cls-29" d="M247.52,514.89a2.4,2.4,0,0,0,3.16,1.77,4.92,4.92,0,0,0,1.9-.91c.16.29.32.57.49.85a6.14,6.14,0,0,1-2.28,1.09,3.49,3.49,0,0,1-4.56-2.58c-.59-2.11.23-4.11,2.32-4.68,2.34-.63,3.54,1.21,3.91,2.49a4.86,4.86,0,0,1,.12.61ZM251.1,513a1.93,1.93,0,0,0-2.4-1.58,2.18,2.18,0,0,0-1.42,2.61Z"/><path class="cls-29" d="M253.8,511.53c-.24-.82-.46-1.53-.69-2.17l1.14-.31c.15.45.3.91.44,1.36l.06,0a2.21,2.21,0,0,1,1.54-2.08,2,2,0,0,1,.38-.06c.12.4.24.8.35,1.2a2,2,0,0,0-.45.08,1.86,1.86,0,0,0-1.28,2.12,3.65,3.65,0,0,0,.11.6c.36,1.25.73,2.49,1.09,3.73l-1.3.35C254.73,514.73,254.26,513.13,253.8,511.53Z"/><path class="cls-29" d="M259.5,513.74a3.77,3.77,0,0,0,1.87,0c.95-.27,1.26-.86,1.08-1.43s-.64-.83-1.71-.91c-1.42-.08-2.23-.6-2.47-1.44a2.24,2.24,0,0,1,1.86-2.74,3.82,3.82,0,0,1,1.88-.07c0,.34,0,.68-.05,1a2.87,2.87,0,0,0-1.58,0c-.77.21-1.07.77-.91,1.29s.67.71,1.7.79c1.38.11,2.2.54,2.51,1.57.37,1.23-.35,2.37-2.06,2.85a4.36,4.36,0,0,1-2.16.09C259.47,514.44,259.48,514.09,259.5,513.74Z"/><path class="cls-29" d="M264.81,503.9l.6,2,1.85-.53c.1.32.19.64.29,1l-1.85.54c.37,1.25.75,2.5,1.13,3.75.26.86.66,1.28,1.38,1.07a3.21,3.21,0,0,0,.73-.3l.35.93a3.35,3.35,0,0,1-1.1.5,1.93,1.93,0,0,1-1.57-.12,2.71,2.71,0,0,1-1.05-1.67l-1.14-3.8-1.11.32c-.09-.32-.19-.64-.28-1l1.1-.31c-.16-.56-.33-1.12-.5-1.67Z"/><path class="cls-29" d="M274.79,510.73l-.37-.84h-.05a2.75,2.75,0,0,1-1.86,1.68,2.13,2.13,0,0,1-2.8-1.36c-.51-1.68.74-3,3.49-3.84l0-.15a1.53,1.53,0,0,0-2.11-1.13,3.77,3.77,0,0,0-1.69,1.06l-.55-.74a4.65,4.65,0,0,1,2.14-1.31c2.17-.64,3.15.65,3.58,2l.81,2.6a10.1,10.1,0,0,0,.63,1.63Zm-1.29-3.49c-1.42.39-2.95,1.11-2.53,2.46a1.19,1.19,0,0,0,1.59.84,1.82,1.82,0,0,0,1.37-1.67,1.47,1.47,0,0,0-.05-.42C273.75,508.05,273.63,507.65,273.5,507.24Z"/><path class="cls-29" d="M276.45,505c-.25-.81-.49-1.51-.73-2.14l1.13-.34c.15.45.31.9.46,1.34h.06a2.18,2.18,0,0,1,1.49-2.11,1,1,0,0,1,.37-.07c.13.39.25.79.38,1.19a1.63,1.63,0,0,0-.45.09,1.84,1.84,0,0,0-1.22,2.14,3.74,3.74,0,0,0,.12.6l1.17,3.7-1.28.39Z"/><path class="cls-29" d="M285,508.28q.39-5.82.74-11.64l1-.31q-.36,5.82-.74,11.64Z"/><path class="cls-29" d="M290.87,495.18c1.74-.55,3.49-1.12,5.24-1.69.11.35.23.7.34,1q-2,.66-4,1.29l1.05,3.2,3.7-1.2c.11.35.23.69.34,1l-3.7,1.19c.48,1.45,1,2.9,1.45,4.35l-1.27.41Q292.42,500,290.87,495.18Z"/><path class="cls-29" d="M299.1,497.9c-.27-.81-.52-1.5-.78-2.13l1.11-.36c.17.44.33.89.5,1.33l.06,0a2.17,2.17,0,0,1,1.42-2.14,1.44,1.44,0,0,1,.38-.08c.13.39.26.79.4,1.18a2.17,2.17,0,0,0-.45.1,1.87,1.87,0,0,0-1.16,2.17,3.93,3.93,0,0,0,.14.6c.41,1.23.83,2.45,1.24,3.67l-1.26.42Q299.89,500.27,299.1,497.9Z"/><path class="cls-29" d="M304.91,497.67a2.37,2.37,0,0,0,3.22,1.58,4.85,4.85,0,0,0,1.81-1l.53.82a6,6,0,0,1-2.18,1.22,3.44,3.44,0,0,1-4.64-2.32c-.7-2.07,0-4.12,2-4.8,2.27-.76,3.55,1,4,2.26a5.1,5.1,0,0,1,.16.6Zm3.41-2.14a1.9,1.9,0,0,0-2.45-1.44,2.17,2.17,0,0,0-1.25,2.68Z"/><path class="cls-29" d="M312.13,495.23a2.36,2.36,0,0,0,3.23,1.55,4.87,4.87,0,0,0,1.8-1l.53.82a6,6,0,0,1-2.16,1.23,3.43,3.43,0,0,1-4.65-2.28c-.72-2.07-.05-4.12,2-4.82,2.26-.78,3.55,1,4,2.23a5.1,5.1,0,0,1,.16.6Zm3.39-2.17a1.89,1.89,0,0,0-2.46-1.42,2.18,2.18,0,0,0-1.23,2.69Z"/><path class="cls-29" d="M318.12,491.56c-.32-.87-.6-1.57-.86-2.21l1.13-.4.48,1.16h0a2.86,2.86,0,0,1,2-2.2c1.67-.59,3.42.36,4.18,2.43.9,2.45-.17,4.21-1.81,4.79a2.58,2.58,0,0,1-2.53-.32h0l1.35,3.72-1.26.44Q319.44,495.27,318.12,491.56ZM320,493a4.47,4.47,0,0,0,.24.49,2.08,2.08,0,0,0,2.42.78c1.33-.47,1.71-1.82,1.15-3.38-.5-1.37-1.65-2.28-3-1.81a2.1,2.1,0,0,0-1.34,2.21,2,2,0,0,0,.09.54Z"/><path class="cls-29" d="M326.11,484a.78.78,0,0,1-.51,1.05.79.79,0,0,1-1-.49.8.8,0,0,1,.5-1.06A.78.78,0,0,1,326.11,484Zm1.81,9.24-2.5-6.82,1.25-.45q1.24,3.4,2.51,6.81Z"/><path class="cls-29" d="M331.14,487.92h0c.08-.31.22-.69.33-1,.38-1,.76-2.06,1.13-3.09l1.5-.56c-.53,1.26-1.06,2.52-1.6,3.78l4.53,2.88-1.52.57-3.6-2.39c-.12.32-.25.63-.38.94l1,2.56-1.24.45c-1.24-3.32-2.47-6.66-3.7-10l1.23-.45C329.58,483.71,330.35,485.81,331.14,487.92Z"/></g></g></g></svg>