<svg xmlns="http://www.w3.org/2000/svg" xmlns:xlink="http://www.w3.org/1999/xlink" viewBox="0 0 172.92 75.5"><defs><style>.cls-1{fill:none;stroke:#fff;stroke-miterlimit:10;stroke-width:0.2px;}.cls-2{isolation:isolate;}.cls-3{fill:url(#radial-gradient);}.cls-4{clip-path:url(#clip-path);}.cls-5{opacity:0.2;}.cls-6{fill:#fff;}.cls-7{opacity:0.3;mix-blend-mode:overlay;}</style><radialGradient id="radial-gradient" cx="-2076.62" cy="707.84" r="60.36" gradientTransform="matrix(-0.96, 0.29, 0.29, 0.96, -2126.59, -41.13)" gradientUnits="userSpaceOnUse"><stop offset="0" stop-color="#14c1a3"/><stop offset="0.14" stop-color="#15baa1"/><stop offset="0.33" stop-color="#17a79b"/><stop offset="0.57" stop-color="#1c8892"/><stop offset="0.82" stop-color="#215d84"/><stop offset="1" stop-color="#263c7a"/></radialGradient><clipPath id="clip-path" transform="translate(0 4.85)"><path class="cls-1" d="M54,45.63a35.21,35.21,0,1,0,23.38-44A35.21,35.21,0,0,0,54,45.63Z"/></clipPath></defs><g class="cls-2"><g id="Capa_2" data-name="Capa 2"><g id="Capa_1-2" data-name="Capa 1"><path class="cls-3" d="M54,45.63a35.21,35.21,0,1,0,23.38-44A35.21,35.21,0,0,0,54,45.63Z" transform="translate(0 4.85)"/><g class="cls-4"><g class="cls-5"><path class="cls-6" d="M58.76,7a2.25,2.25,0,0,0,1,1.55,5.77,5.77,0,0,0,1.54.79,15.24,15.24,0,0,0,3.21.8,36.24,36.24,0,0,0,6.49.27A82.54,82.54,0,0,0,83.76,8.72,92.93,92.93,0,0,0,96.16,5.5a50.92,50.92,0,0,0,5.94-2.41,18.07,18.07,0,0,0,2.77-1.65A7.39,7.39,0,0,0,106.06.32a2.12,2.12,0,0,0,.52-1.58l-.27,0c.09,1-.85,1.79-1.64,2.39a18.52,18.52,0,0,1-2.74,1.57A42.84,42.84,0,0,1,96,5,92.11,92.11,0,0,1,83.58,7.68,105.08,105.08,0,0,1,71,8.72c-2.1,0-4.2,0-6.27-.13a20.39,20.39,0,0,1-3-.4c-.94-.24-2-.54-2.32-1.32Z" transform="translate(0 4.85)"/><path class="cls-6" d="M86.89,19.92a77.75,77.75,0,0,1-23.28-.69c-7.19-1.51-11.25-4.18-12.06-7.92h0c-.81-3.74,1.94-7.13,8.17-10.08,5.61-2.66,13.4-4.62,21.92-5.53a77.42,77.42,0,0,1,23.28.69C112.11-2.1,116.17.56,117,4.3c1.22,5.65-5.94,9.85-14.7,12.53A85.47,85.47,0,0,1,86.89,19.92Zm-26-15.59c-6.17,2.92-7.37,5.69-7.14,6.75h0c.23,1.05,2.54,3.45,9.67,5a76,76,0,0,0,22.77.66c18.63-2,29.38-8.53,28.59-12.15-.23-1.06-2.54-3.45-9.67-4.95a76,76,0,0,0-22.77-.67,82.77,82.77,0,0,0-15,3A47.17,47.17,0,0,0,60.89,4.33Z" transform="translate(0 4.85)"/><path class="cls-6" d="M108.14,63.81a39.44,39.44,0,0,0,7-2.81c6.48-3.44,9.14-7.81,7.91-13l-2.36.12c.35,1.46-.69,5.14-7.11,8.54-5.69,3-13.77,4.92-22.77,5.35-20,1-34.53-5.73-35.72-10.75l-2.37.12c2.93,12.32,25,15.78,39.16,15.1A66.74,66.74,0,0,0,108.14,63.81Z" transform="translate(0 4.85)"/><path class="cls-6" d="M27.16,18.18a18.17,18.17,0,0,0,3.55,7.15,31.4,31.4,0,0,0,4.41,4.44,51.36,51.36,0,0,0,8.81,5.74A93.41,93.41,0,0,0,61.12,42.3a130.52,130.52,0,0,0,16.72,3.52,146.17,146.17,0,0,0,16.29,1.24c5.36.06,10.74.16,16-.2a46.12,46.12,0,0,0,15.2-3.67,43.32,43.32,0,0,0,13.57-9.11,29.51,29.51,0,0,0,5.62-7.65,22.66,22.66,0,0,0,1.94-5.62,19,19,0,0,0,.3-3.76A15.61,15.61,0,0,0,146,12.7l-.81,0a7.25,7.25,0,0,1-1.12,4.74,10.79,10.79,0,0,1-2.71,2.76,27.65,27.65,0,0,1-6.52,3.53A106,106,0,0,1,120.62,28c-4.86,1.15-9.72,2.34-14.57,3.67A93.15,93.15,0,0,1,91.2,34.76a131.69,131.69,0,0,1-15.46.85,111.1,111.1,0,0,1-15.87-.94,74.1,74.1,0,0,1-16.33-3.74,39.46,39.46,0,0,1-8.34-4.1,22.69,22.69,0,0,1-4.08-3.33A13.4,13.4,0,0,1,28,18.14Z" transform="translate(0 4.85)"/></g></g><path class="cls-1" d="M54,45.63a35.21,35.21,0,1,0,23.38-44A35.21,35.21,0,0,0,54,45.63Z" transform="translate(0 4.85)"/><g class="cls-7"><path class="cls-6" d="M5.29,35.52c15.39-6.84,50.05-14.19,50.05-14.19a34.29,34.29,0,0,0-1.55,4.33S7.88,36.32,8.32,42.19C8.48,44.34,21,45.64,24.41,46a205.42,205.42,0,0,0,21.1.75A416.92,416.92,0,0,0,88,44.12C109,42,130.3,39,150.53,32.81a81.06,81.06,0,0,0,9.61-3.57c.92-.43,5.07-2.4,5.29-3.93,1-6.67-46.39-6-46.39-6s-1-1.8-1.7-2.95c17.23-1.05,37.16-2,50.95,3,5.22,1.91,6,7.88,2.08,11.74-4.57,4.53-12.45,7-18.39,9.06-20.08,7-41.85,10.52-63,12.61C68.29,54.85,47.42,55.94,26.64,54a100.35,100.35,0,0,1-14.46-2.43C-.83,48.43-3.65,39.49,5.29,35.52Z" transform="translate(0 4.85)"/></g><g class="cls-7"><path class="cls-1" d="M5.29,35.52c15.39-6.84,50.05-14.19,50.05-14.19a34.29,34.29,0,0,0-1.55,4.33S7.88,36.32,8.32,42.19C8.48,44.34,21,45.64,24.41,46a205.42,205.42,0,0,0,21.1.75A416.92,416.92,0,0,0,88,44.12C109,42,130.3,39,150.53,32.81a81.06,81.06,0,0,0,9.61-3.57c.92-.43,5.07-2.4,5.29-3.93,1-6.67-46.39-6-46.39-6s-1-1.8-1.7-2.95c17.23-1.05,37.16-2,50.95,3,5.22,1.91,6,7.88,2.08,11.74-4.57,4.53-12.45,7-18.39,9.06-20.08,7-41.85,10.52-63,12.61C68.29,54.85,47.42,55.94,26.64,54a100.35,100.35,0,0,1-14.46-2.43C-.83,48.43-3.65,39.49,5.29,35.52Z" transform="translate(0 4.85)"/></g></g></g></g></svg>