<svg xmlns="http://www.w3.org/2000/svg" xmlns:xlink="http://www.w3.org/1999/xlink" viewBox="0 0 1153.47 968.87"><defs><style>.cls-1,.cls-12,.cls-2,.cls-4,.cls-50{fill:none;}.cls-12,.cls-2,.cls-4,.cls-50{stroke:#fff;stroke-miterlimit:10;}.cls-2{stroke-width:0.25px;}.cls-3{fill:#af352c;}.cls-4{stroke-width:0.2px;}.cls-5{isolation:isolate;}.cls-6{clip-path:url(#clip-path);}.cls-7{fill:#1799dd;}.cls-8{opacity:0.5;}.cls-9{fill:url(#linear-gradient);}.cls-10{fill:url(#linear-gradient-2);}.cls-11{fill:url(#linear-gradient-3);}.cls-12{stroke-width:0.23px;}.cls-13{fill:url(#radial-gradient);}.cls-14{clip-path:url(#clip-path-2);}.cls-15,.cls-37{opacity:0.2;}.cls-16{fill:#fff;}.cls-17{opacity:0.3;mix-blend-mode:overlay;}.cls-18{fill:url(#linear-gradient-4);}.cls-19{fill:#2d2b27;}.cls-20{fill:#1c1b19;}.cls-21{fill:#e0a053;}.cls-22{fill:#84592f;opacity:0.4;}.cls-22,.cls-37{mix-blend-mode:multiply;}.cls-23{fill:url(#linear-gradient-5);}.cls-24{fill:#263c7a;}.cls-25{fill:#09090b;}.cls-26{fill:#201d42;}.cls-27{fill:#f7b763;}.cls-28{fill:#161633;}.cls-29{fill:#ddd;}.cls-30{fill:url(#linear-gradient-6);}.cls-31{fill:url(#linear-gradient-7);}.cls-32{fill:#e2895d;}.cls-33{fill:#d66b51;}.cls-34{clip-path:url(#clip-path-3);}.cls-35{fill:#ed6464;}.cls-36{fill:#c48641;}.cls-37{fill:#9b6e3d;}.cls-38{fill:url(#linear-gradient-8);}.cls-39{fill:url(#linear-gradient-9);}.cls-40{fill:url(#linear-gradient-10);}.cls-41{fill:url(#linear-gradient-11);}.cls-42{fill:url(#radial-gradient-2);}.cls-43{clip-path:url(#clip-path-4);}.cls-44{fill:url(#linear-gradient-12);}.cls-45{fill:url(#linear-gradient-13);}.cls-46{fill:url(#linear-gradient-14);}.cls-47{fill:url(#linear-gradient-15);}.cls-48{fill:url(#linear-gradient-16);}.cls-49{fill:url(#linear-gradient-17);}.cls-50{stroke-width:0.17px;}.cls-51{fill:#ecece3;}.cls-52{font-size:8px;fill:#4596c8;font-family:MyriadPro-Regular, Myriad Pro;}.cls-53{letter-spacing:0em;}.cls-54{letter-spacing:-0.01em;}.cls-55{letter-spacing:-0.01em;}.cls-56{letter-spacing:0.02em;}.cls-57{letter-spacing:0em;}.cls-58{letter-spacing:-0.03em;}.cls-59{letter-spacing:-0.01em;}.cls-60{letter-spacing:0em;}</style><clipPath id="clip-path" transform="translate(40.04)"><path class="cls-1" d="M1068.51,0l-50.73,37.5c-18.4,8.92-36.46,22.27-41.71,41.38-5.06,18.43,2.93,37.94.21,56.8-3.84,26.65-28.91,47-55.83,54.61-36.7,10.41-89.33,10.11-127.81,9.12-46.68-1.21-93.2-6.21-140-3.18-53,3.44-107.62,18.11-146,53.52-26.38,24.31-43.62,57.71-47.09,92.54-3.11,31.08,4.4,62.41,1.09,93.47-7.11,66.63-64,121.07-128.57,146.86-84.95,33.93-175.81,21.43-264,36.94-21.93,3.86-45,10.3-59.43,26.65C-38,699,116.92,794,157.16,816.51c77.13,43.18,165.12,70.83,253.94,81C569.52,915.7,735,874.45,864.89,784.39c31.92-22.13,62.41-47.85,81.1-81.09,27.42-48.79,25.84-109.33,4.51-160.51-31-74.37-64.57-162.78-45.23-244.44,6.63-28,23.14-55.17,49.41-69,21-11.11,47.63-13.68,63.74-30.78,13-13.82,15.73-33.88,15.07-52.43-.46-12.78-2.22-25.63-2.2-38.37a98.21,98.21,0,0,1,1.4-17.19c5.3-29.61,32.14-62.65,54.65-82.64,3.24-2.88,6.26-5.44,9-7.9"/></clipPath><linearGradient id="linear-gradient" x1="-2057.5" y1="362.62" x2="-2012.89" y2="311.49" gradientTransform="matrix(-1, 0, 0, 1, -1463.73, 0)" gradientUnits="userSpaceOnUse"><stop offset="0" stop-color="#263c7a"/><stop offset="0.46" stop-color="#1d7b8e"/><stop offset="1" stop-color="#14c1a3"/></linearGradient><linearGradient id="linear-gradient-2" x1="-2127.4" y1="352.26" x2="-2065.8" y2="352.26" gradientTransform="matrix(-1, 0, 0, 1, -1463.73, 0)" gradientUnits="userSpaceOnUse"><stop offset="0" stop-color="#263c7a"/><stop offset="0.27" stop-color="#25437c"/><stop offset="0.66" stop-color="#225882"/><stop offset="1" stop-color="#1f6e89"/></linearGradient><linearGradient id="linear-gradient-3" x1="-2114" y1="389.71" x2="-1986.86" y2="389.71" gradientTransform="matrix(-1, 0, 0, 1, -1463.73, 0)" gradientUnits="userSpaceOnUse"><stop offset="0" stop-color="#201d42"/><stop offset="0.3" stop-color="#202144"/><stop offset="0.59" stop-color="#1f2d4b"/><stop offset="0.88" stop-color="#1e4057"/><stop offset="1" stop-color="#1d4b5d"/></linearGradient><radialGradient id="radial-gradient" cx="-2250.87" cy="-130.03" r="74.21" gradientTransform="matrix(-0.89, -0.46, -0.46, 0.89, -1270.41, -573.01)" gradientUnits="userSpaceOnUse"><stop offset="0" stop-color="#14c1a3"/><stop offset="0.14" stop-color="#15baa1"/><stop offset="0.33" stop-color="#17a79b"/><stop offset="0.57" stop-color="#1c8892"/><stop offset="0.82" stop-color="#215d84"/><stop offset="1" stop-color="#263c7a"/></radialGradient><clipPath id="clip-path-2" transform="translate(40.04)"><circle class="cls-2" cx="798.77" cy="376.32" r="43.3" transform="translate(-74.21 243.84) rotate(-16.6)"/></clipPath><linearGradient id="linear-gradient-4" x1="-2106.53" y1="628.85" x2="-2053.34" y2="628.85" gradientTransform="matrix(-1, 0, 0, 1, -1503.77, 0)" gradientUnits="userSpaceOnUse"><stop offset="0" stop-color="#201d42"/><stop offset="0.2" stop-color="#202044"/><stop offset="0.35" stop-color="#1f2a4a"/><stop offset="0.5" stop-color="#1e3b54"/><stop offset="0.63" stop-color="#1c5362"/><stop offset="0.76" stop-color="#1a7174"/><stop offset="0.88" stop-color="#17968a"/><stop offset="1" stop-color="#14c1a3"/><stop offset="1" stop-color="#fff"/></linearGradient><linearGradient id="linear-gradient-5" x1="-2156.35" y1="473.05" x2="-2114.7" y2="627.39" gradientTransform="matrix(-1, 0, 0, 1, -1503.77, 0)" gradientUnits="userSpaceOnUse"><stop offset="0" stop-color="#f7b763"/><stop offset="0.15" stop-color="#f4b764"/><stop offset="0.29" stop-color="#e9b867"/><stop offset="0.42" stop-color="#d7b86c"/><stop offset="0.54" stop-color="#bdba73"/><stop offset="0.66" stop-color="#9cbb7d"/><stop offset="0.78" stop-color="#74bd88"/><stop offset="0.9" stop-color="#45bf95"/><stop offset="1" stop-color="#14c1a3"/></linearGradient><linearGradient id="linear-gradient-6" x1="-2115.42" y1="456.52" x2="-2087.78" y2="395.15" gradientTransform="matrix(-1, 0, 0, 1, -1503.77, 0)" gradientUnits="userSpaceOnUse"><stop offset="0" stop-color="#263c7a"/><stop offset="0.14" stop-color="#25427c"/><stop offset="0.33" stop-color="#235481"/><stop offset="0.55" stop-color="#1f718a"/><stop offset="0.8" stop-color="#199997"/><stop offset="1" stop-color="#14c1a3"/></linearGradient><linearGradient id="linear-gradient-7" x1="-2238.42" y1="497.34" x2="-2216.12" y2="621.32" xlink:href="#linear-gradient-5"/><clipPath id="clip-path-3" transform="translate(40.04)"><path class="cls-3" d="M656.38,527.51c.12-4.17-68.41-2.9-71.21,2.33s-.77,21.37,11.23,25.84S655.87,544.69,656.38,527.51Z"/></clipPath><linearGradient id="linear-gradient-8" x1="-2237.56" y1="853.4" x2="-2007.57" y2="633.96" xlink:href="#linear-gradient-4"/><linearGradient id="linear-gradient-9" x1="-2251.56" y1="660.75" x2="-2053.34" y2="660.75" xlink:href="#linear-gradient-4"/><linearGradient id="linear-gradient-10" x1="-2365.57" y1="752.45" x2="-2264.89" y2="752.45" gradientTransform="matrix(-1, 0, 0, 1, -1503.77, 0)" xlink:href="#linear-gradient-3"/><linearGradient id="linear-gradient-11" x1="-2011.64" y1="791.68" x2="-1910.78" y2="791.68" gradientTransform="matrix(-1, 0, 0, 1, -1503.77, 0)" gradientUnits="userSpaceOnUse"><stop offset="0" stop-color="#1e3751"/><stop offset="0.14" stop-color="#1d4358"/><stop offset="0.4" stop-color="#1b636b"/><stop offset="0.75" stop-color="#17978a"/><stop offset="1" stop-color="#14c1a3"/><stop offset="1" stop-color="#fff"/></linearGradient><radialGradient id="radial-gradient-2" cx="-1742.2" cy="1464.95" r="60.36" gradientTransform="matrix(-0.96, 0.29, 0.29, 0.96, -1693.74, -105.83)" xlink:href="#radial-gradient"/><clipPath id="clip-path-4" transform="translate(40.04)"><path class="cls-4" d="M388.4,802.74a35.22,35.22,0,1,0,23.38-44A35.22,35.22,0,0,0,388.4,802.74Z"/></clipPath><linearGradient id="linear-gradient-12" x1="-2333" y1="626.29" x2="-2288.38" y2="575.15" xlink:href="#linear-gradient"/><linearGradient id="linear-gradient-13" x1="-2402.89" y1="615.92" x2="-2341.29" y2="615.92" xlink:href="#linear-gradient-2"/><linearGradient id="linear-gradient-14" x1="-2389.5" y1="653.37" x2="-2262.35" y2="653.37" xlink:href="#linear-gradient-3"/><linearGradient id="linear-gradient-15" x1="-1924.94" y1="605.79" x2="-1891.13" y2="567.04" xlink:href="#linear-gradient"/><linearGradient id="linear-gradient-16" x1="-1977.91" y1="597.94" x2="-1931.23" y2="597.94" xlink:href="#linear-gradient-2"/><linearGradient id="linear-gradient-17" x1="-1967.76" y1="626.32" x2="-1871.4" y2="626.32" xlink:href="#linear-gradient-3"/></defs><g class="cls-5"><g id="Capa_2" data-name="Capa 2"><g id="Capa_1-2" data-name="Capa 1"><g class="cls-6"><rect class="cls-7" width="1153.47" height="968.87"/></g><g class="cls-8"><polygon class="cls-9" points="523.13 374.4 602.08 365.2 616.13 295.49 541.4 306.42 523.13 374.4"/><polygon class="cls-10" points="650.28 409.02 602.08 365.2 616.13 295.49 663.67 342.4 650.28 409.02"/><polygon class="cls-11" points="523.13 374.4 581.27 414.22 650.28 409.02 602.08 365.2 523.13 374.4"/><polygon class="cls-12" points="523.13 374.4 602.08 365.2 616.13 295.49 541.4 306.42 523.13 374.4"/><polygon class="cls-12" points="650.28 409.02 602.08 365.2 616.13 295.49 663.67 342.4 650.28 409.02"/><polygon class="cls-12" points="523.13 374.4 581.27 414.22 650.28 409.02 602.08 365.2 523.13 374.4"/></g><circle class="cls-13" cx="798.77" cy="376.32" r="43.3" transform="translate(-34.17 243.84) rotate(-16.6)"/><g class="cls-14"><g class="cls-15"><path class="cls-16" d="M783.71,328.87a2.78,2.78,0,0,0,.21,2.27,7,7,0,0,0,1.21,1.75,19.41,19.41,0,0,0,3,2.72,44.59,44.59,0,0,0,6.89,4,102.75,102.75,0,0,0,14.81,5.54,113.67,113.67,0,0,0,15.32,3.63,62.58,62.58,0,0,0,7.84.82,21.92,21.92,0,0,0,4-.21,8.26,8.26,0,0,0,1.93-.53,2.58,2.58,0,0,0,1.49-1.41l-.32-.11c-.48,1.13-2,1.45-3.16,1.64a21.83,21.83,0,0,1-3.88.13,52,52,0,0,1-7.74-1,113.67,113.67,0,0,1-15-4.19A128.53,128.53,0,0,1,796,337.8q-3.48-1.73-6.74-3.74a26.18,26.18,0,0,1-3.07-2.19c-.88-.81-1.87-1.75-1.76-2.77Z" transform="translate(40.04)"/><path class="cls-16" d="M806.81,359.14c-9.79-3.92-18.63-8.94-24.88-14.16-6.95-5.78-9.83-11-8.55-15.54h0c1.27-4.53,6.21-6.63,14.68-6.25,7.63.35,17.22,2.7,27,6.62s18.62,8.94,24.88,14.16c6.95,5.78,9.82,11,8.55,15.54-1.93,6.83-12.13,7.28-23.19,5.14A105.16,105.16,0,0,1,806.81,359.14Zm-19.27-31.91c-8.38-.38-11.28,1.94-11.64,3.22h0c-.36,1.28.78,5.22,7.66,10.94,6.09,5.08,14.74,10,24.35,13.84,21.38,8.56,36.82,7.66,38.05,3.27.36-1.28-.77-5.22-7.65-10.94-6.1-5.08-14.75-10-24.35-13.84a100.2,100.2,0,0,0-18-5.44A60.29,60.29,0,0,0,787.54,327.23Z" transform="translate(40.04)"/><path class="cls-16" d="M804.61,419.06a48.62,48.62,0,0,0,9.18.95c9,0,14.43-3.22,16.08-9.56l-2.63-1.24c-.47,1.79-3.71,5.19-12.64,5.19-7.92,0-17.79-2.59-27.81-7.31-22.3-10.48-34.21-26.1-32.62-32.24l-2.63-1.24c-3.91,15.07,18.09,31.55,33.83,39A83.14,83.14,0,0,0,804.61,419.06Z" transform="translate(40.04)"/><path class="cls-16" d="M742.93,322.85a22.38,22.38,0,0,0-.25,9.82A38.27,38.27,0,0,0,744.9,340a62.47,62.47,0,0,0,6.27,11.3,115.23,115.23,0,0,0,14.76,17.28,162.71,162.71,0,0,0,16.13,13.46,179.84,179.84,0,0,0,17,10.72c5.78,3.15,11.57,6.37,17.53,9a56.53,56.53,0,0,0,18.63,4.78,53.39,53.39,0,0,0,20-2.08,36.26,36.26,0,0,0,10.51-5.08,27.68,27.68,0,0,0,5.34-5,24,24,0,0,0,2.5-3.91,19.27,19.27,0,0,0,1.67-5.16l-.89-.43a9,9,0,0,1-4,4.5,13.24,13.24,0,0,1-4.53,1.45,34.32,34.32,0,0,1-9.11.08,131,131,0,0,1-17.94-3.6c-5.94-1.55-11.91-3.06-17.94-4.41A114.45,114.45,0,0,1,803,377.74a159.06,159.06,0,0,1-17.29-8A137.56,137.56,0,0,1,769,359.6a91,91,0,0,1-15.59-13.47,48.38,48.38,0,0,1-6.69-9.25,27.55,27.55,0,0,1-2.52-6,16.43,16.43,0,0,1-.34-7.64Z" transform="translate(40.04)"/></g></g><circle class="cls-2" cx="798.77" cy="376.32" r="43.3" transform="translate(-34.17 243.84) rotate(-16.6)"/><g class="cls-17"><path class="cls-16" d="M709.19,329.09c20.66,1.44,62.53,13.42,62.53,13.42a43,43,0,0,0-4.17,3.8s-56-14.86-58.91-8.22c-1.06,2.43,11.74,11,15.31,13.37a250.81,250.81,0,0,0,22.47,13,514.85,514.85,0,0,0,47.65,21.64c24.06,9.75,48.93,18.75,74.44,23.73a100,100,0,0,0,12.5,1.66c1.24.07,6.88.31,8-1.22,4.91-6.68-46.94-33.22-46.94-33.22s0-2.5-.14-4.19c19.31,8.79,41.52,19.21,53.59,32.62,4.58,5.09,1.94,12-4.5,13.95-7.57,2.3-17.53.42-25.19-.74C840,414.73,814.32,406,790.14,396.06c-23.65-9.69-46.95-20.53-68.42-34.57a124.06,124.06,0,0,1-14.29-11C695.11,339.6,697.19,328.26,709.19,329.09Z" transform="translate(40.04)"/></g><g class="cls-17"><path class="cls-2" d="M709.19,329.09c20.66,1.44,62.53,13.42,62.53,13.42a43,43,0,0,0-4.17,3.8s-56-14.86-58.91-8.22c-1.06,2.43,11.74,11,15.31,13.37a250.81,250.81,0,0,0,22.47,13,514.85,514.85,0,0,0,47.65,21.64c24.06,9.75,48.93,18.75,74.44,23.73a100,100,0,0,0,12.5,1.66c1.24.07,6.88.31,8-1.22,4.91-6.68-46.94-33.22-46.94-33.22s0-2.5-.14-4.19c19.31,8.79,41.52,19.21,53.59,32.62,4.58,5.09,1.94,12-4.5,13.95-7.57,2.3-17.53.42-25.19-.74C840,414.73,814.32,406,790.14,396.06c-23.65-9.69-46.95-20.53-68.42-34.57a124.06,124.06,0,0,1-14.29-11C695.11,339.6,697.19,328.26,709.19,329.09Z" transform="translate(40.04)"/></g><path class="cls-18" d="M602.76,590.34s-45.19-8.33-53.18-.4l20.69,67.52,28.08,13.72Z" transform="translate(40.04)"/><path class="cls-19" d="M717.76,551.75s36.65-9,46.89-33.51,12.32-59.79,8.53-61.8-10.11,6.28-10.11,6.28a104,104,0,0,0-1.43-38.1c-4.71-20.26-24.18-38.18-27.85-38s-.9,13-.9,13S714.36,373.49,713.23,359s-7.91,7.75-7.73,17.8c0,0-14.57-30.25-38.33-36.25s-64.82-5.36-80.88,12.29,14.54.57,30.07-1.41c0,0-40.38,10.7-60.46,56s14,107,14,107Z" transform="translate(40.04)"/><path class="cls-20" d="M718.84,546.75s40.46-53.32,34.48-104.19-11.53-12.72-11.53-12.72-21.56-33.36-22.95-40.48-5.6-.14-5.6,5.86-23.65-37.9-63.47-40.83c-53.65-3.95-81.66,38.54-93.16,64.54S718.84,546.75,718.84,546.75Z" transform="translate(40.04)"/><path class="cls-21" d="M584.05,637.43c-5.12,15.45-9,67.77,30.5,76.35s74-46.06,81.85-64c11.58-26.52,27.52-112.45,27.52-112.45l-.22,0-103.49-19S593.4,609.25,584.05,637.43Z" transform="translate(40.04)"/><path class="cls-22" d="M580.89,648.75a102.62,102.62,0,0,0,20.54,3.47c97.34,7.6,113.36-108.38,115.18-121.26L615.25,515.41Z" transform="translate(40.04)"/><path class="cls-23" d="M656.71,398.29c2.14.16,74.85,9,71.78,75.63-2.75,59.58-21.63,145-121.82,134.44-82.79-8.74-21.26-99.32-28.81-126.42S574.93,392.42,656.71,398.29Z" transform="translate(40.04)"/><path class="cls-20" d="M593.4,398.84a85.28,85.28,0,0,0,42.15,13.84c25,1.33,43.37-12,65.19,5.33s-.53,72.55,9.31,97.4,33.53-37.27,27.14-69.73-18.89-49.23-41.77-57.48S616.7,383.92,593.4,398.84Z" transform="translate(40.04)"/><path class="cls-24" d="M702,492.88s-4.55,6-10.21,7.12-18.91-2.73-25.59-4.54-27.16-5.09-29.32-6.69-5.57-8-5.57-8Z" transform="translate(40.04)"/><path class="cls-25" d="M602.76,473l-7.57,11s-1.83,4.11-4.2,3.88-1.86-7.92.82-10.58S602.76,473,602.76,473Z" transform="translate(40.04)"/><path class="cls-26" d="M701.75,449.86s5.26,2.48,5.48,7-1.62,32.66-5.24,36-11.32,5.4-23.57,2.2-37.51-7.21-40.06-8.35-7.06-6-7.06-6Z" transform="translate(40.04)"/><path class="cls-24" d="M604.5,468s-7.37,13.66-7.52,18.68-2.75,6.08-4.73,6.8-8.61,3.63-11.87,7.19-6.11,5.3-8.94,1,25.72-34.74,25.72-34.74Z" transform="translate(40.04)"/><path class="cls-26" d="M604.5,468s-8.21,14.69-9.92,18.47-8.86,4.32-11.75,6.35-10,9.47-11.39,8.84,1.33-9,1.33-9l-2.5-5.55S586,464.2,604.5,468Z" transform="translate(40.04)"/><path class="cls-27" d="M593.4,484.61s5.38-13.49,10.13-15.13,25.35-2.46,21.1,32.19C624.63,501.67,602.7,503.09,593.4,484.61Z" transform="translate(40.04)"/><path class="cls-26" d="M699.5,469.44c13.83,13.17,43.39,41.93,43.39,41.93s.18-.51.47-1.37c1.35-4,5.12-15.71,4.32-18.89-1.35-5.41-45.12-46.85-45.12-46.85L700,465.2Z" transform="translate(40.04)"/><path class="cls-28" d="M699.5,469.44c13.83,13.17,43.39,41.93,43.39,41.93s.18-.51.47-1.37c-3.09-6.27-35.74-37.57-43.34-44.8Z" transform="translate(40.04)"/><path class="cls-16" d="M535.92,448l.29,4.31L538,478.09s15.25,15.62,20.87,19.24,7.61,4.56,13.26-.57c4.36-4,14.47-7.49,18.86-8.89a2.09,2.09,0,0,0,1.37-2.57c-.86-3.07-1.13-8.87,8.35-10.23,10.78-1.54,23.45,4.91,27.52,7.2a6.06,6.06,0,0,0,2.95.76c21.6,0,40.73,5.88,55.74,4.44H687a12.18,12.18,0,0,0,2.82-.61c12.91-4.38,15.21-29.14,15.38-37.17.18-8.59-7.45-14.91-10.47-23.34s-8.78-10.8-8.78-10.8l-20.09-9.18L574.51,435.6,539.8,446.71Z" transform="translate(40.04)"/><path class="cls-29" d="M536.21,452.26,538,478.09s15.25,15.62,20.87,19.24,7.61,4.56,13.26-.57c4.36-4,14.47-7.49,18.86-8.89a2.09,2.09,0,0,0,1.37-2.57c-.86-3.07-1.13-8.87,8.35-10.23,10.78-1.54,23.45,4.91,27.52,7.2a6.06,6.06,0,0,0,2.95.76c21.6,0,40.73,5.88,55.74,4.44H687a7.23,7.23,0,0,0,2.82-.61c1.57-.77,2.33-2.39,3-5.62,1-4.74-31.76-36.74-31.76-36.74l-8-4.2-78.56-4.69L548,434l-8.2,12.69Z" transform="translate(40.04)"/><path class="cls-26" d="M667.39,399s13.56,8.7,17.31,14.43,4,9.15,3.28,18.62-4.32,25.18-12.65,29.47-11.54,6.43-33.25,5.61-55.21,1.36-68.15,6-25.8,8.21-31.19,7.46-5.59-4.68-5.59-4.68-2.06,2.39-5-6.17-2-21.75-2-21.75Z" transform="translate(40.04)"/><path class="cls-30" d="M671.3,419.92c-1.18,6.35-2.39,19-6.76,25S653.69,457.69,631,458.32s-60.12,5.58-69.09,7.27-24.7,4.9-29.59-.07-1.87-19.87-1-24.4,4-21.29,17.39-27.06,56.46-11,56.46-11,54.21-8.24,62.22-4.06S672.27,414.73,671.3,419.92Z" transform="translate(40.04)"/><g class="cls-15"><path class="cls-16" d="M536.94,475.91a.2.2,0,0,0,.19.22c7.06.55,19.25-3.13,30-6.38,6.69-2,12.48-3.77,15.8-4.11l2.75,2.51a.18.18,0,0,0,.16.05l14.33-1.44a.23.23,0,0,0,.14-.07l2.76-3.16c1.3-.07,3.85-.13,7.06-.21,13.09-.33,40.31-1,50.09-3.84,6.33-1.84,10.27-4.86,12.8-8.23a62.15,62.15,0,0,0,6.44,6.87.18.18,0,0,0,.12.05.19.19,0,0,0,.17-.07.21.21,0,0,0,0-.29,60.06,60.06,0,0,1-6.46-6.91,26.1,26.1,0,0,0,3.92-9c1.43-5.66,4.83-25.28,3.36-30.2a35.94,35.94,0,0,1,4,1.91.21.21,0,0,0,.21-.36,35.61,35.61,0,0,0-4.44-2.07c-1.91-4-12.4-12-12.85-12.34a.21.21,0,0,0-.29,0,.2.2,0,0,0,0,.29c.1.08,10.19,7.81,12.52,11.81a6.59,6.59,0,0,0-3.52-.43,1.49,1.49,0,0,0-.93.74c-.82,1.62-1.44,6.52-2,10.88-1.13-.52-2.17-.92-2.25-.95a.21.21,0,0,0-.15.39s1.15.44,2.34,1c-.26,2.15-.5,4-.72,5.09-.26,1.3-1,3.75-1.67,6.35-.11.41-.22.82-.34,1.23-.59-.3-1.2-.63-1.79-1a.21.21,0,0,0-.28.07.21.21,0,0,0,.07.29c.39.23,1.1.63,1.89,1-1,3.63-1.91,7-1.88,8.1s1.7,3.94,4.18,7.09c-2.49,3.35-6.37,6.35-12.65,8.17-9.72,2.82-36.91,3.5-50,3.82-3.29.08-5.89.15-7.16.22a.19.19,0,0,0-.14.07l-2.77,3.16-14.16,1.43-2.75-2.51a.18.18,0,0,0-.16,0c-3.34.32-9.2,2.09-16,4.13-10.72,3.24-22.87,6.91-29.86,6.37A.21.21,0,0,0,536.94,475.91ZM673.7,422.83a10.27,10.27,0,0,1,2.09,1.23s.18.22.2,1c.1,3-1.7,10.76-2.21,11.27-.24.25-1.43-.16-2.83-.83l.36-1.3c.73-2.61,1.41-5.06,1.68-6.38C673.21,426.72,673.44,424.93,673.7,422.83ZM673,450.55c-2.44-3.11-4-5.76-4-6.75s.88-4.43,1.84-7.9a8.46,8.46,0,0,0,2.56.88.87.87,0,0,0,.68-.17c.71-.72,2.42-8.68,2.33-11.58a1.85,1.85,0,0,0-.34-1.28,10.69,10.69,0,0,0-2.32-1.35v0c.51-4.13,1.15-9.28,2-10.85a1.05,1.05,0,0,1,.68-.52,6.85,6.85,0,0,1,3.67.56c1.67,4-1.7,24.13-3.26,30.29A25.36,25.36,0,0,1,673,450.55Z" transform="translate(40.04)"/><path class="cls-16" d="M682.47,444.32a1.57,1.57,0,0,0,.4.08.86.86,0,0,0,1-.58,60.26,60.26,0,0,0,2.45-16.7c0-1-1.68-1.82-2.63-1.84-.51,0-.84.23-.87.64a86.66,86.66,0,0,1-2.62,15.55C679.85,442.6,681.35,444,682.47,444.32Zm-1.9-2.74A88.29,88.29,0,0,0,683.21,426c0-.07,0-.26.44-.26.84,0,2.2.81,2.23,1.44a59.79,59.79,0,0,1-2.43,16.55c-.1.31-.39.39-.86.25C681.56,443.61,680.35,442.37,680.57,441.58Z" transform="translate(40.04)"/></g><path class="cls-31" d="M713.4,492.83c4.8-8.24,21.15-28.18,38.27-17.11s9.56,46-6.55,60.14S682.41,546.06,713.4,492.83Z" transform="translate(40.04)"/><path class="cls-32" d="M733.32,517.24c-2.89-4-9.31,4.78-13.33-4.89-1.41-3.4,2.4-11,5.24-15.26,3.35-5.07,14.68-19.46,24.59-11.56s4.51,32.81-6.46,41c-6.4,4.81-12.61,4.36-11.45,1.86C733.85,524.24,735.28,519.2,733.32,517.24Z" transform="translate(40.04)"/><path class="cls-33" d="M739.39,502.26c3.32,8.86,0,17.13-6.26,23.17,1.19-3.36,1.7-6.68.19-8.19-2.89-4-9.31,4.78-13.33-4.89-1.41-3.4,2.4-11,5.24-15.26l.23-.35C731.2,494.64,737.79,499.06,739.39,502.26Z" transform="translate(40.04)"/><path class="cls-3" d="M656.38,527.51c.12-4.17-68.41-2.9-71.21,2.33s-.77,21.37,11.23,25.84S655.87,544.69,656.38,527.51Z" transform="translate(40.04)"/><g class="cls-34"><ellipse class="cls-35" cx="675.05" cy="546.37" rx="26.98" ry="17.25"/><path class="cls-16" d="M588.72,522.63s-2.09,11.32,0,14.07,30.15-1.19,67.66,1.26c0,0,6.9-8.74,6.9-13.32S588.72,522.63,588.72,522.63Z" transform="translate(40.04)"/><path class="cls-16" d="M670.13,551s2.09,11.32,0,14.07-30.14-1.19-67.66,1.26c0,0-6.9-8.74-6.9-13.32S670.13,551,670.13,551Z" transform="translate(40.04)"/></g><path class="cls-36" d="M624.63,501.67c-.88,2.22-14.12,7.71-17.62,7.73-17.54.06-16.63-23-13.61-24.79S624.63,501.67,624.63,501.67Z" transform="translate(40.04)"/><path class="cls-37" d="M622.46,563.47s-13.9,4.08-33,0a12.17,12.17,0,0,0,12.08,8.84A28.52,28.52,0,0,0,622.46,563.47Z" transform="translate(40.04)"/><path class="cls-38" d="M747.79,655.09s87.87,13.45,98.27,47.36C850.22,716,721.32,792.19,732.2,802.8s50.7-11.31,50.28,7.27c-.59,26.35-279.55,94-292.2,73.9-18.14-28.82,41.43-92.81,33.44-101.9s-73.07,12.13-82.21,3.2c-23.3-22.74,111.42-136.52,111.42-136.52L604.5,720l91.9-70.21Z" transform="translate(40.04)"/><path class="cls-39" d="M743.36,600.7S694.72,588,686.3,596s-20.47,73.1-20.47,73.1l-57.68,42.81-27.26-63.13s-11.86-47.76-18-56.3-13.33-2.51-13.33-2.51l3.35,58.81,49.83,84.88,77.78-55.15,67.25-23.39Z" transform="translate(40.04)"/><path class="cls-40" d="M812.14,749.6c-26.7,19.18-54.08,35.41-50.74,40s36.12-4,62.82-23.22,40.42-47.1,37.08-51.74S838.85,730.42,812.14,749.6Z" transform="translate(40.04)"/><path class="cls-41" d="M507.87,795.08s-12.09,22.61-40,34.07-62.78,12.55-60.79-27.4,25.13-56.17,27.9-54.31c7.48,5-10.52,33.33-3.49,46.34C441.47,812.21,501.89,784.7,507.87,795.08Z" transform="translate(40.04)"/><path class="cls-42" d="M388.4,802.74a35.22,35.22,0,1,0,23.38-44A35.22,35.22,0,0,0,388.4,802.74Z" transform="translate(40.04)"/><g class="cls-43"><g class="cls-15"><path class="cls-16" d="M393.18,764.08a2.27,2.27,0,0,0,1,1.55,5.71,5.71,0,0,0,1.53.79,15.32,15.32,0,0,0,3.22.8,36.09,36.09,0,0,0,6.48.27,82.38,82.38,0,0,0,12.75-1.66,94.07,94.07,0,0,0,12.4-3.22,51.07,51.07,0,0,0,5.95-2.41,18,18,0,0,0,2.76-1.65,7,7,0,0,0,1.19-1.12,2.09,2.09,0,0,0,.53-1.58l-.27,0c.09,1-.85,1.79-1.65,2.39a18,18,0,0,1-2.74,1.57,42.36,42.36,0,0,1-5.94,2.23A92.11,92.11,0,0,1,418,764.79a104.91,104.91,0,0,1-12.62,1q-3.15.07-6.26-.13a20,20,0,0,1-3-.4c-.95-.24-2-.54-2.33-1.32Z" transform="translate(40.04)"/><path class="cls-16" d="M421.31,777a77.68,77.68,0,0,1-23.27-.69c-7.2-1.51-11.26-4.18-12.07-7.92h0c-.81-3.74,1.94-7.13,8.17-10.08,5.62-2.66,13.4-4.62,21.93-5.54a77.65,77.65,0,0,1,23.27.7c7.2,1.51,11.26,4.17,12.07,7.91,1.22,5.65-6,9.85-14.71,12.53A85.3,85.3,0,0,1,421.31,777Zm-26-15.59c-6.17,2.92-7.37,5.69-7.14,6.75h0c.23,1,2.55,3.45,9.67,4.95a76,76,0,0,0,22.77.66c18.63-2,29.38-8.53,28.6-12.15-.23-1.06-2.55-3.46-9.67-4.95a76,76,0,0,0-22.77-.67,82,82,0,0,0-15,3A46.38,46.38,0,0,0,395.31,761.44Z" transform="translate(40.04)"/><path class="cls-16" d="M442.56,820.92a39.55,39.55,0,0,0,7-2.81c6.48-3.44,9.14-7.81,7.91-13l-2.37.12c.35,1.46-.69,5.14-7.1,8.54-5.69,3-13.78,4.92-22.77,5.35-20,1-34.53-5.73-35.73-10.75l-2.36.12c2.93,12.32,25,15.78,39.15,15.1A67.14,67.14,0,0,0,442.56,820.92Z" transform="translate(40.04)"/><path class="cls-16" d="M361.58,775.29a18.18,18.18,0,0,0,3.56,7.15,31.36,31.36,0,0,0,4.4,4.44,51.75,51.75,0,0,0,8.81,5.74,94.13,94.13,0,0,0,17.19,6.79,130.52,130.52,0,0,0,16.72,3.52,148.78,148.78,0,0,0,16.29,1.24c5.36.06,10.75.16,16-.2a46.24,46.24,0,0,0,15.21-3.67,43.17,43.17,0,0,0,13.56-9.11,29.54,29.54,0,0,0,5.63-7.65,22.67,22.67,0,0,0,1.93-5.62,19.07,19.07,0,0,0,.31-3.76,15.27,15.27,0,0,0-.77-4.35l-.8,0a7.3,7.3,0,0,1-1.13,4.74,10.92,10.92,0,0,1-2.7,2.76,27.65,27.65,0,0,1-6.52,3.53A106.56,106.56,0,0,1,455,785.13c-4.86,1.15-9.72,2.34-14.56,3.67a93.6,93.6,0,0,1-14.85,3.07,132,132,0,0,1-15.47.85,112.35,112.35,0,0,1-15.86-.94A74.75,74.75,0,0,1,378,788a39.39,39.39,0,0,1-8.33-4.1,22.4,22.4,0,0,1-4.09-3.33,13.34,13.34,0,0,1-3.15-5.36Z" transform="translate(40.04)"/></g></g><path class="cls-4" d="M388.4,802.74a35.22,35.22,0,1,0,23.38-44A35.22,35.22,0,0,0,388.4,802.74Z" transform="translate(40.04)"/><g class="cls-17"><path class="cls-16" d="M339.71,792.63c15.39-6.84,50.05-14.19,50.05-14.19a35.93,35.93,0,0,0-1.55,4.33s-45.91,10.66-45.47,16.53c.17,2.15,12.64,3.45,16.1,3.78a205.13,205.13,0,0,0,21.09.75,419.63,419.63,0,0,0,42.48-2.6c21-2.16,42.32-5.17,62.55-11.31a79.85,79.85,0,0,0,9.6-3.58c.93-.42,5.07-2.39,5.3-3.92,1-6.67-46.4-6-46.4-6s-.94-1.8-1.69-2.95c17.22-1.05,37.15-2,50.94,3,5.23,1.91,6,7.88,2.08,11.74-4.57,4.53-12.44,7-18.39,9.06-20.07,7-41.85,10.52-63,12.61-20.69,2.05-41.56,3.14-62.34,1.22a100,100,0,0,1-14.45-2.43C333.6,805.54,330.77,796.6,339.71,792.63Z" transform="translate(40.04)"/></g><g class="cls-17"><path class="cls-4" d="M339.71,792.63c15.39-6.84,50.05-14.19,50.05-14.19a35.93,35.93,0,0,0-1.55,4.33s-45.91,10.66-45.47,16.53c.17,2.15,12.64,3.45,16.1,3.78a205.13,205.13,0,0,0,21.09.75,419.63,419.63,0,0,0,42.48-2.6c21-2.16,42.32-5.17,62.55-11.31a79.85,79.85,0,0,0,9.6-3.58c.93-.42,5.07-2.39,5.3-3.92,1-6.67-46.4-6-46.4-6s-.94-1.8-1.69-2.95c17.22-1.05,37.15-2,50.94,3,5.23,1.91,6,7.88,2.08,11.74-4.57,4.53-12.44,7-18.39,9.06-20.07,7-41.85,10.52-63,12.61-20.69,2.05-41.56,3.14-62.34,1.22a100,100,0,0,1-14.45-2.43C333.6,805.54,330.77,796.6,339.71,792.63Z" transform="translate(40.04)"/></g><polygon class="cls-44" points="798.62 638.06 877.57 628.87 891.62 559.15 816.9 570.09 798.62 638.06"/><polygon class="cls-45" points="925.77 672.69 877.57 628.87 891.62 559.15 939.17 606.07 925.77 672.69"/><polygon class="cls-46" points="798.62 638.06 856.76 677.88 925.77 672.69 877.57 628.87 798.62 638.06"/><polygon class="cls-12" points="798.62 638.06 877.57 628.87 891.62 559.15 816.9 570.09 798.62 638.06"/><polygon class="cls-12" points="925.77 672.69 877.57 628.87 891.62 559.15 939.17 606.07 925.77 672.69"/><polygon class="cls-12" points="798.62 638.06 856.76 677.88 925.77 672.69 877.57 628.87 798.62 638.06"/><g class="cls-8"><polygon class="cls-47" points="407.67 614.72 467.5 607.75 478.15 554.91 421.52 563.2 407.67 614.72"/><polygon class="cls-48" points="504.04 640.96 467.5 607.75 478.15 554.91 514.19 590.47 504.04 640.96"/><polygon class="cls-49" points="407.67 614.72 451.74 644.9 504.04 640.96 467.5 607.75 407.67 614.72"/><polygon class="cls-50" points="407.67 614.72 467.5 607.75 478.15 554.91 421.52 563.2 407.67 614.72"/><polygon class="cls-50" points="504.04 640.96 467.5 607.75 478.15 554.91 514.19 590.47 504.04 640.96"/><polygon class="cls-50" points="407.67 614.72 451.74 644.9 504.04 640.96 467.5 607.75 407.67 614.72"/></g><path class="cls-16" d="M354.87,686.79A10.21,10.21,0,0,0,344,680.88c-3.44.5-6.88,1-10.28,1.79-6.09,1.32-12.19,2.65-18.21,4.25a218.52,218.52,0,0,0-26.07,8.85c-4.66,1.89-7.39,6-7,10.86.19,2.2.52,4.4.91,6.58a91.6,91.6,0,0,0,7.13,22.85c2.14,4.61,6.16,7.1,11,6.5,3.2-.4,6.38-1,9.56-1.52a13.67,13.67,0,0,0,3.24-.84,8.67,8.67,0,0,0,3.87-4c1.42-2.45,2.71-5,4.12-7.45a28.79,28.79,0,0,1,2.19-3.28,3.27,3.27,0,0,1,3.92-1.12,13.22,13.22,0,0,1,1.95.78c1.61.86,3.21,1.74,4.77,2.68a30.62,30.62,0,0,0,6.88,3.52,7,7,0,0,0,4.78-.1c3.14-1.28,6.32-2.47,9.47-3.75,5-2,7.36-6,6.81-11.38a87.4,87.4,0,0,0-2.81-14.71A91.67,91.67,0,0,0,354.87,686.79Zm4.79,30.68a6.7,6.7,0,0,1-3.92,6.51c-3.47,1.45-7,2.82-10.48,4.2a3.55,3.55,0,0,1-2.94-.23c-2.39-1.25-4.71-2.62-7.06-3.92-1.7-.93-3.36-1.95-5.14-2.71a6.74,6.74,0,0,0-8.81,2.52c-1.57,2.31-2.8,4.86-4.23,7.27-1,1.64-2,3.27-3,4.84a3.61,3.61,0,0,1-2.61,1.52c-3.3.5-6.59,1.11-9.9,1.59-3.67.53-6.35-1-7.91-4.42a87.36,87.36,0,0,1-7.18-24.14c-.22-1.47-.4-3-.53-4.43a6.89,6.89,0,0,1,4.18-6.79q12.63-5.12,25.67-9.06c6.22-1.4,12.43-2.87,18.66-4.19,3.32-.7,6.69-1.2,10-1.73a6.88,6.88,0,0,1,7.15,3.83A87.36,87.36,0,0,1,359.66,717.47Z" transform="translate(40.04)"/><path class="cls-16" d="M335.69,694.75a10.79,10.79,0,1,0,13.16,7.6A10.8,10.8,0,0,0,335.69,694.75Zm4.58,17.56a7.33,7.33,0,0,1-3.78-14.17,7.33,7.33,0,1,1,3.78,14.17Z" transform="translate(40.04)"/><path class="cls-16" d="M303,703.78a10.79,10.79,0,0,0,5.93,20.74A10.79,10.79,0,1,0,303,703.78ZM308,721.2a7.33,7.33,0,1,1,5.05-9A7.43,7.43,0,0,1,308,721.2Z" transform="translate(40.04)"/><path class="cls-16" d="M666.8,211.34l-33.17,47.18,54.08,38,33.18-47.18Zm18.58,15.16,15.37,10.81-6,8.52L679.39,235ZM667.56,214l15.36,10.81-6,8.52-15.37-10.81Zm-15.78,55.09-15.36-10.81,6-8.52,15.37,10.8Zm17.83,12.53-15.37-10.8,6-8.53,15.36,10.81Zm17.51,12.32L671.76,283.1l6-8.52,15.37,10.81Zm7-10-50.4-35.44L661,223.94l50.39,35.44Zm18.1-25.74L696.9,247.34l6-8.52,15.36,10.81Z" transform="translate(40.04)"/><path class="cls-16" d="M702.32,259.65,687,258.28l4.43-6.31a2.67,2.67,0,0,0-.65-3.72l-18.14-12.76a2.68,2.68,0,0,0-3.73.65l-10.58,15a2.69,2.69,0,0,0,.65,3.73l18.14,12.76a2.7,2.7,0,0,0,3.73-.65l3.9-5.55,6.48,14ZM663.66,256l11.1-15.79,8.13,17.51Z" transform="translate(40.04)"/><path class="cls-51" d="M122.66,727.53l-18.85-9,3.67-7.66,18.86,9Z" transform="translate(40.04)"/><path class="cls-51" d="M127.94,736.94,93.17,720.27a3,3,0,0,1-1.42-4l.7-1.46a3,3,0,0,1,4-1.42L131.26,730a3,3,0,0,1,1.42,4l-.71,1.47A3,3,0,0,1,127.94,736.94Z" transform="translate(40.04)"/><path class="cls-51" d="M162.21,738.13,70.77,694.3a6.52,6.52,0,0,1-3.06-8.69l21.6-45.05A6.52,6.52,0,0,1,98,637.5l91.44,43.84A6.52,6.52,0,0,1,192.5,690l-21.6,45.05A6.51,6.51,0,0,1,162.21,738.13ZM97.3,639a4.9,4.9,0,0,0-6.54,2.3l-21.59,45a4.91,4.91,0,0,0,2.3,6.54l91.44,43.83a4.9,4.9,0,0,0,6.54-2.3l21.59-45a4.9,4.9,0,0,0-2.3-6.54Z" transform="translate(40.04)"/><path class="cls-51" d="M99,657.5c-3.59,1.12-3.6,1.12-3.32,4.94.2,2.81.38,5.62.62,8.43.34,3.86-2.71,6.42-6.5,5.42a3,3,0,0,1-1.16-5.66,5.46,5.46,0,0,1,4.5-1.15c1,.18,1.05-.17,1-1-.37-4.52-.68-9-1.09-13.57A1.66,1.66,0,0,1,94.14,653a41.58,41.58,0,0,1,12.62-3.4c.83-.1,1.08.17,1.14,1,.43,5.87.91,11.74,1.33,17.61.15,2.07-1.91,3.95-4.53,4.24-2.39.28-4.4-.83-4.73-2.59s1.29-3.67,3.56-4.22a5.94,5.94,0,0,1,2.51-.16c.72.15,1,0,.91-.78-.22-2.59-.43-5.19-.58-7.8-.05-.81-.38-1-1.12-.85A46.19,46.19,0,0,0,99,657.5Z" transform="translate(40.04)"/><path class="cls-51" d="M99.93,680.37l9.43,26.79,30.7-10.81-9.42-26.78Zm11.39-3.11,8.72-3.07,1.7,4.84L113,682.1Zm-10.12,3.56,8.72-3.07,1.71,4.84-8.73,3.07Zm17.57,22.07L110.05,706l-1.71-4.84,8.73-3.07Zm10.12-3.56-8.72,3.07-1.71-4.84,8.73-3.07Zm9.94-3.5-8.72,3.07-1.7-4.84,8.72-3.07Zm-2-5.69-28.61,10.07-4.9-13.91,28.62-10.07Zm-5.14-14.61L123,678.6l-1.71-4.84,8.73-3.07Z" transform="translate(40.04)"/><path class="cls-51" d="M129.45,680l-4.94,5.75-1.26-3.58a1.32,1.32,0,0,0-1.68-.8l-10.3,3.62a1.33,1.33,0,0,0-.8,1.68l3,8.54a1.32,1.32,0,0,0,1.68.81l10.3-3.63a1.32,1.32,0,0,0,.81-1.67l-1.11-3.15,7.45,1.39Zm-12.53,14.44-3.15-9,9.34,1.75Z" transform="translate(40.04)"/><path class="cls-51" d="M174.37,713.17a5.9,5.9,0,0,0,3-6.52c-.43-2-.88-3.93-1.44-5.86-1-3.47-2-6.93-3.19-10.35a126.66,126.66,0,0,0-6.16-14.69,6.09,6.09,0,0,0-6.54-3.6c-1.27.2-2.53.48-3.77.79a53,53,0,0,0-12.91,5,6,6,0,0,0-3.31,6.59c.36,1.84.82,3.65,1.26,5.47a8.37,8.37,0,0,0,.61,1.83,5,5,0,0,0,2.46,2.07c1.47.73,3,1.37,4.46,2.09a17,17,0,0,1,2,1.13,1.89,1.89,0,0,1,.8,2.22,7.35,7.35,0,0,1-.37,1.15c-.43,1-.88,1.93-1.36,2.87a17.54,17.54,0,0,0-1.75,4.11,4,4,0,0,0,.25,2.75c.86,1.77,1.68,3.56,2.54,5.32a5.94,5.94,0,0,0,6.85,3.48,50.47,50.47,0,0,0,8.38-2.22A52.57,52.57,0,0,0,174.37,713.17Zm-17.51,4a3.88,3.88,0,0,1-3.92-2c-1-1.95-1.91-3.92-2.85-5.88a2,2,0,0,1,0-1.71c.62-1.43,1.32-2.82,2-4.24.47-1,1-2,1.37-3.07a3.91,3.91,0,0,0-1.81-5c-1.4-.82-2.92-1.43-4.37-2.15-1-.5-2-1-2.92-1.57a2.11,2.11,0,0,1-1-1.44c-.42-1.89-.9-3.76-1.31-5.65a4,4,0,0,1,2.23-4.75,50.79,50.79,0,0,1,13.65-5.12c.84-.18,1.68-.34,2.53-.48a4,4,0,0,1,4.09,2.15q3.47,7.08,6.26,14.45c1.06,3.54,2.16,7.06,3.17,10.61.54,1.89,1,3.81,1.41,5.73a4,4,0,0,1-1.93,4.28A50.39,50.39,0,0,1,156.86,717.17Z" transform="translate(40.04)"/><path class="cls-51" d="M169,702.42a6.24,6.24,0,1,0-3.86,7.91A6.25,6.25,0,0,0,169,702.42Zm-10,3.35a4.3,4.3,0,0,1,2.66-5.37,4.25,4.25,0,0,1,5.37,2.62,4.21,4.21,0,0,1-2.69,5.43A4.25,4.25,0,0,1,159.05,705.77Z" transform="translate(40.04)"/><path class="cls-51" d="M162.48,683.88a6.24,6.24,0,1,0-3.55,8A6.28,6.28,0,0,0,162.48,683.88Zm-9.85,3.63a4.24,4.24,0,1,1,5.37,2.56A4.3,4.3,0,0,1,152.63,687.51Z" transform="translate(40.04)"/><text class="cls-52" transform="matrix(0.94, -0.33, 0.33, 0.94, 705, 853.35)"><tspan class="cls-53">D</tspan><tspan x="5.36" y="0">esi</tspan><tspan class="cls-54" x="14.41" y="0">g</tspan><tspan x="18.83" y="0">ned </tspan><tspan class="cls-55" x="33.49" y="0">b</tspan><tspan x="37.98" y="0">y pi</tspan><tspan class="cls-56" x="49.87" y="0">k</tspan><tspan class="cls-57" x="53.76" y="0">isuperstar / </tspan><tspan class="cls-58" x="92.81" y="0">F</tspan><tspan class="cls-59" x="96.49" y="0">r</tspan><tspan class="cls-60" x="99.03" y="0">eepik</tspan></text></g></g></g></svg>