<svg xmlns="http://www.w3.org/2000/svg" xmlns:xlink="http://www.w3.org/1999/xlink" viewBox="0 0 1153.47 968.87"><defs><style>.cls-1{fill:#7aacc3;}.cls-2{clip-path:url(#clip-path);}.cls-3{fill:#e0e0e0;}.cls-4{fill:#37474f;}.cls-5{fill:#455a64;}.cls-6{fill:#263238;}.cls-19,.cls-7{opacity:0.4;}.cls-13,.cls-14,.cls-15,.cls-16,.cls-17,.cls-18,.cls-20,.cls-23,.cls-24,.cls-26,.cls-7,.cls-9{isolation:isolate;}.cls-27,.cls-8{fill:#ffc100;}.cls-10,.cls-14,.cls-15,.cls-17,.cls-18,.cls-26,.cls-9{fill:#fff;}.cls-9{opacity:0.8;}.cls-11{fill:#fafafa;}.cls-12{fill:#ebebeb;}.cls-13{opacity:0.3;}.cls-14,.cls-23{opacity:0.1;}.cls-15{opacity:0.5;}.cls-16{opacity:0.15;}.cls-17{opacity:0.35;}.cls-18{opacity:0.6;}.cls-20{opacity:0.2;}.cls-21{fill:#ffa8a7;}.cls-22{fill:#f28f8f;}.cls-24{opacity:0.05;}.cls-25{fill:#f0f0f0;}.cls-26{opacity:0.7;}.cls-27{font-size:15px;font-family:Roboto-Regular, Roboto;}.cls-28{letter-spacing:-0.01em;}.cls-29{letter-spacing:0em;}.cls-30{letter-spacing:-0.01em;}.cls-31{letter-spacing:-0.01em;}.cls-32{letter-spacing:-0.01em;}</style><clipPath id="clip-path" transform="translate(40.04)"><path class="cls-1" d="M1068.51,0l-50.73,37.5c-18.4,8.92-36.46,22.27-41.71,41.38-5.06,18.43,2.93,37.94.21,56.8-3.84,26.65-28.91,47-55.83,54.61-36.7,10.41-89.33,10.11-127.81,9.12-46.68-1.21-93.2-6.21-140-3.18-53,3.44-107.62,18.11-146,53.52-26.38,24.31-43.62,57.71-47.09,92.54-3.11,31.08,4.4,62.41,1.09,93.47-7.11,66.63-64,121.07-128.57,146.86-84.95,33.93-175.81,21.43-264,36.94-21.93,3.86-45,10.3-59.43,26.65C-38,699,116.92,794,157.16,816.51c77.13,43.18,165.12,70.83,253.94,81C569.52,915.7,735,874.45,864.89,784.39c31.92-22.13,62.41-47.85,81.1-81.09,27.42-48.79,25.84-109.33,4.51-160.51-31-74.37-64.57-162.78-45.23-244.44,6.63-28,23.14-55.17,49.41-69,21-11.11,47.63-13.68,63.74-30.78,13-13.82,15.73-33.88,15.07-52.43-.46-12.78-2.22-25.63-2.2-38.37a98.21,98.21,0,0,1,1.4-17.19c5.3-29.61,32.14-62.65,54.65-82.64,3.24-2.88,6.26-5.44,9-7.9"/></clipPath></defs><g id="Capa_2" data-name="Capa 2"><g id="Capa_1-2" data-name="Capa 1"><path class="cls-1" d="M1068.51,0l-50.73,37.5c-18.4,8.92-36.46,22.27-41.71,41.38-5.06,18.43,2.93,37.94.21,56.8-3.84,26.65-28.91,47-55.83,54.61-36.7,10.41-89.33,10.11-127.81,9.12-46.68-1.21-93.2-6.21-140-3.18-53,3.44-107.62,18.11-146,53.52-26.38,24.31-43.62,57.71-47.09,92.54-3.11,31.08,4.4,62.41,1.09,93.47-7.11,66.63-64,121.07-128.57,146.86-84.95,33.93-175.81,21.43-264,36.94-21.93,3.86-45,10.3-59.43,26.65C-38,699,116.92,794,157.16,816.51c77.13,43.18,165.12,70.83,253.94,81C569.52,915.7,735,874.45,864.89,784.39c31.92-22.13,62.41-47.85,81.1-81.09,27.42-48.79,25.84-109.33,4.51-160.51-31-74.37-64.57-162.78-45.23-244.44,6.63-28,23.14-55.17,49.41-69,21-11.11,47.63-13.68,63.74-30.78,13-13.82,15.73-33.88,15.07-52.43-.46-12.78-2.22-25.63-2.2-38.37a98.21,98.21,0,0,1,1.4-17.19c5.3-29.61,32.14-62.65,54.65-82.64,3.24-2.88,6.26-5.44,9-7.9" transform="translate(40.04)"/><g class="cls-2"><rect class="cls-1" width="1153.47" height="968.87"/></g><g id="freepik--Shadows--inject-2"><path id="freepik--Shadow--inject-2" class="cls-3" d="M531.63,797l50.3-29c1.86-1.08,1.86-2.83,0-3.86L569.66,757a7.46,7.46,0,0,0-6.76,0l-50.3,29c-1.86,1.08-1.86,2.83,0,3.86l3.93,2.27-53.68,31c-1.86,1.08-2.36,2.57-1.1,3.27s3.77.43,5.64-.65l53.68-31,3.85,2.19A7.48,7.48,0,0,0,531.63,797Z" transform="translate(40.04)"/><path id="freepik--shadow--inject-2-2" data-name="freepik--shadow--inject-2" class="cls-3" d="M540.67,838.92A25.35,25.35,0,0,1,528,835.83l-.59-.36a2.55,2.55,0,0,1-1.13-2.63,2.7,2.7,0,0,1,2.47-2.06l12.85-1.88.68-1.42-3.07-1.8-12.6,1.84h-.44a3.07,3.07,0,0,1-3.05-3.07,3.1,3.1,0,0,1,.48-1.63,12.69,12.69,0,0,1,4.63-4.19,25.63,25.63,0,0,1,12.43-3,29.58,29.58,0,0,1,5.14.45l53.44-30.83a7.8,7.8,0,0,1-.09-4.15,11.05,11.05,0,0,1,5.73-6.72,27.45,27.45,0,0,1,25.1.12l.59.36a2.47,2.47,0,0,1,1.11,2.57,2.69,2.69,0,0,1-2.44,2l-12.84,1.88-.68,1.42,3.07,1.8,12.59-1.84h.43a3,3,0,0,1,2.67,1.58,3.08,3.08,0,0,1-.09,3.13,13.09,13.09,0,0,1-4.63,4.18,25.55,25.55,0,0,1-12.44,3,30.58,30.58,0,0,1-5.14-.44L558.77,825a7.7,7.7,0,0,1,.1,4.15,11.16,11.16,0,0,1-5.73,6.73A25.56,25.56,0,0,1,540.67,838.92Z" transform="translate(40.04)"/><path id="freepik--shadow--inject-2-3" data-name="freepik--shadow--inject-2" class="cls-3" d="M268.12,720.66l67.49,39a6.12,6.12,0,0,0,5.56,0L642.49,585.94a1.71,1.71,0,0,0,0-3.23L575.3,543.6a6.12,6.12,0,0,0-5.56,0L268.12,717.45a1.7,1.7,0,0,0,0,3.21Z" transform="translate(40.04)"/><path id="freepik--shadow--inject-2-4" data-name="freepik--shadow--inject-2" class="cls-3" d="M414.62,806.8a20.1,20.1,0,0,1-5.51-.79c-5.41-1.52-7.08-4.34-7.54-6.42-.73-3.41,1.28-6.93,3.66-8.91.83-.72,1.81-1.47,2.81-2.24,2.57-2,5.86-4.49,6.6-6.42l3.68-9.4-2.78-1.6.61-1.38-2.88.61L412,768.52c-2.88,1.39-9.92,4.79-19.36,9.52-2.19,1.09-4,2-5.62,2.85-5.3,2.74-8.23,4.25-12.65,5.32a22.23,22.23,0,0,1-5,.61c-3.47,0-6.19-1-7.86-2.85a7.91,7.91,0,0,1-1.75-6.42c1-8.86,18.27-16.6,27.26-17.41,2.94-.27,5.72-.38,8.74-.38h6.51a18.53,18.53,0,0,0,2.17-.08c3.4-.32,14-2.27,14.13-2.28l1.16-.22.7.93,2.57-.5c3.49-2.48,30.2-21.4,36.51-25.69,3.93-2.69,11-7,13.11-7h1.15l.71,1.06.54,1-.72,1.19a52.48,52.48,0,0,1-10.08,11.56c-2.26,1.78-8.75,7.3-15.19,12.85l48.81-9.47-2.16,3.69c-.6,1-3.76,3.92-20.23,8.79-9.91,2.91-28,7.11-41.62,10.14l-2.22,1.93c-.16,2.43-.65,9.81-1,13.69a14.7,14.7,0,0,0,.71,4.61c.83,3.27,1.86,7.33-.82,11.48C428.25,800.93,423.17,806.8,414.62,806.8Zm3.44-14a8.88,8.88,0,0,0-6.42,2.5,2.23,2.23,0,0,0-.66,1.88,3,3,0,0,0,2.15,1.59,7.77,7.77,0,0,0,2.14.28,8.89,8.89,0,0,0,6.43-2.57,2.2,2.2,0,0,0,.65-1.87,2.92,2.92,0,0,0-2.13-1.6A7.85,7.85,0,0,0,418.06,792.75Zm-25-25.94a34.55,34.55,0,0,0-10.52,1.82c-9.38,3.09-12.32,6.92-13.25,9-.11.25-.37.88-.15,1.22a1.91,1.91,0,0,0,1.57.55,3.57,3.57,0,0,0,.92-.12,14.65,14.65,0,0,0,4.86-2.33,59,59,0,0,1,5.89-3.34,112.06,112.06,0,0,1,15.15-6.21h.15A16.74,16.74,0,0,0,393,766.81Z" transform="translate(40.04)"/><path id="freepik--shadow--inject-2-5" data-name="freepik--shadow--inject-2" class="cls-3" d="M813.08,697.42c-10.55,6-10.66,15.76-.24,21.93s27.42,6.42,38,.41,10.66-15.76.23-21.93S823.57,691.49,813.08,697.42Z" transform="translate(40.04)"/><path id="freepik--shadow--inject-2-6" data-name="freepik--shadow--inject-2" class="cls-3" d="M607.31,685.19c-28.26,15.94-28.59,42.29-.63,58.83s73.58,17.05,101.89,1.11,28.61-42.29.64-58.85S635.62,669.2,607.31,685.19Z" transform="translate(40.04)"/><path id="freepik--shadow--inject-2-7" data-name="freepik--shadow--inject-2" class="cls-3" d="M736,593.28c-25.19,14.13-25.45,37.61-.57,52.35s65.45,15.16,90.65,1,25.45-37.62.57-52.34S761.17,579.09,736,593.28Z" transform="translate(40.04)"/><path id="freepik--shadow--inject-2-8" data-name="freepik--shadow--inject-2" class="cls-3" d="M492.55,703.56c-4.35,2.22,7.37,10.75,12.85,7.77l93.64-55,10.74-12.85a.76.76,0,0,0,.1-1.06.75.75,0,0,0-.87-.22L586.89,649Z" transform="translate(40.04)"/><path id="freepik--shadow--inject-2-9" data-name="freepik--shadow--inject-2" class="cls-3" d="M715.29,764.23l13.42-7.79a16.18,16.18,0,0,1,14.66,0l4.67,2.7,17.47-10.08a6.33,6.33,0,0,1,5.72,0l.12.06a1.75,1.75,0,0,1,1.07,2.23,1.72,1.72,0,0,1-1.07,1.07l-17.47,10.09,1,.56c4,2.34,4,6.14,0,8.48l-13.43,7.78-19.54,11.32-26.21-15.1Z" transform="translate(40.04)"/><path id="freepik--shadow--inject-2-10" data-name="freepik--shadow--inject-2" class="cls-3" d="M824.47,764.58a3.35,3.35,0,0,0-.27-.45l-.18-.27-.2-.3-.53-.65a6.68,6.68,0,0,0-.67-.74,13.44,13.44,0,0,0-1.77-1.51l-.32-.22h-.08l-.29-.17a12.14,12.14,0,0,0-4.41-1.53l-.76-.07h-.78a3.46,3.46,0,0,0-.78.06h-1a4.58,4.58,0,0,0-.53.14h0l-.68.26h0a7.46,7.46,0,0,0-1.28.68,12.62,12.62,0,0,0-2.24,1.88c-.3.31-.58.63-.85,1a14.9,14.9,0,0,0-1,1.49c-.19.32-.37.64-.53,1l-.24.47c-.3.63-.55,1.28-.81,1.79-1.07.5-44.57,25.48-54.1,31.34h-.08l-1.22.76c-12.5,7.79-26.85,21.1-26.85,21.1h0a1,1,0,0,0-.16.19,1.12,1.12,0,0,0,.25,1.56,1.1,1.1,0,0,0,1,.15h0a202.9,202.9,0,0,0,30.5-15.08c10.07-6.29,51.8-34.08,53.47-35.43a11.86,11.86,0,0,0,6.75-.36,11.65,11.65,0,0,0,5.62-4.21h0a10.55,10.55,0,0,1,1.22-1.28,4.76,4.76,0,0,1,3.95-1.18A3.07,3.07,0,0,0,824.47,764.58Z" transform="translate(40.04)"/><path id="freepik--shadow--inject-2-11" data-name="freepik--shadow--inject-2" class="cls-3" d="M745,786.41c-11.32,9.43-23.92,24.41-23.92,24.41h0a1.43,1.43,0,0,0-.14.2,1.13,1.13,0,0,0,.46,1.52,1.15,1.15,0,0,0,1,0h.07a202.5,202.5,0,0,0,28.26-18.89c6.8-5.58,13.23-11.67,17.41-15.8h0c1.79-1.67,3.43-3.31,4.87-4.9h0a12.2,12.2,0,0,0,6.66-1.29,11.75,11.75,0,0,0,5-5.14h0a10.11,10.11,0,0,1,1.06-1.38,4.73,4.73,0,0,1,3.75-1.67c-.08-.13-.16-.26-.25-.38l-.32-.39-.21-.25-.25-.27h0c-.18-.19-.38-.38-.6-.59s-.48-.42-.76-.64a15,15,0,0,0-2-1.29l-.35-.16h-.09l-.31-.14a11.89,11.89,0,0,0-4.56-.94,5,5,0,0,0-.77,0l-.77.08-.77.15-.33.1-.29.08h-.15l-.19.08-.5.2h0l-.63.34h0a7.81,7.81,0,0,0-1.15.83,14.94,14.94,0,0,0-2,2.15c-.25.36-.5.72-.7,1.08a13.33,13.33,0,0,0-.81,1.6c-.16.35-.28.69-.4,1l-.18.5c-.22.67-.4,1.28-.58,1.87C768,769.87,754.54,778.49,745,786.41Z" transform="translate(40.04)"/></g><g id="freepik--Prototyping--inject-2"><g id="freepik--Plan--inject-2"><path class="cls-4" d="M640.21,575.18v4.19L337.8,753.67l-1.81-1A72.59,72.59,0,0,1,299.83,690V454.77l302.38-174.3,3.64,2.1V515.63A68.68,68.68,0,0,0,640.21,575.18Z" transform="translate(40.04)"/><path class="cls-5" d="M640.21,575.18,337.8,749.48A68.71,68.71,0,0,1,303.46,690V456.87l302.39-174.3V515.63A68.68,68.68,0,0,0,640.21,575.18Z" transform="translate(40.04)"/><path class="cls-6" d="M303.47,690V456.87l-3.62-2.1V690A72.55,72.55,0,0,0,336,752.63l1.81,1v-4.19A68.72,68.72,0,0,1,303.47,690Z" transform="translate(40.04)"/><polygon class="cls-7" points="377.86 749.48 377.86 753.67 680.25 579.37 680.25 575.18 377.86 749.48"/><g id="freepik--Tape--inject-2"><polygon class="cls-8" points="641.95 319.22 638.4 320.94 638.24 316.13 634.7 317.86 634.52 313.05 630.99 314.77 630.82 309.97 627.28 311.7 627.11 306.88 623.58 308.62 623.41 303.8 644.68 262.53 648.23 260.8 648.4 265.61 651.94 263.88 652.11 268.68 655.64 266.96 655.81 271.77 659.35 270.04 659.52 274.85 663.07 273.13 663.23 277.93 641.95 319.22"/><polygon class="cls-9" points="641.95 319.22 638.4 320.94 638.24 316.13 634.7 317.86 634.52 313.05 630.99 314.77 630.82 309.97 627.28 311.7 627.11 306.88 623.58 308.62 623.41 303.8 644.68 262.53 648.23 260.8 648.4 265.61 651.94 263.88 652.11 268.68 655.64 266.96 655.81 271.77 659.35 270.04 659.52 274.85 663.07 273.13 663.23 277.93 641.95 319.22"/></g><g id="freepik--tape--inject-2-2" data-name="freepik--tape--inject-2"><polygon class="cls-8" points="314.07 447.77 313.12 443.34 316.47 442.76 315.52 438.33 318.86 437.75 317.91 433.32 321.26 432.74 320.31 428.31 323.65 427.73 322.7 423.3 326.06 422.72 365.48 458 366.43 462.42 363.08 462.99 364.03 467.43 360.69 468 361.64 472.44 358.29 473.01 359.24 477.44 355.89 478.02 356.85 482.45 353.49 483.03 314.07 447.77"/><polygon class="cls-9" points="314.07 447.77 313.12 443.34 316.47 442.76 315.52 438.33 318.86 437.75 317.91 433.32 321.26 432.74 320.31 428.31 323.65 427.73 322.7 423.3 326.06 422.72 365.48 458 366.43 462.42 363.08 462.99 364.03 467.43 360.69 468 361.64 472.44 358.29 473.01 359.24 477.44 355.89 478.02 356.85 482.45 353.49 483.03 314.07 447.77"/></g><g id="freepik--Drawings--inject-2"><g id="freepik--Rocket--inject-2"><path class="cls-8" d="M349.63,687.86a8,8,0,0,1-1.55-.1c-3.31-.64-5-3.3-4.46-7.14v-.3l2.88-15.41a.65.65,0,0,1,.76-.51.64.64,0,0,1,.51.74l-2.95,15.71c-.23,1.77-.13,5,3.44,5.65,5.14,1,13.62-4,18.86-11,2.87-3.85,4.26-7.7,3.85-10.49v-.07L368,652.77a.64.64,0,0,1,.46-.77h0a.66.66,0,0,1,.77.47l2.95,12.27a.49.49,0,0,1,0,.17c.45,3.12-1,7.24-4.07,11.34C363.17,683,355.23,687.86,349.63,687.86Z" transform="translate(40.04)"/><path class="cls-8" d="M350.53,678.1a6.58,6.58,0,0,1-1.4-.13,4.85,4.85,0,0,1-4.11-4.89.65.65,0,0,1,.62-.67h0a.6.6,0,0,1,.66.56.13.13,0,0,1,0,.06,3.56,3.56,0,0,0,3.05,3.68c4.55.88,12.07-3.5,16.7-9.77a15.8,15.8,0,0,0,3.46-8.08.64.64,0,0,1,.67-.62h0a.67.67,0,0,1,.61.68,17,17,0,0,1-3.71,8.78C362.65,673.73,355.54,678.1,350.53,678.1Z" transform="translate(40.04)"/><path class="cls-8" d="M350.53,671.77a7.3,7.3,0,0,1-1.4-.13,4.81,4.81,0,0,1-3.27-2.08.64.64,0,0,1,1.05-.72v0a3.58,3.58,0,0,0,2.44,1.51c4.58.87,12.08-3.51,16.7-9.77a19.91,19.91,0,0,0,2.8-5,.66.66,0,0,1,.83-.38h0a.64.64,0,0,1,.38.81v0a21.49,21.49,0,0,1-2.94,5.25C362.65,667.4,355.54,671.77,350.53,671.77Z" transform="translate(40.04)"/><path class="cls-8" d="M349.74,684.19a8.73,8.73,0,0,1-1.54-.14,5,5,0,0,1-4.22-5.49.67.67,0,0,1,.66-.63.64.64,0,0,1,.63.63v0a3.76,3.76,0,0,0,3.17,4.19c5.14,1,13.42-3.86,18.59-10.84,2.32-3.13,3.62-6.3,3.57-8.71a.64.64,0,0,1,.63-.66h0a.66.66,0,0,1,.64.63c0,2.74-1.29,6.1-3.85,9.49C363.11,679.36,355.27,684.19,349.74,684.19Z" transform="translate(40.04)"/><path class="cls-8" d="M348.61,665.74a8.51,8.51,0,0,1-1.75-.16,5.75,5.75,0,0,1-4.73-4.06l-.06-.22A277.79,277.79,0,0,1,333.24,591c0-40.91,13-82.13,22.06-95.06l.26-.37v-.06h0a6.77,6.77,0,0,1,2-1.88,3.39,3.39,0,0,1,2.2-.47h.06l.4.11c9.09,2.47,22.34,28.8,22.34,69.89,0,38.12-7.9,76.2-8.82,80.42a23.73,23.73,0,0,1-4.39,9C363.78,660.26,354.87,665.74,348.61,665.74Zm8-169.37-.26.37c-9,12.74-21.83,53.63-21.83,94.27A276.83,276.83,0,0,0,343.3,661v.2a4.46,4.46,0,0,0,3.73,3.17c5.84,1.13,15.41-4.45,21.28-12.4a22.74,22.74,0,0,0,4.18-8.53c.89-4.2,8.77-42.16,8.77-80.14,0-40.46-12.68-66.28-21.45-68.67l-.22-.06h0a1.93,1.93,0,0,0-1.36.32,5.69,5.69,0,0,0-1.6,1.53Z" transform="translate(40.04)"/><path class="cls-8" d="M350,525.34a7.43,7.43,0,0,1-1.49-.12,5,5,0,0,1-4.2-4,.69.69,0,0,1,0-.35c1.29-4.06,2.66-7.85,4-11.25A72,72,0,0,1,355.29,496l.24-.36a.44.44,0,0,1,.12-.15,6.57,6.57,0,0,1,2-1.8,3.31,3.31,0,0,1,2.19-.48h.12l.28.08c2.26.6,4.74,2.57,7.14,5.82a43.48,43.48,0,0,1,4.08,6.69.68.68,0,0,1,0,.4,19.72,19.72,0,0,1-3.86,8C362.94,520.69,355.38,525.34,350,525.34Zm-4.39-4.21a3.63,3.63,0,0,0,3.13,2.81c4.88,1,12.94-3.73,17.92-10.45a19.17,19.17,0,0,0,3.54-7.25,42.68,42.68,0,0,0-3.86-6.3h0c-2.22-3-4.47-4.82-6.5-5.37h-.23a1.93,1.93,0,0,0-1.28.32,5.85,5.85,0,0,0-1.73,1.48h0a.28.28,0,0,1-.07.09l-.18.28a69.22,69.22,0,0,0-6.78,13.38C348.23,513.46,346.91,517.16,345.64,521.13Z" transform="translate(40.04)"/><path class="cls-8" d="M353.74,571.91a6,6,0,0,1-3-.78c-2.57-1.47-4-4.77-4-9.09,0-7.93,4.87-17.21,10.85-20.66,2.74-1.58,5.41-1.79,7.53-.57,2.57,1.46,4,4.77,4,9.08,0,7.94-4.87,17.21-10.86,20.67A9.07,9.07,0,0,1,353.74,571.91Zm8.38-30.59a8,8,0,0,0-3.85,1.17c-5.63,3.25-10.28,12-10.28,19.57,0,3.85,1.21,6.74,3.33,8,1.69,1,3.85.78,6.24-.55,5.63-3.25,10.28-12,10.28-19.57,0-3.85-1.21-6.74-3.33-8A4.76,4.76,0,0,0,362.12,541.32Z" transform="translate(40.04)"/><path class="cls-8" d="M354.93,567.58a4.53,4.53,0,0,1-2.25-.59c-1.86-1.08-2.94-3.51-2.94-6.67,0-5.75,3.53-12.47,7.87-15a5.48,5.48,0,0,1,5.58-.39c1.86,1.08,2.92,3.5,2.92,6.66,0,5.76-3.52,12.48-7.86,15A6.73,6.73,0,0,1,354.93,567.58Zm6-21.94a5.54,5.54,0,0,0-2.68.82c-4,2.3-7.23,8.52-7.23,13.86,0,2.69.84,4.72,2.3,5.55a4.27,4.27,0,0,0,4.29-.4c4-2.31,7.17-8.51,7.17-13.87,0-2.68-.82-4.71-2.29-5.55A3.19,3.19,0,0,0,360.93,545.64Z" transform="translate(40.04)"/><path class="cls-8" d="M395.49,647.21h-.1l-22.15-3.86a.59.59,0,0,1-.42-.27.62.62,0,0,1-.09-.5c2.65-12.08,4.78-28.26,6.51-42.57a.72.72,0,0,1,.66-.56.64.64,0,0,1,.63.59c0,.73.1,1.66.15,2.7.19,4.29.5,10.76,2.57,14.71,1.91,3.55,5,6.93,8.59,10.84l3.1,3.39c3.7,4.15,2.57,10.27,1.12,15.12A.67.67,0,0,1,395.49,647.21Zm-21.37-5.05L395,645.83c1.8-6.42,1.48-10.56-1-13.34-1.06-1.18-2.08-2.3-3.07-3.38-3.65-4-6.8-7.4-8.79-11.11-1.59-3-2.22-7.12-2.57-10.87C378.11,619.27,376.34,632.06,374.12,642.16Z" transform="translate(40.04)"/><path class="cls-8" d="M396.25,644h0l-22.2-4.31a.32.32,0,0,1-.2-.14.31.31,0,0,1,0-.23c.23-1.16.46-2.33.68-3.53a.34.34,0,0,1,.14-.21.33.33,0,0,1,.24,0l22,4.23a.3.3,0,0,1,.26.33h0a24.24,24.24,0,0,1-.54,3.6.31.31,0,0,1-.35.26Zm-21.84-4.87L396,643.25a26.21,26.21,0,0,0,.44-2.93l-21.38-4.15c-.24,1-.43,2-.62,2.91Z" transform="translate(40.04)"/><path class="cls-8" d="M320.37,690.59h-.07a.65.65,0,0,1-.52-.38c-2.13-4.8-1.82-9.78,1-16.17,1.05-2.4,2.08-4.71,3.07-6.91,3.61-8.12,6.73-15.12,8.68-21a65.53,65.53,0,0,0,2.66-18c0-1.09.11-2.07.16-2.88a.65.65,0,0,1,.61-.59.65.65,0,0,1,.67.56c1.74,12.26,3.86,26,6.5,35a.57.57,0,0,1-.1.56l-22.15,29.51A.65.65,0,0,1,320.37,690.59ZM336.27,632a58.39,58.39,0,0,1-2.56,14.59c-2,5.92-5.14,13-8.74,21.1-1,2.2-2,4.51-3.07,6.92-3,6.87-2.49,11.12-1.4,14.13l21.26-28.26A242.14,242.14,0,0,1,336.27,632Z" transform="translate(40.04)"/><path class="cls-8" d="M319.61,688.2h0a.3.3,0,0,1-.25-.22,14.84,14.84,0,0,1-.54-3,.26.26,0,0,1,0-.21L340.87,655a.33.33,0,0,1,.57.11c.23,1,.45,1.86.68,2.74a.26.26,0,0,1,0,.27l-22.3,29.93A.34.34,0,0,1,319.61,688.2Zm-.2-3.18a13.59,13.59,0,0,0,.35,2.12l21.7-29.27c-.16-.63-.32-1.28-.48-1.93Z" transform="translate(40.04)"/><path class="cls-8" d="M357.93,494.9a.64.64,0,0,1-.64-.64V479.81a.64.64,0,0,1,1.28,0v14.45A.64.64,0,0,1,357.93,494.9Z" transform="translate(40.04)"/><path class="cls-8" d="M357.14,480.69a1.61,1.61,0,0,1-.84-.21,2.39,2.39,0,0,1-1-2.17,5.46,5.46,0,0,1,2.32-4.39,2,2,0,0,1,1.95-.1,2.41,2.41,0,0,1,1,2.17,5.44,5.44,0,0,1-2.33,4.38A2.08,2.08,0,0,1,357.14,480.69Zm1.59-5.8a1,1,0,0,0-.48.15,4.18,4.18,0,0,0-1.68,3.27c0,.61.19.95.37,1.05a.8.8,0,0,0,.67-.1,4.15,4.15,0,0,0,1.68-3.27c0-.61-.19-.95-.37-1.05A.32.32,0,0,0,358.73,474.89Z" transform="translate(40.04)"/></g><g id="freepik--Text--inject-2"><path class="cls-10" d="M401.94,540.28a.64.64,0,0,1-.56-.94v0l10.27-17.75a.59.59,0,0,1,.24-.23l44.41-25.69a.65.65,0,0,1,.89.23.66.66,0,0,1-.24.88l-44.27,25.55-10.16,17.61A.63.63,0,0,1,401.94,540.28Z" transform="translate(40.04)"/><path class="cls-11" d="M418.25,511.16a3.86,3.86,0,0,1,1.83-3l27.1-15.62c1-.58,1.83-.16,1.83.93a3.89,3.89,0,0,1-1.83,3l-27.1,15.65C419.06,512.67,418.25,512.26,418.25,511.16Z" transform="translate(40.04)"/><path class="cls-8" d="M416.65,534.2l12.12-7c.57-.33,1-.1,1,.52a2.21,2.21,0,0,1-1,1.71l-12.12,7c-.58.32-1,.09-1-.53A2.17,2.17,0,0,1,416.65,534.2Z" transform="translate(40.04)"/><path class="cls-8" d="M431.81,525.43,443,519c.56-.32,1-.09,1,.53a2.21,2.21,0,0,1-1,1.71l-11.21,6.42c-.58.33-1.05.1-1-.51A2.23,2.23,0,0,1,431.81,525.43Z" transform="translate(40.04)"/><path class="cls-8" d="M446.12,517.18l8-4.63c.56-.33,1-.1,1,.51a2.28,2.28,0,0,1-1,1.73l-8,4.61c-.57.33-1,.1-1-.52A2.17,2.17,0,0,1,446.12,517.18Z" transform="translate(40.04)"/><path class="cls-8" d="M416.65,526.26l22.86-13.2c.58-.33,1-.1,1,.52a2.22,2.22,0,0,1-1,1.72l-22.86,13.18c-.58.33-1,.1-1-.51A2.17,2.17,0,0,1,416.65,526.26Z" transform="translate(40.04)"/><path class="cls-8" d="M442.83,511.12l10.95-6.3c.57-.34,1-.1,1,.51a2.22,2.22,0,0,1-1,1.72l-10.95,6.31c-.57.33-1,.09-1-.53A2.21,2.21,0,0,1,442.83,511.12Z" transform="translate(40.04)"/><path class="cls-10" d="M401.94,587.7a.89.89,0,0,1-.32-.08.65.65,0,0,1-.23-.89L411.66,569a.76.76,0,0,1,.24-.23l44.41-25.69a.64.64,0,0,1,.76,1,.6.6,0,0,1-.11.06l-44.27,25.57-10.16,17.59A.66.66,0,0,1,401.94,587.7Z" transform="translate(40.04)"/><path class="cls-11" d="M418.25,558.58a3.86,3.86,0,0,1,1.83-3l27.1-15.66c1-.58,1.83-.17,1.83.92a3.94,3.94,0,0,1-1.83,3l-27.1,15.65C419.06,560.08,418.25,559.67,418.25,558.58Z" transform="translate(40.04)"/><path class="cls-8" d="M416.65,581.61l12.12-7c.57-.34,1-.09,1,.52a2.19,2.19,0,0,1-1,1.71l-12.12,7c-.58.34-1,.09-1-.52A2.19,2.19,0,0,1,416.65,581.61Z" transform="translate(40.04)"/><path class="cls-8" d="M431.81,572.86,443,566.44c.56-.34,1-.11,1,.51a2.28,2.28,0,0,1-1,1.72l-11.21,6.42c-.58.33-1.05.09-1-.52A2.17,2.17,0,0,1,431.81,572.86Z" transform="translate(40.04)"/><path class="cls-8" d="M446.12,564.59l8-4.63c.56-.32,1-.09,1,.53a2.26,2.26,0,0,1-1,1.71l-8,4.62c-.57.32-1,.09-1-.52A2.19,2.19,0,0,1,446.12,564.59Z" transform="translate(40.04)"/><path class="cls-8" d="M416.65,573.67l22.86-13.21c.58-.32,1-.09,1,.53a2.2,2.2,0,0,1-1,1.71l-22.86,13.2c-.58.32-1,.09-1-.52A2.19,2.19,0,0,1,416.65,573.67Z" transform="translate(40.04)"/><path class="cls-8" d="M442.83,558.55l10.95-6.32c.57-.32,1-.09,1,.53a2.21,2.21,0,0,1-1,1.71l-10.95,6.3c-.57.34-1,.1-1-.51A2.19,2.19,0,0,1,442.83,558.55Z" transform="translate(40.04)"/></g><g id="freepik--Window--inject-2"><path class="cls-8" d="M484.7,513.06a.65.65,0,0,1-.64-.64V441.26a.64.64,0,0,1,1.26-.19c.28.92.58,2.09.92,3.41,1.39,5.45,3.5,13.68,7.84,17.37,3.94,3.35,9.72,5.65,16.42,8.32,1.85.73,3.76,1.51,5.75,2.33,7,2.9,6.64,11.64,5.6,18.92a.58.58,0,0,1-.32.46L485,512.94A.69.69,0,0,1,484.7,513.06Zm.66-66.88V511.3l35.28-20.37c1.39-9.94-.11-15.27-4.85-17.25-2-.82-3.86-1.58-5.74-2.31-6.8-2.71-12.67-5.05-16.77-8.53-4.31-3.73-6.47-11.16-7.92-16.7Z" transform="translate(40.04)"/><path class="cls-8" d="M484.7,509a.65.65,0,0,1-.64-.64v-5a.67.67,0,0,1,.32-.57l36.94-21.32a.62.62,0,0,1,.62,0,.57.57,0,0,1,.33.5,27.58,27.58,0,0,1,0,5.14.58.58,0,0,1-.32.51l-37,21.37A.8.8,0,0,1,484.7,509Zm.64-5.3v3.54l35.73-20.63a29.86,29.86,0,0,0,0-3.54Z" transform="translate(40.04)"/><path class="cls-10" d="M532.36,447.25a.9.9,0,0,1-.32-.09.63.63,0,0,1-.3-.84l0-.05L542,428.5a.76.76,0,0,1,.24-.23l44.41-25.69a.65.65,0,0,1,.65,1.11l-44.27,25.56-10.16,17.61A.67.67,0,0,1,532.36,447.25Z" transform="translate(40.04)"/><path class="cls-11" d="M548.67,418.12a3.86,3.86,0,0,1,1.83-3l27.1-15.64c1-.59,1.82-.17,1.82.91a3.9,3.9,0,0,1-1.82,3L550.5,419C549.48,419.62,548.67,419.2,548.67,418.12Z" transform="translate(40.04)"/><path class="cls-8" d="M547.07,441.13l12.12-7c.57-.32,1-.09,1,.53a2.21,2.21,0,0,1-1,1.71l-12.14,7c-.56.33-1,.1-1-.52A2.21,2.21,0,0,1,547.07,441.13Z" transform="translate(40.04)"/><path class="cls-8" d="M562.22,432.4,573.44,426c.56-.33,1-.1,1,.52a2.28,2.28,0,0,1-1,1.72l-11.22,6.42c-.57.34-1,.09-1-.53A2.21,2.21,0,0,1,562.22,432.4Z" transform="translate(40.04)"/><path class="cls-8" d="M576.53,424.12l8-4.62c.56-.32,1-.09,1,.53a2.19,2.19,0,0,1-1,1.7l-8,4.63c-.57.33-1,.09-1-.53A2.18,2.18,0,0,1,576.53,424.12Z" transform="translate(40.04)"/><path class="cls-8" d="M547.07,433.21,569.93,420c.58-.32,1-.09,1,.53a2.19,2.19,0,0,1-1,1.71l-22.88,13.2c-.56.33-1,.09-1-.53A2.17,2.17,0,0,1,547.07,433.21Z" transform="translate(40.04)"/><path class="cls-8" d="M573.25,418.09l10.94-6.32c.58-.32,1-.09,1,.52a2.19,2.19,0,0,1-1,1.71l-10.94,6.32c-.57.32-1,.09-1-.53A2.17,2.17,0,0,1,573.25,418.09Z" transform="translate(40.04)"/></g><g id="freepik--Fin--inject-2"><path class="cls-10" d="M532.36,560a.59.59,0,0,1-.32-.09.62.62,0,0,1-.24-.85v0L542,541.32a.78.78,0,0,1,.24-.24l44.41-25.69a.64.64,0,0,1,.65,1.1l-44.27,25.57-10.15,17.63A.64.64,0,0,1,532.36,560Z" transform="translate(40.04)"/><path class="cls-11" d="M548.67,530.89a3.86,3.86,0,0,1,1.83-3l27.1-15.64c1-.58,1.82-.17,1.82.91a3.9,3.9,0,0,1-1.82,3l-27.1,15.65C549.48,532.4,548.67,532,548.67,530.89Z" transform="translate(40.04)"/><path class="cls-8" d="M547.07,553.91l12.12-7c.57-.32,1-.09,1,.53a2.21,2.21,0,0,1-1,1.71l-12.14,7c-.56.33-1,.1-1-.52A2.21,2.21,0,0,1,547.07,553.91Z" transform="translate(40.04)"/><path class="cls-8" d="M562.22,545.18l11.22-6.42c.56-.34,1-.09,1,.52a2.24,2.24,0,0,1-1,1.71l-11.22,6.42c-.57.34-1,.09-1-.52A2.21,2.21,0,0,1,562.22,545.18Z" transform="translate(40.04)"/><path class="cls-8" d="M576.53,536.89l8-4.62c.56-.32,1-.09,1,.52a2.19,2.19,0,0,1-1,1.71l-8,4.63c-.57.33-1,.09-1-.53A2.18,2.18,0,0,1,576.53,536.89Z" transform="translate(40.04)"/><path class="cls-8" d="M547.07,546l22.86-13.2c.58-.32,1-.09,1,.53a2.16,2.16,0,0,1-1,1.7l-22.88,13.21c-.56.33-1,.1-1-.53A2.2,2.2,0,0,1,547.07,546Z" transform="translate(40.04)"/><path class="cls-8" d="M573.25,530.86l10.94-6.32c.58-.33,1-.09,1,.52a2.19,2.19,0,0,1-1,1.71l-10.94,6.32c-.57.32-1,.09-1-.53A2.17,2.17,0,0,1,573.25,530.86Z" transform="translate(40.04)"/><path class="cls-8" d="M501.39,591A8.73,8.73,0,0,1,497,589.8c-3.71-2.14-5.83-7-5.83-13.46,0-11.92,7.3-25.84,16.26-31,4-2.34,8-2.63,11.08-.85,3.71,2.15,5.84,7,5.84,13.46,0,11.92-7.31,25.85-16.27,31A13.58,13.58,0,0,1,501.39,591Zm12.69-46.35a12.21,12.21,0,0,0-6,1.81c-8.62,5-15.62,18.4-15.62,29.92,0,5.95,1.88,10.44,5.13,12.34,2.69,1.56,6.17,1.29,9.79-.83,8.62-5,15.63-18.39,15.63-29.92,0-5.94-1.9-10.44-5.2-12.34a7.43,7.43,0,0,0-3.71-1Z" transform="translate(40.04)"/><path class="cls-8" d="M503.19,584.38a6.39,6.39,0,0,1-3.25-.85c-2.73-1.56-4.28-5.13-4.28-9.8,0-8.6,5.28-18.65,11.75-22.39,3-1.7,5.85-1.92,8.12-.6,2.72,1.57,4.28,5.14,4.28,9.8,0,8.61-5.28,18.65-11.75,22.39A9.68,9.68,0,0,1,503.19,584.38Zm9.09-33.2a8.51,8.51,0,0,0-4.22,1.28c-6.13,3.55-11.12,13.09-11.12,21.29,0,4.18,1.29,7.36,3.64,8.68,1.86,1.08,4.29.87,6.83-.59,6.13-3.55,11.11-13.09,11.11-21.29,0-4.18-1.28-7.36-3.63-8.69a5.06,5.06,0,0,0-2.61-.68Z" transform="translate(40.04)"/></g><g id="freepik--text--inject-2-2" data-name="freepik--text--inject-2"><path class="cls-11" d="M380.5,440c1.86-1.07,3.32-1.28,4.34-.47s1.54,2.43,1.54,5a14.43,14.43,0,0,1-1.54,6.86A11.07,11.07,0,0,1,380.5,456l-3.69,2.13V466a1.67,1.67,0,0,1-.19.79,1.09,1.09,0,0,1-.43.54l-1.87,1.07a.35.35,0,0,1-.45,0,.78.78,0,0,1-.18-.57v-23a2.07,2.07,0,0,1,.18-.78,1.09,1.09,0,0,1,.45-.54Zm-3.69,13.69,3.58-2.07a5.89,5.89,0,0,0,2.1-2,6.13,6.13,0,0,0,.79-3.24c0-1.28-.27-2.09-.79-2.3a2.58,2.58,0,0,0-2.1.45l-3.58,2.07Z" transform="translate(40.04)"/><path class="cls-11" d="M394.32,442.66a4.9,4.9,0,0,0-2,2.09,8.09,8.09,0,0,0-.61,3.43v9.24a1.75,1.75,0,0,1-.18.78,1.23,1.23,0,0,1-.44.54l-1.76,1a.33.33,0,0,1-.44,0,.78.78,0,0,1-.18-.57V442.6a2.12,2.12,0,0,1,.18-.79,1.12,1.12,0,0,1,.44-.52l1.76-1a.33.33,0,0,1,.44,0,.77.77,0,0,1,.18.57v.82A12.45,12.45,0,0,1,393,439.6a6.44,6.44,0,0,1,1.79-1.49l1-.6a.32.32,0,0,1,.43,0,.82.82,0,0,1,.2.58v2.33a1.78,1.78,0,0,1-.2.79,1.14,1.14,0,0,1-.43.54Z" transform="translate(40.04)"/><path class="cls-11" d="M403.44,432.77a4.58,4.58,0,0,1,2.3-.72,2.66,2.66,0,0,1,1.77.64,4.3,4.3,0,0,1,1.2,1.8,8.88,8.88,0,0,1,.53,2.75v3.6a18.12,18.12,0,0,1-.53,3.35,16.31,16.31,0,0,1-1.2,3.16,13.24,13.24,0,0,1-1.77,2.68,8.89,8.89,0,0,1-2.3,1.93,4.58,4.58,0,0,1-2.3.72,2.8,2.8,0,0,1-1.77-.63,4.1,4.1,0,0,1-1.19-1.79,9.51,9.51,0,0,1-.53-2.74v-3.59a15.78,15.78,0,0,1,.51-3.35,17.31,17.31,0,0,1,1.21-3.19,13.45,13.45,0,0,1,1.77-2.69A8.69,8.69,0,0,1,403.44,432.77Zm2.79,6.42a4.56,4.56,0,0,0-.33-1.63,1.62,1.62,0,0,0-.66-.78,1.14,1.14,0,0,0-.85-.09,3.7,3.7,0,0,0-.95.38,5.47,5.47,0,0,0-.95.71,4.72,4.72,0,0,0-.85,1.08,6.29,6.29,0,0,0-.65,1.53,8.2,8.2,0,0,0-.33,2,4.45,4.45,0,0,0,0,.73V445a7.85,7.85,0,0,0,.37,2.3,1.55,1.55,0,0,0,.65.78,1.32,1.32,0,0,0,.85.09,4.13,4.13,0,0,0,1-.39,6,6,0,0,0,.95-.7,4.66,4.66,0,0,0,.85-1.08,6.91,6.91,0,0,0,.65-1.54,8.21,8.21,0,0,0,.34-2v-2.54c0-.29,0-.52,0-.7Z" transform="translate(40.04)"/><path class="cls-11" d="M415.79,437.79a2.39,2.39,0,0,0,.38,1.54c.26.3.72.23,1.42-.16l1.41-.81a.31.31,0,0,1,.44,0,.76.76,0,0,1,.18.56v2.34a1.75,1.75,0,0,1-.18.78,1.3,1.3,0,0,1-.44.54l-1.71,1c-1.45.84-2.57.94-3.34.31s-1.16-2.06-1.16-4.29V432l-1.52.87a.33.33,0,0,1-.44,0,.76.76,0,0,1-.19-.58v-2.33a1.8,1.8,0,0,1,.19-.79,1.22,1.22,0,0,1,.44-.54l1.52-.87v-5.79a1.82,1.82,0,0,1,.18-.79,1.29,1.29,0,0,1,.44-.54l1.76-1a.33.33,0,0,1,.44,0,.82.82,0,0,1,.18.56V426l3-1.72a.32.32,0,0,1,.43,0,.72.72,0,0,1,.18.57v2.34a1.58,1.58,0,0,1-.18.79,1.33,1.33,0,0,1-.43.54l-3,1.72Z" transform="translate(40.04)"/><path class="cls-11" d="M427.17,419.08a4.39,4.39,0,0,1,2.3-.72,2.66,2.66,0,0,1,1.77.64,4.21,4.21,0,0,1,1.19,1.78,8.46,8.46,0,0,1,.53,2.77v3.58a16.11,16.11,0,0,1-.54,3.37,14.76,14.76,0,0,1-1.18,3.15,13.67,13.67,0,0,1-1.77,2.68,9.23,9.23,0,0,1-2.3,1.92,4.71,4.71,0,0,1-2.3.74,2.78,2.78,0,0,1-1.77-.63,4.2,4.2,0,0,1-1.2-1.79,9.17,9.17,0,0,1-.52-2.75v-3.58a16,16,0,0,1,.51-3.37,17.39,17.39,0,0,1,1.21-3.17,13,13,0,0,1,1.77-2.7A8.66,8.66,0,0,1,427.17,419.08ZM430,425.5a4.68,4.68,0,0,0-.34-1.65,1.53,1.53,0,0,0-.65-.77,1.26,1.26,0,0,0-.85-.09,3.17,3.17,0,0,0-.95.39,5,5,0,0,0-.95.71,4.41,4.41,0,0,0-.85,1.07,6.71,6.71,0,0,0-.67,1.53,10.11,10.11,0,0,0-.33,2v3.2a5,5,0,0,0,.33,1.63,1.49,1.49,0,0,0,.67.77,1.19,1.19,0,0,0,.85.11,3.76,3.76,0,0,0,.95-.4,5.41,5.41,0,0,0,.95-.7,5.32,5.32,0,0,0,.85-1.09,6.46,6.46,0,0,0,.65-1.53,8.06,8.06,0,0,0,.34-2v-2.51a5.8,5.8,0,0,0,0-.73Z" transform="translate(40.04)"/><path class="cls-11" d="M439.51,424.1a2.4,2.4,0,0,0,.39,1.54c.25.28.72.23,1.41-.17l1.41-.81a.33.33,0,0,1,.44,0,.78.78,0,0,1,.18.57v2.35a1.75,1.75,0,0,1-.18.78,1.16,1.16,0,0,1-.44.54l-1.7,1c-1.46.83-2.57.94-3.34.31s-1.16-2.06-1.16-4.28v-7.64l-1.53.88a.33.33,0,0,1-.44,0,.73.73,0,0,1-.19-.56v-2.35a1.69,1.69,0,0,1,.19-.77,1.07,1.07,0,0,1,.44-.54l1.53-.89v-5.79a1.71,1.71,0,0,1,.18-.77,1,1,0,0,1,.44-.54l1.76-1a.32.32,0,0,1,.43,0,.81.81,0,0,1,.18.58v5.78l3-1.71a.33.33,0,0,1,.44,0,.74.74,0,0,1,.18.57v2.35a1.75,1.75,0,0,1-.18.78,1.22,1.22,0,0,1-.44.54l-3,1.71Z" transform="translate(40.04)"/><path class="cls-11" d="M449.25,424.16l-4.56-13.64a.89.89,0,0,1,0-.23,1.75,1.75,0,0,1,.18-.78,1.16,1.16,0,0,1,.44-.54l1.73-1a.4.4,0,0,1,.49,0,.8.8,0,0,1,.27.4l3.07,9.21,3.07-12.74a3.24,3.24,0,0,1,.28-.73,1.33,1.33,0,0,1,.48-.57l1.73-1a.36.36,0,0,1,.44,0,.77.77,0,0,1,.19.58,1.13,1.13,0,0,1,0,.26l-6.49,27a3.21,3.21,0,0,1-.27.73,1.29,1.29,0,0,1-.49.57l-1.73,1a.36.36,0,0,1-.44,0,.77.77,0,0,1-.18-.57v-.25Z" transform="translate(40.04)"/><path class="cls-11" d="M465.68,416a4.56,4.56,0,0,1-1.29.53,2.8,2.8,0,0,1-1,0,2.32,2.32,0,0,1-.72-.27,2.79,2.79,0,0,1-.49-.42v7.57a1.75,1.75,0,0,1-.18.78,1.21,1.21,0,0,1-.43.54l-1.76,1a.36.36,0,0,1-.44,0,.74.74,0,0,1-.18-.57V401.89a1.82,1.82,0,0,1,.18-.79,1.17,1.17,0,0,1,.44-.52l1.76-1a.35.35,0,0,1,.43,0,.74.74,0,0,1,.18.57V401c.13-.28.29-.6.49-1a8.66,8.66,0,0,1,.72-1.1,8.07,8.07,0,0,1,1-1.1,6.76,6.76,0,0,1,1.29-1,3.15,3.15,0,0,1,2.09-.51,2.56,2.56,0,0,1,1.6.93,5.89,5.89,0,0,1,1,2.06,11.34,11.34,0,0,1,.42,2.89v2.57a17.56,17.56,0,0,1-.42,3.39,19.74,19.74,0,0,1-1,3.27,12.89,12.89,0,0,1-1.6,2.76A7.11,7.11,0,0,1,465.68,416Zm2.16-9.84a16.52,16.52,0,0,0,0-2c-.11-1.48-.41-2.42-.93-2.79a1.67,1.67,0,0,0-1.91.1,5.1,5.1,0,0,0-1.92,2.12,8.56,8.56,0,0,0-.88,3.47v2.66a3.22,3.22,0,0,0,.88,2.4,1.59,1.59,0,0,0,1.92,0,5.22,5.22,0,0,0,1.91-2.1A9.82,9.82,0,0,0,467.84,406.18Z" transform="translate(40.04)"/><path class="cls-11" d="M472.88,402.27a20.51,20.51,0,0,1,.4-4,17.77,17.77,0,0,1,1.13-3.7,13.54,13.54,0,0,1,1.79-3.08,7.93,7.93,0,0,1,2.34-2.09,3.83,3.83,0,0,1,2.35-.63,2.72,2.72,0,0,1,1.78.92,5.49,5.49,0,0,1,1.15,2.22,11.72,11.72,0,0,1,.39,3.23v1.6a1.82,1.82,0,0,1-.18.79,1.09,1.09,0,0,1-.43.52l-7.71,4.46a3.16,3.16,0,0,0,.22,1.29,1.37,1.37,0,0,0,.58.7,1.22,1.22,0,0,0,.86.14,2.37,2.37,0,0,0,1-.36,5.07,5.07,0,0,0,1.2-.91,5.48,5.48,0,0,0,.76-1,5.23,5.23,0,0,1,.41-.63,1.73,1.73,0,0,1,.44-.36l1.85-1.06a.35.35,0,0,1,.45,0,.65.65,0,0,1,.18.56,6.36,6.36,0,0,1-.36,1.49,13.57,13.57,0,0,1-1,2.11,14.59,14.59,0,0,1-1.66,2.24,8.91,8.91,0,0,1-2.27,1.83,4.06,4.06,0,0,1-2.34.67,2.58,2.58,0,0,1-1.79-.94,5.68,5.68,0,0,1-1.13-2.39A15.08,15.08,0,0,1,472.88,402.27Zm5.66-8.59a4.39,4.39,0,0,0-1.15.95,6.55,6.55,0,0,0-1.28,2.57,7,7,0,0,0-.22,1.28l5.22-3a8.35,8.35,0,0,0-.18-1,1.87,1.87,0,0,0-.42-.83,1.07,1.07,0,0,0-.75-.34A2.22,2.22,0,0,0,478.54,393.68Z" transform="translate(40.04)"/></g><path class="cls-12" d="M428,631.76a12.89,12.89,0,0,0-2-2.74,25.05,25.05,0,0,0-5.6-4.33c-4.33-2.57-9.19-4.6-14.29-4.66a26.36,26.36,0,0,0-4.86.41,20.25,20.25,0,0,0-2.57.55,5.2,5.2,0,0,0-1.61.63,8.19,8.19,0,0,1,2.9-3.43c.52-.27-.18-1-.57-.87a5.17,5.17,0,0,0-2.77,2.37,29.46,29.46,0,0,1-1.91,2.89c-.24.27,0,.71.31.83,1.12.51,2.21,1,3.32,1.52.57.26,1.15.51,1.73.72a6.89,6.89,0,0,0,2.18.57c.67,0,.59-.68.15-1a10,10,0,0,0-1.91-.71c-.57-.23-1.12-.46-1.67-.72-.82-.36-1.63-.75-2.45-1.12l.41-.61a.37.37,0,0,0,.33.38,19.4,19.4,0,0,0,3.71-.68,24.77,24.77,0,0,1,4.11-.4,20.81,20.81,0,0,1,7.62,1.29A34.39,34.39,0,0,1,423.58,629a15.36,15.36,0,0,1,2.36,2.67c.7,1,1.28,2.16,2,3.15.13.18.5.36.59,0A4.38,4.38,0,0,0,428,631.76Z" transform="translate(40.04)"/><path class="cls-12" d="M479.1,618.56a3.22,3.22,0,0,0-1-.84,20.64,20.64,0,0,0-1.05-4.32c-.45-1.29-1-2.66-1.29-4a11.08,11.08,0,0,1-.54-2.91,2.89,2.89,0,0,0,0-.72c0-.25-.49-.66-.55-.22v.09h0v.52a7.18,7.18,0,0,1-.4,1.37,14.1,14.1,0,0,1-1.19,2.36c-.54.83-2.2,3.1-2.69,1,0-.2-.26-.42-.46-.27a17.45,17.45,0,0,0-1.59,1.63,4.16,4.16,0,0,1-.95.78c-.58.25-.66-.3-.63-.8v-.51c0-.15-.35-.56-.39-.2a6.64,6.64,0,0,1-.76,3,.81.81,0,0,1-1.14.21,1,1,0,0,1-.21-.21,2.8,2.8,0,0,1-.61-2.1c0-.12-.16-.53-.32-.35-1.85,1.91-1.71,5.24-3.95,6.82a2,2,0,0,1-.32-1.67c.08-.44-.65-.91-.82-.37a18.89,18.89,0,0,1-1.93,5.14c-.41.63-1.17,1.46-2,1.19l-.24-.13c0-.11.11-.22.15-.32a8.73,8.73,0,0,0,.94-2.77c0-.62-.11-1.36-.85-1.48-1-.15-1.58.87-1.73,1.67a4.54,4.54,0,0,0,.46,2.66c-.13.24-.26.49-.4.72a4.53,4.53,0,0,1-1.37,1.64c-1.09.64-2.15-.73-3.26-.49-.92.2-1.29,1.17-1.78,2-.21-.41-.46-.81-.66-1.28s-.49-.51-.75-.33a6.07,6.07,0,0,0-2.21,3,1.47,1.47,0,0,0-.56-.6,1.29,1.29,0,0,0-1.57.4,8.25,8.25,0,0,0-1.72,2.91c-.11-.61-.2-1.28-.34-1.82a6.85,6.85,0,0,0-1.28-3.42c-.86-.83-1.81,0-2.15.88a10.37,10.37,0,0,0-.3,4.22c0,.35.55.62.56.13a13.29,13.29,0,0,1,.3-3.21c.11-.46.27-1.16.73-1.41s.5.06.67.45c.82,1.91.81,4.07,1.28,6.06.12.4.81.77.94.19a10.75,10.75,0,0,1,1.54-3.54c.17-.26.64-1.08,1-1.07s.43,1.28.47,1.61.85.74.95.18a6.36,6.36,0,0,1,2-3.86,6.57,6.57,0,0,1,.67,1.29c.09.3.56.72.86.37a20.73,20.73,0,0,0,1.13-1.79c.18-.24.42-.56.74-.6a2.56,2.56,0,0,1,1.08.36,2.41,2.41,0,0,0,2.88-.41,8.46,8.46,0,0,0,1.29-1.84,1.76,1.76,0,0,0,2.09.13,5.75,5.75,0,0,0,2.13-3c.25-.64.47-1.28.66-1.93a3.28,3.28,0,0,0,.64.85.38.38,0,0,0,.46.06c2.27-1.37,2.57-4.46,3.65-6.72.2,1.08.72,2.49,1.86,2.31.8-.12,1.17-1.13,1.36-2.1.2.4.53.6,1.15.25a12.37,12.37,0,0,0,2.3-2.1c.2.5.54,1,1.11,1,.77,0,1.43-.84,1.85-1.38a13.13,13.13,0,0,0,1.67-2.94c0-.1.08-.21.13-.31a21.27,21.27,0,0,0,.66,2.46,57.51,57.51,0,0,1,1.76,5.92c.06.34.11.7.15,1.05a4.65,4.65,0,0,0-4.43.7,3.5,3.5,0,0,0,.77,5.69c2.18.89,4-1.79,4.38-3.63a8,8,0,0,0,.12-1.38,1.7,1.7,0,0,1,.38.33C478.93,619.5,479.44,619,479.1,618.56Zm-25.69,2.19a1.86,1.86,0,0,1,.59-1.12.85.85,0,0,1,.3-.15,5,5,0,0,1-.45,1.78c-.1.28-.23.55-.36.84a3.29,3.29,0,0,1-.17-1.35Zm23.12.88c-.59.79-1.67,1.74-2.71,1.29a2.4,2.4,0,0,1-1-2.75c.49-1.95,3-2.66,4.7-1.94a5.26,5.26,0,0,1-1,3.4Z" transform="translate(40.04)"/><path class="cls-12" d="M470.88,630.51c-.35.41-1,1.19-1.66,1s-.77-.91-.88-1.41-.7-.71-.94-.34c-.82,1.29-1.08,3.11-2.39,3.93a1.6,1.6,0,0,1-2.07-.25,3.6,3.6,0,0,1-.6-2.11V631c.32-.54.63-1.1.91-1.65a7.54,7.54,0,0,0,1-3.12c0-.59-.38-1.35-1.08-1.07s-1.14,1.55-1.28,2.24a13.25,13.25,0,0,0-.46,2.93v.19a9.94,9.94,0,0,1-2.7,3.17c-.63-.84-1.58-1.56-2.57-.93a2.81,2.81,0,0,0-1.08,1.28h0a2.16,2.16,0,0,0-2.33.15,8.87,8.87,0,0,0-3,3.05,2.54,2.54,0,0,0-1-1.35,2.93,2.93,0,0,0-2.84.15c-2.11,1.11-4.19,3.73-3.76,6.23,0,.36.64.63.59.13-.23-2.05,1.58-4.2,3.21-5.24a2.84,2.84,0,0,1,2.31-.61c.95.38.86,2,.82,2.78,0,.52.95.9,1,.26a6.6,6.6,0,0,1,2.68-4c.37-.29,1.21-1,1.72-.88.22,0,.3.27.34.52a6.21,6.21,0,0,0-.13,1.29c0,.43.91.92,1,.36a7.87,7.87,0,0,0,.12-1.19,3.44,3.44,0,0,1,.63-1.59c.72-1,1.38-.51,1.92.4a.61.61,0,0,0,.77.31,7.51,7.51,0,0,0,2.28-2.21l.27-.41a3,3,0,0,0,2.27,2.7c2.33.48,3.14-1.82,4-3.58a2.31,2.31,0,0,0,1.29,1.15,2,2,0,0,0,2.28-1.36C471.6,630.74,471.14,630.21,470.88,630.51Z" transform="translate(40.04)"/><path class="cls-12" d="M535.15,597.42a12.86,12.86,0,0,1-2.74-1.13,25.85,25.85,0,0,1-4.75-3.2,16.88,16.88,0,0,1-3.41-4.12,13.92,13.92,0,0,1-1-2.12,10.67,10.67,0,0,0,3.6,1.91.66.66,0,0,0,.83-.31c.12-.34-.19-.64-.47-.75a16,16,0,0,1-3.86-2.28c-1.19-1-2.32-2-3.59-2.88-.26-.17-.83-.25-1,.15a12,12,0,0,0-.52,4.21,8.34,8.34,0,0,0,.25,2.11,2.45,2.45,0,0,0,.45,1c.35.36.63-.18.43-.31.07,0,0,.08,0,0a.49.49,0,0,0,0-.17v-1.21a14.7,14.7,0,0,1,.09-1.88,14.18,14.18,0,0,1,.33-2.44l1.09.89a.63.63,0,0,0,0,.65c.86,1.38,1.2,3,2.07,4.42a18.49,18.49,0,0,0,3.61,4.23,24.87,24.87,0,0,0,5.14,3.27,10.37,10.37,0,0,0,2.41.93c.39.09.79.16,1.18.24l.51.12h.32c0,.12.12.25.24.21l.18-.09a.26.26,0,0,0,.12-.27C536.55,597.75,535.88,597.65,535.15,597.42Z" transform="translate(40.04)"/><path class="cls-12" d="M554,601.11a6.24,6.24,0,0,1-.83-.49.31.31,0,0,0-.43.12l0,0a18.63,18.63,0,0,1-4.4-2l-.7-.4a37.62,37.62,0,0,1,2.25-4.76c.35-.6-.85-1.11-1.19-.52a35.39,35.39,0,0,0-2.3,4.56,18,18,0,0,0-3.77-1.71c-.55-.17-.64.58-.24.83l3.46,2.19-.38.88c-.46,1.11-.92,2.21-1.45,3.31-.24.51-.51,1-.78,1.52s-.44.84-.08,1.35c.08.12.25.27.4.22,1.05-.32,1.48-1.72,1.91-2.64s.94-2.16,1.38-3.27a6.25,6.25,0,0,0,.24-.6l1.11.67a24,24,0,0,0,2.67,1.37,6.16,6.16,0,0,0,3,.66.69.69,0,0,0,.55-.81A.68.68,0,0,0,554,601.11Z" transform="translate(40.04)"/><path class="cls-12" d="M606.27,568.09c0-.39-.68-.61-.63-.09a3.17,3.17,0,0,1-1.57,3.09,5.47,5.47,0,0,1-3.53-.54,20.52,20.52,0,0,1-3.76-2.07,4.51,4.51,0,0,0-.2-1.07c-.66-3-2.4-6.55-5.57-7.49a.53.53,0,0,0-.62.18,3.62,3.62,0,0,0,.43,3.63,17,17,0,0,0,3.66,4.18c.38.33.77.65,1.18,1a8.09,8.09,0,0,1-.22,3,3.13,3.13,0,0,1-1.28,1.91,2.65,2.65,0,0,1-1.79.27,4.22,4.22,0,0,0,.57-1.83,3.68,3.68,0,0,0-3.23-3.48c-1.6-.26-2.37,1.12-2.05,2.57a4.73,4.73,0,0,0,2.86,3.19,4.05,4.05,0,0,1-1.09.77l-.06-.09a1.4,1.4,0,0,0-1.1-.54c-.32,0-.61.16-.5.52a1.86,1.86,0,0,0,.3.53,21.35,21.35,0,0,1-2.79,3,4.41,4.41,0,0,1-2,1.29c-.59,0-.51-.93-.5-1.4s-.75-1-1.08-.49c-1,1.58-1,3.6-1.94,5.14a9.21,9.21,0,0,1-2.09-3.24c-.16-.37-1-.6-1.17-.1a19.45,19.45,0,0,1-1.29,4.09c-.24.47-.64,1.07-1.28,1.07a2,2,0,0,1-1.49-.94V584a7.89,7.89,0,0,0,1-3.3,8,8,0,0,0-1.44-4.65.79.79,0,0,0-.86-.36c-2.94.68-1.49,5.24-.72,7a9.65,9.65,0,0,0,.58,1.16l-.19.37a21,21,0,0,1-4,5.64,11.54,11.54,0,0,1-1.17-1.77c-.17-.28-.69-.55-1-.3a7.1,7.1,0,0,0-2.24,3.86,2.7,2.7,0,0,0-.34-.25,1.61,1.61,0,0,0-1.78.47,7.34,7.34,0,0,0-1.64,2.9c-.18-.67-.31-1.36-.5-1.94-.32-1-.79-2.24-1.89-2.57-2.57-.72-2.65,3.35-2.06,4.84.18.45,1,.56.79,0a4.65,4.65,0,0,1-.09-2.4c.1-.6.73-2.17,1.54-1.28a7,7,0,0,1,1,2.94,7.16,7.16,0,0,0,.93,2.57c.26.34,1,.42,1.1-.12a9.14,9.14,0,0,1,1.28-3.29c.17-.29.54-1,.91-1.06h0l.07.1a2.73,2.73,0,0,1,.42,1c.14.53,1.29.83,1.29.11a7.42,7.42,0,0,1,1.56-4.41,7.12,7.12,0,0,0,1.52,1.85.69.69,0,0,0,.78,0,19.79,19.79,0,0,0,4.57-6.13,4.25,4.25,0,0,0,.93.71,2.42,2.42,0,0,0,3.33-.82l0,0a9.52,9.52,0,0,0,1.16-3,11,11,0,0,0,2.23,2.57.69.69,0,0,0,.88,0,10.62,10.62,0,0,0,1.67-4.19,1.34,1.34,0,0,0,.7.56,2.7,2.7,0,0,0,2.44-.69,18.39,18.39,0,0,0,3.86-3.92,2.58,2.58,0,0,0,1.55-.42,4.59,4.59,0,0,0,1-.91,4.12,4.12,0,0,0,3.38-.32,5.27,5.27,0,0,0,1.81-4.82,21.92,21.92,0,0,0,2.91,1.64,7.56,7.56,0,0,0,4.57.84,2.56,2.56,0,0,0,1.72-1.21A4.43,4.43,0,0,0,606.27,568.09ZM570.82,580c-.16-.83-.35-2.32.4-3a6.71,6.71,0,0,1,.93,3.71,6,6,0,0,1-.51,1.9,11.74,11.74,0,0,1-.77-2.66Zm17.84-9.25c.09-1.59,1.87-.94,2.57-.18a2.45,2.45,0,0,1-.13,3.17,3.27,3.27,0,0,1-2.39-3Zm3.71-6.42c-.6-.82-1.42-2.12-1.08-3.19a7.66,7.66,0,0,1,3.54,4.38,14.2,14.2,0,0,1,.6,2,17.85,17.85,0,0,1-3-3.19Z" transform="translate(40.04)"/><path class="cls-8" d="M573.72,366.11c-1.14-2.46-2.74-4.77-4.11-7.11-1.89-3.21-2.75-5.55-2.57-5.85.62-1.08,2.34-4.4,3.57-6.42,1-1.64,2.79-4.61,2.33-6.64-.18-.81-1.9-.64-2.79-.33-2.22.78-4.38,1.77-6.62,2.56-1.52.51-4.06,1.57-4.31,1.52-.7-.12-4.47-3.34-6-4.65a35,35,0,0,0-4.79-3.7c-.66-.41-1.29,1.07-1.29,1.93a87.12,87.12,0,0,0,.49,11.31l-.86.27c-2.45.79-12.76,4.9-11.95,6,1.29,1.77,5.06,3.46,6.91,4.09q3.16,1.11,6.43,1.91c.78,3.48-1.47,10.84.31,14.13a2,2,0,0,0,2.66,1.12,2.1,2.1,0,0,0,.26-.13,20.33,20.33,0,0,0,3.86-4.47c1.28-1.75,3.85-5.78,5.26-6.31,1.82-.67,4.26.81,5.91,1.47a12.62,12.62,0,0,0,6.26,1.16C573.87,367.91,574.16,367,573.72,366.11ZM559,362.39c-2.9.95-6.12,7.4-8.25,9.62-.29-1.55.41-7,.3-8.52-.13-1.9.54-4.31-1.48-5.13-2.57-1.06-5.36-1.51-8-2.5-.64-.24-1.29-.5-1.92-.81h-.1a7.73,7.73,0,0,1,1.48-.84,65,65,0,0,1,7.54-2.57,1,1,0,0,0,.77-1.15,1,1,0,0,0-.08-.23.64.64,0,0,0,.26-.57c.06-3.36-.14-6.7-.08-10.05a112.35,112.35,0,0,0,9.29,7.57s7.71-2.92,10.79-4.19c-.67,1.28-2.25,3.53-3,4.82-1.09,1.92-3,5.38-3,5.38,0,.81,1.29,3.35,2.76,6,1,1.8,2.38,4.09,3.47,5.82-3.65-.74-7-3.91-10.85-2.68Z" transform="translate(40.04)"/><path class="cls-12" d="M540.63,366.4c-.68,9.27-8.34,17.52-16.11,21.83a38.47,38.47,0,0,1-14.37,4.41,49.68,49.68,0,0,1-7.71.3c-1.28,0-2.64-.2-4-.31a3.92,3.92,0,0,0,2.13-2.05c.17-.42-.23-1.38-.8-1.09-.81.4-1.55.95-2.37,1.29a9,9,0,0,1-2.17.63c-1.46.23-2.94.36-4.38.7-1,.23-.86,1.54,0,1.9,1.94.83,3.85,1.51,5.83,2.37.86.38,1.7.79,2.57,1.28a22.72,22.72,0,0,0,2.65,1.56.76.76,0,0,0,.9-.27c.22-.36,0-.66-.12-1a3.68,3.68,0,0,0-1.28-1.29c-.32-.23-.67-.45-1-.65-.76-.45-1.55-.85-2.34-1.29-.36-.18-.74-.32-1.09-.47a43.19,43.19,0,0,0,14.7.24,38.64,38.64,0,0,0,15-5c7.84-4.66,15.57-13.3,15.12-22.94C541.59,366.11,540.76,365.51,540.63,366.4Z" transform="translate(40.04)"/><path class="cls-12" d="M540.76,486.54c2.23-4.18,6.32-9.22,4-14.13-1.76-3.7-6.23-4.88-10-4.87-.32,0-.32.71,0,.72,3.85.1,9.48,1.67,9.79,6.31.18,2.73-1.6,5-2.95,7.25a83.24,83.24,0,0,0-4.05,7.49,21.08,21.08,0,0,0-2.38,7.27c-.13,1.75.92,4.19,3.11,3.63.72-.18.31-1.29-.3-1.43-.81-.11-1.28-.09-1.39-1a8.18,8.18,0,0,1,.57-3.24A47.21,47.21,0,0,1,540.76,486.54Z" transform="translate(40.04)"/><path class="cls-12" d="M593.35,470c-1.92-3.85-5.05-7.13-7.53-10.59a42.61,42.61,0,0,1-2.85-3.86,5.7,5.7,0,0,0-1-3.66c-.23-.31-.87-.49-.91.08a6.41,6.41,0,0,0,.73,3.36,17.53,17.53,0,0,1-.54,2.89,12.83,12.83,0,0,1-2.63,5.53c-2,2.19-5.14.47-6.83-2,0-1.86,0-4.09-1.29-5.49-.24-.27-.55-.25-.69.1-.74,1.84,0,3.85,1.14,5.61a10.35,10.35,0,0,1-.12,1.29,29.5,29.5,0,0,1-.77,4.85,6,6,0,0,1-.63-.87c-.07-.14-.29-.27-.43-.16-1.75,1.29-1.42,3.51-1.67,5.46a21.67,21.67,0,0,1-.8-2.35c-.1-.34-.62-.7-.8-.19-1.28,3.66.48,7.71-.46,11.46-.55,2.16-2.49,3.2-4.33,1.59l-.27-.26c.62-2.1.66-4.61-.33-5.73-.22-.24-.53-.26-.66.07a4.45,4.45,0,0,0-.26,1.49c-.33-.68-.61-1.4-1-2.06-.18-.33-.68-.46-.81,0-.45,1.7.45,4.63,2,6.62-.49,1.18-1.44,2.71-2.57,1.28-.32-.42-.7,0-.68.36a24.72,24.72,0,0,1-.19,4.79,4.15,4.15,0,0,1-.85,2.19c-1.09,1.22-2,.29-2.3-1.05-.12-.6-.84-.58-.8.06.12,2.22-.68,6-2.57,7.35a1.6,1.6,0,0,1-1.8.29c.76-2.48,1.06-5.34-.33-7.41-.09-.14-.35-.28-.49-.14-1.6,1.54-2,6.2-.19,8.08-.22.6-.45,1.18-.67,1.67-1.15,2.57-3.36,6.11-6.67,5.72-.3,0-.32.65,0,.7,3.59.53,6.14-3.29,7.43-6.13.19-.45.4-.95.58-1.46a2.66,2.66,0,0,0,1,.3c3,.2,4.26-4.15,4.53-7.16.82,1.05,2.11,1.37,3.2-.23s1.14-4.32,1-6.42c1.16.69,2.25-.38,3-2,1.28,1.28,2.9,1.9,4.53.81,1.84-1.29,1.89-4,1.89-5.93s-.59-4.59-.38-6.8a8.56,8.56,0,0,0,1,2.09c.15.23.54.28.63,0,.46-1.81-.16-4.42,1.28-5.83.27.37.57.69.82,1.08s.48.28.58,0a21,21,0,0,0,1.17-6.28c.1.14.22.28.33.42,1.52,1.73,4.18,3.85,6.53,2.38s3.36-4.41,3.92-6.77c.14-.59.27-1.29.37-1.94.65.95,1.39,1.86,2,2.76,2.51,3.62,5.23,7.09,7.81,10.66C593.16,471.36,593.66,470.68,593.35,470Zm-46.17,22.38a8,8,0,0,1,0,5.57A6.4,6.4,0,0,1,547.18,492.41ZM559.76,481a.41.41,0,0,0,.43.14c-.07.36-.15.7-.24,1a7.38,7.38,0,0,1-1.5-3.29,7.52,7.52,0,0,0,1.29,2.09Z" transform="translate(40.04)"/><path class="cls-12" d="M539.47,474a2.12,2.12,0,0,0-.29-1.07c-.12-.2-.26-.39-.4-.58a11.54,11.54,0,0,0-1.1-1.21,11.26,11.26,0,0,0-2.16-1.53,27.43,27.43,0,0,0-2.69-1.28,13.16,13.16,0,0,0,1.29-.73,13.87,13.87,0,0,1,3.85-2.1c.59-.14.13-1.28-.37-1.28a8,8,0,0,0-3.94,1.28,11.71,11.71,0,0,1-3.59,1.65c-1,.18-.42,1.28.13,1.67,1.45.84,3,1.42,4.51,2.2a9,9,0,0,1,1.82,1.29,6.71,6.71,0,0,1,.79.81l.37.5a8.18,8.18,0,0,0,.76.8C538.88,474.77,539.59,474.7,539.47,474Z" transform="translate(40.04)"/><path class="cls-12" d="M419.2,682a7.6,7.6,0,0,0-2.73-3.7,13.85,13.85,0,0,0-4.38-2.35,20.92,20.92,0,0,0-10.41-.85,13.43,13.43,0,0,0-5,1.82,1.21,1.21,0,0,0-.2.19l-.36-.32a10.27,10.27,0,0,1,.82-1.28,4.89,4.89,0,0,1,.91-1l.32-.2.18-.1c.14-.13,0-.17.22-.15s.19-.33,0-.39a1.28,1.28,0,0,0-1.17-.12,3.79,3.79,0,0,0-1.19,1,9.46,9.46,0,0,0-1.42,2.08.56.56,0,0,0,.18.63,21.85,21.85,0,0,0,2,1.62l1.11.8a3.14,3.14,0,0,0,1.6.81.28.28,0,0,0,.27-.21c.16-.63-.85-1.1-1.28-1.39a13,13,0,0,1-1.07-.77l-.1-.06a15.53,15.53,0,0,1,8.39-1.9,17.31,17.31,0,0,1,9.07,2.57,10.85,10.85,0,0,1,1.81,1.43,15.19,15.19,0,0,1,1.54,2.11C418.6,682.43,419.32,682.55,419.2,682Z" transform="translate(40.04)"/><path class="cls-12" d="M434.67,673c-.4.63-.51,1.37-.87,2-.11.18-.27.49-.48.55s-.73-.4-.92-.63-.77-.45-1,0a6,6,0,0,0-.5,1.48,2.46,2.46,0,0,1-.22-.39c-.18-.4-1.14-.54-1.14,0a6.67,6.67,0,0,1-1.29,3.54c-.46.68-1.4,1.92-2.33,1.85s-1.29-1.92-1.29-2.73a8.46,8.46,0,0,1,.81-3.7c.59-1.28,1.62-2.21,3-1.45.47.26.48-.44.15-.64-3.37-2.11-5.14,2.81-5.14,5.36a4.4,4.4,0,0,0,1.71,4c1.28.72,2.7-.2,3.57-1.18a8.3,8.3,0,0,0,1.83-3.42l.24.3c.27.36,1,.35,1.05-.14a14,14,0,0,1,.35-1.71c.62.47,1.36.77,2,.19a4.31,4.31,0,0,0,1.14-2.89C435.43,673,434.88,672.68,434.67,673Z" transform="translate(40.04)"/><path class="cls-12" d="M440.32,672c-.31-.13-.68-.17-1-.27a5.62,5.62,0,0,1-.89-.43.28.28,0,0,0-.44.27,3.45,3.45,0,0,1,0,1.11v-.12h0v-.1s-.07-.31-.1-.46a.48.48,0,0,0-.39-.39c-.2,0-.25.18-.23.34a2.84,2.84,0,0,0,.95,1.9c.2.15.52.14.52-.18a10.89,10.89,0,0,1,.15-1.4l.44.22a2.54,2.54,0,0,0,1.22.21c.15,0,.19-.19.17-.3A.48.48,0,0,0,440.32,672Z" transform="translate(40.04)"/><path class="cls-12" d="M457.88,660.22c-1,.41-1,1.28-1.66,2.08s-1.42-.18-2.31.21a2.4,2.4,0,0,0-.9.86c-.16.23-.52,1-.87,1s-.69-.91-.84-1.16a6,6,0,0,0-.7-1.1c-.22-.24-.81-.46-1,0a8.15,8.15,0,0,0-.49,2.29l-.1-.27a.73.73,0,0,0-1-.39.64.64,0,0,0-.22.14,2.11,2.11,0,0,0,.32,3,8.13,8.13,0,0,1-.39,2c-.4,1.15-1.28,2.82-2.8,2.57-2.91-.58-2.57-5.14-2.09-7.19.23-1.13.79-3.23,2.26-3.3.62,0,.28-.85-.19-.86-1.62,0-2.48,1.47-2.93,2.84a12.62,12.62,0,0,0-.48,5.53,4.36,4.36,0,0,0,2.66,3.79,3.34,3.34,0,0,0,4.25-1.73,8.22,8.22,0,0,0,1-3,.46.46,0,0,0,.27-.24,12.24,12.24,0,0,0,.71-3.54,4.5,4.5,0,0,0,1.1,1.46c.93.68,1.71.1,2.25-.71.26-.4.53-1,1.05-.86s.77.33,1.29.19a2,2,0,0,0,1.28-1c.34-.6.44-1.29,1.12-1.56S458.38,660,457.88,660.22Z" transform="translate(40.04)"/><path class="cls-12" d="M461.88,660.79c-.57,0,0,.88.42.84S462.4,660.71,461.88,660.79Z" transform="translate(40.04)"/><path class="cls-12" d="M387.44,691.92a8,8,0,0,0-1.56-4.79,27.73,27.73,0,0,0-3.68-4.74,15.61,15.61,0,0,0-5-3.08c-1.95-.8-4.15-.87-6-1.76-1.29-.62-1.69,1.14-.53,1.68a28.54,28.54,0,0,0,4.55,1.22,15.21,15.21,0,0,1,5,2.4,16.17,16.17,0,0,1,3.11,3.54,10.31,10.31,0,0,1,2,3.94c-2.82-1.28-5.14-3.43-8.5-3.16-.67,0-.61.94-.31,1.28,1.63,2,4.08,3,5.84,4.83a10,10,0,0,1,2.78,7.08c-2.38-.87-4-2.68-6.82-1.87-.73.2-.18,1.22.16,1.49a14.21,14.21,0,0,1,5.58,9.81,26,26,0,0,0-7.12-4.16c-1.6-.61-3.25-1.13-4.87-1.75s-3-1.42-4.58-1.9a.59.59,0,0,0-.75.63,10.11,10.11,0,0,0,1.69,6.13c.34.5.72,1,1,1.5a1.9,1.9,0,0,0,.35.49h-.13a12.34,12.34,0,0,1-3.76-1,19.63,19.63,0,0,1-6.42-3.85,37.48,37.48,0,0,1-5.67-5.38c-.22-.31-.85-.54-1.17-.23-1.9,1.87-.64,4.84-.87,7.23-3.56-2.17-3.85-7.28-4-11a15,15,0,0,1,1.09-5.37,1.61,1.61,0,0,0,.16-.78.54.54,0,0,0-.53-.52c-.27,0-.45.32-.57.57a21.62,21.62,0,0,0-1.28,3.42,15.85,15.85,0,0,0-.21,3.08,14.85,14.85,0,0,0,.56,4.82c.82,2.8,2.35,6.42,5.25,7.54A.54.54,0,0,0,353,709v0c.44-1.83-.54-4.91.43-6.66a43.86,43.86,0,0,0,5.93,5.55A21,21,0,0,0,367.4,712c1,.27,4.46,1.51,4.14-.68a8.08,8.08,0,0,0-1.8-3.12,7.46,7.46,0,0,1-1.45-4.26c1.28.48,2.42,1.13,3.68,1.6,1.53.58,3.1,1.09,4.63,1.67a28,28,0,0,1,8,5c.33.28,1.18.28,1.2-.33a16.48,16.48,0,0,0-5.07-11.77c1.76.25,3.29,1.72,5,2.2.45.12.86,0,1-.46.64-2.75-.65-5.78-2.11-8.05-1.29-2.07-3.46-3.14-5.23-4.61,2.43.61,4.59,2.63,6.92,3.4a.74.74,0,0,0,1-.23A.68.68,0,0,0,387.44,691.92Z" transform="translate(40.04)"/></g></g></g><g id="freepik--rocket--inject-2-2" data-name="freepik--rocket--inject-2"><g id="freepik--rocket--inject-2-3" data-name="freepik--rocket--inject-2"><path class="cls-4" d="M761,563.65l-42.68-15.72a41.76,41.76,0,0,1,.18-5.48,11.13,11.13,0,0,1,.19-1.64c.08-.54.17-1,.27-1.54s.23-1,.37-1.5a3,3,0,0,1,.23-.74c.08-.24.11-.37.17-.55h0a12.51,12.51,0,0,1,5.6-7l5.47-3.15.6-.35a15.91,15.91,0,0,1,5.58-1.77,50.82,50.82,0,0,0,12.21-2.93,15.31,15.31,0,0,0,3.08-3.44c4.16-6.42,5.21-20,4.94-26.82l6.07-3.51L767,560.16l-6.36-2.36V558Z" transform="translate(40.04)"/><path class="cls-6" d="M718.27,547.93,761,563.65l-.3-5.65v-.2l-2.27-43.67L757.18,491c.27,6.79-.79,20.46-4.95,26.82a15.31,15.31,0,0,1-3.08,3.44c-4.21,3.52-10.48,5.38-18.25,6.43a15.59,15.59,0,0,0-2.34.45,14.33,14.33,0,0,0-3.27,1.28,12.58,12.58,0,0,0-5.6,7h0c-.06.18-.11.38-.16.56s-.17.48-.23.73c-.15.49-.27,1-.38,1.5s-.19,1-.27,1.54-.15,1.08-.19,1.65A40.54,40.54,0,0,0,718.27,547.93Z" transform="translate(40.04)"/><path class="cls-8" d="M760.31,551.45l-40.63-15a24.86,24.86,0,0,0-1.28,6L760.66,558Z" transform="translate(40.04)"/><path class="cls-13" d="M760.31,551.45l-40.63-15a24.86,24.86,0,0,0-1.28,6L760.66,558Z" transform="translate(40.04)"/><path class="cls-4" d="M803.42,563.65l42.68-15.72a43.57,43.57,0,0,0-.17-5.48,11.13,11.13,0,0,0-.2-1.64c-.07-.54-.16-1-.27-1.54s-.24-1-.37-1.5l-.23-.74c-.07-.18-.12-.37-.18-.55h0a12.45,12.45,0,0,0-5.59-7l-5.46-3.15-.58-.35a16,16,0,0,0-5.6-1.77,50.78,50.78,0,0,1-12.19-2.93,15.8,15.8,0,0,1-3.09-3.44c-4.16-6.42-5.2-20-4.93-26.82l-6.08-3.51-3.76,72.66,6.35-2.36V558Z" transform="translate(40.04)"/><path class="cls-6" d="M846.1,547.93l-42.68,15.72.3-5.65v-.2L806,514.13,807.2,491c-.27,6.79.77,20.46,4.93,26.82a16.06,16.06,0,0,0,3.09,3.44c4.22,3.52,10.49,5.38,18.26,6.43a15.33,15.33,0,0,1,2.32.45,14.41,14.41,0,0,1,3.28,1.28,12.45,12.45,0,0,1,5.59,7h0a1.74,1.74,0,0,0,.18.56l.23.73c.13.49.25,1,.37,1.5s.19,1,.27,1.54.14,1.08.19,1.65A42.23,42.23,0,0,1,846.1,547.93Z" transform="translate(40.04)"/><path class="cls-8" d="M804.09,551.45l40.64-15a25.37,25.37,0,0,1,1.29,6L803.72,558Z" transform="translate(40.04)"/><path class="cls-13" d="M804.09,551.45l40.64-15a25.37,25.37,0,0,1,1.29,6L803.72,558Z" transform="translate(40.04)"/><path class="cls-5" d="M810,615.93h0l-6.84-24.23H758.76l-6.84,24.23h0c-1,4.93,1.8,10.06,8.35,13.83,11.41,6.59,29.91,6.59,41.31,0C808.15,626,810.92,620.86,810,615.93Z" transform="translate(40.04)"/><ellipse class="cls-5" cx="821" cy="592.53" rx="22.26" ry="10.26"/><path class="cls-6" d="M806.94,605.14l-1.54-5.43a17.18,17.18,0,0,1-6,5.47c-10.16,5.87-26.64,5.87-36.79,0a17.21,17.21,0,0,1-6.06-5.47L755,605.14c.22,3.67,2.73,7.31,7.59,10.11,10.15,5.86,26.63,5.86,36.79,0C804.2,612.45,806.72,608.81,806.94,605.14Z" transform="translate(40.04)"/><path class="cls-6" d="M810,615.93l-.07-.32-.74-2.63c.1,3.94-2.49,8-7.82,11.07-11.26,6.48-29.55,6.48-40.75,0-5.3-3.08-7.87-7.13-7.87-11.09l-.75,2.66v.31c-1,4.93,1.8,10.06,8.35,13.83,11.41,6.59,29.91,6.59,41.31,0C808.15,626,810.92,620.86,810,615.93Z" transform="translate(40.04)"/><path class="cls-14" d="M799.89,591.7H796c1.29,5.5,4.63,28.17,5.07,31.53.53,4.13-8.64,11.11-32.77,9.81,10.86,3,24.26,1.91,33.25-3.28a20.3,20.3,0,0,0,5.9-4.89Z" transform="translate(40.04)"/><path class="cls-8" d="M831.9,448.52c0-63.1-26.66-117.63-46.48-130.25l-.54-.35-.06-.1h0a7.7,7.7,0,0,0-7.71,0H777l-.54.34C756.66,330.79,730,385.32,730,448.41c0,60.72,17,130,18.64,134.94a1.49,1.49,0,0,0,.13.39h0c1.28,3.52,4.21,6.88,9,9.62,12.84,7.41,33.61,7.41,46.45,0,4.9-2.83,7.92-6.35,9.08-10C814.88,578.45,831.9,509.21,831.9,448.52Z" transform="translate(40.04)"/><path class="cls-15" d="M831.9,448.52c0-63.1-26.66-117.63-46.48-130.25l-.54-.35-.06-.1h0a7.7,7.7,0,0,0-7.71,0H777l-.54.34C756.66,330.79,730,385.32,730,448.41c0,60.72,17,130,18.64,134.94a1.49,1.49,0,0,0,.13.39h0c1.28,3.52,4.21,6.88,9,9.62,12.84,7.41,33.61,7.41,46.45,0,4.9-2.83,7.92-6.35,9.08-10C814.88,578.45,831.9,509.21,831.9,448.52Z" transform="translate(40.04)"/><path class="cls-5" d="M799.91,333.44c-4.9-7-9.89-12.25-14.49-15.17l-.52-.35-.08-.1h0a7.7,7.7,0,0,0-7.71,0H777l-.53.34c-4.6,2.94-9.58,8.13-14.51,15.19a127.1,127.1,0,0,0-8.49,14.13c.87,3.26,3.47,6.42,7.82,8.88,10.85,6.29,28.45,6.29,39.31,0,4.34-2.56,6.95-5.62,7.81-8.88A121.4,121.4,0,0,0,799.91,333.44Z" transform="translate(40.04)"/><path class="cls-16" d="M730,448.52c0,60.72,17,129.94,18.64,134.94a1.43,1.43,0,0,0,.13.38h0c1.28,3.52,4.21,6.89,9,9.62a36.59,36.59,0,0,0,7.15,3.11c-8.36-29.84-18.08-95.94-18.08-146.45,0-69.91,17.21-119.46,29.64-131.79C756.66,330.89,730,385.42,730,448.52Z" transform="translate(40.04)"/><path class="cls-17" d="M831.9,448.52c0,60.72-17,129.94-18.64,134.94a1.43,1.43,0,0,1-.13.38h0c-1.28,3.52-4.23,6.89-9,9.62,9.61-35.17,20.55-92.83,20.55-143.4,0-69.92-27-119.46-39.36-131.79C805.24,330.89,831.9,385.42,831.9,448.52Z" transform="translate(40.04)"/><path class="cls-5" d="M755.79,582l-39,37.77-6.36-2.87c-1.59-12.27,1.29-23.54,9-36,3.28-5.27,6.28-10.18,9-14.81a149.65,149.65,0,0,0,10.28-20.63c4.09-10.62,4.7-17,3.85-24a4,4,0,0,0-.07-.69,1.63,1.63,0,0,0-.09-.67l3.35,1.29Z" transform="translate(40.04)"/><path class="cls-8" d="M710.47,603.83a45.44,45.44,0,0,0-.46,7.46l6.33,2.85V614a48.59,48.59,0,0,1,.46-7.23h0Z" transform="translate(40.04)"/><path class="cls-18" d="M710.47,603.83a45.44,45.44,0,0,0-.46,7.46l6.33,2.85V614a48.59,48.59,0,0,1,.46-7.23h0Z" transform="translate(40.04)"/><path class="cls-4" d="M745.78,521.47c.92,6.42.68,14.36-2.32,25.9-2.75,10.59-9.07,22.66-17.69,36.51-7.71,12.37-10.6,23.65-9,36l39-37.81Z" transform="translate(40.04)"/><path class="cls-8" d="M754,570.71l-37.17,36a46.84,46.84,0,0,0-.48,7.48L755,576.8Z" transform="translate(40.04)"/><path class="cls-5" d="M806.12,582l39.07,37.77,6.43-2.87c1.59-12.27-1.29-23.54-9-36-3.27-5.27-6.28-10.18-9-14.81a149.59,149.59,0,0,1-10.27-20.63c-4.09-10.62-4.71-17-3.86-24a4.06,4.06,0,0,1,.08-.69,1.63,1.63,0,0,1,.09-.67l-3.35,1.29Z" transform="translate(40.04)"/><path class="cls-8" d="M851.44,603.83a45.44,45.44,0,0,1,.46,7.46l-6.33,2.85V614a47.22,47.22,0,0,0-.48-7.23h0Z" transform="translate(40.04)"/><path class="cls-18" d="M851.44,603.83a45.44,45.44,0,0,1,.46,7.46l-6.33,2.85V614a47.22,47.22,0,0,0-.48-7.23h0Z" transform="translate(40.04)"/><path class="cls-4" d="M816.12,521.47c-.92,6.42-.68,14.36,2.32,25.9,2.76,10.59,9.06,22.66,17.7,36.51,7.7,12.37,10.59,23.65,9,36l-39-37.81Z" transform="translate(40.04)"/><path class="cls-8" d="M807.94,570.71l37.18,36a48,48,0,0,1,.47,7.48L807,576.8Z" transform="translate(40.04)"/><path class="cls-6" d="M781,320.39a.61.61,0,0,1-.61-.61h0V290.24a.61.61,0,1,1,1.21,0v29.54a.61.61,0,0,1-.6.61Z" transform="translate(40.04)"/><path class="cls-8" d="M785.19,290.21A4.24,4.24,0,1,1,781,286h0A4.24,4.24,0,0,1,785.19,290.21Z" transform="translate(40.04)"/><circle class="cls-8" cx="821.01" cy="414.9" r="22.31"/><g class="cls-19"><circle cx="821.01" cy="414.9" r="22.31"/></g></g></g><g id="freepik--Scissors--inject-2"><g id="freepik--scissors--inject-2-2" data-name="freepik--scissors--inject-2"><path class="cls-6" d="M418.88,756.91l75-16.61.17,2s-1.61,2.73-19.13,7.91-60.84,14.35-60.84,14.35l-1.74-2.4Z" transform="translate(40.04)"/><path class="cls-4" d="M472.68,723.73A51.42,51.42,0,0,1,463,734.85c-5.24,4.12-33.29,28.44-33.29,28.44l-9,5L418,766.73l4.07-9.49s31.69-22.47,38.53-27.17S473.59,722.37,472.68,723.73Z" transform="translate(40.04)"/><polygon class="cls-6" points="458.02 764.46 460.73 766.04 460.02 767.84 458.02 766.67 458.02 764.46"/><polygon class="cls-4" points="512.84 721.22 512.84 723.48 510.57 726.78 510.57 723.3 512.84 721.22"/><path class="cls-8" d="M428.9,792.9c3.48-5.41-.58-10.56-.19-15.22s1-14.45,1-14.45l-9,5-4.26,10.92c-1.24,3.21-6.66,6.65-10,9.44s-6.11,9.47,3.16,12.07S425.41,798.31,428.9,792.9Zm-16.3,4.16c-3.56-1-4.64-4-2.39-6.55a11.07,11.07,0,0,1,10.54-2.81c3.57,1,4.63,4,2.38,6.55A11,11,0,0,1,412.6,797.06Z" transform="translate(40.04)"/><path class="cls-20" d="M428.9,792.9c3.48-5.41-.58-10.56-.19-15.22s1-14.45,1-14.45l-9,5-4.26,10.92c-1.24,3.21-6.66,6.65-10,9.44s-6.11,9.47,3.16,12.07S425.41,798.31,428.9,792.9Zm-16.3,4.16c-3.56-1-4.64-4-2.39-6.55a11.07,11.07,0,0,1,10.54-2.81c3.57,1,4.63,4,2.38,6.55A11,11,0,0,1,412.6,797.06Z" transform="translate(40.04)"/><path class="cls-6" d="M429.26,759.84a3.86,3.86,0,0,1-3.72.72c-1.38-.4-1.93-1.37-1.29-2.16a3.93,3.93,0,0,1,3.73-.71C429.4,758.09,430,759.05,429.26,759.84Z" transform="translate(40.04)"/><path class="cls-8" d="M418.84,755.84s-10.71,2-14.24,2.31-8.62-.42-17.44.38-24.72,8.37-25.53,15.72,6.8,7.89,12.27,6.56,8.49-3.32,17.85-8c12.52-6.25,20.81-10.22,20.81-10.22l7-5.79Zm-20.74,9.9a111,111,0,0,0-14.89,6c-6,3-7.41,5-11.15,5.83-3,.72-6-1-4.51-4.32,1.63-3.55,6.12-7.23,14.39-9.94s15-2.21,18-.61c1.22.6,1.79,1.82-1.82,3Z" transform="translate(40.04)"/><path class="cls-20" d="M418.84,755.84s-10.71,2-14.24,2.31-8.62-.42-17.44.38-24.72,8.37-25.53,15.72,6.8,7.89,12.27,6.56,8.49-3.32,17.85-8c12.52-6.25,20.81-10.22,20.81-10.22l7-5.79Zm-20.74,9.9a111,111,0,0,0-14.89,6c-6,3-7.41,5-11.15,5.83-3,.72-6-1-4.51-4.32,1.63-3.55,6.12-7.23,14.39-9.94s15-2.21,18-.61c1.22.6,1.79,1.82-1.82,3Z" transform="translate(40.04)"/><polygon class="cls-6" points="454.1 764.59 454.1 762.38 452.61 760.36 452.61 762.57 454.1 764.59"/><path class="cls-4" d="M418.88,754.7,494,740.12s-1.61,2.73-19.13,7.91-60.84,14.35-60.84,14.35l-1.74-2.4Z" transform="translate(40.04)"/><path class="cls-5" d="M472.68,721.45A51.47,51.47,0,0,1,463,732.58c-5.2,4.12-33.25,28.4-33.25,28.4l-9,5L418,764.42l4.07-9.49s31.69-22.47,38.53-27.17S473.59,720.16,472.68,721.45Z" transform="translate(40.04)"/><path class="cls-8" d="M428.9,790.69c3.48-5.41-.58-10.56-.19-15.22s1-14.45,1-14.45l-9,5L416.49,777c-1.24,3.21-6.66,6.65-10,9.44s-6.11,9.47,3.16,12.07S425.41,796.11,428.9,790.69Zm-16.3,4.16c-3.56-1-4.64-4-2.39-6.55a11.07,11.07,0,0,1,10.54-2.81c3.57,1,4.63,4,2.38,6.55A11,11,0,0,1,412.6,794.85Z" transform="translate(40.04)"/><path class="cls-6" d="M429.26,757.63a3.86,3.86,0,0,1-3.72.72c-1.38-.4-1.93-1.37-1.29-2.16a3.93,3.93,0,0,1,3.73-.71C429.4,755.84,430,756.84,429.26,757.63Z" transform="translate(40.04)"/><path class="cls-8" d="M418.84,753.62s-10.71,2-14.24,2.31-8.62-.42-17.44.37-24.72,8.38-25.53,15.73,6.8,7.88,12.27,6.57,8.49-3.34,17.85-8c12.52-6.24,20.81-10.27,20.81-10.27l7-5.8Zm-20.74,9.93a110.92,110.92,0,0,0-14.89,6c-6,3-7.41,5-11.15,5.83-3,.72-6-1-4.51-4.31,1.63-3.56,6.12-7.23,14.39-9.94s15-2.21,18-.62C401.14,761.12,401.71,762.34,398.1,763.55Z" transform="translate(40.04)"/></g></g><g id="freepik--Pencil--inject-2"><g id="freepik--pencil--inject-2-2" data-name="freepik--pencil--inject-2"><path class="cls-21" d="M587.23,639.3l20.34-4a.63.63,0,0,1,.6,1L594.38,652Z" transform="translate(40.04)"/><path class="cls-8" d="M608.17,636.38a.63.63,0,0,0-.6-1l-4,.77h0a3.49,3.49,0,0,1,1.64,3.25v.35Z" transform="translate(40.04)"/><path class="cls-8" d="M517.8,695.87l1.66-1,2-1.16L594.38,652a9.26,9.26,0,0,0-.58-6.74c-1.44-3.24-4.24-5.78-6.57-5.93l-72.84,41.77-3.86,2.21C513.12,682,520.36,694.54,517.8,695.87Z" transform="translate(40.04)"/><path class="cls-16" d="M517.8,695.87l1.66-1,2-1.16L594.38,652a9.26,9.26,0,0,0-.58-6.74c-1.44-3.24-4.24-5.78-6.57-5.93l-72.84,41.77-3.86,2.21C513.12,682,520.36,694.54,517.8,695.87Z" transform="translate(40.04)"/><path class="cls-12" d="M524.15,692.26l3.71-2.15c1.09-.58.47-3.27-.82-6.06-1.68-3.7-5-7.28-6.42-6.51l-2.74,1.56-1,.58c1.45-.77,4.79,2.81,6.49,6.53,1.28,2.66,1.85,5.26.92,6h0A.37.37,0,0,1,524.15,692.26Z" transform="translate(40.04)"/><path class="cls-8" d="M525.08,691.7c2.56-1.34-4.76-13.91-7.31-12.56l-3.72,2.2c2.57-1.36,9.84,11.21,7.3,12.56Z" transform="translate(40.04)"/><path class="cls-12" d="M517.8,695.87l3.68-2.11c2.57-1.29-4.43-13.49-7.09-12.69h-.14l-3.69,2.14C513.12,682,520.36,694.54,517.8,695.87Z" transform="translate(40.04)"/><path class="cls-16" d="M608.26,635.66l-.69-.35-14.76,8.07-77.07,44.19c-.14-.23-.26-.25-.35-.09,2.17,3.39,3.85,7.71,2.38,8.39l1.65-1,2-1.16L594.34,652h0l13.83-15.59A.62.62,0,0,0,608.26,635.66Z" transform="translate(40.04)"/><path class="cls-22" d="M502.22,704.78l15.6-8.91c1.09-.57.49-3.24-.77-6-1.69-3.69-5-7.32-6.43-6.57h0l-15.63,9c-3.11,1.8-.26,8.54,3.21,11.56A3.71,3.71,0,0,0,502.22,704.78Z" transform="translate(40.04)"/><path class="cls-23" d="M503.15,700c-.9-3.52-3.75-7-6.36-7.71a2.6,2.6,0,0,0-2.34.31c-2.35,2.19.39,8.38,3.66,11.23a3.79,3.79,0,0,0,4,1C503.3,704.13,503.75,702.33,503.15,700Z" transform="translate(40.04)"/></g></g><g id="freepik--Screwdriver--inject-2"><g id="freepik--screwdriver--inject-2-2" data-name="freepik--screwdriver--inject-2"><path class="cls-8" d="M529.38,763.73l9.66,16.7,32.61-18.83c1.29-.67,2.19-2.24,2.19-4.51A15.14,15.14,0,0,0,567,745.23a4.81,4.81,0,0,0-4.84-.47h0Z" transform="translate(40.04)"/><path class="cls-8" d="M527.44,767.2h0c-.14,2.57-3.75,3.09-3.75,3.09l6.84,11.86s2.28-2.82,4.56-1.71h0c3.38,1.45,6-.35,6-4.38a15.07,15.07,0,0,0-6.85-11.84C530.73,762.19,527.91,763.55,527.44,767.2Z" transform="translate(40.04)"/><path class="cls-24" d="M527.44,767.2h0c-.14,2.57-3.75,3.09-3.75,3.09l6.84,11.86s2.28-2.82,4.56-1.71h0c3.38,1.45,6-.35,6-4.38a15.07,15.07,0,0,0-6.85-11.84C530.73,762.19,527.91,763.55,527.44,767.2Z" transform="translate(40.04)"/><path class="cls-24" d="M525.34,769.78a7.08,7.08,0,0,1-1.64.5l6.85,11.86a7,7,0,0,1,1.28-1.16A15.25,15.25,0,0,0,525.34,769.78Z" transform="translate(40.04)"/><path class="cls-8" d="M516.56,771.13l.58,1a6.88,6.88,0,0,0-.3,2.12,15.1,15.1,0,0,0,6.84,11.84,7.06,7.06,0,0,0,2,.81l.56,1,2.29-1.29h0a4.84,4.84,0,0,0,2-4.43,15.14,15.14,0,0,0-6.84-11.86,4.84,4.84,0,0,0-4.83-.47h0Z" transform="translate(40.04)"/><path class="cls-8" d="M528.24,783.45a15.15,15.15,0,0,0-6.84-11.85c-3.78-2.18-6.85-.41-6.85,3.95a15.16,15.16,0,0,0,6.85,11.85C525.18,789.57,528.24,787.81,528.24,783.45Z" transform="translate(40.04)"/><path class="cls-23" d="M528.24,783.45a15.15,15.15,0,0,0-6.84-11.85c-3.78-2.18-6.85-.41-6.85,3.95a15.16,15.16,0,0,0,6.85,11.85C525.18,789.57,528.24,787.81,528.24,783.45Z" transform="translate(40.04)"/><path class="cls-20" d="M568.27,752.44h0a1.88,1.88,0,0,1-.69,2.57l-23.29,13.44a1.87,1.87,0,0,1-2.56-.68h0a1.89,1.89,0,0,1,.7-2.57l23.28-13.45a1.88,1.88,0,0,1,2.57.69Z" transform="translate(40.04)"/><path class="cls-20" d="M564.07,747.43h0a1.1,1.1,0,0,1,.36,1.52,1.09,1.09,0,0,1-.45.4l-23.72,13.71a2.57,2.57,0,0,1-2.75-.31h0a1.12,1.12,0,0,1-.37-1.52,1.19,1.19,0,0,1,.45-.41l23.72-13.7A2.55,2.55,0,0,1,564.07,747.43Z" transform="translate(40.04)"/><path class="cls-20" d="M570.51,758.58h0a1.11,1.11,0,0,0-1.12-1.09,1.07,1.07,0,0,0-.6.19l-23.73,13.7a2.58,2.58,0,0,0-1.12,2.57h0a1.12,1.12,0,0,0,1.14,1.08,1.15,1.15,0,0,0,.59-.19l23.72-13.69A2.57,2.57,0,0,0,570.51,758.58Z" transform="translate(40.04)"/><path class="cls-5" d="M461.41,811.08v4.56l11.41-3.7s2.27-4.2,4.56-5.51l43.31-25,1.29-3.86-1.29-.77-43.31,25a4.56,4.56,0,0,1-4.56-.24Z" transform="translate(40.04)"/><path class="cls-4" d="M462.75,811.85v4.56l11.41-3.7s2.27-4.2,4.56-5.51l43.31-25v-4.51l-43.31,25a4.56,4.56,0,0,1-4.56-.25Z" transform="translate(40.04)"/><polygon class="cls-6" points="502.79 816.41 501.46 815.64 501.46 811.08 502.79 811.85 502.79 816.41"/><polygon class="cls-5" points="501.46 811.08 502.79 811.85 514.2 802.39 512.87 801.62 501.46 811.08"/></g></g><g id="freepik--Wrench--inject-2"><g id="freepik--wrench--inject-2-2" data-name="freepik--wrench--inject-2"><path class="cls-4" d="M633.25,784.1a1.26,1.26,0,0,1-.2.68,11,11,0,0,1-3.79,3.37c-4.65,2.57-11.31,3.32-17.06,2.13L555.56,823s.06.12.1.18l.89-.15v3.22c0,2.42-1.62,4.86-4.86,6.7-6.42,3.64-16.7,3.61-23.12-.11l-.4-.25a.52.52,0,0,1-.24-.43v-3l14.74.85,2.16-4.5-1.21-.7-4.44-2.57-13.73,2a.62.62,0,0,1-.69-.54s0,0,0-.07V820.2l4-.66s11.33-3.35,17.07-2.14l56.61-32.73a6,6,0,0,1-1-3.37v-3.19l.86.31a10.69,10.69,0,0,1,4-3.7c6.42-3.64,23.71-2.57,23.71-2.57v3.15a.32.32,0,0,1-.25.31l-14.47,2.07-1,2-1.21,2.57,5.67,3.31,14.06-5.07.35.6Z" transform="translate(40.04)"/><path class="cls-6" d="M544.84,822.25l-1.2,2.57-4.45-2.57-13.73,2a.61.61,0,0,1-.69-.5v-3.48L539.19,819Z" transform="translate(40.04)"/><path class="cls-6" d="M615.26,774.47,630,772.09v3.17a.33.33,0,0,1-.26.31l-14.48,2.11-1,2-1.19-.71Z" transform="translate(40.04)"/><polygon class="cls-4" points="652.22 790.29 652.22 787.07 595.58 819.77 595.58 823 652.22 790.29"/><path class="cls-5" d="M528.76,816.29a10.75,10.75,0,0,0-3.85,3.46.76.76,0,0,0,.21,1,.83.83,0,0,0,.53.12l13.56-2,5.66,3.31-2.16,4.5-14.13,2.08c-.54.07-.7.29-.42.47l.51.31c6.32,3.71,16.7,3.75,23.12.1,4.7-2.67,6-6.59,3.86-9.94l56.64-32.7c5.73,1.21,12.41.5,17.05-2.13a10.79,10.79,0,0,0,3.85-3.47.76.76,0,0,0-.25-1.06.69.69,0,0,0-.5-.11l-13.54,2L613.14,779l2.16-4.49,14.19-2.08c.51-.08.69-.3.43-.47l-.52-.32c-6.33-3.7-16.69-3.75-23.12-.1-4.7,2.67-6,6.59-3.85,9.94l-56.65,32.72C540.08,812.94,533.4,813.64,528.76,816.29Z" transform="translate(40.04)"/></g></g><g id="freepik--paint-pot--inject-2"><g id="freepik--Paint--inject-2"><path class="cls-4" d="M858.14,669.48H809.08l2.21,34.88h0c0,3.23,2.07,6.5,6.31,9,8.5,5,22.38,5.14,31,.33,4.35-2.45,6.52-5.7,6.5-9Z" transform="translate(40.04)"/><path class="cls-5" d="M816.34,658.63c-9.64,5.43-9.73,14.4-.22,20s25.07,5.8,34.69.37,9.75-14.4.21-20S826,653.19,816.34,658.63Z" transform="translate(40.04)"/><path class="cls-6" d="M856,669.06a6,6,0,0,1-.35,1.92c-.74,2.3-2.75,4.44-5.87,6.2a36.33,36.33,0,0,1-32.57-.35c-3-1.79-5-3.94-5.69-6.19a5.8,5.8,0,0,1-.35-2.06c0-3,2.23-5.87,6.22-8.09a36.26,36.26,0,0,1,32.57.35C853.9,663.16,856,666.08,856,669.06Z" transform="translate(40.04)"/><path class="cls-8" d="M833.71,673a33.12,33.12,0,0,0-16.31,3.71l-.24.14h0a36.29,36.29,0,0,0,32.58.35L850,677h0A33.44,33.44,0,0,0,833.71,673Z" transform="translate(40.04)"/><path class="cls-6" d="M842.92,682.62c1-.54,1.72-.09,1.71,1a3.87,3.87,0,0,1-1.76,3c-1,.54-1.72.07-1.71-1A3.84,3.84,0,0,1,842.92,682.62Z" transform="translate(40.04)"/><path class="cls-3" d="M809.66,679.22c-2.12,5.42-3.76,12.84,1,16.3l.77.51v2.3a22.44,22.44,0,0,1-1.89-1.28c-7-5.22-2.72-16.62,0-22.17Z" transform="translate(40.04)"/><path class="cls-3" d="M843.73,685c-.26.56-7,13.49-18.15,16.1a16.69,16.69,0,0,1-3.86.45,19.43,19.43,0,0,1-10.36-3.24V696c4.6,3.2,9.22,4.29,13.74,3.25,10.28-2.41,16.86-15,16.91-15.13a1,1,0,0,1,1.28-.41.92.92,0,0,1,.47,1.22Z" transform="translate(40.04)"/></g></g><g id="freepik--Brushes--inject-2"><g id="freepik--Brush--inject-2"><g id="freepik--brush--inject-2-2" data-name="freepik--brush--inject-2"><path class="cls-8" d="M767.44,764.83h0A286,286,0,0,0,743,782.92a199.9,199.9,0,0,0-23.76,24.4h0a1.12,1.12,0,0,0,.21,1.57,1.14,1.14,0,0,0,1.07.16l.23-.11h0s17.09-9.53,28.36-19A283.69,283.69,0,0,0,771,769h0a1.41,1.41,0,0,0,.25-1.28,4.26,4.26,0,0,0-2.48-3A1.44,1.44,0,0,0,767.44,764.83Z" transform="translate(40.04)"/><path class="cls-23" d="M720.41,809.05l.23-.11h0s17.09-9.53,28.37-19c7.59-6.42,14.9-13.65,18.87-17.72L765.21,770S719.67,809,719,808.33a1.13,1.13,0,0,0,1.42.73Z" transform="translate(40.04)"/><path class="cls-5" d="M770.3,766c1-.22,6.36-1.29,8.83-4.51a4.51,4.51,0,0,1-.75-1.38c-.6-1.92.81-2.82.51-4.33s-3.06-1.28-3.09-1.28h0a11.81,11.81,0,0,0-5.93,4,12,12,0,0,0-2.43,6.32L771,769h0Z" transform="translate(40.04)"/><path class="cls-4" d="M781,765c.33-1.77-.88-2.31-1.8-3.49-2.47,3.17-7.84,4.29-8.83,4.51l.65,3,2-.22.52-.07a5,5,0,0,0,1.1-.21,14.7,14.7,0,0,0,1.72-.5,9.63,9.63,0,0,0,1.19-.5,13.51,13.51,0,0,0,2.48-1.54A7.88,7.88,0,0,0,781,765Z" transform="translate(40.04)"/><path class="cls-8" d="M781,765l.45-.57h0l.29-.45.12-.18.07-.14c0-.09.09-.16.13-.25s.12-.21.16-.31.2-.49.29-.74a7,7,0,0,0,.23-.74c.07-.24.12-.5.17-.76a12.13,12.13,0,0,0-.09-4.65l-.08-.33v-.09a2.24,2.24,0,0,0-.1-.37,12.74,12.74,0,0,0-.89-2.16c-.16-.31-.33-.61-.48-.86a8.49,8.49,0,0,0-.48-.7,1.48,1.48,0,0,0-.22-.29l-.19-.26-.35-.4-.31-.31a4.8,4.8,0,0,1-2.33,3.38,10.07,10.07,0,0,1-1.53.79s2.77-.23,3.08,1.28-1.1,2.4-.5,4.33a4,4,0,0,0,.75,1.37c.92,1.19,2.13,1.73,1.79,3.5Z" transform="translate(40.04)"/><path class="cls-23" d="M779.68,750.34a12.54,12.54,0,0,1,.43,9.25,5.85,5.85,0,0,1-1,1.88c.92,1.18,2.13,1.72,1.8,3.49h0c.15-.18.3-.37.44-.56h0l.3-.45.12-.18.07-.14c0-.09.09-.17.13-.26s.12-.21.16-.31.2-.49.29-.73a7.16,7.16,0,0,0,.23-.75c.07-.24.12-.5.17-.76a12.13,12.13,0,0,0-.09-4.65l-.08-.33v-.09a2.24,2.24,0,0,0-.1-.37,12.74,12.74,0,0,0-.89-2.16c-.16-.31-.33-.6-.49-.86a6.87,6.87,0,0,0-.47-.69,1.66,1.66,0,0,0-.22-.3l-.19-.26-.35-.39a3.47,3.47,0,0,0-.31-.31Z" transform="translate(40.04)"/><path class="cls-12" d="M771,769a1.37,1.37,0,0,0,.24-1.28,4.26,4.26,0,0,0-2.48-3,1.44,1.44,0,0,0-1.28,0c-1.84,1.12-3.77,2.43-5.73,3.86a1.74,1.74,0,0,1,1.64-.08,5.42,5.42,0,0,1,3.14,3.72,1.8,1.8,0,0,1-.38,1.64C768,772.08,769.77,770.25,771,769Z" transform="translate(40.04)"/><path class="cls-3" d="M765.21,770a5.17,5.17,0,0,1,1.28,2.42,1.76,1.76,0,0,1-.37,1.63c1.89-1.93,3.65-3.75,4.83-5a1.37,1.37,0,0,0,.24-1.28,3.72,3.72,0,0,0-.89-1.77h-.07Z" transform="translate(40.04)"/></g></g><g id="freepik--brush--inject-2-3" data-name="freepik--brush--inject-2"><g id="freepik--brush--inject-2-4" data-name="freepik--brush--inject-2"><path class="cls-8" d="M803.79,761.9h0s-42.18,25-54.9,33.14a199.61,199.61,0,0,0-26.69,21.1h0a1.07,1.07,0,0,0-.28,1,1.12,1.12,0,0,0,1.28.91l.25-.08h0s18.17-7.26,30.57-15.22,52.77-36.29,52.77-36.29h0a1.42,1.42,0,0,0,.41-1.19,4.32,4.32,0,0,0-2.1-3.24A1.47,1.47,0,0,0,803.79,761.9Z" transform="translate(40.04)"/><path class="cls-23" d="M800.93,766.7l2.16,2.33c-9.83,6.88-36.75,25.69-47.83,32.9h-.07l-1.21.77c-12.4,8-30.57,15.22-30.57,15.22h0l-.25.08a1.12,1.12,0,0,1-1.28-.91C722.43,817.92,800.93,766.7,800.93,766.7Z" transform="translate(40.04)"/><path class="cls-5" d="M806.49,763.39c1-.07,6.42-.5,9.34-3.34a4.35,4.35,0,0,1-.57-1.45c-.34-2,1.17-2.69,1.06-4.22s-2.88-1.66-2.91-1.66h0A11.89,11.89,0,0,0,807,756a12.09,12.09,0,0,0-3.22,5.94l3,4.56h0Z" transform="translate(40.04)"/><path class="cls-4" d="M817.16,763.77c.56-1.74-.57-2.42-1.28-3.72-2.86,2.84-8.32,3.27-9.34,3.34l.26,3.07h2.43a7,7,0,0,0,1.11-.06,17.78,17.78,0,0,0,1.78-.27c.39-.09.82-.21,1.28-.35a12.46,12.46,0,0,0,2.65-1.22A8,8,0,0,0,817.16,763.77Z" transform="translate(40.04)"/><path class="cls-8" d="M817.18,763.74a4.1,4.1,0,0,0,.52-.5h0a4.36,4.36,0,0,0,.35-.4l.13-.17.1-.12c0-.08.12-.16.17-.25l.19-.28a6,6,0,0,0,.39-.69c.12-.23.22-.47.32-.71s.18-.48.26-.72a12.14,12.14,0,0,0,.51-4.64v-.42a.74.74,0,0,0-.07-.39,12.77,12.77,0,0,0-.6-2.26,9.58,9.58,0,0,0-.37-.91c-.13-.28-.26-.53-.37-.74l-.18-.33-.17-.28c-.12-.17-.21-.31-.3-.42a2.31,2.31,0,0,0-.25-.36,4.84,4.84,0,0,1-2.77,3.06,8.35,8.35,0,0,1-1.64.56s2.79.13,2.9,1.66-1.4,2.23-1,4.22a4.28,4.28,0,0,0,.57,1.46c.75,1.28,1.88,2,1.28,3.71Z" transform="translate(40.04)"/><path class="cls-23" d="M817.82,749.1a12.59,12.59,0,0,1-.77,9.22,5.54,5.54,0,0,1-1.22,1.73c.76,1.29,1.89,2,1.28,3.72h0a5,5,0,0,0,.53-.5h0c.12-.13.24-.26.35-.4l.13-.17.1-.13c0-.08.11-.15.16-.24l.2-.28c.14-.24.27-.47.38-.7a5.69,5.69,0,0,0,.32-.71,6.77,6.77,0,0,0,.26-.71,12,12,0,0,0,.51-4.64v-.43a.78.78,0,0,0-.06-.38,13.44,13.44,0,0,0-.6-2.26c-.12-.32-.25-.63-.38-.91a7.51,7.51,0,0,0-.37-.75l-.18-.32-.17-.28c-.11-.17-.2-.31-.29-.43a4.06,4.06,0,0,0-.26-.36Z" transform="translate(40.04)"/><path class="cls-12" d="M806.75,766.46a1.39,1.39,0,0,0,.41-1.19,4.32,4.32,0,0,0-2.1-3.24,1.45,1.45,0,0,0-1.28-.13,63.84,63.84,0,0,0-6.23,3.7c.41-.22,1.05-.77,1.7-.45a5.46,5.46,0,0,1,2.63,4.1c0,.75-.66,1.07-1,1.35C803,768.93,805.37,767.58,806.75,766.46Z" transform="translate(40.04)"/><path class="cls-3" d="M800.93,766.7a5.08,5.08,0,0,1,1,2.56c0,.75-.65,1.07-1,1.35a61.9,61.9,0,0,0,5.91-4.13,1.48,1.48,0,0,0,.41-1.2,4,4,0,0,0-.67-1.87h-.06l-5.5,3.32Z" transform="translate(40.04)"/></g></g><g id="freepik--brush--inject-2-5" data-name="freepik--brush--inject-2"><path class="cls-5" d="M742.28,763.61,767.62,749a1.93,1.93,0,0,0,.8-1.76,6,6,0,0,0-2.71-4.71,1.92,1.92,0,0,0-1.93-.2L738.44,757Z" transform="translate(40.04)"/><polygon class="cls-4" points="785.01 753.2 792.69 757.64 782.32 763.61 778.48 756.95 785.01 753.2"/><path class="cls-4" d="M716.17,765.31l5.14-3-5.14-3,10.6-6.13a12.73,12.73,0,0,1,11.56,0l9,5.24a4.22,4.22,0,0,1,2.39,3.14V768a4.13,4.13,0,0,1-2.37,3.16l-10.6,6.12Z" transform="translate(40.04)"/><path class="cls-5" d="M747.39,758.41l-9-5.24a12.73,12.73,0,0,0-11.56,0l-10.6,6.13,20.55,11.92,10.61-6.12C750.57,763.3,750.59,760.31,747.39,758.41Z" transform="translate(40.04)"/><polygon class="cls-25" points="776.82 771.27 756.23 759.35 740.75 768.26 761.36 780.18 776.82 771.27"/><polygon class="cls-12" points="776.82 771.27 761.36 780.18 761.36 786.13 776.82 777.23 776.82 771.27"/><polygon class="cls-8" points="781.43 768.61 760.83 756.69 762.94 755.47 783.64 767.34 781.43 768.61"/><polygon class="cls-8" points="781.43 768.61 781.42 774.57 783.63 773.28 783.64 767.34 781.43 768.61"/><polygon class="cls-23" points="781.43 768.61 781.42 774.57 783.63 773.28 783.64 767.34 781.43 768.61"/><path class="cls-8" d="M726,783.42s2.82-3.64,1.28-6.71l-6,3.47v6Z" transform="translate(40.04)"/><path class="cls-23" d="M726,783.42s2.82-3.64,1.28-6.71l-6,3.47v6Z" transform="translate(40.04)"/><path class="cls-8" d="M727.35,776.71a7.38,7.38,0,0,0-4.23-5.66c-2.81-1.22-8.77,1.28-11.24-2.77-1.74-2.84.17-6.56.17-6.56l-11.34,6.54,20.55,11.92Z" transform="translate(40.04)"/><polygon class="cls-8" points="740.75 768.26 740.74 774.21 761.36 786.13 761.36 780.18 740.75 768.26"/><polygon class="cls-26" points="740.75 768.26 740.74 774.21 761.36 786.13 761.36 780.18 740.75 768.26"/></g></g><g id="freepik--Character--inject-2"><g id="freepik--character--inject-2-2" data-name="freepik--character--inject-2"><circle class="cls-4" cx="806.82" cy="429.64" r="22.31"/><circle class="cls-8" cx="806.87" cy="429.66" r="17.74"/><circle class="cls-9" cx="806.87" cy="429.66" r="17.74"/><polygon class="cls-21" points="713.66 454.39 711.94 472.33 695.92 471.33 697.2 451.45 713.66 454.39"/><path class="cls-6" d="M694.15,419.91A7.65,7.65,0,0,0,684,411.55a7.5,7.5,0,0,0-4.25-8.22,9.52,9.52,0,0,0-7.37.29,5.82,5.82,0,0,0-3.22,2.75,8.08,8.08,0,0,0-14.73,2c-2.44-.54-5.88.54-7,3-1.29,2.76.26,6.17-.3,9-.37,1.88-1.17,3.64-1.52,5.53a46,46,0,0,0-.6,6.42c-.33,8.85,20.22,14.6,19.81,20.68l10.95-13.33c0-.56,1.55-1.93,1.89-2.41.66-.87,1.29-1.82,1.85-2.73a17.09,17.09,0,0,1,7.56-6A14,14,0,0,0,692.5,424,9.73,9.73,0,0,0,694.15,419.91Z" transform="translate(40.04)"/><path class="cls-22" d="M685.51,434.71s3.55,5.28,3.09,5.83a8.68,8.68,0,0,1-2.71,1.16Z" transform="translate(40.04)"/><path class="cls-21" d="M674.67,418c3.44,1.76,9.42,5,11,17.48,1.56,12.85-1.29,17.29-3.11,19-1.21,1.13-7.4,1.55-10.64.56-4-1.29-12.84-5.49-16.9-12.1-4.83-7.8-5.83-18.18-.26-22.24C662.56,414.94,671.78,416.52,674.67,418Z" transform="translate(40.04)"/><path class="cls-22" d="M682.17,454.67c-1.45.81-5.57,1.14-8.64.69l.09-2.31a22.44,22.44,0,0,0,4.1,1.29A13.87,13.87,0,0,0,682.17,454.67Z" transform="translate(40.04)"/><path class="cls-6" d="M676.19,417.62a13.64,13.64,0,0,1,4,2.32,5.38,5.38,0,0,1,1.42,1.82,4.31,4.31,0,0,1,.28,2.07,5.52,5.52,0,0,1-3.22,4.46,5.31,5.31,0,0,1,.87,4.45,10.6,10.6,0,0,1-3.16,4.56.68.68,0,0,1-.27.2.72.72,0,0,1-.56-.18c-2.17-1.44-3.51-3.95-6.57-2.95-4,1.29-3.85,6.29-.68,9.38a5.62,5.62,0,0,0,3.86,1.95,6.16,6.16,0,0,0,2.22-.19A9.3,9.3,0,0,1,669,454a22.17,22.17,0,0,1-12,.14c-2.12-2.68-5.68-6.13-8.61-9.21-9.65-10.15-10.2-24.87,4-29.54.5-.16,1-.31,1.49-.44a30.53,30.53,0,0,1,20.66,1.95C675.1,417.16,675.63,417.39,676.19,417.62Z" transform="translate(40.04)"/><path class="cls-6" d="M676.64,441.82a3,3,0,0,0,1.84-3.78l0-.07a3,3,0,0,0-3.85-1.78Z" transform="translate(40.04)"/><path class="cls-21" d="M653.16,462.89c-5.95-1.4-12.49,2.83-16.32,12.17s-11.49,31.35-13.09,37.59c-.72,2.79,20.56,29.33,19.76,29-.23-.12,6.91-12.06,6.91-12.06l-9.54-17.85,5.69-15.19Z" transform="translate(40.04)"/><path class="cls-4" d="M720.59,714c.68-.08.67,2,.45,2.86s-2.93,3.92-7.9,5.14-11.92.48-14.88.45-8,1.58-11,2.09-8.3-.3-10.11-1.92a3.15,3.15,0,0,1-.81-2.42c0-2,.17-2.37.4-2.36Z" transform="translate(40.04)"/><path class="cls-5" d="M677.32,711.91c-.08.39-.14.78-.21,1.18a19.5,19.5,0,0,0-.16,6,5.41,5.41,0,0,0,3.68,2.57,18.53,18.53,0,0,0,10.07-.22,29.23,29.23,0,0,1,7.61-1,74.48,74.48,0,0,0,10.35.08,24.57,24.57,0,0,0,7.53-1.88,9.48,9.48,0,0,0,4.4-4.29,6.92,6.92,0,0,0-4.12-6.74,15.58,15.58,0,0,0-7.71-1.29c-2.89.13-5.06.59-7.63.5a12.49,12.49,0,0,1-5.14-1,5,5,0,0,1-1.69-2.23c-.45-.9-.63-1.71-1.45-1.76,0,0-12.12.22-13.35.36s-1.45,5.14-1.59,6a22,22,0,0,1-.27,2.29A13,13,0,0,0,677.32,711.91Z" transform="translate(40.04)"/><path class="cls-11" d="M703.34,706.19a2.24,2.24,0,0,1,.62-.25c1.17-.22,2.11.91,2.64,1.8a7,7,0,0,1,.69,1.73,4.24,4.24,0,0,1,.12,2.29c-.06.18-.19.41-.38.37s-.23-.26-.26-.44a8.74,8.74,0,0,0-1-3.06,3.89,3.89,0,0,0-.76-1.09,3.38,3.38,0,0,0-1.19-.69c-.18-.07-1,0-.8-.37a.44.44,0,0,1,.16-.17Z" transform="translate(40.04)"/><path class="cls-11" d="M700,706.32a2.24,2.24,0,0,1,1.57.37,3.12,3.12,0,0,1,1,1.52,4.92,4.92,0,0,1,.25,3.94c-.22.38-.53.2-.67-.12a5,5,0,0,1-.18-1.21,12,12,0,0,0-.82-2.57,3.79,3.79,0,0,0-.53-.94,1.6,1.6,0,0,0-.54-.46.9.9,0,0,0-.32-.13h-.32c0-.17.18-.27.33-.31Z" transform="translate(40.04)"/><path class="cls-11" d="M696.5,705.47a2.14,2.14,0,0,1,1,.63,3.08,3.08,0,0,1,.5,1,11.25,11.25,0,0,1,.57,2.57,3.3,3.3,0,0,1-.38,1.77c-.12.22-.36.43-.57.34s-.25-.49-.27-.71v-1.28a7.28,7.28,0,0,0-1.56-4.17c0-.06-.09-.14-.07-.2s.17-.13.29-.12Z" transform="translate(40.04)"/><path class="cls-8" d="M707,706.4c1.19-.06,3.77,1.48,5.14,5.14a20.84,20.84,0,0,1,.81,8.27,11.89,11.89,0,0,0,6.54-3.35,5,5,0,0,0,.15-7.72c-1.81-2-4.53-3.28-8.77-3.37-4.75-.09-5.14,1.18-5.14,1.18Z" transform="translate(40.04)"/><path class="cls-21" d="M678.86,694s.38,6.23.86,9.11c.27,1.63,1.88,4.14,6.91,4,3.55-.07,5.47-2.11,5.94-3.86s.28-11.38.28-11.38Z" transform="translate(40.04)"/><path class="cls-21" d="M608.18,682.38l7.17-17.87,16.38,4.56s-13,19-14.25,20.73C615.35,692.62,608.18,682.38,608.18,682.38Z" transform="translate(40.04)"/><path class="cls-5" d="M601.13,687.34a9.66,9.66,0,0,0,0,2.15l.57,7.49a18.37,18.37,0,0,0,.41,2.95,18.32,18.32,0,0,1,.13,3.55c0,1.29.06,2.48.07,3.73a6,6,0,0,1,0,1.58c-.12.53,7.87,5.14,11.1,6.87.18.1.37.18.58.28a5.14,5.14,0,0,0,5.24-1.28,8.87,8.87,0,0,0-2.17-9.8s-.41,0-.33-3.14A63.35,63.35,0,0,1,617,695a14.24,14.24,0,0,1,1.07-4.11c.48-1.2,1.41-2.46,1.37-3.79a5.86,5.86,0,0,0-1.28-2.65,8.07,8.07,0,0,0-2-2.12,14.07,14.07,0,0,0-5.66-2.8,2.56,2.56,0,0,0-1.29,0c-.64.19-1,.82-1.45,1.35a14.19,14.19,0,0,1-3.61,2.68,6.45,6.45,0,0,0-2.95,3.31A1.08,1.08,0,0,0,601.13,687.34Z" transform="translate(40.04)"/><path class="cls-8" d="M617,704.91a11,11,0,0,1,1,1.51h0a11.28,11.28,0,0,1,1.1,8.32c5.65-.52,7.12-3.78,7.12-3.78a5.42,5.42,0,0,0-2.92-4.87,7.75,7.75,0,0,0-1.29-.64h0A8.19,8.19,0,0,0,617,704.91Z" transform="translate(40.04)"/><path class="cls-8" d="M599.5,688.16c-1.49.56-1.1,4.65-.17,8.58s1.46,5.29,1,8.55-.76,4.73.58,5.93,11.92,6.15,11.92,6.15a39,39,0,0,1-2.36-12.27c-.29-7.24-.76-11.91-4.13-15.19A6.33,6.33,0,0,0,599.5,688.16Z" transform="translate(40.04)"/><path class="cls-7" d="M599.5,688.16c-1.49.56-1.1,4.65-.17,8.58s1.46,5.29,1,8.55-.76,4.73.58,5.93,11.92,6.15,11.92,6.15a39,39,0,0,1-2.36-12.27c-.29-7.24-.76-11.91-4.13-15.19A6.33,6.33,0,0,0,599.5,688.16Z" transform="translate(40.04)"/><path class="cls-4" d="M626.3,710.88a19.84,19.84,0,0,1-8.85,3.86c-4.73.54-5-1.29-5.46-6.88s-.68-13.34-2.89-16.76-5.93-4.92-7.38-4.57c-.31-.16-1.74.92-2.22,1.58a8,8,0,0,1,6.19,2.48c2.94,2.87,3.48,9,3.62,14.51s.38,12,4.8,12.63a16.09,16.09,0,0,0,12-3.65,2.23,2.23,0,0,0,.21-3.15Z" transform="translate(40.04)"/><path class="cls-11" d="M616.65,702.85a1.51,1.51,0,0,1,.65,1,3.15,3.15,0,0,1-1.6,2.9c-.6.35-1.11.21-.16-1A6,6,0,0,0,616.65,702.85Z" transform="translate(40.04)"/><path class="cls-11" d="M616.74,699a1.38,1.38,0,0,1,.4.85,4.83,4.83,0,0,1-1.94,3.05c-1,.47-.49-.68,0-1.22A20.9,20.9,0,0,0,616.74,699Z" transform="translate(40.04)"/><path class="cls-11" d="M617,694.66a.93.93,0,0,1,.48.69c0,.45-2.1,2.06-2.77,2s-.82-.27,0-.84A29.05,29.05,0,0,0,617,694.66Z" transform="translate(40.04)"/><path class="cls-4" d="M625.44,678.77s32.62-50,33.61-53.81,7.17-43.52,7.17-43.52l7.19,46.67c-.72,3.34-2.17,10-2.19,13.86a151.17,151.17,0,0,0,2.08,22.67c2.46,16.25,5.33,31.47,5.33,31.47a12.81,12.81,0,0,0,7,1.53,18.59,18.59,0,0,0,7.71-2.25s2.5-43.53,3-53.5,1.43-16,1.73-22.56c.48-10.47.48-16.49-.49-35.69-.85-17-5.14-53.95-5.14-53.95l-50.18-2.92s-4.79,7.27-5.32,29c-.41,17,0,64.57,0,64.57-7.77,4.88-10.15,9.93-13.86,19.47-2.34,6-8.36,24.71-10.15,30.23C619.46,671.81,625.44,678.77,625.44,678.77Z" transform="translate(40.04)"/><path class="cls-6" d="M666.26,581.61l-4.43-19s-7.54.54-16.82-6.88c0,0,1.07,6.64,14.13,9.72l4.34,18.6-1.36,23.12S666.21,582,666.26,581.61Z" transform="translate(40.04)"/><path class="cls-8" d="M641.79,470.12c1.63-4.83,2.91-8.18,12.29-7.7h1.29c3.33.48,8,.75,16.6,1.41,1.1.2,7.39,1.28,9.1,1.54l1.5.82c5.69,1.86,9.79,7.27,13.6,23.46,1.08,4.58-.73,12.47-4.65,15.21.49,16.61,2.69,37.9,2.69,37.9s-12.23,6.55-31.55,4c-17.28-2.27-24.94-12.44-24.34-11.15a169,169,0,0,1,9.89-25.13C639.12,488.14,639.36,477.3,641.79,470.12Z" transform="translate(40.04)"/><path class="cls-21" d="M677.61,464.82a59,59,0,0,1,18.87,3.09c10.38,3.43,33.4,8.31,33.4,8.31s30-12.34,31.36-13.79.82-4.6.57-6.32-.6-5.55-.92-6.63c-.55-1.9,2.16-1.28,3.67.59s2.05,5.27,2.82,5.9,7.32-6.08,10.5-9.32,4.72-5.53,6.63-4c1.38,1.09.34,3.07-2,5.85a39.46,39.46,0,0,0-3,3.72c-.28.5.48,1,.77,1.28.56.55,1.53,1.47,1.56,2.27a7,7,0,0,0,0,1.29c.23,1,1.4,1.5,1.68,2.48.21.7-.1,1.46,0,2.18.07.46.3.9.35,1.38a3.22,3.22,0,0,1-1.09,2.44c-2.25,2.37-5.14,3.16-8,4.52-2.35,1.13-4.74,1.54-7.44,2.57S733,494,727.47,493.64c-5-.29-23.43-2.8-33.94-4.27A19.27,19.27,0,0,1,677,467.7a19.62,19.62,0,0,1,.42-2.16C677.54,465.06,677.61,464.82,677.61,464.82Z" transform="translate(40.04)"/><path class="cls-23" d="M672.26,547.36a68,68,0,0,1-9.57-.58c-15.75-2.06-23.68-10.7-24.33-11.22a159.58,159.58,0,0,1,9.85-25.06c-4.6-11.3-6.81-19.64-7.55-26.08.74,4.69,7.7,22.84,16.7,28.26,0,0-4.47,1.51-8.84,7.53S647.12,546.06,672.26,547.36Z" transform="translate(40.04)"/></g></g><text x="40.04"/><text class="cls-27" transform="translate(658.97 297.63) rotate(91.06)">Designed <tspan class="cls-28" x="65.97" y="0">b</tspan><tspan class="cls-29" x="74.3" y="0">y s</tspan><tspan class="cls-30" x="92.85" y="0">t</tspan><tspan x="97.6" y="0">ories /</tspan><tspan class="cls-31" x="140.45" y="0">F</tspan><tspan class="cls-32" x="148.55" y="0">r</tspan><tspan x="153.49" y="0">eepik</tspan></text></g></g></svg>