<svg xmlns="http://www.w3.org/2000/svg" xmlns:xlink="http://www.w3.org/1999/xlink" viewBox="0 0 130.03 181.46"><defs><style>.cls-1{isolation:isolate;}.cls-2,.cls-20,.cls-21{fill:#fff;}.cls-3{opacity:0.4;mix-blend-mode:soft-light;}.cls-4,.cls-5{fill:#313438;}.cls-5{opacity:0.6;}.cls-15,.cls-5,.cls-6{mix-blend-mode:multiply;}.cls-21,.cls-6{opacity:0.5;}.cls-7{fill:#d3a590;}.cls-8{fill:#8f399e;}.cls-9{fill:#c1d1e0;}.cls-10{fill:#3e9bf7;}.cls-11{fill:#b7c9e5;}.cls-12{fill:#232121;}.cls-13{fill:#eac6b5;}.cls-14{fill:#b667c1;}.cls-15{fill:url(#linear-gradient);}.cls-16{fill:#873f26;}.cls-17{fill:#6a7b9b;}.cls-18{fill:#76cc52;}.cls-19{fill:#3ca012;}.cls-20,.cls-21{mix-blend-mode:overlay;}.cls-22{font-size:5.91px;}.cls-22,.cls-25,.cls-31{fill:#545454;font-family:MyriadPro-Regular, Myriad Pro;}.cls-23{letter-spacing:-0.03em;}.cls-24{letter-spacing:-0.01em;}.cls-25{font-size:6.34px;}.cls-26{letter-spacing:-0.01em;}.cls-27{letter-spacing:-0.01em;}.cls-28{letter-spacing:0em;}.cls-29{letter-spacing:0.01em;}.cls-30{letter-spacing:-0.01em;}.cls-31{font-size:4.64px;}.cls-32{letter-spacing:0em;}.cls-33{letter-spacing:-0.01em;}.cls-34{letter-spacing:0em;}.cls-35{letter-spacing:-0.01em;}</style><linearGradient id="linear-gradient" x1="57.11" y1="44.99" x2="65.13" y2="29.99" gradientUnits="userSpaceOnUse"><stop offset="0" stop-color="#fff"/><stop offset="0.13" stop-color="#fbfafa"/><stop offset="0.29" stop-color="#eeebea"/><stop offset="0.47" stop-color="#d9d2d0"/><stop offset="0.66" stop-color="#bcb0ac"/><stop offset="0.71" stop-color="#b3a6a1"/></linearGradient></defs><g class="cls-1"><g id="Capa_2" data-name="Capa 2"><g id="Layer_3" data-name="Layer 3"><path class="cls-2" d="M36.32,23c.35,0,.4-.45.25-.69-.59-.87-2-1.4-2.92-1.9a6.55,6.55,0,0,0,1.21-3.2c0-.36-.44-.41-.68-.26a7.24,7.24,0,0,0-1.84,2.71l-2.22-1.29c-.88-.53-1.79.78-.91,1.31s1.55.9,2.34,1.33c-.46.78-.93,1.56-1.4,2.34s.76,1.8,1.3.92,1-1.68,1.48-2.53C33.94,22.21,35.19,23,36.32,23Z"/><path class="cls-2" d="M40.49,125c.17.24.49.09.59-.13a6.63,6.63,0,0,0,.06-2.88,5.55,5.55,0,0,0,2.78-.55c.24-.17.09-.5-.12-.6a6.13,6.13,0,0,0-2.71-.11q0-1.06-.06-2.13c0-.84-1.34-.91-1.32-.06s0,1.49.08,2.23c-.75,0-1.5,0-2.26,0s-.93,1.33-.07,1.32,1.62,0,2.43-.07A5.91,5.91,0,0,0,40.49,125Z"/><path class="cls-2" d="M126.47,94.63c.18.24.5.09.59-.13a6.78,6.78,0,0,0,.07-2.88,5.59,5.59,0,0,0,2.78-.55c.24-.17.09-.49-.12-.59a6,6,0,0,0-2.71-.12c0-.71,0-1.42-.07-2.12s-1.34-.92-1.32-.07,0,1.49.09,2.23c-.75,0-1.51,0-2.26,0s-.93,1.33-.08,1.32,1.63,0,2.44-.07A5.9,5.9,0,0,0,126.47,94.63Z"/><g class="cls-3"><path class="cls-2" d="M20.13,89a1.91,1.91,0,1,1,2.44,1.15A1.92,1.92,0,0,1,20.13,89Zm3-1.06a1.24,1.24,0,1,0-.75,1.58A1.24,1.24,0,0,0,23.09,88Z"/><path class="cls-2" d="M17.77,84.46a1.91,1.91,0,1,1,2.44,1.15A1.92,1.92,0,0,1,17.77,84.46Zm3-1.06A1.24,1.24,0,1,0,20,85,1.24,1.24,0,0,0,20.73,83.4Z"/><path class="cls-2" d="M22.87,83.91a1.9,1.9,0,1,1,2.43,1.15A1.89,1.89,0,0,1,22.87,83.91Zm2.95-1.06a1.23,1.23,0,1,0-.74,1.58A1.24,1.24,0,0,0,25.82,82.85Z"/><rect class="cls-2" x="20.43" y="85.11" width="0.67" height="2.17" transform="translate(-37.73 19.56) rotate(-27.73)"/><rect class="cls-2" x="21.27" y="83.08" width="1.83" height="0.67" transform="translate(-5.76 1.75) rotate(-4)"/></g><g class="cls-3"><path class="cls-2" d="M108.51,17.21a1.9,1.9,0,1,1,1.09-2.46A1.91,1.91,0,0,1,108.51,17.21Zm-1.13-2.92a1.23,1.23,0,1,0,.89,2.3,1.23,1.23,0,1,0-.89-2.3Z"/><path class="cls-2" d="M104,19.69a1.91,1.91,0,1,1,1.09-2.47A1.91,1.91,0,0,1,104,19.69Zm-1.13-2.93a1.23,1.23,0,1,0,.89,2.3,1.23,1.23,0,1,0-.89-2.3Z"/><path class="cls-2" d="M103.33,14.61a1.9,1.9,0,1,1,1.09-2.47A1.9,1.9,0,0,1,103.33,14.61Zm-1.13-2.93a1.23,1.23,0,1,0,1.59.71A1.23,1.23,0,0,0,102.2,11.68Z"/><rect class="cls-2" x="104.58" y="16.32" width="2.17" height="0.67" transform="translate(5.27 53.58) rotate(-29.15)"/><rect class="cls-2" x="102.51" y="14.39" width="0.67" height="1.83" transform="translate(-0.99 9.77) rotate(-5.41)"/></g></g><g id="_ëîé_11" data-name="‘ëîé_11"><g class="cls-3"><path class="cls-2" d="M118.45,134.31a3.16,3.16,0,1,1,4.07-1.86A3.17,3.17,0,0,1,118.45,134.31Zm1.82-4.89a2.05,2.05,0,1,0,1.21,2.64A2.06,2.06,0,0,0,120.27,129.42Z"/><path class="cls-2" d="M110.12,132.41a3.16,3.16,0,1,1,4.07-1.86A3.17,3.17,0,0,1,110.12,132.41Zm1.82-4.89a2.06,2.06,0,1,0,1.21,2.64A2.06,2.06,0,0,0,111.94,127.52Z"/><path class="cls-2" d="M108.55,124.63a3.16,3.16,0,1,1-.5-4.45A3.16,3.16,0,0,1,108.55,124.63Zm-4.08-3.26a2.06,2.06,0,1,0,2.89-.32A2.07,2.07,0,0,0,104.47,121.37Z"/><rect class="cls-2" x="114.97" y="128.68" width="1.11" height="3.61" transform="translate(-36.73 215.29) rotate(-77.6)"/><path class="cls-2" d="M102.46,128.67a3.17,3.17,0,1,1-2.66,3.6A3.15,3.15,0,0,1,102.46,128.67Zm.78,5.16a2.06,2.06,0,1,0-2.34-1.72A2.06,2.06,0,0,0,103.24,133.83Z"/><rect class="cls-2" x="105.07" y="130.04" width="3.61" height="1.11" transform="translate(-32.98 36.16) rotate(-16.68)"/><rect class="cls-2" x="107.89" y="124.52" width="1.11" height="3.04" transform="translate(-53.12 86.74) rotate(-35.62)"/></g><path class="cls-2" d="M86.9,155.81l-.06.12a.26.26,0,0,1-.47-.23h0l.06-.11c.19-.4.38-.81.55-1.23a.25.25,0,0,1,.34-.14.27.27,0,0,1,.14.34C87.28,155,87.09,155.4,86.9,155.81Zm-.75,1.44h0c-.25.44-.5.87-.77,1.29a.26.26,0,0,1-.44-.28q.39-.61.75-1.26a.26.26,0,0,1,.36-.1A.25.25,0,0,1,86.15,157.25ZM88,153.19a.26.26,0,0,1-.48-.2c.17-.46.32-.93.46-1.4a.25.25,0,0,1,.32-.17.24.24,0,0,1,.17.32c-.14.48-.29.95-.46,1.43Zm-3.43,6.56a.05.05,0,0,1,0,0c-.29.41-.59.81-.91,1.2a.26.26,0,1,1-.4-.33c.3-.38.6-.77.89-1.17a.26.26,0,0,1,.44.26Zm4.27-9.41a.25.25,0,0,1-.29.14.26.26,0,0,1-.2-.31q.16-.72.3-1.44a.26.26,0,1,1,.51.09q-.14.74-.3,1.47S88.84,150.33,88.83,150.34ZM82.7,162.07l0,.06c-.34.37-.69.73-1,1.08a.26.26,0,0,1-.37-.37c.35-.34.69-.7,1-1.06a.26.26,0,0,1,.37,0A.28.28,0,0,1,82.7,162.07Zm26.55-56a.27.27,0,0,1-.13.13c-.45.2-.89.41-1.33.64a.27.27,0,0,1-.35-.12.27.27,0,0,1,.11-.35l1.35-.65a.26.26,0,0,1,.35.13A.28.28,0,0,1,109.25,106.07Zm-19.9,41.35a.25.25,0,0,1-.27.14.26.26,0,0,1-.23-.29c.06-.48.11-1,.14-1.46a.26.26,0,0,1,.52,0c0,.5-.08,1-.14,1.5A.31.31,0,0,1,89.35,147.42Zm-8.77,16.72a.31.31,0,0,1-.07.09c-.37.32-.76.64-1.16,1a.26.26,0,0,1-.32-.41q.59-.45,1.14-.93a.26.26,0,0,1,.37,0A.26.26,0,0,1,80.58,164.14ZM98,127.07c-.07.14-.15.28-.23.41a.26.26,0,0,1-.36.08.27.27,0,0,1-.08-.36,4,4,0,0,0,.51-1.29.26.26,0,1,1,.51.11A5,5,0,0,1,98,127.07Zm-8.49,17.38a.26.26,0,0,1-.49-.11c0-.49,0-1,0-1.47a.25.25,0,0,1,.25-.27.26.26,0,0,1,.27.24c0,.5,0,1,0,1.5A.2.2,0,0,1,89.53,144.45Zm7.26-15.93a.28.28,0,0,1-.09.1l-.19.12h-.06a2.65,2.65,0,0,1-1.37-.29l-.06,0a.27.27,0,0,1-.12-.35h0a.26.26,0,0,1,.35-.1l-.12.23.16-.21a2.51,2.51,0,0,0,1,.24l.06,0a.26.26,0,0,1,.36.07A.27.27,0,0,1,96.79,128.52Zm1.63-3.92a.22.22,0,0,1-.21.14.25.25,0,0,1-.28-.23,5,5,0,0,0-.32-1.37.26.26,0,0,1,.49-.19,6.13,6.13,0,0,1,.35,1.51A.32.32,0,0,1,98.42,124.6Zm21-43.67h0c-.21.43-.45.88-.71,1.32a.25.25,0,0,1-.35.1.26.26,0,0,1-.1-.36c.25-.43.48-.87.69-1.29a.26.26,0,0,1,.35-.12A.25.25,0,0,1,119.41,80.93Zm.6-1.35a.26.26,0,0,1-.47-.21c.18-.46.34-.93.48-1.38a.26.26,0,0,1,.32-.18.27.27,0,0,1,.18.33c-.14.47-.31,1-.5,1.42ZM106.6,107.43a.21.21,0,0,1-.1.11c-.43.25-.85.5-1.26.77a.26.26,0,1,1-.28-.44c.42-.27.85-.53,1.28-.78a.25.25,0,0,1,.35.1A.23.23,0,0,1,106.6,107.43Zm11.34-23.92,0,0c-.27.42-.55.83-.85,1.24a.27.27,0,0,1-.36.06.27.27,0,0,1-.06-.37c.29-.4.57-.8.84-1.21a.25.25,0,0,1,.35-.08A.26.26,0,0,1,117.94,83.51ZM78.22,166a.44.44,0,0,1-.08.11c-.4.27-.81.52-1.22.77l-.19-.19-.13-.23c.46-.27.86-.52,1.24-.78a.26.26,0,0,1,.36.07A.23.23,0,0,1,78.22,166Zm42.64-89.21a.27.27,0,0,1-.28.14.26.26,0,0,1-.21-.31,11.9,11.9,0,0,0,.21-1.44.27.27,0,0,1,.28-.24.28.28,0,0,1,.24.29c0,.49-.12,1-.22,1.49A.14.14,0,0,1,120.86,76.74Zm-4.66,9.18a.05.05,0,0,1,0,0c-.3.39-.62.78-.94,1.16a.26.26,0,0,1-.37,0,.25.25,0,0,1,0-.36c.32-.38.63-.76.93-1.15a.27.27,0,0,1,.37,0A.24.24,0,0,1,116.2,85.92ZM89.37,141.49a.27.27,0,0,1-.2.14.25.25,0,0,1-.29-.23c-.06-.48-.13-1-.21-1.45a.26.26,0,0,1,.21-.3.25.25,0,0,1,.3.21c.09.49.16,1,.21,1.49A.23.23,0,0,1,89.37,141.49ZM114.29,88.2l0,.06c-.33.37-.67.74-1,1.1a.26.26,0,0,1-.38-.36c.34-.36.67-.72,1-1.09a.27.27,0,0,1,.37,0A.26.26,0,0,1,114.29,88.2Zm6.83-14.42a.25.25,0,0,1-.23.15.27.27,0,0,1-.27-.26,11.81,11.81,0,0,0-.12-1.45.26.26,0,0,1,.52-.07,12.8,12.8,0,0,1,.12,1.51A.16.16,0,0,1,121.12,73.78Zm-17,35.26a.27.27,0,0,1-.08.1c-.4.29-.79.59-1.18.89a.25.25,0,0,1-.36,0,.26.26,0,0,1,0-.36c.39-.31.79-.62,1.19-.91a.26.26,0,0,1,.39.32ZM75.67,167.46a.34.34,0,0,1-.12.12c-.46.23-.92.44-1.38.62a.25.25,0,0,1-.33-.15.25.25,0,0,1,.14-.33c.44-.18.89-.38,1.33-.6a.25.25,0,0,1,.35.11A.27.27,0,0,1,75.67,167.46Zm21.71-45.6a.23.23,0,0,1-.08.09.26.26,0,0,1-.36,0,4.69,4.69,0,0,0-1-1,.26.26,0,0,1,.31-.42,5,5,0,0,1,1.11,1.1A.26.26,0,0,1,97.38,121.86ZM126,62.1a.18.18,0,0,1,0,.07,3.15,3.15,0,0,1-1.38.81.26.26,0,0,1-.32-.17.26.26,0,0,1,.17-.33,2.51,2.51,0,0,0,1.15-.67.27.27,0,0,1,.37,0A.25.25,0,0,1,126,62.1ZM112.26,90.37l-.05.06-1,1.06a.26.26,0,1,1-.37-.37q.52-.51,1-1.05a.25.25,0,0,1,.36,0A.26.26,0,0,1,112.26,90.37Zm14.15-29.63a.25.25,0,0,1-.19.15.27.27,0,0,1-.3-.22,1.38,1.38,0,0,0-.06-.26,1.93,1.93,0,0,0-.59-.84.27.27,0,0,1,0-.37.26.26,0,0,1,.37,0,2.53,2.53,0,0,1,.73,1.06,1.59,1.59,0,0,1,.08.35A.25.25,0,0,1,126.41,60.74ZM88.86,138.56a.24.24,0,0,1-.17.14.26.26,0,0,1-.31-.19c0-.21-.11-.42-.16-.63s-.14-.53-.22-.8a.26.26,0,0,1,.5-.14c.08.27.15.54.22.8s.11.43.16.65A.2.2,0,0,1,88.86,138.56Zm5.38-11.19-.08.09a.26.26,0,0,1-.36,0,4,4,0,0,1-.73-1.4.26.26,0,1,1,.5-.14,3.42,3.42,0,0,0,.63,1.21A.26.26,0,0,1,94.24,127.37Zm7.55-16.47a.24.24,0,0,1-.06.08c-.37.33-.73.66-1.08,1a.26.26,0,0,1-.37,0,.25.25,0,0,1,0-.36c.35-.35.72-.69,1.09-1a.27.27,0,0,1,.37,0A.26.26,0,0,1,101.79,110.9Zm18.92-40.05a.27.27,0,0,1-.17.13.26.26,0,0,1-.32-.18c-.11-.43-.25-.87-.43-1.4a.26.26,0,0,1,.16-.33.25.25,0,0,1,.33.16c.19.54.33,1,.44,1.44A.28.28,0,0,1,120.71,70.85ZM99.67,113l0,.06c-.33.36-.65.73-1,1.11a.26.26,0,1,1-.39-.33c.31-.39.64-.76,1-1.13a.27.27,0,0,1,.37,0A.25.25,0,0,1,99.67,113ZM72.91,168.55a.24.24,0,0,1-.17.14,13.51,13.51,0,0,1-1.47.34.26.26,0,0,1-.09-.52,10.7,10.7,0,0,0,1.42-.32.26.26,0,0,1,.32.18A.27.27,0,0,1,72.91,168.55ZM123.23,63a.27.27,0,0,1-.27.15,3.4,3.4,0,0,1-1-.28,2.85,2.85,0,0,1-.52-.33.26.26,0,0,1,0-.36.26.26,0,0,1,.37,0,2.31,2.31,0,0,0,.42.27,2.62,2.62,0,0,0,.81.23.26.26,0,0,1,.22.29A.19.19,0,0,1,123.23,63ZM88.06,135.7a.24.24,0,0,1-.16.13.25.25,0,0,1-.32-.17l-.44-1.42a.26.26,0,0,1,.18-.32.25.25,0,0,1,.32.17l.44,1.42A.25.25,0,0,1,88.06,135.7Zm5.35-11.11a.26.26,0,0,1-.25.14.25.25,0,0,1-.25-.27,7.36,7.36,0,0,1,.26-1.51.27.27,0,0,1,.32-.19.27.27,0,0,1,.19.32,5.91,5.91,0,0,0-.25,1.41A.36.36,0,0,1,93.41,124.59Zm4.36-9.33,0,0c-.29.39-.58.79-.85,1.2a.26.26,0,1,1-.43-.29q.42-.63.87-1.23a.26.26,0,0,1,.44.27ZM95,120.12a.25.25,0,0,1-.27.14.29.29,0,0,1,0,.09c-.21.45-.4.9-.58,1.36a.26.26,0,0,1-.34.14.25.25,0,0,1-.14-.34c.18-.46.38-.92.59-1.37,0,0,0,0,0,0a5.93,5.93,0,0,0-1-.2.25.25,0,0,1-.23-.28.26.26,0,0,1,.29-.23,6.2,6.2,0,0,1,1.5.36.25.25,0,0,1,.15.33Zm1.09-2.39v0c-.25.42-.49.85-.72,1.28a.25.25,0,0,1-.35.11.25.25,0,0,1-.11-.35c.23-.44.48-.88.74-1.31a.26.26,0,0,1,.45.25ZM129,49.25c-.09.17-.18.35-.28.52a.27.27,0,0,1-.36.09.26.26,0,0,1-.09-.36,5.89,5.89,0,0,0,.58-1.29.26.26,0,0,1,.32-.18.25.25,0,0,1,.17.33A5.77,5.77,0,0,1,129,49.25Zm-4.63,9.55a.26.26,0,0,1-.3.14,3.52,3.52,0,0,0-1.36-.12h-.07a.25.25,0,0,1-.25-.25.28.28,0,0,1,.27-.27,4.31,4.31,0,0,1,1.55.15.26.26,0,0,1,.18.32A.08.08,0,0,1,124.37,58.8ZM119.77,68a.24.24,0,0,1-.14.14.26.26,0,0,1-.33-.16c-.17-.47-.34-.94-.49-1.41a.26.26,0,0,1,.16-.33.26.26,0,0,1,.33.17c.15.46.32.93.48,1.39A.23.23,0,0,1,119.77,68ZM127.86,51l0,.06c-.2.22-.41.43-.63.64l-.47.41a.25.25,0,0,1-.36,0,.27.27,0,0,1,0-.37l.46-.4c.2-.19.4-.4.59-.61a.25.25,0,0,1,.36,0A.28.28,0,0,1,127.86,51Zm1.67-4a.27.27,0,0,1-.22.15.26.26,0,0,1-.27-.26,3.79,3.79,0,0,0-.3-1.32.27.27,0,0,1,.13-.35.24.24,0,0,1,.33.12l0,0a4.27,4.27,0,0,1,.34,1.51A.27.27,0,0,1,129.53,46.93ZM70,169a.27.27,0,0,1-.23.15,11,11,0,0,1-1.52-.08.24.24,0,0,1-.2-.15c-.16.2-.33.4-.5.59a.26.26,0,1,1-.39-.35,12,12,0,0,0,.9-1.13.27.27,0,0,1,.37-.07.28.28,0,0,1,.06.37l-.17.22a9.86,9.86,0,0,0,1.44.08A.25.25,0,0,1,70,169ZM87.2,132.85A.28.28,0,0,1,87,133a.26.26,0,0,1-.32-.18q-.21-.72-.39-1.44a.26.26,0,0,1,.18-.32.27.27,0,0,1,.32.19c.12.47.25.95.39,1.43A.22.22,0,0,1,87.2,132.85ZM125.62,52.9a.23.23,0,0,1-.08.09l-.56.42-.63.47a.26.26,0,1,1-.32-.42l.64-.47.56-.41a.26.26,0,0,1,.36.05A.26.26,0,0,1,125.62,52.9ZM121,61.24a.28.28,0,0,1-.12.12.27.27,0,0,1-.35-.13,4.08,4.08,0,0,1-.36-1.49.26.26,0,0,1-.36-.38,3.84,3.84,0,0,1,1.33-.86.26.26,0,0,1,.33.15.27.27,0,0,1-.15.34,3.25,3.25,0,0,0-.81.45.28.28,0,0,1,.18.23A3.61,3.61,0,0,0,121,61,.26.26,0,0,1,121,61.24Zm-2.08,3.95a.28.28,0,0,1-.18.14.26.26,0,0,1-.31-.2,9.88,9.88,0,0,1-.21-1.46l.25-.06h.27a7.85,7.85,0,0,0,.2,1.41A.32.32,0,0,1,118.9,65.19ZM92.1,119.76a.26.26,0,0,1-.21.15,6.63,6.63,0,0,0-1.39.3.26.26,0,0,1-.17-.5,7.13,7.13,0,0,1,1.51-.32.27.27,0,0,1,.29.23A.32.32,0,0,1,92.1,119.76Zm36.3-75.51a.27.27,0,0,1-.07.08.26.26,0,0,1-.37,0,14.19,14.19,0,0,0-1-1,.27.27,0,0,1,0-.37.26.26,0,0,1,.37,0c.35.34.72.7,1.05,1.09A.26.26,0,0,1,128.4,44.25ZM69.48,166.67q-.11.21-.21.39a.25.25,0,0,1-.35.11.28.28,0,0,1-.1-.36,7.63,7.63,0,0,0,.57-1.31.26.26,0,1,1,.5.16A10.14,10.14,0,0,1,69.48,166.67Zm53.78-112a.16.16,0,0,1-.06.08,10.1,10.1,0,0,0-1,1,.26.26,0,1,1-.39-.35,11,11,0,0,1,1.09-1.05.25.25,0,0,1,.36,0A.26.26,0,0,1,123.26,54.71Zm-53,109.54a.25.25,0,0,1-.27.14.26.26,0,0,1-.22-.29,6.94,6.94,0,0,0,.06-1.43.26.26,0,0,1,.24-.28.27.27,0,0,1,.28.24,7.29,7.29,0,0,1-.07,1.54A.24.24,0,0,1,70.22,164.25ZM86.48,130a.24.24,0,0,1-.18.14.26.26,0,0,1-.31-.2c-.1-.52-.18-1-.24-1.49a.26.26,0,1,1,.52-.06c0,.45.13.94.23,1.45A.3.3,0,0,1,86.48,130ZM120.8,58.33a.27.27,0,0,1-.3.14.26.26,0,0,1-.19-.32,6.54,6.54,0,0,1,.57-1.44.25.25,0,0,1,.35-.1.24.24,0,0,1,.1.35,5.94,5.94,0,0,0-.52,1.32S120.8,58.31,120.8,58.33Zm-2,3.91a.25.25,0,0,1-.29.14.26.26,0,0,1-.2-.31,5.62,5.62,0,0,1,.54-1.45.25.25,0,0,1,.35-.11.24.24,0,0,1,.11.35,5,5,0,0,0-.49,1.33S118.83,62.23,118.82,62.24ZM66.52,170.53a.21.21,0,0,1-.06.08c-.37.33-.76.65-1.16,1a.27.27,0,0,1-.37-.06.26.26,0,0,1,.06-.36,12.55,12.55,0,0,0,1.12-.93.26.26,0,0,1,.41.31Zm.53-1.92a.25.25,0,0,1-.31.14,9.57,9.57,0,0,1-1-.42l-.36-.19a.25.25,0,0,1-.1-.35.25.25,0,0,1,.35-.1l.34.17a7.4,7.4,0,0,0,1,.39.26.26,0,0,1,.16.33A0,0,0,0,1,67.05,168.61ZM70,161.32a.35.35,0,0,1-.14.13.26.26,0,0,1-.34-.16,3.79,3.79,0,0,0-.69-1.19.26.26,0,1,1,.39-.34,4.33,4.33,0,0,1,.79,1.35A.26.26,0,0,1,70,161.32ZM89.3,120.68a.22.22,0,0,1-.1.11,5.41,5.41,0,0,0-1.12.87.26.26,0,0,1-.37-.37,6.29,6.29,0,0,1,1.22-.94.26.26,0,0,1,.37.33ZM86.15,127a.26.26,0,0,1-.5-.11,10.58,10.58,0,0,1,.1-1.52.26.26,0,1,1,.51.07,11.18,11.18,0,0,0-.09,1.45A.36.36,0,0,1,86.15,127Zm-22,45.28a.52.52,0,0,1-.1.11c-.43.26-.87.5-1.33.72a.27.27,0,0,1-.35-.12.28.28,0,0,1,.12-.35,14.52,14.52,0,0,0,1.29-.7.26.26,0,0,1,.35.09A.28.28,0,0,1,64.15,172.3ZM126.28,42.16a.25.25,0,0,1,0,.07.27.27,0,0,1-.37,0l-1.08-1a.26.26,0,1,1,.36-.38l1.08,1A.26.26,0,0,1,126.28,42.16ZM86.58,124.1a.25.25,0,0,1-.32.13.27.27,0,0,1-.16-.33,7.08,7.08,0,0,1,.66-1.39.27.27,0,0,1,.36-.09.26.26,0,0,1,.08.36,6.29,6.29,0,0,0-.6,1.29Zm-25.1,49.5a.25.25,0,0,1-.14.13,14.93,14.93,0,0,1-1.43.47.25.25,0,0,1-.32-.18.26.26,0,0,1,.18-.32,14,14,0,0,0,1.38-.46.26.26,0,0,1,.34.16A.23.23,0,0,1,61.48,173.6Zm3-6.39,0,0a.27.27,0,0,1-.37,0A7,7,0,0,1,63,166.22a.26.26,0,1,1,.4-.33,6.91,6.91,0,0,0,1,1A.26.26,0,0,1,64.45,167.21Zm3.63-8.09h0a.25.25,0,0,1-.35.11l-.08,0a3.24,3.24,0,0,0-1.24-.31.26.26,0,1,1,0-.52,3.79,3.79,0,0,1,1.44.37l.09,0A.26.26,0,0,1,68.08,159.12Zm56-119a.25.25,0,0,1,0,.07.27.27,0,0,1-.37,0l-1.08-1a.26.26,0,0,1,.36-.38l1.08,1A.26.26,0,0,1,124.12,40.12ZM58.62,174.41a.26.26,0,0,1-.18.14c-.49.09-1,.16-1.5.21a.26.26,0,0,1-.28-.23.27.27,0,0,1,.23-.29,14,14,0,0,0,1.45-.2.26.26,0,0,1,.31.2A.25.25,0,0,1,58.62,174.41Zm4-9.49a.23.23,0,0,1-.12.12.26.26,0,0,1-.35-.12,5.35,5.35,0,0,1-.46-1.49.26.26,0,0,1,.22-.29.26.26,0,0,1,.3.22,4.81,4.81,0,0,0,.41,1.34A.24.24,0,0,1,62.59,164.92Zm2.61-6a.32.32,0,0,1-.16.14,4.16,4.16,0,0,0-1.23.65.27.27,0,0,1-.37-.06.26.26,0,0,1,.06-.36,5,5,0,0,1,1.38-.73.27.27,0,0,1,.33.17A.31.31,0,0,1,65.2,159ZM122,38.08l0,.07a.27.27,0,0,1-.37,0l-1.08-1a.26.26,0,0,1,0-.37.25.25,0,0,1,.36,0l1.09,1A.26.26,0,0,1,122,38.08ZM62.22,162a.26.26,0,0,1-.3.14.26.26,0,0,1-.19-.31,4.45,4.45,0,0,1,.67-1.43.26.26,0,0,1,.43.3,3.76,3.76,0,0,0-.59,1.25S62.23,162,62.22,162Zm-6.55,12.66a.25.25,0,0,1-.23.15c-.5,0-1,0-1.51-.06a.26.26,0,1,1,0-.52c.48,0,1,.06,1.46.06a.26.26,0,0,1,.26.26A.2.2,0,0,1,55.67,174.69ZM119.8,36l0,.07a.28.28,0,0,1-.37,0l-1.08-1a.26.26,0,0,1,0-.37.25.25,0,0,1,.36,0l1.08,1A.25.25,0,0,1,119.8,36ZM52.72,174.44a.28.28,0,0,1-.29.14l-.17,0c-.44-.08-.87-.18-1.3-.3a.27.27,0,0,1-.18-.32.27.27,0,0,1,.33-.18c.4.11.82.21,1.25.29l.17,0a.26.26,0,0,1,.21.3A.64.64,0,0,0,52.72,174.44ZM117.64,34l0,.07a.26.26,0,0,1-.36,0l-.67-.64c-.14-.12-.28-.26-.41-.39a.26.26,0,0,1,0-.37.27.27,0,0,1,.37,0l.41.39.66.63A.25.25,0,0,1,117.64,34ZM49.86,173.63a.25.25,0,0,1-.33.12,9.1,9.1,0,0,1-.85-.37c-.18-.08-.35-.17-.52-.26a.27.27,0,0,1-.11-.36.26.26,0,0,1,.35-.1l.5.25c.27.13.55.25.82.36a.26.26,0,0,1,.15.34ZM117,29.84a.26.26,0,0,1-.48-.2,3.59,3.59,0,0,0,.16-1.36A.25.25,0,0,1,117,28a.26.26,0,0,1,.28.24A3.83,3.83,0,0,1,117,29.8S117,29.83,117,29.84Zm-.68,1.31a.08.08,0,0,1,0,0,6.59,6.59,0,0,1-1.06,1.13.25.25,0,0,1-.36,0,.26.26,0,0,1,0-.37l.07-.06c-.31-.36-.6-.71-.87-1.06a.26.26,0,0,1,0-.36.26.26,0,0,1,.37,0c.25.33.53.67.83,1a7.31,7.31,0,0,0,.52-.61.25.25,0,0,1,.36-.06A.25.25,0,0,1,116.35,31.15ZM47.26,172.21l0,0a.26.26,0,0,1-.36.06,10.1,10.1,0,0,1-1-.83l-.17-.16a.25.25,0,0,1,0-.36.25.25,0,0,1,.36,0l.16.16a10.68,10.68,0,0,0,1,.78A.26.26,0,0,1,47.26,172.21ZM114.12,33.07a.32.32,0,0,1-.11.12,11.74,11.74,0,0,1-1.38.64.27.27,0,0,1-.34-.15.26.26,0,0,1,.15-.33,9.33,9.33,0,0,0,1.31-.62.27.27,0,0,1,.36.1A.29.29,0,0,1,114.12,33.07Zm2.74-6.14a.29.29,0,0,1-.14.13.27.27,0,0,1-.34-.14,4.7,4.7,0,0,0-.71-1.21.26.26,0,1,1,.4-.33,5.18,5.18,0,0,1,.8,1.34A.3.3,0,0,1,116.86,26.93Zm-3.12,2.6a.18.18,0,0,1-.1.11.25.25,0,0,1-.35-.08,10.35,10.35,0,0,1-.69-1.37.27.27,0,0,1,.15-.34.27.27,0,0,1,.34.15,9.07,9.07,0,0,0,.64,1.29A.23.23,0,0,1,113.74,29.53Zm-2.38,4.63a.31.31,0,0,1-.17.13c-.16.05-.32.08-.48.12-.33.07-.66.14-1,.19a.26.26,0,0,1-.3-.22.25.25,0,0,1,.22-.29l1-.19.46-.11a.26.26,0,0,1,.31.19A.28.28,0,0,1,111.36,34.16Zm-66.21,136-.08.09a.26.26,0,0,1-.36,0,12,12,0,0,1-.83-1.27.26.26,0,1,1,.45-.26,11.6,11.6,0,0,0,.79,1.22A.26.26,0,0,1,45.15,170.14ZM115,24.7h0a.25.25,0,0,1-.35.1l-.2-.1a2.85,2.85,0,0,0-1.1-.29.26.26,0,1,1,0-.52,3.58,3.58,0,0,1,1.3.34l.22.12A.26.26,0,0,1,115,24.7Zm-2.28,2.08a.27.27,0,0,1-.21.14.26.26,0,0,1-.29-.22,4.3,4.3,0,0,1,.09-1.57.26.26,0,0,1,.5.12,3.74,3.74,0,0,0-.07,1.38A.26.26,0,0,1,112.7,26.78Zm-4.27,7.85a.27.27,0,0,1-.22.15c-.49,0-1,0-1.5,0a.26.26,0,0,1-.26-.26.25.25,0,0,1,.26-.26c.49,0,1,0,1.46-.05a.25.25,0,0,1,.28.24A.2.2,0,0,1,108.43,34.63ZM43.69,167.56a.22.22,0,0,1-.13.12.25.25,0,0,1-.34-.14c-.18-.44-.36-.92-.51-1.42a.26.26,0,0,1,.17-.32.27.27,0,0,1,.33.17c.15.48.31.95.49,1.37A.28.28,0,0,1,43.69,167.56ZM105.46,34.61a.26.26,0,0,1-.26.15c-.49,0-1-.1-1.49-.18a.27.27,0,0,1-.22-.3.26.26,0,0,1,.3-.21c.48.07,1,.13,1.45.17a.26.26,0,0,1,.24.28A.2.2,0,0,1,105.46,34.61ZM42.8,164.73a.27.27,0,0,1-.17.14.28.28,0,0,1-.32-.2c-.11-.48-.22-1-.31-1.46a.25.25,0,0,1,.2-.3.26.26,0,0,1,.31.2c.09.49.2,1,.31,1.44A.28.28,0,0,1,42.8,164.73Zm-.57-2.92a.28.28,0,0,1-.2.15.27.27,0,0,1-.3-.22l-.24-1.46a.26.26,0,0,1,.21-.3.25.25,0,0,1,.3.21l.25,1.47A.25.25,0,0,1,42.23,161.81Zm60.3-127.66a.27.27,0,0,1-.3.14c-.49-.11-1-.25-1.45-.4a.25.25,0,0,1-.17-.32.26.26,0,0,1,.32-.17c.47.14.94.27,1.42.38a.26.26,0,0,1,.19.32S102.53,34.13,102.53,34.15ZM41.73,158.88a.27.27,0,0,1-.19.14.25.25,0,0,1-.3-.2c-.09-.49-.19-1-.29-1.45a.26.26,0,0,1,.51-.11c.1.48.2,1,.29,1.46A.29.29,0,0,1,41.73,158.88Zm-.65-2.9a.25.25,0,0,1-.16.14.25.25,0,0,1-.32-.18c-.11-.4-.23-.79-.37-1.17l-.08-.23a.26.26,0,0,1,.16-.33.26.26,0,0,1,.33.15l.08.24c.14.39.26.79.38,1.2A.28.28,0,0,1,41.08,156ZM99.69,33.27a.26.26,0,0,1-.33.13c-.46-.19-.93-.39-1.38-.6a.26.26,0,0,1-.12-.35h0a.26.26,0,0,1,.35-.12c.43.21.89.4,1.34.58a.27.27,0,0,1,.15.34ZM40.06,153.19a.25.25,0,0,1-.12.13.27.27,0,0,1-.35-.13c-.2-.44-.43-.88-.67-1.3a.25.25,0,0,1,.1-.35.25.25,0,0,1,.35.09c.25.44.48.89.69,1.34A.24.24,0,0,1,40.06,153.19ZM97,32h0a.25.25,0,0,1-.35.1c-.43-.24-.87-.51-1.28-.79a.26.26,0,0,1,.29-.43c.4.27.82.53,1.24.77A.26.26,0,0,1,97,32ZM38.59,150.62a.28.28,0,0,1-.09.1.26.26,0,0,1-.36-.07c-.28-.4-.57-.79-.88-1.17a.26.26,0,0,1,.41-.33c.31.39.61.79.9,1.21A.27.27,0,0,1,38.59,150.62Zm56-120.29,0,.05a.27.27,0,0,1-.37,0c-.4-.31-.78-.64-1.14-1a.26.26,0,1,1,.35-.39c.35.33.73.65,1.11,1A.27.27,0,0,1,94.55,30.33Zm-57.84,118-.05.07a.26.26,0,0,1-.37,0c-.33-.35-.69-.69-1-1a.26.26,0,0,1,0-.37.25.25,0,0,1,.36,0c.38.33.74.68,1.09,1A.27.27,0,0,1,36.71,148.32Zm55.66-120-.06.07a.27.27,0,0,1-.37,0l-.25-.29c-.25-.28-.49-.57-.72-.86a.26.26,0,0,1,0-.37.25.25,0,0,1,.36.05c.22.29.46.57.7.84l.24.28A.26.26,0,0,1,92.37,28.32Zm-57.88,118,0,0a.27.27,0,0,1-.37.06,14.33,14.33,0,0,0-1.22-.81.26.26,0,0,1-.09-.35.25.25,0,0,1,.36-.09,13,13,0,0,1,1.26.83A.26.26,0,0,1,34.49,146.35Zm-3.84,4.23a.26.26,0,0,1-.33.13.27.27,0,0,1-.15-.34,5.33,5.33,0,0,0,.29-1.16l0-.22a.27.27,0,0,1,.29-.23.26.26,0,0,1,.23.29l0,.22a6.48,6.48,0,0,1-.32,1.28ZM90.55,26a.22.22,0,0,1-.09.1A.26.26,0,0,1,90.1,26c-.27-.42-.53-.86-.77-1.3a.26.26,0,0,1,.11-.35.26.26,0,0,1,.35.1,14.43,14.43,0,0,0,.75,1.26A.27.27,0,0,1,90.55,26ZM30,151.9l0,0a6.89,6.89,0,0,1-1,1.17.26.26,0,0,1-.37,0,.25.25,0,0,1,0-.36,6.33,6.33,0,0,0,.92-1.09.26.26,0,0,1,.36-.07A.25.25,0,0,1,30,151.9Zm1-4.25a.27.27,0,0,1-.21.15.26.26,0,0,1-.28-.24,10.61,10.61,0,0,0-.23-1.43.25.25,0,0,1,.19-.31.26.26,0,0,1,.31.19,9.1,9.1,0,0,1,.24,1.51A.2.2,0,0,1,31,147.65Zm-3.17,6.26a.18.18,0,0,1-.1.11,5.27,5.27,0,0,1-1.44.59.24.24,0,0,1-.31-.18.26.26,0,0,1,.18-.32,5.11,5.11,0,0,0,1.31-.54.26.26,0,0,1,.35.1A.23.23,0,0,1,27.82,153.91Zm4.12-9.07a.28.28,0,0,1-.35.13,13.3,13.3,0,0,0-1.31-.53l0,.12a.27.27,0,0,1-.15.34.26.26,0,0,1-.34-.16,13.58,13.58,0,0,0-.58-1.34.26.26,0,0,1,.12-.34.26.26,0,0,1,.35.12c.14.28.27.56.38.84a.29.29,0,0,1,.29-.09c.47.16,1,.35,1.41.56a.27.27,0,0,1,.13.35ZM89.15,23.36a.25.25,0,0,1-.13.12.26.26,0,0,1-.35-.13q-.3-.69-.54-1.41a.26.26,0,0,1,.16-.33.27.27,0,0,1,.33.17c.16.45.34.91.53,1.36A.28.28,0,0,1,89.15,23.36ZM25,154.63a.25.25,0,0,1-.25.14,4.52,4.52,0,0,1-1.49-.32l.06-.25.1-.24-.1.24.12-.23a4.52,4.52,0,0,0,1.34.28.27.27,0,0,1,.25.28A.38.38,0,0,1,25,154.63Zm4.14-10.73a.27.27,0,0,1-.29.15,8.94,8.94,0,0,0-1.43-.2.26.26,0,0,1-.24-.28.26.26,0,0,1,.27-.24,10.14,10.14,0,0,1,1.51.21.25.25,0,0,1,.2.3A.14.14,0,0,1,29.12,143.9ZM88.18,20.55a.24.24,0,0,1-.17.14.26.26,0,0,1-.32-.19c-.12-.48-.23-1-.31-1.47a.26.26,0,1,1,.51-.09c.08.48.19,1,.31,1.43A.28.28,0,0,1,88.18,20.55ZM29,142.09a.22.22,0,0,1-.1.11.26.26,0,0,1-.36-.09c-.25-.42-.51-.84-.78-1.25a.26.26,0,0,1,.44-.28c.27.41.54.84.79,1.27A.23.23,0,0,1,29,142.09ZM87.68,17.63a.29.29,0,0,1-.21.14.27.27,0,0,1-.29-.23c0-.5-.06-1-.06-1.51a.26.26,0,1,1,.52,0c0,.48,0,1,.06,1.46A.23.23,0,0,1,87.68,17.63ZM22.27,153.55l0,.06a.25.25,0,0,1-.36,0,4.68,4.68,0,0,1-1-1.21.26.26,0,0,1,.1-.36.25.25,0,0,1,.35.1,4.2,4.2,0,0,0,.89,1.07A.26.26,0,0,1,22.27,153.55Zm3.9-9.83a.27.27,0,0,1-.21.15,8,8,0,0,0-1.41.27.24.24,0,0,1-.32-.17.25.25,0,0,1,.17-.32,7.48,7.48,0,0,1,1.51-.3.26.26,0,0,1,.28.24A.2.2,0,0,1,26.17,143.72ZM87.67,14.66a.27.27,0,0,1-.25.15.27.27,0,0,1-.24-.29c0-.5.11-1,.19-1.49a.26.26,0,0,1,.3-.21.25.25,0,0,1,.21.3c-.08.47-.14,1-.18,1.45Zm-60.27,125a.28.28,0,0,1-.09.1.26.26,0,0,1-.36-.06c-.29-.4-.58-.79-.88-1.18a.27.27,0,0,1,0-.37.28.28,0,0,1,.37.05c.3.39.6.79.89,1.2A.25.25,0,0,1,27.4,139.61ZM88.19,11.74a.26.26,0,0,1-.49-.19c.14-.48.29-1,.47-1.43a.26.26,0,1,1,.49.19c-.17.44-.33.91-.46,1.38C88.2,11.71,88.19,11.72,88.19,11.74Zm1-2.78a.27.27,0,0,1-.35.13.27.27,0,0,1-.12-.35c.18-.39.41-.88.59-1.34a.24.24,0,0,1,.33-.15.26.26,0,0,1,.15.33c-.18.49-.41,1-.6,1.38ZM20.78,151a.24.24,0,0,1-.17.14.25.25,0,0,1-.31-.19,6.47,6.47,0,0,1-.18-1.53.26.26,0,0,1,.27-.26.25.25,0,0,1,.25.26,6,6,0,0,0,.16,1.41A.2.2,0,0,1,20.78,151ZM90.2,6.16a.26.26,0,0,1-.26.15A.25.25,0,0,1,89.71,6a2.69,2.69,0,0,0-.18-1.34A.26.26,0,1,1,90,4.5a3.29,3.29,0,0,1,.2,1.58A.19.19,0,0,1,90.2,6.16ZM23.34,144.58a.2.2,0,0,1-.11.11,4.79,4.79,0,0,0-1.1.87.26.26,0,1,1-.38-.36,5.11,5.11,0,0,1,1.23-1,.27.27,0,0,1,.36.1A.25.25,0,0,1,23.34,144.58Zm-2.54,3.51a.25.25,0,0,1-.29.14.26.26,0,0,1-.19-.32,6.09,6.09,0,0,1,.54-1.44.26.26,0,0,1,.46.24l-.08.16a5.82,5.82,0,0,0-.42,1.17S20.81,148.07,20.8,148.09Zm4.78-10.83a.28.28,0,0,1-.07.09.26.26,0,0,1-.36,0c-.32-.38-.63-.76-1-1.13a.25.25,0,0,1,0-.36.25.25,0,0,1,.36,0l1,1.14A.26.26,0,0,1,25.58,137.26ZM89.13,3.52a.16.16,0,0,1,0,.07.27.27,0,0,1-.37,0,6.7,6.7,0,0,0-.79-.6,3.87,3.87,0,0,0-.37-.24.26.26,0,1,1,.28-.44l.38.24a7.7,7.7,0,0,1,.85.66A.25.25,0,0,1,89.13,3.52ZM23.63,135a.21.21,0,0,1-.06.08.25.25,0,0,1-.36,0l-1-1.07a.27.27,0,0,1,0-.37.26.26,0,0,1,.37,0c.35.35.69.71,1,1.08A.26.26,0,0,1,23.63,135Zm63-133.09h0a.27.27,0,0,1-.35.12L86.17,2c-.4-.19-.81-.37-1.22-.52a.25.25,0,0,1-.15-.33A.25.25,0,0,1,85.13,1c.43.16.86.34,1.27.54l.12.06A.26.26,0,0,1,86.64,1.93Zm-65.09,131,0,.06a.26.26,0,0,1-.37,0l-1.08-1a.27.27,0,0,1,0-.37.28.28,0,0,1,.37,0l1.09,1A.26.26,0,0,1,21.55,132.9ZM83.86.89a.26.26,0,0,1-.3.14A14,14,0,0,0,82.13.72a.25.25,0,0,1-.21-.3.24.24,0,0,1,.29-.21c.5.08,1,.19,1.48.31a.27.27,0,0,1,.19.32Zm-64.51,130a.09.09,0,0,1,0,0,.27.27,0,0,1-.37,0L17.82,130a.24.24,0,0,1,0-.36.26.26,0,0,1,.36,0c.39.31.77.63,1.15,1A.26.26,0,0,1,19.35,130.9ZM80.93.41a.25.25,0,0,1-.25.14,14.26,14.26,0,0,0-1.46,0A.27.27,0,0,1,79,.28.26.26,0,0,1,79.2,0c.5,0,1,0,1.51,0A.27.27,0,0,1,81,.31ZM73.52,11.85a.25.25,0,0,1-.31.14.27.27,0,0,1-.17-.33,2.33,2.33,0,0,0,.07-.25,3.8,3.8,0,0,0,.08-1.12.27.27,0,0,1,.25-.28.26.26,0,0,1,.27.25,4.41,4.41,0,0,1-.09,1.26c0,.1-.05.2-.08.3ZM17.05,129l0,0a.26.26,0,0,1-.37.05l-1.18-.88a.25.25,0,0,1-.06-.36.26.26,0,0,1,.36-.06l1.2.89A.26.26,0,0,1,17.05,129ZM72.76,13.12l0,.06a4.77,4.77,0,0,1-1.26.94.27.27,0,0,1-.35-.12.27.27,0,0,1,.11-.35,4.11,4.11,0,0,0,1.12-.82.27.27,0,0,1,.37,0A.27.27,0,0,1,72.76,13.12ZM78,.5a.28.28,0,0,1-.2.15,11.43,11.43,0,0,0-1.44.27A.26.26,0,0,1,76,.72a.25.25,0,0,1,.19-.31A14,14,0,0,1,77.7.13.26.26,0,0,1,78,.35.24.24,0,0,1,78,.5ZM73.36,8.94a.23.23,0,0,1-.14.13.25.25,0,0,1-.33-.15,6.67,6.67,0,0,0-.68-1.25.26.26,0,0,1,.43-.29,6,6,0,0,1,.73,1.36A.23.23,0,0,1,73.36,8.94Zm-3.19,5.51a.28.28,0,0,1-.2.15,4.35,4.35,0,0,1-1.57,0,.25.25,0,0,1-.2-.3.26.26,0,0,1,.31-.21,3.75,3.75,0,0,0,1.38,0,.26.26,0,0,1,.3.22A.25.25,0,0,1,70.17,14.45ZM14.63,127.29a.05.05,0,0,1,0,0,.26.26,0,0,1-.36.07q-.62-.42-1.23-.81a.25.25,0,0,1-.08-.36.25.25,0,0,1,.35-.08c.42.27.84.54,1.25.82A.24.24,0,0,1,14.63,127.29ZM75.09,1.21a.28.28,0,0,1-.15.13,10,10,0,0,0-1.17.5l-.16.08a.26.26,0,0,1-.35-.12.26.26,0,0,1,.11-.35l.17-.08c.4-.19.81-.37,1.22-.52A.27.27,0,0,1,75.1,1,.37.37,0,0,1,75.09,1.21Zm-3.4,5.3a.43.43,0,0,1,0,.07.27.27,0,0,1-.37,0,7.3,7.3,0,0,0-1.13-.88.26.26,0,1,1,.28-.44,7.85,7.85,0,0,1,1.21.94A.26.26,0,0,1,71.69,6.51Zm-4.35,7.32s0,0,0,.05a.27.27,0,0,1-.37,0,3.3,3.3,0,0,1-.51-.48l-.06-.07v-.09a8.23,8.23,0,0,1,0-.86.27.27,0,0,1,.27-.25.26.26,0,0,1,.25.27q0,.36,0,.72a2.43,2.43,0,0,0,.38.34A.25.25,0,0,1,67.34,13.83Zm5.1-11.28a.16.16,0,0,1-.08.1,11.47,11.47,0,0,0-1.16.89.26.26,0,0,1-.34-.4c.38-.32.79-.63,1.21-.92a.26.26,0,0,1,.36.07A.27.27,0,0,1,72.44,2.55ZM12.13,125.7l0,0a.26.26,0,0,1-.35.09L10.48,125a.26.26,0,0,1-.09-.35.25.25,0,0,1,.36-.09l1.28.76A.28.28,0,0,1,12.13,125.7ZM70.2,4.49l0,.06a10.07,10.07,0,0,0-.92,1.13.28.28,0,0,1-.37.06.27.27,0,0,1-.05-.37,11.84,11.84,0,0,1,1-1.17.27.27,0,0,1,.37,0A.26.26,0,0,1,70.2,4.49ZM67,11.08a.24.24,0,0,1-.27.14.26.26,0,0,1-.22-.3,13.1,13.1,0,0,1,.33-1.48.26.26,0,1,1,.5.15A11.21,11.21,0,0,0,67,11S67,11.06,67,11.08Zm1.46-4.19h0a13.12,13.12,0,0,0-.63,1.31.25.25,0,0,1-.34.14A.25.25,0,0,1,67.34,8,12.16,12.16,0,0,1,68,6.65a.25.25,0,0,1,.35-.1A.26.26,0,0,1,68.46,6.89ZM69,4.82l-.12.23a9.74,9.74,0,0,0-1.36-.4.26.26,0,0,1,.11-.51A9.6,9.6,0,0,1,69,4.57ZM9.58,124.17v0a.27.27,0,0,1-.36.09c-.43-.26-.85-.53-1.26-.8a.26.26,0,1,1,.28-.43l1.25.78A.26.26,0,0,1,9.58,124.17ZM66.31,4.31a.27.27,0,0,1-.26.14,13.94,13.94,0,0,0-1.45,0,.25.25,0,0,1-.27-.25.26.26,0,0,1,.24-.27c.52,0,1,0,1.52,0a.27.27,0,0,1,.24.28A.36.36,0,0,1,66.31,4.31ZM38.1,62.73c-.14.28-.28.56-.44.84a.25.25,0,0,1-.35.1.25.25,0,0,1-.1-.35c.23-.43.45-.86.65-1.31a.25.25,0,0,1,.34-.13.25.25,0,0,1,.13.34C38.26,62.39,38.18,62.56,38.1,62.73Zm.77-1.89a.27.27,0,0,1-.32.14.26.26,0,0,1-.16-.33c.15-.46.29-.94.4-1.41a.26.26,0,0,1,.51.12c-.12.49-.26,1-.42,1.45A0,0,0,0,0,38.87,60.84Zm-2,4a.05.05,0,0,1,0,0c-.28.42-.58.82-.9,1.21a.26.26,0,0,1-.4-.33q.47-.57.87-1.17a.26.26,0,0,1,.36-.07A.24.24,0,0,1,36.89,64.82ZM39.56,58a.25.25,0,0,1-.27.14.26.26,0,0,1-.22-.29c.07-.49.12-1,.14-1.46a.26.26,0,0,1,.27-.24.25.25,0,0,1,.25.27q0,.75-.15,1.5A.24.24,0,0,1,39.56,58ZM35,67.12l0,.07c-.35.35-.73.7-1.11,1a.27.27,0,0,1-.37,0,.25.25,0,0,1,0-.36,12.67,12.67,0,0,0,1.08-1,.27.27,0,0,1,.37,0A.26.26,0,0,1,35,67.12ZM39.71,55a.24.24,0,0,1-.22.15.25.25,0,0,1-.27-.25,13.69,13.69,0,0,0-.14-1.45.27.27,0,0,1,.22-.3.27.27,0,0,1,.3.23c.07.49.11,1,.14,1.5A.24.24,0,0,1,39.71,55ZM7.09,122.54l0,0a.26.26,0,0,1-.37.06c-.43-.31-.82-.6-1.2-.9a.26.26,0,0,1,0-.36.26.26,0,0,1,.37,0c.36.29.75.58,1.18.88A.26.26,0,0,1,7.09,122.54ZM32.72,69a.2.2,0,0,1-.08.1c-.42.28-.86.54-1.3.78a.25.25,0,0,1-.35-.11.26.26,0,0,1,.1-.35q.64-.34,1.26-.75a.26.26,0,0,1,.36.07A.27.27,0,0,1,32.72,69ZM63.34,4.44a.25.25,0,0,1-.19.15c-.47.06-.95.16-1.44.27a.26.26,0,0,1-.31-.2.25.25,0,0,1,.19-.31c.51-.11,1-.21,1.48-.28a.27.27,0,0,1,.3.22A.37.37,0,0,1,63.34,4.44ZM39.29,52.06a.24.24,0,0,1-.17.14A.27.27,0,0,1,38.8,52a11.81,11.81,0,0,0-.42-1.4.27.27,0,0,1,.16-.33.25.25,0,0,1,.33.16,14.09,14.09,0,0,1,.44,1.44A.28.28,0,0,1,39.29,52.06ZM30.11,70.4a.29.29,0,0,1-.14.13c-.38.16-.78.3-1.17.42l-.26.07a.24.24,0,0,1-.32-.17.26.26,0,0,1,.17-.32l.26-.08c.38-.12.75-.25,1.12-.4a.26.26,0,0,1,.34.35ZM40.18,47.7,40,48a.27.27,0,0,1-.35.11.26.26,0,0,1-.11-.35,9.34,9.34,0,0,0,.57-1.33.25.25,0,0,1,.33-.16.26.26,0,0,1,.16.33A9.74,9.74,0,0,1,40.18,47.7Zm-1,1.54a.05.05,0,0,1,0,0,9.14,9.14,0,0,1-1,1.13.28.28,0,0,1-.37,0,.26.26,0,0,1,0-.37,8.75,8.75,0,0,0,1-1.05.26.26,0,0,1,.37,0A.25.25,0,0,1,39.23,49.24ZM60.45,5.1a.26.26,0,0,1-.16.13c-.47.14-.94.3-1.4.46a.26.26,0,0,1-.33-.15.27.27,0,0,1,.15-.34c.47-.17.95-.32,1.43-.46a.24.24,0,0,1,.32.17A.31.31,0,0,1,60.45,5.1ZM4.78,120.68l0,.06a.25.25,0,0,1-.36,0c-.38-.36-.73-.72-1.06-1.09a.26.26,0,0,1,.4-.34c.31.35.65.7,1,1A.25.25,0,0,1,4.78,120.68ZM41,45.19a.24.24,0,0,1-.28.14.25.25,0,0,1-.2-.3c.09-.46.16-.94.22-1.45a.26.26,0,1,1,.51.06c0,.52-.13,1-.22,1.49Zm-2.71,4.08a.23.23,0,0,1-.12.12.27.27,0,0,1-.35-.12l-.06-.13A12.36,12.36,0,0,0,37.13,48a.26.26,0,0,1,.08-.36.26.26,0,0,1,.36.08c.23.37.45.78.66,1.2l.06.13A.24.24,0,0,1,38.29,49.27ZM37,51.21a.35.35,0,0,1-.1.11,7.05,7.05,0,0,1-1.4.63.25.25,0,0,1-.33-.16.26.26,0,0,1,.16-.33,7,7,0,0,0,1.31-.59A.26.26,0,0,1,37,51,.25.25,0,0,1,37,51.21Zm4.3-9a.26.26,0,0,1-.24.15.26.26,0,0,1-.25-.27c0-.48,0-1,0-1.47a.26.26,0,1,1,.52,0c0,.5,0,1,0,1.5A.17.17,0,0,1,41.33,42.24Zm-28.8,59.65,0,0a3,3,0,0,1-1.16,1.1.26.26,0,0,1-.35-.1.25.25,0,0,1,.11-.35,2.59,2.59,0,0,0,1-.93.26.26,0,0,1,.36-.08A.27.27,0,0,1,12.53,101.89ZM27.26,71.25a.24.24,0,0,1-.18.14c-.48.11-1,.2-1.46.29a.26.26,0,0,1-.31-.21.27.27,0,0,1,.21-.3L27,70.89a.26.26,0,0,1,.31.19A.25.25,0,0,1,27.26,71.25ZM12.94,100.49a.26.26,0,0,1-.23.14.26.26,0,0,1-.26-.26,1.81,1.81,0,0,0-.42-1.2.26.26,0,1,1,.4-.34,2.36,2.36,0,0,1,.54,1.55A.23.23,0,0,1,12.94,100.49ZM57.65,6.1a.24.24,0,0,1-.13.13c-.45.19-.9.39-1.34.61a.27.27,0,0,1-.35-.12A.26.26,0,0,1,56,6.37c.45-.22.91-.43,1.37-.62a.26.26,0,0,1,.34.14A.26.26,0,0,1,57.65,6.1ZM41.29,39.27a.29.29,0,0,1-.22.15.26.26,0,0,1-.28-.25c0-.49-.06-1-.1-1.47a.27.27,0,0,1,.24-.28.25.25,0,0,1,.28.24c0,.49.07,1,.1,1.49A.5.5,0,0,1,41.29,39.27ZM2.8,118.43a.16.16,0,0,1-.07.09.23.23,0,0,1-.35,0l0,0a12.16,12.16,0,0,1-.75-1.25.26.26,0,1,1,.46-.24,11.21,11.21,0,0,0,.72,1.2A.28.28,0,0,1,2.8,118.43ZM10,103.2a.28.28,0,0,1-.25.15A4.3,4.3,0,0,1,8.25,103a.27.27,0,0,1-.13-.35.25.25,0,0,1,.34-.13,3.73,3.73,0,0,0,1.34.34.25.25,0,0,1,.25.27A.36.36,0,0,1,10,103.2Zm24.2-51.06a.26.26,0,0,1-.2.15,6.68,6.68,0,0,1-1.55,0,.26.26,0,0,1-.22-.29.25.25,0,0,1,.29-.22,6.74,6.74,0,0,0,1.42,0,.27.27,0,0,1,.29.23A.32.32,0,0,1,34.23,52.14Zm2.48-5.38a.16.16,0,0,1-.06.08.26.26,0,0,1-.37,0,8.86,8.86,0,0,0-1-1,.26.26,0,0,1,0-.36.27.27,0,0,1,.37,0,8.57,8.57,0,0,1,1.08,1.09A.24.24,0,0,1,36.71,46.76Zm-12.37,25a.28.28,0,0,1-.19.14c-.49.08-1,.17-1.46.27a.27.27,0,0,1-.3-.21.26.26,0,0,1,.2-.31l1.47-.26a.25.25,0,0,1,.3.21A.3.3,0,0,1,24.34,71.8ZM55,7.41a.35.35,0,0,1-.1.11c-.43.24-.85.49-1.27.75a.26.26,0,0,1-.36-.08.27.27,0,0,1,.08-.36c.43-.26.86-.52,1.29-.76a.26.26,0,0,1,.36.1A.25.25,0,0,1,55,7.41ZM41.07,36.31a.24.24,0,0,1-.21.14.26.26,0,0,1-.29-.23l-.12-1.49a.26.26,0,1,1,.52,0l.12,1.48A.22.22,0,0,1,41.07,36.31ZM11.3,98.21h0a.27.27,0,0,1-.35.11l-.21-.11a4.7,4.7,0,0,0-1.11-.38.26.26,0,0,1-.2-.31.25.25,0,0,1,.31-.2,6.05,6.05,0,0,1,1.22.42l.23.12A.25.25,0,0,1,11.3,98.21ZM1.45,115.82a.23.23,0,0,1-.14.13A.26.26,0,0,1,1,115.8a14.19,14.19,0,0,1-.46-1.44A.26.26,0,0,1,.7,114a.26.26,0,0,1,.32.18,11.87,11.87,0,0,0,.44,1.39A.26.26,0,0,1,1.45,115.82ZM40.84,33.34a.27.27,0,0,1-.22.15.27.27,0,0,1-.28-.24c0-.51-.05-1-.07-1.5a.26.26,0,0,1,.25-.26.25.25,0,0,1,.27.25c0,.48,0,1,.07,1.47A.27.27,0,0,1,40.84,33.34ZM52.47,9a.2.2,0,0,1-.08.1c-.4.29-.79.58-1.18.89a.26.26,0,0,1-.32-.41q.59-.46,1.2-.9a.26.26,0,0,1,.38.32ZM7.35,102a.1.1,0,0,1,0,0,.27.27,0,0,1-.37,0,6,6,0,0,1-1-1.17.26.26,0,0,1,.08-.36.27.27,0,0,1,.36.07,5,5,0,0,0,.93,1.07A.26.26,0,0,1,7.35,102ZM21.43,72.38a.24.24,0,0,1-.17.14l-.7.19-.71.23a.26.26,0,1,1-.16-.5l.72-.22.72-.2a.26.26,0,0,1,.32.19A.32.32,0,0,1,21.43,72.38Zm9.89-20.62a.26.26,0,0,1-.34.13l-.29-.13-.15-.08a4.09,4.09,0,0,1-.89-.6.26.26,0,1,1,.34-.4,3.64,3.64,0,0,0,.78.54l.15.07.26.12a.26.26,0,0,1,.14.34Zm3.11-6.87h0a.27.27,0,0,1-.35.12L34,45a5.49,5.49,0,0,0-1.26-.42.26.26,0,0,1,.1-.51,5.89,5.89,0,0,1,1.38.46l.09,0A.27.27,0,0,1,34.43,44.89Zm6.33-14.52a.26.26,0,0,1-.24.15.25.25,0,0,1-.25-.27c0-.49,0-1,.08-1.49a.27.27,0,0,1,.29-.24.26.26,0,0,1,.23.28c0,.49-.07,1-.08,1.47A.17.17,0,0,1,40.76,30.37Zm9.38-19.53a.16.16,0,0,1-.06.08c-.37.32-.73.66-1.08,1a.25.25,0,0,1-.36,0,.27.27,0,0,1,0-.37c.36-.35.72-.69,1.1-1a.27.27,0,0,1,.37,0A.26.26,0,0,1,50.14,10.84ZM8.43,97.56a.25.25,0,0,1-.23.15,6.14,6.14,0,0,0-1.41.19.27.27,0,0,1-.32-.19.26.26,0,0,1,.19-.31,6.71,6.71,0,0,1,1.53-.21.25.25,0,0,1,.24.37ZM.7,113a.24.24,0,0,1-.19.14.26.26,0,0,1-.3-.21c-.08-.49-.13-1-.17-1.5a.26.26,0,1,1,.52,0c0,.5.09,1,.16,1.46A.26.26,0,0,1,.7,113ZM48,12.92A.21.21,0,0,1,48,13c-.33.36-.65.73-1,1.11a.26.26,0,0,1-.4-.33c.32-.39.65-.76,1-1.13a.26.26,0,0,1,.37,0A.27.27,0,0,1,48,12.92ZM41,27.41a.26.26,0,0,1-.27.15.26.26,0,0,1-.22-.3c.07-.49.16-1,.26-1.47a.25.25,0,0,1,.3-.21.26.26,0,0,1,.21.31c-.1.48-.19,1-.26,1.45A.14.14,0,0,1,41,27.41ZM18.62,73.34a.27.27,0,0,1-.13.13,14.44,14.44,0,0,0-1.31.64.27.27,0,0,1-.36-.1.27.27,0,0,1,.11-.36c.43-.23.89-.46,1.35-.66a.25.25,0,0,1,.34.13A.24.24,0,0,1,18.62,73.34ZM5.73,99.59a.24.24,0,0,1-.15.13.26.26,0,0,1-.33-.16A7,7,0,0,1,5,98.63a6.07,6.07,0,0,0-.64.45l-.11.09a.25.25,0,0,1-.36,0,.26.26,0,0,1,0-.37L4,98.68a6.19,6.19,0,0,1,.88-.6v0a.27.27,0,0,1,.23-.29.24.24,0,0,1,.26.14.26.26,0,0,1,.09.46,6.34,6.34,0,0,0,.26,1A.27.27,0,0,1,5.73,99.59ZM46.13,15.2a.13.13,0,0,1,0,.05q-.43.59-.84,1.2a.26.26,0,0,1-.36.07.25.25,0,0,1-.07-.36c.27-.41.56-.82.86-1.22a.26.26,0,0,1,.36-.06A.27.27,0,0,1,46.13,15.2Zm-4.51,9.31a.26.26,0,0,1-.49-.18c.13-.49.27-1,.43-1.44a.26.26,0,1,1,.49.16q-.22.7-.42,1.41S41.62,24.49,41.62,24.51ZM.49,110a.25.25,0,0,1-.23.15.27.27,0,0,1-.26-.27c0-.48,0-1,.07-1.5a.27.27,0,0,1,.28-.24.27.27,0,0,1,.24.28c0,.5-.07,1-.07,1.47A.23.23,0,0,1,.49,110ZM29.1,49.86a.25.25,0,0,1-.45,0,5,5,0,0,1-.6-1.44.26.26,0,0,1,.5-.12,4.54,4.54,0,0,0,.54,1.29A.25.25,0,0,1,29.1,49.86ZM44.49,17.68v0c-.25.42-.49.85-.72,1.28a.26.26,0,0,1-.35.12.27.27,0,0,1-.11-.36c.23-.44.48-.88.73-1.31a.26.26,0,0,1,.46.25Zm-2,4a.26.26,0,0,1-.33.13.26.26,0,0,1-.15-.33c.18-.47.38-.93.59-1.39h0a.26.26,0,1,1,.47.22c-.2.44-.39.9-.57,1.35Zm-11,22.65a.26.26,0,0,1-.21.14,4,4,0,0,0-1.33.36.26.26,0,0,1-.24-.46A4.45,4.45,0,0,1,31.29,44a.26.26,0,0,1,.28.24A.23.23,0,0,1,31.55,44.33ZM.73,107a.25.25,0,0,1-.27.14.26.26,0,0,1-.22-.29c0-.3.09-.61.15-.9s.07-.39.11-.58a.26.26,0,0,1,.31-.2.25.25,0,0,1,.2.3c0,.19-.08.38-.11.57s-.1.59-.15.88A.24.24,0,0,1,.73,107ZM16,74.76a.22.22,0,0,1-.09.1c-.4.27-.8.56-1.19.86a.27.27,0,0,1-.36,0,.25.25,0,0,1,0-.36c.4-.31.81-.61,1.23-.88a.26.26,0,0,1,.36.07A.27.27,0,0,1,16,74.76ZM5.32,96.66a.24.24,0,0,1-.23.14.25.25,0,0,1-.26-.26c0-.45,0-.94.07-1.5a.28.28,0,0,1,.29-.24.26.26,0,0,1,.23.28c0,.55-.07,1-.07,1.47A.23.23,0,0,1,5.32,96.66Zm-2,3.49,0,0a8.52,8.52,0,0,0-.8,1.19.26.26,0,0,1-.46-.25,9.1,9.1,0,0,1,.86-1.27.26.26,0,0,1,.36,0A.25.25,0,0,1,3.29,100.15Zm-1.95,4a.25.25,0,0,1-.3.14.26.26,0,0,1-.18-.32,12.59,12.59,0,0,1,.49-1.43.27.27,0,0,1,.34-.15.27.27,0,0,1,.14.34c-.17.43-.33.89-.47,1.38C1.35,104.1,1.35,104.11,1.34,104.12ZM28.45,47a.25.25,0,0,1-.27.14.26.26,0,0,1-.22-.29,3.25,3.25,0,0,1,.59-1.49.25.25,0,0,1,.36-.05.27.27,0,0,1,.06.36,2.82,2.82,0,0,0-.5,1.25A.24.24,0,0,1,28.45,47ZM5.56,93.7a.25.25,0,0,1-.27.14.26.26,0,0,1-.22-.29c.06-.49.14-1,.23-1.48a.25.25,0,0,1,.3-.21.26.26,0,0,1,.21.3c-.09.49-.16,1-.23,1.46A.24.24,0,0,1,5.56,93.7Zm8.11-17.12a.16.16,0,0,1-.06.08c-.35.33-.7.67-1,1a.26.26,0,0,1-.38-.36c.35-.36.71-.72,1.07-1a.27.27,0,0,1,.37,0A.26.26,0,0,1,13.67,76.58ZM6.07,90.77a.25.25,0,0,1-.29.14.26.26,0,0,1-.2-.31c.11-.48.23-1,.36-1.45A.25.25,0,0,1,6.25,89a.26.26,0,0,1,.19.32c-.13.48-.24,1-.35,1.43A.14.14,0,0,1,6.07,90.77Zm5.56-12,0,.05c-.31.37-.61.77-.89,1.17a.27.27,0,1,1-.43-.31c.3-.41.6-.81.92-1.19a.26.26,0,0,1,.43.28ZM6.84,87.9a.29.29,0,0,1-.32.14.27.27,0,0,1-.17-.33c.15-.48.31-.95.48-1.42a.26.26,0,0,1,.34-.16.27.27,0,0,1,.15.34c-.17.46-.32.93-.47,1.39C6.85,87.88,6.84,87.89,6.84,87.9ZM9.9,81.15v0c-.26.41-.51.84-.75,1.27a.26.26,0,0,1-.35.1.24.24,0,0,1-.1-.35c.24-.45.49-.88.76-1.3a.25.25,0,0,1,.35-.08A.25.25,0,0,1,9.9,81.15Zm-2.05,4a.26.26,0,0,1-.33.13.27.27,0,0,1-.14-.34c.19-.46.39-.9.6-1.34a.29.29,0,0,1,.36-.14.25.25,0,0,1,.13.33c-.23.47-.42.9-.61,1.35Z"/><path d="M79.66,72.46c0-.7,0-2.12-2.87-2.16s-3.2,3.66-2.48,4,3.34.33,4-.43A14.34,14.34,0,0,1,79.66,72.46Z"/><path d="M55.37,72.7c.07-1.36-.94-2.27.28-2.91s6.6-.08,7.6.86-3.37,5.67-3.37,5.67Z"/><polygon points="116.06 160.95 106.12 160.95 107.27 141.66 116.06 141.66 116.06 160.95"/><polygon class="cls-4" points="120.64 161.04 110.71 161.04 110.71 144.2 119.5 144.2 120.64 161.04"/><polygon points="107.27 141.66 110.71 144.2 119.5 144.2 116.06 141.66 107.27 141.66"/><path d="M123.13,165.45c0,2.54-.56,4.6-3.61,4.6h-7.67c-3,0-3.82-2.06-3.82-4.6v-1c0-2.54.78-4.59,3.82-4.59h7.67c3,0,3.61,2,3.61,4.59Z"/><path d="M116.06,142.66V109.73s-17.49-27-20.21-29.63c-2.14-2.09-6.23-1.29-6.23-1.29s3.13,5.27.45,7.57c6.12,5.74,19.11,23.35,19.49,25.27s0,31,0,31Z"/><path class="cls-4" d="M95.8,80.1c-2.14-2.09-6.23-1.29-6.23-1.29s1.52,1.76,1.6,1.92c.43-.34,2.59-.11,4,1.24,2.73,2.65,19.73,28.14,19.73,28.14v32.55H116V109.73S98.53,82.76,95.8,80.1Z"/><polygon points="17.15 160.95 27.09 160.95 25.94 141.66 17.15 141.66 17.15 160.95"/><polygon class="cls-4" points="12.56 161.04 22.5 161.04 22.5 144.2 13.71 144.2 12.56 161.04"/><polygon points="25.94 141.66 22.5 144.2 13.71 144.2 17.15 141.66 25.94 141.66"/><path d="M10.08,165.45c0,2.54.56,4.6,3.6,4.6h7.67c3,0,3.82-2.06,3.82-4.6v-1c0-2.54-.77-4.59-3.82-4.59H13.68c-3,0-3.6,2-3.6,4.59Z"/><path d="M17.15,142.66V109.73s17.48-27,20.21-29.63c2.13-2.09,6.23-1.29,6.23-1.29s-3.13,5.27-.45,7.57C37,92.12,24,109.73,23.65,111.65s0,31,0,31Z"/><path class="cls-4" d="M17.2,109.73v32.93h1.14V110.11S35.35,84.62,38.07,82c1.38-1.35,3.54-1.58,4-1.24.08-.16,1.6-1.92,1.6-1.92s-4.1-.8-6.23,1.29C34.68,82.76,17.2,109.73,17.2,109.73Z"/><path d="M88.19,80.09c0,2.15-10.07,3.89-22.51,3.89s-22.51-1.74-22.51-3.89S53.25,76.2,65.68,76.2,88.19,77.94,88.19,80.09Z"/><path d="M114.66,169.52l-3.29-10.15-12.42,0-14.57-2.9a32.37,32.37,0,0,0-5.3-.52H53.67a34.83,34.83,0,0,0-5.3.5L33.9,159.21l-15,0-3.29,10.49a1.61,1.61,0,0,0,.9,2.52l20.17,8.26a16.47,16.47,0,0,0,5.15,1H86.5a17.19,17.19,0,0,0,5.17-1l21.92-8.37A1.78,1.78,0,0,0,114.66,169.52Z"/><path class="cls-4" d="M43.42,169.85a15.16,15.16,0,0,1-4.8-.94l-18.78-7.69a1.54,1.54,0,0,1-.54-2.7l5.84-5.85a9.58,9.58,0,0,1,4.2-2.24l20.18-3.88a31.52,31.52,0,0,1,4.93-.47H78.12a31.29,31.29,0,0,1,4.92.48l19.35,3.86a8.1,8.1,0,0,1,4,2.41l4.57,5.53a1.68,1.68,0,0,1-.74,2.81L89.84,169a16.48,16.48,0,0,1-4.82.88Z"/><path class="cls-5" d="M108.17,157.93,103.89,153a7.83,7.83,0,0,0-3.78-2.13l-18.17-3.42a29.73,29.73,0,0,0-4.62-.43H55.11a31.37,31.37,0,0,0-4.64.41L31.53,150.9a9.17,9.17,0,0,0-4,2l-5.48,5.19a1.34,1.34,0,0,0,.51,2.4l17.63,6.82a15,15,0,0,0,4.5.84H83.8a15.72,15.72,0,0,0,4.52-.79l19.15-6.91A1.47,1.47,0,0,0,108.17,157.93Zm-2.47,1.56-18.35,6a16.6,16.6,0,0,1-4.33.69H45.59a15.63,15.63,0,0,1-4.31-.73l-16.89-6c-1.14-.41-1.36-1.35-.49-2.1l5.25-4.54a9,9,0,0,1,3.79-1.72l18.15-3a32.81,32.81,0,0,1,4.43-.37H76.81a31.28,31.28,0,0,1,4.43.38l17.4,3a7.62,7.62,0,0,1,3.62,1.87l4.11,4.28C107.15,158.13,106.85,159.11,105.7,159.49Z"/><g class="cls-6"><path class="cls-4" d="M54.93,163.15a8.79,8.79,0,0,1-2.24-.33l-8.8-2.67c-.59-.18-.71-.6-.25-.94l2.73-2a5.06,5.06,0,0,1,2-.78l9.45-1.35a19.77,19.77,0,0,1,2.31-.16H71.19a17.82,17.82,0,0,1,2.31.17l9.06,1.34a4.2,4.2,0,0,1,1.88.83l2.14,1.93c.41.37.26.8-.34,1l-9.56,2.71a9.93,9.93,0,0,1-2.26.31Z"/></g><path class="cls-7" d="M70,44.06s-2.34,3.88-1.56,5.83S77.2,60.45,79.56,61.06s11.84.63,12.43.67a16.44,16.44,0,0,1,2,.54c1.35.35,1.31-.17,3.41.45.29.08.26-.34.26-.34s-1-.61-1.58-1.08a.67.67,0,0,1-.12-1l1.5.7s1.31,1.3,1.51,1.21c.62-.25-.76-1.9-.76-1.9s-.55-.46-1.65-1.27-5.22,0-5.22,0c-1-.44-9.53-2.66-9.53-2.66s-4.57-5.4-7.32-8.44a27.35,27.35,0,0,0-3.94-3.63Z"/><path class="cls-8" d="M71.41,42.23c2.31-.14,8.79,10.69,9.39,11.26l-6.51,6.63s-5.39-6.67-5.06-8.19S71.41,42.23,71.41,42.23Z"/><path d="M90.52,58a12.67,12.67,0,0,0,2.07.42,6.19,6.19,0,0,0,1.89-1.07c.51-.39,1.34-.62,1.47-1a.48.48,0,0,1,.92.15c.15.63-1.16,1.53-.94,1.6a6,6,0,0,0,1.88.4,21.15,21.15,0,0,1,4.12-.15c.12.2.22.58-1.17.78s-2.4.27-2.18.41,4.35.36,4.44.79-.18.73-1,.6S98,60.7,98.09,60.9s3.87.46,4,1.05c.09.34-.15.55-.67.51a33.73,33.73,0,0,0-3.61-.28c-.39.1,1.75.57,2.24.86s.4,1-.48.7a20.85,20.85,0,0,0-3.48-.58,13.67,13.67,0,0,1-4-1,21.39,21.39,0,0,0-2.42,0,3.17,3.17,0,0,1,.23-3.33C90.58,58.14,90.52,58,90.52,58Z"/><path class="cls-9" d="M101.19,58.43c-.28,0-.47.22-.43.39s.3.25.58.2.47-.22.43-.39S101.47,58.37,101.19,58.43Z"/><path class="cls-10" d="M101.2,58.5c-.21,0-.36.17-.33.3s.24.19.45.16.36-.18.33-.31S101.42,58.46,101.2,58.5Z"/><path class="cls-9" d="M102.33,60.17c-.28,0-.53.12-.55.31s.19.37.47.39.54-.13.56-.32S102.62,60.19,102.33,60.17Z"/><path class="cls-10" d="M102.32,60.25a.37.37,0,0,0-.42.24c0,.15.15.28.36.3s.41-.1.43-.25S102.54,60.26,102.32,60.25Z"/><path class="cls-9" d="M101.44,61.74c-.29,0-.54.1-.55.27s.19.32.48.34.53-.1.55-.28S101.72,61.75,101.44,61.74Z"/><path class="cls-10" d="M101.43,61.81c-.22,0-.41.08-.42.21s.15.25.37.26.4-.08.42-.21S101.65,61.82,101.43,61.81Z"/><path class="cls-9" d="M99.92,63.11a.47.47,0,0,0-.55.11c-.07.14.06.31.29.39s.47,0,.54-.11S100.15,63.19,99.92,63.11Z"/><path class="cls-10" d="M99.89,63.17a.37.37,0,0,0-.42.08c-.06.11,0,.24.22.3a.37.37,0,0,0,.42-.08C100.16,63.36,100.06,63.22,99.89,63.17Z"/><path class="cls-11" d="M95.55,58.29c.27-.56,1.21-1.2,1.17-1.44s-.27-.39-.71,0a10,10,0,0,0-2.18,1.68c-.24.27.39.39,1.06.17S95.55,58.29,95.55,58.29Z"/><path class="cls-11" d="M99.7,59.35c-.24,0-.49-.81-.32-1a6.38,6.38,0,0,0-1.26.12s.26,1,.5,1A5.2,5.2,0,0,0,99.7,59.35Z"/><path class="cls-11" d="M99.6,60.92c0-.09,0-1.08.25-1.19l-1.15-.17s-.61,1-.36,1.3A5.5,5.5,0,0,0,99.6,60.92Z"/><path class="cls-11" d="M99.19,62.29c0-.08,0-1,.25-1.13-.48-.07-1.12-.23-1.12-.23s-.59,1-.35,1.31A5.71,5.71,0,0,0,99.19,62.29Z"/><path class="cls-11" d="M98.09,63.46c-.08-.15.45-.88.73-.92-.78-.25-.91-.28-.91-.28s-.86.69-.79,1.08A5.47,5.47,0,0,0,98.09,63.46Z"/><path class="cls-9" d="M96.05,56.65a.33.33,0,0,0,.1.51.51.51,0,0,0,.57-.25c.12-.21.08-.44-.11-.51A.5.5,0,0,0,96.05,56.65Z"/><path class="cls-10" d="M96.12,56.68a.26.26,0,0,0,.09.39.37.37,0,0,0,.43-.19c.1-.16.07-.34-.08-.39A.39.39,0,0,0,96.12,56.68Z"/><path class="cls-9" d="M94.88,59.44a1.06,1.06,0,0,0-.74,1.45,1.49,1.49,0,0,0,1.8.49c.7-.26,1-.91.73-1.44A1.45,1.45,0,0,0,94.88,59.44Z"/><path class="cls-10" d="M95,59.6a.88.88,0,0,0-.62,1.21,1.23,1.23,0,0,0,1.5.41c.58-.22.86-.76.61-1.2A1.22,1.22,0,0,0,95,59.6Z"/><path class="cls-12" d="M40,160.33c-.21,2.39.59,3.82,1.91,4.26,2.33.78,5.29-.17,6.33-1.52s1.24-2.32,1.84-3c1.09-1.19.41-4.15.41-4.15l-4.71,6.22Z"/><path class="cls-7" d="M46.57,145.26a39.22,39.22,0,0,1-4,12.34c-1.24,2.8-2.3,4.2,1.48,4.93,2.69.52,5.05-1.09,5.67-5.13s1.86-10.9,1.86-10.9Z"/><path class="cls-13" d="M77.86,112.4c.5,3.77,3.73,11.63,2.64,13.23s2.79,23.34,4.35,25.83,3,5,7.25,7.07c-2.4,1.47-1.8,2.48-8.43.41-2.3-.71-4.85.39-5.32-1-1-3.24.54-2.2.59-7S72.52,134.21,76,126.72c2.13-4.59.44-14.4,1-16S77.86,112.4,77.86,112.4Z"/><path d="M82.78,123.4c-.3-4.14-5.19-46.62-5.38-49.1l-2.91-.48.24-2.06L59.67,69.58c-2.57,3.26-6.17,11.3-7.15,17.5S49.71,118.29,48.79,122s-2.29,9.66-3.26,15.45S44,150.18,44,150.18l8.82,1.5s4-13.3,6.66-27.12c1.12-5.74,6.61-17.22,10.11-34.49l-4,1.13c.19,4,1.65,15.56,6.61,34.07.14,8.75,5,24.56,5,24.56s3.4.85,7.78-2C84.65,143.75,83.08,127.54,82.78,123.4Z"/><path class="cls-12" d="M80.74,158.35a14.37,14.37,0,0,0-3.24-.91c0,.4-.06,2.41.33,2.51s9.71,3.06,15.3,1.14a1.41,1.41,0,0,0,.89-2.27A1.7,1.7,0,0,1,92.77,160C86.29,161,82.69,159,80.74,158.35Z"/><path class="cls-2" d="M88.66,155.51a5.79,5.79,0,0,0-2-2.56c-.9-.43-1.5-.07-1.48.85a11.49,11.49,0,0,0,1.4,3.19Z"/><path class="cls-2" d="M78.46,153.61a4.8,4.8,0,0,0-.73,4.64c1.56,1.16,12.24,2.36,12.24,2.36s4.59.41,4.11-2c-.21-1-3.52-1.75-5.82-3.74-3.1,2.4-3.48-1-4.83-.28C80.11,156.33,78.46,153.61,78.46,153.61Z"/><path class="cls-11" d="M42.77,157.91c.58-1.19-.17-6,2-5.86s4.53.83,4.1,2.7a23.84,23.84,0,0,1-1.6,4.2Z"/><path class="cls-11" d="M50.19,154.44c-.72,3.73-4.17,2.83-5,2.72-2.07-.26-2-1.08-2-1.4s-.19-.43-.19-.43c-1.29,2.11-2.06,2.33-2.94,3.94-1.52,2.77,2.1,5.44,5.94,4.11,3.17-1.09,2.19-2.47,3.89-4.84C51.13,156.88,50.69,154.78,50.19,154.44Z"/><path class="cls-4" d="M82.78,123.92c-.3-4.14-5.27-47.06-5.45-49.54l-1.53-.25L73.33,76c1.09,7.78,5.47,40.24,6.25,46.46.59,4.78.89,17.49,2.65,26.76a16.56,16.56,0,0,0,3.37-1.06C85.3,144,83.08,128.06,82.78,123.92Z"/><path class="cls-13" d="M74.33,50.18a10.57,10.57,0,0,0-2-2.12c-.72-1.74-2-5.22-2.58-5.72a16.77,16.77,0,0,0-3-1.72c-1.25-3.81,2-6.89,4.62-8.61,0,0-11.56-14.45-11.17-9.56C60.56,26,60,33.54,57.76,37.9c-.86,1.65-2.46,2.17-3.65,2.84C56,41.49,61.94,47,64.74,49,67.9,51.13,75.58,52.13,74.33,50.18Z"/><path class="cls-14" d="M75.61,58.22c.44-1.43,2.29-4.37.83-6.53-1-1.43-2.11-3-3.33-5.2-.48-1.08-1.14-4-1.7-4.26a36.93,36.93,0,0,0-3.62-1.3,3.5,3.5,0,0,1,1,3.52c-.24.71-1.24,1.2-2.59.81-2.73-.79-5.54-3.4-10.64-5.73-.8.77-3.92,2.75-4.71,3.69-1.58,3.5,2.53,9.15,4.74,14.82,2.28,5.84,3.8,8.42,4.11,11.54-.31,2.65-3.86,10.12-2.9,10.34,7.76,2.49,22.25,1,22-.69C77.5,68.25,75.17,59.66,75.61,58.22Z"/><path class="cls-8" d="M49.73,44.5c-1.58,3.5,3,10,5.2,15.71,2.28,5.84,1.88,6,2.19,9.13C56.81,72,52.55,79.49,53.51,79.7A30.31,30.31,0,0,0,63,81a50.37,50.37,0,0,0,1.23-12.49,49,49,0,0,0-.47-8.24c-.27-1.54.4-4.92.12-6.22-.61-2.83-4-8.54-10.39-13.06A17.32,17.32,0,0,0,49.73,44.5Z"/><path class="cls-15" d="M67.58,37.21l-9.31,7.63-4.16-4.1s3.38-1.43,3.79-3.19S59.36,29,59.36,29,63.34,35.55,67.58,37.21Z"/><path class="cls-13" d="M61.16,27.94c1.41-5.59,4.59-11,9-9.9s5.36,4.23,4,9.82a30.24,30.24,0,0,1-1.8,4.86c-.8,1.66-2.72,6.35-6,4.9C62.15,35.77,59.77,33.52,61.16,27.94Z"/><path class="cls-16" d="M68.81,25.41l6.07-.31c.72-1,0-7.34-6.86-8.29-6.28-.86-10.13,2.23-11,8.08-.53,3.68,1.23,9.49,1.23,9.49s4.43-2.66,3.74-4c-.41-.84-1.22-4.18.86-4.23.62,0,.93,1.07.93,1.07Z"/><path class="cls-16" d="M57.54,29.58c-1.72,2.34-.22,7.49.64,8.46s2.63-3.42,2.7-6S57.54,29.58,57.54,29.58Z"/><path class="cls-16" d="M57.1,35.51c-1.32,1.77,1.87,4.87,2.17,6.81s1.24-4.36.52-7.24S57.1,35.51,57.1,35.51Z"/><path class="cls-16" d="M60.12,39c1.11,1.52,2.46,6.13,1.89,6.41s-5.2-3.33-4.25-5.6S60.12,39,60.12,39Z"/><path class="cls-16" d="M61.44,43.15c1.06.78,1.84,1.49,2.62,4.12s-4.11-1.42-4.39-2.7S61.44,43.15,61.44,43.15Z"/><path class="cls-16" d="M63.07,46.49a8.78,8.78,0,0,1,4.18,5.75c-4,1.35-5.1,1.35-5.1,1.35s-1.2-7.1-.78-7.25A5.33,5.33,0,0,1,63.07,46.49Z"/><path class="cls-13" d="M51.1,47.47S50.25,51.06,51,53s6.7,11.39,9.07,12,12.37.59,13,.64a7.2,7.2,0,0,1,2,0c1.35.35-2-3.58-2-3.58-1-.44-10.22-2.32-10.22-2.32s-2.4-5.8-5.15-8.84c-2-2.16-5.42-2.68-6.11-3.24Z"/><path d="M72,60.66c.48.15,1.59,1,2.11,1a6.82,6.82,0,0,0,2.52-.75,12,12,0,0,1,2.21-.6c.54-.25,1.13-.26.91.48S77.74,61.9,78,62.05a4.54,4.54,0,0,0,1.75.85,20.15,20.15,0,0,1,4.31.53c.28.41.21,1-1.32.93s-2.88-.4-2.56,0,4.74,1.53,4.69,2.11-.37.92-1.21.58-4.27-1.21-4.19-.93,4.29,1.73,4,2.26-.3.69-.85.52a31.09,31.09,0,0,0-3.77-1.14c-.44,0,1.72,1.12,2.17,1.6s.2,1.35-.68.82a19.65,19.65,0,0,0-3.57-1.51,12.76,12.76,0,0,1-4.07-2.18,18.24,18.24,0,0,0-2.59-.52c-.27-1.63.13-3.57,1-4.33S72,60.66,72,60.66Z"/><path class="cls-17" d="M80.45,69.7a25.14,25.14,0,0,0-3.31-1.59h0A13.44,13.44,0,0,1,73,65h0a.1.1,0,0,1,0-.15h0a.11.11,0,0,1,.16,0h0a13.41,13.41,0,0,0,4.07,3.06h0a22.8,22.8,0,0,1,3.39,1.64h0a.1.1,0,0,1,0,.16h0a.12.12,0,0,1-.08,0h0a.12.12,0,0,1-.08,0Z"/><path class="cls-17" d="M82.72,68.42a27.13,27.13,0,0,0-3.4-1.36h0c-1-.37-5.39-2-6.26-2.52h0a.13.13,0,0,1,0-.16h0a.12.12,0,0,1,.16,0h0c.81.5,5.27,2.14,6.23,2.51h0a24.41,24.41,0,0,1,3.47,1.4h0a.12.12,0,0,1,0,.16h0a.11.11,0,0,1-.08,0h0a.11.11,0,0,1-.08,0Z"/><path class="cls-17" d="M84.36,66.58a51.29,51.29,0,0,0-5.17-1.29h0c-.89-.12-4.65-1.2-5.77-1.2h0l-.16,0h0a.12.12,0,0,1-.14-.09h0a.13.13,0,0,1,.09-.14h.21c1.2,0,4.94,1.08,5.8,1.19h0a49.59,49.59,0,0,1,5.22,1.31h0a.11.11,0,0,1,.06.15h0a.11.11,0,0,1-.1.07h0Z"/><path class="cls-17" d="M79.22,63.64a42.28,42.28,0,0,0-4.75-.37h0a3.13,3.13,0,0,0-1.08.11h0a.11.11,0,0,1-.16,0h0a.11.11,0,0,1,0-.16h0A2.89,2.89,0,0,1,74.47,63h0a40,40,0,0,1,4.78.38h0c.73.11,3.11.31,4.25.31h.27a.12.12,0,0,1,.12.11h0a.13.13,0,0,1-.11.12H83.5a40.73,40.73,0,0,1-4.28-.31Z"/><path class="cls-17" d="M73.35,62.93a.11.11,0,0,1,0-.15h0c.44-.69,2.83-1.22,3.85-1.53h0c1-.27,2-.62,2-.88h0a.11.11,0,0,1,.13-.09h0a.1.1,0,0,1,.09.12h0c-.14.56-1.22.75-2.2,1.06h0c-1,.29-3.45.92-3.71,1.43h0a.12.12,0,0,1-.1.06h0l-.06,0Z"/><path class="cls-11" d="M83.89,63.81a.33.33,0,0,1-.34.32l-.56,0a.33.33,0,0,1-.32-.34h0a.33.33,0,0,1,.34-.32l.56,0a.32.32,0,0,1,.32.34Z"/><path class="cls-11" d="M84.56,66.6a.33.33,0,0,1-.42.22l-.54-.17a.32.32,0,0,1-.21-.41h0A.33.33,0,0,1,83.8,66l.54.17a.33.33,0,0,1,.22.41Z"/><path class="cls-11" d="M83.12,68.5a.32.32,0,0,1-.42.17l-.47-.22A.31.31,0,0,1,82.1,68h0a.32.32,0,0,1,.41-.18l.47.22a.32.32,0,0,1,.14.43Z"/><path class="cls-11" d="M81,69.86a.32.32,0,0,1-.43.14l-.44-.26a.32.32,0,0,1-.1-.44h0a.31.31,0,0,1,.42-.14l.45.26a.32.32,0,0,1,.1.44Z"/><path class="cls-8" d="M49.26,45.64c-1.6,2.74,1.65,8.84,3.83,13.77.52,1.19,8.45-4.21,8.45-4.21S57,45.81,54.86,44.15,50.77,43.05,49.26,45.64Z"/><path d="M81.16,78.16a.57.57,0,0,1-.57-.57h0a.58.58,0,0,1,.57-.58h1a2.37,2.37,0,0,0,2.37-2.37h0a2.36,2.36,0,0,0-2.35-2.36h0l-2.79.07a.58.58,0,0,1-.59-.56h0a.57.57,0,0,1,.56-.59h0l2.8-.07a3.52,3.52,0,0,1,3.52,3.51h0a3.52,3.52,0,0,1-3.52,3.52h-1Z"/><path d="M79.76,78.09c5,.42,7.52,1,7.52,1.77,0,1.27-9.47,2.3-21.16,2.3S45,81.13,45,79.86c0-.73,2.13-1.53,7.09-2l.86-1c-5.48.45-9.57,1.21-10.8,2a5.14,5.14,0,0,0-3.25,4.56c0,2.1,2.31,4,3.84,4.52,3,1.28,12.32,2.2,23.42,2.2S86.46,89.28,89.49,88c1.52-.41,3.93-2.39,3.93-4.54a5.11,5.11,0,0,0-3.3-4.57c-1.21-.81-9.81-1.54-9.81-1.54Z"/><path class="cls-4" d="M90.07,78.91c-.84-.56-7-1.49-9.93-1.9-.54.26-.41,1.23-.41,1.23,5.14.42,7.5.87,7.5,1.62,0,1.27-9.48,2.3-21.16,2.3s-21.16-1-21.16-2.3c0-.62,1.46-1.42,4.88-1.92.71-.1,6.45-.66,7.32-.73,0-.12-.35-.33-.13-.65-1.08,0-6.21.41-7.15.51-4.38.47-7.09,1.38-7.78,1.85A5.07,5.07,0,0,0,39.1,82.4a9.26,9.26,0,0,0,3,2c3.13,1.34,12.46,2.06,24.15,2.06s20.93-1,24.12-2.37c.8-.21,2.1-.25,2.93-1.1A5.13,5.13,0,0,0,90.07,78.91Z"/><path class="cls-18" d="M67.18,84.91c-14.09,0-26.29-1.13-27.45-4.09a2.07,2.07,0,0,0-.68,1.34c0,3.19,12.75,4.48,27.61,4.48s26.4-1.42,26.58-4.19a7,7,0,0,0-.38-1.23C90.23,83.81,80.06,84.91,67.18,84.91Z"/><path d="M91.66,73.85c0,.36-.19.67-.42.69l-5.61.11c-.24,0-.43-.26-.44-.62h0c0-.36.18-.67.42-.69l5.61-.11c.23,0,.43.26.44.62Z"/><path d="M90.18,78.9a1.65,1.65,0,0,1-1.58,1.71h0A1.65,1.65,0,0,1,87,78.9V75.34a1.64,1.64,0,0,1,1.58-1.7h0a1.64,1.64,0,0,1,1.58,1.7Z"/><path d="M41.58,74a.65.65,0,0,0,.6.69h8.15a.63.63,0,0,0,.65-.63h0a.64.64,0,0,0-.59-.68H42.23a.64.64,0,0,0-.65.62Z"/><path d="M42.38,79.05a1.87,1.87,0,0,0,2,1.7h0a1.87,1.87,0,0,0,2-1.7V75.49a1.88,1.88,0,0,0-2-1.71h0a1.88,1.88,0,0,0-2,1.71Z"/><path d="M52.36,78a3.53,3.53,0,0,1-3.52-3.52h0a3.53,3.53,0,0,1,3.53-3.52h0l2.79.07a.57.57,0,0,1,.56.59h0a.57.57,0,0,1-.58.56h0l-2.78-.07A2.37,2.37,0,0,0,50,74.43h0a2.37,2.37,0,0,0,2.37,2.37h1a.57.57,0,0,1,.57.57h0a.57.57,0,0,1-.57.58h-1Z"/><path class="cls-4" d="M55.1,70.19c1.23,2.66,7.56,4.42,12.62,5.08,5.49.72,9.11-.72,10.55-2.2a16.33,16.33,0,0,0,2,7.18s-6.21,5.36-16.79,3.06c-7.86-1.71-10.35-2.83-10.84-4.55S55.1,70.19,55.1,70.19Z"/><path class="cls-19" d="M54.24,72.33l.3-.74c4.2,4.46,12.39,4.66,17.19,4.66h0c.79,0,1.6,0,2.43-.08h0l0,.69c-.83,0-1.75.33-2.56.33C71.63,77.19,60,78,54.24,72.33Z"/><path class="cls-19" d="M62.7,82c-5-1.6-9.26-4.58-9.75-5.58l-.3,1c.57,1.06,4,2.95,7.65,4.51Z"/><path d="M79.53,71.56c-2.06,2.51-5.41,2.61-7.32,3.46s-.67,6.66-.61,7.38c0,.26,8.08-.63,8.79-1C81.3,81,79.53,71.56,79.53,71.56Z"/><path class="cls-18" d="M73.05,82.35a26.76,26.76,0,0,1-.41-3.45h0A3.6,3.6,0,0,1,73,77.05h0a13.09,13.09,0,0,1,2.78-1.14h0c1.38-.57,2.85-.82,4.11-2.43l-.2-1.12s-.72,1.64-4,2.76h0c-1.37.58-2.49.74-3,1.31h0a4.63,4.63,0,0,0-.52,2.47h0c0,.66.28,2.95.38,3.5C72.48,82.4,73,82.34,73.05,82.35Z"/><path class="cls-4" d="M70.62,29.88a2.41,2.41,0,0,1-2.87,1.82L64.61,31a2.37,2.37,0,0,1-1.84-2.84l.47-2.13a2.41,2.41,0,0,1,2.87-1.82l3.14.68a2.4,2.4,0,0,1,1.85,2.84Z"/><path d="M67,25.26c-.32-.09-2.22-.6-2.54-.2a15.13,15.13,0,0,0-1.07,4.47c.18.33,2.66,1.38,2.82,1.14S67,25.26,67,25.26Z"/><path class="cls-4" d="M68.37,24.21a18.48,18.48,0,0,0-3.1,1.92l-.57,3.08,2.36,2.51Z"/><path d="M66.69,30.75a1.15,1.15,0,0,0,.86,1.36l8,1.52c.42.06.83-.38.92-1l1.2-5.47A1,1,0,0,0,77.05,26L69,24a1,1,0,0,0-1.15,1Z"/><path class="cls-4" d="M68.2,24.71,67,30.9a1.09,1.09,0,0,0,1,1.19l7.47,1.46a.6.6,0,0,0,.48-.17.53.53,0,0,1-.25,0L68.26,32a1.07,1.07,0,0,1-.84-1.27l1.09-5.87a1.38,1.38,0,0,1,.39-.76C68.6,24.2,68.27,24.28,68.2,24.71Z"/><path d="M65.82,26.58s-1.8.05-4.95-2.27c-2.76-2-3-3.63-3-3.63l-.9,1.84A19.07,19.07,0,0,0,59.2,25c2.59,2.23,6.08,4.11,6.17,3.73C65.54,28,65.82,26.58,65.82,26.58Z"/><path class="cls-20" d="M71.16,61.59,92.64,16.2,93.23,15l18.29,45.67L95.93,73.47,71.16,61.59ZM72.75,61l23,11,14.33-11.81L93.14,18,72.75,61ZM92.63,16.68l.55-.23-.55.23Z"/><polygon class="cls-20" points="92.55 17.69 93.74 17.63 96.44 72.73 95.25 72.79 92.55 17.69 92.55 17.69"/><path class="cls-20" d="M93.77,59.43s-8.62-4.55-13.37-7.25h0a23.18,23.18,0,0,1-3.1-1.94h0l-.51-.51,17.43-12,12.47,10.87L94.13,59.63l-.36-.2ZM81,51.13c1.57.9,3.58,2,5.55,3.08h0c3.23,1.75,6.38,3.42,7.42,4h0l10.91-9.61L94.14,39.2,78.77,49.82c.51.33,1.31.8,2.22,1.31Z"/><polygon class="cls-21" points="93.27 15.12 111.51 60.64 96.01 73.43 93.27 15.12"/><text class="cls-22" transform="translate(92.13 176.51) rotate(-19.24)"><tspan class="cls-23">F</tspan><tspan class="cls-24" x="2.73" y="0">r</tspan><tspan x="4.6" y="0">eepik</tspan></text><text class="cls-25" transform="translate(48.02 177.97)">mac<tspan class="cls-26" x="11.18" y="0">r</tspan><tspan class="cls-27" x="13.18" y="0">o</tspan><tspan class="cls-26" x="16.62" y="0">v</tspan><tspan class="cls-28" x="19.6" y="0">e</tspan><tspan class="cls-29" x="22.78" y="0">c</tspan><tspan class="cls-30" x="25.7" y="0">t</tspan><tspan x="27.76" y="0">or</tspan></text><text class="cls-31" transform="matrix(0.93, 0.36, -0.36, 0.93, 18.71, 169.06)"><tspan class="cls-32">D</tspan><tspan x="3.11" y="0">esi</tspan><tspan class="cls-33" x="8.35" y="0">g</tspan><tspan class="cls-34" x="10.91" y="0">ned </tspan><tspan class="cls-35" x="19.41" y="0">b</tspan><tspan x="22.01" y="0">y</tspan></text></g></g></g></svg>