<svg xmlns="http://www.w3.org/2000/svg" xmlns:xlink="http://www.w3.org/1999/xlink" viewBox="0 0 177.09 182.31"><defs><style>.cls-1{mask:url(#mask);filter:url(#luminosity-noclip-14);}.cls-10,.cls-100,.cls-12,.cls-14,.cls-16,.cls-18,.cls-2,.cls-20,.cls-22,.cls-24,.cls-26,.cls-32,.cls-34,.cls-35,.cls-38,.cls-4,.cls-41,.cls-44,.cls-46,.cls-49,.cls-52,.cls-54,.cls-57,.cls-6,.cls-8,.cls-87,.cls-89,.cls-92,.cls-94,.cls-97,.cls-99{mix-blend-mode:multiply;}.cls-2{fill:url(#linear-gradient);}.cls-3{mask:url(#mask-2);filter:url(#luminosity-noclip-19);}.cls-4{fill:url(#linear-gradient-2);}.cls-5{mask:url(#mask-3);filter:url(#luminosity-noclip-20);}.cls-6{fill:url(#linear-gradient-3);}.cls-7{mask:url(#mask-4);filter:url(#luminosity-noclip-21);}.cls-8{fill:url(#linear-gradient-4);}.cls-9{mask:url(#mask-5);filter:url(#luminosity-noclip-22);}.cls-10{fill:url(#linear-gradient-5);}.cls-11{mask:url(#mask-6);filter:url(#luminosity-noclip-23);}.cls-12{fill:url(#linear-gradient-6);}.cls-13{mask:url(#mask-7);filter:url(#luminosity-noclip-15);}.cls-14{fill:url(#linear-gradient-7);}.cls-15{mask:url(#mask-8);filter:url(#luminosity-noclip-24);}.cls-16{fill:url(#linear-gradient-8);}.cls-17{mask:url(#mask-9);filter:url(#luminosity-noclip-25);}.cls-18{fill:url(#linear-gradient-9);}.cls-19{mask:url(#mask-10);filter:url(#luminosity-noclip-26);}.cls-20{fill:url(#linear-gradient-10);}.cls-21{mask:url(#mask-11);filter:url(#luminosity-noclip-16);}.cls-22{fill:url(#linear-gradient-11);}.cls-23{mask:url(#mask-12);filter:url(#luminosity-noclip-17);}.cls-24{fill:url(#linear-gradient-12);}.cls-25{mask:url(#mask-13);filter:url(#luminosity-noclip-18);}.cls-26{fill:url(#linear-gradient-13);}.cls-27{isolation:isolate;}.cls-28{mask:url(#mask-14);}.cls-29{opacity:0.3;fill:url(#linear-gradient-14);}.cls-30{fill:url(#linear-gradient-15);}.cls-31{fill:url(#linear-gradient-16);}.cls-100,.cls-32,.cls-34,.cls-44,.cls-46,.cls-49,.cls-52,.cls-89,.cls-92,.cls-94,.cls-97,.cls-99{opacity:0.5;}.cls-32{fill:url(#linear-gradient-17);}.cls-33{fill:url(#linear-gradient-18);}.cls-34{fill:url(#linear-gradient-19);}.cls-35,.cls-38,.cls-41,.cls-54,.cls-57,.cls-87{opacity:0.4;}.cls-35{fill:url(#linear-gradient-20);}.cls-36{fill:url(#linear-gradient-21);}.cls-37{mask:url(#mask-15);}.cls-38{fill:url(#linear-gradient-22);}.cls-39{fill:url(#linear-gradient-23);}.cls-40{mask:url(#mask-16);}.cls-41{fill:url(#linear-gradient-24);}.cls-42{fill:url(#linear-gradient-25);}.cls-43{mask:url(#mask-17);}.cls-44{fill:url(#linear-gradient-26);}.cls-45{mask:url(#mask-18);}.cls-46{fill:url(#linear-gradient-27);}.cls-47{fill:url(#linear-gradient-28);}.cls-48{mask:url(#mask-19);}.cls-49{fill:url(#linear-gradient-29);}.cls-50{fill:url(#linear-gradient-30);}.cls-51{mask:url(#mask-20);}.cls-52{fill:url(#linear-gradient-31);}.cls-53{mask:url(#mask-21);}.cls-54{fill:url(#linear-gradient-32);}.cls-55{fill:url(#linear-gradient-33);}.cls-56{mask:url(#mask-22);}.cls-57{fill:url(#linear-gradient-34);}.cls-58{fill:#720da0;}.cls-59{fill:#3208ee;}.cls-60{fill:url(#linear-gradient-35);}.cls-61{fill:#421f1f;}.cls-62{fill:#3006ee;}.cls-63{fill:url(#linear-gradient-36);}.cls-64{fill:url(#linear-gradient-37);}.cls-65{fill:url(#linear-gradient-38);}.cls-66{fill:url(#linear-gradient-39);}.cls-67{fill:url(#linear-gradient-40);}.cls-68{fill:url(#linear-gradient-41);}.cls-69{fill:#1600b7;}.cls-70{fill:url(#linear-gradient-42);}.cls-71{fill:#390def;}.cls-72{fill:url(#linear-gradient-43);}.cls-73{fill:url(#linear-gradient-44);}.cls-74{fill:url(#linear-gradient-45);}.cls-75{fill:url(#linear-gradient-46);}.cls-76{fill:url(#linear-gradient-47);}.cls-77{fill:url(#linear-gradient-48);}.cls-78{fill:url(#linear-gradient-49);}.cls-79{fill:url(#linear-gradient-50);}.cls-80{fill:url(#linear-gradient-51);}.cls-81{fill:url(#linear-gradient-52);}.cls-82{fill:url(#linear-gradient-53);}.cls-83{fill:url(#linear-gradient-54);}.cls-84{fill:url(#linear-gradient-55);}.cls-85{fill:url(#linear-gradient-56);}.cls-86{mask:url(#mask-23);}.cls-87{fill:url(#linear-gradient-57);}.cls-88{mask:url(#mask-24);}.cls-89{fill:url(#linear-gradient-58);}.cls-90{fill:url(#linear-gradient-59);}.cls-91{mask:url(#mask-25);}.cls-92{fill:url(#linear-gradient-60);}.cls-93{mask:url(#mask-26);}.cls-94{fill:url(#linear-gradient-61);}.cls-95{fill:#0662c6;}.cls-96{fill:url(#linear-gradient-62);}.cls-97{fill:url(#linear-gradient-63);}.cls-98{fill:#350aef;}.cls-99{fill:url(#linear-gradient-64);}.cls-100{fill:url(#linear-gradient-65);}.cls-101{font-size:7.75px;fill:#e461ff;font-family:MyriadPro-Regular, Myriad Pro;}.cls-102{letter-spacing:0em;}.cls-103{letter-spacing:0em;}.cls-104{letter-spacing:-0.01em;}.cls-105{letter-spacing:-0.01em;}.cls-106{letter-spacing:-0.01em;}.cls-107{letter-spacing:0.01em;}.cls-108{letter-spacing:-0.03em;}.cls-109{letter-spacing:-0.01em;}.cls-110{filter:url(#luminosity-noclip-13);}.cls-111{filter:url(#luminosity-noclip-12);}.cls-112{filter:url(#luminosity-noclip-11);}.cls-113{filter:url(#luminosity-noclip-10);}.cls-114{filter:url(#luminosity-noclip-9);}.cls-115{filter:url(#luminosity-noclip-8);}.cls-116{filter:url(#luminosity-noclip-7);}.cls-117{filter:url(#luminosity-noclip-6);}.cls-118{filter:url(#luminosity-noclip-5);}.cls-119{filter:url(#luminosity-noclip-4);}.cls-120{filter:url(#luminosity-noclip-3);}.cls-121{filter:url(#luminosity-noclip-2);}.cls-122{filter:url(#luminosity-noclip);}</style><filter id="luminosity-noclip" x="31.6" y="-8125.88" width="145.49" height="32766" filterUnits="userSpaceOnUse" color-interpolation-filters="sRGB"><feFlood flood-color="#fff" result="bg"/><feBlend in="SourceGraphic" in2="bg"/></filter><mask id="mask" x="31.6" y="-8125.88" width="145.49" height="32766" maskUnits="userSpaceOnUse"><g class="cls-122"/></mask><linearGradient id="linear-gradient" x1="87.89" y1="161.32" x2="67.39" y2="20.57" gradientTransform="matrix(-0.99, 0.12, 0.12, 0.99, 170.68, -23.39)" gradientUnits="userSpaceOnUse"><stop offset="0" stop-color="#fff"/><stop offset="1"/></linearGradient><filter id="luminosity-noclip-2" x="92.63" y="-8125.88" width="41.2" height="32766" filterUnits="userSpaceOnUse" color-interpolation-filters="sRGB"><feFlood flood-color="#fff" result="bg"/><feBlend in="SourceGraphic" in2="bg"/></filter><mask id="mask-2" x="92.63" y="-8125.88" width="41.2" height="32766" maskUnits="userSpaceOnUse"><g class="cls-121"/></mask><linearGradient id="linear-gradient-2" x1="28.28" y1="84.23" x2="68.91" y2="84.23" gradientTransform="matrix(-1, 0.01, 0.01, 1, 160.87, 27.71)" gradientUnits="userSpaceOnUse"><stop offset="0" stop-color="#4d4d4d"/><stop offset="1" stop-color="#fff"/></linearGradient><filter id="luminosity-noclip-3" x="72.98" y="-8125.88" width="32.41" height="32766" filterUnits="userSpaceOnUse" color-interpolation-filters="sRGB"><feFlood flood-color="#fff" result="bg"/><feBlend in="SourceGraphic" in2="bg"/></filter><mask id="mask-3" x="72.98" y="-8125.88" width="32.41" height="32766" maskUnits="userSpaceOnUse"><g class="cls-120"/></mask><linearGradient id="linear-gradient-3" x1="55.95" y1="76.51" x2="88.72" y2="76.51" xlink:href="#linear-gradient-2"/><filter id="luminosity-noclip-4" x="74.24" y="-8125.88" width="9.93" height="32766" filterUnits="userSpaceOnUse" color-interpolation-filters="sRGB"><feFlood flood-color="#fff" result="bg"/><feBlend in="SourceGraphic" in2="bg"/></filter><mask id="mask-4" x="74.24" y="-8125.88" width="9.93" height="32766" maskUnits="userSpaceOnUse"><g class="cls-119"/></mask><linearGradient id="linear-gradient-4" x1="81.81" y1="-6.09" x2="80.52" y2="-12.13" gradientTransform="matrix(-1, 0.01, 0.01, 1, 160.87, 27.71)" gradientUnits="userSpaceOnUse"><stop offset="0.01" stop-color="#666"/><stop offset="0.98" stop-color="#fff"/></linearGradient><filter id="luminosity-noclip-5" x="38.7" y="-8125.88" width="40.9" height="32766" filterUnits="userSpaceOnUse" color-interpolation-filters="sRGB"><feFlood flood-color="#fff" result="bg"/><feBlend in="SourceGraphic" in2="bg"/></filter><mask id="mask-5" x="38.7" y="-8125.88" width="40.9" height="32766" maskUnits="userSpaceOnUse"><g class="cls-118"/></mask><linearGradient id="linear-gradient-5" x1="122.11" y1="40.97" x2="71.7" y2="24.38" xlink:href="#linear-gradient-4"/><filter id="luminosity-noclip-6" x="24.6" y="-8125.88" width="45.27" height="32766" filterUnits="userSpaceOnUse" color-interpolation-filters="sRGB"><feFlood flood-color="#fff" result="bg"/><feBlend in="SourceGraphic" in2="bg"/></filter><mask id="mask-6" x="24.6" y="-8125.88" width="45.27" height="32766" maskUnits="userSpaceOnUse"><g class="cls-117"/></mask><linearGradient id="linear-gradient-6" x1="137.43" y1="39.74" x2="80.68" y2="21.07" xlink:href="#linear-gradient-4"/><filter id="luminosity-noclip-7" x="65.48" y="-8125.88" width="8.83" height="32766" filterUnits="userSpaceOnUse" color-interpolation-filters="sRGB"><feFlood flood-color="#fff" result="bg"/><feBlend in="SourceGraphic" in2="bg"/></filter><mask id="mask-7" x="65.48" y="-8125.88" width="8.83" height="32766" maskUnits="userSpaceOnUse"><g class="cls-116"/></mask><linearGradient id="linear-gradient-7" x1="92.2" y1="-9.74" x2="90.77" y2="-16.44" xlink:href="#linear-gradient-4"/><filter id="luminosity-noclip-8" x="124.34" y="-8125.88" width="9.52" height="32766" filterUnits="userSpaceOnUse" color-interpolation-filters="sRGB"><feFlood flood-color="#fff" result="bg"/><feBlend in="SourceGraphic" in2="bg"/></filter><mask id="mask-8" x="124.34" y="-8125.88" width="9.52" height="32766" maskUnits="userSpaceOnUse"><g class="cls-115"/></mask><linearGradient id="linear-gradient-8" x1="28.25" y1="117.05" x2="37.84" y2="117.05" gradientTransform="matrix(-1, 0.01, 0.01, 1, 160.87, 27.71)" gradientUnits="userSpaceOnUse"><stop offset="0" stop-color="#fff"/><stop offset="0.99" stop-color="#666"/></linearGradient><filter id="luminosity-noclip-9" x="90.16" y="-8125.88" width="3.17" height="32766" filterUnits="userSpaceOnUse" color-interpolation-filters="sRGB"><feFlood flood-color="#fff" result="bg"/><feBlend in="SourceGraphic" in2="bg"/></filter><mask id="mask-9" x="90.16" y="-8125.88" width="3.17" height="32766" maskUnits="userSpaceOnUse"><g class="cls-114"/></mask><linearGradient id="linear-gradient-9" x1="68.88" y1="121.13" x2="72.06" y2="121.13" xlink:href="#linear-gradient-8"/><filter id="luminosity-noclip-10" x="79.64" y="-8125.88" width="10.67" height="32766" filterUnits="userSpaceOnUse" color-interpolation-filters="sRGB"><feFlood flood-color="#fff" result="bg"/><feBlend in="SourceGraphic" in2="bg"/></filter><mask id="mask-10" x="79.64" y="-8125.88" width="10.67" height="32766" maskUnits="userSpaceOnUse"><g class="cls-113"/></mask><linearGradient id="linear-gradient-10" x1="70.96" y1="31.32" x2="81.58" y2="31.32" xlink:href="#linear-gradient-2"/><filter id="luminosity-noclip-11" x="79.29" y="-8125.88" width="5.18" height="32766" filterUnits="userSpaceOnUse" color-interpolation-filters="sRGB"><feFlood flood-color="#fff" result="bg"/><feBlend in="SourceGraphic" in2="bg"/></filter><mask id="mask-11" x="79.29" y="-8125.88" width="5.18" height="32766" maskUnits="userSpaceOnUse"><g class="cls-112"/></mask><linearGradient id="linear-gradient-11" x1="79.07" y1="-5.06" x2="77.86" y2="-8.44" xlink:href="#linear-gradient-4"/><filter id="luminosity-noclip-12" x="77.19" y="-8125.88" width="8.29" height="32766" filterUnits="userSpaceOnUse" color-interpolation-filters="sRGB"><feFlood flood-color="#fff" result="bg"/><feBlend in="SourceGraphic" in2="bg"/></filter><mask id="mask-12" x="77.19" y="-8125.88" width="8.29" height="32766" maskUnits="userSpaceOnUse"><g class="cls-111"/></mask><linearGradient id="linear-gradient-12" x1="75.35" y1="-0.72" x2="83.7" y2="-0.72" gradientTransform="matrix(-1, 0.01, 0.01, 1, 160.87, 27.71)" gradientUnits="userSpaceOnUse"><stop offset="0" stop-color="#666"/><stop offset="1" stop-color="#fff"/></linearGradient><filter id="luminosity-noclip-13" x="70.12" y="-8125.88" width="22.95" height="32766" filterUnits="userSpaceOnUse" color-interpolation-filters="sRGB"><feFlood flood-color="#fff" result="bg"/><feBlend in="SourceGraphic" in2="bg"/></filter><mask id="mask-13" x="70.12" y="-8125.88" width="22.95" height="32766" maskUnits="userSpaceOnUse"><g class="cls-110"/></mask><linearGradient id="linear-gradient-13" x1="68.24" y1="25.22" x2="90.98" y2="25.22" xlink:href="#linear-gradient-12"/><filter id="luminosity-noclip-14" x="31.6" y="8.07" width="145.49" height="148.59" filterUnits="userSpaceOnUse" color-interpolation-filters="sRGB"><feFlood flood-color="#fff" result="bg"/><feBlend in="SourceGraphic" in2="bg"/></filter><mask id="mask-14" x="31.6" y="8.07" width="145.49" height="148.59" maskUnits="userSpaceOnUse"><g class="cls-1"><polygon class="cls-2" points="176.27 156.66 177.09 20.53 165.82 16.87 134.53 9.41 76.79 8.07 31.6 22.96 32.03 151.31 70.91 141.32 126.18 140.72 168.36 150.04 176.27 156.66"/></g></mask><linearGradient id="linear-gradient-14" x1="87.89" y1="161.32" x2="67.39" y2="20.57" gradientTransform="matrix(-0.99, 0.12, 0.12, 0.99, 170.68, -23.39)" gradientUnits="userSpaceOnUse"><stop offset="0" stop-color="#d093f2"/><stop offset="1" stop-color="#3e189c"/></linearGradient><linearGradient id="linear-gradient-15" x1="137.13" y1="127.99" x2="-16.77" y2="128.64" gradientTransform="matrix(-1, 0.01, 0.01, 1, 160.87, 27.71)" gradientUnits="userSpaceOnUse"><stop offset="0" stop-color="#ffdeff"/><stop offset="0.97" stop-color="#cbbbfa"/></linearGradient><linearGradient id="linear-gradient-16" x1="-3.63" y1="76.51" x2="43.53" y2="76.51" gradientTransform="matrix(-1, 0.01, 0.01, 1, 160.87, 27.71)" gradientUnits="userSpaceOnUse"><stop offset="0" stop-color="#19067f"/><stop offset="1" stop-color="#222dc2"/></linearGradient><linearGradient id="linear-gradient-17" x1="-1.33" y1="76.43" x2="43.53" y2="76.43" gradientTransform="matrix(-1, 0.01, 0.01, 1, 160.87, 27.71)" gradientUnits="userSpaceOnUse"><stop offset="0.01" stop-color="#2417af"/><stop offset="0.99" stop-color="#19067f"/></linearGradient><linearGradient id="linear-gradient-18" x1="82.28" y1="77.41" x2="127.17" y2="77.41" xlink:href="#linear-gradient-16"/><linearGradient id="linear-gradient-19" x1="82.44" y1="77.27" x2="125.07" y2="77.27" xlink:href="#linear-gradient-17"/><linearGradient id="linear-gradient-20" x1="22.18" y1="121.86" x2="84.16" y2="121.86" xlink:href="#linear-gradient-15"/><linearGradient id="linear-gradient-21" x1="72.82" y1="-13.04" x2="95.64" y2="-13.04" gradientTransform="matrix(-1, 0.01, 0.01, 1, 160.87, 27.71)" gradientUnits="userSpaceOnUse"><stop offset="0.01" stop-color="#fec8c0"/><stop offset="0.98" stop-color="#fdaea3"/></linearGradient><filter id="luminosity-noclip-15" x="65.48" y="7.8" width="8.83" height="15.76" filterUnits="userSpaceOnUse" color-interpolation-filters="sRGB"><feFlood flood-color="#fff" result="bg"/><feBlend in="SourceGraphic" in2="bg"/></filter><mask id="mask-15" x="65.48" y="7.8" width="8.83" height="15.76" maskUnits="userSpaceOnUse"><g class="cls-13"><path class="cls-14" d="M65.48,10.56c.1.65.23,1.33.38,2,.76,3.44,2.51,8.67,2.51,8.67a6.88,6.88,0,0,0,1.24,2.32c2.48-2,4.22-5.95,4.63-9.14.33-2.66-.43-4.05-1.49-5.06a22.2,22.2,0,0,0-2-1.56L70.23,8A15.53,15.53,0,0,0,65.48,10.56Z"/></g></mask><linearGradient id="linear-gradient-22" x1="92.2" y1="-9.74" x2="90.77" y2="-16.44" gradientTransform="matrix(-1, 0.01, 0.01, 1, 160.87, 27.71)" gradientUnits="userSpaceOnUse"><stop offset="0.01" stop-color="#fec8c0"/><stop offset="0.98" stop-color="#fdaea3"/></linearGradient><linearGradient id="linear-gradient-23" x1="75.89" y1="-5.64" x2="81.96" y2="-5.64" xlink:href="#linear-gradient-21"/><filter id="luminosity-noclip-16" x="79.29" y="18.46" width="5.18" height="6.26" filterUnits="userSpaceOnUse" color-interpolation-filters="sRGB"><feFlood flood-color="#fff" result="bg"/><feBlend in="SourceGraphic" in2="bg"/></filter><mask id="mask-16" x="79.29" y="18.46" width="5.18" height="6.26" maskUnits="userSpaceOnUse"><g class="cls-21"><path class="cls-22" d="M79.29,24a5.39,5.39,0,0,1,.58.76,9.53,9.53,0,0,1,4.6-2.45l-.59-3.82h0a12,12,0,0,1-2.55,3.87A11,11,0,0,1,79.29,24Z"/></g></mask><linearGradient id="linear-gradient-24" x1="79.07" y1="-5.06" x2="77.86" y2="-8.44" xlink:href="#linear-gradient-22"/><linearGradient id="linear-gradient-25" x1="83.38" y1="34.28" x2="63.42" y2="4.66" gradientTransform="matrix(-1, 0.01, 0.01, 1, 160.87, 27.71)" gradientUnits="userSpaceOnUse"><stop offset="0.01" stop-color="#ff745d"/><stop offset="1" stop-color="#ff4d4b"/></linearGradient><filter id="luminosity-noclip-17" x="77.19" y="24.77" width="8.29" height="6.18" filterUnits="userSpaceOnUse" color-interpolation-filters="sRGB"><feFlood flood-color="#fff" result="bg"/><feBlend in="SourceGraphic" in2="bg"/></filter><mask id="mask-17" x="77.19" y="24.77" width="8.29" height="6.18" maskUnits="userSpaceOnUse"><g class="cls-23"><path class="cls-24" d="M77.19,31a23.21,23.21,0,0,0,4.36-2.12,13.12,13.12,0,0,0,3.93-4.06,5.71,5.71,0,0,0-1.93.38C82,25.74,79.59,28.29,77.19,31Z"/></g></mask><linearGradient id="linear-gradient-26" x1="75.35" y1="-0.72" x2="83.7" y2="-0.72" gradientTransform="matrix(-1, 0.01, 0.01, 1, 160.87, 27.71)" gradientUnits="userSpaceOnUse"><stop offset="0" stop-color="#ff745d"/><stop offset="1" stop-color="#ff4d4b"/></linearGradient><filter id="luminosity-noclip-18" x="70.12" y="35.98" width="22.95" height="35.47" filterUnits="userSpaceOnUse" color-interpolation-filters="sRGB"><feFlood flood-color="#fff" result="bg"/><feBlend in="SourceGraphic" in2="bg"/></filter><mask id="mask-18" x="70.12" y="35.98" width="22.95" height="35.47" maskUnits="userSpaceOnUse"><g class="cls-25"><path class="cls-26" d="M70.12,49.4l1.79,3.92a26.88,26.88,0,0,0,2.73-1.76c1.61-1.15,2.89-2.24,2.89-2.24s.85,3.26,2.07,6.67c.33.89.67,1.8,1,2.66C82.4,62.79,86,71.33,86,71.44a33.67,33.67,0,0,0,7-2.14C90.35,66.08,85.26,60,84,58.19a35.47,35.47,0,0,1-4.22-9.85C85.68,43.93,91.33,36.45,91.67,36A73.64,73.64,0,0,1,81,44.29,58.46,58.46,0,0,1,70.12,49.4Z"/></g></mask><linearGradient id="linear-gradient-27" x1="68.24" y1="25.22" x2="90.98" y2="25.22" xlink:href="#linear-gradient-26"/><linearGradient id="linear-gradient-28" x1="30.17" y1="111.45" x2="56.9" y2="62.83" gradientTransform="matrix(-1, 0.01, 0.01, 1, 160.87, 27.71)" gradientUnits="userSpaceOnUse"><stop offset="0" stop-color="#00a6d5"/><stop offset="1" stop-color="#0085e0"/></linearGradient><filter id="luminosity-noclip-19" x="92.63" y="83.1" width="41.2" height="58.66" filterUnits="userSpaceOnUse" color-interpolation-filters="sRGB"><feFlood flood-color="#fff" result="bg"/><feBlend in="SourceGraphic" in2="bg"/></filter><mask id="mask-19" x="92.63" y="83.1" width="41.2" height="58.66" maskUnits="userSpaceOnUse"><g class="cls-3"><path class="cls-4" d="M92.63,89.71s5.9,10,7.59,12.49,11.41,12.55,16.46,18.18,16.12,21.34,16.12,21.34l.13,0a3,3,0,0,0,.9,0,34.76,34.76,0,0,0-4.43-11.06C125.58,125,120.78,117,115,112s-11-11.15-12.29-14.89a77.44,77.44,0,0,1-3.44-14,58.37,58.37,0,0,1-4.12,4.34C94.55,88,93.67,88.81,92.63,89.71Z"/></g></mask><linearGradient id="linear-gradient-29" x1="28.28" y1="84.23" x2="68.91" y2="84.23" xlink:href="#linear-gradient-28"/><linearGradient id="linear-gradient-30" x1="70.95" y1="52.26" x2="88.98" y2="116.98" xlink:href="#linear-gradient-28"/><filter id="luminosity-noclip-20" x="72.98" y="62.23" width="32.41" height="85.37" filterUnits="userSpaceOnUse" color-interpolation-filters="sRGB"><feFlood flood-color="#fff" result="bg"/><feBlend in="SourceGraphic" in2="bg"/></filter><mask id="mask-20" x="72.98" y="62.23" width="32.41" height="85.37" maskUnits="userSpaceOnUse"><g class="cls-5"><path class="cls-6" d="M73,103.9s5.31,5.84,7.71,8.6,6,10.46,7.47,16.13a163.67,163.67,0,0,1,2.91,19,8.44,8.44,0,0,0,1.32-.61s-.46-22.32-4.15-31.25-12.53-12.09-12.53-12.09,11.05-8.87,16.92-13.94c1-.9,1.92-1.68,2.55-2.27,4.14-3.91,9.54-10.45,10.08-14.54s-.91-10.3-1.29-10.67h0a2.3,2.3,0,0,1,0,.26s-1.24,1-3,2.31c.12,3.22.19,9.59-.83,12.28-1.38,3.66-5.76,10-12.79,15.48S73,103.9,73,103.9Z"/></g></mask><linearGradient id="linear-gradient-31" x1="55.95" y1="76.51" x2="88.72" y2="76.51" xlink:href="#linear-gradient-28"/><filter id="luminosity-noclip-21" x="74.24" y="12" width="9.93" height="13.49" filterUnits="userSpaceOnUse" color-interpolation-filters="sRGB"><feFlood flood-color="#fff" result="bg"/><feBlend in="SourceGraphic" in2="bg"/></filter><mask id="mask-21" x="74.24" y="12" width="9.93" height="13.49" maskUnits="userSpaceOnUse"><g class="cls-7"><path class="cls-8" d="M74.24,25.49A9.88,9.88,0,0,0,79.29,24a11,11,0,0,0,2-1.63,12,12,0,0,0,2.55-3.87,5.57,5.57,0,0,0,.3-1,.43.43,0,0,1-.28-.37c-.15-.94-2.29-4.23-2.89-4.37A19,19,0,0,1,78.87,12a9.25,9.25,0,0,1,.74,8.48C78.35,23.86,76.65,25.25,74.24,25.49Z"/></g></mask><linearGradient id="linear-gradient-32" x1="81.81" y1="-6.09" x2="80.52" y2="-12.13" xlink:href="#linear-gradient-22"/><linearGradient id="linear-gradient-33" x1="81.15" y1="30.22" x2="122.55" y2="30.22" xlink:href="#linear-gradient-21"/><filter id="luminosity-noclip-22" x="38.7" y="49.32" width="40.9" height="19.17" filterUnits="userSpaceOnUse" color-interpolation-filters="sRGB"><feFlood flood-color="#fff" result="bg"/><feBlend in="SourceGraphic" in2="bg"/></filter><mask id="mask-22" x="38.7" y="49.32" width="40.9" height="19.17" maskUnits="userSpaceOnUse"><g class="cls-9"><path class="cls-10" d="M38.7,64c.27.07,6.12,1.58,13.48,2.86A123.52,123.52,0,0,0,66,68.49a75.29,75.29,0,0,0,6.54-5.32A97.87,97.87,0,0,0,79.6,56c-1.22-3.41-2.07-6.67-2.07-6.67l-.74.6a46.76,46.76,0,0,1-6,8.77c-3.73,4.34-5.73,5.82-10.47,6.43-3.14.41-10.88-.61-16.71-1.79C42,63.6,40.33,63.83,38.7,64Z"/></g></mask><linearGradient id="linear-gradient-34" x1="122.11" y1="40.97" x2="71.7" y2="24.38" xlink:href="#linear-gradient-22"/><linearGradient id="linear-gradient-35" x1="91.14" y1="27.32" x2="163.66" y2="27.32" xlink:href="#linear-gradient-21"/><linearGradient id="linear-gradient-36" x1="136.23" y1="29.64" x2="157.84" y2="29.64" xlink:href="#linear-gradient-16"/><linearGradient id="linear-gradient-37" x1="128.18" y1="24.54" x2="139.53" y2="24.54" xlink:href="#linear-gradient-17"/><linearGradient id="linear-gradient-38" x1="107.02" y1="22.41" x2="122.55" y2="22.41" xlink:href="#linear-gradient-17"/><linearGradient id="linear-gradient-39" x1="123.39" y1="26.76" x2="134.26" y2="26.76" xlink:href="#linear-gradient-21"/><linearGradient id="linear-gradient-40" x1="127.22" y1="28.77" x2="130.43" y2="28.77" xlink:href="#linear-gradient-21"/><linearGradient id="linear-gradient-41" x1="24.64" y1="116.51" x2="37.84" y2="116.51" gradientTransform="matrix(-1, 0.01, 0.01, 1, 160.87, 27.71)" gradientUnits="userSpaceOnUse"><stop offset="0.01" stop-color="#c4159a"/><stop offset="1" stop-color="#e0006f"/></linearGradient><linearGradient id="linear-gradient-42" x1="91.19" y1="25.29" x2="138.79" y2="25.29" xlink:href="#linear-gradient-21"/><linearGradient id="linear-gradient-43" x1="58.44" y1="25.74" x2="81.58" y2="25.74" gradientTransform="matrix(-1, 0.01, 0.01, 1, 160.87, 27.71)" gradientUnits="userSpaceOnUse"><stop offset="0" stop-color="#45a8c6"/><stop offset="0.45" stop-color="#2a94c6"/><stop offset="0.99" stop-color="#087ccd"/></linearGradient><linearGradient id="linear-gradient-44" x1="86.48" y1="19.78" x2="97.84" y2="19.78" xlink:href="#linear-gradient-17"/><linearGradient id="linear-gradient-45" x1="52.17" y1="25.72" x2="70.36" y2="25.72" xlink:href="#linear-gradient-41"/><linearGradient id="linear-gradient-46" x1="68.91" y1="28.74" x2="74.88" y2="28.74" xlink:href="#linear-gradient-17"/><linearGradient id="linear-gradient-47" x1="1.25" y1="113.82" x2="5.43" y2="113.82" gradientTransform="matrix(-1, 0.01, 0.01, 1, 160.87, 27.71)" gradientUnits="userSpaceOnUse"><stop offset="0.02" stop-color="#233fe2"/><stop offset="0.98" stop-color="#3a53e2"/></linearGradient><linearGradient id="linear-gradient-48" x1="0.44" y1="122.41" x2="5.43" y2="122.41" xlink:href="#linear-gradient-47"/><linearGradient id="linear-gradient-49" x1="-7.36" y1="119.23" x2="2.21" y2="119.23" xlink:href="#linear-gradient-16"/><linearGradient id="linear-gradient-50" x1="118.84" y1="115.09" x2="123.03" y2="115.09" xlink:href="#linear-gradient-47"/><linearGradient id="linear-gradient-51" x1="118.84" y1="123.68" x2="123.83" y2="123.68" xlink:href="#linear-gradient-47"/><linearGradient id="linear-gradient-52" x1="122.06" y1="120.5" x2="131.64" y2="120.5" xlink:href="#linear-gradient-16"/><linearGradient id="linear-gradient-53" x1="30.55" y1="148.74" x2="85.29" y2="148.74" gradientTransform="matrix(-1, 0, 0, 1, 162.49, 28.33)" gradientUnits="userSpaceOnUse"><stop offset="0.01" stop-color="#cbbbfa"/><stop offset="0.98" stop-color="#dbbbfa"/></linearGradient><linearGradient id="linear-gradient-54" x1="-13.99" y1="144.18" x2="31.24" y2="144.18" gradientTransform="matrix(-1, 0.01, 0.01, 1, 160.87, 27.71)" gradientUnits="userSpaceOnUse"><stop offset="0" stop-color="#b6a5f3"/><stop offset="1" stop-color="#ad95ff"/></linearGradient><linearGradient id="linear-gradient-55" x1="85.28" y1="143.05" x2="133.37" y2="143.05" xlink:href="#linear-gradient-54"/><linearGradient id="linear-gradient-56" x1="38.6" y1="42.16" x2="85.21" y2="42.16" xlink:href="#linear-gradient-16"/><filter id="luminosity-noclip-23" x="24.6" y="51.2" width="45.27" height="15.51" filterUnits="userSpaceOnUse" color-interpolation-filters="sRGB"><feFlood flood-color="#fff" result="bg"/><feBlend in="SourceGraphic" in2="bg"/></filter><mask id="mask-23" x="24.6" y="51.2" width="45.27" height="15.51" maskUnits="userSpaceOnUse"><g class="cls-11"><path class="cls-12" d="M24.6,66c.26.44,1.09.84,2.62.65,2-.23,4.59-2.19,4.59-2.19A64.87,64.87,0,0,0,38.7,64a119.23,119.23,0,0,0,21.5-4.47A33,33,0,0,0,69.88,54l0,0c-.35-.35-1.51-1.5-2.7-2.81-3,2.47-4.59,4.35-8,6-3.88,1.87-13.77,3.67-20.12,5s-7.47,1.17-7.79,1.4S27.85,66,24.6,66Z"/></g></mask><linearGradient id="linear-gradient-57" x1="137.43" y1="39.74" x2="80.68" y2="21.07" xlink:href="#linear-gradient-22"/><filter id="luminosity-noclip-24" x="124.34" y="141.71" width="9.52" height="6.81" filterUnits="userSpaceOnUse" color-interpolation-filters="sRGB"><feFlood flood-color="#fff" result="bg"/><feBlend in="SourceGraphic" in2="bg"/></filter><mask id="mask-24" x="124.34" y="141.71" width="9.52" height="6.81" maskUnits="userSpaceOnUse"><g class="cls-15"><path class="cls-16" d="M124.34,148.52a50.11,50.11,0,0,0,5.68-.82c.93-1.38,2.88-4.28,3.84-6a3.18,3.18,0,0,1-.93,0s-1.53.93-4.13,2.84A39.63,39.63,0,0,0,124.34,148.52Z"/></g></mask><linearGradient id="linear-gradient-58" x1="28.25" y1="117.05" x2="37.84" y2="117.05" gradientTransform="matrix(-1, 0.01, 0.01, 1, 160.87, 27.71)" gradientUnits="userSpaceOnUse"><stop offset="0" stop-color="#c4159a"/><stop offset="0.99" stop-color="#e0006f"/></linearGradient><linearGradient id="linear-gradient-59" x1="68.88" y1="121.42" x2="82.23" y2="121.42" xlink:href="#linear-gradient-41"/><filter id="luminosity-noclip-25" x="90.16" y="146.99" width="3.17" height="5.22" filterUnits="userSpaceOnUse" color-interpolation-filters="sRGB"><feFlood flood-color="#fff" result="bg"/><feBlend in="SourceGraphic" in2="bg"/></filter><mask id="mask-25" x="90.16" y="146.99" width="3.17" height="5.22" maskUnits="userSpaceOnUse"><g class="cls-17"><path class="cls-18" d="M90.16,152.22c1.87-.3,3.15-.57,3.15-.57a15.08,15.08,0,0,0-.92-4.66,8.19,8.19,0,0,1-1.51.68C90.74,148.73,90.5,150.51,90.16,152.22Z"/></g></mask><linearGradient id="linear-gradient-60" x1="68.88" y1="121.13" x2="72.06" y2="121.13" xlink:href="#linear-gradient-58"/><filter id="luminosity-noclip-26" x="79.64" y="52.81" width="10.67" height="14.06" filterUnits="userSpaceOnUse" color-interpolation-filters="sRGB"><feFlood flood-color="#fff" result="bg"/><feBlend in="SourceGraphic" in2="bg"/></filter><mask id="mask-26" x="79.64" y="52.81" width="10.67" height="14.06" maskUnits="userSpaceOnUse"><g class="cls-19"><path class="cls-20" d="M79.65,60.81c.13,2.17,2.3,4.72,4.08,5.75,1.14.66,3.58.25,6.58-1-1.85-1.49-4.72-4.09-5-6.18a14.25,14.25,0,0,1,1.1-6.62,19.38,19.38,0,0,1-2.81,2C80.24,56.57,79.53,58.63,79.65,60.81Z"/></g></mask><linearGradient id="linear-gradient-61" x1="70.96" y1="31.32" x2="81.58" y2="31.32" xlink:href="#linear-gradient-28"/><linearGradient id="linear-gradient-62" x1="86.96" y1="-14.78" x2="99.25" y2="-14.78" xlink:href="#linear-gradient-17"/><linearGradient id="linear-gradient-63" x1="86.96" y1="-14.76" x2="97.09" y2="-14.76" xlink:href="#linear-gradient-17"/><linearGradient id="linear-gradient-64" x1="74.54" y1="-18.52" x2="80.65" y2="-18.52" xlink:href="#linear-gradient-17"/><linearGradient id="linear-gradient-65" x1="38.6" y1="42.16" x2="62.98" y2="42.16" xlink:href="#linear-gradient-17"/></defs><g class="cls-27"><g id="Capa_2" data-name="Capa 2"><g id="Layer_1" data-name="Layer 1"><g class="cls-28"><polygon class="cls-29" points="176.27 156.66 177.09 20.53 165.82 16.87 134.53 9.41 76.79 8.07 31.6 22.96 32.03 151.31 70.91 141.32 126.18 140.72 168.36 150.04 176.27 156.66"/></g><polygon class="cls-30" points="28.95 161.58 77.16 172.44 131.89 172.22 176.33 162.23 176.27 156.66 168.36 150.04 126.18 140.72 70.91 141.32 31.18 151.53 28.95 161.58"/><path class="cls-31" d="M118.58,71.23c19.43,14.14,40.85,30.65,42.67,33.7.46,2.85.44,22.37.31,34.24a1.94,1.94,0,0,0,1.18,1.8,2,2,0,0,0,.73.15h.05a1.93,1.93,0,0,0,1.9-1.91c0-3.24.31-31.78-.41-35.21-.25-1.13-.64-3-22.72-19.9-6.59-5-13.2-9.94-17.3-13-2.52-1.86-4.09-3-4.13-3a1.93,1.93,0,0,0-2.28,3.12Z"/><path class="cls-32" d="M118.58,71.23c19.43,14.14,40.85,30.65,42.67,33.7.46,2.85.44,22.37.31,34.24a1.94,1.94,0,0,0,1.18,1.8c.28-7.66.29-36.77.29-36.77L124.69,72.68s.15-.73.3-1.54c-2.52-1.86-4.09-3-4.13-3a1.93,1.93,0,0,0-2.28,3.12Z"/><path class="cls-33" d="M35.22,141.79a2,2,0,0,0,2,1.88h0a1.81,1.81,0,0,0,.94-.3,1.92,1.92,0,0,0,.93-1.7c-.38-11.88-.83-31.43-.43-34.25,1.62-3,21.57-20.29,39.68-35.14a1.88,1.88,0,0,0,.56-.76h0a1.9,1.9,0,0,0-.29-2l0-.06a1.94,1.94,0,0,0-2.67-.2s-.49.39-1.3,1.07c-3,2.48-10.84,9-18.64,15.67-20.52,17.62-20.87,19.46-21.07,20.55C34.23,110,35.12,138.56,35.22,141.79Z"/><path class="cls-34" d="M38.16,143.37a1.92,1.92,0,0,0,.93-1.7c-.38-11.88-.83-31.43-.43-34.25,1.62-3,21.57-20.29,39.68-35.14a1.88,1.88,0,0,0,.56-.76h0l-.34-2a1.94,1.94,0,0,0-2.67-.2s-.49.39-1.3,1.07l-.34,2.87s-14.58,12-22,18.54-15.09,14.45-15.51,15.31S37.71,134.42,38.16,143.37Z"/><path class="cls-35" d="M140,146.48c-1.42,3-11.44,7-28.53,8.3a145.41,145.41,0,0,1-33.39-1.84s12-6.35,33.29-7.47C135,144.23,140,146.48,140,146.48Z"/><path class="cls-36" d="M65,5.82a45.69,45.69,0,0,0,.5,4.74c.1.65.23,1.33.38,2,.76,3.44,2.51,8.67,2.51,8.67a6.88,6.88,0,0,0,1.24,2.32,5,5,0,0,0,3.1,1.82,8.6,8.6,0,0,0,1.51.11h0A9.88,9.88,0,0,0,79.29,24a11,11,0,0,0,2-1.63,12,12,0,0,0,2.55-3.87,5.57,5.57,0,0,0,.3-1,.43.43,0,0,1-.28-.37c-.15-.94-2.29-4.23-2.89-4.37A19,19,0,0,1,78.87,12a66.49,66.49,0,0,1-6.12-2.64c-1-.5-1.87-1-2.52-1.39a6,6,0,0,1-.94-.69C67.94,5.9,65,5.82,65,5.82Z"/><g class="cls-37"><path class="cls-38" d="M65.48,10.56c.1.65.23,1.33.38,2,.76,3.44,2.51,8.67,2.51,8.67a6.88,6.88,0,0,0,1.24,2.32c2.48-2,4.22-5.95,4.63-9.14.33-2.66-.43-4.05-1.49-5.06a22.2,22.2,0,0,0-2-1.56L70.23,8A15.53,15.53,0,0,0,65.48,10.56Z"/></g><path class="cls-39" d="M79.29,24a5.39,5.39,0,0,1,.58.76,19.64,19.64,0,0,1,1.45,2.65,13.83,13.83,0,0,1,3.62-2l-.47-3.1-.59-3.82h0a12,12,0,0,1-2.55,3.87A11,11,0,0,1,79.29,24Z"/><g class="cls-40"><path class="cls-41" d="M79.29,24a5.39,5.39,0,0,1,.58.76,9.53,9.53,0,0,1,4.6-2.45l-.59-3.82h0a12,12,0,0,1-2.55,3.87A11,11,0,0,1,79.29,24Z"/></g><path class="cls-42" d="M63.22,45.88l1.47,2.29A47.14,47.14,0,0,0,69.84,54L70,54h0l-.08.08.08.08a8.13,8.13,0,0,0,2-.8,26.88,26.88,0,0,0,2.73-1.76c1.61-1.15,2.89-2.24,2.89-2.24s.85,3.26,2.07,6.67c.33.89.67,1.8,1,2.66C82.4,62.79,86,71.33,86,71.44a33.67,33.67,0,0,0,7-2.14c.61-.25,1.23-.52,1.84-.8a52.23,52.23,0,0,0,9.06-6,2.3,2.3,0,0,0,0-.26c-.75-7-3.37-13.78-5.71-19.91s-6-12.7-8.22-15.26a5.78,5.78,0,0,0-4.53-2.3,5.71,5.71,0,0,0-1.93.38c-1.54.59-4,3.14-6.36,5.8-1.69,1.86-3.38,3.79-4.74,5.11-1.84,1.79-4.5,4.65-6.5,6.81C64.38,44.59,63.22,45.88,63.22,45.88Z"/><g class="cls-43"><path class="cls-44" d="M77.19,31a23.21,23.21,0,0,0,4.36-2.12,13.12,13.12,0,0,0,3.93-4.06,5.71,5.71,0,0,0-1.93.38C82,25.74,79.59,28.29,77.19,31Z"/></g><g class="cls-45"><path class="cls-46" d="M70.12,49.4l1.79,3.92a26.88,26.88,0,0,0,2.73-1.76c1.61-1.15,2.89-2.24,2.89-2.24s.85,3.26,2.07,6.67c.33.89.67,1.8,1,2.66C82.4,62.79,86,71.33,86,71.44a33.67,33.67,0,0,0,7-2.14C90.35,66.08,85.26,60,84,58.19a35.47,35.47,0,0,1-4.22-9.85C85.68,43.93,91.33,36.45,91.67,36A73.64,73.64,0,0,1,81,44.29,58.46,58.46,0,0,1,70.12,49.4Z"/></g><path class="cls-47" d="M92.63,89.71s5.9,10,7.59,12.49,11.41,12.55,16.46,18.18,16.12,21.34,16.12,21.34l.13,0a3,3,0,0,0,.9,0,3.57,3.57,0,0,0,2-1.09s-1.07-9.33-2-14.47-4.65-13.26-10.62-19.37-11.78-7.65-11.78-7.65-1.24-9.6-2.58-15.16a98,98,0,0,0-3.51-11.07c-.36,2.79-3,6.73-6,10.2a58.37,58.37,0,0,1-4.12,4.34C94.55,88,93.67,88.81,92.63,89.71Z"/><g class="cls-48"><path class="cls-49" d="M92.63,89.71s5.9,10,7.59,12.49,11.41,12.55,16.46,18.18,16.12,21.34,16.12,21.34l.13,0a3,3,0,0,0,.9,0,34.76,34.76,0,0,0-4.43-11.06C125.58,125,120.78,117,115,112s-11-11.15-12.29-14.89a77.44,77.44,0,0,1-3.44-14,58.37,58.37,0,0,1-4.12,4.34C94.55,88,93.67,88.81,92.63,89.71Z"/></g><path class="cls-50" d="M64.66,104.36c.18,1.29,7.88,14,11.77,21.12S88.16,147.9,88.16,147.9a5,5,0,0,0,2.91-.3,8.44,8.44,0,0,0,1.32-.61s-.46-22.32-4.15-31.25-12.53-12.09-12.53-12.09,11.05-8.87,16.92-13.94c1-.9,1.92-1.68,2.55-2.27,4.14-3.91,9.54-10.45,10.08-14.54s-.91-10.3-1.29-10.67h0a2.3,2.3,0,0,1,0,.26s-1.24,1-3,2.31a41.82,41.82,0,0,1-6,3.69A37.39,37.39,0,0,1,86,71.44S78.42,81.72,74.56,86.91,64.49,103.07,64.66,104.36Z"/><g class="cls-51"><path class="cls-52" d="M73,103.9s5.31,5.84,7.71,8.6,6,10.46,7.47,16.13a163.67,163.67,0,0,1,2.91,19,8.44,8.44,0,0,0,1.32-.61s-.46-22.32-4.15-31.25-12.53-12.09-12.53-12.09,11.05-8.87,16.92-13.94c1-.9,1.92-1.68,2.55-2.27,4.14-3.91,9.54-10.45,10.08-14.54s-.91-10.3-1.29-10.67h0a2.3,2.3,0,0,1,0,.26s-1.24,1-3,2.31c.12,3.22.19,9.59-.83,12.28-1.38,3.66-5.76,10-12.79,15.48S73,103.9,73,103.9Z"/></g><g class="cls-53"><path class="cls-54" d="M74.24,25.49A9.88,9.88,0,0,0,79.29,24a11,11,0,0,0,2-1.63,12,12,0,0,0,2.55-3.87,5.57,5.57,0,0,0,.3-1,.43.43,0,0,1-.28-.37c-.15-.94-2.29-4.23-2.89-4.37A19,19,0,0,1,78.87,12a9.25,9.25,0,0,1,.74,8.48C78.35,23.86,76.65,25.25,74.24,25.49Z"/></g><path class="cls-55" d="M38.7,64c.27.07,6.12,1.58,13.48,2.86A123.52,123.52,0,0,0,66,68.49a75.29,75.29,0,0,0,6.54-5.32A97.87,97.87,0,0,0,79.6,56c-1.22-3.41-2.07-6.67-2.07-6.67l-.74.6C75.33,51.11,72,53.65,70,54.12L69.88,54a33,33,0,0,1-9.68,5.5,111.08,111.08,0,0,1-16.54,3.79C42,63.6,40.33,63.83,38.7,64Z"/><g class="cls-56"><path class="cls-57" d="M38.7,64c.27.07,6.12,1.58,13.48,2.86A123.52,123.52,0,0,0,66,68.49a75.29,75.29,0,0,0,6.54-5.32A97.87,97.87,0,0,0,79.6,56c-1.22-3.41-2.07-6.67-2.07-6.67l-.74.6a46.76,46.76,0,0,1-6,8.77c-3.73,4.34-5.73,5.82-10.47,6.43-3.14.41-10.88-.61-16.71-1.79C42,63.6,40.33,63.83,38.7,64Z"/></g><path class="cls-58" d="M100.73,49.06s6-.6,7.56.67c0,0-3.36,1.49-6.7,2.6Z"/><polygon class="cls-59" points="29.71 54.13 32.37 58.52 31.53 58.73 30.3 58.6 27.75 54.49 29.71 54.13"/><path class="cls-60" d="M23.27,64c-.41,1.45,1.25,1.59,1.25,1.59a.57.57,0,0,0,.08.39c.26.44,1.09.84,2.62.65,2-.23,4.59-2.19,4.59-2.19A64.87,64.87,0,0,0,38.7,64a119.23,119.23,0,0,0,21.5-4.47A33,33,0,0,0,69.88,54l0,0c-.35-.35-1.51-1.5-2.7-2.81a26.73,26.73,0,0,1-2.45-3l-1.47-2.29a20.2,20.2,0,0,1-2.31,1.93c-1.07.71-7.62,3.06-12,4.61s-16.84,6.25-17.38,6.31-7.74-1.21-7.94-.56,2.11,1.69,2.11,1.69c-4.34.75-3.15,2.24-3.15,2.24A1.42,1.42,0,0,0,23.27,64Z"/><path class="cls-61" d="M65,5.82s3,.08,4.31,1.46A22,22,0,0,0,74.05,10a45.46,45.46,0,0,0,7,2.7,1.19,1.19,0,0,1,.44.34,13.32,13.32,0,0,1,2.45,4,.43.43,0,0,0,.28.37c.59.24,1.87-.68,2.1-3.73a12.19,12.19,0,0,0-.13-2.59A20.22,20.22,0,0,0,85,7a12.35,12.35,0,0,0-2.64-4.43A11.92,11.92,0,0,0,71.31.81,15,15,0,0,0,65,5.82Z"/><path class="cls-62" d="M52.59,45.46a13.41,13.41,0,0,1,.78,2.67L22.29,53.94,1.63,57.82,0,56l.91-.12V54.82l18.37-4,1.57,1.27L22,52l.3-1.29Z"/><path class="cls-63" d="M22,54s3,6,3,6L9.26,63.85,4.52,62,3.34,57.5Z"/><polygon class="cls-64" points="32.94 51.95 32.71 53.56 22.69 55.45 21.61 54.07 32.94 51.95"/><polygon class="cls-65" points="38.56 50.9 43.46 54.79 54.09 50.73 53.32 47.89 38.56 50.9"/><path class="cls-66" d="M37.78,56.5s-2.66-3-5.92-2.6S26.63,56.63,27,57.11s3.92-.47,3.92-.47l3.18,1.22Z"/><path class="cls-67" d="M34,57.92c0,1-3.19.55-3.21-.2S34,57.2,34,57.92Z"/><path class="cls-68" d="M124.34,148.52a50.11,50.11,0,0,0,5.68-.82c4.13-.83,7.49-1.9,7.49-1.9a11.56,11.56,0,0,0-1.72-5.18,3.58,3.58,0,0,1-1.93,1.09,3.18,3.18,0,0,1-.93,0s-1.53.93-4.13,2.84A39.63,39.63,0,0,0,124.34,148.52Z"/><path class="cls-69" d="M70,54l-.1.06a46.24,46.24,0,0,1-5.16-5.84l-1.47-2.29s2.23,3.08,3.43,4.68A26.64,26.64,0,0,0,70,54Z"/><path class="cls-69" d="M70,54l-.09.08,0,0L70,54Z"/><path class="cls-70" d="M70,54l-.09.08,0,0L70,54Z"/><path class="cls-71" d="M66.92,6.12a12.48,12.48,0,0,1,12-5.38s-3.94-2.06-9.76.69C64.54,3.59,63.4,6.16,63.4,6.16Z"/><path class="cls-72" d="M79.65,60.81c.13,2.17,2.3,4.72,4.08,5.75,1.14.66,3.58.25,6.58-1a40.4,40.4,0,0,0,5.46-2.7,16.82,16.82,0,0,0,7-7.25c-.7-4.46-4.82-14.13-4.82-14.13-1.59,2.23-7.43,8-11.5,11.28a19.38,19.38,0,0,1-2.81,2C80.24,56.57,79.53,58.63,79.65,60.81Z"/><path class="cls-73" d="M63.22,45.88l1.47,2.29A47.14,47.14,0,0,0,69.84,54L70,54h0l-.08.08.08.08a15.92,15.92,0,0,0,4.68-2.56,68.71,68.71,0,0,1-5.7-5.37c-1.6-1.7-2.51-2.73-3-3.32C64.38,44.59,63.22,45.88,63.22,45.88Z"/><path class="cls-74" d="M90.8,55.77s13.81-4.12,17.49-6c0,0,.88,2.3.62,3.29,0,0-13.47,4.64-16.9,5.42Z"/><path class="cls-75" d="M92.29,58.38l-5.57,1.46s-.9-3.15,0-4.29S90.63,53.5,92.29,58.38Z"/><polygon class="cls-76" points="160.83 138.33 157.64 138.18 156.71 144.49 159.93 144.94 160.83 138.33"/><polygon class="cls-77" points="160.77 155.56 156.82 154.72 158.68 144.72 159.93 144.7 161.71 145.25 160.77 155.56"/><polygon class="cls-78" points="167.75 138.26 169.62 154.66 160.77 155.56 161.71 145.25 159.93 144.94 160.83 138.33 167.75 138.26"/><polygon class="cls-79" points="39.07 140.93 42.25 140.71 43.32 147 40.1 147.52 39.07 140.93"/><polygon class="cls-80" points="39.49 158.15 43.43 157.23 41.35 147.26 40.1 147.28 38.33 147.86 39.49 158.15"/><polygon class="cls-81" points="32.14 141.01 30.63 157.45 39.49 158.15 38.33 147.86 40.1 147.52 39.07 140.93 32.14 141.01"/><rect class="cls-82" x="77.21" y="172.14" width="54.74" height="9.87" transform="translate(-1.92 1.15) rotate(-0.62)"/><polygon class="cls-83" points="131.3 181.72 176.44 172.11 176.33 162.23 131.19 171.85 131.3 181.72"/><polygon class="cls-84" points="77.26 182.31 29.06 171.46 28.95 161.58 77.16 172.44 77.26 182.31"/><path class="cls-85" d="M76.11,69.55l0,2.48a2.57,2.57,0,0,0,2.6,2.55l41.46-.45a2.58,2.58,0,0,0,2.55-2.6l0-2.49a2.58,2.58,0,0,0-2.6-2.55l-41.46.45A2.59,2.59,0,0,0,76.11,69.55Z"/><g class="cls-86"><path class="cls-87" d="M24.6,66c.26.44,1.09.84,2.62.65,2-.23,4.59-2.19,4.59-2.19A64.87,64.87,0,0,0,38.7,64a119.23,119.23,0,0,0,21.5-4.47A33,33,0,0,0,69.88,54l0,0c-.35-.35-1.51-1.5-2.7-2.81-3,2.47-4.59,4.35-8,6-3.88,1.87-13.77,3.67-20.12,5s-7.47,1.17-7.79,1.4S27.85,66,24.6,66Z"/></g><g class="cls-88"><path class="cls-89" d="M124.34,148.52a50.11,50.11,0,0,0,5.68-.82c.93-1.38,2.88-4.28,3.84-6a3.18,3.18,0,0,1-.93,0s-1.53.93-4.13,2.84A39.63,39.63,0,0,0,124.34,148.52Z"/></g><path class="cls-90" d="M80,152.77a44,44,0,0,0,10.16-.55c1.87-.3,3.15-.57,3.15-.57a15.08,15.08,0,0,0-.92-4.66,8.19,8.19,0,0,1-1.51.68,4.73,4.73,0,0,1-2.72.23Z"/><g class="cls-91"><path class="cls-92" d="M90.16,152.22c1.87-.3,3.15-.57,3.15-.57a15.08,15.08,0,0,0-.92-4.66,8.19,8.19,0,0,1-1.51.68C90.74,148.73,90.5,150.51,90.16,152.22Z"/></g><g class="cls-93"><path class="cls-94" d="M79.65,60.81c.13,2.17,2.3,4.72,4.08,5.75,1.14.66,3.58.25,6.58-1-1.85-1.49-4.72-4.09-5-6.18a14.25,14.25,0,0,1,1.1-6.62,19.38,19.38,0,0,1-2.81,2C80.24,56.57,79.53,58.63,79.65,60.81Z"/></g><path class="cls-95" d="M73.28,49.61a11.58,11.58,0,0,1-5.23,4.1l-3.38-3.53L69.76,46Z"/><path class="cls-96" d="M63.38,20.7a1.72,1.72,0,0,0,.32.34,4.66,4.66,0,0,0,4.73.39c1.44-.73,5.1-4.27,5.29-7s-.43-4.11-2.92-6.67a5.26,5.26,0,0,0-3.41-1.75c-1.17-.11-2.25.13-3.21,0C59.21,5.67,62.29,19.33,63.38,20.7Z"/><path class="cls-97" d="M63.7,21a4.66,4.66,0,0,0,4.73.39c1.44-.73,5.1-4.27,5.29-7s-.43-4.11-2.92-6.67a5.26,5.26,0,0,0-3.41-1.75C70,8,71.15,9.81,71.24,12.6S69.28,20.94,63.7,21Z"/><path class="cls-98" d="M71.1,15.25c1.7.53,5.68-.95,10.14-2.17l.08,0,.12,0c4.39-1.21,4.7-1.92,4.7-1.92A20.22,20.22,0,0,0,85,7c-1,.15-2.92.62-5,1.2s-4.16,1.2-6,1.78a16.36,16.36,0,0,0-3.8,1.53C69.51,12.53,69.38,14.72,71.1,15.25Z"/><path class="cls-99" d="M80,8.2a11.1,11.1,0,0,1,1.24,4.88l.08,0,.12,0c4.39-1.21,4.7-1.92,4.7-1.92A20.22,20.22,0,0,0,85,7C84,7.15,82.11,7.62,80,8.2Z"/><path class="cls-100" d="M98.39,74.37l21.81-.24a2.58,2.58,0,0,0,2.55-2.6l0-2.49a2.58,2.58,0,0,0-2.6-2.55l-15.5.17A98.29,98.29,0,0,1,98.39,74.37Z"/><text class="cls-101" transform="translate(46.76 164.09)"><tspan class="cls-102">D</tspan><tspan class="cls-103" x="5.19" y="0">esi</tspan><tspan class="cls-104" x="13.96" y="0">g</tspan><tspan x="18.25" y="0">ned </tspan><tspan class="cls-105" x="32.45" y="0">b</tspan><tspan x="36.81" y="0">y mac</tspan><tspan class="cls-106" x="55.78" y="0">r</tspan><tspan class="cls-105" x="58.24" y="0">o</tspan><tspan class="cls-106" x="62.44" y="0">v</tspan><tspan x="66.09" y="0">e</tspan><tspan class="cls-107" x="69.98" y="0">c</tspan><tspan class="cls-104" x="73.55" y="0">t</tspan><tspan x="76.07" y="0">or / </tspan><tspan class="cls-108" x="88.81" y="0">F</tspan><tspan class="cls-109" x="92.38" y="0">r</tspan><tspan class="cls-103" x="94.84" y="0">eepik</tspan></text></g></g></g></svg>