<svg xmlns="http://www.w3.org/2000/svg" xmlns:xlink="http://www.w3.org/1999/xlink" viewBox="0 0 355.39 483.43"><defs><style>.cls-1{fill:none;}.cls-2,.cls-5{fill:#fff;}.cls-3{fill:#5795b8;stroke:#fff;stroke-width:3px;}.cls-4,.cls-5{isolation:isolate;}.cls-5{font-size:40px;font-family:QuicksandBold-Regular, Quicksand;}.cls-6{letter-spacing:-0.02em;}.cls-7{letter-spacing:-0.02em;}.cls-8{fill:#338ca1;}.cls-9{fill:#66a9b9;}.cls-10{fill:#006f8a;}.cls-11{fill:#ff3f40;}.cls-12{fill:#cce2e8;}.cls-13{clip-path:url(#clip-path);}.cls-14{fill:#001c22;}.cls-15{fill:#003845;}.cls-16{fill:#99c5d0;}</style><clipPath id="clip-path"><path class="cls-1" d="M299.22,302.35V163.79c-4.41,25.92-54.72,40.59-116.18,40.59-64.36,0-116.53-16.08-116.53-43.24V307.65l.35,7.31c4.4,18.61,54.71,33.29,116.18,33.29,64.35,0,116.53-16.09,116.53-35.94C299.57,311.42,299.43,310.54,299.22,302.35Z"/></clipPath></defs><g id="Capa_2" data-name="Capa 2"><g id="Background"><g id="Componente_7_14" data-name="Componente 7 14"><g id="Trazado_412" data-name="Trazado 412"><path class="cls-2" d="M326.51,481.93h-297A26.48,26.48,0,0,1,3,455.43v-426a26.46,26.46,0,0,1,26.5-26.5h297A26.51,26.51,0,0,1,353,29.43v426a26.49,26.49,0,0,1-7.77,18.74,26.38,26.38,0,0,1-18.73,7.76Z"/><path class="cls-2" d="M29.51,4.43a25,25,0,0,0-25,25v426a25,25,0,0,0,25,25h297a25,25,0,0,0,25-25v-426a25,25,0,0,0-25-25h-297m0-3h297a28,28,0,0,1,28,28v426a28,28,0,0,1-28,28h-297a28,28,0,0,1-28-28v-426A28,28,0,0,1,29.51,1.43Z"/></g><path id="Trazado_410-2" data-name="Trazado 410-2" class="cls-3" d="M1.51,127C7.25,106.4,19,79.87,45.57,79.87H353.89v-50c-.44-19.7-15.48-29.45-32.73-28.12-38.63.1-287.39,0-287.39,0S1.09-3.66,1.5,35.65,1.51,127,1.51,127Z"/><g id="Inmersiva-2" class="cls-4"><text class="cls-5" transform="translate(81.51 54.43)">Inm<tspan class="cls-6" x="74.76" y="0">e</tspan><tspan x="98.28" y="0">rsi</tspan><tspan class="cls-7" x="146.76" y="0">v</tspan><tspan x="169.04" y="0">a</tspan></text></g></g><g id="Grupo_657" data-name="Grupo 657"><g id="Grupo_651" data-name="Grupo 651"><path id="Trazado_1029" data-name="Trazado 1029" class="cls-8" d="M116.58,139c-30.26,6.49-50.07,17.28-50.07,29.5V312.31c0-12.22,19.81-23,50.07-29.51Z"/><path id="Trazado_1030" data-name="Trazado 1030" class="cls-9" d="M249.49,139V282.8c28,6,47.09,15.74,49.73,26.86V171.11a11.89,11.89,0,0,0,.34-2.66C299.56,156.23,279.75,145.44,249.49,139Z"/></g><path id="Trazado_1031" data-name="Trazado 1031" class="cls-10" d="M91.54,290.07V146.21c-15.67,6.12-25,13.84-25,22.24V312.31C66.51,303.91,75.87,296.19,91.54,290.07Z"/><g id="Grupo_653" data-name="Grupo 653"><g id="Grupo_652" data-name="Grupo 652"><path id="Trazado_1032" data-name="Trazado 1032" class="cls-11" d="M141.72,165.46a11.81,11.81,0,0,0,8.19,3.77c3.65,0,6.06-1.59,6.06-4.42,0-3.3-1.94-5.35-10.07-5.35v-6.13c6.72,0,8.84-2,8.84-5,0-2.59-1.65-4.12-4.6-4.12-2.65,0-4.65,1.24-7,3.3l-4.35-5.3c3.41-2.94,7.18-4.77,11.77-4.77,7.72,0,12.9,3.72,12.9,10.25,0,3.89-2.23,6.6-6.24,8.3v.24c4.3,1.24,7.42,4.3,7.42,9.13,0,7-6.36,10.9-13.9,10.9-6.06,0-10.31-2.12-13-5.3Z"/><path id="Trazado_1033" data-name="Trazado 1033" class="cls-11" d="M191.43,147.09a8.52,8.52,0,0,0-5.83-2.65c-4.12,0-7.42,2.94-7.71,11.66a10.52,10.52,0,0,1,7.47-3.95c6.43,0,11.14,3.65,11.14,11.55s-5.66,12.54-12.43,12.54c-7.24,0-14.14-5.42-14.14-18.55,0-14,7.25-20.26,15.14-20.26A14.82,14.82,0,0,1,196,141.9Zm-2.82,16.61c0-3.95-2.07-5.42-4.89-5.42-1.89,0-3.95,1-5.66,3.71.77,5.89,3.24,7.77,5.83,7.77s4.71-1.82,4.71-6.06Z"/><path id="Trazado_1034" data-name="Trazado 1034" class="cls-11" d="M200.79,156.69c0-12.72,5.36-19.26,13.38-19.26s13.37,6.54,13.37,19.26-5.36,19.55-13.37,19.55S200.79,169.41,200.79,156.69Zm18.56,0c0-10.25-2.24-12.55-5.18-12.55s-5.19,2.3-5.19,12.55,2.3,12.84,5.19,12.84,5.18-2.66,5.18-12.84Z"/></g></g><path id="Trazado_1035" data-name="Trazado 1035" class="cls-12" d="M299.22,309.66V171.11c-4.41,18.6-54.72,33.28-116.18,33.28-64.36,0-116.53-16.09-116.53-35.94V315h.35c4.4,18.61,54.71,33.29,116.18,33.29,64.35,0,116.53-16.09,116.53-35.94A11.89,11.89,0,0,0,299.22,309.66Z"/><path id="Trazado_1036" data-name="Trazado 1036" class="cls-11" d="M240.56,245.81a10.76,10.76,0,1,1-10.75-10.76h0a10.75,10.75,0,0,1,10.75,10.76Z"/><path id="Trazado_1037" data-name="Trazado 1037" class="cls-2" d="M110.49,258h0c0-.2,0-.39,0-.6a13.7,13.7,0,0,1,14-13.42,14.33,14.33,0,0,1,6.1,1.36,16.76,16.76,0,0,1,28.23,2,14.23,14.23,0,0,1,7.66-2.21c7.54,0,13.65,5.74,13.65,12.82,0,6.59-5.29,12-12.09,12.74v.09H110.49A6.42,6.42,0,0,1,110,258h.5Z"/><path id="Trazado_1038" data-name="Trazado 1038" class="cls-2" d="M220.35,264.79h0c0-.14,0-.27,0-.42a9.19,9.19,0,0,1,9-9.41,8.62,8.62,0,0,1,3.92.95,10.42,10.42,0,0,1,8.66-4.75,10.54,10.54,0,0,1,9.48,6.19,8.57,8.57,0,0,1,4.92-1.55,9,9,0,0,1,1,17.93v.06h-37a4.5,4.5,0,0,1,0-9Z"/><g id="Grupo_656" data-name="Grupo 656"><g class="cls-13"><g id="Grupo_655" data-name="Grupo 655"><g id="Grupo_654" data-name="Grupo 654"><path id="Trazado_1039" data-name="Trazado 1039" class="cls-14" d="M66.51,343.36,136.42,265l29.93,20.77L207,247.63l92.55,88.83L175.94,386Z"/><path id="Trazado_1040" data-name="Trazado 1040" class="cls-15" d="M207,247.64s12.49,43.73,9.14,52.56S175.94,386,175.94,386l123.63-49.54Z"/><path id="Trazado_1041" data-name="Trazado 1041" class="cls-15" d="M136.42,265l17.9,56.81,1.83,18.65,10.2-54.69Z"/></g><path id="Trazado_1042" data-name="Trazado 1042" class="cls-16" d="M207,247.29l-17.19,16.5,9.94-2.59,1.21,5.18,5.18-3.9,6.1,2.48Z"/><path id="Trazado_1043" data-name="Trazado 1043" class="cls-2" d="M227.82,266,207,247.29,212.2,265l3.28-3.33Z"/><path id="Trazado_1044" data-name="Trazado 1044" class="cls-16" d="M125.1,276.47l11.09-12.39L142,280.59l-5.54-5.94-2.63,3.2-2.86-3.31Z"/><path id="Trazado_1045" data-name="Trazado 1045" class="cls-2" d="M136.18,264.08l12.5,9.39-6.1,1.87-.62,5.25Z"/></g></g></g></g></g></g></svg>