<svg xmlns="http://www.w3.org/2000/svg" xmlns:xlink="http://www.w3.org/1999/xlink" viewBox="0 0 225 202.29"><defs><style>.cls-1{isolation:isolate;}.cls-2{fill:#26226d;}.cls-16,.cls-23,.cls-24,.cls-25,.cls-3,.cls-30,.cls-32,.cls-5{fill:#fff;}.cls-3{opacity:0.9;}.cls-23,.cls-24,.cls-25,.cls-26,.cls-27,.cls-3,.cls-30,.cls-32,.cls-5{mix-blend-mode:overlay;}.cls-4{fill:#4ae5dd;}.cls-5{opacity:0.8;}.cls-6,.cls-7{fill:#313438;}.cls-25,.cls-7{opacity:0.6;}.cls-18,.cls-28,.cls-7,.cls-8{mix-blend-mode:multiply;}.cls-24,.cls-8{opacity:0.5;}.cls-9{fill:#d3a590;}.cls-10{fill:#8f399e;}.cls-11{fill:#c1d1e0;}.cls-12{fill:#3e9bf7;}.cls-13{fill:#b7c9e5;}.cls-14{fill:#232121;}.cls-15{fill:#eac6b5;}.cls-17{fill:#b667c1;}.cls-18{fill:url(#linear-gradient);}.cls-19{fill:#873f26;}.cls-20{fill:#6a7b9b;}.cls-21{fill:#76cc52;}.cls-22{fill:#3ca012;}.cls-26{opacity:0.47;}.cls-27,.cls-30{opacity:0.7;}.cls-28{opacity:0.3;}.cls-29{fill:#29c1a7;}.cls-31{opacity:0.35;}.cls-32{opacity:0.25;}.cls-33,.cls-41{font-size:4.67px;}.cls-33,.cls-36,.cls-41{fill:#545454;font-family:MyriadPro-Regular, Myriad Pro;}.cls-33{letter-spacing:-0.03em;}.cls-34{letter-spacing:-0.01em;}.cls-35{letter-spacing:0em;}.cls-36{font-size:5px;}.cls-37{letter-spacing:-0.01em;}.cls-38{letter-spacing:-0.01em;}.cls-39{letter-spacing:0.01em;}.cls-40{letter-spacing:-0.01em;}.cls-42{letter-spacing:0em;}.cls-43{letter-spacing:-0.01em;}.cls-44{letter-spacing:-0.01em;}</style><linearGradient id="linear-gradient" x1="106.5" y1="57.54" x2="114.53" y2="42.54" gradientUnits="userSpaceOnUse"><stop offset="0" stop-color="#fff"/><stop offset="0.13" stop-color="#fbfafa"/><stop offset="0.29" stop-color="#eeebea"/><stop offset="0.47" stop-color="#d9d2d0"/><stop offset="0.66" stop-color="#bcb0ac"/><stop offset="0.71" stop-color="#b3a6a1"/></linearGradient></defs><g class="cls-1"><g id="Capa_2" data-name="Capa 2"><g id="Layer_2" data-name="Layer 2"><rect class="cls-2" width="225" height="202.29"/><polygon class="cls-3" points="0.47 28.85 0.97 27.98 39.39 50.13 78.5 15.59 98.81 15.59 98.81 0.76 99.81 0.76 99.81 16.59 78.88 16.59 39.51 51.35 0.47 28.85 0.47 28.85"/><path class="cls-4" d="M95.65,16.09a3.66,3.66,0,1,1,3.66,3.66A3.66,3.66,0,0,1,95.65,16.09Z"/><path class="cls-4" d="M76,16.09a2.66,2.66,0,1,1,2.66,2.66A2.67,2.67,0,0,1,76,16.09Z"/><path class="cls-4" d="M36.8,50.74a2.66,2.66,0,1,1,2.66,2.67A2.66,2.66,0,0,1,36.8,50.74Z"/><polygon class="cls-5" points="208.54 127.88 208.54 35.25 183.12 35.25 166.95 1.52 142.52 19.72 120.27 1.15 120.27 1.15 120.91 0.38 142.55 18.45 167.33 0 183.75 34.25 209.54 34.25 209.54 126.88 225 126.88 225 127.88 208.54 127.88 208.54 127.88"/><path class="cls-4" d="M211.37,34.75A2.33,2.33,0,1,0,209,37.08,2.33,2.33,0,0,0,211.37,34.75Z"/><path class="cls-4" d="M145.2,19.09a2.66,2.66,0,1,0-2.66,2.66A2.67,2.67,0,0,0,145.2,19.09Z"/><path d="M129.05,85c0-.69,0-2.12-2.86-2.15s-3.21,3.66-2.49,4,3.35.34,4-.43A16.33,16.33,0,0,1,129.05,85Z"/><path d="M104.76,85.25c.07-1.36-.93-2.27.29-2.91s6.59-.08,7.59.85-3.36,5.68-3.36,5.68Z"/><polygon points="165.45 173.5 155.52 173.5 156.66 154.21 165.45 154.21 165.45 173.5"/><polygon class="cls-6" points="170.04 173.59 160.1 173.59 160.1 156.75 168.89 156.75 170.04 173.59"/><polygon points="156.66 154.21 160.1 156.75 168.89 156.75 165.45 154.21 156.66 154.21"/><path d="M172.52,178c0,2.53-.55,4.59-3.6,4.59h-7.67c-3,0-3.82-2.06-3.82-4.59v-1c0-2.54.78-4.6,3.82-4.6h7.67c3.05,0,3.6,2.06,3.6,4.6Z"/><path d="M165.45,155.21V122.28s-17.48-27-20.2-29.63c-2.14-2.09-6.24-1.29-6.24-1.29s3.13,5.26.46,7.56c6.11,5.74,19.1,23.36,19.49,25.27s0,31,0,31Z"/><path class="cls-6" d="M145.2,92.65c-2.14-2.09-6.24-1.29-6.24-1.29s1.52,1.75,1.61,1.91c.43-.34,2.58-.1,4,1.25,2.72,2.65,19.73,28.14,19.73,28.14v32.55h1.15V122.28S147.92,95.31,145.2,92.65Z"/><polygon points="66.55 173.5 76.48 173.5 75.33 154.21 66.55 154.21 66.55 173.5"/><polygon class="cls-6" points="61.96 173.59 71.89 173.59 71.89 156.75 63.11 156.75 61.96 173.59"/><polygon points="75.33 154.21 71.89 156.75 63.11 156.75 66.55 154.21 75.33 154.21"/><path d="M59.47,178c0,2.53.56,4.59,3.61,4.59h7.67c3,0,3.82-2.06,3.82-4.59v-1c0-2.54-.78-4.6-3.82-4.6H63.08c-3,0-3.61,2.06-3.61,4.6Z"/><path d="M66.54,155.21V122.28S84,95.31,86.75,92.65C88.89,90.56,93,91.36,93,91.36s-3.13,5.26-.46,7.56c-6.11,5.74-19.11,23.36-19.49,25.27s0,31,0,31Z"/><path class="cls-6" d="M66.59,122.28v32.93h1.15V122.66s17-25.49,19.73-28.14c1.38-1.35,3.53-1.59,4-1.25.09-.16,1.6-1.91,1.6-1.91s-4.09-.8-6.23,1.29C84.08,95.31,66.59,122.28,66.59,122.28Z"/><path d="M137.59,92.64c0,2.14-10.08,3.89-22.51,3.89s-22.51-1.75-22.51-3.89,10.08-3.89,22.51-3.89S137.59,90.49,137.59,92.64Z"/><path d="M164.05,182.07l-3.29-10.15-12.42,0L133.77,169a32.36,32.36,0,0,0-5.29-.52H103.06a35,35,0,0,0-5.3.5L83.3,171.76l-15,0L65,182.21a1.62,1.62,0,0,0,.9,2.53L86.05,193a16.25,16.25,0,0,0,5.16,1h44.68a17.24,17.24,0,0,0,5.18-.95L163,184.68A1.78,1.78,0,0,0,164.05,182.07Z"/><path class="cls-6" d="M92.81,182.4a15.1,15.1,0,0,1-4.79-.94l-18.78-7.69a1.54,1.54,0,0,1-.55-2.7l5.84-5.86A9.65,9.65,0,0,1,78.74,163l20.18-3.88a31.29,31.29,0,0,1,4.93-.47h23.66a30.16,30.16,0,0,1,4.93.48L151.79,163a8.07,8.07,0,0,1,4,2.41l4.56,5.53a1.68,1.68,0,0,1-.74,2.81l-20.4,7.79a16.1,16.1,0,0,1-4.81.89Z"/><path class="cls-7" d="M157.56,170.48l-4.28-4.91a7.77,7.77,0,0,0-3.78-2.14L131.34,160a31.14,31.14,0,0,0-4.63-.43H104.5a31.25,31.25,0,0,0-4.63.42l-19,3.45a9.14,9.14,0,0,0-3.94,2l-5.48,5.19A1.34,1.34,0,0,0,72,173l17.63,6.82a14.93,14.93,0,0,0,4.5.84h39.05a16.2,16.2,0,0,0,4.53-.79L156.87,173A1.46,1.46,0,0,0,157.56,170.48ZM155.09,172l-18.35,6a17,17,0,0,1-4.33.68H95a15.27,15.27,0,0,1-4.31-.73l-16.9-5.95c-1.14-.4-1.36-1.35-.49-2.1l5.26-4.53a9.1,9.1,0,0,1,3.78-1.73l18.15-3a33,33,0,0,1,4.44-.36H126.2a33.1,33.1,0,0,1,4.44.37l17.4,3a7.63,7.63,0,0,1,3.62,1.87l4.1,4.28C156.54,170.68,156.25,171.66,155.09,172Z"/><g class="cls-8"><path class="cls-6" d="M104.33,175.7a9.41,9.41,0,0,1-2.25-.33l-8.79-2.67c-.6-.18-.71-.6-.26-.94l2.74-2a5.14,5.14,0,0,1,2-.77l9.45-1.35a19.78,19.78,0,0,1,2.31-.17h11.09a19.61,19.61,0,0,1,2.3.17l9.07,1.34a4.26,4.26,0,0,1,1.88.84L136,171.7c.41.37.25.81-.35,1l-9.56,2.71a9.84,9.84,0,0,1-2.25.31Z"/></g><path class="cls-9" d="M119.41,56.61s-2.34,3.87-1.56,5.83S126.59,73,129,73.61s11.84.62,12.43.67a14.69,14.69,0,0,1,2,.54c1.36.35,1.31-.17,3.42.44.28.09.25-.34.25-.34s-1-.61-1.57-1.07a.67.67,0,0,1-.13-1l1.5.7s1.31,1.29,1.52,1.21c.62-.25-.77-1.9-.77-1.9s-.54-.46-1.65-1.28-5.22,0-5.22,0c-1-.44-9.53-2.65-9.53-2.65s-4.56-5.4-7.31-8.44a28.32,28.32,0,0,0-3.94-3.64Z"/><path class="cls-10" d="M120.8,54.78c2.32-.14,8.8,10.69,9.4,11.26l-6.52,6.62s-5.39-6.66-5.06-8.18S120.8,54.78,120.8,54.78Z"/><path d="M139.92,70.56A11.32,11.32,0,0,0,142,71a6.62,6.62,0,0,0,1.89-1.06c.51-.4,1.34-.63,1.47-1a.48.48,0,0,1,.92.15c.14.63-1.16,1.52-.94,1.6a5.6,5.6,0,0,0,1.88.39,21,21,0,0,1,4.11-.14c.13.2.22.57-1.16.78s-2.41.27-2.19.41,4.36.36,4.45.79-.18.73-1,.6-4.06-.25-3.93-.06,3.87.47,4,1.06c.09.33-.14.55-.67.51a31.16,31.16,0,0,0-3.6-.28c-.39.09,1.74.57,2.23.85s.4,1-.48.71a18.83,18.83,0,0,0-3.48-.58,13.61,13.61,0,0,1-4-1,21.57,21.57,0,0,0-2.43,0,3.17,3.17,0,0,1,.24-3.33C140,70.69,139.92,70.56,139.92,70.56Z"/><path class="cls-11" d="M150.58,71c-.28,0-.47.22-.42.39s.29.25.57.2.48-.22.44-.39S150.86,70.92,150.58,71Z"/><path class="cls-12" d="M150.6,71.05c-.21,0-.36.17-.33.29s.23.2.44.17.37-.18.34-.31S150.82,71,150.6,71.05Z"/><path class="cls-11" d="M151.73,72.72c-.29,0-.54.12-.56.31s.2.37.48.38.53-.12.55-.32S152,72.73,151.73,72.72Z"/><path class="cls-12" d="M151.72,72.8c-.22,0-.41.09-.43.24s.15.28.37.29.41-.09.43-.24S151.94,72.81,151.72,72.8Z"/><path class="cls-11" d="M150.83,74.28c-.28,0-.53.11-.55.28s.2.32.48.34.53-.11.55-.28S151.12,74.3,150.83,74.28Z"/><path class="cls-12" d="M150.82,74.35c-.21,0-.4.09-.42.22s.15.25.37.26.4-.08.42-.21S151,74.37,150.82,74.35Z"/><path class="cls-11" d="M149.31,75.66c-.23-.08-.47,0-.54.11s0,.31.28.39a.48.48,0,0,0,.55-.11C149.67,75.91,149.54,75.73,149.31,75.66Z"/><path class="cls-12" d="M149.28,75.71a.39.39,0,0,0-.42.09c-.05.11,0,.24.22.3s.37,0,.42-.09S149.46,75.77,149.28,75.71Z"/><path class="cls-13" d="M145,70.84c.26-.56,1.21-1.21,1.17-1.44s-.27-.39-.72,0a10.4,10.4,0,0,0-2.18,1.67c-.24.28.39.39,1.06.18S145,70.84,145,70.84Z"/><path class="cls-13" d="M149.09,71.89c-.24,0-.48-.81-.32-1a7,7,0,0,0-1.26.11s.26,1,.5,1A5.81,5.81,0,0,0,149.09,71.89Z"/><path class="cls-13" d="M149,73.47c-.05-.09,0-1.09.25-1.19l-1.15-.17s-.61,1-.36,1.3A5.5,5.5,0,0,0,149,73.47Z"/><path class="cls-13" d="M148.58,74.84c0-.09,0-1,.26-1.13-.49-.07-1.13-.24-1.13-.24s-.58,1-.34,1.32A5.62,5.62,0,0,0,148.58,74.84Z"/><path class="cls-13" d="M147.49,76c-.09-.15.44-.88.72-.92-.77-.25-.9-.28-.9-.28s-.87.68-.79,1.07A5.5,5.5,0,0,0,147.49,76Z"/><path class="cls-11" d="M145.44,69.2a.34.34,0,0,0,.11.51.51.51,0,0,0,.57-.25A.34.34,0,0,0,146,69,.5.5,0,0,0,145.44,69.2Z"/><path class="cls-12" d="M145.52,69.23a.25.25,0,0,0,.08.39.39.39,0,0,0,.44-.19A.27.27,0,0,0,146,69,.41.41,0,0,0,145.52,69.23Z"/><path class="cls-11" d="M144.27,72c-.7.26-1,.9-.73,1.44a1.47,1.47,0,0,0,1.79.5,1.06,1.06,0,0,0,.74-1.45A1.47,1.47,0,0,0,144.27,72Z"/><path class="cls-12" d="M144.36,72.15a.88.88,0,0,0-.61,1.21,1.24,1.24,0,0,0,1.5.41.89.89,0,0,0,.61-1.21A1.24,1.24,0,0,0,144.36,72.15Z"/><path class="cls-14" d="M89.35,172.88c-.21,2.38.6,3.82,1.91,4.26,2.33.78,5.3-.17,6.34-1.52s1.23-2.32,1.83-3c1.09-1.19.42-4.15.42-4.15l-4.72,6.22Z"/><path class="cls-9" d="M96,157.81a39.26,39.26,0,0,1-4,12.34c-1.24,2.8-2.3,4.2,1.47,4.93,2.69.52,5-1.09,5.67-5.14s1.87-10.89,1.87-10.89Z"/><path class="cls-15" d="M127.25,125c.51,3.77,3.74,11.62,2.64,13.23s2.8,23.34,4.35,25.83,3,5,7.26,7.06c-2.41,1.48-1.8,2.48-8.44.42-2.3-.71-4.85.39-5.31-1-1-3.25.53-2.21.58-7.05s-6.41-16.65-2.94-24.14c2.13-4.59.44-14.4,1-16S127.25,125,127.25,125Z"/><path d="M132.17,136c-.3-4.14-5.19-46.62-5.37-49.1l-2.92-.48.25-2.06-15.06-2.18c-2.57,3.25-6.17,11.3-7.16,17.5s-2.81,31.21-3.73,34.92S95.9,144.22,94.92,150s-1.54,12.72-1.54,12.72l8.82,1.49s4-13.29,6.65-27.11c1.13-5.74,6.62-17.22,10.11-34.5l-4,1.14c.19,4,1.65,15.56,6.61,34.07.14,8.75,5,24.56,5,24.56s3.4.85,7.79-1.95C134.05,156.29,132.47,140.08,132.17,136Z"/><path class="cls-14" d="M130.14,170.9a14.48,14.48,0,0,0-3.25-.91c0,.4-.06,2.41.33,2.51s9.71,3.05,15.3,1.13a1.41,1.41,0,0,0,.9-2.26,1.77,1.77,0,0,1-1.25,1.18C135.69,173.53,132.08,171.56,130.14,170.9Z"/><path class="cls-16" d="M138.05,168.05a5.68,5.68,0,0,0-2-2.55c-.89-.43-1.5-.07-1.48.85a11.59,11.59,0,0,0,1.41,3.19Z"/><path class="cls-16" d="M127.86,166.16a4.76,4.76,0,0,0-.73,4.64c1.55,1.15,12.23,2.35,12.23,2.35s4.59.42,4.11-2c-.21-1-3.52-1.75-5.82-3.73-3.1,2.4-3.48-1-4.82-.28C129.51,168.88,127.86,166.16,127.86,166.16Z"/><path class="cls-13" d="M92.16,170.46c.58-1.19-.17-6,2-5.86s4.53.82,4.09,2.7a24.17,24.17,0,0,1-1.59,4.2Z"/><path class="cls-13" d="M99.59,167c-.73,3.73-4.17,2.82-5,2.72-2.07-.26-2-1.09-2-1.4s-.2-.43-.2-.43c-1.28,2.1-2.06,2.33-2.94,3.93-1.52,2.77,2.1,5.44,6,4.12,3.16-1.09,2.19-2.48,3.89-4.84C100.52,169.42,100.08,167.33,99.59,167Z"/><path class="cls-6" d="M132.17,136.46c-.3-4.13-5.27-47.05-5.45-49.53l-1.53-.25-2.46,1.83c1.09,7.78,5.47,40.24,6.24,46.47.6,4.78.9,17.49,2.66,26.76a16,16,0,0,0,3.36-1.07C134.69,156.53,132.47,140.6,132.17,136.46Z"/><path class="cls-15" d="M123.72,62.73a9.91,9.91,0,0,0-2-2.12c-.72-1.75-2-5.22-2.57-5.72a17,17,0,0,0-3-1.72c-1.25-3.81,2-6.89,4.63-8.61,0,0-11.56-14.46-11.17-9.57.28,3.56-.25,11.1-2.53,15.46-.86,1.65-2.45,2.17-3.64,2.83,1.91.75,7.82,6.31,10.62,8.23C117.29,63.68,125,64.68,123.72,62.73Z"/><path class="cls-17" d="M125,70.77c.45-1.43,2.29-4.37.84-6.53-1-1.44-2.11-3-3.34-5.2-.47-1.08-1.14-3.95-1.7-4.26a37.57,37.57,0,0,0-3.61-1.31,3.56,3.56,0,0,1,1,3.53c-.24.71-1.25,1.2-2.6.81-2.72-.79-5.53-3.4-10.64-5.73-.79.77-3.92,2.75-4.71,3.69-1.58,3.5,2.54,9.15,4.75,14.81,2.28,5.84,3.8,8.43,4.11,11.55-.32,2.65-3.86,10.12-2.91,10.33,7.77,2.49,22.25,1,22.05-.68C126.89,80.8,124.56,72.21,125,70.77Z"/><path class="cls-10" d="M99.13,57.05c-1.58,3.5,3,10,5.19,15.71,2.28,5.84,1.89,6,2.2,9.13C106.21,84.53,102,92,102.9,92.25a30.68,30.68,0,0,0,9.45,1.33,50.92,50.92,0,0,0,1.23-12.49,48,48,0,0,0-.48-8.24c-.27-1.54.4-4.92.12-6.22-.61-2.83-4-8.54-10.39-13.06A17.21,17.21,0,0,0,99.13,57.05Z"/><path class="cls-18" d="M117,49.76l-9.31,7.63-4.16-4.11s3.37-1.42,3.79-3.19,1.46-8.56,1.46-8.56S112.73,48.1,117,49.76Z"/><path class="cls-15" d="M110.55,40.49c1.41-5.59,4.6-11,9-9.9s5.37,4.23,4,9.82a31.45,31.45,0,0,1-1.81,4.86c-.8,1.66-2.72,6.35-6,4.89C111.55,48.32,109.16,46.07,110.55,40.49Z"/><path class="cls-19" d="M118.2,38l6.08-.31c.72-1,0-7.35-6.86-8.29-6.28-.86-10.13,2.23-11,8.08-.53,3.68,1.24,9.49,1.24,9.49s4.42-2.67,3.74-4c-.42-.84-1.22-4.18.86-4.24.62,0,.93,1.08.93,1.08Z"/><path class="cls-19" d="M106.93,42.13c-1.71,2.33-.22,7.49.65,8.46s2.63-3.42,2.69-6S106.93,42.13,106.93,42.13Z"/><path class="cls-19" d="M106.49,48.06c-1.32,1.77,1.87,4.87,2.18,6.81s1.24-4.36.52-7.24S106.49,48.06,106.49,48.06Z"/><path class="cls-19" d="M109.51,51.56c1.12,1.51,2.46,6.13,1.89,6.41s-5.19-3.34-4.25-5.61S109.51,51.56,109.51,51.56Z"/><path class="cls-19" d="M110.84,55.7c1.06.78,1.84,1.49,2.62,4.12s-4.11-1.43-4.39-2.7S110.84,55.7,110.84,55.7Z"/><path class="cls-19" d="M112.47,59a8.83,8.83,0,0,1,4.18,5.76c-4,1.34-5.11,1.34-5.11,1.34s-1.2-7.1-.77-7.24A5.43,5.43,0,0,1,112.47,59Z"/><path class="cls-15" d="M100.5,60s-.86,3.59-.07,5.55,6.7,11.38,9.06,12,12.37.59,13,.64a7.54,7.54,0,0,1,2,0c1.35.35-2-3.57-2-3.57-1-.44-10.22-2.33-10.22-2.33s-2.39-5.8-5.15-8.84c-1.95-2.15-5.41-2.68-6.1-3.23Z"/><path d="M121.44,73.21c.47.14,1.59,1,2.11,1a6.56,6.56,0,0,0,2.51-.74,12,12,0,0,1,2.21-.6c.54-.25,1.14-.27.92.47s-2.06,1.12-1.84,1.28a4.4,4.4,0,0,0,1.75.84,21,21,0,0,1,4.31.54c.27.4.21,1-1.32.93s-2.89-.4-2.57,0,4.74,1.53,4.69,2.11-.36.93-1.2.58-4.28-1.2-4.19-.92,4.29,1.73,4,2.26-.29.68-.84.52a30.81,30.81,0,0,0-3.78-1.15c-.44,0,1.72,1.13,2.18,1.6s.19,1.36-.68.83a18.8,18.8,0,0,0-3.58-1.51A12.9,12.9,0,0,1,122.1,79a18.24,18.24,0,0,0-2.59-.52c-.28-1.64.13-3.58,1-4.33S121.44,73.21,121.44,73.21Z"/><path class="cls-20" d="M129.85,82.25a24.63,24.63,0,0,0-3.32-1.6h0a13.33,13.33,0,0,1-4.17-3.13h0a.12.12,0,0,1,0-.16h0a.11.11,0,0,1,.16,0h0a13.1,13.1,0,0,0,4.08,3.06h0A22.66,22.66,0,0,1,130,82.09h0a.12.12,0,0,1,0,.16h0a.11.11,0,0,1-.08,0h0a.11.11,0,0,1-.08,0Z"/><path class="cls-20" d="M132.11,81a28.77,28.77,0,0,0-3.39-1.35h0c-1-.38-5.4-2-6.26-2.53h0a.1.1,0,0,1,0-.15h0a.11.11,0,0,1,.15,0h0c.81.5,5.28,2.13,6.23,2.51h0a24.41,24.41,0,0,1,3.47,1.4h0a.1.1,0,0,1,0,.16h0a.09.09,0,0,1-.08,0h0a.09.09,0,0,1-.08,0Z"/><path class="cls-20" d="M133.75,79.13c-.5-.2-4.26-1.18-5.16-1.3h0c-.9-.12-4.65-1.19-5.77-1.19h-.17a.1.1,0,0,1-.13-.08h0a.11.11,0,0,1,.08-.14h0l.22,0h0c1.19,0,4.94,1.09,5.8,1.2h0a52.09,52.09,0,0,1,5.21,1.3h0a.13.13,0,0,1,.06.15h0a.11.11,0,0,1-.11.07h0Z"/><path class="cls-20" d="M128.61,76.19a42.06,42.06,0,0,0-4.74-.37h0a2.88,2.88,0,0,0-1.08.11h0a.11.11,0,0,1-.16,0h0a.11.11,0,0,1,0-.16h0a2.73,2.73,0,0,1,1.22-.16h0a42.94,42.94,0,0,1,4.78.37h0a40.1,40.1,0,0,0,4.24.31h.28a.1.1,0,0,1,.11.11h0a.1.1,0,0,1-.11.11h-.28a41.15,41.15,0,0,1-4.28-.31Z"/><path class="cls-20" d="M122.75,75.48a.11.11,0,0,1,0-.16h0c.44-.68,2.83-1.21,3.84-1.53h0c1-.26,2.06-.62,2-.87h0a.12.12,0,0,1,.13-.1h0a.13.13,0,0,1,.1.13h0c-.15.55-1.23.75-2.2,1.06h0c-1,.28-3.45.92-3.72,1.43h0a.12.12,0,0,1-.1,0h0Z"/><path class="cls-13" d="M133.29,76.36a.33.33,0,0,1-.34.32l-.57,0a.34.34,0,0,1-.32-.34h0a.33.33,0,0,1,.34-.32H133a.34.34,0,0,1,.32.35Z"/><path class="cls-13" d="M134,79.15a.33.33,0,0,1-.41.22L133,79.2a.32.32,0,0,1-.21-.41h0a.31.31,0,0,1,.4-.22l.55.17a.32.32,0,0,1,.21.41Z"/><path class="cls-13" d="M132.51,81a.31.31,0,0,1-.41.18l-.47-.22a.32.32,0,0,1-.13-.43h0a.32.32,0,0,1,.41-.17l.46.22a.3.3,0,0,1,.14.42Z"/><path class="cls-13" d="M130.36,82.41a.32.32,0,0,1-.42.14l-.45-.27a.3.3,0,0,1-.1-.43h0a.33.33,0,0,1,.43-.14l.45.26a.32.32,0,0,1,.09.44Z"/><path class="cls-10" d="M98.65,58.18c-1.6,2.75,1.66,8.85,3.83,13.77.53,1.2,8.45-4.21,8.45-4.21s-4.56-9.38-6.68-11S100.17,55.6,98.65,58.18Z"/><path d="M130.56,90.71a.58.58,0,0,1-.58-.57h0a.58.58,0,0,1,.58-.58h1a2.38,2.38,0,0,0,2.37-2.37h0a2.38,2.38,0,0,0-2.36-2.37h0l-2.79.07a.57.57,0,0,1-.59-.56h0a.57.57,0,0,1,.56-.58h0l2.81-.08a3.52,3.52,0,0,1,3.51,3.52h0a3.51,3.51,0,0,1-3.51,3.52h-1Z"/><path d="M129.15,90.64c5,.42,7.52,1,7.52,1.77,0,1.27-9.47,2.3-21.16,2.3s-21.15-1-21.15-2.3c0-.74,2.13-1.53,7.09-2l.86-1c-5.48.45-9.57,1.21-10.81,2A5.15,5.15,0,0,0,88.26,96c0,2.1,2.31,4,3.83,4.52,3,1.27,12.32,2.2,23.42,2.2s20.35-.92,23.38-2.18c1.52-.41,3.92-2.4,3.92-4.54a5.1,5.1,0,0,0-3.29-4.57c-1.22-.81-9.82-1.54-9.82-1.54Z"/><path class="cls-6" d="M139.47,91.46c-.84-.56-7-1.49-9.94-1.9-.53.25-.4,1.22-.4,1.22,5.13.42,7.49.88,7.49,1.63,0,1.27-9.47,2.3-21.16,2.3s-21.16-1-21.16-2.3c0-.62,1.46-1.43,4.89-1.92.7-.1,6.45-.66,7.32-.74,0-.11-.35-.32-.13-.64-1.09,0-6.21.4-7.15.5-4.38.47-7.1,1.39-7.78,1.86a5.06,5.06,0,0,0-3,3.48,9.26,9.26,0,0,0,3,2C94.63,98.25,104,99,115.65,99s20.93-1,24.13-2.37c.79-.22,2.1-.26,2.93-1.1A5.13,5.13,0,0,0,139.47,91.46Z"/><path class="cls-21" d="M116.58,97.46c-14.09,0-26.3-1.13-27.46-4.09a2.07,2.07,0,0,0-.67,1.34c0,3.18,12.75,4.47,27.61,4.47s26.39-1.41,26.57-4.18a7.57,7.57,0,0,0-.37-1.23C139.62,96.36,129.46,97.46,116.58,97.46Z"/><path d="M141.05,86.4c0,.36-.18.67-.42.69L135,87.2c-.23,0-.43-.26-.43-.62h0c0-.36.18-.67.41-.69l5.61-.11c.24,0,.43.26.44.62Z"/><path d="M139.58,91.45a1.64,1.64,0,0,1-1.58,1.7h0a1.64,1.64,0,0,1-1.58-1.7V87.89a1.64,1.64,0,0,1,1.58-1.7h0a1.64,1.64,0,0,1,1.58,1.7Z"/><path d="M91,86.54a.63.63,0,0,0,.59.68h8.16a.64.64,0,0,0,.65-.63h0a.64.64,0,0,0-.6-.68H91.63a.64.64,0,0,0-.65.63Z"/><path d="M91.78,91.6a1.87,1.87,0,0,0,2,1.7h0a1.87,1.87,0,0,0,2-1.7V88a1.87,1.87,0,0,0-2-1.7h0a1.87,1.87,0,0,0-2,1.7Z"/><path d="M101.75,90.5A3.52,3.52,0,0,1,98.24,87h0a3.51,3.51,0,0,1,3.53-3.52h0l2.79.07a.57.57,0,0,1,.56.59h0a.57.57,0,0,1-.59.56h0l-2.78-.07A2.38,2.38,0,0,0,99.38,87h0a2.38,2.38,0,0,0,2.37,2.37h1a.57.57,0,0,1,.58.57h0a.58.58,0,0,1-.58.58h-1Z"/><path class="cls-6" d="M104.5,82.74c1.23,2.66,7.56,4.41,12.61,5.07,5.49.72,9.12-.72,10.56-2.2a16.24,16.24,0,0,0,2,7.18s-6.2,5.36-16.78,3.07c-7.86-1.71-10.35-2.83-10.85-4.55S104.5,82.74,104.5,82.74Z"/><path class="cls-22" d="M103.63,84.88l.31-.74c4.19,4.45,12.39,4.65,17.18,4.65h0c.8,0,1.61,0,2.44-.07h0l0,.68c-.84.06-1.75.34-2.56.34C121,89.74,109.42,90.56,103.63,84.88Z"/><path class="cls-22" d="M112.09,94.5c-5-1.6-9.25-4.58-9.74-5.59l-.3,1c.56,1,4,3,7.65,4.51Z"/><path d="M128.93,84.1c-2.06,2.52-5.42,2.62-7.33,3.47s-.66,6.66-.61,7.38c0,.25,8.09-.63,8.8-1C130.7,93.54,128.93,84.1,128.93,84.1Z"/><path class="cls-21" d="M122.44,94.89a28.55,28.55,0,0,1-.4-3.44h0a3.6,3.6,0,0,1,.33-1.85h0a13.16,13.16,0,0,1,2.77-1.14h0c1.39-.57,2.86-.82,4.11-2.43l-.19-1.12s-.72,1.64-4.06,2.76h0c-1.36.58-2.49.74-3,1.3h0a4.5,4.5,0,0,0-.52,2.48h0c0,.66.27,2.94.37,3.49Z"/><path class="cls-6" d="M120,42.43a2.42,2.42,0,0,1-2.87,1.82L114,43.56a2.38,2.38,0,0,1-1.84-2.83l.47-2.13a2.42,2.42,0,0,1,2.88-1.82l3.14.68a2.38,2.38,0,0,1,1.84,2.84Z"/><path d="M116.4,37.81c-.31-.09-2.21-.6-2.53-.2a15.06,15.06,0,0,0-1.07,4.47c.18.32,2.66,1.38,2.82,1.14S116.4,37.81,116.4,37.81Z"/><path class="cls-6" d="M117.77,36.75a19,19,0,0,0-3.11,1.93l-.56,3.08,2.35,2.51Z"/><path d="M116.08,43.3a1.16,1.16,0,0,0,.86,1.36l8,1.52c.42,0,.83-.38.92-1L127,39.75a1.07,1.07,0,0,0-.6-1.24l-8.09-1.92c-.53-.13-1,.31-1.14,1Z"/><path class="cls-6" d="M117.6,37.26l-1.16,6.19a1.09,1.09,0,0,0,1,1.19l7.48,1.46a.59.59,0,0,0,.48-.18.59.59,0,0,1-.26,0l-7.47-1.46a1.08,1.08,0,0,1-.84-1.27l1.1-5.87a1.27,1.27,0,0,1,.39-.76C118,36.75,117.66,36.83,117.6,37.26Z"/><path d="M115.21,39.13s-1.79,0-4.95-2.27c-2.76-2-3-3.63-3-3.63l-.91,1.84a19.51,19.51,0,0,0,2.27,2.46c2.58,2.23,6.08,4.1,6.16,3.73C114.94,40.51,115.21,39.13,115.21,39.13Z"/><path class="cls-23" d="M120.55,74.14,142,28.74l.58-1.24,18.3,45.66L145.32,86,120.55,74.14Zm1.6-.56,23,11,14.33-11.8L142.53,30.5,122.15,73.58ZM142,29.22l.56-.22-.56.22Z"/><polygon class="cls-23" points="141.94 30.24 143.13 30.18 145.84 85.28 144.64 85.34 141.94 30.24 141.94 30.24"/><path class="cls-23" d="M143.16,72s-8.62-4.55-13.37-7.26h0a24.26,24.26,0,0,1-3.1-1.93h0l-.51-.51,17.44-12.05,12.46,10.88L143.53,72.17l-.37-.19Zm-12.78-8.3c1.57.9,3.58,2,5.56,3.07h0c3.23,1.76,6.37,3.43,7.42,4h0l10.9-9.62-10.73-9.36L128.16,62.37c.52.32,1.31.8,2.22,1.31Z"/><polygon class="cls-24" points="142.66 27.67 160.91 73.19 145.41 85.98 142.66 27.67"/><polygon class="cls-23" points="176.87 20 176.87 19.5 220.01 19.5 220.01 0.76 220.51 0.76 220.51 20 176.87 20 176.87 20"/><path class="cls-25" d="M220.11,174.09V27.65h-4.44v91.46H195.5l-7.84-35.22L202,63.14H167V.76h.8V62.34h35.78l-15,21.72,7.62,34.25h18.74V27.65h-22.2V4.86h23v22h5.24V173.29H225v.8ZM193.48,26.85h21.4V5.66h-21.4V26.85Z"/><g class="cls-26"><path class="cls-16" d="M175.12,56.49a.92.92,0,1,1-.91-.92A.92.92,0,0,1,175.12,56.49Z"/><path class="cls-16" d="M178.36,56.49a.91.91,0,1,1-.91-.92A.91.91,0,0,1,178.36,56.49Z"/><path class="cls-16" d="M181.6,56.49a.91.91,0,1,1-.91-.92A.91.91,0,0,1,181.6,56.49Z"/><path class="cls-16" d="M184.85,56.49a.92.92,0,1,1-.92-.92A.92.92,0,0,1,184.85,56.49Z"/><path class="cls-16" d="M188.09,56.49a.92.92,0,1,1-.92-.92A.92.92,0,0,1,188.09,56.49Z"/><path class="cls-16" d="M191.33,56.49a.92.92,0,1,1-.92-.92A.92.92,0,0,1,191.33,56.49Z"/><path class="cls-16" d="M194.57,56.49a.92.92,0,1,1-.91-.92A.92.92,0,0,1,194.57,56.49Z"/><path class="cls-16" d="M197.81,56.49a.92.92,0,1,1-.91-.92A.92.92,0,0,1,197.81,56.49Z"/><path class="cls-16" d="M175.12,51.08a.92.92,0,1,1-.91-.92A.91.91,0,0,1,175.12,51.08Z"/><path class="cls-16" d="M178.36,51.08a.91.91,0,1,1-.91-.92A.91.91,0,0,1,178.36,51.08Z"/><path class="cls-16" d="M181.6,51.08a.91.91,0,1,1-.91-.92A.91.91,0,0,1,181.6,51.08Z"/><path class="cls-16" d="M184.85,51.08a.92.92,0,1,1-.92-.92A.92.92,0,0,1,184.85,51.08Z"/><path class="cls-16" d="M188.09,51.08a.92.92,0,1,1-.92-.92A.92.92,0,0,1,188.09,51.08Z"/><path class="cls-16" d="M191.33,51.08a.92.92,0,1,1-.92-.92A.92.92,0,0,1,191.33,51.08Z"/><path class="cls-16" d="M194.57,51.08a.92.92,0,1,1-.91-.92A.91.91,0,0,1,194.57,51.08Z"/><path class="cls-16" d="M197.81,51.08a.92.92,0,1,1-.91-.92A.91.91,0,0,1,197.81,51.08Z"/><path class="cls-16" d="M175.12,45.66a.92.92,0,1,1-.91-.92A.92.92,0,0,1,175.12,45.66Z"/><path class="cls-16" d="M178.36,45.66a.91.91,0,1,1-.91-.92A.91.91,0,0,1,178.36,45.66Z"/><path class="cls-16" d="M181.6,45.66a.91.91,0,1,1-1.82,0,.91.91,0,1,1,1.82,0Z"/><path class="cls-16" d="M184.85,45.66a.92.92,0,1,1-.92-.92A.92.92,0,0,1,184.85,45.66Z"/><path class="cls-16" d="M188.09,45.66a.92.92,0,1,1-.92-.92A.92.92,0,0,1,188.09,45.66Z"/><path class="cls-16" d="M191.33,45.66a.92.92,0,1,1-.92-.92A.92.92,0,0,1,191.33,45.66Z"/><path class="cls-16" d="M194.57,45.66a.92.92,0,1,1-.91-.92A.92.92,0,0,1,194.57,45.66Z"/><path class="cls-16" d="M197.81,45.66a.92.92,0,1,1-.91-.92A.92.92,0,0,1,197.81,45.66Z"/><path class="cls-16" d="M175.12,40.25a.92.92,0,1,1-.91-.92A.91.91,0,0,1,175.12,40.25Z"/><path class="cls-16" d="M178.36,40.25a.91.91,0,1,1-.91-.92A.91.91,0,0,1,178.36,40.25Z"/><path class="cls-16" d="M181.6,40.25a.91.91,0,1,1-.91-.92A.91.91,0,0,1,181.6,40.25Z"/><path class="cls-16" d="M184.85,40.25a.92.92,0,1,1-.92-.92A.92.92,0,0,1,184.85,40.25Z"/><path class="cls-16" d="M188.09,40.25a.92.92,0,1,1-.92-.92A.92.92,0,0,1,188.09,40.25Z"/><path class="cls-16" d="M191.33,40.25a.92.92,0,1,1-.92-.92A.92.92,0,0,1,191.33,40.25Z"/><path class="cls-16" d="M194.57,40.25a.92.92,0,1,1-.91-.92A.91.91,0,0,1,194.57,40.25Z"/><path class="cls-16" d="M197.81,40.25a.92.92,0,1,1-.91-.92A.91.91,0,0,1,197.81,40.25Z"/></g><g class="cls-27"><path class="cls-16" d="M28.65,78.73a.92.92,0,1,1-.92-.92A.92.92,0,0,1,28.65,78.73Z"/><path class="cls-16" d="M31.89,78.73a.92.92,0,1,1-.91-.92A.92.92,0,0,1,31.89,78.73Z"/><path class="cls-16" d="M35.13,78.73a.92.92,0,1,1-.91-.92A.92.92,0,0,1,35.13,78.73Z"/><path class="cls-16" d="M38.37,78.73a.92.92,0,1,1-.91-.92A.92.92,0,0,1,38.37,78.73Z"/><path class="cls-16" d="M28.65,73.31a.92.92,0,1,1-.92-.91A.92.92,0,0,1,28.65,73.31Z"/><path class="cls-16" d="M31.89,73.31A.92.92,0,1,1,31,72.4.92.92,0,0,1,31.89,73.31Z"/><path class="cls-16" d="M35.13,73.31a.92.92,0,1,1-.91-.91A.92.92,0,0,1,35.13,73.31Z"/><path class="cls-16" d="M38.37,73.31a.92.92,0,1,1-.91-.91A.92.92,0,0,1,38.37,73.31Z"/><path class="cls-16" d="M28.65,67.9a.92.92,0,1,1-.92-.92A.92.92,0,0,1,28.65,67.9Z"/><path class="cls-16" d="M31.89,67.9A.92.92,0,1,1,31,67,.92.92,0,0,1,31.89,67.9Z"/><path class="cls-16" d="M35.13,67.9a.92.92,0,1,1-.91-.92A.92.92,0,0,1,35.13,67.9Z"/><path class="cls-16" d="M38.37,67.9a.92.92,0,1,1-.91-.92A.92.92,0,0,1,38.37,67.9Z"/><path class="cls-16" d="M28.65,62.49a.92.92,0,1,1-.92-.92A.92.92,0,0,1,28.65,62.49Z"/><path class="cls-16" d="M12.78,110.88a.92.92,0,1,1-.92-.91A.92.92,0,0,1,12.78,110.88Z"/><path class="cls-16" d="M16,110.88a.92.92,0,1,1-.92-.91A.92.92,0,0,1,16,110.88Z"/><path class="cls-16" d="M19.26,110.88a.92.92,0,1,1-.92-.91A.92.92,0,0,1,19.26,110.88Z"/><path class="cls-16" d="M22.5,110.88a.92.92,0,1,1-.91-.91A.92.92,0,0,1,22.5,110.88Z"/><path class="cls-16" d="M25.74,110.88a.92.92,0,1,1-.91-.91A.92.92,0,0,1,25.74,110.88Z"/><path class="cls-16" d="M12.78,105.47a.92.92,0,1,1-.92-.92A.92.92,0,0,1,12.78,105.47Z"/><path class="cls-16" d="M16,105.47a.92.92,0,1,1-.92-.92A.92.92,0,0,1,16,105.47Z"/><path class="cls-16" d="M19.26,105.47a.92.92,0,1,1-.92-.92A.92.92,0,0,1,19.26,105.47Z"/><path class="cls-16" d="M22.5,105.47a.92.92,0,1,1-.91-.92A.91.91,0,0,1,22.5,105.47Z"/><path class="cls-16" d="M25.74,105.47a.92.92,0,1,1-.91-.92A.91.91,0,0,1,25.74,105.47Z"/><path class="cls-16" d="M12.78,100.05a.92.92,0,1,1-.92-.91A.92.92,0,0,1,12.78,100.05Z"/><path class="cls-16" d="M16,100.05a.92.92,0,1,1-.92-.91A.92.92,0,0,1,16,100.05Z"/><path class="cls-16" d="M19.26,100.05a.92.92,0,1,1-.92-.91A.92.92,0,0,1,19.26,100.05Z"/><path class="cls-16" d="M22.5,100.05a.92.92,0,1,1-.91-.91A.92.92,0,0,1,22.5,100.05Z"/><path class="cls-16" d="M25.74,100.05a.92.92,0,1,1-.91-.91A.92.92,0,0,1,25.74,100.05Z"/><path class="cls-16" d="M12.78,94.64a.92.92,0,1,1-.92-.92A.92.92,0,0,1,12.78,94.64Z"/><path class="cls-16" d="M16,94.64a.92.92,0,1,1-.92-.92A.92.92,0,0,1,16,94.64Z"/><path class="cls-16" d="M19.26,94.64a.92.92,0,1,1-.92-.92A.92.92,0,0,1,19.26,94.64Z"/><path class="cls-16" d="M22.5,94.64a.92.92,0,1,1-.91-.92A.92.92,0,0,1,22.5,94.64Z"/><path class="cls-16" d="M25.74,94.64a.92.92,0,1,1-.91-.92A.92.92,0,0,1,25.74,94.64Z"/><path class="cls-16" d="M31.89,62.49a.92.92,0,1,1-.91-.92A.91.91,0,0,1,31.89,62.49Z"/><path class="cls-16" d="M35.13,62.49a.92.92,0,1,1-.91-.92A.91.91,0,0,1,35.13,62.49Z"/><path class="cls-16" d="M38.37,62.49a.92.92,0,1,1-.91-.92A.91.91,0,0,1,38.37,62.49Z"/></g><g class="cls-28"><path class="cls-29" d="M47,44a2.27,2.27,0,1,1-2.27-2.27A2.27,2.27,0,0,1,47,44Z"/><path class="cls-29" d="M55.1,44a2.28,2.28,0,1,1-2.27-2.27A2.28,2.28,0,0,1,55.1,44Z"/><path class="cls-29" d="M63.15,44a2.27,2.27,0,1,1-2.27-2.27A2.28,2.28,0,0,1,63.15,44Z"/><path class="cls-29" d="M71.21,44a2.28,2.28,0,1,1-2.28-2.27A2.28,2.28,0,0,1,71.21,44Z"/><path class="cls-29" d="M47,30.52a2.27,2.27,0,1,1-2.27-2.28A2.27,2.27,0,0,1,47,30.52Z"/><path class="cls-29" d="M55.1,30.52a2.28,2.28,0,1,1-2.27-2.28A2.28,2.28,0,0,1,55.1,30.52Z"/><path class="cls-29" d="M63.15,30.52a2.27,2.27,0,1,1-2.27-2.28A2.28,2.28,0,0,1,63.15,30.52Z"/><path class="cls-29" d="M71.21,30.52a2.28,2.28,0,1,1-2.28-2.28A2.28,2.28,0,0,1,71.21,30.52Z"/><path class="cls-29" d="M47,17.06a2.27,2.27,0,1,1-2.27-2.27A2.27,2.27,0,0,1,47,17.06Z"/><path class="cls-29" d="M55.1,17.06a2.28,2.28,0,1,1-2.27-2.27A2.28,2.28,0,0,1,55.1,17.06Z"/><path class="cls-29" d="M63.15,17.06a2.27,2.27,0,1,1-2.27-2.27A2.28,2.28,0,0,1,63.15,17.06Z"/><path class="cls-29" d="M71.21,17.06a2.28,2.28,0,1,1-2.28-2.27A2.28,2.28,0,0,1,71.21,17.06Z"/><path class="cls-29" d="M7.6,123.88a2.27,2.27,0,1,1-2.27-2.28A2.27,2.27,0,0,1,7.6,123.88Z"/><path class="cls-29" d="M15.65,123.88a2.27,2.27,0,1,1-2.27-2.28A2.27,2.27,0,0,1,15.65,123.88Z"/><path class="cls-29" d="M23.71,123.88a2.28,2.28,0,1,1-2.27-2.28A2.27,2.27,0,0,1,23.71,123.88Z"/><path class="cls-29" d="M31.76,123.88a2.27,2.27,0,1,1-2.27-2.28A2.27,2.27,0,0,1,31.76,123.88Z"/><path class="cls-29" d="M39.82,123.88a2.28,2.28,0,1,1-2.27-2.28A2.27,2.27,0,0,1,39.82,123.88Z"/><path class="cls-29" d="M7.6,110.42a2.27,2.27,0,1,1-2.27-2.27A2.28,2.28,0,0,1,7.6,110.42Z"/><path class="cls-29" d="M15.65,110.42a2.27,2.27,0,1,1-2.27-2.27A2.27,2.27,0,0,1,15.65,110.42Z"/><path class="cls-29" d="M23.71,110.42a2.28,2.28,0,1,1-2.27-2.27A2.28,2.28,0,0,1,23.71,110.42Z"/><path class="cls-29" d="M31.76,110.42a2.27,2.27,0,1,1-2.27-2.27A2.27,2.27,0,0,1,31.76,110.42Z"/><path class="cls-29" d="M39.82,110.42a2.28,2.28,0,1,1-2.27-2.27A2.28,2.28,0,0,1,39.82,110.42Z"/><path class="cls-29" d="M7.6,97a2.27,2.27,0,1,1-2.27-2.28A2.27,2.27,0,0,1,7.6,97Z"/><path class="cls-29" d="M15.65,97a2.27,2.27,0,1,1-2.27-2.28A2.27,2.27,0,0,1,15.65,97Z"/><path class="cls-29" d="M23.71,97a2.28,2.28,0,1,1-2.27-2.28A2.27,2.27,0,0,1,23.71,97Z"/><path class="cls-29" d="M31.76,97a2.27,2.27,0,1,1-2.27-2.28A2.27,2.27,0,0,1,31.76,97Z"/><path class="cls-29" d="M39.82,97a2.28,2.28,0,1,1-2.27-2.28A2.27,2.27,0,0,1,39.82,97Z"/><path class="cls-29" d="M7.6,83.51a2.27,2.27,0,1,1-2.27-2.27A2.28,2.28,0,0,1,7.6,83.51Z"/><path class="cls-29" d="M15.65,83.51a2.27,2.27,0,1,1-2.27-2.27A2.27,2.27,0,0,1,15.65,83.51Z"/><path class="cls-29" d="M23.71,83.51a2.28,2.28,0,1,1-2.27-2.27A2.28,2.28,0,0,1,23.71,83.51Z"/><path class="cls-29" d="M31.76,83.51a2.27,2.27,0,1,1-2.27-2.27A2.27,2.27,0,0,1,31.76,83.51Z"/><path class="cls-29" d="M39.82,83.51a2.28,2.28,0,1,1-2.27-2.27A2.28,2.28,0,0,1,39.82,83.51Z"/></g><polygon class="cls-30" points="0.55 158.53 0.55 157.53 41.28 157.53 41.28 91.7 0 71.52 0.44 70.62 42.28 91.08 42.28 158.53 0.55 158.53 0.55 158.53"/><polygon class="cls-24" points="0.55 131.54 0.55 130.54 49.93 130.54 49.93 65.38 11.69 47.06 11.69 7.92 42.4 24.82 72.89 0.37 73.52 1.15 42.5 26.02 12.69 9.6 12.69 46.43 50.93 64.75 50.93 131.54 0.55 131.54 0.55 131.54"/><g class="cls-31"><path class="cls-23" d="M176.79,119.46A36.89,36.89,0,0,0,225,154.67V147a29.82,29.82,0,1,1,0-55.15V84.25a36.92,36.92,0,0,0-48.21,35.21Z"/></g><path class="cls-32" d="M192.33,119.46A22.69,22.69,0,0,0,225,139.89v-5.46a17.78,17.78,0,0,1-10,3,18,18,0,0,1-16.6-24.86l-4.34-1.92A22.92,22.92,0,0,0,192.33,119.46Zm32.67-15V99a22.67,22.67,0,0,0-25.26,3.62L203.1,106a17.9,17.9,0,0,1,21.9-1.53Z"/><polygon class="cls-24" points="0.55 18.79 1.55 17.06 32.47 35.01 32.47 8.43 85.67 8.43 85.68 0.76 87.67 0.76 87.67 10.43 34.47 10.43 34.47 38.48 0.55 18.79 0.55 18.79"/><text class="cls-33" transform="translate(145.71 187.64) rotate(-19.24)">F<tspan class="cls-34" x="2.15" y="0">r</tspan><tspan class="cls-35" x="3.63" y="0">eepik</tspan></text><text class="cls-36" transform="translate(103.67 190.48)">mac<tspan class="cls-37" x="8.82" y="0">r</tspan><tspan class="cls-38" x="10.4" y="0">o</tspan><tspan class="cls-37" x="13.12" y="0">v</tspan><tspan x="15.47" y="0">e</tspan><tspan class="cls-39" x="17.98" y="0">c</tspan><tspan class="cls-40" x="20.28" y="0">t</tspan><tspan x="21.9" y="0">or</tspan></text><text class="cls-41" transform="matrix(0.93, 0.36, -0.36, 0.93, 68.92, 180.68)"><tspan class="cls-42">D</tspan><tspan x="3.13" y="0">esi</tspan><tspan class="cls-43" x="8.41" y="0">g</tspan><tspan x="10.99" y="0">ned </tspan><tspan class="cls-44" x="19.54" y="0">b</tspan><tspan x="22.16" y="0">y</tspan></text></g></g></g></svg>