<svg xmlns="http://www.w3.org/2000/svg" xmlns:xlink="http://www.w3.org/1999/xlink" viewBox="0 0 351.95 290"><defs><style>.cls-1{fill:none;}.cls-2{isolation:isolate;}.cls-3{clip-path:url(#clip-path);}.cls-4{fill:#91468d;}.cls-5{fill:#7c397e;}.cls-6{fill:#ffdbc0;}.cls-7{fill:#ffca9d;}.cls-8{fill:#efab7d;}.cls-9{fill:#d88556;}.cls-10{fill:#f9e6ff;}.cls-11{fill:#2ca7dd;}.cls-12{fill:#38c2f2;}.cls-13{fill:#48d8ff;}.cls-14{clip-path:url(#clip-path-2);}.cls-15,.cls-23{opacity:0.8;}.cls-15,.cls-24,.cls-48,.cls-54{mix-blend-mode:multiply;}.cls-16{fill:#50cffa;}.cls-17{fill:#43c2ed;}.cls-18{fill:#39b8e3;}.cls-19{fill:#29a8d3;}.cls-20{fill:#f5d0ff;}.cls-21{fill:#5d6bd0;}.cls-22{fill:#5354b9;}.cls-23{fill:#ffd2f5;}.cls-100,.cls-103,.cls-23,.cls-45,.cls-50,.cls-55,.cls-56,.cls-70,.cls-71{mix-blend-mode:screen;}.cls-24{fill:#d8a0ce;}.cls-100,.cls-103,.cls-24,.cls-45{opacity:0.2;}.cls-25{fill:#cca09e;}.cls-26{fill:#edc7c4;}.cls-27{fill:#ffe4eb;}.cls-28{fill:#ffac33;}.cls-29{fill:#f4821c;}.cls-30{fill:#ffd44d;}.cls-31{fill:#697703;}.cls-32{fill:#7d8d04;}.cls-33{fill:#95a405;}.cls-34{fill:#b3bb0c;}.cls-35{fill:#f2d0ce;}.cls-36{fill:#d2a9a5;}.cls-37{fill:#bf9694;}.cls-38{fill:#2e2d38;}.cls-39{fill:#33323d;}.cls-40,.cls-45{fill:#f7dbda;}.cls-41{fill:#cc2033;}.cls-42{fill:#de2736;}.cls-43{fill:#ffc0ba;}.cls-44{fill:#3d3c47;}.cls-46{fill:#973315;}.cls-47,.cls-48{fill:#2b2923;}.cls-48,.cls-54,.cls-60,.cls-63,.cls-67,.cls-70,.cls-71{opacity:0.3;}.cls-49{fill:#49453e;}.cls-103,.cls-50,.cls-51{fill:#322f28;}.cls-50,.cls-55{opacity:0.4;}.cls-52{clip-path:url(#clip-path-3);}.cls-53{fill:#55beff;}.cls-54{fill:url(#Áåçûìÿííûé_ãðàäèåíò_7);}.cls-55,.cls-56,.cls-70,.cls-72{fill:#fff;}.cls-56{opacity:0.5;}.cls-57{fill:#f69947;}.cls-58{fill:#ffa758;}.cls-59{fill:#e58537;}.cls-60,.cls-63,.cls-67{mix-blend-mode:overlay;}.cls-60{fill:url(#Áåçûìÿííûé_ãðàäèåíò_6);}.cls-61{fill:#aa5527;}.cls-62{fill:#99471e;}.cls-63{fill:url(#Áåçûìÿííûé_ãðàäèåíò_17);}.cls-64{fill:#f9b17a;}.cls-65{fill:#ffd190;}.cls-66{fill:#b46746;}.cls-67{fill:url(#Áåçûìÿííûé_ãðàäèåíò_17-2);}.cls-68{fill:#ffbe80;}.cls-69{fill:#feac6e;}.cls-73{fill:#1e91d1;}.cls-74{fill:#b8cc27;}.cls-75{fill:#1470a8;}.cls-76{fill:#d12f3b;}.cls-77{fill:#ffb476;}.cls-78{fill:#827d79;}.cls-79{fill:#a39f9b;}.cls-80{fill:#b7b5b3;}.cls-81{fill:#ededed;}.cls-82{fill:#d1d1d1;}.cls-83{fill:#c26a38;}.cls-84{fill:#a6421b;}.cls-85{fill:#ad4d22;}.cls-86{fill:#d17947;}.cls-87{fill:#b5512a;}.cls-88{fill:#f58852;}.cls-89{fill:#2d313d;}.cls-90{fill:#ed9558;}.cls-91{fill:#363942;}.cls-92{fill:#d1652f;}.cls-93{fill:#822d0f;}.cls-94{fill:#003f86;}.cls-95{fill:#0e4f9e;}.cls-96{fill:#f4e4ec;}.cls-97{fill:#933914;}.cls-98{fill:#eacce4;}.cls-99{fill:#423e36;}.cls-100{fill:#35322b;}.cls-101{fill:#91a4ce;}.cls-102{fill:#606f96;}.cls-104{fill:#ffcab1;}.cls-105{fill:#f4a08c;}.cls-106{fill:#ffb99e;}.cls-107{fill:#ffddca;}.cls-108{font-size:15px;font-family:QuicksandBook-Regular, Quicksand;}.cls-109{letter-spacing:-0.03em;}.cls-110{letter-spacing:0em;}.cls-111{letter-spacing:-0.03em;}.cls-112{letter-spacing:-0.02em;}.cls-113{letter-spacing:-0.02em;}.cls-114{letter-spacing:-0.05em;}.cls-115{letter-spacing:0em;}.cls-116{letter-spacing:-0.03em;}</style><clipPath id="clip-path"><rect class="cls-1" width="319.33" height="290"/></clipPath><clipPath id="clip-path-2"><rect class="cls-1" x="263.1" y="25.91" width="81.8" height="159.18"/></clipPath><clipPath id="clip-path-3"><rect class="cls-1" x="105.18" y="117.26" width="59.24" height="45.48"/></clipPath><linearGradient id="Áåçûìÿííûé_ãðàäèåíò_7" x1="134.8" y1="137.08" x2="134.8" y2="119.94" gradientUnits="userSpaceOnUse"><stop offset="0" stop-color="#fff"/><stop offset="0.09" stop-color="#f7f7f9"/><stop offset="0.22" stop-color="#e1e0ea"/><stop offset="0.39" stop-color="#bdbbd1"/><stop offset="0.58" stop-color="#8b87af"/><stop offset="0.8" stop-color="#4b4583"/><stop offset="1" stop-color="#080055"/></linearGradient><linearGradient id="Áåçûìÿííûé_ãðàäèåíò_6" x1="135.28" y1="147.76" x2="133.49" y2="164.93" gradientUnits="userSpaceOnUse"><stop offset="0" stop-color="#ffcc94"/><stop offset="1" stop-color="#1c0555"/></linearGradient><linearGradient id="Áåçûìÿííûé_ãðàäèåíò_17" x1="109.53" y1="134.3" x2="141.16" y2="149.91" gradientUnits="userSpaceOnUse"><stop offset="0" stop-color="#ffc794"/><stop offset="1" stop-color="#080055"/></linearGradient><linearGradient id="Áåçûìÿííûé_ãðàäèåíò_17-2" x1="162.45" y1="143.28" x2="146.62" y2="145.48" xlink:href="#Áåçûìÿííûé_ãðàäèåíò_17"/></defs><g class="cls-2"><g id="Capa_2" data-name="Capa 2"><g id="_2" data-name="2"><g class="cls-3"><rect class="cls-4" width="319.83" height="284.84"/><path class="cls-5" d="M319.83,135.08V255.59H0V0C1.29,304.33,298.7,269.67,319.83,135.08Z"/><path class="cls-5" d="M91.24,163.89H117.6v6.55c-6.09.25-8.65,1.36-8.65,1.36v1.84h22.59V171.8s-2.68-1.08-8.65-1.35v-6.56H153V116.12H89.35v47.77h1.89Z"/><path class="cls-5" d="M107.87,173.65H61.19v5.9h5.5v86.1h3.09v-3.57h35.1v3.57h3.68v-3.57h22v3.57h3.09V185.74H180v79.91h3.09V185.74h34v79.91h3.08v-86.1h6.2v-5.9Zm22.72,28.61h-22V185.74h22Z"/><path class="cls-5" d="M89.85,160H80.41v2.44a5.29,5.29,0,0,0-.56-.05c-2.57,0-3.95,1.93-4,4.34v.15a5.18,5.18,0,0,0,.58,2.5,3.73,3.73,0,0,0,1,1.22,3.4,3.4,0,0,0,.69.41,4.11,4.11,0,0,0,1.73.35h0a3.53,3.53,0,0,0,.56,0v2.44H90.63V160Zm-12.69,6.53c0-.13,0-.26,0-.39a1.6,1.6,0,0,1,0-.21l.09-.36.09-.21c0-.1.09-.21.14-.3a2.43,2.43,0,0,1,.14-.2,1.44,1.44,0,0,1,.18-.25,1.53,1.53,0,0,1,.18-.18,1.8,1.8,0,0,1,.21-.19,2.26,2.26,0,0,1,.26-.16,1.55,1.55,0,0,1,.22-.12,2.17,2.17,0,0,1,.36-.12,1.52,1.52,0,0,1,.2-.06,3.3,3.3,0,0,1,.64-.07,3.26,3.26,0,0,1,.45.05V170A3.26,3.26,0,0,1,80,170c-1.85,0-2.83-1.42-2.83-3.16C77.13,166.72,77.15,166.6,77.16,166.49Z"/><rect class="cls-6" y="252" width="319.83" height="6.54"/><rect class="cls-7" y="256.12" width="319.83" height="33.88"/><path class="cls-8" d="M319.83,283.18S262.77,280,163.62,280,0,283.18,0,283.18V256.12H319.83Z"/><polygon class="cls-9" points="320.64 258.56 319.83 256.12 0 256.12 0.81 258.56 320.64 258.56"/><rect class="cls-5" x="260.88" y="33.48" width="86.24" height="165.57"/><rect class="cls-10" x="260.88" y="22.72" width="86.24" height="165.57"/><rect class="cls-11" x="263.1" y="25.91" width="81.8" height="159.18"/><polygon class="cls-12" points="337.37 178.18 270.63 178.18 268.3 32.84 339.7 32.84 337.37 178.18"/><path class="cls-13" d="M271.15,35l1.08,59.53s40.88-20,55.59-60Z"/><g class="cls-14"><g class="cls-15"><polygon class="cls-16" points="261.69 170.53 261.14 150.65 271.98 149.88 274.01 176.24 261.69 170.53"/><polygon class="cls-17" points="247.79 185.17 247.79 176.87 252.04 176.87 251.24 168.78 255.75 167.62 255.75 181.89 258.14 181.89 257.61 170.7 266.91 170.32 266.11 159.13 272.22 158.75 271.42 129.44 282.57 127.51 283.1 168 287.35 168 286.82 100.13 290.01 99.36 290.01 95.89 292.4 95.5 292.13 76.61 293.06 95.31 295.45 95.5 295.32 99.55 297.84 100.13 297.84 119.41 306.07 119.41 306.47 135.8 310.85 135.8 310.85 108.04 323.2 108.04 323.6 156.24 334.22 156.24 334.08 136.96 338.73 136.96 338.82 153 342.45 152.96 342.85 136.38 348.16 136.57 348.16 168.2 351.48 168.78 351.01 185.12 247.79 185.17"/><polygon class="cls-18" points="291.77 184.82 291.41 138.82 305.22 137.02 305.34 185.09 291.77 184.82"/><polygon class="cls-18" points="311.92 184.03 311.95 150.39 323.55 150.9 323.45 183.51 311.92 184.03"/><polygon class="cls-19" points="275.3 185.17 274.95 168.13 295.31 168.13 295.66 185.17 275.3 185.17"/><polygon class="cls-19" points="299.02 185.17 298.85 151.16 302.56 150.14 302.92 140.37 303.45 150.39 307.17 151.94 306.99 185.17 299.02 185.17"/><polygon class="cls-19" points="310.18 185.17 310 172.76 314.25 173.53 314.25 182.79 318.32 182.27 318.32 168.39 333.37 169.16 333.37 185.17 310.18 185.17"/><rect class="cls-17" x="310.21" y="106.94" width="13.54" height="1.78"/><rect class="cls-17" x="319.05" y="103.25" width="1.41" height="4.37"/><rect class="cls-17" x="316.61" y="105.03" width="1.13" height="2.73"/><rect class="cls-17" x="297.04" y="118.68" width="10.34" height="1.1"/><rect class="cls-17" x="299.21" y="114.86" width="0.28" height="4.23"/><rect class="cls-17" x="300.71" y="111.04" width="0.38" height="8.2"/><rect class="cls-17" x="305.51" y="132.21" width="5.92" height="0.41"/><rect class="cls-17" x="307.06" y="132.41" width="0.28" height="3.89"/><rect class="cls-17" x="307.79" y="132.41" width="0.28" height="3.89"/><rect class="cls-17" x="308.52" y="132.41" width="0.28" height="3.89"/><rect class="cls-17" x="309.25" y="132.41" width="0.28" height="3.89"/><rect class="cls-17" x="309.98" y="132.41" width="0.28" height="3.89"/><polygon class="cls-17" points="279.41 128.52 279.27 126.47 279.74 126.27 279.51 122.17 279.79 121.96 280.07 126.2 280.73 126.13 280.87 128.52 279.41 128.52"/><polygon class="cls-17" points="272.78 129.75 272.78 127.56 279.65 127.56 279.74 128.52 272.78 129.75"/><rect class="cls-17" x="265.26" y="158.5" width="7.48" height="0.89"/><rect class="cls-19" x="274.36" y="167.72" width="21.44" height="0.92"/><rect class="cls-19" x="277.6" y="166.18" width="3.24" height="1.84"/><rect class="cls-19" x="274.22" y="183.33" width="3.24" height="1.84"/><rect class="cls-19" x="286.14" y="166.18" width="3.24" height="1.84"/><rect class="cls-19" x="298.46" y="157.89" width="9.17" height="0.61"/><rect class="cls-19" x="298.36" y="164.72" width="9.17" height="0.61"/><rect class="cls-19" x="298.31" y="171.89" width="9.17" height="0.61"/><rect class="cls-19" x="298.22" y="178.99" width="9.17" height="0.61"/><rect class="cls-19" x="311.15" y="168.95" width="0.24" height="4.51"/><rect class="cls-19" x="312" y="171.82" width="1.41" height="1.91"/><rect class="cls-19" x="319.94" y="167.45" width="3.53" height="2.05"/><rect class="cls-19" x="324.6" y="164.51" width="5.31" height="5.4"/><rect class="cls-17" x="281.72" y="144.5" width="6.77" height="1.64"/><rect class="cls-17" x="281.72" y="151.19" width="6.77" height="5.74"/><rect class="cls-17" x="259.99" y="168.54" width="4.7" height="3.55"/><rect class="cls-17" x="262.91" y="164.44" width="0.47" height="4.78"/><rect class="cls-17" x="267.42" y="156.66" width="1.97" height="2.32"/><rect class="cls-18" x="292.81" y="135.76" width="10.91" height="3.14"/><rect class="cls-18" x="295.16" y="131.52" width="0.28" height="4.92"/><rect class="cls-18" x="297.14" y="134.39" width="4.8" height="2.05"/><rect class="cls-18" x="314.54" y="146.41" width="0.38" height="5.05"/><rect class="cls-18" x="313.76" y="148.51" width="0.19" height="5.05"/><rect class="cls-18" x="315.61" y="148.51" width="0.19" height="5.05"/><rect class="cls-18" x="317.83" y="148.51" width="0.19" height="5.05"/><rect class="cls-18" x="318.9" y="148.51" width="0.19" height="5.05"/><rect class="cls-18" x="319.96" y="148.51" width="0.19" height="5.05"/><rect class="cls-18" x="321.23" y="148.51" width="0.19" height="5.05"/><rect class="cls-18" x="316.7" y="143.27" width="0.38" height="8.2"/><rect class="cls-18" x="313.41" y="148.32" width="8.65" height="0.41"/><rect class="cls-17" x="286.32" y="105.03" width="11.94" height="1.09"/></g></g><rect class="cls-10" x="302.74" y="22.72" width="2.53" height="165.57"/><rect class="cls-10" x="301.84" y="21.32" width="3.73" height="84.79" transform="translate(367.42 -239.99) rotate(90)"/><rect class="cls-10" x="301.84" y="63.11" width="3.73" height="84.79" transform="translate(409.21 -198.2) rotate(90)"/><rect class="cls-10" x="301.84" y="104.9" width="3.73" height="84.79" transform="translate(451 -156.4) rotate(90)"/><rect class="cls-20" x="256.05" y="188.01" width="95.9" height="6.14"/><rect class="cls-21" x="301.34" width="42.53" height="254"/><path class="cls-22" d="M316.61,0h-5.33c1.52,81.13,1.52,172,0,254h5.33C315.08,172.42,315.09,81.58,316.61,0Z"/><path class="cls-22" d="M333.92,0H328.6c1.52,81.13,1.52,172,0,254h5.32C332.39,172.42,332.41,81.58,333.92,0Z"/><rect class="cls-23" x="288.4" width="13.61" height="254"/><path class="cls-24" d="M297,0h-3.52c1.27,81.62,1.27,172.46,0,254H297C295.81,171.78,295.82,80.94,297,0Z"/><rect class="cls-21" x="203.92" width="43.18" height="254" transform="translate(451.01 254) rotate(180)"/><path class="cls-22" d="M231.59,0H237c-1.55,81.13-1.55,172,0,254h-5.41C233.15,172.42,233.13,81.58,231.59,0Z"/><path class="cls-22" d="M214,0h5.41c-1.55,81.13-1.55,172,0,254H214C215.56,172.42,215.55,81.58,214,0Z"/><rect class="cls-23" x="246.22" width="27.99" height="254" transform="translate(520.44 254) rotate(180)"/><path class="cls-24" d="M266.48,0h3.18c-1.14,81.62-1.14,172.46,0,254h-3.18C267.52,171.78,267.51,80.94,266.48,0Z"/><path class="cls-24" d="M258.92,0h3.18c-1.15,81.62-1.15,172.46,0,254h-3.18C260,171.78,259.94,80.94,258.92,0Z"/><path class="cls-24" d="M251.35,0h3.18c-1.15,81.62-1.15,172.46,0,254h-3.18C252.38,171.78,252.37,80.94,251.35,0Z"/><rect class="cls-5" x="65.84" y="44.25" width="17.74" height="32.23"/><rect class="cls-5" x="18.99" y="76.59" width="136.01" height="23.07"/><rect class="cls-25" x="18.99" y="76.59" width="53.5" height="7.59"/><rect class="cls-26" x="72.5" y="76.59" width="102.83" height="7.59"/><rect class="cls-27" x="72.5" y="76.59" width="102.83" height="1.74"/><path class="cls-28" d="M128.66,63.89a.49.49,0,0,1,.15-.54c.06-.05,5.52-4.45,12.81,0a.48.48,0,0,1-.25.9H129.12A.48.48,0,0,1,128.66,63.89Z"/><path class="cls-28" d="M137.25,62.56l-.14,0a9.94,9.94,0,0,0-3.84-.06.5.5,0,0,1-.46-.16.51.51,0,0,1-.08-.49c1.42-3.88,1.64-6.17-2.33-11.78a.47.47,0,0,1,0-.51.56.56,0,0,1,.82-.13c2.56,2.49,5.52,2.48,8.09,0a.49.49,0,0,1,.66,0,.48.48,0,0,1,.08.65c-3.49,4.94-4.24,8.68-2.34,11.76a.51.51,0,0,1,0,.52.49.49,0,0,1-.41.23Z"/><path class="cls-28" d="M143,44.75c1.15-1.49,6.37-2.64,9.62-6.92s2.51-11.45-.44-11.6c-2.55-.13-3.91,2.71-3.85,5.3s1.2,4.82,1,5-2.49-1.2-2.56-4.71,1.58-7.84,5.79-7.2c4.53.7,4.79,9.73,1.52,13.93-5.16,6.64-10.32,6-11.32,8.94-.54,1.58.44,2.18,1.13,1.92s.84-1.21,1.08-1.21c.53,0,.44,2.93-2,2.93-2,0-2.31-2.58-2.31-2.58Z"/><path class="cls-28" d="M127.45,44.75c-1.15-1.49-6.37-2.64-9.62-6.92s-2.51-11.45.44-11.6c2.55-.13,3.91,2.71,3.85,5.3s-1.2,4.82-1,5,2.49-1.2,2.56-4.71-1.58-7.84-5.79-7.2c-4.53.7-4.78,9.73-1.52,13.93,5.17,6.64,10.32,6,11.32,8.94.54,1.58-.44,2.18-1.13,1.92s-.83-1.21-1.08-1.21c-.53,0-.44,2.93,2,2.93,2,0,2.31-2.58,2.31-2.58Z"/><path class="cls-28" d="M123.27,28.16a.48.48,0,0,1,.49-.48h23a.48.48,0,0,1,.49.48c0,8.18-4.23,24.1-12,24.1S123.27,36.34,123.27,28.16Z"/><path class="cls-29" d="M123.76,27.68h23a.48.48,0,0,1,.49.48c0,.16,0,.32,0,.48H129.17c-.16,1.85,2.7,32.92,14,16.83-2,3.92-4.62,6.79-7.92,6.79-7.76,0-12-15.92-12-24.1A.48.48,0,0,1,123.76,27.68Z"/><path class="cls-29" d="M129,63.24a10.44,10.44,0,0,1,3.85-1.65c1.35-3.73,1.47-6.05-2.41-11.54a.47.47,0,0,1,0-.51l4.1,2.21A33.86,33.86,0,0,1,135,57.1a34.61,34.61,0,0,1-.31,4.62l-2.26,1.52H129Z"/><path class="cls-29" d="M131.23,49.41c2.56,2.49,5.52,2.48,8.09,0a.49.49,0,0,1,.66,0,.48.48,0,0,1,.08.65A25.15,25.15,0,0,0,138,53.46h0a3.43,3.43,0,0,0-2.52-1.2,5,5,0,0,0-2.93,1.26h0a26.21,26.21,0,0,0-2.13-3.47.47.47,0,0,1,0-.51A.56.56,0,0,1,131.23,49.41Z"/><path class="cls-29" d="M125.31,48.48s.83,2.23,2.37,1.78a1.83,1.83,0,0,0,1.47-1.8l.67.18c0,.38-.44,2.52-2.3,2.52A2.23,2.23,0,0,1,125.31,48.48Z"/><path class="cls-29" d="M116.41,38.58a11.56,11.56,0,0,1-2.09-5.52h0c1.9,7.14,8.69,10.32,10.48,11.25a5.81,5.81,0,0,1,2.69,2.7C126.08,44.65,121.25,44.8,116.41,38.58Z"/><path class="cls-29" d="M127.84,48.73h0v0S127.85,48.71,127.84,48.73Z"/><path class="cls-29" d="M121.16,36.56c-.24-.21.9-2.45,1-5s-1.3-5.43-3.85-5.3a2,2,0,0,0-1.4.74c.71-.89,2.2-2.11,4.24-.08,2.36,2.37,1.23,6.78,1.64,6.89.25.06.66-.78.94-1.43C123.43,35.49,121.39,36.76,121.16,36.56Z"/><path class="cls-29" d="M116.43,27.67h0l.06-.1A.37.37,0,0,0,116.43,27.67Z"/><path class="cls-29" d="M116.83,27a4,4,0,0,0-.28.4A4.37,4.37,0,0,1,116.83,27Z"/><path class="cls-29" d="M142.63,50.11a2.13,2.13,0,0,0,2.6-1.37A2.23,2.23,0,0,1,143,51.16c-2,0-2.31-2.58-2.31-2.58l1.52-1.78S140.61,49.43,142.63,50.11Z"/><path class="cls-29" d="M153.51,26.87l-.11-.1v0A.71.71,0,0,1,153.51,26.87Z"/><path class="cls-29" d="M143.85,44.07c1.91-1.24,6.06-2.62,8.81-6.24,2.38-3.14,2.61-7.82,1.41-10.16a9,9,0,0,1,.89,6.77c-1.13,4.93-6.89,8-9.1,9a8.31,8.31,0,0,0-2.72,2.09C143.39,45.09,143.62,44.59,143.85,44.07Z"/><path class="cls-29" d="M147.27,28.4a6.25,6.25,0,0,1,1.67-2.75,11.08,11.08,0,0,0-1.43,7.2c.52,2.34,1.3,2.82,1.7,2.92.13.43.2.72.12.79s-2-.88-2.44-3.53A36.88,36.88,0,0,0,147.27,28.4Z"/><path class="cls-30" d="M146,29.46H132.87s1.38,16.85,6.06,16.85S146,29.46,146,29.46Z"/><path class="cls-30" d="M139.38,62.75,135,62.33S136.36,61.1,139.38,62.75Z"/><path class="cls-30" d="M137.39,53.63a2.65,2.65,0,0,0-1.78-.81v8.62a8,8,0,0,1,1.57.12s-.82-.92-.82-3.74A7.29,7.29,0,0,1,137.39,53.63Z"/><path class="cls-30" d="M155.12,27.58c-.34.34-.78-1.34-2.54-1.92-1.14-.38-2,0-2.22-.14s.78-.92,2.46-.51S155.35,27.35,155.12,27.58Z"/><path class="cls-30" d="M122.24,27.58c-.35.34-.79-1.34-2.55-1.92-1.14-.38-2,0-2.22-.14s.78-.92,2.46-.51S122.46,27.35,122.24,27.58Z"/><polygon class="cls-29" points="141.03 63.31 130.09 63.31 131.32 62.4 141.03 63.31"/><path class="cls-29" d="M139.16,73.46h-12c-.2,0-.37-.22-.37-.49V63.73c0-.27.17-.49.37-.49h12c.2,0,.37.22.37.49V73C139.53,73.24,139.36,73.46,139.16,73.46Z"/><path class="cls-29" d="M140.18,76.48H126.1c-.2,0-.37-.22-.37-.49V73c0-.27.17-.49.37-.49h14.08c.21,0,.37.22.37.49v3C140.55,76.26,140.39,76.48,140.18,76.48Z"/><path class="cls-28" d="M143.37,73.46h-12c-.2,0-.37-.22-.37-.49V63.73c0-.27.17-.49.37-.49h12c.2,0,.37.22.37.49V73C143.74,73.24,143.57,73.46,143.37,73.46Z"/><path class="cls-28" d="M144.39,76.48H130.31c-.2,0-.37-.22-.37-.49V73c0-.27.17-.49.37-.49h14.08c.2,0,.37.22.37.49v3C144.76,76.26,144.59,76.48,144.39,76.48Z"/><path class="cls-29" d="M142.91,63.24v9.28h1.26v3.27H129.94V76c0,.27.17.49.37.49h14.08c.2,0,.37-.22.37-.49V73c0-.27-.17-.49-.37-.49h-.65V63.73c0-.27-.17-.49-.37-.49h-.46Z"/><polygon class="cls-29" points="143.5 72.52 130.96 72.52 130.96 71.92 143.55 71.92 143.5 72.52"/><rect class="cls-30" x="131.64" y="63.98" width="6.83" height="7.45"/><rect class="cls-30" x="130.67" y="73.12" width="8.77" height="2.11"/><rect class="cls-29" x="133.34" y="64.8" width="7.76" height="6.06"/><rect class="cls-27" x="133.77" y="65.31" width="6.91" height="5.03"/><rect class="cls-26" x="134.57" y="66.07" width="5.31" height="0.68"/><rect class="cls-26" x="134.57" y="67.49" width="5.31" height="0.68"/><rect class="cls-26" x="135.59" y="68.91" width="3.26" height="0.68"/><path class="cls-31" d="M40.73,24.19S43,30,38.65,32C38.65,32,35.16,29.78,40.73,24.19Z"/><path class="cls-32" d="M43.14,31.05s2.27,5.78-2.09,7.78C41.05,38.83,37.56,36.64,43.14,31.05Z"/><path class="cls-32" d="M46.49,38.59s.51,6.06-4.31,7.13C42.18,45.72,39.43,42.9,46.49,38.59Z"/><path class="cls-31" d="M46.8,45.2s.42,4.92-3.51,5.79C43.29,51,41.06,48.7,46.8,45.2Z"/><path class="cls-32" d="M33.25,30.74s8,2.39,7.1,7.05C40.35,37.79,35.51,38.85,33.25,30.74Z"/><path class="cls-31" d="M32.7,37.38s8.43.46,9.22,5.14C41.92,42.52,37.64,44.66,32.7,37.38Z"/><path class="cls-32" d="M33.42,43.2s8.42.46,9.21,5.14C42.63,48.34,38.35,50.48,33.42,43.2Z"/><path class="cls-32" d="M38,48.86s6,1.71,5.46,5.23C43.5,54.09,39.88,54.94,38,48.86Z"/><path class="cls-32" d="M43.58,63.16S43.05,37.37,33.22,21c0,0,11.07,15.25,11.43,42.16Z"/><path class="cls-32" d="M30.52,17.61s5.81,2.61,4.5,6.13C35,23.74,31.12,24.1,30.52,17.61Z"/><path class="cls-32" d="M30.5,25.36s6.57.61,7,4.29C37.49,29.65,34,31.2,30.5,25.36Z"/><path class="cls-32" d="M37.9,21.17s1.55,3.91-1.41,5.27C36.49,26.44,34.12,25,37.9,21.17Z"/><path class="cls-32" d="M57.1,39.37S54.28,46.3,49,45.45C49,45.45,47.91,41.18,57.1,39.37Z"/><path class="cls-31" d="M53.57,46.7s-1.17,5.43-5.14,5.42C48.43,52.12,47.05,49.1,53.57,46.7Z"/><path class="cls-32" d="M45.53,34.09s5.93,3.48,4.27,7.68C49.8,41.77,45.66,42,45.53,34.09Z"/><path class="cls-32" d="M44.53,41.7s5.94,3.48,4.28,7.68C48.81,49.38,44.67,49.6,44.53,41.7Z"/><path class="cls-31" d="M48.07,63.16s.29-24.75,7.8-40.47c0,0-8.75,14.64-8.89,40.47Z"/><path class="cls-32" d="M56.63,20.26s.81,4.68-2.37,5.82C54.26,26.08,52.18,24.07,56.63,20.26Z"/><path class="cls-31" d="M52,23.19s3.09,3.74.87,6.18C52.91,29.37,50.06,28.54,52,23.19Z"/><path class="cls-32" d="M48.46,28.43s4.51,3.5,2.65,6.81C51.11,35.24,47.65,35,48.46,28.43Z"/><path class="cls-31" d="M56.8,34.6s-2.75,4.86-6.54,3.79C50.26,38.39,49.84,35.14,56.8,34.6Z"/><path class="cls-32" d="M57.46,28.57s-2.06,4.32-5.37,3.61C52.09,32.18,51.53,29.41,57.46,28.57Z"/><path class="cls-33" d="M49.31,63.16s4-21.83,16.16-35.69c0,0-13.22,12.91-17.23,35.69Z"/><path class="cls-33" d="M46.45,63.16s-.39-27.47-1.18-53.53a483.75,483.75,0,0,0,.36,53.53Z"/><path class="cls-33" d="M39.84,27s6,2.18,5.1,5.79C44.94,32.79,41.08,33.42,39.84,27Z"/><path class="cls-33" d="M40,32.53s6.85,3.44,5,7.65C45,40.18,40.26,40.43,40,32.53Z"/><path class="cls-32" d="M50.54,29.28s-.92,6.84-4.79,6.68C45.75,36,44.28,32.08,50.54,29.28Z"/><path class="cls-33" d="M50.09,38s-.92,6.84-4.79,6.68C45.3,44.65,43.83,40.77,50.09,38Z"/><path class="cls-33" d="M55.42,31.54s5.07,5.36,1.93,7.85C57.35,39.39,53.37,38.25,55.42,31.54Z"/><path class="cls-32" d="M51.8,36.73s5.51,5.05,2.6,7.72C54.4,44.45,50.33,43.55,51.8,36.73Z"/><path class="cls-33" d="M48.08,43.13s6.65,4,4.46,7.11C52.54,50.24,48.33,50.05,48.08,43.13Z"/><path class="cls-32" d="M65.28,38.12s-5,6.08-9.1,4.27C56.18,42.39,56.25,38.66,65.28,38.12Z"/><path class="cls-32" d="M58.21,49.63S54.83,53.79,52,52.55C52,52.55,52,50,58.21,49.63Z"/><path class="cls-33" d="M63.82,44.83s-6.93,4.58-10.23,1.83C53.59,46.66,55,43.11,63.82,44.83Z"/><path class="cls-34" d="M55.77,32.19S58.94,35.54,57,37.1C57,37.1,54.49,36.39,55.77,32.19Z"/><path class="cls-34" d="M52.24,37.65s4.12,3.77,1.95,5.76C54.19,43.41,51.15,42.74,52.24,37.65Z"/><path class="cls-34" d="M48.64,43.87s4.9,3,3.29,5.24C51.93,49.11,48.83,49,48.64,43.87Z"/><path class="cls-34" d="M64.49,38.49s-3.53,4.34-6.5,3C58,41.54,58,38.87,64.49,38.49Z"/><path class="cls-34" d="M58.21,49.63s-2.56,3.14-4.7,2.21C53.51,51.84,53.55,49.91,58.21,49.63Z"/><path class="cls-34" d="M61.9,44.93s-4.42,2.92-6.52,1.17C55.38,46.1,56.28,43.84,61.9,44.93Z"/><path class="cls-34" d="M40.51,27.46s4.21,1.52,3.54,4C44.05,31.48,41.38,31.92,40.51,27.46Z"/><path class="cls-34" d="M40.82,33.37s4.47,2.24,3.26,5C44.08,38.36,41,38.52,40.82,33.37Z"/><path class="cls-34" d="M49.76,30s-.64,4.73-3.32,4.62C46.44,34.64,45.43,32,49.76,30Z"/><path class="cls-34" d="M49.2,38.8s-.62,4.52-3.17,4.41C46,43.21,45.06,40.65,49.2,38.8Z"/><path class="cls-33" d="M41.57,63.16s-4-21.83-16-35.69c0,0,13.13,12.91,17.11,35.69Z"/><path class="cls-33" d="M21.46,21.75s6.4,3.44,4.56,6.4C26,28.15,21.53,27.75,21.46,21.75Z"/><path class="cls-33" d="M28,24.58s3.22,4.39.6,6C28.58,30.6,25.45,29,28,24.58Z"/><path class="cls-32" d="M23.41,29.11s6.14.78,6,3.48C29.4,32.59,25.91,33.54,23.41,29.11Z"/><path class="cls-33" d="M32.64,28.17s2.2,5.58-1.24,6.84C31.4,35,28.42,32.56,32.64,28.17Z"/><path class="cls-33" d="M25.22,34.72s7.12-.18,7.63,2.89C32.85,37.61,29.15,39.28,25.22,34.72Z"/><path class="cls-32" d="M36.79,33.37s.73,6-3,6.59C33.77,40,31.45,37,36.79,33.37Z"/><path class="cls-32" d="M27.88,40.35s7.25-.15,7.75,3C35.63,43.32,31.86,45,27.88,40.35Z"/><path class="cls-33" d="M39.48,39.26S41,45.1,37.36,46.08C37.36,46.08,34.65,43.34,39.48,39.26Z"/><path class="cls-33" d="M31,46s7.91.62,8,4.08C39,50.08,34.62,51.5,31,46Z"/><path class="cls-34" d="M21.83,22S26.3,24.4,25,26.47C25,26.47,21.87,26.19,21.83,22Z"/><path class="cls-34" d="M28.05,25.22s2.35,3.21.43,4.4C28.48,29.62,26.2,28.45,28.05,25.22Z"/><path class="cls-34" d="M23.93,29.4s4.47.56,4.36,2.53C28.29,31.93,25.75,32.62,23.93,29.4Z"/><path class="cls-34" d="M32.51,28.63s1.69,4.31-1,5.28C31.55,33.91,29.26,32,32.51,28.63Z"/><path class="cls-34" d="M26.2,35s5-.13,5.33,2C31.53,37,29,38.19,26.2,35Z"/><path class="cls-34" d="M36.46,33.89s.51,4.15-2.1,4.6C34.36,38.49,32.73,36.42,36.46,33.89Z"/><path class="cls-34" d="M28.91,40.67s4.33-.15,4.66,1.71C33.57,42.38,31.34,43.42,28.91,40.67Z"/><path class="cls-34" d="M39.29,39.84s1,4-1.45,4.63C37.84,44.47,36,42.61,39.29,39.84Z"/><path class="cls-34" d="M32.21,46.46s5,.4,5.07,2.6C37.28,49.06,34.5,50,32.21,46.46Z"/><rect class="cls-35" x="36.02" y="59.66" width="18.6" height="2.72" transform="translate(90.64 122.04) rotate(180)"/><polygon class="cls-35" points="39.24 76.48 51.4 76.48 53.5 62.21 37.15 62.21 39.24 76.48"/><rect class="cls-36" x="36.02" y="59.66" width="9.3" height="2.72" transform="translate(81.35 122.04) rotate(180)"/><polygon class="cls-36" points="53.5 62.21 53.23 64.06 44.1 64.06 44.61 76.48 39.24 76.48 37.15 62.21 53.5 62.21"/><rect class="cls-37" x="36.02" y="59.66" width="18.6" height="0.63" transform="translate(90.64 119.95) rotate(180)"/><rect class="cls-37" x="38.97" y="75.85" width="12.7" height="0.63" transform="translate(90.64 152.32) rotate(180)"/><polygon class="cls-37" points="37.28 63.11 37.15 62.21 53.5 62.21 53.37 63.11 37.28 63.11"/><path class="cls-33" d="M69.88,22.93s-1.68,6.13-5.68,5.75C64.2,28.68,63.08,25.08,69.88,22.93Z"/><path class="cls-33" d="M45.66,8.22s3.24,5.7-.21,7.41C45.45,15.63,41.89,13.35,45.66,8.22Z"/><path class="cls-33" d="M40.45,13.58s5.77,2.6,4.44,5.24C44.89,18.82,41,18.73,40.45,13.58Z"/><path class="cls-32" d="M39.31,20.26s6.76,2,5.85,5.06C45.16,25.32,40.94,25.75,39.31,20.26Z"/><path class="cls-32" d="M49.6,16.17s-.91,5.36-4.38,5.27C45.22,21.44,44,18.41,49.6,16.17Z"/><path class="cls-33" d="M49.76,22.85s-.82,6-4.24,5.9C45.52,28.75,44.22,25.32,49.76,22.85Z"/><path class="cls-32" d="M61.65,24.7s3.3,5.61-.09,7.35C61.56,32.05,58.25,30.41,61.65,24.7Z"/><path class="cls-33" d="M68.32,32.18S63.2,37,59.86,35C59.86,35,60.43,31.8,68.32,32.18Z"/><path class="cls-34" d="M69.16,23.59s-.93,3.55-3.16,3.33C66,26.92,65.38,24.83,69.16,23.59Z"/><path class="cls-34" d="M61.74,25.54s2.22,3.78-.07,5C61.67,30.5,59.44,29.39,61.74,25.54Z"/><path class="cls-34" d="M67.65,32.29s-3.38,3.16-5.58,1.87C62.07,34.16,62.45,32,67.65,32.29Z"/><path class="cls-34" d="M45.78,9.05s2.12,3.73-.14,4.86C45.64,13.91,43.3,12.41,45.78,9.05Z"/><path class="cls-34" d="M40.45,13.58s4.17,1.88,3.21,3.79C43.66,17.37,40.85,17.3,40.45,13.58Z"/><path class="cls-34" d="M40.21,20.82s4.36,1.3,3.78,3.26C44,24.08,41.26,24.36,40.21,20.82Z"/><path class="cls-34" d="M49.6,16.17s-.68,4-3.3,4C46.3,20.15,45.34,17.86,49.6,16.17Z"/><path class="cls-34" d="M49.42,23.4s-.6,4.41-3.09,4.3C46.33,27.7,45.39,25.2,49.42,23.4Z"/><polygon class="cls-38" points="88.88 76.48 78.34 76.48 75.42 44.25 85.96 44.25 88.88 76.48"/><polygon class="cls-39" points="105.27 76.48 80.72 76.48 77.79 44.25 102.34 44.25 105.27 76.48"/><polygon class="cls-38" points="102.57 73.32 82.84 73.32 80.49 47.41 100.22 47.41 102.57 73.32"/><polygon class="cls-40" points="101.57 73.32 82.84 73.32 80.49 47.41 99.22 47.41 101.57 73.32"/><polygon class="cls-25" points="97.24 51.8 97.04 49.57 83.3 49.57 83.5 51.8 97.24 51.8"/><polygon class="cls-25" points="98.57 55.66 98.49 54.59 82.75 54.59 82.82 55.66 98.57 55.66"/><polygon class="cls-25" points="98.8 58.04 98.73 56.96 82.98 56.96 83.06 58.04 98.8 58.04"/><polygon class="cls-25" points="99.04 60.41 98.96 59.34 83.22 59.34 83.29 60.41 99.04 60.41"/><polygon class="cls-25" points="99.27 62.79 99.19 61.72 83.45 61.72 83.52 62.79 99.27 62.79"/><polygon class="cls-25" points="99.58 65.17 99.51 64.1 83.76 64.1 83.84 65.17 99.58 65.17"/><polygon class="cls-25" points="100.08 71.54 100.01 70.63 84.54 70.63 84.6 71.54 100.08 71.54"/><polygon class="cls-25" points="99.91 69.89 99.85 68.97 95.75 68.97 95.82 69.89 99.91 69.89"/><polygon class="cls-41" points="87.13 71.39 86.58 70.88 85.89 70.97 86.84 68.14 88.09 68.56 87.13 71.39"/><polygon class="cls-41" points="89.08 71.39 89.64 70.88 90.33 70.97 89.38 68.14 88.13 68.56 89.08 71.39"/><circle class="cls-42" cx="88.03" cy="66.92" r="2.42"/><circle class="cls-43" cx="88.03" cy="66.92" r="1.89"/><circle class="cls-41" cx="88.03" cy="66.92" r="1.59"/><polygon class="cls-44" points="77.79 44.25 80.72 76.48 81.53 76.48 78.61 44.25 77.79 44.25"/><polygon class="cls-45" points="82.84 73.32 80.49 47.41 99.22 47.41 82.84 73.32"/><path class="cls-9" d="M289.83,268.74s-60.21,5-134.5,5-134.5-5-134.5-5,60.22-5,134.5-5S289.83,268.74,289.83,268.74Z"/><rect class="cls-46" x="81.51" y="184.18" width="111.17" height="74.71"/><rect class="cls-47" x="130.27" y="156.99" width="5.29" height="15.65"/><path class="cls-47" d="M121.62,173.64h22.59V171.8s-3.51-1.41-11.43-1.41-11.16,1.41-11.16,1.41Z"/><rect class="cls-48" x="130.27" y="163.86" width="5.29" height="2.77"/><rect class="cls-49" x="102.02" y="116.12" width="2.56" height="47.77"/><rect class="cls-50" x="103.57" y="116.12" width="0.68" height="47.77"/><rect class="cls-51" x="103.9" y="116.12" width="61.79" height="47.77"/><g class="cls-52"><rect class="cls-53" x="105.18" y="117.26" width="59.24" height="45.48"/><rect class="cls-54" x="105.18" y="117.26" width="59.24" height="45.48"/><path class="cls-55" d="M142.92,132.7c0-.66,5.22-.67,5.22-.67s-1.54-.73-.14-1.52a1.59,1.59,0,0,1,2.21.59,2.28,2.28,0,0,1,2.87-2.25c2.88.4.81,3.38.81,3.38s4.68-.38,4.74.42S143,133.56,142.92,132.7Z"/><path class="cls-56" d="M154,122.21c.07-.86,3.21-.53,3.21-.53s-.54-1.33,1.4-1.66,1.81,1.06,1.81,1.06.87-2.65,3.21-1.92,1.26,3.38,1.26,3.38S154,123.08,154,122.21Z"/><path class="cls-56" d="M122.92,127.19c5.23,0,10.06-.18,10-.64s-5.49-.62-5.49-.62,2-1.8.16-2.79a2.4,2.4,0,0,0-3.1.79s.08-2.78-3.27-2.19-1.06,5.65-1.06,5.65Z"/><polygon class="cls-57" points="104.42 148.44 104.55 163.65 164.42 163.65 164.42 145.05 136.82 142.94 104.42 148.44"/><path class="cls-58" d="M124.74,158.8c.18-1,8.22-1.2,8.56.46S124.41,160.72,124.74,158.8Z"/><path class="cls-58" d="M126.55,157.26c.12-.56-2-.41-1.92,0S126.48,157.63,126.55,157.26Z"/><path class="cls-59" d="M106.85,154.71c.5-2.47,7.63-2.59,9.33-2.59s5.68.63,8.59-.07,4.54-2.44,7.86-3.61a37.28,37.28,0,0,1,5.91-1.6l-12.23-.2-22.44,5.15v11.86h59.44l-9-6.91s6,3.33-3,4.92c-9.43,1.67-36.2,1.3-37.51.1s1.61-1.67,1.91-2.77S106.55,156.2,106.85,154.71Z"/><path class="cls-58" d="M126.88,155.54c.11-2.2,12.5-2.79,12.57-3.52s-3.78-1.58-3.28-2.52,3.41-1.6,8.89-1.13c2.5.21,5.77-.33,6,1.06s-2.69,1.91-2.74,2.31,4,2,4.09,4.17C152.58,159.09,126.73,158.58,126.88,155.54Z"/><polygon class="cls-60" points="104.42 148.44 104.55 163.65 164.42 163.65 164.42 145.05 136.82 142.94 104.42 148.44"/><path class="cls-61" d="M103.87,151.79l4.09.31,8.22-1.3,6.88.58,13.32-4.27,6-.36,4.68,4.15.93-15.08s-.87.13-2.07,1.66-2.54,5.05-4.34,4.91-2.31-6.16-3.77-6.53-1.38-5.88-3.86-6.68-2.29,1-3.42,1.81-.95-.47-1.87.26-.66,3.24-2,3.44-.5-4.85-2-5.38-1.48.65-2.49-.2-1.41-6.44-2.88-7.3-.8.93-2,1.06-3.17-11-13-9.16Z"/><path class="cls-62" d="M110,114.24s3,2.69,3.39,3.92c.46,1.39.74,6.64-1,8.7-1.23,1.45-5.88-.44-5.75,1.46,0,.7,1.83,1.23,2.54,1.26s2.16-1.51,2.88-1.2c1.46.64,2.3,4.39,2.2,6-.06,1.06-2.17,2.75-1.94,3.78.17.77,2.17,1.21,2.48,1.93.91,2.15,2.34,7,.8,8.76-.7.81-6,.54-6,1.6,0,.52,2.05-.26,2.07.26,0,1-3,.93-4,.87a19,19,0,0,1-3.8-1.38l0,1.61a18.05,18.05,0,0,0,4.09.31,74.49,74.49,0,0,0,8.22-1.3,28.16,28.16,0,0,0,6.88.58c2.55-.3,11.16-3.58,13.32-3.95a16.06,16.06,0,0,1,6.21.08c2.33.42,4.48,3.39,4.48,3.39l.93-15.08s-.87.13-2.07,1.66-2.54,5.05-4.34,4.91-2.31-6.16-3.77-6.53-1.41-5-3.3-6.34c.31,2.66-3.27,3.4-4.63,3.71s-1.14,2.86-2.41,2.92c-.89,0-1-.46-1-1.54-1-.39-.41-4.66-1.73-5.26-.5,1.21-1.47,3.29-2.14,3.15s-.91-2.52-1.08-4.83c-.6-2-1.1-5.22-2.2-5.86l-.1,0c.46,1.22.17,2.56-.57,2.7s-1.33-1.59-1.33-1.59C116.4,123,115,116.46,110,114.24Z"/><path class="cls-61" d="M119.92,141c-1.47.29-2.68,4.8-1.89,5.38s2.66.75,2.7,1.26-2.12,0-2.65.54-.86,1-.4,1.45,3.9.58,5.43.13S122.75,140.45,119.92,141Z"/><path class="cls-61" d="M129.9,134.38c.06-.67,1.73-1.2,2-.95s-.41,1.47-1,1.65A.83.83,0,0,1,129.9,134.38Z"/><path class="cls-61" d="M116.85,142.26c-1.39-.36.13-3.45,1.74-2.92S118.12,142.59,116.85,142.26Z"/><path class="cls-61" d="M113.57,138c-.68-1.22,1.54-2.95,2.32-3.59s0-1.54,1.23-1.81,1.65,2.94-.13,4.37C114.43,139,113.57,138,113.57,138Z"/><path class="cls-62" d="M107.69,141c.54-.53,2,.66,3.34,1s2.88.27,3.08.73-2.21,1.66-3.75,1S107.16,141.53,107.69,141Z"/><path class="cls-62" d="M108.29,125.13c-.29-.66,1.61-1.59,2.07-1S108.76,126.19,108.29,125.13Z"/><path class="cls-63" d="M148,135.82s-.87.13-2.07,1.66-2.54,5.05-4.34,4.91-2.31-6.16-3.77-6.53a.89.89,0,0,1-.46-.35,1.19,1.19,0,0,1-.09-.15,2.94,2.94,0,0,1-.31-.59v0c-.71-1.75-1.14-5-3-5.57-2.47-.8-2.29,1-3.42,1.81s-.95-.47-1.87.26-.66,3.24-2,3.44c-.09,0-.14-.05-.21-.08-.6-.24-.63-1.89-.84-3.29v0a3.69,3.69,0,0,0-.1-.5c-.14-.72-.37-1.33-.83-1.49-1.49-.53-1.48.65-2.49-.2a3.55,3.55,0,0,1-.68-1.44h0v0c-.08-.28-.16-.58-.24-.89s-.2-.79-.31-1.2l0-.11a20.41,20.41,0,0,0-.64-2.15c0-.08-.07-.15-.1-.23a4.47,4.47,0,0,0-.29-.58l-.12-.2a1.52,1.52,0,0,0-.46-.48l-.1,0h0c-1.32-.7-.73,1-1.9,1.11-.11,0-.22-.08-.34-.22l-.09-.12a6.28,6.28,0,0,1-.37-.59c-1-1.87-2.72-6-6.54-7.7h0a9.43,9.43,0,0,0-5.7-.53l-.39,36.47h0l0,1.61a18.05,18.05,0,0,0,4.09.31,74.49,74.49,0,0,0,8.22-1.3,28.16,28.16,0,0,0,6.88.58c2.55-.3,11.16-3.58,13.32-3.95a16.06,16.06,0,0,1,6.21.08,3.81,3.81,0,0,1,1.1.39l3.38,3Z"/><polygon class="cls-64" points="147.07 139.35 145.1 140.91 145.1 148.97 147.07 149.9 147.07 139.35"/><polygon class="cls-64" points="154.29 129.58 162.98 129.58 153.62 137.66 154.29 129.58"/><polygon class="cls-64" points="151.34 131.59 160.03 131.59 150.67 140.02 151.34 131.59"/><polygon class="cls-65" points="165.12 125.1 154.29 133.69 154.29 129.58 147.07 137.26 147.07 152.34 165.08 163.32 165.12 125.1"/><rect class="cls-64" x="154.29" y="131.03" width="1.34" height="26.54"/><polygon class="cls-65" points="148.2 134.94 148.2 136.54 151.35 133.06 151.35 131.58 148.2 134.94"/><polygon class="cls-64" points="159.88 126.75 159.88 160.39 164.66 163.15 164.66 122.56 159.88 126.75"/><polygon class="cls-64" points="149.71 136.68 149.71 140.2 148.22 141.44 148.22 138.06 149.71 136.68"/><polygon class="cls-66" points="149.71 140.2 149.71 137.44 148.84 138.19 148.84 140.93 149.71 140.2"/><polygon class="cls-64" points="157.48 132.41 156.8 132.91 156.8 131.14 157.48 131.14 157.48 132.41"/><polygon class="cls-67" points="165.12 125.1 164.66 125.46 164.66 122.56 159.88 126.75 159.88 129.25 159.46 129.58 154.29 129.58 152.4 131.59 151.35 131.59 151.35 131.58 148.2 134.94 148.2 136.05 147.07 137.26 147.07 139.35 145.1 140.91 145.1 148.97 147.07 149.9 147.07 152.34 154.29 156.74 154.29 157.57 155.63 157.57 155.63 157.56 159.88 160.15 159.88 160.39 164.66 163.15 164.66 163.06 165.08 163.32 165.12 125.1"/><path class="cls-68" d="M108.65,163a16.66,16.66,0,0,0,3.45-2.89c.74-.94,3.44-5.37,5.25-7.67.88-1.11,1.91-1.78,2.2-1.7.5.13-.6,1.25-1.35,2.33-.59.87-1.16,1.65-1,1.71.33.15,1.31-1.31,2.6-2.79s2.83-2.66,3.35-2.3-.54,1.15-1.83,2.65c-1.15,1.33-2.29,2.6-2.06,2.7s1.44-1.4,2.83-2.78,2.81-2.61,3.28-2.27-.84,1.64-2.26,3.25c-1.18,1.33-2.35,2.47-2.12,2.62S122,155,123,154c1.31-1.18,2.82-2.43,3.19-2.18.65.42-.86,1.73-2.19,3.24-1.86,2.1-4.17,4.53-4,4.81.41.52,3.63-3,4.6-2.13.54.46-3.9,3.88-4.5,4.27a11.87,11.87,0,0,1-3.49,1.43c-3.46,1-4.25,2.75-4.25,2.75Z"/><path class="cls-69" d="M108.65,163l3.79,3.24s.79-1.75,4.25-2.75a11.87,11.87,0,0,0,3.49-1.43c.6-.39,5-3.81,4.5-4.27-1-.84-4.19,2.65-4.6,2.13-.21-.28,2.1-2.71,4-4.81,1.28-1.46,2.71-2.71,2.24-3.18a19.67,19.67,0,0,1-2.62,2.84c-.49.49-3.16,3.63-4.38,4.78-2,1.87-4,3.3-5.78,2.59a2,2,0,0,1-1.4-2A16.66,16.66,0,0,1,108.65,163Z"/><path class="cls-69" d="M117.18,154.77c-.14-.06.43-.84,1-1.71.75-1.08,1.85-2.2,1.35-2.33,0,0,0,0-.07,0a8,8,0,0,1-1.24,1.69C117.62,153.22,116.69,154.42,117.18,154.77Z"/><path class="cls-69" d="M119.24,155c-.23-.1.91-1.37,2.06-2.7,1.29-1.5,2.35-2.3,1.83-2.65,0,0-.08,0-.11,0a7.51,7.51,0,0,1-2,2.53C119.94,153.31,118.75,154.72,119.24,155Z"/><path class="cls-69" d="M123,152.83c-.8.86-2.55,2.57-2,3-.23-.15.94-1.29,2.12-2.62,1.42-1.61,2.87-2.82,2.26-3.25,0,0,0,0,0,0C125.33,150.67,123.71,152,123,152.83Z"/><path class="cls-70" d="M120.59,154a7.22,7.22,0,1,1-7.22-7.17A7.19,7.19,0,0,1,120.59,154Z"/><path class="cls-55" d="M111.15,151.58c.12.16,1.58,2.85,2.25,2.85s2-2.65,2.1-2.85A4,4,0,0,0,111.15,151.58Z"/><path class="cls-56" d="M113.83,154a.43.43,0,1,1-.43-.42A.42.42,0,0,1,113.83,154Z"/><g class="cls-71"><polygon class="cls-72" points="117.89 152.12 117.89 150.78 114.38 150.78 114.38 156.14 117.89 156.14 117.89 153.86 119.44 153.86 119.44 152.12 117.89 152.12"/><path class="cls-72" d="M112,159.74V158.4H107.7a7.2,7.2,0,0,0,5.67,2.78,5.35,5.35,0,0,0,.7-.07v-1.37Z"/><rect class="cls-72" x="107.91" y="153.47" width="1.65" height="1.79"/><path class="cls-72" d="M113.32,147.79v-.94a6.68,6.68,0,0,0-1.85.28v.66Z"/></g><circle class="cls-73" cx="109.51" cy="156.35" r="0.35"/><circle class="cls-73" cx="111.42" cy="148.44" r="0.35"/><path class="cls-73" d="M110.92,159.14a.36.36,0,1,1-.35-.35A.35.35,0,0,1,110.92,159.14Z"/><path class="cls-73" d="M112.42,156.55a.35.35,0,1,1-.7,0,.35.35,0,0,1,.7,0Z"/><path class="cls-73" d="M118.89,155.26a.35.35,0,0,1-.35.35.35.35,0,0,1,0-.7A.35.35,0,0,1,118.89,155.26Z"/><rect class="cls-72" x="125.52" y="119.39" width="18.65" height="1.59"/><rect class="cls-74" x="121.51" y="119.39" width="3.11" height="1.59"/><rect class="cls-75" x="144.98" y="119.39" width="3.11" height="1.59"/><rect class="cls-72" x="131.19" y="121.68" width="7.32" height="1"/><rect class="cls-72" x="156.43" y="126.06" width="7.02" height="0.46"/><rect class="cls-72" x="154.62" y="123.77" width="4.75" height="0.46"/><rect class="cls-72" x="160.44" y="123.77" width="3.01" height="0.46"/><rect class="cls-72" x="153.42" y="125" width="3.94" height="0.46"/><rect class="cls-72" x="158.23" y="125" width="5.21" height="0.46"/><rect class="cls-76" x="156.43" y="158.91" width="7.02" height="1.06"/><rect class="cls-72" x="159.39" y="156.63" width="2.18" height="0.46"/><rect class="cls-72" x="162.06" y="156.63" width="1.38" height="0.46"/><rect class="cls-72" x="158.83" y="157.85" width="1.81" height="0.46"/><rect class="cls-72" x="161.05" y="157.85" width="2.4" height="0.46"/><path class="cls-72" d="M135.26,140a.46.46,0,0,1-.46.46.45.45,0,0,1-.46-.46.46.46,0,0,1,.46-.46A.47.47,0,0,1,135.26,140Z"/><path class="cls-72" d="M136.82,137.15h0a3.46,3.46,0,0,0-2-.67,3.51,3.51,0,0,0-2,.67.09.09,0,0,1-.11,0,.11.11,0,0,1,0-.12,3.4,3.4,0,0,1,4.13,0,.1.1,0,0,1,0,.12A.11.11,0,0,1,136.82,137.15Z"/><path class="cls-72" d="M137.75,142.09h-.05a.11.11,0,0,1,0-.12,3.15,3.15,0,0,0,0-3.91.11.11,0,0,1,0-.12.08.08,0,0,1,.12,0,3.33,3.33,0,0,1,0,4.11A.09.09,0,0,1,137.75,142.09Z"/><path class="cls-72" d="M134.8,143.7a3.65,3.65,0,0,1-2.07-.7.09.09,0,0,1,0-.11.07.07,0,0,1,.11,0,3.51,3.51,0,0,0,2,.67,3.46,3.46,0,0,0,2-.67.08.08,0,0,1,.12,0,.08.08,0,0,1,0,.11A3.6,3.6,0,0,1,134.8,143.7Z"/><path class="cls-72" d="M131.85,142.09a.09.09,0,0,1-.07,0,3.33,3.33,0,0,1,0-4.11.08.08,0,0,1,.12,0,.11.11,0,0,1,0,.12,3.15,3.15,0,0,0,0,3.91.11.11,0,0,1,0,.12Z"/><path class="cls-47" d="M140.43,148.08c-.32.39-.4,1-.12,1.22l3.17,2.3a1.07,1.07,0,0,0,1.14-.4,1,1,0,0,0,.13-1.23l-3.22-2.25A1,1,0,0,0,140.43,148.08Z"/><path class="cls-47" d="M148.28,152.74l-8-5.57a.72.72,0,0,0-.8.26c-.22.28-.28.72-.08.89l7.84,5.67Z"/><path class="cls-47" d="M139.77,143.8a1.13,1.13,0,0,0-1.25.41c-.35.44-.44,1.12-.13,1.38l8.43,5.93s-.49,3.51.77,4.61c0,0,5.22,4.12,6,4.79s1.12,2.83,1.44,3.3c.58.85,3,1,3,1l7.92-.6.12-3.19ZM155.38,164a7.94,7.94,0,0,1-.69-2.33l2.48,1.7,0,1S155.9,164.57,155.38,164Z"/><path class="cls-49" d="M139,144.45c.39-.92,12.4,7.92,12.06,8.23S138.76,145,139,144.45Z"/><path class="cls-49" d="M140.7,148.2c.28-.44,3.48,1.9,3.27,2.23S140.46,148.57,140.7,148.2Z"/><path class="cls-77" d="M156.52,162.82c.72.5-.29,2-1.09,1.65C155,164.29,155.5,162.11,156.52,162.82Z"/><path class="cls-47" d="M155.07,161.94a3.93,3.93,0,0,1,1.47,2.38l.23.08.18-.85.47-.28Z"/><path class="cls-49" d="M146.82,151.52s-.47,3.94.77,4.93l4.2,3.31v-4.7Z"/><polygon class="cls-47" points="151.79 155.06 152.06 155.26 152.06 159.58 152.32 159.76 151.79 159.76 151.79 155.06"/><path class="cls-47" d="M147.71,155.2v1.34l.27.22v-1.35Z"/><path class="cls-47" d="M148.35,155.65v1.4l.28.21v-1.4Z"/><path class="cls-47" d="M149,156.1v1.45l.28.22v-1.46Z"/><path class="cls-47" d="M149.63,156.55v1.51l.28.22v-1.52Z"/><path class="cls-47" d="M150.27,157v1.56l.28.22v-1.57Z"/><path class="cls-47" d="M150.92,157.45v1.62l.27.22v-1.63Z"/><path class="cls-47" d="M140.34,144.41s.15-.33.41-.29a2.19,2.19,0,0,1,1,.7,1.64,1.64,0,0,1,.07.59l-.22-.09a1.57,1.57,0,0,0,0-.43,2.22,2.22,0,0,0-.83-.59c-.14,0-.23.22-.23.22Z"/><polygon class="cls-47" points="159.58 156.82 159.58 157.21 159.12 156.9 159.12 156.52 158.54 156.13 158.54 156.52 158.09 156.21 158.09 155.83 157.5 155.44 157.5 155.83 157.05 155.52 157.05 155.13 156.46 154.74 156.46 155.14 156.01 154.83 156.01 154.44 155.43 154.05 155.43 154.45 154.97 154.14 154.97 153.75 154.39 153.35 154.39 153.76 153.93 153.45 153.93 153.05 153.41 152.7 153.41 154.05 160.09 158.52 160.09 157.16 159.58 156.82"/><path class="cls-47" d="M160.52,157.93v-.58a1,1,0,0,0,.93.35c.53-.1.69-.58,1.14-.53.65.07.52,2.36.52,2.36Z"/><path class="cls-47" d="M160.52,157.35h.38a2.41,2.41,0,0,0,.79.48S160.63,158,160.52,157.35Z"/></g><g id="table"><rect class="cls-51" x="82.48" y="202.26" width="38.53" height="54.7"/><path class="cls-47" d="M103.37,251a.45.45,0,1,1,.45.45A.45.45,0,0,1,103.37,251Z"/><path class="cls-47" d="M101.25,251a.45.45,0,1,1,.45.45A.45.45,0,0,1,101.25,251Z"/><path class="cls-47" d="M99.12,251a.46.46,0,1,1,.46.45A.46.46,0,0,1,99.12,251Z"/><path class="cls-47" d="M97,251a.45.45,0,0,1,.45-.45.45.45,0,0,1,0,.9A.45.45,0,0,1,97,251Z"/><path class="cls-47" d="M94.88,251a.45.45,0,1,1,.45.45A.45.45,0,0,1,94.88,251Z"/><path class="cls-47" d="M92.76,251a.45.45,0,1,1,.45.45A.45.45,0,0,1,92.76,251Z"/><path class="cls-47" d="M104.46,249.31a.46.46,0,1,1,.46.45A.46.46,0,0,1,104.46,249.31Z"/><path class="cls-47" d="M102.34,249.31a.46.46,0,1,1,.45.45A.45.45,0,0,1,102.34,249.31Z"/><path class="cls-47" d="M100.22,249.31a.45.45,0,1,1,.45.45A.45.45,0,0,1,100.22,249.31Z"/><path class="cls-47" d="M98.1,249.31a.45.45,0,1,1,.45.45A.45.45,0,0,1,98.1,249.31Z"/><path class="cls-47" d="M96,249.31a.45.45,0,1,1,.45.45A.45.45,0,0,1,96,249.31Z"/><path class="cls-47" d="M93.86,249.31a.45.45,0,1,1,.45.45A.45.45,0,0,1,93.86,249.31Z"/><path class="cls-47" d="M91.74,249.31a.45.45,0,1,1,.45.45A.45.45,0,0,1,91.74,249.31Z"/><path class="cls-47" d="M109.76,251a.45.45,0,1,1,.45.45A.45.45,0,0,1,109.76,251Z"/><path class="cls-47" d="M107.64,251a.45.45,0,1,1,.45.45A.45.45,0,0,1,107.64,251Z"/><path class="cls-47" d="M105.52,251a.45.45,0,1,1,.45.45A.45.45,0,0,1,105.52,251Z"/><path class="cls-47" d="M103.37,247.57a.45.45,0,1,1,.45.46A.45.45,0,0,1,103.37,247.57Z"/><path class="cls-47" d="M101.25,247.57a.45.45,0,1,1,.45.46A.45.45,0,0,1,101.25,247.57Z"/><path class="cls-47" d="M99.12,247.57a.46.46,0,1,1,.46.46A.46.46,0,0,1,99.12,247.57Z"/><path class="cls-47" d="M97,247.57a.46.46,0,0,1,.45-.45.46.46,0,0,1,0,.91A.46.46,0,0,1,97,247.57Z"/><path class="cls-47" d="M94.88,247.57a.45.45,0,1,1,.45.46A.45.45,0,0,1,94.88,247.57Z"/><path class="cls-47" d="M92.76,247.57a.45.45,0,1,1,.45.46A.45.45,0,0,1,92.76,247.57Z"/><path class="cls-47" d="M109.76,247.57a.45.45,0,1,1,.45.46A.45.45,0,0,1,109.76,247.57Z"/><path class="cls-47" d="M107.64,247.57a.45.45,0,1,1,.45.46A.45.45,0,0,1,107.64,247.57Z"/><path class="cls-47" d="M105.52,247.57a.45.45,0,1,1,.45.46A.45.45,0,0,1,105.52,247.57Z"/><path class="cls-47" d="M110.86,249.31a.45.45,0,1,1,.45.45A.45.45,0,0,1,110.86,249.31Z"/><path class="cls-47" d="M108.74,249.31a.45.45,0,1,1,.45.45A.45.45,0,0,1,108.74,249.31Z"/><path class="cls-47" d="M106.62,249.31a.45.45,0,1,1,.45.45A.45.45,0,0,1,106.62,249.31Z"/><circle class="cls-47" cx="99.2" cy="220.03" r="0.53"/><circle class="cls-47" cx="101.7" cy="220.03" r="0.53"/><circle class="cls-47" cx="104.2" cy="220.03" r="0.53"/><path class="cls-47" d="M98.53,222a.53.53,0,1,1-1.06,0,.53.53,0,1,1,1.06,0Z"/><path class="cls-47" d="M101,222a.53.53,0,1,1-1.06,0,.53.53,0,1,1,1.06,0Z"/><path class="cls-47" d="M103.53,222a.53.53,0,0,1-.53.53.52.52,0,0,1-.53-.53.53.53,0,0,1,.53-.53A.53.53,0,0,1,103.53,222Z"/><circle class="cls-47" cx="100.5" cy="218.33" r="0.53"/><circle class="cls-47" cx="103" cy="218.33" r="0.53"/><circle class="cls-47" cx="98" cy="218.33" r="0.53"/><path class="cls-47" d="M101,229.46a.53.53,0,1,1-1.06,0,.53.53,0,1,1,1.06,0Z"/><path class="cls-47" d="M103.53,229.46a.53.53,0,0,1-.53.53.52.52,0,0,1-.53-.53.53.53,0,0,1,.53-.53A.53.53,0,0,1,103.53,229.46Z"/><path class="cls-47" d="M106,222a.53.53,0,0,1-.53.53A.52.52,0,0,1,105,222a.53.53,0,0,1,.53-.53A.53.53,0,0,1,106,222Z"/><circle class="cls-47" cx="96.71" cy="223.9" r="0.53"/><circle class="cls-47" cx="99.2" cy="223.9" r="0.53"/><circle class="cls-47" cx="101.7" cy="223.9" r="0.53"/><circle class="cls-47" cx="96.7" cy="220.03" r="0.53"/><path class="cls-47" d="M96,222a.52.52,0,0,1-.53.53A.53.53,0,0,1,95,222a.53.53,0,0,1,.53-.53A.53.53,0,0,1,96,222Z"/><circle class="cls-47" cx="104.2" cy="223.9" r="0.53"/><circle class="cls-47" cx="106.7" cy="223.9" r="0.53"/><circle class="cls-47" cx="98" cy="225.84" r="0.53"/><circle class="cls-47" cx="100.5" cy="225.84" r="0.53"/><circle class="cls-47" cx="103" cy="225.84" r="0.53"/><circle class="cls-47" cx="105.5" cy="225.84" r="0.53"/><circle class="cls-47" cx="99.2" cy="227.77" r="0.53"/><path class="cls-47" d="M96.06,225.84a.53.53,0,1,1-.53-.54A.53.53,0,0,1,96.06,225.84Z"/><path class="cls-47" d="M97.26,227.77a.53.53,0,0,1-.53.53.53.53,0,0,1,0-1.06A.53.53,0,0,1,97.26,227.77Z"/><circle class="cls-47" cx="101.7" cy="227.77" r="0.53"/><circle class="cls-47" cx="101.7" cy="230.93" r="0.53"/><circle class="cls-47" cx="101.7" cy="216.89" r="0.53"/><path class="cls-47" d="M98.52,229.46a.53.53,0,1,1-1.06,0,.53.53,0,1,1,1.06,0Z"/><path class="cls-47" d="M105,218.33a.53.53,0,1,0,1.06,0,.53.53,0,1,0-1.06,0Z"/><circle class="cls-47" cx="106.8" cy="220.03" r="0.53"/><path class="cls-47" d="M107.48,222a.53.53,0,1,0,1.06,0,.53.53,0,0,0-1.06,0Z"/><circle class="cls-47" cx="107.97" cy="225.84" r="0.53"/><circle class="cls-47" cx="106.77" cy="227.77" r="0.53"/><path class="cls-47" d="M105,229.46a.53.53,0,1,0,1.06,0,.53.53,0,0,0-1.06,0Z"/><circle class="cls-47" cx="99.2" cy="227.77" r="0.53"/><circle class="cls-47" cx="104.2" cy="227.77" r="0.53"/><rect class="cls-47" x="120.83" y="202.26" width="22.76" height="54.7"/><rect class="cls-49" x="122.66" y="203.8" width="19.1" height="51.24"/><rect class="cls-78" x="122.66" y="224.8" width="19.1" height="30.23"/><polygon class="cls-79" points="123.69 254.36 140.74 254.36 141.25 225.47 123.18 225.47 123.69 254.36"/><polygon class="cls-80" points="125.93 226.11 123.81 226.11 124.28 253.82 126.41 253.82 125.93 226.11"/><polygon class="cls-80" points="123.81 226.11 140.67 226.11 124.57 227.11 123.81 226.11"/><rect class="cls-78" x="122.66" y="203.8" width="19.1" height="18.89"/><polygon class="cls-79" points="123.69 222.27 140.74 222.27 141.25 204.22 123.18 204.22 123.69 222.27"/><polygon class="cls-80" points="125.93 204.61 123.81 204.61 124.28 221.93 126.41 221.93 125.93 204.61"/><polygon class="cls-80" points="123.81 204.61 140.67 204.61 124.57 205.24 123.81 204.61"/><circle class="cls-47" cx="132.21" cy="248.07" r="2.28"/><circle class="cls-80" cx="132.21" cy="248.07" r="1.86"/><path class="cls-81" d="M132.21,249.23a1.18,1.18,0,1,1,1.18-1.18A1.18,1.18,0,0,1,132.21,249.23Zm0-2.19a1,1,0,0,0,0,2,1,1,0,1,0,0-2Z"/><rect class="cls-81" x="132.13" y="246.71" width="0.16" height="1.09"/><path class="cls-82" d="M132.21,246.22a1.86,1.86,0,1,0,1.86,1.85A1.86,1.86,0,0,0,132.21,246.22Zm.07,3.64a1.79,1.79,0,1,1,1.79-1.79A1.79,1.79,0,0,1,132.28,249.86Z"/><rect class="cls-47" x="123.76" y="208.8" width="16.91" height="0.71"/><rect class="cls-47" x="123.76" y="214.43" width="16.91" height="0.71"/><path class="cls-47" d="M137.15,213.88h3.51v1.27h-4.54S136.56,213.88,137.15,213.88Z"/><rect class="cls-78" x="122.66" y="242.71" width="19.1" height="0.8"/><rect class="cls-78" x="122.66" y="233.45" width="19.1" height="0.81"/><rect class="cls-83" x="80.99" y="256.7" width="37.4" height="5.38"/><rect class="cls-84" x="143.26" y="176.49" width="3.09" height="89.16"/><rect class="cls-84" x="119.39" y="256.7" width="25.71" height="5.38"/><rect class="cls-46" x="192.68" y="176.49" width="3.09" height="89.16"/><rect class="cls-83" x="79.36" y="176.49" width="3.09" height="89.16"/><rect class="cls-83" x="117.55" y="176.49" width="1.84" height="89.16"/><rect class="cls-84" x="119.39" y="176.49" width="1.84" height="89.16"/><rect class="cls-83" x="79.36" y="176.75" width="39.54" height="82.64"/><rect class="cls-84" x="229.73" y="176.49" width="3.09" height="89.16"/><rect class="cls-84" x="119.39" y="176.75" width="113.43" height="8.99"/><rect class="cls-46" x="119.39" y="176.51" width="113.43" height="5.44"/><rect class="cls-85" x="79.36" y="176.75" width="40.03" height="5.2"/><rect class="cls-86" x="73.85" y="173.65" width="46.68" height="5.9"/><rect class="cls-87" x="119.33" y="173.65" width="119.69" height="5.9"/><rect class="cls-88" x="73.85" y="173.65" width="165.16" height="1.22"/></g><path class="cls-89" d="M168.92,262.27a14.35,14.35,0,0,1-6,4.25c-4.07,1.59-6.55,1.23-6.37,2.29s15.39.53,15.39-.7-.71-3-.53-5.84S168.92,262.27,168.92,262.27Z"/><rect class="cls-47" x="157.05" y="171.66" width="31.91" height="1.98"/><rect class="cls-49" x="143.23" y="171.66" width="13.82" height="1.98"/><rect class="cls-47" x="186.32" y="171.31" width="1.71" height="0.68"/><rect class="cls-47" x="183.54" y="171.31" width="1.71" height="0.68"/><rect class="cls-47" x="181.43" y="171.31" width="1.71" height="0.68"/><rect class="cls-47" x="179.32" y="171.31" width="1.71" height="0.68"/><rect class="cls-47" x="177.21" y="171.31" width="1.71" height="0.68"/><rect class="cls-47" x="174.25" y="171.31" width="1.71" height="0.68"/><rect class="cls-47" x="172.14" y="171.31" width="1.71" height="0.68"/><rect class="cls-47" x="170.03" y="171.31" width="1.71" height="0.68"/><rect class="cls-47" x="167.92" y="171.31" width="1.71" height="0.68"/><rect class="cls-47" x="164.96" y="171.31" width="1.71" height="0.68"/><rect class="cls-47" x="162.85" y="171.31" width="1.71" height="0.68"/><rect class="cls-47" x="160.74" y="171.31" width="1.71" height="0.68"/><rect class="cls-47" x="158.63" y="171.31" width="1.71" height="0.68"/><rect class="cls-49" x="154.86" y="171.31" width="1.71" height="0.68"/><rect class="cls-49" x="152.2" y="171.31" width="1.71" height="0.68"/><rect class="cls-49" x="148.33" y="171.31" width="3.48" height="0.68"/><rect class="cls-49" x="144.52" y="171.31" width="3.48" height="0.68"/><path class="cls-90" d="M199.22,113.65c-.94,4.12-2.47,5-2.13,5.88s3.62,1.51,3.62,1.51S199.69,115,199.22,113.65Z"/><path class="cls-91" d="M199.34,116.86a3.48,3.48,0,0,0,.88-.11.31.31,0,0,0,.23-.38.33.33,0,0,0-.41-.21,1.9,1.9,0,0,1-1.6-.18c-1.21-.75-1.46-2.86-1.46-2.88a.33.33,0,0,0-.36-.27.31.31,0,0,0-.29.33c0,.1.28,2.4,1.75,3.32A2.39,2.39,0,0,0,199.34,116.86Z"/><path class="cls-77" d="M199.84,98.52s-1.86.78-1.72,7.8a58.1,58.1,0,0,0,1.14,7.9c.17,2.34-.76,3-.62,5,.15,2.16,1.44,5.72,3.61,11.22,0,0,4.3.1,12.77-3.68Z"/><path class="cls-92" d="M209,119.22c-.49,8.4-6.78,11.18-6.78,11.18s1.91.34,9-1.52l1.1-14Z"/><path class="cls-93" d="M201.25,101.73s4,4.92,3.49,15.46l2.17.21s-.53-2.91.48-4.13l-2.65-12.63Z"/><path class="cls-92" d="M220.8,126.48a12.5,12.5,0,0,0,.7,8.16H208.05c.69-1.94.54-7.71.54-7.71,0-1.69,2-3.69,1.91-5.48Z"/><path class="cls-93" d="M202.88,103.48a7.87,7.87,0,0,1-2.65-3.91c-.26-.85-4.31-2.72,1.83-4.79,5.82-2,19.19-4.34,22.07-.29,5.64,2,8,8.21,6.75,14.25-1.61,8.4-7.93,14-10,17.65-1.34,1.36-10.28.59-11.87-7.17C208.14,110.93,204.46,112,202.88,103.48Z"/><path class="cls-93" d="M201,111.22c.57-.31.42-.82-.06-1.2-.64-.52-2.3-1.38-3-1-.36.21-.17,1-.06,1.21C198.23,111.13,200.12,111.47,201,111.22Z"/><path class="cls-93" d="M226.45,95.78c3.87,1.93-19.77,14.41-23.14,9.88-1.11-3.32-5.58-6.21-7.75-9.73-2.93-4.75,8.26-9.4,20.77-5.65a6.29,6.29,0,0,0,.74.11c1.36.14,2.52.27,3.51.41C224.63,90.28,226.18,92.38,226.45,95.78Z"/><path class="cls-91" d="M209.89,119.45a.35.35,0,0,0,.26-.11,4.06,4.06,0,0,0,1-3,2.85,2.85,0,0,0-1.57-1.93c-2.82-1.55-12.56-1.57-13-1.57a.31.31,0,0,0-.32.3.33.33,0,0,0,.32.31c.11,0,10,0,12.63,1.48a2.26,2.26,0,0,1,1.26,1.51,3.57,3.57,0,0,1-.89,2.53.28.28,0,0,0,0,.42A.31.31,0,0,0,209.89,119.45Z"/><path class="cls-77" d="M210.62,116.64c-.21,1.76-1.46,3-2.78,2.78s-2.22-1.83-2-3.59,1.46-3,2.78-2.79S210.83,114.88,210.62,116.64Z"/><path class="cls-92" d="M207.6,117.76c.64.11,1.24-.49,1.34-1.34a1.47,1.47,0,0,0-1-1.73.91.91,0,0,0-.67.18,1.23,1.23,0,0,1,1.15-.51,1.8,1.8,0,0,1,1.18,2.11c-.12,1-.85,1.77-1.63,1.64a1.23,1.23,0,0,1-.75-.51A.93.93,0,0,0,207.6,117.76Z"/><path class="cls-89" d="M183.89,262.27s.13,2.65-3.55,4.25-3.94,1.23-3.78,2.29,10.05.53,10.05-.7-.64-3-.48-5.84S183.89,262.27,183.89,262.27Z"/><path class="cls-94" d="M182.06,262.76c-.47-35.72-6.59-62.52-2.15-66.7,6.51-6.11,34-5.6,34-5.6L191.8,208.59a135.71,135.71,0,0,1,2.06,18.57c.56,11.25-5.65,35.6-5.65,35.6Z"/><path class="cls-95" d="M166.89,262.76c-1.13-37.33-10.52-60.32-5.42-66,4.12-4.63,32.29-8.22,32.29-8.22l5.91-2.87,34.25,5.44s-.6,17.6-13.66,19.12H174.78s2.36,5.25,2.92,16.5S173,262.76,173,262.76Z"/><path class="cls-94" d="M173,262.76s5.22-24.83,4.66-36.07-2.92-16.5-2.92-16.5h45.48a13,13,0,0,0,9.25-5.54l-20.28-6.85-8.21,4c-11.51,3.12-30.83,5-30.83,5s-2.77-2.9-3.31-1.82,3,2.36,3,2.36-2.77-.77-2.77.3,2.87.51,2.87.51a69.59,69.59,0,0,1,3.27,18.51c.27,9.8-2.68,36.12-2.68,36.12Z"/><path class="cls-96" d="M233.58,143c-.7-2.57-4.71-7.07-12.26-8.34,0,0-11-.13-13.52,0-3.59.73-9,2.39-11.43,5.14l0,.07c-5.51,6.87,3.33,34.42,1.33,42a8.43,8.43,0,0,1-6.49,6.09c6.82,19.73,30.41,24.35,36.66,19.39C241.69,196.46,236.79,154.71,233.58,143Z"/><path class="cls-93" d="M196.21,92.08c-5.15,5.35,3.51,11.23,3.51,11.23l-.4-1.6a9,9,0,0,0,5.47,2.8c3.47.4-1.74-8.41-1.74-8.41Z"/><path class="cls-93" d="M226,96.24a3.89,3.89,0,0,0,.69-2.27,5.68,5.68,0,0,0-.47-2.34,3,3,0,0,1,1.6,2.47,2.79,2.79,0,0,1-1.51,2.39Z"/><path class="cls-77" d="M199.15,139.52c13.83,1-5.64,47.35-15.34,41.45-4.45-2.71.63-11.11,4.05-20.13S195.38,139.24,199.15,139.52Z"/><path class="cls-77" d="M185.94,181.45c-6.29,1.25-17.24-11.32-22.75-12.37a3.23,3.23,0,0,1,2.65-2.48s10.18,2.21,18,4.13C194.47,173.36,185.94,181.45,185.94,181.45Z"/><path class="cls-90" d="M156.13,167.74s-.7-.24-1.84,1.06c-.76.86-1.33,2.38-.82,2.54s.92-1,1.48-1.68a5.79,5.79,0,0,1,2.4-1.71Z"/><path class="cls-90" d="M157.86,167.74s-.7-.24-1.84,1.06c-.76.86-1.38,2.38-.86,2.54s1.08-1.15,1.74-1.76a5.44,5.44,0,0,1,2.11-1.34Z"/><path class="cls-90" d="M159.46,168.1s-.68-.24-1.81,1c-.75.86-1.55,2-1,2.2s1.21-.89,1.86-1.48a6.71,6.71,0,0,1,2.09-1.42Z"/><path class="cls-77" d="M165.84,166.6a24.82,24.82,0,0,0-5.9-.73c-3.5.3-5.23,1-5,1.61s2.53,1.3,4.48,1.52c1.45.16,3.31-.11,3.74.08C164.59,168.86,165.84,166.6,165.84,166.6Z"/><path class="cls-77" d="M155.63,166.71a6.58,6.58,0,0,0-2.57,1.67c-1.13,1.36-1.47,2.84-1,3,.59.17.54-.89,2.06-2.21a3.08,3.08,0,0,1,2.68-1Z"/><path class="cls-47" d="M209.7,110.38s-1.89-17.91,10.88-19.58l-4.25-.52s-10.34.78-9.91,18.35Z"/><path class="cls-97" d="M220.78,97.23c10.7-.8,10.6,10.11-.2,11.21C211.87,109.33,207,98.26,220.78,97.23Z"/><path class="cls-97" d="M196.06,92.26c-.52.69-2.11,3.45,2,7.57l-.5-2.2a6.16,6.16,0,0,0,5.61,2.1c3.78-.39,4.39-8.47,11.52-9.85-8.29-2-15.73-.49-18.46,2.21h0a2.09,2.09,0,0,0-.14.17Z"/><rect class="cls-47" x="206.66" y="121.65" width="1.6" height="2.67"/><path class="cls-47" d="M201.18,117.15c.91,4,4.06,6.69,7,6s4.66-4.47,3.75-8.47-4.06-6.69-7-6S200.27,113.15,201.18,117.15Z"/><path class="cls-51" d="M201,117c.77,3.41,3.46,5.7,6,5.13s4-3.81,3.19-7.21-3.46-5.7-6-5.13S200.18,113.56,201,117Z"/><path class="cls-50" d="M205,115.09c1.09,1.88,2.76,2.94,3.75,2.37s.9-2.55-.18-4.42-2.76-2.94-3.75-2.37S203.9,113.22,205,115.09Z"/><path class="cls-50" d="M207.28,119.3c-.16.6,0,1.17.41,1.28s.83-.3,1-.9,0-1.17-.41-1.27S207.44,118.7,207.28,119.3Z"/><path class="cls-47" d="M200.24,127.42c.17.48-.32,1.08-1.08,1.34s-1.51.08-1.68-.4.32-1.08,1.08-1.34S200.08,126.94,200.24,127.42Z"/><path class="cls-47" d="M196.47,129.84a.34.34,0,0,1-.31-.21.56.56,0,0,1,0-.34c.07-.14.27-.57,2.3-1.25a.34.34,0,0,1,.42.21.34.34,0,0,1-.21.42,4.91,4.91,0,0,0-1.9.88.31.31,0,0,1-.21.27Zm.31-.44Zm0,0h0Z"/><path class="cls-47" d="M197.49,130.08c-.64,0-1.11-.09-1.29-.32a.34.34,0,0,1,.06-.47.32.32,0,0,1,.46.06c.57.4,6.19-.5,9.06-2,.86-.45,1.36-.91,1.36-1.26v-2.27a.32.32,0,0,1,.33-.33.33.33,0,0,1,.33.33v2.27c0,.94-1.25,1.84-3.73,2.69A26.2,26.2,0,0,1,197.49,130.08Z"/><path class="cls-98" d="M201,201.79c9.67,7.8,22.51,9.05,26.89,5.58,13.78-10.91,8.88-52.66,5.67-64.39-.7-2.57-4.71-7.07-12.26-8.34,0,0-11-.13-13.52,0-3.59.73-9,2.39-11.43,5.14,0,0,8.44,3.38-.34,22.83a126.43,126.43,0,0,1,2,17,58.87,58.87,0,0,0,8.7-18.06S209.3,197.86,201,201.79Z"/><path class="cls-90" d="M185.81,181.59c5.63-.61,11.55-11.48,13.71-16.89l-10.7-6.51c-.32.92-.65,1.81-1,2.65s-.7,1.74-1.06,2.6v.07l6.8,5s-4,10.67-8,10.87-17.64-11-22.36-10.27C168.81,170.16,178.52,182.05,185.81,181.59Z"/><path class="cls-96" d="M196.37,139.78c-3.18,1.91-7.58,13.21-10.82,20.45l14.09,9.66s10.27-19.2,3.35-29.17C200.4,137,196.37,139.78,196.37,139.78Z"/><path class="cls-98" d="M199.64,169.89s10.36-19.29,3.44-29.26c-2.58-3.73-6.71-.85-6.71-.85s11.84-5.26-1.14,27.09Z"/><path class="cls-92" d="M205.87,135.09s2.76,1.06,10.16,1c5.39,0,7.73-.95,7.73-.95A28.86,28.86,0,0,0,205.87,135.09Z"/><g id="chair"><rect class="cls-99" x="218.76" y="265.78" width="0.34" height="3.7" transform="translate(437.86 535.27) rotate(180)"/><rect class="cls-99" x="221.67" y="265.78" width="0.34" height="3.7" transform="translate(443.67 535.27) rotate(180)"/><rect class="cls-47" x="220.5" y="265.22" width="1.33" height="4.82" transform="translate(442.32 535.27) rotate(180)"/><rect class="cls-47" x="218.93" y="265.22" width="1.33" height="4.82" transform="translate(439.19 535.27) rotate(180)"/><rect class="cls-47" x="219.6" y="265.78" width="1.33" height="3.7" transform="translate(440.53 535.27) rotate(180)"/><rect class="cls-100" x="220.66" y="265.49" width="0.99" height="2.07" transform="translate(442.32 533.06) rotate(180)"/><rect class="cls-100" x="219.04" y="265.49" width="1.11" height="2.07" transform="translate(439.19 533.06) rotate(180)"/><path class="cls-47" d="M234.07,267.67a2.38,2.38,0,1,0,2.38-2.37A2.38,2.38,0,0,0,234.07,267.67Z"/><path class="cls-99" d="M235.17,267.67a1.28,1.28,0,1,0,1.28-1.28A1.28,1.28,0,0,0,235.17,267.67Z"/><path class="cls-47" d="M202,267.67a2.37,2.37,0,1,0,2.37-2.37A2.37,2.37,0,0,0,202,267.67Z"/><path class="cls-99" d="M203,267.67a1.28,1.28,0,1,0,1.28-1.28A1.28,1.28,0,0,0,203,267.67Z"/><rect class="cls-101" x="199.06" y="239.47" width="42.64" height="3.28" transform="translate(461.49 20.73) rotate(90)"/><rect class="cls-102" x="200.1" y="240.51" width="42.64" height="1.2" transform="translate(462.53 19.68) rotate(90)"/><polygon class="cls-102" points="218.59 230.26 215.98 217.98 224.79 217.98 222.18 230.26 218.59 230.26"/><polygon class="cls-101" points="238.82 265.5 201.95 265.5 201.95 264.48 216.76 262.01 224.01 262.01 238.82 264.48 238.82 265.5"/><polygon class="cls-101" points="224.87 262.43 215.9 262.43 217.56 251.95 223.21 251.95 224.87 262.43"/><path class="cls-47" d="M227.54,227.9a2.64,2.64,0,0,1-.87-.12c-1.82-.66-1.45-6.32-1.4-7a.27.27,0,0,1,.28-.25h0a.27.27,0,0,1,.25.29c-.17,2.27,0,6,1,6.4,1.3.46,6.23-1,8-1.67a.28.28,0,0,1,.18.52C234.46,226.31,229.86,227.9,227.54,227.9Z"/><path class="cls-47" d="M236.42,223.71c-1.19.31-3,1.59-2.71,2.51s2.41,1.17,3.6.85a1.79,1.79,0,1,0-.89-3.36Z"/><polygon class="cls-102" points="223.21 251.95 217.56 251.95 221.1 253.53 222.2 265.5 238.82 265.5 238.82 264.48 224.88 262.15 223.21 251.95"/><path class="cls-47" d="M184.51,210.27h55.22a0,0,0,0,1,0,0v5.49a5.33,5.33,0,0,1-5.33,5.33H190a5.51,5.51,0,0,1-5.51-5.51v-5.32A0,0,0,0,1,184.51,210.27Z" transform="translate(424.23 431.36) rotate(180)"/><path class="cls-51" d="M234.22,210.27a5.42,5.42,0,0,1,5.3,4.49H184.68a5.25,5.25,0,0,1,5.16-4.49Z"/><path class="cls-47" d="M211.54,168.8l.06-.3.07-1.83c.58-9.86.82-17.84.9-21.72l.1-2.36a10.22,10.22,0,0,1,10.18-9.79h22.06A9.8,9.8,0,0,1,254.74,143s-.19,11.85-1.05,25.47c-.3,4.78-4.14,52.59-17.32,52.59H199.55l3.92-9.82C209.2,197.35,211.25,173.11,211.54,168.8Z"/><path class="cls-51" d="M218.32,168.8l.05-.3,0-1.83c.41-9.86.49-17.84.51-21.72l.05-2.36a10,10,0,0,1,10-9.79H251a10,10,0,0,1,10,10.23c0,16.61-.24,78.06-17,78.06H209.29l1.7-9.82C216.48,197.35,218.1,173.11,218.32,168.8Z"/><path class="cls-47" d="M239.13,194a46.23,46.23,0,0,1-22.75-5.89c-1.12,7.91-2.84,16.63-5.39,23.12l-1.7,9.82h34.77c8,0,12.26-14.41,14.5-31.24A46.7,46.7,0,0,1,239.13,194Z"/><rect class="cls-103" x="221.09" y="136.48" width="37.35" height="16.9" rx="5.86" transform="translate(479.54 289.86) rotate(180)"/><path class="cls-102" d="M184.21,192.53v28.56h15.57c11.12,0,14.13-28.56,14.13-28.56Zm2.63,2.53H211s-2.44,23.21-11.48,23.21H186.84Z"/><path class="cls-101" d="M185.63,192.53v28.56H201.2c11.12,0,14.13-28.56,14.13-28.56Zm2.63,2.53h24.15s-2.45,23.21-11.49,23.21H188.26Z"/><path class="cls-102" d="M214.55,197.75H212c.26-1.63.38-2.69.38-2.69H188.26v2.69h-2.63v-5.22h29.7S215.1,194.68,214.55,197.75Z"/><path class="cls-47" d="M180.36,189c.89-1,35.54-.65,35.54-.65l-.66,5.1H179.75S179.47,190,180.36,189Z"/></g><path class="cls-104" d="M87.68,169.92A3.38,3.38,0,0,1,87,170c-1.85,0-2.83-1.42-2.83-3.16s1-3.17,2.83-3.17a3.38,3.38,0,0,1,.72.08v-1.33a5.57,5.57,0,0,0-.83-.07c-2.62,0-4,2-4,4.49s1.39,4.48,4,4.48a4.5,4.5,0,0,0,.83-.07Z"/><path class="cls-105" d="M82.84,166.66v.18c0,2.47,1.39,4.48,4,4.48a4.5,4.5,0,0,0,.83-.07v-.36a5.57,5.57,0,0,1-.83.07C84.29,171,82.91,169.05,82.84,166.66Z"/><path class="cls-105" d="M84.13,166.47c0,.07,0,.12,0,.19a2.8,2.8,0,0,1,2.82-3,3.38,3.38,0,0,1,.72.08v-.36a3.38,3.38,0,0,0-.72-.08C85.11,163.31,84.13,164.73,84.13,166.47Z"/><rect class="cls-104" x="87.41" y="159.96" width="10.22" height="13.75"/><rect class="cls-106" x="92.38" y="159.96" width="5.25" height="13.75"/><rect class="cls-105" x="94.07" y="159.96" width="2.77" height="13.75"/><rect class="cls-107" x="87.41" y="159.96" width="10.22" height="0.6"/><path class="cls-107" d="M88.13,160.32h3.44s-1.36,7.33-2,7.33S88.13,160.32,88.13,160.32Z"/><path class="cls-107" d="M88.76,173.26h1.95s-.75-2.44-1.18-2.44S88.76,173.26,88.76,173.26Z"/><rect class="cls-105" x="87.41" y="173.4" width="10.22" height="0.31"/><rect class="cls-9" y="256.05" width="46.23" height="7.45"/><rect class="cls-47" x="28.04" y="166.23" width="8.64" height="97.26"/><rect class="cls-51" x="34.55" y="166.23" width="15.86" height="97.26"/><path class="cls-80" d="M48.06,177.49a4.63,4.63,0,1,1-4.63-4.63A4.63,4.63,0,0,1,48.06,177.49Z"/><path class="cls-80" d="M48.06,193.49a4.63,4.63,0,1,1-4.63-4.63A4.62,4.62,0,0,1,48.06,193.49Z"/><path class="cls-79" d="M48.06,208.09a4.63,4.63,0,1,1-4.63-4.63A4.62,4.62,0,0,1,48.06,208.09Z"/><path class="cls-78" d="M45.91,177.49A2.48,2.48,0,1,1,43.43,175,2.48,2.48,0,0,1,45.91,177.49Z"/><path class="cls-78" d="M45.91,193.49A2.48,2.48,0,1,1,43.43,191,2.48,2.48,0,0,1,45.91,193.49Z"/><path class="cls-78" d="M48.06,208.09a4.63,4.63,0,1,1-4.63-4.63A4.62,4.62,0,0,1,48.06,208.09Z"/><rect class="cls-49" x="34.55" y="166.23" width="1.64" height="97.26"/><rect class="cls-47" x="34.55" y="246.35" width="15.86" height="1.93"/><rect class="cls-51" x="34.55" y="246.35" width="1.51" height="1.93"/><rect class="cls-47" x="34.55" y="252.73" width="15.86" height="1.93"/><rect class="cls-51" x="34.55" y="252.73" width="1.51" height="1.93"/></g><text class="cls-108" transform="translate(6 284.67)">Designed <tspan class="cls-109" x="74.14" y="0">b</tspan><tspan class="cls-110" x="83.67" y="0">y mac</tspan><tspan class="cls-109" x="129.1" y="0">r</tspan><tspan class="cls-111" x="135.31" y="0">ov</tspan><tspan x="152.52" y="0">ec</tspan><tspan class="cls-112" x="170.22" y="0">t</tspan><tspan class="cls-113" x="175.99" y="0">o</tspan><tspan x="185.07" y="0">r / F</tspan><tspan class="cls-114" x="216.06" y="0">r</tspan><tspan class="cls-115" x="221.89" y="0">ee</tspan><tspan class="cls-116" x="240.16" y="0">p</tspan><tspan x="249.6" y="0">ik</tspan></text></g></g></g></svg>