<svg xmlns="http://www.w3.org/2000/svg" viewBox="0 0 355.39 483.43"><defs><style>.cls-1,.cls-23,.cls-4{fill:#fff;}.cls-2{fill:#5795b8;stroke:#fff;stroke-width:3px;}.cls-10,.cls-23,.cls-24,.cls-3,.cls-4{isolation:isolate;}.cls-4{font-size:40px;font-family:QuicksandBold-Regular, Quicksand;}.cls-5{letter-spacing:-0.02em;}.cls-6{letter-spacing:-0.02em;}.cls-7{fill:#324249;}.cls-8{fill:#cfcfd1;}.cls-9{fill:#f5ccab;}.cls-10,.cls-21,.cls-23{opacity:0.3;}.cls-11{fill:#54d3e8;}.cls-12{fill:#ffa400;}.cls-13{fill:#e8bb97;}.cls-14{fill:#ffd4b3;}.cls-15{fill:#5a666e;}.cls-16{fill:#9cdfe5;}.cls-17{fill:#7a8789;}.cls-18{fill:#313131;}.cls-19{fill:#ffdab8;}.cls-20{fill:#616161;}.cls-22{fill:#f1f1f1;}.cls-24{opacity:0.2;}</style></defs><g id="Capa_2" data-name="Capa 2"><g id="Background"><g id="Componente_7_12" data-name="Componente 7 12"><g id="Trazado_412" data-name="Trazado 412"><path class="cls-1" d="M326.51,481.93h-297A26.48,26.48,0,0,1,3,455.43v-426a26.46,26.46,0,0,1,26.5-26.5h297A26.51,26.51,0,0,1,353,29.43v426a26.49,26.49,0,0,1-7.77,18.74,26.38,26.38,0,0,1-18.73,7.76Z"/><path class="cls-1" d="M29.51,4.43a25,25,0,0,0-25,25v426a25,25,0,0,0,25,25h297a25,25,0,0,0,25-25v-426a25,25,0,0,0-25-25h-297m0-3h297a28,28,0,0,1,28,28v426a28,28,0,0,1-28,28h-297a28,28,0,0,1-28-28v-426A28,28,0,0,1,29.51,1.43Z"/></g><path id="Trazado_410-2" data-name="Trazado 410-2" class="cls-2" d="M1.51,127C7.25,106.4,19,79.87,45.57,79.87H353.89v-50c-.44-19.7-15.48-29.45-32.73-28.12-38.63.1-287.39,0-287.39,0S1.09-3.66,1.5,35.65,1.51,127,1.51,127Z"/><g id="No_inmersiva-2" data-name="No inmersiva-2" class="cls-3"><text class="cls-4" transform="translate(47.51 54.43)">No inm<tspan class="cls-5" x="141.64" y="0">e</tspan><tspan x="165.16" y="0">rsi</tspan><tspan class="cls-6" x="213.64" y="0">v</tspan><tspan x="235.92" y="0">a</tspan></text></g></g><g id="Grupo_647" data-name="Grupo 647"><g id="Grupo_646" data-name="Grupo 646"><rect id="Rectángulo_553" data-name="Rectángulo 553" class="cls-7" x="44.51" y="143.43" width="267.93" height="173.22"/><g id="Grupo_626" data-name="Grupo 626"><rect id="Rectángulo_554" data-name="Rectángulo 554" class="cls-8" x="59.9" y="158.83" width="118.57" height="142.39"/><g id="Grupo_624" data-name="Grupo 624"><path id="Trazado_982" data-name="Trazado 982" class="cls-9" d="M150.5,267.05l-3.82,2.25-27.49,31.92L91.7,269.3l-3.82-2.45v-5.34s8.05-2,12.8-3.11,8.55-4.1,8.55-6.7v-9h19.92v9c0,2.6,3.83,5.6,8.56,6.7l12.79,3.11Z"/><path id="Trazado_983" data-name="Trazado 983" class="cls-10" d="M129.15,242.71v3c-3.45,3-7,4.79-10,4.79s-6.45-1.87-10-5v-2.73Z"/><path id="Trazado_984" data-name="Trazado 984" class="cls-11" d="M159.62,264.34l-9.12-2.83c-2.34,7.2-15.46,12.73-31.31,12.73s-29-5.53-31.32-12.73l-9.11,2.83a7.85,7.85,0,0,0-2.27,1.2,9.87,9.87,0,0,0-4,7.54v28.14h93.48V273.08A9.82,9.82,0,0,0,159.62,264.34Z"/><path id="Trazado_985" data-name="Trazado 985" class="cls-12" d="M91.38,212.79c0-19.23,12.45-31.5,27.82-31.5S147,193.56,147,212.79s-12.45,14.44-27.82,14.44S91.38,232,91.38,212.79Z"/><path id="Trazado_986" data-name="Trazado 986" class="cls-12" d="M147,212.79c-.09,3.4-.3,22.55-15.07,38.79,5.82-20.4-3.13-41.21-3.13-41.21Z"/><path id="Trazado_987" data-name="Trazado 987" class="cls-12" d="M91.35,212.79a53.45,53.45,0,0,0,15.08,38.79c-5.82-20.4,3.12-41.21,3.12-41.21Z"/><path id="Trazado_988" data-name="Trazado 988" class="cls-13" d="M138.25,215.86c.68-1.42.84-2.62,1.83-2.68,1.66-.09-1,13.94-2.83,15.25C136.42,226.53,138.25,215.86,138.25,215.86Z"/><path id="Trazado_989" data-name="Trazado 989" class="cls-13" d="M100.37,215.86c-.68-1.42-.83-2.62-1.82-2.68-1.67-.09,1,13.94,2.82,15.25C102.2,226.53,100.37,215.86,100.37,215.86Z"/><path id="Trazado_990" data-name="Trazado 990" class="cls-14" d="M139.37,205.56c-.43-4-1-16.79-20.18-16.79h-.13c-19.08.06-19.61,12.78-20,16.78s2.3,25.45,4.51,31.15,11,12,15.52,12.13h.13c4.45,0,13.44-6.43,15.66-12.14S139.79,209.57,139.37,205.56Z"/><path id="Trazado_991" data-name="Trazado 991" class="cls-12" d="M140.85,210.57V194.51c-1.9-1.64-5.65-6.28-7.86-7.41H105.41a15.88,15.88,0,0,0-3.25,2.7c2.17,6.37,7.52,11.41,14.65,15a4.21,4.21,0,0,0,1.19.57,61.07,61.07,0,0,0,15,4.57Z"/><path id="Trazado_992" data-name="Trazado 992" class="cls-12" d="M107.1,188.11c12.54-.48,1.47,17.4-8.67,23.74C91,203.15,98,188.45,107.1,188.11Z"/></g><g id="Grupo_625" data-name="Grupo 625"><path id="Trazado_993" data-name="Trazado 993" class="cls-15" d="M78.71,184.84H76.47V170.72H90.59V173H78.71Z"/><path id="Trazado_994" data-name="Trazado 994" class="cls-15" d="M161.92,184.84h-2.24V173H147.79v-2.24h14.13Z"/><path id="Trazado_995" data-name="Trazado 995" class="cls-15" d="M161.92,256.18H147.79v-2.24h11.89V242.06h2.24Z"/><path id="Trazado_996" data-name="Trazado 996" class="cls-15" d="M90.58,256.18H76.47V242.06h2.24v11.88H90.59Z"/></g></g><g id="Grupo_636" data-name="Grupo 636"><rect id="Rectángulo_555" data-name="Rectángulo 555" class="cls-16" x="178.48" y="158.84" width="118.54" height="142.4"/><g id="Grupo_634" data-name="Grupo 634"><g id="Grupo_628" data-name="Grupo 628"><g id="Grupo_627" data-name="Grupo 627"><path id="Trazado_997" data-name="Trazado 997" class="cls-9" d="M257.14,248.69l11.22,22.06-31,23.32L204.88,269.8l13.21-21.11,3.32-12.33h32.41Z"/></g></g><path id="Trazado_998" data-name="Trazado 998" class="cls-17" d="M297,271.68v29.56H178.48v-30c1.49-7.89,3.24-13.65,5.46-14.86l-.07-.12,34.22-7.61c.86,21.6,19.42,37.75,19.51,37.75s18.68-16.15,19.54-37.75l34.21,7.61C293.67,257.29,295.51,263.35,297,271.68Z"/><g id="Grupo_633" data-name="Grupo 633"><g id="Grupo_630" data-name="Grupo 630"><g id="Grupo_629" data-name="Grupo 629"><path id="Trazado_999" data-name="Trazado 999" class="cls-18" d="M259.25,180.64v5.67c-.74,2.41-2.25,4.25-3.84,3.34l-.13-.07c-3.48-2.32-10.51-3.65-17.66-3.71-6.84-.06-13.78,1-17.84,3.57l-.13.08c-1.14.73-2.69-.42-3.66-2.31l-.06-.1v-7a7.06,7.06,0,0,1,.42-.64c7-9.53,36.15-8.6,42.36.19.16.22.28.44.42.66A1.59,1.59,0,0,1,259.25,180.64Z"/></g></g><path id="Trazado_1000" data-name="Trazado 1000" class="cls-19" d="M237.62,185H216v45.25l13.74,12.42H245.5l13.75-12.42V185Z"/><path id="Trazado_1001" data-name="Trazado 1001" class="cls-18" d="M257,223.7c-.26,1-14.68,14.08-15.72,14.08H234c-1.05,0-15.48-13.07-15.73-14.08l-2.3-9.12.05,18.1a2.88,2.88,0,0,0,1,2.06l20.61,16,20.63-16a3,3,0,0,0,1-2.06v-18.1Z"/><path id="Trazado_1002" data-name="Trazado 1002" class="cls-18" d="M246.17,226.12a4.81,4.81,0,0,0-4.21-3h-8.69a4.8,4.8,0,0,0-4.2,3l-2.27,6.3,4-3.4a6,6,0,0,1,3.32-1.22h7a5.86,5.86,0,0,1,3.31,1.22l4,3.4Z"/><g id="Grupo_631" data-name="Grupo 631"><path id="Trazado_1003" data-name="Trazado 1003" class="cls-20" d="M259.25,180.64v21.94l-1.92,3.9V194.09l-1.92,3.54V184.3l3.3-4.59c.16.22.28.44.42.66A1.59,1.59,0,0,1,259.25,180.64Z"/></g><g id="Grupo_632" data-name="Grupo 632"><path id="Trazado_1004" data-name="Trazado 1004" class="cls-20" d="M215.93,180.16v22.41l.06.1,1.87,3.8V194.09l1.92,3.54V184.3l-3.43-4.78Z"/></g></g></g><g id="Grupo_635" data-name="Grupo 635"><path id="Trazado_1005" data-name="Trazado 1005" class="cls-15" d="M197.27,184.84H195V170.72h14.12V173H197.27Z"/><path id="Trazado_1006" data-name="Trazado 1006" class="cls-15" d="M280.48,184.84h-2.24V173H266.36v-2.24h14.12Z"/><path id="Trazado_1007" data-name="Trazado 1007" class="cls-15" d="M280.48,256.18H266.36v-2.24h11.88V242.06h2.24Z"/><path id="Trazado_1008" data-name="Trazado 1008" class="cls-15" d="M209.15,256.18H195V242.06h2.24v11.88h11.88Z"/></g></g><path id="Trazado_1009" data-name="Trazado 1009" class="cls-10" d="M63.83,162.76H297v-3.94H59.91v142.4h3.92Z"/><g id="Grupo_639" data-name="Grupo 639"><g id="Grupo_637" data-name="Grupo 637"><path id="Trazado_1010" data-name="Trazado 1010" class="cls-11" d="M174.12,304h8.68c2.62,0,4.74,1.77,4.74,3.95s-2.12,3.94-4.74,3.94h-8.68c-2.62,0-4.74-1.76-4.74-3.94S171.5,304,174.12,304Z"/></g><g id="Grupo_638" data-name="Grupo 638" class="cls-21"><path id="Trazado_1011" data-name="Trazado 1011" d="M182.8,311.1h-8.68c-2.45,0-4.45-1.56-4.69-3.55a2.73,2.73,0,0,0-.05.4c0,2.18,2.12,3.95,4.74,3.95h8.68c2.62,0,4.74-1.77,4.74-3.95a2.91,2.91,0,0,0,0-.4C187.25,309.54,185.25,311.1,182.8,311.1Z"/></g></g><g id="Grupo_641" data-name="Grupo 641"><g id="Grupo_640" data-name="Grupo 640"><circle id="Elipse_157" data-name="Elipse 157" class="cls-7" cx="177" cy="150.88" r="6.93"/><path id="Trazado_1012" data-name="Trazado 1012" class="cls-22" d="M177,144.15a6.73,6.73,0,1,0,6.73,6.73h0A6.75,6.75,0,0,0,177,144.15Z"/></g><path id="Trazado_1013" data-name="Trazado 1013" class="cls-11" d="M182.75,150.88a5.75,5.75,0,1,1-5.75-5.75h0A5.74,5.74,0,0,1,182.75,150.88Z"/><path id="Trazado_1014" data-name="Trazado 1014" class="cls-22" d="M177,153.22a2.35,2.35,0,1,1,2.35-2.35h0A2.35,2.35,0,0,1,177,153.22Zm0-4.26a1.92,1.92,0,1,0,1.93,1.92A1.94,1.94,0,0,0,177,149Z"/><path id="Trazado_1015" data-name="Trazado 1015" class="cls-22" d="M177.94,150.88a.94.94,0,0,1-.94.93.94.94,0,1,1,.94-.94Z"/><path id="Trazado_1016" data-name="Trazado 1016" class="cls-23" d="M172.46,149.23a5.2,5.2,0,0,0-.27,1.23h1.69a4.36,4.36,0,0,1,.11-.52Z"/><path id="Trazado_1017" data-name="Trazado 1017" class="cls-23" d="M174.35,149.18a3.14,3.14,0,0,1,2.23-1.42v-1.69a4.79,4.79,0,0,0-3.77,2.41Z"/></g><g id="Grupo_645" data-name="Grupo 645"><g id="Grupo_644" data-name="Grupo 644"><path id="Trazado_1018" data-name="Trazado 1018" class="cls-15" d="M146.58,342.25v-4.14c0-3.56,3.56-3.38,8-3.38h47.84c4.4,0,8-.18,8,3.38v4.14Z"/><g id="Grupo_643" data-name="Grupo 643"><rect id="Rectángulo_556" data-name="Rectángulo 556" class="cls-7" x="146.58" y="339.9" width="63.78" height="2.34"/><g id="Grupo_642" data-name="Grupo 642"><rect id="Rectángulo_557" data-name="Rectángulo 557" class="cls-17" x="157.06" y="316.65" width="42.82" height="18.08"/><rect id="Rectángulo_558" data-name="Rectángulo 558" class="cls-24" x="157.06" y="332.95" width="42.82" height="1.78"/></g></g></g><rect id="Rectángulo_559" data-name="Rectángulo 559" class="cls-24" x="157.06" y="316.65" width="42.82" height="3.12"/></g></g></g></g></g></svg>