<svg xmlns="http://www.w3.org/2000/svg" viewBox="0 0 355.39 483.43"><defs><style>.cls-1,.cls-4{fill:#fff;}.cls-2{fill:#5795b8;stroke:#fff;stroke-width:3px;}.cls-14,.cls-3,.cls-4{isolation:isolate;}.cls-4{font-size:40px;font-family:QuicksandBold-Regular, Quicksand;}.cls-5{letter-spacing:-0.02em;}.cls-6{letter-spacing:0em;}.cls-7{letter-spacing:-0.02em;}.cls-8{fill:#ffca9f;}.cls-9{fill:#ffa177;}.cls-10{fill:#001c22;}.cls-11{fill:#99c5d0;}.cls-12,.cls-14{fill:#005368;}.cls-13{fill:#003845;}.cls-14{opacity:0.5;}.cls-15{fill:#338ca1;}.cls-16{fill:#cce2e8;}</style></defs><g id="Capa_2" data-name="Capa 2"><g id="Background"><g id="Componente_7_13" data-name="Componente 7 13"><g id="Trazado_412" data-name="Trazado 412"><path class="cls-1" d="M326.51,481.93h-297A26.48,26.48,0,0,1,3,455.43v-426a26.46,26.46,0,0,1,26.5-26.5h297A26.51,26.51,0,0,1,353,29.43v426a26.49,26.49,0,0,1-7.77,18.74,26.38,26.38,0,0,1-18.73,7.76Z"/><path class="cls-1" d="M29.51,4.43a25,25,0,0,0-25,25v426a25,25,0,0,0,25,25h297a25,25,0,0,0,25-25v-426a25,25,0,0,0-25-25h-297m0-3h297a28,28,0,0,1,28,28v426a28,28,0,0,1-28,28h-297a28,28,0,0,1-28-28v-426A28,28,0,0,1,29.51,1.43Z"/></g><path id="Trazado_410-2" data-name="Trazado 410-2" class="cls-2" d="M1.51,127C7.25,106.4,19,79.87,45.57,79.87H353.89v-50c-.44-19.7-15.48-29.45-32.73-28.12-38.63.1-287.39,0-287.39,0S1.09-3.66,1.5,35.65,1.51,127,1.51,127Z"/><g id="Semi-inmersiva-2" class="cls-3"><text class="cls-4" transform="translate(23.51 54.43)">Semi-inm<tspan class="cls-5" x="190.44" y="0">e</tspan><tspan class="cls-6" x="213.96" y="0">rsi</tspan><tspan class="cls-7" x="262.44" y="0">v</tspan><tspan class="cls-6" x="284.72" y="0">a</tspan></text></g></g><g id="Grupo_650" data-name="Grupo 650"><g id="Grupo_648" data-name="Grupo 648"><path id="Trazado_1019" data-name="Trazado 1019" class="cls-8" d="M97.5,341.83S115.2,299.35,113,290.5s-37.17-33.19-37.17-86.73,47.79-71.69,78.77-71.69,55.75,14.16,60.62,21.24,24.79,88.5,22.57,91.6-9.73,3.54-9.29,8,5.31,25.23,1.33,33.64-29.65,6.19-33.19,15S182,341.83,182,341.83Z"/><path id="Trazado_1020" data-name="Trazado 1020" class="cls-9" d="M138.8,341.83H182s11.06-31.42,14.6-40.27,29.2-6.64,33.19-15c1.41-3,1.7-7.57,1.47-12.4A16.31,16.31,0,0,1,219.18,287c-10.62,2.66-74.34,5.32-74.78,9.3s12.39,12.39,10.62,21.24S138.8,341.83,138.8,341.83Z"/><path id="Trazado_1021" data-name="Trazado 1021" class="cls-9" d="M228.48,252.88c-.44-4.42,7.08-4.86,9.29-8s-17.7-84.52-22.57-91.6c-2.93-4.27-13.13-11.09-27.53-15.85,3.88,4.57,8.12,10.73,10,17.47,3.84,13.87,4.72,58.12,4.72,58.12l-68.15,6.2L116.4,249.1s5.43,15.88,26.67,16.18,29.5-14.16,32.46-14.16,6.11,3.54,9.54,4.13c2.27.39,26.91-1.15,43.42-2.24C228.49,253,228.48,252.92,228.48,252.88Z"/></g><g id="Grupo_649" data-name="Grupo 649"><path id="Trazado_1022" data-name="Trazado 1022" class="cls-10" d="M273.53,242.71H200.47a28.13,28.13,0,0,1-27.95-25l-1.47-13.24a28.13,28.13,0,0,1,22.26-30.65l67.37-13.91a13.87,13.87,0,0,1,16.37,10.77c.07.36.13.73.18,1.1l7.24,58.57a11,11,0,0,1-9.58,12.29A10.24,10.24,0,0,1,273.53,242.71Z"/><path id="Trazado_1023" data-name="Trazado 1023" class="cls-11" d="M284.56,228.14H229a18.27,18.27,0,0,1-18.15-16.24l-1-8.6a18.25,18.25,0,0,1,14.45-19.9l53.3-11Z"/><path id="Trazado_1024" data-name="Trazado 1024" class="cls-12" d="M178.82,224.56l-1.47-13.25a28.12,28.12,0,0,1,22.26-30.64L267,166.76a13.78,13.78,0,0,1,9.26,1.33,13.84,13.84,0,0,0-15.55-8.2L193.32,173.8a28.11,28.11,0,0,0-22.26,30.64l1.47,13.25a28,28,0,0,0,10.61,19A28,28,0,0,1,178.82,224.56Z"/><rect id="Rectángulo_560" data-name="Rectángulo 560" class="cls-10" x="127.29" y="123.23" width="23.01" height="76.56"/><path id="Rectángulo_561" data-name="Rectángulo 561" class="cls-12" d="M123.14,120.43h30.8a1.74,1.74,0,0,1,1.75,1.74h0v31.34a1,1,0,0,1-1,1H122.38a1,1,0,0,1-1-1h0V122.17A1.74,1.74,0,0,1,123.14,120.43Z"/><rect id="Rectángulo_562" data-name="Rectángulo 562" class="cls-12" x="117.41" y="195.86" width="75.23" height="30.28"/><path id="Trazado_1025" data-name="Trazado 1025" class="cls-10" d="M87.25,163.8l39.23,32.06-9.07,39.54H79.22a4.18,4.18,0,0,1-4.1-3.33l-3.54-17a3.4,3.4,0,0,1,2.63-4,3.26,3.26,0,0,1,.7-.07H89.39a8,8,0,0,0,7.74-5.9h0a8,8,0,0,0-3-8.6L76.23,183.31a2.92,2.92,0,0,1-.87-3.64l7.46-14.92a2.9,2.9,0,0,1,3.89-1.3A3,3,0,0,1,87.25,163.8Z"/><ellipse id="Elipse_158" data-name="Elipse 158" class="cls-13" cx="138.8" cy="219.89" rx="34.63" ry="41.65"/><ellipse id="Elipse_159" data-name="Elipse 159" class="cls-14" cx="131.53" cy="219.89" rx="25.35" ry="37.78"/><path id="Trazado_1026" data-name="Trazado 1026" class="cls-15" d="M192.44,229.24h0a2.63,2.63,0,0,1-2.62-2.61v-31a2.63,2.63,0,0,1,2.62-2.61h0a2.61,2.61,0,0,1,2.61,2.61v31A2.61,2.61,0,0,1,192.44,229.24Z"/><ellipse id="Elipse_160" data-name="Elipse 160" class="cls-12" cx="138.8" cy="219.89" rx="21.58" ry="25.96"/><path id="Trazado_1027" data-name="Trazado 1027" class="cls-15" d="M121.39,219.89c0-13.49,8.56-24.57,19.49-25.83a16.13,16.13,0,0,0-2.08-.13c-11.92,0-21.58,11.62-21.58,26s9.66,26,21.58,26a18,18,0,0,0,2.08-.13C130,244.46,121.39,233.38,121.39,219.89Z"/><path id="Trazado_1028" data-name="Trazado 1028" class="cls-16" d="M243.2,179.5l5.18,48.63h24.16L265.12,175Z"/></g></g></g></g></svg>