<svg xmlns="http://www.w3.org/2000/svg" viewBox="0 0 126.06 101.91"><defs><style>.cls-1{fill:#ecece3;}</style></defs><g id="Capa_2" data-name="Capa 2"><g id="Capa_1-2" data-name="Capa 1"><path class="cls-1" d="M55.59,90.66l-18.85-9L40.41,74l18.85,9Z"/><path class="cls-1" d="M60.87,100.07,26.09,83.4a3,3,0,0,1-1.42-4l.71-1.47a3,3,0,0,1,4-1.42L64.19,93.15a3,3,0,0,1,1.41,4l-.7,1.47A3,3,0,0,1,60.87,100.07Z"/><path class="cls-1" d="M95.14,101.27,3.7,57.43A6.52,6.52,0,0,1,.64,48.74l21.59-45A6.53,6.53,0,0,1,30.92.64l91.44,43.83a6.53,6.53,0,0,1,3.06,8.7l-21.59,45A6.52,6.52,0,0,1,95.14,101.27ZM30.23,2.09A4.91,4.91,0,0,0,23.69,4.4l-21.6,45A4.91,4.91,0,0,0,4.4,56L95.83,99.82a4.93,4.93,0,0,0,6.55-2.31l21.59-45a4.9,4.9,0,0,0-2.3-6.54Z"/><path class="cls-1" d="M31.91,20.64c-3.58,1.11-3.59,1.11-3.32,4.94.2,2.81.39,5.62.63,8.42a4.94,4.94,0,0,1-6.5,5.42,3,3,0,0,1-1.16-5.66,5.53,5.53,0,0,1,4.5-1.15c1,.19,1.05-.17,1-.94-.36-4.53-.67-9.06-1.08-13.58a1.64,1.64,0,0,1,1.11-1.93,41.6,41.6,0,0,1,12.61-3.4c.84-.1,1.09.16,1.15,1,.42,5.87.91,11.73,1.33,17.6.15,2.08-1.91,3.95-4.53,4.25-2.39.27-4.41-.83-4.73-2.59s1.29-3.68,3.56-4.23a6,6,0,0,1,2.5-.15c.73.14,1,0,.92-.78q-.35-3.9-.59-7.8c0-.81-.38-1-1.11-.85A46.68,46.68,0,0,0,31.91,20.64Z"/><path class="cls-1" d="M32.86,43.51l9.42,26.78L73,59.49,63.56,32.7ZM44.25,40.4,53,37.33l1.7,4.83L46,45.23ZM34.13,44l8.72-3.07,1.7,4.83-8.72,3.07ZM51.7,66,43,69.1l-1.7-4.84L50,61.19Zm10.12-3.57-8.73,3.07-1.7-4.83,8.72-3.07ZM71.76,59,63,62,61.33,57.2l8.73-3.07Zm-2-5.68L41.15,63.35l-4.9-13.92L64.86,39.36ZM64.62,38.66l-8.73,3.07-1.7-4.83,8.72-3.07Z"/><path class="cls-1" d="M62.37,43.08l-4.93,5.76-1.26-3.58a1.33,1.33,0,0,0-1.68-.81L44.2,48.08a1.32,1.32,0,0,0-.81,1.68l3,8.54a1.31,1.31,0,0,0,1.68.8l10.3-3.62a1.32,1.32,0,0,0,.8-1.68l-1.1-3.15,7.45,1.4ZM49.85,57.53l-3.16-9L56,50.31Z"/><path class="cls-1" d="M107.3,76.31a5.9,5.9,0,0,0,3-6.52c-.43-2-.88-3.94-1.45-5.87-1-3.46-2-6.93-3.18-10.34a126.08,126.08,0,0,0-6.16-14.7,6.09,6.09,0,0,0-6.55-3.59c-1.26.2-2.52.47-3.76.78a53,53,0,0,0-12.91,5A6,6,0,0,0,73,47.71c.36,1.83.81,3.65,1.26,5.46A8.28,8.28,0,0,0,74.83,55a5,5,0,0,0,2.46,2.07c1.47.73,3,1.37,4.46,2.08a17,17,0,0,1,2,1.14,1.87,1.87,0,0,1,.8,2.21,7.83,7.83,0,0,1-.37,1.16c-.44,1-.88,1.92-1.36,2.86a18.08,18.08,0,0,0-1.76,4.12,4,4,0,0,0,.25,2.75c.87,1.76,1.69,3.55,2.55,5.32a5.91,5.91,0,0,0,6.84,3.47A49.48,49.48,0,0,0,99.07,80,52.26,52.26,0,0,0,107.3,76.31Zm-17.52,4a3.9,3.9,0,0,1-3.92-2c-1-1.94-1.9-3.91-2.84-5.88a2,2,0,0,1,0-1.71c.63-1.42,1.33-2.82,2-4.23a33.36,33.36,0,0,0,1.36-3.07,3.9,3.9,0,0,0-1.8-5c-1.4-.81-2.92-1.42-4.37-2.15-1-.49-2-1-2.92-1.56a2.14,2.14,0,0,1-1-1.45c-.42-1.88-.9-3.76-1.31-5.65a4.05,4.05,0,0,1,2.23-4.75,51,51,0,0,1,13.65-5.11c.85-.18,1.69-.35,2.54-.48a4,4,0,0,1,4.09,2.14q3.47,7.08,6.26,14.46c1.06,3.53,2.16,7.06,3.17,10.6.54,1.89,1,3.82,1.4,5.73a4,4,0,0,1-1.92,4.28A50.69,50.69,0,0,1,89.78,80.31Z"/><path class="cls-1" d="M101.93,65.56a6.24,6.24,0,1,0-3.85,7.9A6.24,6.24,0,0,0,101.93,65.56ZM92,68.9a4.24,4.24,0,0,1,8-2.75,4.24,4.24,0,1,1-8,2.75Z"/><path class="cls-1" d="M95.41,47a6.24,6.24,0,0,0-11.74,4.25A6.24,6.24,0,1,0,95.41,47Zm-9.85,3.62a4.24,4.24,0,1,1,5.37,2.56A4.28,4.28,0,0,1,85.56,50.64Z"/></g></g></svg>